<?xml version="1.0" encoding="utf-8"?>
<!-- Generator: Adobe Illustrator 24.1.2, SVG Export Plug-In . SVG Version: 6.00 Build 0)  -->
<svg version="1.1" id="Layer_1" xmlns="http://www.w3.org/2000/svg" xmlns:xlink="http://www.w3.org/1999/xlink" x="0px" y="0px"
	 viewBox="0 0 200 200" style="enable-background:new 0 0 200 200;" xml:space="preserve">
<style type="text/css">
	.st0{fill:#FFFFFF;}
	.st1{fill:#C1C4C6;}
	.st2{fill:#231F20;}
	.st3{fill:#A21A34;}
</style>
<desc>Created with Sketch.</desc>
<g id="alabama_1_">
	<g id="alabama_BGD">
		<g id="alabama">
			
				<g id="g10" transform="translate(99.861685, 99.922547) scale(-1, 1) rotate(-180.000000) translate(-99.861685, -99.922547) translate(0.000000, 0.060863)">
				<g id="g12">
					<path id="path14" class="st0" d="M99.7,8.1c-50.6,0-91.6,41-91.6,91.6c0,50.6,41,91.6,91.6,91.6c50.6,0,91.6-41,91.6-91.6
						C191.2,49.1,150.2,8.1,99.7,8.1z M99.7,195.3c-52.7,0-95.6-42.9-95.6-95.6C4.1,47,47,4.1,99.7,4.1c52.7,0,95.6,42.9,95.6,95.6
						C195.3,152.4,152.4,195.3,99.7,195.3L99.7,195.3z"/>
					<path id="path16" class="st0" d="M129.3,66.6c0,0-18.8-10.1-17.2,16.1l0.8,10.5l-12.9-2c-5-10-14.1-27-27.7-26.7
						c-12.7-0.8-18.5,12.5-12.4,19.2c2.5,3,4.6,1.6,3.2-0.4C60.6,79.4,65.1,72.8,69,72c11.6-2.7,17.3,10.9,22.1,19.3
						c-4.8,0.3-6.3,6-5,9.4c1.1,3.2,4.1,4,4.1,4c-0.8-1.5-0.2-7,4.3-6.2c5.6,9.5,11.8,18.7,18.9,27.5c-6.9,0.8-18.1-0.9-18.8,7.8
						c0,2,1.1,4.3,3,4.4c-1.2-8,16.3-6.6,19.2-6c3.1,0.5,6.9,3.4,10.7,6.2l5.5-2.6c-5.5-9.8-8.1-21.7-10.6-32.9c0,0,9.9,2.5,7.9-7
						c-0.4-1.8-2.5-3.6-3.6-4.1c0,3.9-3,2.8-5.3,2.4c-0.2-0.9-0.5-3.8-0.5-4.7c-0.2-2.5-0.5-9,0-13.6c0.5-4.1,5.5-4.9,12.2-1.4
						c0.6,0.3,1.2,0.8,1.4-0.4C134.6,70.7,131.9,67.8,129.3,66.6L129.3,66.6z M99.7,159.5c-33,0-59.8-26.8-59.8-59.8
						c0-33,26.8-59.8,59.8-59.8c33,0,59.8,26.8,59.8,59.8C159.5,132.7,132.7,159.5,99.7,159.5L99.7,159.5z"/>
					<path id="path18" class="st0" d="M114,101.1c1.7,7,3.4,14.8,5.6,21.7c-7.8-7.9-10.5-15.1-15.4-22.9L114,101.1"/>
					<path id="path20" class="st1" d="M177.6,125.6l0-0.1l-7.1-3.7l-0.8,2.5L177.6,125.6z M163.4,130.1l-3.8-1.3l2-6.2l4.7,0.9
						l1.1-3.2l-4.4-2l2-6.1l3.9,1.3l-0.4,1.3l13.7,7.7l-2.8,8.4l-15.6-2.2L163.4,130.1L163.4,130.1z"/>
					<path id="path22" class="st1" d="M151,156.3c-0.7-2.9-1.3-5.9-2-8.9l8.7,2.3l-7.5-7.3l4.5-4.7l2.9,2.9l-1,1l8.1,7.9l0.9-0.9
						l2.9,2.8l-4.4,4.5l-9.3-2.5l2.6,9.4l-4.5,4.6l-2.9-2.8l0.9-1l-8.2-8l-0.9,0.9l-2.9-2.8l4.5-4.7L151,156.3"/>
					<path id="path24" class="st1" d="M127.9,176.8l0.1-0.1l-1.5-7.8l-2.4,0.9L127.9,176.8z M122.6,166.7l3.2-1.2l-1.1-4.7l6-2.2
						l1.4,3.9l-1.3,0.5l2.5,15.5l-8.3,3.1l-8-13.6l-1.4,0.5l-1.4-3.8l6.1-2.3L122.6,166.7L122.6,166.7z"/>
					<path id="path26" class="st1" d="M95.4,169.4l-0.2,4.1l3.1,0.1l0.2-4.1L95.4,169.4z M94.9,180.9L98,181l0.2-3.7l-3.1-0.1
						L94.9,180.9z M100.8,175.9c1.6,0.3,2.6,1.4,2.8,3c0.1,2.3-0.4,6.5-3.1,6.4l-12.6-0.7l0.2-3.8l1.5,0l0.5-11.4l-1.4-0.1l0.2-4
						l13,0.7c1.6,0.1,2.3,1.9,2.3,3.5l-0.2,4.1C103.4,174.7,102.2,175.6,100.8,175.9L100.8,175.9z"/>
					<path id="path28" class="st1" d="M64.3,173.8l4.6-6.6l-2.3-1.1l-2.4,7.6L64.3,173.8z M61.5,159.1l1.7-3.7l5.9,2.8l-1.5,4.6
						l3.1,1.5l2.5-4.1l5.8,2.7l-1.8,3.7l-1.2-0.6l-9.4,12.6l-8-3.8l4.2-15.2L61.5,159.1L61.5,159.1z"/>
					<polyline id="path30" class="st1" points="35.1,149.8 43.6,142.1 42.7,141.1 45.7,138.4 55.5,149.3 50,154.3 46.4,150.4 
						49,148.1 47.3,146.3 38.9,153.9 39.7,154.9 36.7,157.6 31.1,151.4 34.1,148.7 35.1,149.8 					"/>
					<path id="path32" class="st1" d="M29.2,123l-7.1,3.7l0.1,0.1l7.9-1.4L29.2,123z M30.7,114.5l3.8-1.3l2.2,6.2l-4.3,2.2l1.1,3.2
						l4.7-1.1l2.1,6l-3.9,1.4l-0.4-1.3L20.4,132l-2.9-8.4l13.7-7.8L30.7,114.5L30.7,114.5z"/>
					<polyline id="path34" class="st1" points="177.2,82.2 176.1,78.3 178.5,77.6 177.8,75.1 173.8,76.3 174.8,79.7 171.3,80.8 
						170.2,77.4 166.7,78.5 167.4,81 169.5,80.4 170.6,84 164.6,85.8 161.1,74.3 165,73.1 165.3,74.1 176.4,70.7 176.1,69.6 
						180,68.4 183.7,80.2 177.2,82.2 					"/>
					<path id="path36" class="st1" d="M169.1,56.1l-9.9,6.1l1.3,2.2l9.9-6.1L169.1,56.1z M173.8,61.4l-11.7,7.2
						c-1.3,0.8-3.3,1-4.1-0.2l-5.5-8.9l3.5-2.2l0.6,1l9.9-6.1l-0.5-1l3.4-2.1l5.4,8.9C175.6,59.1,175.1,60.7,173.8,61.4L173.8,61.4z
						"/>
					<polyline id="path38" class="st1" points="160.3,44.6 151.9,52.6 152.7,53.4 149.7,56.3 144.9,51.3 147.9,48.5 148.8,49.3 
						157.2,41.3 156.4,40.5 159.4,37.7 164,42.6 161.1,45.4 160.3,44.6 					"/>
					<polyline id="path40" class="st1" points="146.5,32.5 140.1,42.2 141.5,43.1 143.2,40.4 146,42.2 142,48.3 129.9,40.4 
						133.9,34.3 136.7,36.2 134.9,38.8 136.3,39.7 142.7,30 141.9,29.4 144.1,26 149.7,29.7 147.5,33.1 146.5,32.5 					"/>
					<polyline id="path42" class="st1" points="123.7,33.3 122.8,37.2 117.5,35.9 119.8,26.3 113.2,34.9 107.9,33.6 108.9,29.6 
						110,29.9 112.8,18.6 111.6,18.3 112.6,14.3 118,15.6 115.5,25.5 122.2,16.7 126.4,17.7 122.7,32.9 123.7,33.3 					"/>
					<path id="path44" class="st1" d="M99,17.8l-2.5,0.1l0.3,11.6l2.5-0.1L99,17.8z M101.3,33.5l-6.1,0.1c-1.3,0-2.9-1-3-2.8
						l-0.3-14.2c0-1.6,1.1-2.8,2.4-2.9l6.6-0.2c1.5,0,2.4,1.8,2.5,3.5l0.3,13.3C103.8,32.1,102.7,33.5,101.3,33.5L101.3,33.5z"/>
					<path id="path46" class="st1" d="M76,34.3l-1.2-4.5c-0.5-1.9,0.1-4,1.7-4.4l4.3-1.1l-1-3.9L77.3,21l0.5,1.9L73.6,24L72,18.1
						l8.5-2.3c1.4-0.4,2.9,0.8,3.4,2.5l1.4,5.1c0.5,1.8-0.1,3.6-1.5,4l-4.5,1.2l1,3.6l2.5-0.7l-0.5-1.7l3.9-1l1.5,5.6l-7.9,2.1
						C78.3,36.9,76.5,36.1,76,34.3"/>
					<path id="path48" class="st1" d="M68.1,41.5l-7.9-5.2l1,9.4l-4.6,2.8l-2.2-3.5l1-0.6l-6.1-9.9l-1,0.5l-2.1-3.4l4.6-2.9l5.5,8.9
						c-0.2-2.9-0.4-5.9-0.6-8.8l7.4,4.8l-5.6-9.1l4.6-2.9l2.2,3.5l-1,0.6l6.1,9.8l0.9-0.5l2.2,3.5L68.1,41.5"/>
					<polyline id="path50" class="st1" points="50.3,49.7 51,48.9 54,51.7 49.3,56.7 46.3,53.8 47.1,53 38.7,45 38,45.7 35,42.9 
						39.7,38 42.6,40.9 41.9,41.7 50.3,49.7 					"/>
					<path id="path52" class="st1" d="M38.5,64.9l1.3-2.2l-3.3-2L35.2,63L38.5,64.9z M36.1,57.8c1-0.6,2.3-1.1,3.6-0.4l2.9,1.6
						c1.8,1,2.5,3.1,1.7,4.5l-5,8.5l-3.6-2.1l0.5-1L26.3,63l-0.6,0.9l-3.5-2.1l2.9-4.9L32,61l1.3-2.2L28,55.6c-0.7-0.4-1.4-1.3-1-2
						l2.3-3.8l3.5,2.1l-0.5,1l2.4,1.6C36,55.3,36.4,56.5,36.1,57.8L36.1,57.8z"/>
					<path id="path54" class="st1" d="M24.6,76.2l-3-0.9l-0.7,2.4L32,81l0.7-2.4l-2.2-0.6l1.1-3.8l6.2,1.8l-2.3,8
						c-0.4,1.4-2.2,2.2-3.9,1.7l-11.7-3.4c-2-0.6-3.9-2.1-3.4-3.8l2.4-8.3l7,2L24.6,76.2"/>
					<path id="path56" class="st2" d="M99.7,4.1C47,4.1,4.1,47,4.1,99.7c0,52.7,42.9,95.6,95.6,95.6c52.7,0,95.6-42.9,95.6-95.6
						C195.3,47,152.4,4.1,99.7,4.1z M99.7,199.4c-55,0-99.7-44.7-99.7-99.7C0,44.7,44.7,0,99.7,0c55,0,99.7,44.7,99.7,99.7
						C199.4,154.7,154.6,199.4,99.7,199.4L99.7,199.4z"/>
					<polyline id="path62" class="st3" points="68.8,167.2 64.3,173.8 64.1,173.7 66.5,166.1 68.8,167.2 					"/>
					<polyline id="path64" class="st3" points="98.2,177.4 98,181 94.9,180.9 95.1,177.2 98.2,177.4 					"/>
					<polyline id="path66" class="st3" points="39.8,62.7 38.5,64.9 35.2,63 36.5,60.7 39.8,62.7 					"/>
					<polyline id="path68" class="st3" points="177.7,125.5 177.6,125.6 169.8,124.2 170.6,121.8 177.7,125.5 					"/>
					<polyline id="path70" class="st3" points="128.1,176.8 127.9,176.8 124.1,169.8 126.6,168.9 128.1,176.8 					"/>
					<polyline id="path72" class="st3" points="95.4,169.4 98.6,169.6 98.4,173.7 95.2,173.5 95.4,169.4 					"/>
					<polyline id="path74" class="st3" points="22.1,126.7 29.2,123 30,125.5 22.2,126.9 22.1,126.7 					"/>
					<polyline id="path76" class="st3" points="159.2,62.2 169.1,56.1 170.4,58.3 160.5,64.4 159.2,62.2 					"/>
					<path id="path78" class="st3" d="M176.1,69.6l0.3,1.1l-11.1,3.4l-0.3-1.1l-3.9,1.2l3.5,11.6l6-1.8l-1.1-3.6l-2.1,0.6l-0.8-2.5
						l3.5-1.1l1.1,3.4l3.5-1.1l-1-3.4l4-1.2l0.8,2.5l-2.5,0.8l1.2,3.9l6.4-2L180,68.4L176.1,69.6z M175,58.1l-5.4-8.9l-3.4,2.1
						l0.5,1l-9.9,6.1l-0.6-1l-3.5,2.2l5.5,8.9c0.7,1.2,2.7,1,4.1,0.2l11.7-7.2C175.1,60.7,175.6,59.1,175,58.1L175,58.1z
						 M159.4,37.7l-2.9,2.8l0.7,0.7l-8.4,8.1l-0.8-0.9l-3,2.9l4.7,4.9l3-2.9l-0.8-0.8l8.3-8l0.8,0.8l3-2.9L159.4,37.7z M144.1,26
						l-2.3,3.4l0.8,0.5l-6.4,9.7l-1.3-0.9l1.7-2.6l-2.8-1.8l-4,6l12.1,8l4-6.1l-2.8-1.8l-1.8,2.7l-1.3-0.9l6.4-9.7l0.9,0.6l2.3-3.4
						L144.1,26z M122.2,16.7l-6.6,8.7l2.4-9.8l-5.4-1.3l-1,4l1.2,0.3L110,29.9l-1.2-0.3l-1,4l5.3,1.3l6.6-8.6l-2.3,9.6l5.3,1.3l1-4
						l-1-0.3l3.7-15.2L122.2,16.7z M103.5,17.2c0-1.8-1-3.6-2.5-3.5l-6.6,0.2c-1.3,0-2.5,1.3-2.4,2.9l0.3,14.2c0,1.8,1.6,2.8,3,2.8
						l6.1-0.1c1.4,0,2.5-1.4,2.5-3L103.5,17.2z M86.1,28.8l-3.9,1l0.5,1.7l-2.5,0.7l-1-3.6l4.5-1.2c1.4-0.4,2-2.3,1.5-4l-1.4-5.1
						c-0.5-1.7-2-2.8-3.4-2.5L72,18.1l1.6,5.9l4.2-1.1L77.3,21l2.4-0.6l1,3.9l-4.3,1.1c-1.6,0.4-2.2,2.5-1.7,4.4l1.2,4.5
						c0.5,1.8,2.3,2.6,3.8,2.2l7.9-2.1L86.1,28.8z M69.5,35.7l-6.1-9.8l1-0.6l-2.2-3.5l-4.6,2.9l5.6,9.1l-7.4-4.8
						c0.2,2.9,0.4,5.9,0.6,8.8l-5.5-8.9l-4.6,2.9l2.1,3.4l1-0.5l6.1,9.9l-1,0.6l2.2,3.5l4.6-2.8l-1-9.4l7.9,5.2l4.5-2.8l-2.2-3.5
						L69.5,35.7z M39.7,38L35,42.9l2.9,2.8l0.7-0.8l8.4,8l-0.8,0.9l3,2.9l4.7-5l-3-2.9l-0.7,0.8l-8.4-8l0.8-0.8L39.7,38z M34.7,54.5
						l-2.4-1.6l0.5-1l-3.5-2.1L27,53.6c-0.4,0.7,0.2,1.6,1,2l5.3,3.2L32,61l-6.9-4.1l-2.9,4.9l3.5,2.1l0.6-0.9l9.9,5.9l-0.5,1
						l3.6,2.1l5-8.5c0.8-1.4,0.1-3.6-1.7-4.5l-2.9-1.6c-1.3-0.7-2.6-0.2-3.6,0.4C36.4,56.5,36,55.3,34.7,54.5L34.7,54.5z M16.4,78.4
						c-0.5,1.7,1.4,3.2,3.4,3.8l11.7,3.4c1.7,0.5,3.5-0.2,3.9-1.7l2.3-8l-6.2-1.8l-1.1,3.8l2.2,0.6L32,81l-11.2-3.3l0.7-2.4l3,0.9
						l1.2-4l-7-2L16.4,78.4z M20.4,132l15.5-2.3l0.4,1.3l3.9-1.4l-2.1-6l-4.7,1.1l-1.1-3.2l4.3-2.2l-2.2-6.2l-3.8,1.3l0.5,1.4
						l-13.7,7.8L20.4,132z M36.7,157.6l3-2.7l-0.9-1l8.5-7.6l1.6,1.8l-2.5,2.3l3.5,3.9l5.6-5l-9.8-10.9l-3.1,2.7l0.9,1l-8.5,7.7
						l-1-1.1l-3,2.7L36.7,157.6z M99.7,159.5c33,0,59.8-26.8,59.8-59.8c0-33-26.8-59.8-59.8-59.8c-33,0-59.8,26.8-59.8,59.8
						C39.9,132.7,66.7,159.5,99.7,159.5z M66.7,178.7l9.4-12.6l1.2,0.6l1.8-3.7l-5.8-2.7l-2.5,4.1l-3.1-1.5l1.5-4.6l-5.9-2.8
						l-1.7,3.7l1.3,0.6l-4.2,15.2L66.7,178.7z M100.4,185.3c2.7,0.2,3.2-4.1,3.1-6.4c-0.3-1.6-1.3-2.7-2.8-3c1.4-0.3,2.6-1.1,3-2.4
						l0.2-4.1c0-1.6-0.7-3.4-2.3-3.5l-13-0.7l-0.2,4l1.4,0.1l-0.5,11.4l-1.5,0l-0.2,3.8L100.4,185.3z M115.6,168.5l1.4-0.5l8,13.6
						l8.3-3.1l-2.5-15.5l1.3-0.5l-1.4-3.9l-6,2.2l1.1,4.7l-3.2,1.2l-2.3-4.2l-6.1,2.3L115.6,168.5z M142,156.6l0.9-0.9l8.2,8l-0.9,1
						l2.9,2.8l4.5-4.6l-2.6-9.4l9.3,2.5l4.4-4.5l-2.9-2.8l-0.9,0.9l-8.1-7.9l1-1l-2.9-2.9l-4.5,4.7l7.5,7.3l-8.7-2.3
						c0.7,2.9,1.4,5.9,2,8.9l-7.4-7.2l-4.5,4.7L142,156.6z M182.2,122.5l-13.7-7.7l0.4-1.3l-3.9-1.3l-2,6.1l4.4,2l-1.1,3.2l-4.7-0.9
						l-2,6.2l3.8,1.3l0.5-1.4l15.6,2.2L182.2,122.5z M99.7,191.2c-50.6,0-91.6-41-91.6-91.6c0-50.6,41-91.6,91.6-91.6
						c50.6,0,91.6,41,91.6,91.6C191.2,150.2,150.2,191.2,99.7,191.2L99.7,191.2z"/>
					<polyline id="path80" class="st3" points="96.5,17.8 99,17.8 99.2,29.4 96.8,29.4 96.5,17.8 					"/>
					<path id="path82" class="st3" d="M119.6,122.8c-2.2-6.9-3.9-14.7-5.6-21.7l-9.8-1.2C109.1,107.7,111.7,114.9,119.6,122.8z
						 M72.2,64.5C85.8,64.3,95,81.2,100,91.2l12.9,2L112,82.7c-1.6-26.2,17.2-16.1,17.2-16.1c2.6,1.2,5.4,4.1,5.3,7.4
						c-0.1,1.1-0.8,0.7-1.4,0.4c-6.7-3.4-11.6-2.7-12.2,1.4c-0.6,4.6-0.3,11.2,0,13.6c0.1,0.9,0.4,3.9,0.5,4.7
						c2.3,0.5,5.3,1.6,5.3-2.4c1.2,0.6,3.3,2.3,3.6,4.1c2,9.5-7.9,7-7.9,7c2.4,11.2,5,23.1,10.6,32.9l-5.5,2.6
						c-3.7-2.9-7.5-5.8-10.7-6.2c-2.9-0.7-20.4-2.1-19.2,6c-2-0.2-3.1-2.5-3-4.4c0.6-8.7,11.9-6.9,18.8-7.8
						c-7.1-8.9-13.3-18-18.9-27.5c-4.5-0.9-5,4.7-4.3,6.2c0,0-2.9-0.8-4.1-4c-1.4-3.4,0.2-9.1,5-9.4C86.4,82.9,80.7,69.2,69,72
						c-3.9,0.8-8.4,7.4-6.1,11.3c1.4,2-0.7,3.4-3.2,0.4C53.7,77.1,59.6,63.8,72.2,64.5L72.2,64.5z"/>
				</g>
			</g>
		</g>
	</g>
</g>
</svg>
