<svg version="1.1" id="Layer_1" xmlns="http://www.w3.org/2000/svg" x="0" y="0" viewBox="0 0 200 200" xml:space="preserve"><style>.st0{fill:#fff}.st1{fill:#c1c4c6}.st3{fill:#a21a34}</style><g id="alabama_1_"><g id="alabama_BGD"><g id="alabama"><g id="g10" transform="matrix(1 0 0 -1 0 199.784)"><g id="g12"><path id="path14" class="st0" d="M99.7 8.1c-50.6 0-91.6 41-91.6 91.6 0 50.6 41 91.6 91.6 91.6 50.6 0 91.6-41 91.6-91.6-.1-50.6-41.1-91.6-91.6-91.6zm0 187.2c-52.7 0-95.6-42.9-95.6-95.6C4.1 47 47 4.1 99.7 4.1c52.7 0 95.6 42.9 95.6 95.6 0 52.7-42.9 95.6-95.6 95.6z"/><path id="path16" class="st0" d="M129.3 66.6s-18.8-10.1-17.2 16.1l.8 10.5-12.9-2c-5-10-14.1-27-27.7-26.7-12.7-.8-18.5 12.5-12.4 19.2 2.5 3 4.6 1.6 3.2-.4-2.5-3.9 2-10.5 5.9-11.3 11.6-2.7 17.3 10.9 22.1 19.3-4.8.3-6.3 6-5 9.4 1.1 3.2 4.1 4 4.1 4-.8-1.5-.2-7 4.3-6.2 5.6 9.5 11.8 18.7 18.9 27.5-6.9.8-18.1-.9-18.8 7.8 0 2 1.1 4.3 3 4.4-1.2-8 16.3-6.6 19.2-6 3.1.5 6.9 3.4 10.7 6.2l5.5-2.6c-5.5-9.8-8.1-21.7-10.6-32.9 0 0 9.9 2.5 7.9-7-.4-1.8-2.5-3.6-3.6-4.1 0 3.9-3 2.8-5.3 2.4-.2-.9-.5-3.8-.5-4.7-.2-2.5-.5-9 0-13.6.5-4.1 5.5-4.9 12.2-1.4.6.3 1.2.8 1.4-.4.1-3.4-2.6-6.3-5.2-7.5zm-29.6 92.9c-33 0-59.8-26.8-59.8-59.8s26.8-59.8 59.8-59.8 59.8 26.8 59.8 59.8-26.8 59.8-59.8 59.8z"/><path id="path18" class="st0" d="M114 101.1c1.7 7 3.4 14.8 5.6 21.7-7.8-7.9-10.5-15.1-15.4-22.9l9.8 1.2"/><path id="path20" class="st1" d="M177.6 125.6v-.1l-7.1-3.7-.8 2.5 7.9 1.3zm-14.2 4.5l-3.8-1.3 2-6.2 4.7.9 1.1-3.2-4.4-2 2-6.1 3.9 1.3-.4 1.3 13.7 7.7-2.8 8.4-15.6-2.2-.4 1.4z"/><path id="path22" class="st1" d="M151 156.3c-.7-2.9-1.3-5.9-2-8.9l8.7 2.3-7.5-7.3 4.5-4.7 2.9 2.9-1 1 8.1 7.9.9-.9 2.9 2.8-4.4 4.5-9.3-2.5 2.6 9.4-4.5 4.6-2.9-2.8.9-1-8.2-8-.9.9-2.9-2.8 4.5-4.7 7.6 7.3"/><path id="path24" class="st1" d="M127.9 176.8l.1-.1-1.5-7.8-2.4.9 3.8 7zm-5.3-10.1l3.2-1.2-1.1-4.7 6-2.2 1.4 3.9-1.3.5 2.5 15.5-8.3 3.1-8-13.6-1.4.5-1.4-3.8 6.1-2.3 2.3 4.3z"/><path id="path26" class="st1" d="M95.4 169.4l-.2 4.1 3.1.1.2-4.1-3.1-.1zm-.5 11.5l3.1.1.2-3.7-3.1-.1-.2 3.7zm5.9-5c1.6.3 2.6 1.4 2.8 3 .1 2.3-.4 6.5-3.1 6.4l-12.6-.7.2-3.8h1.5l.5-11.4-1.4-.1.2-4 13 .7c1.6.1 2.3 1.9 2.3 3.5l-.2 4.1c-.6 1.1-1.8 2-3.2 2.3z"/><path id="path28" class="st1" d="M64.3 173.8l4.6-6.6-2.3-1.1-2.4 7.6.1.1zm-2.8-14.7l1.7-3.7 5.9 2.8-1.5 4.6 3.1 1.5 2.5-4.1 5.8 2.7-1.8 3.7-1.2-.6-9.4 12.6-8-3.8 4.2-15.2-1.3-.5z"/><path id="path30" class="st1" d="M35.1 149.8l8.5-7.7-.9-1 3-2.7 9.8 10.9-5.5 5-3.6-3.9 2.6-2.3-1.7-1.8-8.4 7.6.8 1-3 2.7-5.6-6.2 3-2.7 1 1.1"/><path id="path32" class="st1" d="M29.2 123l-7.1 3.7.1.1 7.9-1.4-.9-2.4zm1.5-8.5l3.8-1.3 2.2 6.2-4.3 2.2 1.1 3.2 4.7-1.1 2.1 6-3.9 1.4-.4-1.3-15.6 2.2-2.9-8.4 13.7-7.8-.5-1.3z"/><path id="path34" class="st1" d="M177.2 82.2l-1.1-3.9 2.4-.7-.7-2.5-4 1.2 1 3.4-3.5 1.1-1.1-3.4-3.5 1.1.7 2.5 2.1-.6 1.1 3.6-6 1.8-3.5-11.5 3.9-1.2.3 1 11.1-3.4-.3-1.1 3.9-1.2 3.7 11.8-6.5 2"/><path id="path36" class="st1" d="M169.1 56.1l-9.9 6.1 1.3 2.2 9.9-6.1-1.3-2.2zm4.7 5.3l-11.7 7.2c-1.3.8-3.3 1-4.1-.2l-5.5-8.9 3.5-2.2.6 1 9.9-6.1-.5-1 3.4-2.1 5.4 8.9c.8 1.1.3 2.7-1 3.4z"/><path id="path38" class="st1" d="M160.3 44.6l-8.4 8 .8.8-3 2.9-4.8-5 3-2.8.9.8 8.4-8-.8-.8 3-2.8 4.6 4.9-2.9 2.8-.8-.8"/><path id="path40" class="st1" d="M146.5 32.5l-6.4 9.7 1.4.9 1.7-2.7 2.8 1.8-4 6.1-12.1-7.9 4-6.1 2.8 1.9-1.8 2.6 1.4.9 6.4-9.7-.8-.6 2.2-3.4 5.6 3.7-2.2 3.4-1-.6"/><path id="path42" class="st1" d="M123.7 33.3l-.9 3.9-5.3-1.3 2.3-9.6-6.6 8.6-5.3-1.3 1-4 1.1.3 2.8-11.3-1.2-.3 1-4 5.4 1.3-2.5 9.9 6.7-8.8 4.2 1-3.7 15.2 1 .4"/><path id="path44" class="st1" d="M99 17.8l-2.5.1.3 11.6 2.5-.1-.3-11.6zm2.3 15.7l-6.1.1c-1.3 0-2.9-1-3-2.8l-.3-14.2c0-1.6 1.1-2.8 2.4-2.9l6.6-.2c1.5 0 2.4 1.8 2.5 3.5l.3 13.3c.1 1.8-1 3.2-2.4 3.2z"/><path id="path46" class="st1" d="M76 34.3l-1.2-4.5c-.5-1.9.1-4 1.7-4.4l4.3-1.1-1-3.9-2.5.6.5 1.9-4.2 1.1-1.6-5.9 8.5-2.3c1.4-.4 2.9.8 3.4 2.5l1.4 5.1c.5 1.8-.1 3.6-1.5 4l-4.5 1.2 1 3.6 2.5-.7-.5-1.7 3.9-1 1.5 5.6-7.9 2.1c-1.5.4-3.3-.4-3.8-2.2"/><path id="path48" class="st1" d="M68.1 41.5l-7.9-5.2 1 9.4-4.6 2.8-2.2-3.5 1-.6-6.1-9.9-1 .5-2.1-3.4 4.6-2.9 5.5 8.9c-.2-2.9-.4-5.9-.6-8.8l7.4 4.8-5.6-9.1 4.6-2.9 2.2 3.5-1 .6 6.1 9.8.9-.5 2.2 3.5-4.4 3"/><path id="path50" class="st1" d="M50.3 49.7l.7-.8 3 2.8-4.7 5-3-2.9.8-.8-8.4-8-.7.7-3-2.8 4.7-4.9 2.9 2.9-.7.8 8.4 8"/><path id="path52" class="st1" d="M38.5 64.9l1.3-2.2-3.3-2-1.3 2.3 3.3 1.9zm-2.4-7.1c1-.6 2.3-1.1 3.6-.4l2.9 1.6c1.8 1 2.5 3.1 1.7 4.5l-5 8.5-3.6-2.1.5-1-9.9-5.9-.6.9-3.5-2.1 2.9-4.9L32 61l1.3-2.2-5.3-3.2c-.7-.4-1.4-1.3-1-2l2.3-3.8 3.5 2.1-.5 1 2.4 1.6c1.3.8 1.7 2 1.4 3.3z"/><path id="path54" class="st1" d="M24.6 76.2l-3-.9-.7 2.4L32 81l.7-2.4-2.2-.6 1.1-3.8 6.2 1.8-2.3 8c-.4 1.4-2.2 2.2-3.9 1.7l-11.7-3.4c-2-.6-3.9-2.1-3.4-3.8l2.4-8.3 7 2-1.3 4"/><path id="path56" d="M99.7 4.1C47 4.1 4.1 47 4.1 99.7c0 52.7 42.9 95.6 95.6 95.6 52.7 0 95.6-42.9 95.6-95.6 0-52.7-42.9-95.6-95.6-95.6zm0 195.3c-55 0-99.7-44.7-99.7-99.7S44.7 0 99.7 0s99.7 44.7 99.7 99.7-44.8 99.7-99.7 99.7z" fill="#231f20"/><path id="path62" class="st3" d="M68.8 167.2l-4.5 6.6-.2-.1 2.4-7.6 2.3 1.1"/><path id="path64" class="st3" d="M98.2 177.4L98 181l-3.1-.1.2-3.7 3.1.2"/><path id="path66" class="st3" d="M39.8 62.7l-1.3 2.2-3.3-1.9 1.3-2.3 3.3 2"/><path id="path68" class="st3" d="M177.7 125.5l-.1.1-7.8-1.4.8-2.4 7.1 3.7"/><path id="path70" class="st3" d="M128.1 176.8h-.2l-3.8-7 2.5-.9 1.5 7.9"/><path id="path72" class="st3" d="M95.4 169.4l3.2.2-.2 4.1-3.2-.2.2-4.1"/><path id="path74" class="st3" d="M22.1 126.7l7.1-3.7.8 2.5-7.8 1.4-.1-.2"/><path id="path76" class="st3" d="M159.2 62.2l9.9-6.1 1.3 2.2-9.9 6.1-1.3-2.2"/><path id="path78" class="st3" d="M176.1 69.6l.3 1.1-11.1 3.4-.3-1.1-3.9 1.2 3.5 11.6 6-1.8-1.1-3.6-2.1.6-.8-2.5 3.5-1.1 1.1 3.4 3.5-1.1-1-3.4 4-1.2.8 2.5-2.5.8 1.2 3.9 6.4-2-3.6-11.9-3.9 1.2zM175 58.1l-5.4-8.9-3.4 2.1.5 1-9.9 6.1-.6-1-3.5 2.2 5.5 8.9c.7 1.2 2.7 1 4.1.2l11.7-7.2c1.1-.8 1.6-2.4 1-3.4zm-15.6-20.4l-2.9 2.8.7.7-8.4 8.1-.8-.9-3 2.9 4.7 4.9 3-2.9-.8-.8 8.3-8 .8.8 3-2.9-4.6-4.7zM144.1 26l-2.3 3.4.8.5-6.4 9.7-1.3-.9 1.7-2.6-2.8-1.8-4 6 12.1 8 4-6.1-2.8-1.8-1.8 2.7-1.3-.9 6.4-9.7.9.6 2.3-3.4-5.5-3.7zm-21.9-9.3l-6.6 8.7 2.4-9.8-5.4-1.3-1 4 1.2.3-2.8 11.3-1.2-.3-1 4 5.3 1.3 6.6-8.6-2.3 9.6 5.3 1.3 1-4-1-.3 3.7-15.2-4.2-1zm-18.7.5c0-1.8-1-3.6-2.5-3.5l-6.6.2c-1.3 0-2.5 1.3-2.4 2.9l.3 14.2c0 1.8 1.6 2.8 3 2.8l6.1-.1c1.4 0 2.5-1.4 2.5-3l-.4-13.5zM86.1 28.8l-3.9 1 .5 1.7-2.5.7-1-3.6 4.5-1.2c1.4-.4 2-2.3 1.5-4l-1.4-5.1c-.5-1.7-2-2.8-3.4-2.5L72 18.1l1.6 5.9 4.2-1.1-.5-1.9 2.4-.6 1 3.9-4.3 1.1c-1.6.4-2.2 2.5-1.7 4.4l1.2 4.5c.5 1.8 2.3 2.6 3.8 2.2l7.9-2.1-1.5-5.6zm-16.6 6.9l-6.1-9.8 1-.6-2.2-3.5-4.6 2.9 5.6 9.1-7.4-4.8c.2 2.9.4 5.9.6 8.8l-5.5-8.9-4.6 2.9 2.1 3.4 1-.5 6.1 9.9-1 .6 2.2 3.5 4.6-2.8-1-9.4 7.9 5.2 4.5-2.8-2.2-3.5-1 .3zM39.7 38L35 42.9l2.9 2.8.7-.8 8.4 8-.8.9 3 2.9 4.7-5-3-2.9-.7.8-8.4-8 .8-.8-2.9-2.8zm-5 16.5l-2.4-1.6.5-1-3.5-2.1-2.3 3.8c-.4.7.2 1.6 1 2l5.3 3.2L32 61l-6.9-4.1-2.9 4.9 3.5 2.1.6-.9 9.9 5.9-.5 1 3.6 2.1 5-8.5c.8-1.4.1-3.6-1.7-4.5l-2.9-1.6c-1.3-.7-2.6-.2-3.6.4.3-1.3-.1-2.5-1.4-3.3zM16.4 78.4c-.5 1.7 1.4 3.2 3.4 3.8l11.7 3.4c1.7.5 3.5-.2 3.9-1.7l2.3-8-6.2-1.8-1.1 3.8 2.2.6L32 81l-11.2-3.3.7-2.4 3 .9 1.2-4-7-2-2.3 8.2zm4 53.6l15.5-2.3.4 1.3 3.9-1.4-2.1-6-4.7 1.1-1.1-3.2 4.3-2.2-2.2-6.2-3.8 1.3.5 1.4-13.7 7.8 3 8.4zm16.3 25.6l3-2.7-.9-1 8.5-7.6 1.6 1.8-2.5 2.3 3.5 3.9 5.6-5-9.8-10.9-3.1 2.7.9 1-8.5 7.7-1-1.1-3 2.7 5.7 6.2zm63 1.9c33 0 59.8-26.8 59.8-59.8s-26.8-59.8-59.8-59.8-59.8 26.8-59.8 59.8 26.8 59.8 59.8 59.8zm-33 19.2l9.4-12.6 1.2.6 1.8-3.7-5.8-2.7-2.5 4.1-3.1-1.5 1.5-4.6-5.9-2.8-1.7 3.7 1.3.6-4.2 15.2 8 3.7zm33.7 6.6c2.7.2 3.2-4.1 3.1-6.4-.3-1.6-1.3-2.7-2.8-3 1.4-.3 2.6-1.1 3-2.4l.2-4.1c0-1.6-.7-3.4-2.3-3.5l-13-.7-.2 4 1.4.1-.5 11.4h-1.5l-.2 3.8 12.8.8zm15.2-16.8l1.4-.5 8 13.6 8.3-3.1-2.5-15.5 1.3-.5-1.4-3.9-6 2.2 1.1 4.7-3.2 1.2-2.3-4.2-6.1 2.3 1.4 3.7zm26.4-11.9l.9-.9 8.2 8-.9 1 2.9 2.8 4.5-4.6-2.6-9.4 9.3 2.5 4.4-4.5-2.9-2.8-.9.9-8.1-7.9 1-1-2.9-2.9-4.5 4.7 7.5 7.3-8.7-2.3c.7 2.9 1.4 5.9 2 8.9l-7.4-7.2-4.5 4.7 2.7 2.7zm40.2-34.1l-13.7-7.7.4-1.3-3.9-1.3-2 6.1 4.4 2-1.1 3.2-4.7-.9-2 6.2 3.8 1.3.5-1.4 15.6 2.2 2.7-8.4zm-82.5 68.7c-50.6 0-91.6-41-91.6-91.6C8.1 49 49.1 8 99.7 8c50.6 0 91.6 41 91.6 91.6-.1 50.6-41.1 91.6-91.6 91.6z"/><path id="path80" class="st3" d="M96.5 17.8H99l.2 11.6h-2.4l-.3-11.6"/><path id="path82" class="st3" d="M119.6 122.8c-2.2-6.9-3.9-14.7-5.6-21.7l-9.8-1.2c4.9 7.8 7.5 15 15.4 22.9zM72.2 64.5C85.8 64.3 95 81.2 100 91.2l12.9 2-.9-10.5c-1.6-26.2 17.2-16.1 17.2-16.1 2.6 1.2 5.4 4.1 5.3 7.4-.1 1.1-.8.7-1.4.4-6.7-3.4-11.6-2.7-12.2 1.4-.6 4.6-.3 11.2 0 13.6.1.9.4 3.9.5 4.7 2.3.5 5.3 1.6 5.3-2.4 1.2.6 3.3 2.3 3.6 4.1 2 9.5-7.9 7-7.9 7 2.4 11.2 5 23.1 10.6 32.9l-5.5 2.6c-3.7-2.9-7.5-5.8-10.7-6.2-2.9-.7-20.4-2.1-19.2 6-2-.2-3.1-2.5-3-4.4.6-8.7 11.9-6.9 18.8-7.8-7.1-8.9-13.3-18-18.9-27.5-4.5-.9-5 4.7-4.3 6.2 0 0-2.9-.8-4.1-4-1.4-3.4.2-9.1 5-9.4-4.7-8.3-10.4-22-22.1-19.2-3.9.8-8.4 7.4-6.1 11.3 1.4 2-.7 3.4-3.2.4-6-6.6-.1-19.9 12.5-19.2z"/></g></g></g></g></g></svg>