<?xml version="1.0" encoding="utf-8"?>
<!-- Generator: Adobe Illustrator 24.1.2, SVG Export Plug-In . SVG Version: 6.00 Build 0)  -->
<svg version="1.1" id="Layer_1" xmlns="http://www.w3.org/2000/svg" xmlns:xlink="http://www.w3.org/1999/xlink" x="0px" y="0px"
	 viewBox="0 0 200 200" style="enable-background:new 0 0 200 200;" xml:space="preserve">
<style type="text/css">
	.st0{fill:#1A191A;}
	.st1{fill:#D4B67B;}
</style>
<desc>Created with Sketch.</desc>
<g id="army_1_">
	<g id="army_BGD">
		<g id="army" transform="translate(14.000000, 0.000000)">
			
				<g id="g10" transform="translate(85.999998, 100.429381) scale(-1, 1) rotate(-180.000000) translate(-85.999998, -100.429381) translate(0.000000, 0.994355)">
				<g id="g12">
					<path id="path14" class="st0" d="M168.1,115.8c0-20.2-4.8-39.5-13.4-56.3l-3.4,3.4c7.8,15.9,12.2,34,12.2,52.9v70.6H24
						l-4.6,4.6h148.7V115.8z M157.3,52.8V41.7L117.9,81c0.2,0.2,0.5,0.5,0.7,0.7c1.6,1.7,3.1,3.5,4.4,5.4l0.1-0.1L157.3,52.8z
						 M157.3,41.7h-11.2l-30.3,30.3v3L147,43.8h8.2L157.3,41.7L157.3,41.7z M89.8,3.6L88.1,3l-0.2,0l-0.1,0l-1.7,0.5
						c-26.8,8-48.8,27-62.7,51.6c0.4-0.1,0.7-0.3,1.1-0.4c0,0,0,0,0,0c0.4-0.2,0.8-0.3,1.1-0.4c0,0,0,0,0.1,0
						c0.4-0.1,0.7-0.3,1.1-0.4c0,0,0,0,0.1,0c0.4-0.1,0.8-0.3,1.1-0.4c0,0,0,0,0.1,0c0.4-0.1,0.7-0.2,1.1-0.3c0,0,0.1,0,0.1,0
						c0.3-0.1,0.6-0.2,0.9-0.3C43.5,31.4,63.5,15.1,87.4,8l0.5-0.1l0,0l0,0L88.4,8c20.5,6.2,38.2,19,51.2,36.1l3.3-3.3
						C129.3,23.2,111,9.9,89.8,3.6L89.8,3.6z M95.5,35.7l4.7-14.3l-12.2,8.8h0l-12.2-8.8l4.7,14.3l0,0l-12.2,8.8l15.1,0h0l4.7,14.3
						l4.7-14.3h0h15.1L95.5,35.7L95.5,35.7z M9,67.1l2.1,2.1c9.3-7.3,20.7-12.1,33.4-13.2c1.8-0.2,3.7-0.2,5.5-0.2
						c13.7,0,26.9,4.5,37.8,12.7c6-5.7,14.2-9.2,23.2-9.2c4,0,7.8,0.7,11.4,2l2.3-2.3c-4.2-1.7-8.8-2.6-13.7-2.6
						c-8.9,0-17,3.2-23.4,8.4c-12.2-8.5-27.4-13-43.4-11.6C30.9,54.2,18.8,59.3,9,67.1L9,67.1z M7.8,115.8v63.6l4.6-4.6v-59
						c0-12.5,1.9-24.5,5.4-35.9l-3.7-3.7C10,88.7,7.8,102.1,7.8,115.8L7.8,115.8z M143.2,75l-17.3,17.2c2.7,5.5,4.2,11.7,4.3,18
						c0.2,11.3-4,22-11.9,30.1c-0.9,0.9-1.8,1.8-2.7,2.6c-7.5,6.5-17.1,10.2-27,10.3c-1.2,0-2.5,0-3.7-0.1
						c-5.5-0.4-10.9-1.8-15.7-4.2L52,166.1c10.7,7,23.5,10.9,37.1,10.7c36.4-0.6,65.4-30.7,64.8-67C153.7,97,149.7,85,143.2,75
						L143.2,75z M57,133.6l-1.5-1.5l-18.4,18.4v3L57,133.6z M52.3,176.5l2.2-2.2c-4-2.1-7.8-4.6-11.4-7.4l3.8-3.8l19.8-19.8
						l-5.6-5.6l-24,23.9v0c-4.8-4.8-8.8-10.1-12-16l-2.2,2.2c3.8,6.7,8.7,12.9,14.5,18.2C42,170.2,47,173.7,52.3,176.5L52.3,176.5z
						 M117.9,65.7c-2.2-0.6-4.5-0.8-6.8-0.8c-9.3,0-17.5,4.5-22.6,11.4C77.9,66.7,64.2,61.4,50,61.4c-1.7,0-3.4,0.1-5,0.2
						c-11.2,1-21.5,5.2-29.8,11.6l6.7,6.7l23.7,23.7h13.5c5.7,0,10.8,2.9,13.4,7.4c0.5,0.9,0.9,1.8,1.2,2.8l0,0.1l0,0h0h-4.1h0H54.4
						h-4.8L35.3,99.5H27l39,38.9l4.9,4.9c0.2,0.1,0.4,0.2,0.6,0.3c4.9,2.5,10.5,3.9,16.4,3.9c20.2,0,36.6-16.4,36.6-36.6
						c0-14-7.9-26.2-19.6-32.4L117.9,65.7z M4.8,181.5l-1.9,1.9v4.5l1.2,1.2h0c-1.5,1.5-1.5,4,0,5.6c1.5,1.5,4.1,1.5,5.6,0l0,0
						l1.2,1.2h4.5l1.9-1.9l-2.5-2.5l17.9-17.9c4.1,3.6,8.5,6.7,13.1,9.4l3.2-3.2c-5.2-2.9-10.1-6.4-14.5-10.5
						c-5.9-5.4-10.9-11.5-14.8-18.2l-3.2,3.2c2.5,4.2,5.4,8.1,8.7,11.8L7.3,184L4.8,181.5z M171,193.9H21.4l-4.8,4.8H9.6l-0.4-0.4
						c-0.7,0.3-1.5,0.4-2.3,0.4c-1.8,0-3.6-0.7-4.9-2c-1.9-1.9-2.5-4.8-1.6-7.2L0,189.1v-6.9l4.8-4.8l0,0v-61.5
						c0-14.6,2.5-28.7,7-41.8l-7.2-7.2l2.5-2c1.7-1.3,3.4-2.6,5.2-3.7c0,0,0,0,0,0c0.7-0.5,1.4-0.9,2.1-1.3c0,0,0,0,0.1,0
						c0.7-0.4,1.4-0.8,2.1-1.2c0,0,0.1,0,0.1,0c0.7-0.4,1.4-0.8,2.1-1.1c0,0,0.1,0,0.1,0c0,0,0.1-0.1,0.1-0.1
						c14-27,37.5-47.8,66.2-56.5L87.6,0l0.2,0L88.1,0l2.5,0.8c21.8,6.5,40.5,20.1,54.4,38l12.3,0l2.9,0V54l-3.3,3.3
						c9,17.5,14.1,37.5,14.1,58.5V193.9L171,193.9z"/>
					<path id="path16" class="st1" d="M24,186.4h139.5v-70.6c0-18.9-4.4-37-12.2-52.9l3.4-3.4c8.6,16.9,13.4,36.1,13.4,56.3V191
						H19.4L24,186.4"/>
					<path id="path18" class="st1" d="M17.8,80c-3.5,11.3-5.4,23.4-5.4,35.9v59l-4.6,4.6v-63.6c0-13.8,2.2-27.1,6.4-39.5L17.8,80"/>
					<path id="path20" class="st1" d="M88.4,8L88,7.8l0,0l0,0L87.4,8c-23.9,7.2-43.9,23.4-57.2,44.8c-0.3,0.1-0.6,0.2-0.9,0.3
						c0,0-0.1,0-0.1,0c-0.4,0.1-0.7,0.2-1.1,0.3c0,0,0,0-0.1,0c-0.4,0.1-0.8,0.3-1.1,0.4c0,0,0,0-0.1,0c-0.4,0.1-0.7,0.3-1.1,0.4
						c0,0,0,0-0.1,0c-0.4,0.1-0.8,0.3-1.1,0.4c0,0,0,0,0,0c-0.4,0.1-0.7,0.3-1.1,0.4C37.2,30.5,59.3,11.6,86.1,3.6l1.7-0.5l0.1,0
						l0.2,0l1.7,0.5c21.3,6.4,39.6,19.6,53.1,37.2l-3.3,3.3C126.6,27,109,14.1,88.4,8"/>
					<path id="path22" class="st1" d="M44.2,53.1c16-1.4,31.2,3.1,43.4,11.6c6.3-5.3,14.5-8.4,23.4-8.4c4.8,0,9.5,0.9,13.7,2.6
						l-2.3,2.3c-3.6-1.3-7.4-2-11.4-2c-9,0-17.1,3.5-23.2,9.2C77,60.2,63.7,55.7,50,55.7c-1.8,0-3.7,0.1-5.5,0.2
						c-12.6,1.1-24.1,5.9-33.4,13.2L9,67.1C18.8,59.3,30.9,54.2,44.2,53.1"/>
					<polyline id="path24" class="st1" points="107.7,44.6 92.6,44.6 87.9,58.9 83.3,44.6 83.3,44.6 68.2,44.5 80.4,35.7 80.4,35.7 
						75.7,21.4 87.9,30.2 87.9,30.2 100.1,21.4 95.5,35.7 95.5,35.7 107.7,44.6 					"/>
					<polyline id="path26" class="st1" points="37.1,150.5 55.5,132.1 57,133.6 37.1,153.5 37.1,150.5 					"/>
					<polyline id="path28" class="st1" points="147,43.8 115.8,74.9 115.8,71.9 146.1,41.7 157.3,41.7 157.3,41.7 155.2,43.8 
						147,43.8 					"/>
					<path id="path30" class="st1" d="M123.1,87l-0.1,0.1c-1.3-1.9-2.8-3.7-4.4-5.4c-0.2-0.2-0.5-0.5-0.7-0.7l39.4-39.4v2.1v0.8v8.2
						L123.1,87"/>
					<path id="path32" class="st1" d="M16.5,154.3l3.2-3.2c3.9,6.7,8.9,12.9,14.8,18.2c4.5,4.1,9.3,7.6,14.5,10.5l-3.2,3.2
						c-4.6-2.7-9.1-5.8-13.1-9.4l-17.9,17.9l2.5,2.5l-1.9,1.9h-4.5l-1.2-1.2l0,0c-1.5,1.5-4,1.5-5.6,0c-1.5-1.5-1.5-4,0-5.6h0
						l-1.2-1.2v-4.5l1.9-1.9l2.5,2.5l17.9-17.9C22,162.4,19.1,158.4,16.5,154.3"/>
					<path id="path34" class="st1" d="M37.5,166.1c-5.8-5.3-10.7-11.5-14.5-18.2l2.2-2.2c3.2,5.8,7.2,11.2,12,16v0l24-23.9l5.6,5.6
						l-19.8,19.8l-3.8,3.8c3.6,2.9,7.4,5.3,11.4,7.4l-2.2,2.2C47,173.7,42,170.2,37.5,166.1"/>
					<path id="path36" class="st0" d="M76.5,154.7c1.8,0.5,3.5,0.8,5.4,1l-1,10.7c-2.5-0.3-5-0.8-7.4-1.5L76.5,154.7"/>
					<path id="path38" class="st0" d="M142.2,97c0.6,2.4,1.1,4.9,1.4,7.4l-10.7,0.9c-0.2-1.8-0.6-3.6-1-5.3L142.2,97"/>
					<path id="path40" class="st0" d="M130.9,96.7c-0.4-1.3-0.9-2.6-1.5-3.8l8-8c1.5,2.9,2.8,5.8,3.8,8.9L130.9,96.7"/>
					<path id="path42" class="st0" d="M133.1,114c0.1-1.3,0.1-2.6,0.1-3.9c0-0.5,0-1-0.1-1.5l10.7-0.9c0,0.7,0.1,1.5,0.1,2.2
						c0,1.8,0,3.5-0.1,5.2L133.1,114"/>
					<path id="path44" class="st0" d="M131.7,122.7c0.5-1.7,0.8-3.5,1.1-5.3l10.7,1.2c-0.3,2.5-0.8,4.9-1.5,7.3L131.7,122.7"/>
					<path id="path46" class="st0" d="M94.1,155.7c1.8-0.2,3.6-0.6,5.4-1.1l3.1,10.3c-2.4,0.7-4.9,1.1-7.4,1.5L94.1,155.7"/>
					<path id="path48" class="st0" d="M140.9,129.2c-0.8,2.4-1.8,4.7-2.9,6.9l-9.4-5.2c0.8-1.6,1.5-3.3,2.1-5L140.9,129.2"/>
					<path id="path50" class="st0" d="M110.7,150c1.6-0.9,3.1-1.9,4.5-3l6.8,8.3c-2,1.5-4.1,2.9-6.3,4.2L110.7,150"/>
					<path id="path52" class="st0" d="M117.9,144.8c0.9-0.8,1.8-1.6,2.6-2.5c0.4-0.4,0.8-0.9,1.2-1.3l8.3,6.9
						c-0.6,0.6-1.2,1.3-1.8,1.9c-1.1,1.2-2.3,2.3-3.6,3.4L117.9,144.8"/>
					<path id="path54" class="st0" d="M112.8,161.1c-2.3,1.1-4.6,2.1-7,2.9l-3.1-10.3c1.7-0.6,3.4-1.3,5-2.1L112.8,161.1"/>
					<path id="path56" class="st0" d="M91.8,166.8c-0.9,0.1-1.9,0.1-2.8,0.1c-0.3,0-0.7,0-1,0c-1.2,0-2.5,0-3.7-0.1l1-10.7
						c0.9,0.1,1.8,0.1,2.7,0.1c0.3,0,0.5,0,0.8,0c0.7,0,1.3,0,2-0.1L91.8,166.8"/>
					<path id="path58" class="st0" d="M136.4,139.1c-1.3,2.2-2.7,4.2-4.2,6.2l-8.3-6.9c1.1-1.4,2.1-2.9,3-4.5L136.4,139.1"/>
					<path id="path60" class="st0" d="M70.2,164c-2.9-1-5.7-2.2-8.4-3.6l8-8c1.1,0.5,2.3,0.9,3.4,1.3L70.2,164"/>
					<path id="path62" class="st1" d="M137.5,84.8l-8,8c0.5,1.3,1,2.5,1.5,3.8l10.3-3C140.3,90.7,139,87.7,137.5,84.8L137.5,84.8z
						 M132.9,105.2l10.7-0.9c-0.3-2.5-0.8-4.9-1.4-7.4l-10.3,3C132.3,101.7,132.6,103.4,132.9,105.2L132.9,105.2z M128.6,130.9
						l9.4,5.2c1.1-2.2,2.1-4.6,2.9-6.9l-10.3-3.2C130.1,127.6,129.4,129.3,128.6,130.9L128.6,130.9z M123.9,138.4l8.3,6.9
						c1.6-2,3-4.1,4.2-6.2l-9.4-5.2C126,135.5,125,137,123.9,138.4L123.9,138.4z M102.7,153.7l3.1,10.3c2.4-0.8,4.7-1.8,7-2.9
						l-5-9.5C106.1,152.4,104.4,153.1,102.7,153.7L102.7,153.7z M88.7,156.2c-0.3,0-0.5,0-0.8,0c-0.9,0-1.8,0-2.7-0.1l-1,10.7
						c1.2,0.1,2.5,0.1,3.7,0.1c0.3,0,0.7,0,1,0c1,0,1.9-0.1,2.8-0.1l-1.1-10.7C90.1,156.1,89.4,156.1,88.7,156.2L88.7,156.2z
						 M69.8,152.4l-8.1,8c2.7,1.4,5.5,2.6,8.4,3.6l3.1-10.3C72.1,153.3,71,152.9,69.8,152.4L69.8,152.4z M81.9,155.8
						c-1.8-0.2-3.6-0.6-5.4-1L73.4,165c2.4,0.6,4.9,1.1,7.4,1.5L81.9,155.8z M102.5,165l-3.1-10.3c-1.8,0.5-3.5,0.8-5.4,1.1
						l1.1,10.7C97.6,166.1,100.1,165.6,102.5,165L102.5,165z M122,155.3l-6.8-8.3c-1.5,1.1-3,2.1-4.5,3l5,9.5
						C117.9,158.3,120,156.9,122,155.3L122,155.3z M128.2,149.8c0.6-0.6,1.2-1.3,1.8-1.9l-8.3-6.9c-0.4,0.5-0.8,0.9-1.2,1.3
						c-0.8,0.9-1.7,1.7-2.6,2.5l6.8,8.3C125.9,152.1,127.1,151,128.2,149.8L128.2,149.8z M132.8,117.4c-0.3,1.8-0.6,3.6-1.1,5.3
						l10.3,3.2c0.7-2.4,1.2-4.9,1.5-7.4L132.8,117.4z M144,110c0-0.7,0-1.5-0.1-2.2l-10.7,0.9c0,0.5,0,1,0.1,1.5
						c0,1.3,0,2.6-0.1,3.9l10.7,1.2C143.9,113.5,144,111.7,144,110L144,110z M153.9,109.8c0.6,36.3-28.4,66.4-64.8,67
						c-13.7,0.2-26.5-3.7-37.1-10.7l17.3-17.2c4.9,2.4,10.2,3.9,15.7,4.2c1.2,0.1,2.5,0.1,3.7,0.1c9.9-0.2,19.5-3.8,27-10.3
						c0.9-0.8,1.9-1.7,2.7-2.6c7.9-8.1,12.1-18.8,11.9-30.1c-0.1-6.3-1.6-12.4-4.4-18L143.2,75C149.7,85,153.7,97,153.9,109.8
						L153.9,109.8z"/>
					<path id="path64" class="st1" d="M105,78.6c11.6,6.1,19.6,18.3,19.6,32.4c0,20.2-16.4,36.6-36.6,36.6c-5.9,0-11.5-1.4-16.4-3.9
						c-0.2-0.1-0.4-0.2-0.6-0.3l-4.9-4.9L27,99.5h8.3l14.4,14.3h4.8h15.2h0h4.1h0l0,0l0-0.1c-0.3-1-0.7-1.9-1.2-2.8
						c-2.6-4.4-7.7-7.4-13.4-7.4H45.6L21.9,79.9l-6.7-6.7c8.4-6.4,18.6-10.6,29.8-11.6c1.7-0.1,3.4-0.2,5-0.2
						c14.2,0,27.8,5.3,38.4,14.9c5.1-6.9,13.3-11.4,22.6-11.4c2.4,0,4.6,0.3,6.8,0.8L105,78.6"/>
				</g>
			</g>
		</g>
	</g>
</g>
</svg>
