<svg version="1.1" id="Layer_1" xmlns="http://www.w3.org/2000/svg" x="0" y="0" viewBox="0 0 200 200" xml:space="preserve"><style>.st0{fill:#1a191a}.st1{fill:#d4b67b}</style><g id="army_1_"><g id="army_BGD"><g id="army" transform="translate(14)"><g id="g10" transform="matrix(1 0 0 -1 0 199.864)"><g id="g12"><path id="path14" class="st0" d="M168.1 115.8c0-20.2-4.8-39.5-13.4-56.3l-3.4 3.4c7.8 15.9 12.2 34 12.2 52.9v70.6H24l-4.6 4.6h148.7v-75.2zm-10.8-63V41.7L117.9 81l.7.7c1.6 1.7 3.1 3.5 4.4 5.4l.1-.1 34.2-34.2zm0-11.1h-11.2L115.8 72v3L147 43.8h8.2l2.1-2.1zM89.8 3.6L88.1 3H87.8l-1.7.5c-26.8 8-48.8 27-62.7 51.6.4-.1.7-.3 1.1-.4.4-.2.8-.3 1.1-.4h.1c.4-.1.7-.3 1.1-.4h.1c.4-.1.8-.3 1.1-.4h.1c.4-.1.7-.2 1.1-.3h.1l.9-.3C43.5 31.4 63.5 15.1 87.4 8l.5-.1.5.1c20.5 6.2 38.2 19 51.2 36.1l3.3-3.3C129.3 23.2 111 9.9 89.8 3.6zm5.7 32.1l4.7-14.3L88 30.2l-12.2-8.8 4.7 14.3-12.2 8.8h15.1l4.7 14.3 4.7-14.3h15.1l-12.4-8.8zM9 67.1l2.1 2.1c9.3-7.3 20.7-12.1 33.4-13.2 1.8-.2 3.7-.2 5.5-.2 13.7 0 26.9 4.5 37.8 12.7 6-5.7 14.2-9.2 23.2-9.2 4 0 7.8.7 11.4 2l2.3-2.3c-4.2-1.7-8.8-2.6-13.7-2.6-8.9 0-17 3.2-23.4 8.4-12.2-8.5-27.4-13-43.4-11.6-13.3 1-25.4 6.1-35.2 13.9zm-1.2 48.7v63.6l4.6-4.6v-59c0-12.5 1.9-24.5 5.4-35.9l-3.7-3.7c-4.1 12.5-6.3 25.9-6.3 39.6zM143.2 75l-17.3 17.2c2.7 5.5 4.2 11.7 4.3 18 .2 11.3-4 22-11.9 30.1-.9.9-1.8 1.8-2.7 2.6-7.5 6.5-17.1 10.2-27 10.3-1.2 0-2.5 0-3.7-.1-5.5-.4-10.9-1.8-15.7-4.2L52 166.1c10.7 7 23.5 10.9 37.1 10.7 36.4-.6 65.4-30.7 64.8-67-.2-12.8-4.2-24.8-10.7-34.8zM57 133.6l-1.5-1.5-18.4 18.4v3L57 133.6zm-4.7 42.9l2.2-2.2c-4-2.1-7.8-4.6-11.4-7.4l3.8-3.8 19.8-19.8-5.6-5.6-24 23.9c-4.8-4.8-8.8-10.1-12-16l-2.2 2.2c3.8 6.7 8.7 12.9 14.5 18.2 4.6 4.2 9.6 7.7 14.9 10.5zm65.6-110.8c-2.2-.6-4.5-.8-6.8-.8-9.3 0-17.5 4.5-22.6 11.4C77.9 66.7 64.2 61.4 50 61.4c-1.7 0-3.4.1-5 .2-11.2 1-21.5 5.2-29.8 11.6l6.7 6.7 23.7 23.7h13.5c5.7 0 10.8 2.9 13.4 7.4.5.9.9 1.8 1.2 2.8v.1H49.6L35.3 99.5H27l39 38.9 4.9 4.9.6.3c4.9 2.5 10.5 3.9 16.4 3.9 20.2 0 36.6-16.4 36.6-36.6 0-14-7.9-26.2-19.6-32.4l13-12.8zM4.8 181.5l-1.9 1.9v4.5l1.2 1.2c-1.5 1.5-1.5 4 0 5.6 1.5 1.5 4.1 1.5 5.6 0l1.2 1.2h4.5l1.9-1.9-2.5-2.5 17.9-17.9c4.1 3.6 8.5 6.7 13.1 9.4l3.2-3.2c-5.2-2.9-10.1-6.4-14.5-10.5-5.9-5.4-10.9-11.5-14.8-18.2l-3.2 3.2c2.5 4.2 5.4 8.1 8.7 11.8L7.3 184l-2.5-2.5zM171 193.9H21.4l-4.8 4.8h-7l-.4-.4c-.7.3-1.5.4-2.3.4-1.8 0-3.6-.7-4.9-2-1.9-1.9-2.5-4.8-1.6-7.2l-.4-.4v-6.9l4.8-4.8v-61.5c0-14.6 2.5-28.7 7-41.8l-7.2-7.2 2.5-2c1.7-1.3 3.4-2.6 5.2-3.7.7-.5 1.4-.9 2.1-1.3h.1l2.1-1.2h.1c.7-.4 1.4-.8 2.1-1.1h.1l.1-.1C33 30.5 56.5 9.7 85.2 1l2.4-1h.5l2.5.8c21.8 6.5 40.5 20.1 54.4 38H160.2V54l-3.3 3.3c9 17.5 14.1 37.5 14.1 58.5v78.1z"/><path id="path16" class="st1" d="M24 186.4h139.5v-70.6c0-18.9-4.4-37-12.2-52.9l3.4-3.4c8.6 16.9 13.4 36.1 13.4 56.3V191H19.4l4.6-4.6"/><path id="path18" class="st1" d="M17.8 80c-3.5 11.3-5.4 23.4-5.4 35.9v59l-4.6 4.6v-63.6c0-13.8 2.2-27.1 6.4-39.5l3.6 3.6"/><path id="path20" class="st1" d="M88.4 8l-.4-.2-.6.2c-23.9 7.2-43.9 23.4-57.2 44.8l-.9.3h-.1c-.4.1-.7.2-1.1.3H28c-.4.1-.8.3-1.1.4h-.1c-.4.1-.7.3-1.1.4h-.1c-.4.1-.8.3-1.1.4-.4.1-.7.3-1.1.4C37.2 30.5 59.3 11.6 86.1 3.6l1.7-.5H88.1l1.7.5c21.3 6.4 39.6 19.6 53.1 37.2l-3.3 3.3C126.6 27 109 14.1 88.4 8"/><path id="path22" class="st1" d="M44.2 53.1c16-1.4 31.2 3.1 43.4 11.6 6.3-5.3 14.5-8.4 23.4-8.4 4.8 0 9.5.9 13.7 2.6l-2.3 2.3c-3.6-1.3-7.4-2-11.4-2-9 0-17.1 3.5-23.2 9.2C77 60.2 63.7 55.7 50 55.7c-1.8 0-3.7.1-5.5.2-12.6 1.1-24.1 5.9-33.4 13.2l-2.1-2c9.8-7.8 21.9-12.9 35.2-14"/><path id="path24" class="st1" d="M107.7 44.6H92.6l-4.7 14.3-4.6-14.3-15.1-.1 12.2-8.8-4.7-14.3 12.2 8.8 12.2-8.8-4.6 14.3 12.2 8.9"/><path id="path26" class="st1" d="M37.1 150.5l18.4-18.4 1.5 1.5-19.9 19.9v-3"/><path id="path28" class="st1" d="M147 43.8l-31.2 31.1v-3l30.3-30.2h11.2l-2.1 2.1H147"/><path id="path30" class="st1" d="M123.1 87l-.1.1c-1.3-1.9-2.8-3.7-4.4-5.4l-.7-.7 39.4-39.4v11.1L123.1 87"/><path id="path32" class="st1" d="M16.5 154.3l3.2-3.2c3.9 6.7 8.9 12.9 14.8 18.2 4.5 4.1 9.3 7.6 14.5 10.5l-3.2 3.2c-4.6-2.7-9.1-5.8-13.1-9.4l-17.9 17.9 2.5 2.5-1.9 1.9h-4.5l-1.2-1.2c-1.5 1.5-4 1.5-5.6 0-1.5-1.5-1.5-4 0-5.6l-1.2-1.2v-4.5l1.9-1.9 2.5 2.5 17.9-17.9c-3.2-3.7-6.1-7.7-8.7-11.8"/><path id="path34" class="st1" d="M37.5 166.1c-5.8-5.3-10.7-11.5-14.5-18.2l2.2-2.2c3.2 5.8 7.2 11.2 12 16l24-23.9 5.6 5.6L47 163.2l-3.8 3.8c3.6 2.9 7.4 5.3 11.4 7.4l-2.2 2.2c-5.4-2.9-10.4-6.4-14.9-10.5"/><path id="path36" class="st0" d="M76.5 154.7c1.8.5 3.5.8 5.4 1l-1 10.7c-2.5-.3-5-.8-7.4-1.5l3-10.2"/><path id="path38" class="st0" d="M142.2 97c.6 2.4 1.1 4.9 1.4 7.4l-10.7.9c-.2-1.8-.6-3.6-1-5.3l10.3-3"/><path id="path40" class="st0" d="M130.9 96.7c-.4-1.3-.9-2.6-1.5-3.8l8-8c1.5 2.9 2.8 5.8 3.8 8.9l-10.3 2.9"/><path id="path42" class="st0" d="M133.1 114c.1-1.3.1-2.6.1-3.9 0-.5 0-1-.1-1.5l10.7-.9c0 .7.1 1.5.1 2.2 0 1.8 0 3.5-.1 5.2l-10.7-1.1"/><path id="path44" class="st0" d="M131.7 122.7c.5-1.7.8-3.5 1.1-5.3l10.7 1.2c-.3 2.5-.8 4.9-1.5 7.3l-10.3-3.2"/><path id="path46" class="st0" d="M94.1 155.7c1.8-.2 3.6-.6 5.4-1.1l3.1 10.3c-2.4.7-4.9 1.1-7.4 1.5l-1.1-10.7"/><path id="path48" class="st0" d="M140.9 129.2c-.8 2.4-1.8 4.7-2.9 6.9l-9.4-5.2c.8-1.6 1.5-3.3 2.1-5l10.2 3.3"/><path id="path50" class="st0" d="M110.7 150c1.6-.9 3.1-1.9 4.5-3l6.8 8.3c-2 1.5-4.1 2.9-6.3 4.2l-5-9.5"/><path id="path52" class="st0" d="M117.9 144.8c.9-.8 1.8-1.6 2.6-2.5.4-.4.8-.9 1.2-1.3l8.3 6.9c-.6.6-1.2 1.3-1.8 1.9-1.1 1.2-2.3 2.3-3.6 3.4l-6.7-8.4"/><path id="path54" class="st0" d="M112.8 161.1c-2.3 1.1-4.6 2.1-7 2.9l-3.1-10.3c1.7-.6 3.4-1.3 5-2.1l5.1 9.5"/><path id="path56" class="st0" d="M91.8 166.8c-.9.1-1.9.1-2.8.1h-1c-1.2 0-2.5 0-3.7-.1l1-10.7c.9.1 1.8.1 2.7.1h.8c.7 0 1.3 0 2-.1l1 10.7"/><path id="path58" class="st0" d="M136.4 139.1c-1.3 2.2-2.7 4.2-4.2 6.2l-8.3-6.9c1.1-1.4 2.1-2.9 3-4.5l9.5 5.2"/><path id="path60" class="st0" d="M70.2 164c-2.9-1-5.7-2.2-8.4-3.6l8-8c1.1.5 2.3.9 3.4 1.3l-3 10.3"/><path id="path62" class="st1" d="M137.5 84.8l-8 8c.5 1.3 1 2.5 1.5 3.8l10.3-3c-1-2.9-2.3-5.9-3.8-8.8zm-4.6 20.4l10.7-.9c-.3-2.5-.8-4.9-1.4-7.4l-10.3 3c.4 1.8.7 3.5 1 5.3zm-4.3 25.7l9.4 5.2c1.1-2.2 2.1-4.6 2.9-6.9l-10.3-3.2c-.5 1.6-1.2 3.3-2 4.9zm-4.7 7.5l8.3 6.9c1.6-2 3-4.1 4.2-6.2l-9.4-5.2c-1 1.6-2 3.1-3.1 4.5zm-21.2 15.3l3.1 10.3c2.4-.8 4.7-1.8 7-2.9l-5-9.5c-1.7.8-3.4 1.5-5.1 2.1zm-14 2.5h-.8c-.9 0-1.8 0-2.7-.1l-1 10.7c1.2.1 2.5.1 3.7.1h1c1 0 1.9-.1 2.8-.1l-1.1-10.7c-.5 0-1.2 0-1.9.1zm-18.9-3.8l-8.1 8c2.7 1.4 5.5 2.6 8.4 3.6l3.1-10.3c-1.1-.4-2.2-.8-3.4-1.3zm12.1 3.4c-1.8-.2-3.6-.6-5.4-1L73.4 165c2.4.6 4.9 1.1 7.4 1.5l1.1-10.7zm20.6 9.2l-3.1-10.3c-1.8.5-3.5.8-5.4 1.1l1.1 10.7c2.5-.4 5-.9 7.4-1.5zm19.5-9.7l-6.8-8.3c-1.5 1.1-3 2.1-4.5 3l5 9.5c2.2-1.2 4.3-2.6 6.3-4.2zm6.2-5.5c.6-.6 1.2-1.3 1.8-1.9l-8.3-6.9c-.4.5-.8.9-1.2 1.3-.8.9-1.7 1.7-2.6 2.5l6.8 8.3c1.2-1 2.4-2.1 3.5-3.3zm4.6-32.4c-.3 1.8-.6 3.6-1.1 5.3l10.3 3.2c.7-2.4 1.2-4.9 1.5-7.4l-10.7-1.1zM144 110c0-.7 0-1.5-.1-2.2l-10.7.9c0 .5 0 1 .1 1.5 0 1.3 0 2.6-.1 3.9l10.7 1.2c0-1.8.1-3.6.1-5.3zm9.9-.2c.6 36.3-28.4 66.4-64.8 67-13.7.2-26.5-3.7-37.1-10.7l17.3-17.2c4.9 2.4 10.2 3.9 15.7 4.2 1.2.1 2.5.1 3.7.1 9.9-.2 19.5-3.8 27-10.3.9-.8 1.9-1.7 2.7-2.6 7.9-8.1 12.1-18.8 11.9-30.1-.1-6.3-1.6-12.4-4.4-18L143.2 75c6.5 10 10.5 22 10.7 34.8z"/><path id="path64" class="st1" d="M105 78.6c11.6 6.1 19.6 18.3 19.6 32.4 0 20.2-16.4 36.6-36.6 36.6-5.9 0-11.5-1.4-16.4-3.9l-.6-.3-4.9-4.9-39.1-39h8.3l14.4 14.3h24.1v-.1c-.3-1-.7-1.9-1.2-2.8-2.6-4.4-7.7-7.4-13.4-7.4H45.6L21.9 79.9l-6.7-6.7c8.4-6.4 18.6-10.6 29.8-11.6 1.7-.1 3.4-.2 5-.2 14.2 0 27.8 5.3 38.4 14.9 5.1-6.9 13.3-11.4 22.6-11.4 2.4 0 4.6.3 6.8.8L105 78.6"/></g></g></g></g></g></svg>