<svg xmlns="http://www.w3.org/2000/svg" viewBox="0 0 200 200"><path d="M98.5 126.919c-.8 1.9-4.2 7.4-8 7.4-4.7 0-4.8-2.6-4.8-5.8 0-9.2 10.8-30.9 20.4-30.9 2.9 0 3.9 1.5 3.9 2.7 0 .5-6 12.7-11.5 26.6zm91-77.2c.3 0 .5.6.5 1.1 0 4.5-14.8 32.5-29.6 52.6 5-30.1 26.6-53.7 29.1-53.7zm-8.5 96.3c-9.6-2.9-20.4-7.9-21.4-27.3 17.5-20.7 40.3-59.2 40.3-74.6 0-4-.8-8.5-6.6-8.5-13.7 0-54.5 37.6-54.5 80.5 0 3.9.5 7.6 1.3 10.3-8.4 7.7-14.6 11.2-20.9 11.2-2.1 0-2.6-.8-2.6-4.5 0-5.3 15.9-38.3 15.9-40.3 0-3.1-1.3-3.9-3.7-3.9h-12.7c-1 0-1.9.8-2.7 2.7-.5-.6-3.1-2.7-7.2-2.7-13.8 0-31.2 10.6-41.2 31.3-2.3 4.8-6.4 16.2-17.8 16.2-9.8 0-13-10.4-13-22.5 0-33.3 39.4-83.4 60.9-83.4 3.5 0 5.1 1.8 5.1 5.1 0 6.3-5.6 10.1-9.8 10.6-6.1.6-11.1 3.4-11.1 8.7 0 4.5 3.5 6.4 8.2 6.4 6.8 0 22.3-14.8 22.3-28.3 0-8-4.7-12.4-12.9-12.4-33.9 0-92.3 48.2-92.3 94.2 0 22.7 12.4 33.8 34.7 33.8 10.8 0 21.2-8.2 24.3-11.1.6 3.4 4.7 11.1 18 11.1 8.8 0 14.8-5.8 16.7-8.5.6 2.9 2.6 8.5 12.4 8.5 11.6 0 22-4.2 32.6-13.7 4.8 8.7 13.2 13.8 21.7 15.6 2.7.5 6.3 1.1 6.3 1.9 0 1.3-5.3 4-16.2 4-23.6 0-61.9-3.5-94.7-3.5-45.5.2-60.4 20.9-60.4 24.8 0 1.6 1.1 1.9 2.4 1.9 2.6 0 11.6-6.9 46.6-6.9 38.6 0 65 2.9 85.9 2.9 41.6 0 54.1-21.2 54.1-23.8 0-4-3.5-4.5-8-5.8z" fill="#ffc72c"/></svg>