<?xml version="1.0" encoding="utf-8"?>
<!-- Generator: Adobe Illustrator 24.1.2, SVG Export Plug-In . SVG Version: 6.00 Build 0)  -->
<svg version="1.1" id="Layer_1" xmlns="http://www.w3.org/2000/svg" xmlns:xlink="http://www.w3.org/1999/xlink" x="0px" y="0px"
	 viewBox="0 0 200 200" style="enable-background:new 0 0 200 200;" xml:space="preserve">
<style type="text/css">
	.st0{fill:#FFC72C;}
</style>
<desc>Created with Sketch.</desc>
<g id="california_1_">
	<g id="california_BGD">
		<g id="california" transform="translate(0.000000, 20.000000)">
			<g id="g10">
				
					<g transform="translate(100.000000, 80.118811) scale(-1, 1) rotate(-180.000000) translate(-100.000000, -80.118811) translate(0.000000, 0.618811)">
					<g id="g12">
						<path id="path14" class="st0" d="M98.5,52.7c-0.8-1.9-4.2-7.4-8-7.4c-4.7,0-4.8,2.6-4.8,5.8c0,9.2,10.8,30.9,20.4,30.9
							c2.9,0,3.9-1.5,3.9-2.7C110,78.8,104,66.6,98.5,52.7z M189.5,129.9c0.3,0,0.5-0.6,0.5-1.1c0-4.5-14.8-32.5-29.6-52.6
							C165.4,106.3,187,129.9,189.5,129.9z M181,33.6c-9.6,2.9-20.4,7.9-21.4,27.3c17.5,20.7,40.3,59.2,40.3,74.6
							c0,4-0.8,8.5-6.6,8.5c-13.7,0-54.5-37.6-54.5-80.5c0-3.9,0.5-7.6,1.3-10.3c-8.4-7.7-14.6-11.2-20.9-11.2
							c-2.1,0-2.6,0.8-2.6,4.5c0,5.3,15.9,38.3,15.9,40.3c0,3.1-1.3,3.9-3.7,3.9h-12.7c-1,0-1.9-0.8-2.7-2.7
							c-0.5,0.6-3.1,2.7-7.2,2.7c-13.8,0-31.2-10.6-41.2-31.3c-2.3-4.8-6.4-16.2-17.8-16.2c-9.8,0-13,10.4-13,22.5
							c0,33.3,39.4,83.4,60.9,83.4c3.5,0,5.1-1.8,5.1-5.1c0-6.3-5.6-10.1-9.8-10.6c-6.1-0.6-11.1-3.4-11.1-8.7
							c0-4.5,3.5-6.4,8.2-6.4c6.8,0,22.3,14.8,22.3,28.3c0,8-4.7,12.4-12.9,12.4c-33.9,0-92.3-48.2-92.3-94.2
							c0-22.7,12.4-33.8,34.7-33.8c10.8,0,21.2,8.2,24.3,11.1c0.6-3.4,4.7-11.1,18-11.1c8.8,0,14.8,5.8,16.7,8.5
							c0.6-2.9,2.6-8.5,12.4-8.5c11.6,0,22,4.2,32.6,13.7c4.8-8.7,13.2-13.8,21.7-15.6c2.7-0.5,6.3-1.1,6.3-1.9c0-1.3-5.3-4-16.2-4
							c-23.6,0-61.9,3.5-94.7,3.5C14.9,26.5,0,5.8,0,1.9C0,0.3,1.1,0,2.4,0C5,0,14,6.9,49,6.9C87.6,6.9,114,4,134.9,4
							C176.5,4,189,25.2,189,27.8C189,31.8,185.5,32.3,181,33.6L181,33.6z"/>
					</g>
				</g>
			</g>
		</g>
	</g>
</g>
</svg>
