<svg id="Layer_1" data-name="Layer 1" xmlns="http://www.w3.org/2000/svg" width="600" height="200"><defs><style>.cls-2{fill:#fff}.cls-3{fill:#8b0000}</style></defs><path d="M108.278 5h383.444C548.761 5 595 47.533 595 100h0c0 52.467-46.24 95-103.278 95H108.278C51.239 195 5 152.467 5 100h0C5 47.533 51.24 5 108.278 5z" stroke="#8b0000" stroke-miterlimit="10" stroke-width="10" fill="#fff"/><path class="cls-2" d="M163.508 162.32V29.318h12.935v119.7h33.992v13.3zM279.095 160.135a46.567 46.567 0 01-8.874 3.135 45.125 45.125 0 01-11.205 1.33 87.269 87.269 0 01-10.002-.476 24.282 24.282 0 01-7.144-1.9q-3.159-1.425-5.566-2.754a11.726 11.726 0 01-4.286-4.56q-1.882-3.23-3.083-5.51a25.713 25.713 0 01-2.03-7.41q-.83-5.13-1.28-8.645-.45-3.514-.6-10.926-.304-14.436-.302-27.17 0-12.727.15-19.19.149-6.457.678-15.58.525-9.12 1.88-13.015 1.353-3.892 3.61-8.93 2.255-5.032 5.865-6.935a46.854 46.854 0 0120.305-4.56q10.678 0 16.921 2.755a30.27 30.27 0 019.852 6.555q3.61 3.803 5.19 14.06a162.06 162.06 0 011.879 18.62q.3 8.363.3 24.415 0 16.058-.15 22.515-.151 6.461-.676 15.58-.53 9.12-1.88 13.016-1.354 3.896-3.61 8.835-2.257 4.942-5.942 6.745zm-.827-34.486V65.99q0-15.199-2.556-18.43-3.762-5.13-8.198-6.08a44.899 44.899 0 00-9.4-.95 42.262 42.262 0 00-8.574.76 12.613 12.613 0 00-5.79 2.66 23.904 23.904 0 00-3.46 3.61 12.421 12.421 0 00-1.88 5.32 107.306 107.306 0 00-.601 13.11v59.66q0 15.203 2.406 18.43 3.91 5.13 8.423 6.08a45.737 45.737 0 009.476.95 40.94 40.94 0 008.498-.76 12.528 12.528 0 005.715-2.66 23.986 23.986 0 003.46-3.61 11.359 11.359 0 001.73-5.32 86.307 86.307 0 00.751-13.11zM368.06 126.03q0 17.86-6.768 28.214-6.768 10.358-22.186 10.356a57.536 57.536 0 01-28.201-7.03l2.707-11.78a60.404 60.404 0 0024.667 5.32q8.873 0 13.01-5.51 4.135-5.51 4.137-16.91 0-11.401-2.256-17.29-2.258-5.888-9.476-7.22l-14.89-2.66q-10.53-2.09-14.063-10.831-3.536-8.737-3.535-26.41 0-17.67 7.295-27.455 7.293-9.784 20.154-9.785a60.229 60.229 0 0125.795 6.08l-2.707 11.4a61.81 61.81 0 00-20.38-3.99q-9.102 0-13.311 4.655-4.213 4.658-4.211 17.385 0 12.732 2.18 18.24 2.179 5.513 8.8 6.65l14.137 2.66a20.445 20.445 0 0114.364 9.975q4.739 8.078 4.737 25.935zM441.759 126.03q0 17.86-6.769 28.214-6.769 10.358-22.186 10.356a57.536 57.536 0 01-28.2-7.03l2.706-11.78a60.404 60.404 0 0024.667 5.32q8.873 0 13.011-5.51 4.135-5.51 4.136-16.91 0-11.401-2.256-17.29-2.256-5.888-9.476-7.22l-14.89-2.66q-10.53-2.09-14.064-10.831-3.536-8.737-3.534-26.41 0-17.67 7.295-27.455 7.293-9.784 20.154-9.785a60.229 60.229 0 0125.795 6.08l-2.707 11.4a61.81 61.81 0 00-20.38-3.99q-9.102 0-13.311 4.655-4.213 4.658-4.212 17.385 0 12.732 2.182 18.24 2.178 5.513 8.798 6.65l14.138 2.66a20.443 20.443 0 0114.364 9.975q4.738 8.078 4.739 25.935z"/><path class="cls-3" d="M92.283 132.58c-3.84 1.92-11.52 3.84-21.36 3.84-22.798 0-39.957-14.4-39.957-40.917 0-25.32 17.159-42.479 42.238-42.479 10.079 0 16.44 2.16 19.2 3.6l-2.521 8.52a38.022 38.022 0 00-16.32-3.36c-18.959 0-31.558 12.12-31.558 33.358 0 19.8 11.4 32.52 31.079 32.52 6.36 0 12.84-1.321 17.039-3.361zM118.923 109.781l-8.4 25.44h-10.8l27.48-80.877h12.599l27.6 80.877H156.24l-8.64-25.44zm26.52-8.159l-7.92-23.279c-1.8-5.28-3-10.08-4.201-14.76h-.24c-1.2 4.8-2.52 9.72-4.08 14.64l-7.92 23.4zM179.283 135.22V54.345h11.4l25.92 40.918a229.032 229.032 0 0114.519 26.28l.24-.121c-.96-10.8-1.201-20.639-1.201-33.238V54.344H240v80.877h-10.56l-25.679-41.039a256.79 256.79 0 01-15.119-26.998l-.36.12c.6 10.199.84 19.919.84 33.358v34.559zM314.76 132.58c-3.84 1.92-11.519 3.84-21.359 3.84-22.799 0-39.959-14.4-39.959-40.917 0-25.32 17.16-42.479 42.238-42.479 10.08 0 16.44 2.16 19.2 3.6l-2.52 8.52a38.026 38.026 0 00-16.32-3.36c-18.958 0-31.558 12.12-31.558 33.358 0 19.8 11.4 32.52 31.08 32.52 6.359 0 12.838-1.321 17.038-3.361zM369.72 97.302H338.28v29.159h35.038v8.76h-45.478V54.344h43.678v8.76h-33.238v25.559h31.438zM386.88 54.344h10.44v72.117h34.558v8.76H386.88zM485.396 97.302h-31.438v29.159h35.038v8.76h-45.478V54.344h43.678v8.76h-33.238v25.559h31.438zM502.555 55.424a149.548 149.548 0 0122.2-1.68c15 0 25.68 3.48 32.758 10.08 7.2 6.6 11.4 15.959 11.4 29.038 0 13.2-4.08 24-11.639 31.439-7.56 7.56-20.04 11.64-35.759 11.64a168.6 168.6 0 01-18.96-.96zm10.44 71.516a65.853 65.853 0 0010.56.601c22.319 0 34.439-12.48 34.439-34.319.12-19.079-10.68-31.198-32.759-31.198a59.305 59.305 0 00-12.24 1.08z"/></svg>