<svg id="Layer_1" data-name="Layer 1" xmlns="http://www.w3.org/2000/svg" width="600" height="200" viewBox="0 0 600 200"><defs><style>.cls-1,.cls-2{fill:#fff;}.cls-1{stroke:#8b0000;stroke-miterlimit:10;stroke-width:10px;}.cls-3{fill:#8b0000;}</style></defs><path class="cls-1" d="M108.27789,5H491.72211C548.7609,5,595,47.5329,595,99.99991v.00018C595,152.4671,548.7609,195,491.72211,195H108.27789C51.23908,195,5,152.4671,5,100.00009v-.00018C5,47.5329,51.23908,5,108.27789,5Z" transform="translate(0 0)"/><path class="cls-2" d="M163.50757,162.31937V29.31888h12.93506V149.01956h33.99218v13.29981Z" transform="translate(0 0)"/><path class="cls-2" d="M279.09546,160.1348a46.56731,46.56731,0,0,1-8.874,3.13476,45.12527,45.12527,0,0,1-11.20508,1.33008,87.26863,87.26863,0,0,1-10.00244-.47559,24.28224,24.28224,0,0,1-7.14405-1.89941q-3.15892-1.4253-5.56543-2.75488a11.7259,11.7259,0,0,1-4.28662-4.56055q-1.88232-3.22851-3.083-5.50977a25.71315,25.71315,0,0,1-2.03076-7.41015q-.82836-5.12988-1.27832-8.64453-.45117-3.51417-.60156-10.92578-.30322-14.436-.30078-27.16993,0-12.72729.15039-19.18994.14794-6.457.67676-15.58008.52513-9.12011,1.87988-13.01513,1.35351-3.8921,3.60986-8.93018,2.25586-5.03174,5.86573-6.93506a46.85418,46.85418,0,0,1,20.30517-4.55957q10.678,0,16.9209,2.75489a30.26926,30.26926,0,0,1,9.85156,6.55468q3.61011,3.80347,5.18946,14.06006A162.05927,162.05927,0,0,1,291.053,69.02884q.29956,8.36278.30078,24.415,0,16.05834-.15039,22.51513-.15162,6.46143-.67676,15.58008-.52881,9.12012-1.87988,13.01563-1.35424,3.89647-3.60986,8.835Q282.78027,158.33206,279.09546,160.1348Zm-.82715-34.48536V65.9888q0-15.19848-2.55664-18.42969Q271.95,42.4285,267.5144,41.479a44.899,44.899,0,0,0-9.40087-.95019,42.26208,42.26208,0,0,0-8.57325.76025,12.61326,12.61326,0,0,0-5.79052,2.65967,23.904,23.904,0,0,0-3.45948,3.61035,12.42147,12.42147,0,0,0-1.87988,5.31983,107.30573,107.30573,0,0,0-.60156,13.10986v59.66064q0,15.20216,2.40625,18.42969,3.90966,5.12988,8.42285,6.08008a45.73654,45.73654,0,0,0,9.47559.9502,40.93919,40.93919,0,0,0,8.498-.75977,12.528,12.528,0,0,0,5.71582-2.66016,23.98562,23.98562,0,0,0,3.45948-3.61035,11.3586,11.3586,0,0,0,1.72949-5.31933A86.30706,86.30706,0,0,0,278.26831,125.64944Z" transform="translate(0 0)"/><path class="cls-2" d="M368.05933,126.02933q0,17.86083-6.76758,28.21484-6.76758,10.35791-22.18555,10.35547a57.53609,57.53609,0,0,1-28.20117-7.03027l2.707-11.78028a60.404,60.404,0,0,0,24.667,5.32032q8.87256,0,13.01074-5.50977,4.13379-5.50927,4.13575-16.91016,0-11.40087-2.25586-17.29-2.25734-5.8872-9.47559-7.21972l-14.89062-2.66016Q318.27417,99.43,314.741,90.689q-3.53615-8.73707-3.53516-26.41016,0-17.66969,7.29492-27.45508,7.29347-9.78369,20.1543-9.78467A60.22858,60.22858,0,0,1,364.45,33.11868l-2.707,11.40039a61.81,61.81,0,0,0-20.38086-3.99023q-9.10107,0-13.31055,4.65527-4.21288,4.65747-4.21093,17.38477,0,12.73168,2.17968,18.24023,2.17969,5.51295,8.79981,6.6499l14.13769,2.65967a20.44469,20.44469,0,0,1,14.36426,9.9751Q368.06079,108.17239,368.05933,126.02933Z" transform="translate(0 0)"/><path class="cls-2" d="M441.75854,126.02933q0,17.86083-6.76855,28.21484-6.769,10.35791-22.18555,10.35547a57.53615,57.53615,0,0,1-28.20117-7.03027l2.707-11.78028a60.40408,60.40408,0,0,0,24.667,5.32032q8.87256,0,13.01075-5.50977,4.13524-5.50927,4.13574-16.91016,0-11.40087-2.25586-17.29-2.25587-5.8872-9.47559-7.21972l-14.89062-2.66016Q391.97242,99.43,388.43823,90.689q-3.53613-8.73707-3.53418-26.41016,0-17.66969,7.29492-27.45508,7.29347-9.78369,20.1543-9.78467a60.22858,60.22858,0,0,1,25.79492,6.07959l-2.707,11.40039a61.80941,61.80941,0,0,0-20.37988-3.99023q-9.10254,0-13.31152,4.65527-4.2129,4.65747-4.21192,17.38477,0,12.73168,2.18164,18.24023,2.17822,5.51295,8.79883,6.6499l14.1377,2.65967a20.4427,20.4427,0,0,1,14.36425,9.9751Q441.75758,108.17239,441.75854,126.02933Z" transform="translate(0 0)"/><path class="cls-3" d="M92.283,132.58011C88.44312,134.5,80.76343,136.42,70.92358,136.42c-22.79882,0-39.958-14.39941-39.958-40.91748,0-25.31933,17.15918-42.47851,42.23828-42.47851,10.0791,0,16.43945,2.16015,19.19922,3.60009l-2.52051,8.51954a38.0223,38.0223,0,0,0-16.31934-3.35987c-18.959,0-31.55859,12.11963-31.55859,33.3584,0,19.79932,11.39941,32.519,31.0791,32.519,6.35938,0,12.83984-1.32031,17.03906-3.36035Z" transform="translate(0 0)"/><path class="cls-3" d="M118.92261,109.78128l-8.39942,25.43945H99.72339l27.47949-80.87646h12.59863l27.59961,80.87646H156.241l-8.63965-25.43945Zm26.51953-8.15918-7.91992-23.27881c-1.79981-5.28027-3-10.08008-4.2002-14.75976h-.24023c-1.19922,4.7998-2.51953,9.71972-4.0791,14.63965l-7.91993,23.39892Z" transform="translate(0 0)"/><path class="cls-3" d="M179.283,135.22073V54.34427h11.40039l25.91894,40.918a229.03246,229.03246,0,0,1,14.51954,26.27881l.23925-.12012c-.96-10.79981-1.20019-20.63867-1.20019-33.23828V54.34427h9.83984v80.87646H229.44116L203.76245,94.18216a256.79087,256.79087,0,0,1-15.11914-26.99854l-.36035.11963c.59961,10.19971.83984,19.91944.83984,33.35889v34.55859Z" transform="translate(0 0)"/><path class="cls-3" d="M314.7605,132.58011C310.92065,134.5,303.241,136.42,293.40112,136.42c-22.79883,0-39.959-14.39941-39.959-40.91748,0-25.31933,17.16015-42.47851,42.23828-42.47851,10.08008,0,16.43945,2.16015,19.19922,3.60009l-2.51953,8.51954a38.02561,38.02561,0,0,0-16.31934-3.35987c-18.959,0-31.55859,12.11963-31.55859,33.3584,0,19.79932,11.39941,32.519,31.0791,32.519,6.35937,0,12.83887-1.32031,17.03906-3.36035Z" transform="translate(0 0)"/><path class="cls-3" d="M369.71948,97.30228H338.281V126.461h35.03808v8.75976H327.84058V54.34427h43.67871v8.75928H338.281V88.66263h31.43847Z" transform="translate(0 0)"/><path class="cls-3" d="M386.87964,54.34427h10.43945V126.461h34.5586v8.75976h-44.998Z" transform="translate(0 0)"/><path class="cls-3" d="M485.39624,97.30228H453.95776V126.461h35.03809v8.75976H443.51831V54.34427H487.196v8.75928H453.95776V88.66263h31.43848Z" transform="translate(0 0)"/><path class="cls-3" d="M502.55542,55.42386a149.548,149.548,0,0,1,22.19922-1.67969c15,0,25.67969,3.48,32.75879,10.07959,7.20019,6.59961,11.39941,15.959,11.39941,29.03858,0,13.19921-4.0791,23.999-11.63867,31.43847-7.56055,7.55957-20.04,11.63965-35.75879,11.63965a168.59946,168.59946,0,0,1-18.96-.96Zm10.44043,71.5166a65.8526,65.8526,0,0,0,10.55957.60059c22.31836,0,34.43848-12.4795,34.43848-34.31885C558.114,74.1431,547.31421,62.024,525.23511,62.024a59.30526,59.30526,0,0,0-12.23926,1.07959Z" transform="translate(0 0)"/></svg>