<svg id="Layer_1" data-name="Layer 1" xmlns="http://www.w3.org/2000/svg" viewBox="0 0 601 201"><defs><style>.cls-2{fill:#fff}</style></defs><path d="M105.028 0h389.944C552.977 0 600 44.771 600 100v0c0 55.229-47.023 100-105.028 100H105.028C47.023 200 0 155.229 0 100v0C0 44.77 47.023 0 105.028 0z" transform="translate(.5 .5)" fill="#183159" stroke="#231f20" stroke-miterlimit="10"/><path class="cls-2" d="M84.047 34.573a49.432 49.432 0 018.427-3.094 52.34 52.34 0 0113.471-1.365 46.05 46.05 0 0116.928 3.276l-2.161 11.83a48.746 48.746 0 00-14.19-2.185 55.14 55.14 0 00-10.446.728 12.083 12.083 0 00-5.546 2.548 22.89 22.89 0 00-3.314 3.458 11.893 11.893 0 00-1.8 5.096 102.7 102.7 0 00-.577 12.557v57.145q0 14.564 2.305 17.654 3.745 4.914 8.068 5.824a55.316 55.316 0 0011.093.91 51.59 51.59 0 0015.704-2.912l2.737 10.737a43.514 43.514 0 01-20.602 5.096q-10.373 0-14.407-1.82-4.035-1.817-6.339-3.093a11.227 11.227 0 01-4.106-4.368q-1.803-3.093-2.953-5.279a24.628 24.628 0 01-1.945-7.097q-.793-4.913-1.225-8.28-.432-3.367-.576-10.465-.29-13.828-.288-26.025 0-12.19.144-18.381.142-6.185.648-14.923.504-8.736 1.801-12.467 1.297-3.728 3.458-8.553 2.161-4.82 5.69-6.552zM148.227 159.692H135.55l23.915-127.394h21.034l23.915 127.394h-12.678l-5.907-32.212h-31.694zm35.153-44.952l-12.966-70.795h-.864l-13.11 70.795zM222.421 32.298h21.755q17.288 0 24.635 9.282 7.347 9.28 7.347 31.848 0 22.57-7.347 31.848-7.347 9.282-24.635 9.283h-9.365v45.133h-12.39zm41.204 45.498V69.06q0-5.46-.144-8.1a33.225 33.225 0 00-1.08-6.278 9.69 9.69 0 00-2.954-5.278q-5.187-4.184-15.127-4.186h-9.51v56.418h9.51q9.94 0 15.127-4.186 3.6-2.909 4.034-11.647.141-2.547.144-8.008zM284.8 45.037v-12.74h54.746v12.74h-21.178v114.655h-12.389V45.037zM352.946 159.692h-12.68l23.916-127.394h21.036l23.914 127.394h-12.678l-5.906-32.212h-31.696zm35.152-44.952l-12.966-70.795h-.864l-13.111 70.795zM427.137 32.298h12.391v127.394h-12.39zM465.46 32.298h18.152L512.57 138.58h.865V32.298h12.102v127.394h-18.152L478.427 53.41h-.866v106.283H465.46z" transform="translate(.5 .5)"/></svg>