<svg id="Layer_1" data-name="Layer 1" xmlns="http://www.w3.org/2000/svg" viewBox="0 0 715 80.229"><defs><style>.cls-2{fill:#183159}.cls-3{fill:#fff}</style></defs><path fill="#a2a1a0" d="M0 32.614h715v15H0z"/><rect class="cls-2" x="51.5" width="120" height="80.229" rx="19.2"/><rect class="cls-2" x="379.5" width="120" height="80.229" rx="19.2"/><rect class="cls-2" x="543.5" width="120" height="80.229" rx="19.2"/><rect class="cls-2" x="215.5" width="120" height="80.229" rx="19.2"/><path class="cls-3" d="M88.421 31.98h-2.724V13.918l-5.464 2.007v-2.461l7.764-2.915h.424zM109.735 22.883q0 4.76-1.626 7.075a6.756 6.756 0 01-10.137.051q-1.64-2.263-1.7-6.76v-3.618q0-4.702 1.627-6.987a6.878 6.878 0 0110.166-.08q1.626 2.204 1.67 6.803zm-2.71-3.706a9.93 9.93 0 00-.967-5.017 3.328 3.328 0 00-3.061-1.575 3.284 3.284 0 00-3.033 1.568 9.695 9.695 0 00-.981 4.819v4.336a10.09 10.09 0 001.003 5.105 3.321 3.321 0 003.04 1.648 3.276 3.276 0 002.98-1.553 9.724 9.724 0 001.019-4.893zM126.58 22.883q0 4.76-1.625 7.075a6.756 6.756 0 01-10.137.051q-1.64-2.263-1.7-6.76v-3.618q0-4.702 1.627-6.987a6.878 6.878 0 0110.166-.08q1.626 2.204 1.67 6.803zm-2.71-3.706a9.93 9.93 0 00-.966-5.017 3.328 3.328 0 00-3.062-1.575 3.284 3.284 0 00-3.032 1.568 9.695 9.695 0 00-.981 4.819v4.336a10.09 10.09 0 001.003 5.105 3.321 3.321 0 003.04 1.648 3.276 3.276 0 002.98-1.553 9.724 9.724 0 001.019-4.893zM138.094 20.54h5.948v2.563h-5.948v6.738h-2.724v-6.738h-5.948v-2.564h5.948v-6.225h2.724zM75.843 48.071h-5.669v5.965h-1.78V40.528h8.367v1.457h-6.587v4.63h5.669zM78.635 41.336a1.023 1.023 0 01.256-.705.958.958 0 01.755-.288.974.974 0 01.761.288 1.015 1.015 0 01.26.705 1.016 1.016 0 11-2.032 0zm1.856 12.7h-1.717V43.998h1.717zM88.089 45.538a5.182 5.182 0 00-.844-.065 2.261 2.261 0 00-2.292 1.438v7.125h-1.716V43.998h1.67l.028 1.16a2.672 2.672 0 012.393-1.345 1.756 1.756 0 01.76.13zM95.51 51.374a1.262 1.262 0 00-.524-1.08 5.038 5.038 0 00-1.827-.664 8.65 8.65 0 01-2.07-.668 2.948 2.948 0 01-1.131-.928 2.219 2.219 0 01-.366-1.28 2.604 2.604 0 011.044-2.088 4.075 4.075 0 012.667-.853 4.197 4.197 0 012.77.881 2.8 2.8 0 011.061 2.254H95.41a1.551 1.551 0 00-.598-1.215 2.246 2.246 0 00-1.508-.51 2.347 2.347 0 00-1.466.408 1.286 1.286 0 00-.529 1.067 1.04 1.04 0 00.492.937 6.033 6.033 0 001.776.603 9.284 9.284 0 012.083.686 3.035 3.035 0 011.183.96 2.359 2.359 0 01.385 1.369 2.57 2.57 0 01-1.076 2.157 4.516 4.516 0 01-2.793.812 5.058 5.058 0 01-2.133-.427 3.466 3.466 0 01-1.453-1.192 2.874 2.874 0 01-.523-1.656h1.716a1.777 1.777 0 00.691 1.369 2.681 2.681 0 001.702.505 2.77 2.77 0 001.564-.394 1.212 1.212 0 00.589-1.053zM101.791 41.568v2.43h1.875v1.327h-1.875v6.233a1.394 1.394 0 00.251.906 1.054 1.054 0 00.854.301 4.16 4.16 0 00.816-.111v1.383a5.002 5.002 0 01-1.317.185 2.137 2.137 0 01-1.735-.696 2.99 2.99 0 01-.585-1.976v-6.225h-1.827v-1.327h1.827v-2.43zM119.604 41.985h-4.342v12.051h-1.772V41.985h-4.332v-1.457h10.446zM124.586 54.222a4.385 4.385 0 01-3.321-1.341 4.974 4.974 0 01-1.28-3.585v-.316a6.02 6.02 0 01.57-2.667 4.448 4.448 0 011.596-1.837 4.013 4.013 0 012.222-.663 3.76 3.76 0 013.043 1.29 5.584 5.584 0 011.085 3.692v.714h-6.8a3.569 3.569 0 00.867 2.398 2.728 2.728 0 002.11.914 2.989 2.989 0 001.54-.371 3.867 3.867 0 001.105-.983l1.048.816a4.215 4.215 0 01-3.785 1.939zm-.213-9a2.289 2.289 0 00-1.745.757 3.676 3.676 0 00-.872 2.12h5.029v-.13a3.273 3.273 0 00-.705-2.027 2.157 2.157 0 00-1.707-.72zM136.684 54.036a3.587 3.587 0 01-.242-1.057 3.829 3.829 0 01-2.857 1.243 3.543 3.543 0 01-2.436-.84 2.716 2.716 0 01-.95-2.129 2.84 2.84 0 011.192-2.435 5.622 5.622 0 013.354-.868h1.67v-.788a1.929 1.929 0 00-.539-1.433 2.162 2.162 0 00-1.586-.534 2.503 2.503 0 00-1.54.464 1.367 1.367 0 00-.622 1.122h-1.725a2.368 2.368 0 01.534-1.452 3.642 3.642 0 011.447-1.108 4.869 4.869 0 012.008-.408 3.97 3.97 0 012.718.867 3.132 3.132 0 011.02 2.389v4.62a5.64 5.64 0 00.353 2.199v.148zm-2.849-1.308a3.016 3.016 0 001.531-.417 2.527 2.527 0 001.049-1.086v-2.06h-1.346q-3.154 0-3.154 1.847a1.561 1.561 0 00.538 1.262 2.066 2.066 0 001.382.454zM142.436 43.998l.046 1.113a3.707 3.707 0 012.978-1.298 2.87 2.87 0 012.867 1.614 3.805 3.805 0 011.303-1.169 3.85 3.85 0 011.897-.445q3.303 0 3.359 3.497v6.726h-1.717v-6.624a2.305 2.305 0 00-.491-1.61 2.165 2.165 0 00-1.652-.533 2.273 2.273 0 00-1.586.571 2.311 2.311 0 00-.733 1.535v6.661h-1.726V47.46a1.915 1.915 0 00-2.143-2.19 2.296 2.296 0 00-2.31 1.438v7.33h-1.716V43.997zM66.979 68.873h-5.063l-1.138 3.163h-1.643L63.75 59.95h1.395l4.623 12.086h-1.635zm-4.582-1.303h4.109l-2.059-5.653zM72.823 72.036h-1.536v-12.75h1.536zM76.948 72.036h-1.535v-12.75h1.535zM82.601 67.528h-4.05v-1.252h4.05zM91.01 68.873h-5.064l-1.137 3.163h-1.643L87.78 59.95h1.394L93.8 72.036h-1.635zm-4.582-1.303h4.109l-2.059-5.653zM96.63 63.055l.04.996a3.315 3.315 0 012.665-1.162 2.567 2.567 0 012.565 1.444 3.4 3.4 0 011.167-1.046 3.444 3.444 0 011.697-.398q2.955 0 3.005 3.129v6.018h-1.536V66.11a2.061 2.061 0 00-.44-1.44 1.937 1.937 0 00-1.477-.478 2.04 2.04 0 00-1.42.51 2.071 2.071 0 00-.655 1.374v5.96h-1.544v-5.885a1.714 1.714 0 00-1.918-1.96 2.054 2.054 0 00-2.067 1.288v6.557h-1.535v-8.981zM113.812 72.202a3.924 3.924 0 01-2.972-1.199 4.453 4.453 0 01-1.145-3.209v-.282a5.391 5.391 0 01.51-2.386 3.985 3.985 0 011.428-1.643 3.585 3.585 0 011.988-.594 3.366 3.366 0 012.723 1.153 4.997 4.997 0 01.97 3.304v.64h-6.084a3.19 3.19 0 00.777 2.145 2.44 2.44 0 001.888.817 2.671 2.671 0 001.378-.332 3.447 3.447 0 00.988-.879l.938.731a3.771 3.771 0 01-3.387 1.734zm-.19-8.051a2.048 2.048 0 00-1.561.676 3.286 3.286 0 00-.78 1.897h4.498v-.116a2.924 2.924 0 00-.63-1.814 1.926 1.926 0 00-1.528-.643zM123.433 64.433a4.566 4.566 0 00-.756-.059 2.023 2.023 0 00-2.05 1.287v6.375h-1.536v-8.981h1.494l.025 1.037a2.392 2.392 0 012.142-1.203 1.559 1.559 0 01.68.116zM124.852 60.672a.918.918 0 01.228-.63.858.858 0 01.677-.258.87.87 0 01.68.257.907.907 0 01.233.631.95.95 0 01-1.59.623.889.889 0 01-.228-.623zm1.66 11.364h-1.535v-8.981h1.535zM132.572 70.948a2.212 2.212 0 001.436-.498 1.75 1.75 0 00.68-1.244h1.453a2.786 2.786 0 01-.531 1.469 3.496 3.496 0 01-1.308 1.112 3.775 3.775 0 01-1.73.415 3.7 3.7 0 01-2.918-1.224 4.88 4.88 0 01-1.083-3.35v-.257a5.41 5.41 0 01.481-2.333 3.664 3.664 0 011.382-1.585 3.922 3.922 0 012.13-.564 3.605 3.605 0 012.51.904 3.237 3.237 0 011.067 2.35h-1.453a2.116 2.116 0 00-.66-1.432 2.052 2.052 0 00-1.465-.56 2.148 2.148 0 00-1.814.842 3.955 3.955 0 00-.643 2.436v.29a3.878 3.878 0 00.64 2.391 2.16 2.16 0 001.826.838zM143.413 72.036a3.22 3.22 0 01-.216-.946 3.427 3.427 0 01-2.557 1.112 3.169 3.169 0 01-2.179-.75 2.43 2.43 0 01-.85-1.906 2.537 2.537 0 011.066-2.179 5.026 5.026 0 013-.776h1.495v-.706a1.726 1.726 0 00-.482-1.282 1.934 1.934 0 00-1.419-.478 2.24 2.24 0 00-1.378.415 1.224 1.224 0 00-.556 1.005h-1.544a2.119 2.119 0 01.477-1.299 3.256 3.256 0 011.295-.992 4.349 4.349 0 011.797-.365 3.55 3.55 0 012.432.776 2.797 2.797 0 01.913 2.137v4.135a5.05 5.05 0 00.316 1.966v.133zm-2.549-1.17a2.7 2.7 0 001.37-.374 2.261 2.261 0 00.938-.971v-1.843h-1.204q-2.822 0-2.822 1.652a1.399 1.399 0 00.481 1.13 1.849 1.849 0 001.237.406zM148.567 63.055l.05 1.129a3.272 3.272 0 012.69-1.295q2.847 0 2.872 3.212v5.935h-1.536v-5.943a2.067 2.067 0 00-.444-1.437 1.78 1.78 0 00-1.357-.464 2.217 2.217 0 00-1.312.398 2.706 2.706 0 00-.88 1.046v6.4h-1.535v-8.981zM161.724 69.653a1.132 1.132 0 00-.469-.966 4.52 4.52 0 00-1.635-.594 7.722 7.722 0 01-1.851-.598 2.624 2.624 0 01-1.013-.83 1.982 1.982 0 01-.328-1.145 2.33 2.33 0 01.934-1.868 3.645 3.645 0 012.387-.763 3.753 3.753 0 012.477.788 2.506 2.506 0 01.95 2.017h-1.543a1.386 1.386 0 00-.536-1.087 2.007 2.007 0 00-1.348-.456 2.095 2.095 0 00-1.312.365 1.149 1.149 0 00-.473.954.932.932 0 00.44.839 5.418 5.418 0 001.59.539 8.339 8.339 0 011.863.614 2.722 2.722 0 011.059.86 2.115 2.115 0 01.344 1.224 2.298 2.298 0 01-.963 1.93 4.038 4.038 0 01-2.499.726 4.518 4.518 0 01-1.909-.382 3.11 3.11 0 01-1.299-1.066 2.57 2.57 0 01-.469-1.481h1.536a1.592 1.592 0 00.618 1.223 2.399 2.399 0 001.523.452 2.474 2.474 0 001.399-.352 1.084 1.084 0 00.527-.943zM261.844 31.98h-2.724V13.918l-5.464 2.007v-2.461l7.763-2.915h.425zM281.224 24.817h2.96v2.211h-2.96v4.952H278.5v-4.952h-9.712v-1.596l9.55-14.78h2.886zm-9.36 0h6.636v-10.46l-.323.587zM292.225 21.916l3.516-5.786h3.164l-5.186 7.837 5.347 8.013h-3.135l-3.662-5.933-3.662 5.933h-3.15l5.347-8.013-5.185-7.837h3.134zM580.154 31.92h-2.724V13.86l-5.464 2.006v-2.46l7.763-2.916h.425zM601.468 22.823q0 4.761-1.626 7.076a6.756 6.756 0 01-10.137.05q-1.64-2.262-1.7-6.76v-3.618q0-4.702 1.627-6.987a6.878 6.878 0 0110.166-.08q1.626 2.204 1.67 6.804zm-2.71-3.706a9.93 9.93 0 00-.967-5.017 3.328 3.328 0 00-3.062-1.574 3.284 3.284 0 00-3.032 1.567 9.695 9.695 0 00-.981 4.82v4.335a10.088 10.088 0 001.004 5.105 3.32 3.32 0 003.039 1.648 3.277 3.277 0 002.981-1.553 9.725 9.725 0 001.018-4.892zM618.313 22.823q0 4.761-1.626 7.076a6.756 6.756 0 01-10.136.05q-1.64-2.262-1.7-6.76v-3.618q0-4.702 1.627-6.987a6.878 6.878 0 0110.166-.08q1.626 2.204 1.67 6.804zm-2.71-3.706a9.93 9.93 0 00-.966-5.017 3.328 3.328 0 00-3.062-1.574 3.284 3.284 0 00-3.032 1.567 9.695 9.695 0 00-.982 4.82v4.335a10.088 10.088 0 001.004 5.105 3.32 3.32 0 003.04 1.648 3.277 3.277 0 002.98-1.553 9.725 9.725 0 001.018-4.892zM629.827 20.48h5.947v2.563h-5.947v6.738h-2.724v-6.738h-5.948V20.48h5.948v-6.226h2.724zM429.573 19.938h2.036a4.475 4.475 0 003.018-1.01 3.377 3.377 0 001.099-2.652q0-3.75-3.736-3.75a3.884 3.884 0 00-2.804 1.003 3.512 3.512 0 00-1.048 2.66h-2.71a5.441 5.441 0 011.853-4.212 6.75 6.75 0 014.71-1.678 6.67 6.67 0 014.73 1.597 5.768 5.768 0 011.715 4.439 4.681 4.681 0 01-.9 2.695 5.44 5.44 0 01-2.455 1.948 5.243 5.243 0 012.718 1.846 5.126 5.126 0 01.959 3.15 5.818 5.818 0 01-1.875 4.555 7.021 7.021 0 01-4.878 1.685 7.206 7.206 0 01-4.885-1.626 5.394 5.394 0 01-1.883-4.292h2.725a3.486 3.486 0 001.099 2.695 4.179 4.179 0 002.944 1.01 4.1 4.1 0 003.003-1.025 3.952 3.952 0 001.04-2.944 3.586 3.586 0 00-1.143-2.857 4.978 4.978 0 00-3.296-1.025h-2.036zM448.074 21.857l3.516-5.786h3.164l-5.186 7.837 5.347 8.013h-3.135l-3.662-5.933-3.662 5.933h-3.15l5.347-8.013-5.185-7.837h3.135zM244.31 54.136V39.918h4.648a5.395 5.395 0 013.481.957 3.45 3.45 0 011.167 2.832 2.89 2.89 0 01-.566 1.762 3.67 3.67 0 01-1.543 1.187 3.298 3.298 0 011.82 1.225 3.518 3.518 0 01.67 2.154 3.803 3.803 0 01-1.24 3.008 5.13 5.13 0 01-3.506 1.093zm1.874-8.154h2.832a2.97 2.97 0 001.968-.616 2.067 2.067 0 00.737-1.674 2.034 2.034 0 00-.683-1.708 3.357 3.357 0 00-2.08-.533h-2.774zm0 1.504v5.117h3.096a2.98 2.98 0 002.065-.679 2.384 2.384 0 00.757-1.87q0-2.568-2.793-2.568zM256.487 40.767a1.077 1.077 0 01.268-.742 1.01 1.01 0 01.796-.303 1.024 1.024 0 01.801.303 1.068 1.068 0 01.273.742 1.07 1.07 0 11-2.138 0zm1.953 13.37h-1.807V43.57h1.807zM260.9 48.765a6.21 6.21 0 011.143-3.93 3.94 3.94 0 016.045-.093l.088-1.172h1.65v10.312a4.298 4.298 0 01-1.215 3.233 4.487 4.487 0 01-3.267 1.182 5.431 5.431 0 01-2.236-.489 3.853 3.853 0 01-1.67-1.338l.937-1.084a3.533 3.533 0 002.842 1.436 2.769 2.769 0 002.056-.742 2.836 2.836 0 00.737-2.09v-.908a3.713 3.713 0 01-2.959 1.25 3.61 3.61 0 01-3.003-1.494 6.528 6.528 0 01-1.147-4.073zm1.817.205a4.737 4.737 0 00.733 2.808 2.38 2.38 0 002.05 1.02 2.646 2.646 0 002.51-1.552v-4.824a2.677 2.677 0 00-2.49-1.514 2.401 2.401 0 00-2.06 1.025 5.161 5.161 0 00-.743 3.037zM287.22 41.45h-4.571v12.686h-1.865V41.451h-4.56v-1.533h10.995zM292.463 54.332a4.616 4.616 0 01-3.496-1.411 5.237 5.237 0 01-1.347-3.775v-.332a6.34 6.34 0 01.6-2.807 4.684 4.684 0 011.68-1.934 4.224 4.224 0 012.339-.698 3.958 3.958 0 013.203 1.357 5.877 5.877 0 011.142 3.887v.752h-7.158a3.756 3.756 0 00.913 2.524 2.87 2.87 0 002.222.962 3.148 3.148 0 001.621-.39 4.068 4.068 0 001.162-1.036l1.104.86a4.436 4.436 0 01-3.985 2.04zm-.224-9.473a2.41 2.41 0 00-1.836.796 3.87 3.87 0 00-.918 2.231h5.293v-.136a3.44 3.44 0 00-.742-2.134 2.27 2.27 0 00-1.797-.757zM300.383 43.57l.059 1.328a3.85 3.85 0 013.164-1.523q3.35 0 3.379 3.779v6.982h-1.807v-6.992a2.432 2.432 0 00-.522-1.69 2.093 2.093 0 00-1.597-.546 2.608 2.608 0 00-1.543.469 3.183 3.183 0 00-1.035 1.23v7.53h-1.807V43.57zM238.901 67.85a4.97 4.97 0 01-1.582 3.307 5.182 5.182 0 01-3.539 1.164 4.758 4.758 0 01-3.836-1.716 6.902 6.902 0 01-1.443-4.592v-1.299a7.702 7.702 0 01.673-3.313 5.023 5.023 0 011.907-2.193 5.303 5.303 0 012.857-.765 4.883 4.883 0 013.451 1.2 5.033 5.033 0 011.512 3.327h-1.79a3.886 3.886 0 00-1.006-2.346 3.048 3.048 0 00-2.167-.725 3.186 3.186 0 00-2.676 1.262 5.799 5.799 0 00-.97 3.594v1.31a5.957 5.957 0 00.918 3.5 2.966 2.966 0 002.57 1.3 3.428 3.428 0 002.278-.673 3.731 3.731 0 001.053-2.342zM242.78 63.313a3.65 3.65 0 012.968-1.4q3.182 0 3.21 3.59v6.633h-1.716v-6.643a2.316 2.316 0 00-.496-1.605 1.993 1.993 0 00-1.517-.52 2.477 2.477 0 00-1.466.446 3.02 3.02 0 00-.984 1.169v7.153h-1.716v-14.25h1.716zM257.725 72.136a3.595 3.595 0 01-.241-1.058 3.829 3.829 0 01-2.858 1.243 3.54 3.54 0 01-2.435-.84 2.716 2.716 0 01-.95-2.128 2.839 2.839 0 011.191-2.436 5.622 5.622 0 013.354-.867h1.67v-.79a1.927 1.927 0 00-.538-1.432 2.16 2.16 0 00-1.586-.534 2.506 2.506 0 00-1.54.464 1.367 1.367 0 00-.622 1.123h-1.726a2.367 2.367 0 01.534-1.452 3.642 3.642 0 011.447-1.109 4.86 4.86 0 012.009-.408 3.97 3.97 0 012.718.867 3.131 3.131 0 011.02 2.39v4.62a5.643 5.643 0 00.353 2.198v.149zm-2.848-1.309a3.016 3.016 0 001.53-.417 2.526 2.526 0 001.05-1.085v-2.06h-1.346q-3.155 0-3.154 1.846a1.562 1.562 0 00.538 1.262 2.069 2.069 0 001.382.454zM263.477 62.098l.046 1.113a3.706 3.706 0 012.978-1.299 2.87 2.87 0 012.867 1.615 3.805 3.805 0 011.303-1.17 3.85 3.85 0 011.898-.445q3.302 0 3.358 3.497v6.727h-1.716v-6.624a2.304 2.304 0 00-.492-1.61 2.163 2.163 0 00-1.651-.534 2.274 2.274 0 00-1.587.572 2.31 2.31 0 00-.732 1.535v6.66h-1.726v-6.577a1.915 1.915 0 00-2.143-2.19 2.296 2.296 0 00-2.31 1.439v7.329h-1.716V62.098zM286.995 67.228a6.015 6.015 0 01-1.048 3.693 3.361 3.361 0 01-2.84 1.4 3.68 3.68 0 01-2.875-1.16v4.834h-1.716V62.098h1.567l.084 1.113a3.534 3.534 0 012.913-1.299 3.423 3.423 0 012.862 1.364 6.08 6.08 0 011.053 3.794zm-1.716-.195a4.438 4.438 0 00-.724-2.681 2.332 2.332 0 00-1.985-.984 2.523 2.523 0 00-2.338 1.383v4.797a2.528 2.528 0 002.356 1.373 2.32 2.32 0 001.963-.98 4.842 4.842 0 00.728-2.908zM289.185 59.435a1.023 1.023 0 01.255-.705.958.958 0 01.756-.287.974.974 0 01.76.287 1.015 1.015 0 01.26.705 1.016 1.016 0 11-2.031 0zm1.855 12.7h-1.716V62.099h1.716zM293.332 67.024a5.935 5.935 0 01.58-2.654 4.33 4.33 0 011.613-1.818 4.395 4.395 0 012.362-.64 4.232 4.232 0 013.316 1.42 5.46 5.46 0 011.267 3.776v.12a5.979 5.979 0 01-.562 2.63 4.26 4.26 0 01-1.604 1.814 4.45 4.45 0 01-2.399.65 4.22 4.22 0 01-3.307-1.42 5.433 5.433 0 01-1.266-3.757zm1.725.204a4.294 4.294 0 00.775 2.681 2.624 2.624 0 004.151-.013 4.698 4.698 0 00.77-2.872 4.285 4.285 0 00-.783-2.676 2.493 2.493 0 00-2.083-1.026 2.465 2.465 0 00-2.05 1.011 4.664 4.664 0 00-.78 2.895zM306.246 62.098l.055 1.262a3.657 3.657 0 013.006-1.448q3.182 0 3.21 3.59v6.634h-1.716v-6.643a2.316 2.316 0 00-.496-1.605 1.993 1.993 0 00-1.517-.52 2.477 2.477 0 00-1.466.446 3.02 3.02 0 00-.984 1.169v7.153h-1.716V62.098zM320.95 69.474a1.262 1.262 0 00-.524-1.081 5.037 5.037 0 00-1.827-.664 8.65 8.65 0 01-2.07-.668 2.944 2.944 0 01-1.132-.928 2.219 2.219 0 01-.366-1.28 2.603 2.603 0 011.044-2.087 4.072 4.072 0 012.667-.854 4.2 4.2 0 012.77.881 2.801 2.801 0 011.062 2.255h-1.726a1.553 1.553 0 00-.598-1.216 2.245 2.245 0 00-1.508-.51 2.344 2.344 0 00-1.466.409 1.285 1.285 0 00-.528 1.066 1.04 1.04 0 00.491.937 6.05 6.05 0 001.777.603 9.31 9.31 0 012.083.687 3.036 3.036 0 011.182.96 2.359 2.359 0 01.385 1.369 2.57 2.57 0 01-1.076 2.157 4.516 4.516 0 01-2.792.811 5.058 5.058 0 01-2.134-.426 3.466 3.466 0 01-1.452-1.193 2.875 2.875 0 01-.524-1.656h1.716a1.775 1.775 0 00.692 1.37 2.681 2.681 0 001.702.505 2.77 2.77 0 001.563-.395 1.212 1.212 0 00.59-1.052zM414.73 54.136h-1.885l-7.158-10.957v10.957h-1.885V39.918h1.885l7.177 11.005V39.918h1.865zM424.3 54.136a3.83 3.83 0 01-.254-1.113 4.03 4.03 0 01-3.008 1.309 3.731 3.731 0 01-2.563-.884 2.86 2.86 0 01-1.001-2.241 2.989 2.989 0 011.255-2.564 5.917 5.917 0 013.53-.913h1.758v-.83a2.028 2.028 0 00-.567-1.509 2.274 2.274 0 00-1.67-.561 2.634 2.634 0 00-1.62.488 1.44 1.44 0 00-.655 1.182h-1.817a2.496 2.496 0 01.562-1.529 3.842 3.842 0 011.523-1.167 5.126 5.126 0 012.115-.43 4.175 4.175 0 012.861.914 3.29 3.29 0 011.074 2.514v4.864a5.95 5.95 0 00.371 2.314v.156zm-2.998-1.377a3.175 3.175 0 001.611-.44 2.656 2.656 0 001.104-1.142V49.01H422.6q-3.32 0-3.32 1.944a1.646 1.646 0 00.566 1.328 2.18 2.18 0 001.455.478zM431.106 41.011v2.559h1.973v1.396h-1.973v6.561a1.465 1.465 0 00.264.954 1.11 1.11 0 00.899.317 4.365 4.365 0 00.859-.117v1.456a5.245 5.245 0 01-1.387.195 2.25 2.25 0 01-1.826-.733 3.146 3.146 0 01-.615-2.08v-6.553h-1.924V43.57h1.924v-2.559zM435.198 40.767a1.08 1.08 0 01.269-.742 1.01 1.01 0 01.796-.303 1.024 1.024 0 01.8.303 1.065 1.065 0 01.274.742 1.03 1.03 0 01-.274.733 1.042 1.042 0 01-.8.293 1.027 1.027 0 01-.796-.293 1.044 1.044 0 01-.269-.733zm1.953 13.37h-1.806V43.57h1.806zM439.563 48.756a6.25 6.25 0 01.61-2.793 4.558 4.558 0 011.7-1.915 4.628 4.628 0 012.485-.673 4.455 4.455 0 013.492 1.494 5.748 5.748 0 011.333 3.974v.127a6.285 6.285 0 01-.591 2.769 4.484 4.484 0 01-1.69 1.91 4.679 4.679 0 01-2.524.683 4.446 4.446 0 01-3.482-1.494 5.72 5.72 0 01-1.333-3.955zm1.817.214a4.524 4.524 0 00.815 2.823 2.763 2.763 0 004.37-.015 4.939 4.939 0 00.811-3.022 4.508 4.508 0 00-.825-2.818 2.623 2.623 0 00-2.193-1.079 2.595 2.595 0 00-2.158 1.064 4.906 4.906 0 00-.82 3.047zM453.157 43.57l.059 1.328a3.851 3.851 0 013.164-1.523q3.35 0 3.379 3.779v6.982h-1.807v-6.992a2.43 2.43 0 00-.522-1.69 2.093 2.093 0 00-1.597-.546 2.609 2.609 0 00-1.543.469 3.192 3.192 0 00-1.035 1.23v7.53h-1.807V43.57zM469.007 54.136a3.83 3.83 0 01-.254-1.113 4.03 4.03 0 01-3.008 1.309 3.731 3.731 0 01-2.563-.884 2.86 2.86 0 01-1.001-2.241 2.989 2.989 0 011.255-2.564 5.917 5.917 0 013.53-.913h1.758v-.83a2.028 2.028 0 00-.567-1.509 2.274 2.274 0 00-1.67-.561 2.634 2.634 0 00-1.62.488 1.44 1.44 0 00-.655 1.182h-1.817a2.496 2.496 0 01.562-1.529 3.842 3.842 0 011.523-1.167 5.126 5.126 0 012.115-.43 4.175 4.175 0 012.861.914 3.29 3.29 0 011.074 2.514v4.864a5.95 5.95 0 00.371 2.314v.156zm-2.998-1.377a3.175 3.175 0 001.611-.44 2.656 2.656 0 001.104-1.142V49.01h-1.416q-3.32 0-3.32 1.944a1.646 1.646 0 00.566 1.328 2.18 2.18 0 001.455.478zM475.325 54.136h-1.806v-15h1.806zM402.901 67.85a4.97 4.97 0 01-1.582 3.307 5.183 5.183 0 01-3.539 1.164 4.758 4.758 0 01-3.836-1.716 6.9 6.9 0 01-1.443-4.592v-1.299a7.697 7.697 0 01.673-3.312 5.024 5.024 0 011.906-2.194 5.304 5.304 0 012.858-.765 4.883 4.883 0 013.45 1.2 5.033 5.033 0 011.513 3.327h-1.79a3.882 3.882 0 00-1.006-2.345 3.046 3.046 0 00-2.167-.726 3.185 3.185 0 00-2.676 1.263 5.794 5.794 0 00-.97 3.593v1.31a5.957 5.957 0 00.918 3.5 2.966 2.966 0 002.57 1.3 3.428 3.428 0 002.278-.673 3.728 3.728 0 001.052-2.342zM406.78 63.314a3.65 3.65 0 012.968-1.402q3.182 0 3.21 3.591v6.633h-1.717v-6.643a2.31 2.31 0 00-.496-1.604 1.988 1.988 0 00-1.516-.52 2.476 2.476 0 00-1.466.446 3.016 3.016 0 00-.984 1.169v7.152h-1.716v-14.25h1.716zM421.725 72.136a3.61 3.61 0 01-.242-1.058 3.828 3.828 0 01-2.857 1.243 3.542 3.542 0 01-2.436-.84 2.716 2.716 0 01-.95-2.128 2.84 2.84 0 011.192-2.436 5.624 5.624 0 013.354-.867h1.67v-.788a1.93 1.93 0 00-.538-1.434 2.165 2.165 0 00-1.587-.533 2.5 2.5 0 00-1.54.464 1.368 1.368 0 00-.621 1.122h-1.726a2.372 2.372 0 01.534-1.452 3.642 3.642 0 011.447-1.109 4.879 4.879 0 012.009-.408 3.968 3.968 0 012.717.867 3.132 3.132 0 011.02 2.39v4.62a5.643 5.643 0 00.353 2.198v.149zm-2.848-1.309a3.014 3.014 0 001.53-.417 2.527 2.527 0 001.05-1.085v-2.06h-1.347q-3.153 0-3.154 1.846a1.563 1.563 0 00.538 1.262 2.07 2.07 0 001.383.454zM427.477 62.098l.046 1.113a3.708 3.708 0 012.978-1.299 2.87 2.87 0 012.867 1.615 3.808 3.808 0 011.303-1.17 3.852 3.852 0 011.897-.445q3.304 0 3.359 3.498v6.726h-1.716v-6.624a2.304 2.304 0 00-.492-1.61 2.166 2.166 0 00-1.652-.533 2.272 2.272 0 00-1.586.57 2.315 2.315 0 00-.733 1.536v6.66h-1.726V65.56a1.915 1.915 0 00-2.142-2.19 2.297 2.297 0 00-2.31 1.438v7.329h-1.716V62.098zM450.995 67.229a6.01 6.01 0 01-1.049 3.692 3.361 3.361 0 01-2.839 1.4 3.68 3.68 0 01-2.876-1.16v4.834h-1.715V62.098h1.567l.084 1.113a3.537 3.537 0 012.913-1.299 3.424 3.424 0 012.862 1.365 6.08 6.08 0 011.053 3.794zm-1.717-.196a4.433 4.433 0 00-.723-2.68 2.332 2.332 0 00-1.986-.984 2.524 2.524 0 00-2.338 1.382v4.797a2.529 2.529 0 002.357 1.373 2.321 2.321 0 001.963-.98 4.84 4.84 0 00.727-2.908zM453.185 59.435a1.025 1.025 0 01.254-.705.958.958 0 01.756-.287.973.973 0 01.761.287 1.015 1.015 0 01.26.705 1.016 1.016 0 11-2.031 0zm1.855 12.7h-1.717V62.099h1.717zM457.331 67.025a5.926 5.926 0 01.58-2.654 4.33 4.33 0 011.614-1.818 4.394 4.394 0 012.362-.64 4.233 4.233 0 013.316 1.42 5.459 5.459 0 011.267 3.775v.12a5.981 5.981 0 01-.562 2.63 4.26 4.26 0 01-1.604 1.814 4.451 4.451 0 01-2.399.65 4.22 4.22 0 01-3.307-1.42 5.433 5.433 0 01-1.267-3.757zm1.726.204a4.291 4.291 0 00.775 2.68 2.624 2.624 0 004.151-.013 4.7 4.7 0 00.77-2.871 4.29 4.29 0 00-.783-2.677 2.494 2.494 0 00-2.083-1.026 2.466 2.466 0 00-2.051 1.012 4.66 4.66 0 00-.78 2.895zM470.245 62.098l.056 1.262a3.657 3.657 0 013.006-1.448q3.181 0 3.21 3.591v6.633H474.8v-6.643a2.316 2.316 0 00-.496-1.604 1.99 1.99 0 00-1.518-.52 2.478 2.478 0 00-1.466.446 3.024 3.024 0 00-.983 1.169v7.152h-1.716V62.098zM484.95 69.474a1.263 1.263 0 00-.524-1.081 5.047 5.047 0 00-1.827-.663 8.65 8.65 0 01-2.07-.668 2.949 2.949 0 01-1.132-.928 2.219 2.219 0 01-.366-1.28 2.605 2.605 0 011.044-2.088 4.077 4.077 0 012.667-.854 4.196 4.196 0 012.77.882 2.799 2.799 0 011.061 2.254h-1.725a1.55 1.55 0 00-.598-1.215 2.247 2.247 0 00-1.508-.51 2.35 2.35 0 00-1.466.408 1.286 1.286 0 00-.529 1.067 1.04 1.04 0 00.492.936 6.01 6.01 0 001.777.604 9.268 9.268 0 012.083.687 3.042 3.042 0 011.182.96 2.358 2.358 0 01.385 1.368 2.569 2.569 0 01-1.076 2.157 4.516 4.516 0 01-2.792.811 5.057 5.057 0 01-2.134-.426 3.463 3.463 0 01-1.452-1.193 2.872 2.872 0 01-.525-1.656h1.717a1.772 1.772 0 00.692 1.37 2.681 2.681 0 001.702.505 2.772 2.772 0 001.563-.394 1.212 1.212 0 00.59-1.053zM570.194 50.802h-5.659l-1.27 3.535h-1.837l5.158-13.508h1.559l5.167 13.508h-1.828zm-5.12-1.457h4.592l-2.3-6.317zM578.888 53.121a2.472 2.472 0 001.604-.556 1.958 1.958 0 00.76-1.392h1.625a3.12 3.12 0 01-.594 1.642 3.917 3.917 0 01-1.46 1.243 4.222 4.222 0 01-1.935.464 4.134 4.134 0 01-3.261-1.368 5.449 5.449 0 01-1.21-3.744v-.287a6.034 6.034 0 01.537-2.607 4.093 4.093 0 011.545-1.772 4.387 4.387 0 012.379-.631 4.027 4.027 0 012.807 1.011 3.616 3.616 0 011.192 2.626h-1.624a2.367 2.367 0 00-.737-1.6 2.297 2.297 0 00-1.638-.627 2.4 2.4 0 00-2.026.941 4.422 4.422 0 00-.72 2.724v.324a4.331 4.331 0 00.715 2.672 2.412 2.412 0 002.04.937zM591.004 54.337a3.57 3.57 0 01-.241-1.058 3.83 3.83 0 01-2.858 1.243 3.541 3.541 0 01-2.435-.84 2.716 2.716 0 01-.951-2.129 2.839 2.839 0 011.192-2.435 5.62 5.62 0 013.353-.867h1.67v-.789a1.929 1.929 0 00-.538-1.433 2.16 2.16 0 00-1.586-.534 2.503 2.503 0 00-1.54.464 1.366 1.366 0 00-.622 1.123h-1.725a2.366 2.366 0 01.534-1.452 3.642 3.642 0 011.447-1.109 4.866 4.866 0 012.008-.408 3.972 3.972 0 012.719.867 3.134 3.134 0 011.02 2.39v4.62a5.64 5.64 0 00.353 2.198v.149zm-2.849-1.309a3.018 3.018 0 001.532-.417 2.526 2.526 0 001.047-1.085v-2.06h-1.344q-3.156 0-3.155 1.846a1.56 1.56 0 00.538 1.262 2.066 2.066 0 001.382.454zM594.724 49.234a5.884 5.884 0 011.094-3.716 3.725 3.725 0 015.66-.199v-5.232h1.716v14.25h-1.577l-.084-1.077a3.494 3.494 0 01-2.866 1.262 3.429 3.429 0 01-2.844-1.429 5.949 5.949 0 01-1.1-3.73zm1.716.195a4.447 4.447 0 00.706 2.672 2.278 2.278 0 001.948.965 2.503 2.503 0 002.384-1.466v-4.611a2.523 2.523 0 00-2.366-1.42 2.289 2.289 0 00-1.966.975 4.898 4.898 0 00-.706 2.885zM610.022 54.522a4.384 4.384 0 01-3.32-1.34 4.974 4.974 0 01-1.281-3.586v-.316a6.02 6.02 0 01.57-2.667 4.448 4.448 0 011.596-1.837 4.014 4.014 0 012.222-.663 3.76 3.76 0 013.043 1.29 5.584 5.584 0 011.086 3.692v.714h-6.801a3.571 3.571 0 00.867 2.399 2.73 2.73 0 002.111.913 2.99 2.99 0 001.54-.37 3.871 3.871 0 001.104-.984l1.049.816a4.216 4.216 0 01-3.786 1.94zm-.213-8.999a2.29 2.29 0 00-1.745.756 3.679 3.679 0 00-.872 2.12h5.029v-.13a3.27 3.27 0 00-.705-2.027 2.156 2.156 0 00-1.707-.719zM617.537 44.298l.046 1.114a3.708 3.708 0 012.979-1.299 2.87 2.87 0 012.866 1.614 3.802 3.802 0 011.303-1.169 3.85 3.85 0 011.898-.445q3.302 0 3.358 3.497v6.727h-1.716v-6.624a2.307 2.307 0 00-.492-1.61 2.166 2.166 0 00-1.651-.534 2.274 2.274 0 00-1.587.571 2.309 2.309 0 00-.732 1.535v6.662h-1.726v-6.578a1.915 1.915 0 00-2.144-2.19 2.295 2.295 0 00-2.31 1.439v7.329h-1.716V44.298zM632.585 41.636a1.025 1.025 0 01.255-.705.958.958 0 01.756-.288.973.973 0 01.76.288 1.015 1.015 0 01.26.705 1.016 1.016 0 11-2.031 0zm1.855 12.7h-1.716V44.299h1.716zM641.213 53.121a2.471 2.471 0 001.604-.556 1.958 1.958 0 00.761-1.392h1.624a3.12 3.12 0 01-.594 1.642 3.917 3.917 0 01-1.46 1.243 4.222 4.222 0 01-1.935.464 4.134 4.134 0 01-3.26-1.368 5.449 5.449 0 01-1.212-3.744v-.287a6.034 6.034 0 01.538-2.607 4.093 4.093 0 011.545-1.772 4.387 4.387 0 012.38-.631 4.027 4.027 0 012.806 1.011 3.616 3.616 0 011.192 2.626h-1.624a2.367 2.367 0 00-.737-1.6 2.297 2.297 0 00-1.638-.627 2.4 2.4 0 00-2.026.941 4.422 4.422 0 00-.72 2.724v.324a4.331 4.331 0 00.715 2.672 2.412 2.412 0 002.04.937zM558.979 68.173h-5.064l-1.137 3.163h-1.643l4.615-12.086h1.395l4.623 12.086h-1.635zm-4.582-1.303h4.109l-2.059-5.653zM564.822 71.336h-1.535v-12.75h1.535zM568.948 71.336h-1.536v-12.75h1.536zM574.6 66.828h-4.05v-1.253h4.05zM583.01 68.173h-5.064l-1.137 3.163h-1.644l4.615-12.086h1.395l4.624 12.086h-1.636zm-4.582-1.303h4.108l-2.058-5.653zM588.629 62.355l.042.996a3.314 3.314 0 012.664-1.162 2.568 2.568 0 012.565 1.444 3.403 3.403 0 011.166-1.046 3.445 3.445 0 011.698-.398q2.956 0 3.005 3.129v6.018h-1.536V65.41a2.06 2.06 0 00-.44-1.44 1.935 1.935 0 00-1.478-.478 2.038 2.038 0 00-1.419.511 2.072 2.072 0 00-.656 1.374v5.96h-1.544V65.45a1.713 1.713 0 00-1.917-1.959 2.055 2.055 0 00-2.067 1.287v6.558h-1.535v-8.981zM605.812 71.502a3.924 3.924 0 01-2.972-1.2 4.453 4.453 0 01-1.146-3.208v-.282a5.392 5.392 0 01.511-2.386 3.985 3.985 0 011.428-1.644 3.584 3.584 0 011.988-.593 3.366 3.366 0 012.723 1.153 4.997 4.997 0 01.97 3.304v.64h-6.084a3.186 3.186 0 00.777 2.145 2.438 2.438 0 001.888.817 2.669 2.669 0 001.377-.332 3.431 3.431 0 00.989-.88l.937.732a3.77 3.77 0 01-3.386 1.734zm-.19-8.052a2.047 2.047 0 00-1.561.677 3.283 3.283 0 00-.78 1.897h4.498v-.117a2.93 2.93 0 00-.63-1.813 1.927 1.927 0 00-1.528-.644zM615.433 63.733a4.568 4.568 0 00-.756-.059 2.023 2.023 0 00-2.05 1.287v6.375h-1.536v-8.981h1.494l.025 1.037a2.39 2.39 0 012.142-1.203 1.56 1.56 0 01.68.116zM616.852 59.972a.916.916 0 01.228-.63.858.858 0 01.677-.258.871.871 0 01.68.257.91.91 0 01.233.631.91.91 0 11-1.818 0zm1.66 11.364h-1.535v-8.981h1.535zM624.571 70.248a2.215 2.215 0 001.437-.498 1.756 1.756 0 00.68-1.245h1.453a2.778 2.778 0 01-.532 1.47 3.488 3.488 0 01-1.307 1.112 3.773 3.773 0 01-1.73.415 3.701 3.701 0 01-2.919-1.224 4.88 4.88 0 01-1.083-3.35v-.257a5.417 5.417 0 01.482-2.333 3.67 3.67 0 011.382-1.585 3.923 3.923 0 012.13-.564 3.605 3.605 0 012.51.904 3.233 3.233 0 011.067 2.35h-1.453a2.119 2.119 0 00-.66-1.432 2.05 2.05 0 00-1.465-.56 2.15 2.15 0 00-1.814.842 3.955 3.955 0 00-.643 2.436v.29a3.883 3.883 0 00.64 2.391 2.161 2.161 0 001.825.838zM635.412 71.336a3.252 3.252 0 01-.216-.946 3.426 3.426 0 01-2.556 1.112 3.17 3.17 0 01-2.18-.75 2.43 2.43 0 01-.85-1.906 2.537 2.537 0 011.067-2.179 5.027 5.027 0 013-.776h1.495v-.706a1.728 1.728 0 00-.482-1.283 1.935 1.935 0 00-1.42-.477 2.242 2.242 0 00-1.377.415 1.225 1.225 0 00-.556 1.005h-1.544a2.12 2.12 0 01.477-1.299 3.256 3.256 0 011.294-.992 4.351 4.351 0 011.798-.365 3.549 3.549 0 012.432.776 2.794 2.794 0 01.913 2.137v4.134a5.06 5.06 0 00.315 1.967v.133zm-2.548-1.17a2.698 2.698 0 001.37-.374 2.265 2.265 0 00.938-.972v-1.842h-1.204q-2.822 0-2.822 1.652a1.4 1.4 0 00.481 1.129 1.85 1.85 0 001.237.407zM640.567 62.355l.05 1.129a3.271 3.271 0 012.69-1.295q2.846 0 2.872 3.212v5.935h-1.536v-5.943a2.065 2.065 0 00-.445-1.437 1.778 1.778 0 00-1.356-.465 2.216 2.216 0 00-1.312.399 2.697 2.697 0 00-.88 1.046v6.4h-1.536v-8.981zM653.724 68.953a1.13 1.13 0 00-.47-.967 4.513 4.513 0 00-1.635-.593 7.722 7.722 0 01-1.85-.598 2.628 2.628 0 01-1.013-.83 1.982 1.982 0 01-.328-1.146 2.33 2.33 0 01.933-1.867 3.646 3.646 0 012.387-.763 3.752 3.752 0 012.478.788 2.506 2.506 0 01.95 2.017h-1.543a1.387 1.387 0 00-.536-1.088 2.006 2.006 0 00-1.349-.456 2.096 2.096 0 00-1.311.366 1.148 1.148 0 00-.473.954.933.933 0 00.44.839 5.423 5.423 0 001.59.539 8.32 8.32 0 011.862.614 2.715 2.715 0 011.059.86 2.115 2.115 0 01.345 1.224 2.299 2.299 0 01-.963 1.93 4.04 4.04 0 01-2.5.726 4.52 4.52 0 01-1.908-.382 3.113 3.113 0 01-1.3-1.066 2.575 2.575 0 01-.468-1.483h1.535a1.595 1.595 0 00.618 1.225 2.399 2.399 0 001.524.452 2.472 2.472 0 001.398-.352 1.084 1.084 0 00.528-.943z" transform="translate(0 -2.5)"/></svg>