<svg id="Layer_1" data-name="Layer 1" xmlns="http://www.w3.org/2000/svg" viewBox="0 0 715 80.22857"><defs><style>.cls-1{fill:#a2a1a0;}.cls-2{fill:#183159;}.cls-3{fill:#fff;}</style></defs><rect class="cls-1" y="32.61429" width="715" height="15"/><rect class="cls-2" x="51.5" width="120" height="80.22857" rx="19.2"/><rect class="cls-2" x="379.5" width="120" height="80.22857" rx="19.2"/><rect class="cls-2" x="543.5" width="120" height="80.22857" rx="19.2"/><rect class="cls-2" x="215.5" width="120" height="80.22857" rx="19.2"/><path class="cls-3" d="M88.42139,31.97965H85.69678V13.91813L80.23291,15.925V13.464l7.76367-2.915h.42481Z" transform="translate(0 -2.50071)"/><path class="cls-3" d="M109.73486,22.883q0,4.76075-1.626,7.07519a6.75633,6.75633,0,0,1-10.13672.05127q-1.64062-2.26318-1.69922-6.76025V19.631q0-4.70215,1.626-6.98731a6.87768,6.87768,0,0,1,10.166-.08057q1.626,2.2046,1.66992,6.8042Zm-2.71-3.70606a9.92959,9.92959,0,0,0-.96679-5.01709,3.32776,3.32776,0,0,0-3.06153-1.5747,3.28386,3.28386,0,0,0-3.03222,1.56738,9.6954,9.6954,0,0,0-.98145,4.81934v4.33593a10.08907,10.08907,0,0,0,1.00342,5.105,3.32137,3.32137,0,0,0,3.03955,1.648,3.27585,3.27585,0,0,0,2.981-1.55273,9.72413,9.72413,0,0,0,1.01806-4.89258Z" transform="translate(0 -2.50071)"/><path class="cls-3" d="M126.58057,22.883q0,4.76075-1.626,7.07519a6.75633,6.75633,0,0,1-10.13672.05127q-1.64062-2.26318-1.69922-6.76025V19.631q0-4.70215,1.626-6.98731a6.87768,6.87768,0,0,1,10.166-.08057q1.626,2.2046,1.66993,6.8042Zm-2.71-3.70606a9.92957,9.92957,0,0,0-.9668-5.01709,3.32775,3.32775,0,0,0-3.06152-1.5747,3.28388,3.28388,0,0,0-3.03223,1.56738,9.6954,9.6954,0,0,0-.98145,4.81934v4.33593a10.08918,10.08918,0,0,0,1.00342,5.105,3.32138,3.32138,0,0,0,3.03955,1.648,3.27584,3.27584,0,0,0,2.981-1.55273,9.72423,9.72423,0,0,0,1.01807-4.89258Z" transform="translate(0 -2.50071)"/><path class="cls-3" d="M138.09424,20.53922h5.94726V23.1027h-5.94726V29.841h-2.72461V23.1027h-5.94727V20.53922h5.94727V14.31363h2.72461Z" transform="translate(0 -2.50071)"/><path class="cls-3" d="M75.84277,48.071H70.17432v5.96533H68.39307V40.52848h8.36816V41.985H70.17432v4.62939h5.66845Z" transform="translate(0 -2.50071)"/><path class="cls-3" d="M78.63525,41.33561a1.02339,1.02339,0,0,1,.25538-.70508.9582.9582,0,0,1,.75585-.2876.97414.97414,0,0,1,.76075.2876,1.01546,1.01546,0,0,1,.25976.70508,1.01611,1.01611,0,1,1-2.03174,0Zm1.85547,12.70068H78.77441V43.9982h1.71631Z" transform="translate(0 -2.50071)"/><path class="cls-3" d="M88.08887,45.53824a5.1821,5.1821,0,0,0-.84424-.06494,2.2615,2.2615,0,0,0-2.2915,1.438v7.125H83.23682V43.9982h1.66992l.02783,1.15967a2.67243,2.67243,0,0,1,2.39356-1.34521,1.75626,1.75626,0,0,1,.76074.12988Z" transform="translate(0 -2.50071)"/><path class="cls-3" d="M95.51074,51.37369a1.26243,1.26243,0,0,0-.52441-1.08056,5.03843,5.03843,0,0,0-1.82715-.66358,8.65075,8.65075,0,0,1-2.06934-.668,2.948,2.948,0,0,1-1.13183-.92773,2.21882,2.21882,0,0,1-.36621-1.28028,2.60368,2.60368,0,0,1,1.04394-2.0874,4.075,4.075,0,0,1,2.667-.85351,4.19713,4.19713,0,0,1,2.76954.88134,2.80046,2.80046,0,0,1,1.062,2.2544H95.40869a1.55137,1.55137,0,0,0-.59814-1.21533,2.24556,2.24556,0,0,0-1.50782-.51026,2.34684,2.34684,0,0,0-1.46582.40821,1.28555,1.28555,0,0,0-.5288,1.06689,1.0399,1.0399,0,0,0,.49169.937,6.03323,6.03323,0,0,0,1.77637.603,9.28425,9.28425,0,0,1,2.083.68652,3.03512,3.03512,0,0,1,1.18262.96045,2.3587,2.3587,0,0,1,.38525,1.36817,2.57006,2.57006,0,0,1-1.07617,2.15722,4.51605,4.51605,0,0,1-2.79248.81153,5.0582,5.0582,0,0,1-2.13379-.42676,3.46566,3.46566,0,0,1-1.45215-1.19238,2.87361,2.87361,0,0,1-.52392-1.65577h1.7163a1.77672,1.77672,0,0,0,.69141,1.36866,2.68117,2.68117,0,0,0,1.70215.50537,2.7707,2.7707,0,0,0,1.56348-.394A1.212,1.212,0,0,0,95.51074,51.37369Z" transform="translate(0 -2.50071)"/><path class="cls-3" d="M101.7915,41.56754V43.9982h1.874v1.32666h-1.874v6.23291a1.39385,1.39385,0,0,0,.25049.90577,1.054,1.054,0,0,0,.85352.30175,4.1598,4.1598,0,0,0,.8164-.11133v1.38331a5.00153,5.00153,0,0,1-1.31738.18457,2.13728,2.13728,0,0,1-1.73486-.6958A2.98919,2.98919,0,0,1,100.0752,51.55v-6.2251H98.24756V43.9982h1.82764V41.56754Z" transform="translate(0 -2.50071)"/><path class="cls-3" d="M119.604,41.985h-4.34179V54.03629h-1.772V41.985h-4.33252V40.52848H119.604Z" transform="translate(0 -2.50071)"/><path class="cls-3" d="M124.58594,54.22184a4.38468,4.38468,0,0,1-3.32129-1.34082,4.97421,4.97421,0,0,1-1.28027-3.58545v-.31543a6.01952,6.01952,0,0,1,.5708-2.66748,4.44821,4.44821,0,0,1,1.5957-1.83692,4.01277,4.01277,0,0,1,2.22168-.66308,3.76083,3.76083,0,0,1,3.043,1.28955,5.58418,5.58418,0,0,1,1.08545,3.69238V49.509h-6.8003a3.5687,3.5687,0,0,0,.86719,2.39843,2.72821,2.72821,0,0,0,2.11084.91358,2.98889,2.98889,0,0,0,1.54-.3711,3.86667,3.86667,0,0,0,1.104-.9834l1.04834.81641A4.21491,4.21491,0,0,1,124.58594,54.22184Zm-.21338-8.999a2.28893,2.28893,0,0,0-1.74414.75586,3.67572,3.67572,0,0,0-.87207,2.12012h5.02832v-.12988a3.2731,3.2731,0,0,0-.70508-2.02735A2.157,2.157,0,0,0,124.37256,45.22281Z" transform="translate(0 -2.50071)"/><path class="cls-3" d="M136.68359,54.03629a3.58683,3.58683,0,0,1-.24121-1.05762,3.82853,3.82853,0,0,1-2.85742,1.24317,3.54289,3.54289,0,0,1-2.43555-.83985,2.71576,2.71576,0,0,1-.95068-2.1289,2.83952,2.83952,0,0,1,1.1919-2.43555,5.62222,5.62222,0,0,1,3.354-.86719h1.66992v-.78857a1.92856,1.92856,0,0,0-.53809-1.43311A2.16173,2.16173,0,0,0,134.29,45.195a2.503,2.503,0,0,0-1.54.46387,1.36708,1.36708,0,0,0-.62158,1.12256h-1.72559a2.36833,2.36833,0,0,1,.53369-1.45215,3.64241,3.64241,0,0,1,1.44727-1.1084,4.86872,4.86872,0,0,1,2.0083-.4082,3.96994,3.96994,0,0,1,2.71826.86718,3.13208,3.13208,0,0,1,1.02051,2.38916v4.62012a5.64023,5.64023,0,0,0,.35254,2.19873v.14844Zm-2.84814-1.30811a3.01644,3.01644,0,0,0,1.53076-.41748,2.52711,2.52711,0,0,0,1.04834-1.08545V49.16568h-1.34521q-3.15455,0-3.1543,1.8462a1.56149,1.56149,0,0,0,.53809,1.26171A2.06638,2.06638,0,0,0,133.83545,52.72818Z" transform="translate(0 -2.50071)"/><path class="cls-3" d="M142.43555,43.9982l.04638,1.11328a3.70713,3.70713,0,0,1,2.978-1.29882,2.87015,2.87015,0,0,1,2.8667,1.61425,3.80468,3.80468,0,0,1,1.30322-1.16894,3.85077,3.85077,0,0,1,1.89746-.44531q3.30249,0,3.3584,3.49755v6.72608h-1.71631v-6.624a2.305,2.305,0,0,0-.4917-1.60938,2.16484,2.16484,0,0,0-1.65136-.53369,2.27321,2.27321,0,0,0-1.58643.5708,2.3111,2.3111,0,0,0-.73291,1.53516v6.66113h-1.72558V47.45865a1.91506,1.91506,0,0,0-2.14307-2.18945,2.296,2.296,0,0,0-2.31006,1.438v7.3291H140.812V43.9982Z" transform="translate(0 -2.50071)"/><path class="cls-3" d="M66.979,68.8732H61.91553l-1.13721,3.16309H59.13477L63.75,59.94986h1.39453l4.62354,12.08643H68.13281Zm-4.582-1.30273h4.10889l-2.05859-5.65332Z" transform="translate(0 -2.50071)"/><path class="cls-3" d="M72.82275,72.03629H71.28711V59.2858h1.53564Z" transform="translate(0 -2.50071)"/><path class="cls-3" d="M76.94824,72.03629H75.4126V59.2858h1.53564Z" transform="translate(0 -2.50071)"/><path class="cls-3" d="M82.60107,67.52848H78.55029V66.27555h4.05078Z" transform="translate(0 -2.50071)"/><path class="cls-3" d="M91.00977,68.8732H85.94629l-1.13721,3.16309H83.16553l4.61523-12.08643h1.39453l4.62354,12.08643H92.16357Zm-4.582-1.30273h4.10889L88.478,61.91715Z" transform="translate(0 -2.50071)"/><path class="cls-3" d="M96.62939,63.05484l.04151.9961a3.31532,3.31532,0,0,1,2.66455-1.16211,2.56748,2.56748,0,0,1,2.56494,1.44433,3.40018,3.40018,0,0,1,1.1665-1.04589,3.44363,3.44363,0,0,1,1.69727-.39844q2.95533,0,3.00488,3.1289v6.01856H106.2334V66.10953a2.06138,2.06138,0,0,0-.43994-1.44043,1.93685,1.93685,0,0,0-1.47754-.47754,2.03928,2.03928,0,0,0-1.41944.51074,2.0713,2.0713,0,0,0-.65576,1.374v5.96h-1.54394V66.15055a1.71354,1.71354,0,0,0-1.91748-1.959,2.05387,2.05387,0,0,0-2.0669,1.28711v6.55762H95.17676V63.05484Z" transform="translate(0 -2.50071)"/><path class="cls-3" d="M113.812,72.2023a3.92373,3.92373,0,0,1-2.97168-1.19921,4.45292,4.45292,0,0,1-1.14551-3.209v-.28222a5.39144,5.39144,0,0,1,.51026-2.38575,3.98488,3.98488,0,0,1,1.42773-1.64355,3.58487,3.58487,0,0,1,1.98828-.59375,3.36554,3.36554,0,0,1,2.72266,1.15332,4.99734,4.99734,0,0,1,.97119,3.30371v.63965h-6.08447a3.19057,3.19057,0,0,0,.77637,2.14551,2.43915,2.43915,0,0,0,1.88818.81738,2.67143,2.67143,0,0,0,1.37793-.332,3.44669,3.44669,0,0,0,.98779-.87891l.938.73047A3.77148,3.77148,0,0,1,113.812,72.2023Zm-.19092-8.05175a2.048,2.048,0,0,0-1.56054.67675,3.28619,3.28619,0,0,0-.78028,1.89649h4.499v-.11621a2.92383,2.92383,0,0,0-.63086-1.81348A1.92608,1.92608,0,0,0,113.62109,64.15055Z" transform="translate(0 -2.50071)"/><path class="cls-3" d="M123.43262,64.43277a4.566,4.566,0,0,0-.75537-.05859,2.02319,2.02319,0,0,0-2.0503,1.28711v6.375h-1.53564V63.05484h1.49414l.0249,1.03711a2.39169,2.39169,0,0,1,2.1416-1.20312,1.55866,1.55866,0,0,1,.68067.11621Z" transform="translate(0 -2.50071)"/><path class="cls-3" d="M124.85205,60.672a.91771.91771,0,0,1,.228-.63086.85842.85842,0,0,1,.67676-.25732.87074.87074,0,0,1,.68066.25732.90744.90744,0,0,1,.23242.63086.95085.95085,0,0,1-1.58984.623A.8888.8888,0,0,1,124.85205,60.672Zm1.66016,11.36426h-1.53565V63.05484h1.53565Z" transform="translate(0 -2.50071)"/><path class="cls-3" d="M132.57178,70.9484a2.21228,2.21228,0,0,0,1.436-.49805,1.75024,1.75024,0,0,0,.68067-1.24414h1.45263a2.78609,2.78609,0,0,1-.53125,1.46875,3.49557,3.49557,0,0,1-1.30761,1.11231,3.7746,3.7746,0,0,1-1.73047.415,3.7005,3.7005,0,0,1-2.918-1.2246,4.87921,4.87921,0,0,1-1.083-3.34961v-.25684a5.4098,5.4098,0,0,1,.48145-2.333,3.66432,3.66432,0,0,1,1.38183-1.585,3.92209,3.92209,0,0,1,2.1294-.56445,3.60536,3.60536,0,0,1,2.51123.9043,3.23683,3.23683,0,0,1,1.0664,2.3496h-1.45263a2.11591,2.11591,0,0,0-.65967-1.43164,2.05215,2.05215,0,0,0-1.46533-.56054,2.14826,2.14826,0,0,0-1.814.84277,3.95523,3.95523,0,0,0-.64306,2.43555v.291a3.87756,3.87756,0,0,0,.63916,2.39063A2.16011,2.16011,0,0,0,132.57178,70.9484Z" transform="translate(0 -2.50071)"/><path class="cls-3" d="M143.4126,72.03629a3.22011,3.22011,0,0,1-.21582-.94629,3.42728,3.42728,0,0,1-2.55664,1.1123,3.16856,3.16856,0,0,1-2.17871-.751,2.43041,2.43041,0,0,1-.85108-1.90528,2.53661,2.53661,0,0,1,1.0669-2.17871,5.0263,5.0263,0,0,1,3.00048-.77636h1.49415v-.70606a1.726,1.726,0,0,0-.48145-1.28222,1.93379,1.93379,0,0,0-1.41943-.47754,2.24092,2.24092,0,0,0-1.37793.415,1.22418,1.22418,0,0,0-.55616,1.00488H137.793a2.11855,2.11855,0,0,1,.477-1.29883,3.256,3.256,0,0,1,1.29492-.99219,4.34869,4.34869,0,0,1,1.79736-.36523,3.54987,3.54987,0,0,1,2.43213.77637,2.79733,2.79733,0,0,1,.91309,2.13671v4.13477a5.05049,5.05049,0,0,0,.31543,1.9668v.13281Zm-2.54834-1.16992a2.69943,2.69943,0,0,0,1.36963-.374,2.2614,2.2614,0,0,0,.938-.97168V67.67789h-1.20362q-2.822,0-2.82226,1.65234a1.39891,1.39891,0,0,0,.48144,1.12891A1.849,1.849,0,0,0,140.86426,70.86637Z" transform="translate(0 -2.50071)"/><path class="cls-3" d="M148.56738,63.05484l.04981,1.12891a3.27249,3.27249,0,0,1,2.68945-1.29492q2.84693,0,2.87207,3.21191v5.93555h-1.53564V66.09293a2.06691,2.06691,0,0,0-.44434-1.43652,1.77958,1.77958,0,0,0-1.35693-.46485,2.21675,2.21675,0,0,0-1.31153.39844,2.70572,2.70572,0,0,0-.87988,1.0459v6.40039h-1.53564V63.05484Z" transform="translate(0 -2.50071)"/><path class="cls-3" d="M161.72412,69.65348a1.13246,1.13246,0,0,0-.46875-.9668,4.52007,4.52007,0,0,0-1.63574-.59375,7.72166,7.72166,0,0,1-1.85059-.59766,2.62447,2.62447,0,0,1-1.01269-.83007,1.98163,1.98163,0,0,1-.32813-1.14551,2.33052,2.33052,0,0,1,.9336-1.86719,3.64522,3.64522,0,0,1,2.38672-.76367,3.75336,3.75336,0,0,1,2.47753.78808,2.50578,2.50578,0,0,1,.95069,2.01758h-1.54395a1.386,1.386,0,0,0-.53564-1.08789,2.00726,2.00726,0,0,0-1.34863-.45605,2.09508,2.09508,0,0,0-1.31153.36523,1.14876,1.14876,0,0,0-.47314.9541.932.932,0,0,0,.43994.83887,5.418,5.418,0,0,0,1.58984.53906,8.33854,8.33854,0,0,1,1.86328.61426,2.72218,2.72218,0,0,1,1.0586.85938,2.11462,2.11462,0,0,1,.34424,1.2246,2.29754,2.29754,0,0,1-.96289,1.92969,4.038,4.038,0,0,1-2.49854.72656,4.51776,4.51776,0,0,1-1.90918-.38183,3.10992,3.10992,0,0,1-1.29883-1.06641,2.5691,2.5691,0,0,1-.46924-1.48144h1.53565a1.59153,1.59153,0,0,0,.61816,1.22363,2.399,2.399,0,0,0,1.52344.45215,2.47363,2.47363,0,0,0,1.39844-.35254A1.08371,1.08371,0,0,0,161.72412,69.65348Z" transform="translate(0 -2.50071)"/><path class="cls-3" d="M261.84424,31.97965h-2.72461V13.91813L253.65576,15.925V13.464l7.76367-2.915h.42481Z" transform="translate(0 -2.50071)"/><path class="cls-3" d="M281.22412,24.81656h2.959v2.21192h-2.959v4.95117h-2.72461V27.02848H268.7876V25.4318l9.55078-14.78028h2.88574Zm-9.36035,0h6.63574v-10.459l-.32226.58594Z" transform="translate(0 -2.50071)"/><path class="cls-3" d="M292.2251,21.91617,295.74072,16.13h3.16407L293.71924,23.967l5.34668,8.0127h-3.13477L292.269,26.047l-3.66211,5.93262h-3.14941l5.34668-8.0127L285.61865,16.13h3.13477Z" transform="translate(0 -2.50071)"/><path class="cls-3" d="M580.1543,31.92008h-2.72461V13.85855l-5.46387,2.00684V13.40445l7.76367-2.915h.42481Z" transform="translate(0 -2.50071)"/><path class="cls-3" d="M601.46777,22.8234q0,4.76075-1.626,7.07519a6.75633,6.75633,0,0,1-10.13672.05127q-1.64062-2.26318-1.69922-6.76025V19.57145q0-4.70215,1.626-6.98731a6.87768,6.87768,0,0,1,10.166-.08057q1.626,2.2046,1.66992,6.8042Zm-2.71-3.70606a9.92959,9.92959,0,0,0-.96679-5.01709,3.32776,3.32776,0,0,0-3.06153-1.5747,3.28386,3.28386,0,0,0-3.03222,1.56738,9.6954,9.6954,0,0,0-.98145,4.81934V23.2482a10.08841,10.08841,0,0,0,1.00391,5.105,3.32059,3.32059,0,0,0,3.03906,1.648,3.27665,3.27665,0,0,0,2.98144-1.55273,9.72469,9.72469,0,0,0,1.01758-4.89258Z" transform="translate(0 -2.50071)"/><path class="cls-3" d="M618.31348,22.8234q0,4.76075-1.626,7.07519a6.75633,6.75633,0,0,1-10.13672.05127q-1.64062-2.26318-1.69922-6.76025V19.57145q0-4.70215,1.626-6.98731a6.87768,6.87768,0,0,1,10.166-.08057q1.626,2.2046,1.66993,6.8042Zm-2.71-3.70606a9.92957,9.92957,0,0,0-.9668-5.01709,3.32775,3.32775,0,0,0-3.06152-1.5747,3.28388,3.28388,0,0,0-3.03223,1.56738,9.6954,9.6954,0,0,0-.98145,4.81934V23.2482a10.08841,10.08841,0,0,0,1.00391,5.105,3.3206,3.3206,0,0,0,3.03906,1.648,3.27668,3.27668,0,0,0,2.98145-1.55273,9.7249,9.7249,0,0,0,1.01758-4.89258Z" transform="translate(0 -2.50071)"/><path class="cls-3" d="M629.82715,20.47965h5.94726v2.56348h-5.94726v6.73828h-2.72461V23.04313h-5.94727V20.47965h5.94727V14.25406h2.72461Z" transform="translate(0 -2.50071)"/><path class="cls-3" d="M429.57324,19.93814h2.03614A4.47522,4.47522,0,0,0,434.627,18.9274a3.37691,3.37691,0,0,0,1.09864-2.65136q0-3.75-3.73536-3.75a3.88414,3.88414,0,0,0-2.80468,1.00341,3.5121,3.5121,0,0,0-1.04785,2.65869h-2.71a5.44107,5.44107,0,0,1,1.85352-4.21142,6.74913,6.74913,0,0,1,4.709-1.67725,6.67073,6.67073,0,0,1,4.73145,1.59668,5.768,5.768,0,0,1,1.71387,4.43848,4.68111,4.68111,0,0,1-.90039,2.69531,5.44076,5.44076,0,0,1-2.45411,1.94824,5.24276,5.24276,0,0,1,2.71778,1.84571,5.12574,5.12574,0,0,1,.959,3.14941,5.818,5.818,0,0,1-1.875,4.55566,7.02144,7.02144,0,0,1-4.87793,1.68458,7.20565,7.20565,0,0,1-4.88476-1.626,5.39419,5.39419,0,0,1-1.88282-4.292h2.72461a3.48591,3.48591,0,0,0,1.09864,2.69531,4.17862,4.17862,0,0,0,2.94433,1.01074,4.10045,4.10045,0,0,0,3.00293-1.02539,3.95172,3.95172,0,0,0,1.04-2.94434,3.58574,3.58574,0,0,0-1.14258-2.85644,4.97818,4.97818,0,0,0-3.29589-1.02539h-2.03614Z" transform="translate(0 -2.50071)"/><path class="cls-3" d="M448.07422,21.85709l3.51562-5.78613h3.16407l-5.18555,7.83691,5.34668,8.0127h-3.13477L448.11816,25.988l-3.66211,5.93262h-3.14941l5.34668-8.0127L441.46777,16.071h3.13477Z" transform="translate(0 -2.50071)"/><path class="cls-3" d="M244.30908,54.13639V39.91764h4.64844a5.39469,5.39469,0,0,1,3.48144.957,3.44992,3.44992,0,0,1,1.167,2.832,2.88943,2.88943,0,0,1-.56641,1.76269,3.66924,3.66924,0,0,1-1.543,1.18653,3.29833,3.29833,0,0,1,1.82129,1.22558,3.51784,3.51784,0,0,1,.66895,2.15332,3.80345,3.80345,0,0,1-1.24024,3.00782,5.12977,5.12977,0,0,1-3.50586,1.09375Zm1.875-8.1543h2.832a2.97077,2.97077,0,0,0,1.96778-.61621,2.06735,2.06735,0,0,0,.7373-1.67383,2.03432,2.03432,0,0,0-.68359-1.708,3.35716,3.35716,0,0,0-2.08008-.5332h-2.77344Zm0,1.50391v5.11718h3.09571a2.9794,2.9794,0,0,0,2.06542-.67871,2.38423,2.38423,0,0,0,.75684-1.87011q0-2.56862-2.793-2.56836Z" transform="translate(0 -2.50071)"/><path class="cls-3" d="M256.48682,40.76725a1.07736,1.07736,0,0,1,.26855-.74219,1.00912,1.00912,0,0,1,.7959-.30274,1.02431,1.02431,0,0,1,.80078.30274,1.06751,1.06751,0,0,1,.27344.74219,1.06959,1.06959,0,1,1-2.13867,0Zm1.95312,13.36914H256.6333V43.57h1.80664Z" transform="translate(0 -2.50071)"/><path class="cls-3" d="M260.90088,48.76529a6.21,6.21,0,0,1,1.14258-3.93066,3.93908,3.93908,0,0,1,6.04492-.09277l.08789-1.17188h1.65039v10.3125a4.29831,4.29831,0,0,1-1.21582,3.23242,4.48739,4.48739,0,0,1-3.2666,1.18164,5.43125,5.43125,0,0,1-2.23633-.48828,3.85262,3.85262,0,0,1-1.66992-1.33789l.9375-1.084a3.53331,3.53331,0,0,0,2.8418,1.43554,2.769,2.769,0,0,0,2.05566-.74218,2.83584,2.83584,0,0,0,.7373-2.08985v-.9082a3.71265,3.71265,0,0,1-2.959,1.25,3.60972,3.60972,0,0,1-3.00293-1.49414A6.52841,6.52841,0,0,1,260.90088,48.76529Zm1.81641.20508a4.73738,4.73738,0,0,0,.73242,2.80762,2.38021,2.38021,0,0,0,2.05078,1.02051,2.64639,2.64639,0,0,0,2.50976-1.55274V46.42154A2.67675,2.67675,0,0,0,265.52,44.90787a2.40106,2.40106,0,0,0-2.06055,1.02539A5.16107,5.16107,0,0,0,262.71729,48.97037Z" transform="translate(0 -2.50071)"/><path class="cls-3" d="M287.21924,41.45084h-4.57031V54.13639h-1.86524V41.45084h-4.56055v-1.5332h10.9961Z" transform="translate(0 -2.50071)"/><path class="cls-3" d="M292.46338,54.3317a4.61642,4.61642,0,0,1-3.49609-1.41113,5.2375,5.2375,0,0,1-1.34766-3.77442v-.332a6.34069,6.34069,0,0,1,.60058-2.80762,4.68419,4.68419,0,0,1,1.67969-1.93359,4.22405,4.22405,0,0,1,2.33887-.69824,3.958,3.958,0,0,1,3.20312,1.35742,5.87713,5.87713,0,0,1,1.14258,3.88672v.75195h-7.1582a3.756,3.756,0,0,0,.91309,2.52442,2.8704,2.8704,0,0,0,2.22168.96191,3.14814,3.14814,0,0,0,1.62109-.39063,4.06845,4.06845,0,0,0,1.16211-1.03515l1.10351.85937A4.43639,4.43639,0,0,1,292.46338,54.3317Zm-.22461-9.47266a2.40925,2.40925,0,0,0-1.83594.7959,3.87006,3.87006,0,0,0-.918,2.23145h5.293v-.13672a3.44057,3.44057,0,0,0-.74219-2.13379A2.26931,2.26931,0,0,0,292.23877,44.859Z" transform="translate(0 -2.50071)"/><path class="cls-3" d="M300.3833,43.57l.05859,1.32813a3.85007,3.85007,0,0,1,3.16407-1.52344q3.34937,0,3.3789,3.77929v6.98243h-1.80664V47.1442a2.4319,2.4319,0,0,0-.52246-1.68945,2.09309,2.09309,0,0,0-1.59668-.54688,2.6078,2.6078,0,0,0-1.543.46875,3.18312,3.18312,0,0,0-1.03515,1.23047v7.5293h-1.80664V43.57Z" transform="translate(0 -2.50071)"/><path class="cls-3" d="M238.90137,67.84977a4.97012,4.97012,0,0,1-1.582,3.30761,5.1823,5.1823,0,0,1-3.53907,1.16407,4.75837,4.75837,0,0,1-3.83593-1.7168,6.90228,6.90228,0,0,1-1.44288-4.5918V64.714a7.702,7.702,0,0,1,.67237-3.3125,5.02273,5.02273,0,0,1,1.90674-2.19336,5.303,5.303,0,0,1,2.85742-.76562,4.88268,4.88268,0,0,1,3.45117,1.20117,5.03266,5.03266,0,0,1,1.51221,3.32617h-1.79053a3.88563,3.88563,0,0,0-1.00635-2.3457,3.04832,3.04832,0,0,0-2.1665-.7251,3.18554,3.18554,0,0,0-2.67627,1.26221A5.799,5.799,0,0,0,230.292,64.755v1.30957a5.957,5.957,0,0,0,.91846,3.5,2.96607,2.96607,0,0,0,2.56982,1.2998,3.42754,3.42754,0,0,0,2.27735-.67187,3.7312,3.7312,0,0,0,1.05322-2.34277Z" transform="translate(0 -2.50071)"/><path class="cls-3" d="M242.7793,63.31266a3.64906,3.64906,0,0,1,2.96875-1.40039q3.18163,0,3.21,3.58984V72.1359H247.2417V65.49332a2.316,2.316,0,0,0-.49609-1.60547,1.99287,1.99287,0,0,0-1.51709-.51953,2.47676,2.47676,0,0,0-1.46582.44531,3.0198,3.0198,0,0,0-.9834,1.16895V72.1359H241.063v-14.25h1.71631Z" transform="translate(0 -2.50071)"/><path class="cls-3" d="M257.7251,72.1359a3.59483,3.59483,0,0,1-.24121-1.05762,3.82853,3.82853,0,0,1-2.85743,1.24317,3.54053,3.54053,0,0,1-2.43554-.83985,2.71644,2.71644,0,0,1-.95069-2.1289,2.839,2.839,0,0,1,1.1919-2.43555,5.62224,5.62224,0,0,1,3.354-.86719h1.66992V65.2609a1.9274,1.9274,0,0,0-.53808-1.43262,2.15992,2.15992,0,0,0-1.58643-.53418,2.50621,2.50621,0,0,0-1.54.46387,1.36726,1.36726,0,0,0-.62158,1.12305h-1.72558a2.36722,2.36722,0,0,1,.53369-1.45215,3.64244,3.64244,0,0,1,1.44726-1.1084,4.86087,4.86087,0,0,1,2.0083-.4082,3.97,3.97,0,0,1,2.71827.86718,3.131,3.131,0,0,1,1.0205,2.38868v4.62011a5.6429,5.6429,0,0,0,.35254,2.19922v.14844ZM254.877,70.8273a3.0159,3.0159,0,0,0,1.53076-.417,2.526,2.526,0,0,0,1.04834-1.085V67.2648h-1.34521q-3.15454,0-3.1543,1.84668a1.5615,1.5615,0,0,0,.53809,1.26172A2.06869,2.06869,0,0,0,254.877,70.8273Z" transform="translate(0 -2.50071)"/><path class="cls-3" d="M263.47705,62.09781l.04639,1.11328a3.70563,3.70563,0,0,1,2.978-1.29882,2.87015,2.87015,0,0,1,2.8667,1.61425,3.8048,3.8048,0,0,1,1.30323-1.16894,3.85075,3.85075,0,0,1,1.89746-.44531q3.30249,0,3.3584,3.49707V72.1359h-1.71631v-6.624a2.30418,2.30418,0,0,0-.4917-1.60938,2.163,2.163,0,0,0-1.65137-.53418,2.27352,2.27352,0,0,0-1.58642.57129,2.31,2.31,0,0,0-.73291,1.53516V72.1359H268.023V65.55777a1.91525,1.91525,0,0,0-2.14307-2.18945,2.29575,2.29575,0,0,0-2.31006,1.43848v7.3291h-1.7163V62.09781Z" transform="translate(0 -2.50071)"/><path class="cls-3" d="M286.99512,67.2277a6.01468,6.01468,0,0,1-1.04834,3.69335,3.36118,3.36118,0,0,1-2.83887,1.4004,3.67979,3.67979,0,0,1-2.876-1.16016v4.834h-1.7163V62.09781h1.56787l.08349,1.11328a3.53447,3.53447,0,0,1,2.91309-1.29882,3.42317,3.42317,0,0,1,2.8623,1.36328,6.08037,6.08037,0,0,1,1.05274,3.79492Zm-1.71631-.19434a4.4381,4.4381,0,0,0-.72363-2.68164,2.33231,2.33231,0,0,0-1.98536-.9834,2.52287,2.52287,0,0,0-2.33789,1.38281V69.548a2.5283,2.5283,0,0,0,2.35645,1.373,2.32,2.32,0,0,0,1.9624-.97949A4.84207,4.84207,0,0,0,285.27881,67.03336Z" transform="translate(0 -2.50071)"/><path class="cls-3" d="M289.18457,59.43521a1.0234,1.0234,0,0,1,.25537-.70507.95822.95822,0,0,1,.75586-.2876.97411.97411,0,0,1,.76074.2876,1.01545,1.01545,0,0,1,.25977.70507,1.01611,1.01611,0,1,1-2.03174,0ZM291.04,72.1359h-1.71631V62.09781H291.04Z" transform="translate(0 -2.50071)"/><path class="cls-3" d="M293.33154,67.02359a5.93534,5.93534,0,0,1,.57959-2.65332,4.32969,4.32969,0,0,1,1.61426-1.81836,4.39482,4.39482,0,0,1,2.36133-.63964,4.23188,4.23188,0,0,1,3.31641,1.41894,5.45953,5.45953,0,0,1,1.2666,3.77637v.12012a5.97893,5.97893,0,0,1-.56153,2.63085,4.25942,4.25942,0,0,1-1.60449,1.81348,4.44994,4.44994,0,0,1-2.39844.64942,4.22086,4.22086,0,0,1-3.30761-1.41993,5.43262,5.43262,0,0,1-1.26612-3.75683Zm1.72559.20411a4.29429,4.29429,0,0,0,.7749,2.68164,2.62431,2.62431,0,0,0,4.15137-.01368,4.69848,4.69848,0,0,0,.77-2.87207,4.28466,4.28466,0,0,0-.78369-2.67578,2.49306,2.49306,0,0,0-2.083-1.02539,2.46454,2.46454,0,0,0-2.05029,1.01074A4.66365,4.66365,0,0,0,295.05713,67.2277Z" transform="translate(0 -2.50071)"/><path class="cls-3" d="M306.24561,62.09781l.05566,1.26172a3.65711,3.65711,0,0,1,3.00586-1.44726q3.18164,0,3.21,3.58984V72.1359h-1.71631V65.49332a2.316,2.316,0,0,0-.49609-1.60547,1.99287,1.99287,0,0,0-1.51709-.51953,2.47676,2.47676,0,0,0-1.46582.44531,3.0198,3.0198,0,0,0-.9834,1.16895V72.1359h-1.71631V62.09781Z" transform="translate(0 -2.50071)"/><path class="cls-3" d="M320.9502,69.47379a1.26157,1.26157,0,0,0-.52442-1.08106,5.03728,5.03728,0,0,0-1.82715-.66406,8.65005,8.65005,0,0,1-2.06933-.668,2.94359,2.94359,0,0,1-1.13184-.92773,2.21881,2.21881,0,0,1-.36621-1.28027,2.60279,2.60279,0,0,1,1.04395-2.08692,4.07233,4.07233,0,0,1,2.667-.85351,4.1995,4.1995,0,0,1,2.76953.88086,2.80136,2.80136,0,0,1,1.062,2.25488h-1.72559a1.553,1.553,0,0,0-.59814-1.21582,2.24524,2.24524,0,0,0-1.50781-.50977,2.34375,2.34375,0,0,0-1.46582.40821,1.28526,1.28526,0,0,0-.52881,1.0664,1.04015,1.04015,0,0,0,.4917.9375,6.0504,6.0504,0,0,0,1.77637.60254,9.30911,9.30911,0,0,1,2.083.68652,3.03593,3.03593,0,0,1,1.18262.96094,2.35861,2.35861,0,0,1,.38525,1.36817,2.57,2.57,0,0,1-1.07617,2.15722,4.51605,4.51605,0,0,1-2.79248.81153,5.05824,5.05824,0,0,1-2.13379-.42676,3.4656,3.4656,0,0,1-1.45215-1.19239A2.87505,2.87505,0,0,1,314.688,69.046h1.71631a1.77537,1.77537,0,0,0,.6914,1.36915,2.68131,2.68131,0,0,0,1.70215.50585,2.77065,2.77065,0,0,0,1.56348-.39453A1.2118,1.2118,0,0,0,320.9502,69.47379Z" transform="translate(0 -2.50071)"/><path class="cls-3" d="M414.72949,54.13639h-1.88476l-7.15821-10.957v10.957h-1.88476V39.91764h1.88476l7.17774,11.00586V39.91764h1.86523Z" transform="translate(0 -2.50071)"/><path class="cls-3" d="M424.2998,54.13639a3.83062,3.83062,0,0,1-.2539-1.11328,4.02943,4.02943,0,0,1-3.00781,1.30859,3.73136,3.73136,0,0,1-2.56348-.88379,2.8609,2.8609,0,0,1-1.001-2.24121,2.98905,2.98905,0,0,1,1.25489-2.56348,5.91667,5.91667,0,0,1,3.53027-.91308h1.75781v-.83008a2.02829,2.02829,0,0,0-.5664-1.50879,2.27366,2.27366,0,0,0-1.66993-.56152,2.63394,2.63394,0,0,0-1.62109.48828,1.44043,1.44043,0,0,0-.6543,1.18164h-1.8164a2.49561,2.49561,0,0,1,.56152-1.52832,3.84156,3.84156,0,0,1,1.52344-1.167,5.1256,5.1256,0,0,1,2.11426-.42969,4.1747,4.1747,0,0,1,2.86132.91308,3.29044,3.29044,0,0,1,1.07422,2.51465v4.86328a5.95082,5.95082,0,0,0,.3711,2.31446v.15625Zm-2.998-1.377a3.17524,3.17524,0,0,0,1.61133-.43945,2.65634,2.65634,0,0,0,1.10351-1.14258v-2.168h-1.416q-3.31934,0-3.32032,1.94336a1.64646,1.64646,0,0,0,.56641,1.32813A2.17964,2.17964,0,0,0,421.30176,52.75943Z" transform="translate(0 -2.50071)"/><path class="cls-3" d="M431.10645,41.01139V43.57h1.97265v1.39648h-1.97265v6.561a1.46506,1.46506,0,0,0,.26367.95313,1.10993,1.10993,0,0,0,.89843.31787,4.36531,4.36531,0,0,0,.85938-.11719v1.456a5.24482,5.24482,0,0,1-1.38672.19434,2.25087,2.25087,0,0,1-1.82617-.73242,3.14649,3.14649,0,0,1-.61524-2.08008V44.96646H427.376V43.57h1.92382V41.01139Z" transform="translate(0 -2.50071)"/><path class="cls-3" d="M435.19824,40.76725a1.07968,1.07968,0,0,1,.26856-.74219,1.00978,1.00978,0,0,1,.7959-.30274,1.02361,1.02361,0,0,1,.80078.30274,1.06531,1.06531,0,0,1,.27343.74219,1.03055,1.03055,0,0,1-.27343.73242,1.04159,1.04159,0,0,1-.80078.293,1.02734,1.02734,0,0,1-.7959-.293A1.04418,1.04418,0,0,1,435.19824,40.76725Zm1.95313,13.36914h-1.80664V43.57h1.80664Z" transform="translate(0 -2.50071)"/><path class="cls-3" d="M439.56348,48.75553a6.24933,6.24933,0,0,1,.61035-2.793,4.55833,4.55833,0,0,1,1.69922-1.91406,4.62786,4.62786,0,0,1,2.48535-.67383,4.4551,4.4551,0,0,1,3.49121,1.49414,5.74813,5.74813,0,0,1,1.333,3.97461v.127a6.28542,6.28542,0,0,1-.59082,2.76856,4.48408,4.48408,0,0,1-1.68946,1.90918,4.67851,4.67851,0,0,1-2.52441.68359,4.44592,4.44592,0,0,1-3.48145-1.49414,5.71937,5.71937,0,0,1-1.333-3.95508Zm1.8164.21484a4.52418,4.52418,0,0,0,.81543,2.82227,2.7633,2.7633,0,0,0,4.37012-.01465,4.93878,4.93878,0,0,0,.81055-3.02246,4.5085,4.5085,0,0,0-.8252-2.81739,2.62253,2.62253,0,0,0-2.19238-1.0791,2.59508,2.59508,0,0,0-2.1582,1.06446A4.90572,4.90572,0,0,0,441.37988,48.97037Z" transform="translate(0 -2.50071)"/><path class="cls-3" d="M453.15723,43.57l.05859,1.32813a3.85135,3.85135,0,0,1,3.16406-1.52344q3.3501,0,3.37891,3.77929v6.98243h-1.80664V47.1442a2.42961,2.42961,0,0,0-.52246-1.68945,2.0931,2.0931,0,0,0-1.59668-.54688,2.60886,2.60886,0,0,0-1.543.46875,3.19154,3.19154,0,0,0-1.03516,1.23047v7.5293h-1.80664V43.57Z" transform="translate(0 -2.50071)"/><path class="cls-3" d="M469.00684,54.13639a3.83021,3.83021,0,0,1-.25391-1.11328,4.02941,4.02941,0,0,1-3.00781,1.30859,3.73136,3.73136,0,0,1-2.56348-.88379,2.8609,2.8609,0,0,1-1.001-2.24121,2.98905,2.98905,0,0,1,1.25489-2.56348,5.91667,5.91667,0,0,1,3.53027-.91308h1.75781v-.83008a2.02829,2.02829,0,0,0-.5664-1.50879,2.27366,2.27366,0,0,0-1.66993-.56152,2.63394,2.63394,0,0,0-1.62109.48828,1.44043,1.44043,0,0,0-.6543,1.18164h-1.8164a2.49561,2.49561,0,0,1,.56152-1.52832,3.84156,3.84156,0,0,1,1.52344-1.167,5.1256,5.1256,0,0,1,2.11426-.42969,4.1747,4.1747,0,0,1,2.86132.91308,3.29044,3.29044,0,0,1,1.07422,2.51465v4.86328a5.95082,5.95082,0,0,0,.3711,2.31446v.15625Zm-2.99805-1.377a3.17522,3.17522,0,0,0,1.61133-.43945,2.65634,2.65634,0,0,0,1.10351-1.14258v-2.168h-1.416q-3.31933,0-3.32032,1.94336a1.64646,1.64646,0,0,0,.56641,1.32813A2.17964,2.17964,0,0,0,466.00879,52.75943Z" transform="translate(0 -2.50071)"/><path class="cls-3" d="M475.3252,54.13639h-1.80665v-15h1.80665Z" transform="translate(0 -2.50071)"/><path class="cls-3" d="M402.90137,67.84977a4.97012,4.97012,0,0,1-1.582,3.30761,5.18316,5.18316,0,0,1-3.53907,1.16407,4.7577,4.7577,0,0,1-3.83593-1.7168,6.90067,6.90067,0,0,1-1.44336-4.5918V64.714a7.69747,7.69747,0,0,1,.67285-3.31152,5.02434,5.02434,0,0,1,1.90625-2.19434,5.30423,5.30423,0,0,1,2.85742-.76562,4.88268,4.88268,0,0,1,3.45117,1.20117,5.03295,5.03295,0,0,1,1.5127,3.32617h-1.791a3.88241,3.88241,0,0,0-1.00586-2.34472,3.04556,3.04556,0,0,0-2.167-.72608,3.18542,3.18542,0,0,0-2.67578,1.26319A5.794,5.794,0,0,0,394.292,64.755v1.30957a5.957,5.957,0,0,0,.918,3.5,2.96635,2.96635,0,0,0,2.57031,1.2998,3.42754,3.42754,0,0,0,2.27735-.67187,3.7285,3.7285,0,0,0,1.05273-2.34277Z" transform="translate(0 -2.50071)"/><path class="cls-3" d="M406.7793,63.31363a3.65,3.65,0,0,1,2.96875-1.40136q3.18164,0,3.21,3.59082V72.1359h-1.7168V65.49332a2.31083,2.31083,0,0,0-.49609-1.60449,1.98793,1.98793,0,0,0-1.5166-.51953,2.47563,2.47563,0,0,0-1.46582.44531,3.01553,3.01553,0,0,0-.9834,1.16894V72.1359h-1.7168v-14.25h1.7168Z" transform="translate(0 -2.50071)"/><path class="cls-3" d="M421.72461,72.1359a3.61091,3.61091,0,0,1-.24121-1.05762,3.82776,3.82776,0,0,1-2.85742,1.24317,3.54225,3.54225,0,0,1-2.43555-.83985,2.716,2.716,0,0,1-.9502-2.1289,2.84093,2.84093,0,0,1,1.19141-2.43555,5.62388,5.62388,0,0,1,3.35449-.86719h1.66992v-.78808a1.92971,1.92971,0,0,0-.53808-1.4336,2.16492,2.16492,0,0,0-1.58692-.5332,2.49989,2.49989,0,0,0-1.54.46387,1.36758,1.36758,0,0,0-.6211,1.12207h-1.72558a2.37165,2.37165,0,0,1,.5332-1.45215,3.64244,3.64244,0,0,1,1.44726-1.1084,4.87877,4.87877,0,0,1,2.00879-.4082,3.96779,3.96779,0,0,1,2.71778.86718,3.13151,3.13151,0,0,1,1.02051,2.38965v4.61914a5.64292,5.64292,0,0,0,.35253,2.19922v.14844ZM418.877,70.8273a3.01421,3.01421,0,0,0,1.53028-.417,2.52726,2.52726,0,0,0,1.04882-1.085V67.26578h-1.3457q-3.15381,0-3.1543,1.8457a1.563,1.563,0,0,0,.53809,1.26172A2.06916,2.06916,0,0,0,418.877,70.8273Z" transform="translate(0 -2.50071)"/><path class="cls-3" d="M427.47656,62.09781l.04688,1.11328a3.70761,3.70761,0,0,1,2.97754-1.29882,2.87085,2.87085,0,0,1,2.86718,1.61425,3.80764,3.80764,0,0,1,1.30274-1.16894,3.85206,3.85206,0,0,1,1.89746-.44531q3.30322,0,3.3584,3.498V72.1359h-1.71582v-6.624a2.30352,2.30352,0,0,0-.49219-1.60938,2.166,2.166,0,0,0-1.65137-.5332,2.27161,2.27161,0,0,0-1.58593.57031,2.31482,2.31482,0,0,0-.7334,1.53516V72.1359h-1.72559V65.55875a1.91452,1.91452,0,0,0-2.14258-2.18945,2.2969,2.2969,0,0,0-2.31054,1.4375v7.3291h-1.71582V62.09781Z" transform="translate(0 -2.50071)"/><path class="cls-3" d="M450.99512,67.22867a6.01052,6.01052,0,0,1-1.04883,3.69238,3.36118,3.36118,0,0,1-2.83887,1.4004,3.68046,3.68046,0,0,1-2.876-1.16016v4.834h-1.71582V62.09781H444.083l.084,1.11328a3.5366,3.5366,0,0,1,2.91309-1.29882,3.424,3.424,0,0,1,2.8623,1.36425,6.08044,6.08044,0,0,1,1.05274,3.794Zm-1.7168-.19531a4.43291,4.43291,0,0,0-.72363-2.68066,2.33226,2.33226,0,0,0-1.98535-.9834,2.52368,2.52368,0,0,0-2.33789,1.38183V69.548a2.52877,2.52877,0,0,0,2.35644,1.373,2.32144,2.32144,0,0,0,1.96289-.97949A4.84022,4.84022,0,0,0,449.27832,67.03336Z" transform="translate(0 -2.50071)"/><path class="cls-3" d="M453.18457,59.43521a1.02534,1.02534,0,0,1,.25488-.70507.95824.95824,0,0,1,.75586-.2876.97341.97341,0,0,1,.76074.2876,1.0154,1.0154,0,0,1,.25977.70507,1.01588,1.01588,0,1,1-2.03125,0ZM455.04,72.1359h-1.7168V62.09781H455.04Z" transform="translate(0 -2.50071)"/><path class="cls-3" d="M457.33105,67.02457a5.926,5.926,0,0,1,.58008-2.65332,4.32963,4.32963,0,0,1,1.61426-1.81836,4.39418,4.39418,0,0,1,2.36133-.64062,4.23336,4.23336,0,0,1,3.31641,1.41992,5.45863,5.45863,0,0,1,1.2666,3.77539v.12109a5.9813,5.9813,0,0,1-.56153,2.62988,4.25942,4.25942,0,0,1-1.60449,1.81348,4.45113,4.45113,0,0,1-2.39844.64942,4.22017,4.22017,0,0,1-3.30761-1.41993,5.43286,5.43286,0,0,1-1.26661-3.75683Zm1.72559.2041a4.29144,4.29144,0,0,0,.77539,2.68067,2.62431,2.62431,0,0,0,4.15137-.01368,4.7006,4.7006,0,0,0,.76953-2.87109,4.28941,4.28941,0,0,0-.7832-2.67676,2.49431,2.49431,0,0,0-2.083-1.02539,2.4663,2.4663,0,0,0-2.05078,1.01172A4.65982,4.65982,0,0,0,459.05664,67.22867Z" transform="translate(0 -2.50071)"/><path class="cls-3" d="M470.24512,62.09781l.05566,1.26172a3.65713,3.65713,0,0,1,3.00586-1.44726q3.18163,0,3.21,3.59082V72.1359h-1.71582V65.49332a2.31558,2.31558,0,0,0-.49609-1.60449,1.99033,1.99033,0,0,0-1.51758-.51953,2.47775,2.47775,0,0,0-1.46582.44531,3.02388,3.02388,0,0,0-.9834,1.16894V72.1359h-1.71582V62.09781Z" transform="translate(0 -2.50071)"/><path class="cls-3" d="M484.9502,69.47379a1.26277,1.26277,0,0,0-.52442-1.08106,5.04729,5.04729,0,0,0-1.82715-.66308,8.6505,8.6505,0,0,1-2.06933-.668,2.94868,2.94868,0,0,1-1.13184-.92773,2.21882,2.21882,0,0,1-.36621-1.28028,2.60459,2.60459,0,0,1,1.04395-2.08789,4.07674,4.07674,0,0,1,2.667-.85351,4.19559,4.19559,0,0,1,2.76953.88183,2.799,2.799,0,0,1,1.06152,2.25391h-1.72558a1.54922,1.54922,0,0,0-.59766-1.21485,2.24675,2.24675,0,0,0-1.50781-.51074,2.35,2.35,0,0,0-1.46582.40821,1.28623,1.28623,0,0,0-.5293,1.06738,1.04,1.04,0,0,0,.49219.93652,6.01044,6.01044,0,0,0,1.77637.60352,9.26781,9.26781,0,0,1,2.083.68652,3.04151,3.04151,0,0,1,1.18262.96,2.35839,2.35839,0,0,1,.38477,1.36817,2.5688,2.5688,0,0,1-1.07618,2.15722,4.51551,4.51551,0,0,1-2.792.81153,5.05666,5.05666,0,0,1-2.13379-.42676,3.46258,3.46258,0,0,1-1.45215-1.19239,2.872,2.872,0,0,1-.52441-1.65625h1.7168a1.77237,1.77237,0,0,0,.6914,1.36915,2.68131,2.68131,0,0,0,1.70215.50585,2.77175,2.77175,0,0,0,1.56348-.39453A1.2118,1.2118,0,0,0,484.9502,69.47379Z" transform="translate(0 -2.50071)"/><path class="cls-3" d="M570.19434,50.80191h-5.65918l-1.27051,3.53467h-1.83692l5.15821-13.50781h1.55859l5.167,13.50781h-1.82714Zm-5.1211-1.45654H569.666l-2.30079-6.31787Z" transform="translate(0 -2.50071)"/><path class="cls-3" d="M578.8877,53.12125a2.47153,2.47153,0,0,0,1.60449-.55664,1.95832,1.95832,0,0,0,.76074-1.3916h1.624a3.12064,3.12064,0,0,1-.59375,1.64209,3.91714,3.91714,0,0,1-1.46093,1.24316,4.2217,4.2217,0,0,1-1.93457.46387A4.13385,4.13385,0,0,1,575.627,53.154a5.44886,5.44886,0,0,1-1.21093-3.74365v-.2876a6.03443,6.03443,0,0,1,.53808-2.60693,4.09343,4.09343,0,0,1,1.54492-1.772,4.38717,4.38717,0,0,1,2.37891-.63086,4.02711,4.02711,0,0,1,2.80664,1.01123,3.61633,3.61633,0,0,1,1.19238,2.62549h-1.624a2.3673,2.3673,0,0,0-.7373-1.60059,2.29718,2.29718,0,0,0-1.6377-.626,2.40046,2.40046,0,0,0-2.02637.9414,4.42227,4.42227,0,0,0-.71972,2.72315v.3247a4.33138,4.33138,0,0,0,.71484,2.67188A2.41163,2.41163,0,0,0,578.8877,53.12125Z" transform="translate(0 -2.50071)"/><path class="cls-3" d="M591.00391,54.33658a3.57064,3.57064,0,0,1-.24121-1.05762,3.82928,3.82928,0,0,1-2.85743,1.24317,3.54122,3.54122,0,0,1-2.43554-.83984,2.7162,2.7162,0,0,1-.95118-2.12891,2.83877,2.83877,0,0,1,1.19239-2.43555,5.62068,5.62068,0,0,1,3.35351-.86719h1.66993v-.78857a1.92856,1.92856,0,0,0-.53809-1.43311,2.16057,2.16057,0,0,0-1.58594-.53369,2.50308,2.50308,0,0,0-1.54.46387,1.3664,1.3664,0,0,0-.62207,1.12256h-1.72558a2.366,2.366,0,0,1,.53418-1.45215,3.64237,3.64237,0,0,1,1.44726-1.1084,4.86641,4.86641,0,0,1,2.00781-.4082,3.97208,3.97208,0,0,1,2.71875.86719,3.13376,3.13376,0,0,1,1.02051,2.38916v4.62011a5.64023,5.64023,0,0,0,.35254,2.19873v.14844Zm-2.84864-1.3081a3.01819,3.01819,0,0,0,1.53125-.41748,2.5259,2.5259,0,0,0,1.04786-1.08545V49.466h-1.34473q-3.15528,0-3.1543,1.84619a1.56,1.56,0,0,0,.53809,1.26172A2.066,2.066,0,0,0,588.15527,53.02848Z" transform="translate(0 -2.50071)"/><path class="cls-3" d="M594.72363,49.234a5.8841,5.8841,0,0,1,1.09473-3.71582,3.72495,3.72495,0,0,1,5.65918-.19922V40.08658h1.7168v14.25h-1.57715l-.084-1.07617a3.49378,3.49378,0,0,1-2.86621,1.26172,3.42881,3.42881,0,0,1-2.84375-1.42871,5.949,5.949,0,0,1-1.09961-3.72949Zm1.7168.19483a4.44707,4.44707,0,0,0,.70508,2.67187,2.27781,2.27781,0,0,0,1.94824.96485,2.5033,2.5033,0,0,0,2.38379-1.46582V46.98893a2.52295,2.52295,0,0,0-2.36524-1.41944,2.289,2.289,0,0,0-1.96679.97412A4.89767,4.89767,0,0,0,596.44043,49.42887Z" transform="translate(0 -2.50071)"/><path class="cls-3" d="M610.02246,54.52213a4.384,4.384,0,0,1-3.32129-1.34082,4.97426,4.97426,0,0,1-1.28027-3.58545v-.31543a6.01938,6.01938,0,0,1,.57031-2.66748,4.44812,4.44812,0,0,1,1.5957-1.83691,4.0139,4.0139,0,0,1,2.22168-.66309,3.76085,3.76085,0,0,1,3.043,1.28955,5.58418,5.58418,0,0,1,1.08594,3.69238v.71436h-6.80078a3.57108,3.57108,0,0,0,.86719,2.39844,2.72924,2.72924,0,0,0,2.11132.91357,2.99021,2.99021,0,0,0,1.54-.37109,3.87145,3.87145,0,0,0,1.10352-.9834l1.04883.8164A4.216,4.216,0,0,1,610.02246,54.52213Zm-.21387-8.999a2.28967,2.28967,0,0,0-1.74414.75585,3.679,3.679,0,0,0-.87207,2.12012h5.02832V48.2692a3.27011,3.27011,0,0,0-.70507-2.02734A2.15623,2.15623,0,0,0,609.80859,45.52311Z" transform="translate(0 -2.50071)"/><path class="cls-3" d="M617.53711,44.2985l.0459,1.11328a3.70809,3.70809,0,0,1,2.97851-1.29883,2.86945,2.86945,0,0,1,2.86621,1.61426,3.8021,3.8021,0,0,1,1.30372-1.169,3.84954,3.84954,0,0,1,1.89746-.44531q3.30175,0,3.35839,3.49756v6.72607h-1.71679v-6.624a2.30733,2.30733,0,0,0-.49121-1.60938,2.16565,2.16565,0,0,0-1.65137-.53369,2.2744,2.2744,0,0,0-1.58691.5708,2.30854,2.30854,0,0,0-.73243,1.53516v6.66113H622.083V47.759a1.9154,1.9154,0,0,0-2.14356-2.18946,2.29536,2.29536,0,0,0-2.30957,1.438v7.3291h-1.71679V44.2985Z" transform="translate(0 -2.50071)"/><path class="cls-3" d="M632.585,41.6359a1.02537,1.02537,0,0,1,.25488-.70508.95824.95824,0,0,1,.75586-.2876.97345.97345,0,0,1,.76075.2876,1.01546,1.01546,0,0,1,.25976.70508,1.01588,1.01588,0,1,1-2.03125,0Zm1.85547,12.70068h-1.7168V44.2985h1.7168Z" transform="translate(0 -2.50071)"/><path class="cls-3" d="M641.21289,53.12125a2.47149,2.47149,0,0,0,1.60449-.55664,1.95837,1.95837,0,0,0,.76075-1.3916h1.624a3.12064,3.12064,0,0,1-.59375,1.64209,3.91718,3.91718,0,0,1-1.46094,1.24316,4.22164,4.22164,0,0,1-1.93457.46387,4.13383,4.13383,0,0,1-3.26074-1.36817,5.44881,5.44881,0,0,1-1.21094-3.74365v-.2876a6.03428,6.03428,0,0,1,.53809-2.60693,4.09337,4.09337,0,0,1,1.54492-1.772,4.38717,4.38717,0,0,1,2.37891-.63086,4.02712,4.02712,0,0,1,2.80664,1.01123,3.6164,3.6164,0,0,1,1.19238,2.62549h-1.624a2.36736,2.36736,0,0,0-.73731-1.60059,2.29714,2.29714,0,0,0-1.63769-.626,2.40043,2.40043,0,0,0-2.02637.9414,4.42227,4.42227,0,0,0-.71973,2.72315v.3247a4.33131,4.33131,0,0,0,.71485,2.67188A2.41161,2.41161,0,0,0,641.21289,53.12125Z" transform="translate(0 -2.50071)"/><path class="cls-3" d="M558.97852,68.173H553.915l-1.13672,3.16308h-1.64355L555.75,59.25016h1.39453l4.623,12.08593h-1.63477Zm-4.582-1.30274h4.10938L556.44727,61.217Z" transform="translate(0 -2.50071)"/><path class="cls-3" d="M564.82227,71.33609h-1.53516v-12.75h1.53516Z" transform="translate(0 -2.50071)"/><path class="cls-3" d="M568.94824,71.33609h-1.53613v-12.75h1.53613Z" transform="translate(0 -2.50071)"/><path class="cls-3" d="M574.60059,66.82828H570.5498V65.57535h4.05079Z" transform="translate(0 -2.50071)"/><path class="cls-3" d="M583.00977,68.173h-5.06348l-1.1377,3.16308H575.165l4.61523-12.08593h1.39453l4.624,12.08593h-1.63574Zm-4.582-1.30274h4.1084L580.47754,61.217Z" transform="translate(0 -2.50071)"/><path class="cls-3" d="M588.62891,62.35465l.042.99609a3.31432,3.31432,0,0,1,2.66406-1.16211,2.56819,2.56819,0,0,1,2.56543,1.44434,3.40308,3.40308,0,0,1,1.166-1.0459,3.445,3.445,0,0,1,1.69726-.39844q2.95606,0,3.00488,3.12891v6.01855H598.2334V65.40934a2.05907,2.05907,0,0,0-.44043-1.44043,1.93539,1.93539,0,0,0-1.47754-.47754,2.038,2.038,0,0,0-1.41895.51074,2.07171,2.07171,0,0,0-.65625,1.374v5.96h-1.54394V65.45035a1.7132,1.7132,0,0,0-1.917-1.959,2.05452,2.05452,0,0,0-2.06739,1.28711v6.55761h-1.53515V62.35465Z" transform="translate(0 -2.50071)"/><path class="cls-3" d="M605.81152,71.50211a3.92446,3.92446,0,0,1-2.97168-1.19922,4.45289,4.45289,0,0,1-1.1455-3.209v-.28223a5.39152,5.39152,0,0,1,.51074-2.38574,3.98485,3.98485,0,0,1,1.42773-1.64356,3.58378,3.58378,0,0,1,1.98828-.59375,3.36622,3.36622,0,0,1,2.72266,1.15332,4.99731,4.99731,0,0,1,.9707,3.30371v.63965h-6.084a3.18568,3.18568,0,0,0,.77637,2.14551,2.43812,2.43812,0,0,0,1.88769.81738,2.669,2.669,0,0,0,1.37793-.332,3.43117,3.43117,0,0,0,.98828-.87988l.9375.73144A3.7704,3.7704,0,0,1,605.81152,71.50211Zm-.19043-8.05176a2.04652,2.04652,0,0,0-1.56054.67676,3.28294,3.28294,0,0,0-.78028,1.89648h4.499v-.11621a2.92967,2.92967,0,0,0-.63086-1.81347A1.92745,1.92745,0,0,0,605.62109,63.45035Z" transform="translate(0 -2.50071)"/><path class="cls-3" d="M615.43262,63.73258a4.56779,4.56779,0,0,0-.75586-.0586,2.02257,2.02257,0,0,0-2.04981,1.28711v6.375h-1.53613V62.35465H612.585l.02539,1.03711a2.3906,2.3906,0,0,1,2.1416-1.20313,1.56027,1.56027,0,0,1,.68067.11621Z" transform="translate(0 -2.50071)"/><path class="cls-3" d="M616.85156,59.97232a.91577.91577,0,0,1,.22852-.63086.85842.85842,0,0,1,.67676-.25732.87143.87143,0,0,1,.68066.25732.90969.90969,0,0,1,.23242.63086.90939.90939,0,1,1-1.81836,0Zm1.66016,11.36377h-1.53516V62.35465h1.53516Z" transform="translate(0 -2.50071)"/><path class="cls-3" d="M624.57129,70.2482a2.21451,2.21451,0,0,0,1.43652-.498,1.7557,1.7557,0,0,0,.68067-1.24512h1.45215a2.77821,2.77821,0,0,1-.53125,1.46973,3.48809,3.48809,0,0,1-1.30762,1.1123,3.773,3.773,0,0,1-1.73047.415,3.70119,3.70119,0,0,1-2.918-1.22461,4.87921,4.87921,0,0,1-1.083-3.34961V66.671a5.41688,5.41688,0,0,1,.48145-2.333,3.6705,3.6705,0,0,1,1.38183-1.585,3.92255,3.92255,0,0,1,2.12989-.56446,3.605,3.605,0,0,1,2.51074.9043,3.23322,3.23322,0,0,1,1.06641,2.34961h-1.45215a2.11851,2.11851,0,0,0-.66016-1.43164,2.05017,2.05017,0,0,0-1.46484-.56055,2.1498,2.1498,0,0,0-1.81446.84278,3.95527,3.95527,0,0,0-.64257,2.43554v.291a3.88274,3.88274,0,0,0,.63867,2.39062A2.16131,2.16131,0,0,0,624.57129,70.2482Z" transform="translate(0 -2.50071)"/><path class="cls-3" d="M635.41211,71.33609a3.25237,3.25237,0,0,1-.21582-.94629,3.42649,3.42649,0,0,1-2.55664,1.11231,3.17022,3.17022,0,0,1-2.17871-.751,2.43,2.43,0,0,1-.85059-1.90527,2.53737,2.53737,0,0,1,1.06641-2.17871,5.02689,5.02689,0,0,1,3.001-.77637h1.49415v-.70605a1.72794,1.72794,0,0,0-.48145-1.28223,1.935,1.935,0,0,0-1.41992-.47754,2.24194,2.24194,0,0,0-1.37793.415,1.22488,1.22488,0,0,0-.55567,1.00488H629.793a2.1209,2.1209,0,0,1,.47656-1.29883,3.256,3.256,0,0,1,1.29492-.99218,4.351,4.351,0,0,1,1.79785-.36524,3.54858,3.54858,0,0,1,2.43165.77637,2.794,2.794,0,0,1,.91308,2.13672v4.13476a5.05961,5.05961,0,0,0,.31543,1.9668v.13281Zm-2.54785-1.16992a2.69777,2.69777,0,0,0,1.36914-.374,2.26543,2.26543,0,0,0,.93848-.97168V66.9777h-1.20411q-2.82129,0-2.82226,1.65234A1.40043,1.40043,0,0,0,631.627,69.759,1.85041,1.85041,0,0,0,632.86426,70.16617Z" transform="translate(0 -2.50071)"/><path class="cls-3" d="M640.56738,62.35465l.04981,1.1289a3.2712,3.2712,0,0,1,2.68945-1.29492q2.84619,0,2.87207,3.21192v5.93554h-1.53613V65.39273a2.06454,2.06454,0,0,0-.44434-1.43652,1.77838,1.77838,0,0,0-1.35644-.46484,2.21568,2.21568,0,0,0-1.31153.39843,2.69737,2.69737,0,0,0-.87988,1.0459v6.40039h-1.53613V62.35465Z" transform="translate(0 -2.50071)"/><path class="cls-3" d="M653.72363,68.95328a1.13008,1.13008,0,0,0-.46875-.9668,4.51264,4.51264,0,0,0-1.63574-.59375,7.72171,7.72171,0,0,1-1.85059-.59765,2.62807,2.62807,0,0,1-1.01269-.83008,1.98161,1.98161,0,0,1-.32813-1.14551,2.33052,2.33052,0,0,1,.9336-1.86719,3.64621,3.64621,0,0,1,2.38672-.76367,3.75161,3.75161,0,0,1,2.47754.78809,2.50621,2.50621,0,0,1,.95117,2.01758h-1.54395a1.38656,1.38656,0,0,0-.53613-1.08789,2.00638,2.00638,0,0,0-1.34863-.45606,2.096,2.096,0,0,0-1.31153.36524,1.1483,1.1483,0,0,0-.47265.9541.93257.93257,0,0,0,.43945.83886,5.42344,5.42344,0,0,0,1.58984.53907,8.32064,8.32064,0,0,1,1.86329.61426,2.71507,2.71507,0,0,1,1.05859.85937,2.11484,2.11484,0,0,1,.34473,1.22461,2.29878,2.29878,0,0,1-.96289,1.92969,4.03954,4.03954,0,0,1-2.499.72656,4.52075,4.52075,0,0,1-1.90918-.38184,3.113,3.113,0,0,1-1.29883-1.0664,2.57513,2.57513,0,0,1-.46875-1.48242h1.53516a1.595,1.595,0,0,0,.61816,1.2246,2.399,2.399,0,0,0,1.52344.45215,2.47243,2.47243,0,0,0,1.39844-.35254A1.0837,1.0837,0,0,0,653.72363,68.95328Z" transform="translate(0 -2.50071)"/></svg>