<?xml version="1.0" encoding="utf-8"?>
<!-- Generator: Adobe Illustrator 24.1.2, SVG Export Plug-In . SVG Version: 6.00 Build 0)  -->
<svg version="1.1" id="Layer_1" xmlns="http://www.w3.org/2000/svg" xmlns:xlink="http://www.w3.org/1999/xlink" x="0px" y="0px"
	 viewBox="0 0 200 200" style="enable-background:new 0 0 200 200;" xml:space="preserve">
<style type="text/css">
	.st0{fill-rule:evenodd;clip-rule:evenodd;fill:#D5C581;}
	.st1{fill-rule:evenodd;clip-rule:evenodd;fill:#211D1D;}
	.st2{fill:#FFFFFF;}
</style>
<desc>Created with Sketch.</desc>
<g id="colorado_1_">
	<g id="colorado_BGD">
		<g id="colorado" transform="translate(0.000000, 26.000000)">
			
				<g id="g10" transform="translate(99.999998, 74.876545) scale(-1, 1) rotate(-180.000000) translate(-99.999998, -74.876545) translate(0.000000, 0.802473)">
				<g id="g12" transform="translate(0.000000, 2.222222)">
					<path id="path14" class="st0" d="M91.9,142.3l-1.6-0.5l0,0c-16.7-5.3-24.7-15.5-26.5-18.2c-0.6-0.6-5.2-8.4-7.3-10.5
						c-5.3-0.7-19-4.2-25.7-12.1c-3.8,0.1-9.8,0-9.8,0c-2.5-0.2-4.6-1.7-5.4-4c-0.2-0.4-0.3-1.1-0.3-2c0-1.4,0.5-3.3,2.5-5.1
						c1.2-1.2,3.2-2.5,5.4-3.6c-0.9-3.2-1.4-7.4-1.4-11.4c0-1.7,0.1-3.3,0.3-4.8c-1-0.5-1.9-1-2.5-1.4c-1.5-1-4.6-3.7-6.7-7.4
						c-1.4-2.3-2-4.2-2.2-8.7c0-0.8-0.1-3.1-0.7-4c-0.6-1.1-2.8-4.2-3.9-5.8l-1.2-1.8c-0.8-1.3-1.4-3-2-5.4L2.6,35
						c-0.2-0.6-1-2.4-1.3-2.9C0.3,30.7,0,29,0,27.2c0-1.8,0.4-3.6,0.8-5.4c1.1-4.5,5.6-11.7,9.4-17.4l0.5-0.8l-0.1,0.2
						c1-1.8,2.4-3,4.2-3.4c2.6-0.6,4.6,0.7,5.5,1.3L20.7,2c3.1,1.9,4.7,4.5,5.7,6c0,0,0.1,0.2,0.2,0.4c0.4,0.3,1,0.8,1,0.8
						c1.9,1.4,3.1,2.3,3.9,3.3c3.1,3.8,4.7,9.5,4.9,12.2l0.2,2.3c0.6,5.7,0.7,8.1,0.7,9.4c0,0.5,0,0.8-0.1,1.1c0,0,0-0.5,0-0.5
						c0,0.5,0.3,1.9,0.6,2.7c1.7-0.4,3.9-1.2,4.5-1.6c2.1-1.2,7.9-4.1,16.7-4c9.7,0,15,1.4,16.4,1.8c2,0.6,5.7,1.8,7.2,2.6l-0.1-0.1
						l0.3,0.1c1,0.4,2.5,1.1,3.8,2.2c5.1,0.2,8.9,0.2,11.7,0.1c-1.7-1.9-3.3-4.2-4.4-7.2c-1.1-3.1-1.8-7.3-2.1-12.6
						c-0.1-2.3-0.2-4.1-0.2-5.4c0-3,0.4-4,1.8-5.3l1.9-1.8l11,1.9c0,0-0.2,0-0.2,0l1.6,0l3.8,0.2c2.3,0.3,5.8,1.2,8.3,2.7
						c2.8,1.7,5.3,4.7,5.8,5.4c0.6,0.7,3.3,2.7,4.3,3.3c0.1,0,1.2,0.5,1.2,0.5l3.2,1.7c0.1,0,5.8,4.3,8,6.6c0.7,0.8,1.7,1.9,2.6,3.1
						c0.5-0.7,1.1-1.3,1.7-1.9l0.4-0.5c2.4-2.8,5.6-3,7.5-2.4l0.5,0.2l0.4,0.2c1.6,0.9,5.3,2.9,6.7,3.9c0.3,0.1,1.1,0.3,1.5,0.3h0
						c2.3,0,4.5,1.4,5.6,2.5c-0.1-0.1,0.3,0.2,0.3,0.2c6.7,6.2,18.7,17.7,23.9,25.4c2.4,3.6,3.9,6.5,4.7,11
						c1.2,6.6,1.1,8.2,0.4,14.1l-0.1,1.2c-1.1,9.8-10.5,20.9-12,22.2c0,0-0.3,0.2-0.3,0.2c-1.8,1.6-6.7,5.8-16.4,8.8
						c-4.6,1.5-10.3,1.7-12.9,1.7c0,0-0.1,0-0.1,0c-0.4,0.6-1.4,1.8-1.9,2.7c-2.5,4.2-6.7,8.5-12.5,12.7l-0.1,0.1
						c0,0-0.2,0.2-0.2,0.2c-1.9,1.4-7.5,5.8-19.1,8.1C107.5,147.7,97.4,144.2,91.9,142.3"/>
					<path id="path16" class="st1" d="M77.2,51.3l1.9,13.2H64.4L55.7,75l5.1,34.4c-4.7-0.7-20.7-4.6-26.8-13
						c-0.4-0.5-1.7-0.7-2.4-0.7c-0.6,0-9.7,0-10.1,0c-0.4,0-1.5-0.4,0.1-1.9c1.3-1.3,4.5-3.1,7.2-4.1c1-0.3,0.8-1.9,0.3-2.8
						C27.4,84,26.5,72.9,27.9,69c0.2-0.5-0.1-2.3-0.8-2.6c-1.1-0.3-3.4-1.4-4.4-2c-0.9-0.6-3.4-2.8-5.1-5.6
						c-0.9-1.6-1.3-2.5-1.5-6.2c-0.1-2.2-0.3-4.6-1.4-6.5c-1.1-1.9-4.7-7-5.4-7.9c-0.6-0.9-1.4-4-1.7-4.9c-0.3-0.9-1.3-3.3-1.9-4.1
						c-0.9-1.4-0.2-4.5,0.2-6.1C7.2,18.2,15,7,15.3,6.4c0.8-1.4,1.2-0.7,2.6,0.2c3,1.9,4.1,4.9,5,5.7c0.9,0.8,3.9,2.8,4.6,3.6
						c2.3,2.8,3.5,7.4,3.7,9.3c0.2,1.9,1.1,10.5,0.9,11.6c-0.2,1.1,0.8,5.3,1.7,6.3c0.9,1.1,2.7,2.3,3.7,2.2
						c2.5-0.3,6.5-1.8,7.9-2.6c2.6-1.6,7.4-3.3,14-3.3c7.8,0,12.9,1,14.9,1.5c2.4,0.7,5.4,1.7,6.2,2.2c0.3,0.2,1.3,0.6,2.3,1.1
						L77.2,51.3"/>
					<path id="path18" class="st1" d="M193.3,87.4c-0.9,7.9-8.9,17.6-10.1,18.6c-1.1,0.9-5.4,5.1-14.9,8.1
						c-4.6,1.4-10.9,1.5-11.7,1.4c-0.9-0.1-2.9,0.9-3.3,1.4c-0.5,0.5-2.1,2.6-2.9,3.9c-3.3,5.6-10,10.3-11.2,11.2
						c-1.3,0.9-6.1,5.1-17.2,7.3c-16,3.2-25.5-1.2-30-2.7c-8.8-2.8-14.8-7-18.7-10.5h40.9l7.8-10.7l-2.1-13.9h-13.8l1.7,11.2h-32
						L70.6,78h10.6L83,90.4h-4.3l1.7,11.2H99L95.5,78h7l1.8,12.3h13.9L116,74.9l-11-10.4H93.5l-1.5-10h27.4l7,47.2h18.5l-1.7-11.3
						H139l-5.8-39.2L122.6,41H107c-3.1-1.5-6.1-4.3-7.7-9.3c-2-6.4-1.9-17.6-1.9-17.6s7.1,1.2,8.1,1.4c1,0.2,3.8,0,5.6,0.2
						c1.8,0.2,4.5,0.9,6.2,2c1.7,1,3.7,3.3,4.5,4.3c0.8,1,4.8,3.9,5.5,4.4c0.7,0.5,3.3,1.5,4.1,2.1c0.8,0.6,5.6,4.2,7.2,5.9
						c1.6,1.7,4.5,5.3,5.4,6.6c1.5,2.2,3,0.4,3.2-0.3c0.6-2,3.2-4.6,4.1-5.7c0.9-1,1.7-0.8,1.7-0.8s5.3,2.9,6.4,3.7
						c1.1,0.8,3.6,1.2,4.2,1.2c0.7,0,1.6,0.6,1.9,0.9c0.3,0.3,17.4,15.8,23.5,24.8c2,3,3.3,5.3,3.9,8.9
						C194.3,80.1,194,81,193.3,87.4"/>
					<path id="path20" class="st2" d="M164,72.9c-1.5-2.3-3.6-2.3-3.6-2.3c-4.7-0.2-4.9,4.5-4.9,4.5c0.2,10.1,11.6,16.3,15.6,18.4
						c0,0,1.5,0.8,0.7-0.4c-3.8-6.6-5.5-11.6-6-13.9C165.8,79,164.9,74.3,164,72.9"/>
					<path id="path22" class="st2" d="M164,72.9c-1.5-2.3-3.6-2.3-3.6-2.3c-4.7-0.2-4.9,4.5-4.9,4.5c0.2,10.1,11.6,16.3,15.6,18.4
						c0,0,1.5,0.8,0.7-0.4c-3.8-6.6-5.5-11.6-6-13.9C165.8,79,164.9,74.3,164,72.9"/>
				</g>
			</g>
		</g>
	</g>
</g>
</svg>
