<svg version="1.1" id="Layer_1" xmlns="http://www.w3.org/2000/svg" x="0" y="0" viewBox="0 0 200 200" xml:space="preserve"><style>.st1{fill-rule:evenodd;clip-rule:evenodd;fill:#211d1d}.st2{fill:#fff}</style><g id="colorado_1_"><g id="colorado_BGD"><g id="colorado" transform="translate(0 26)"><g id="g10" transform="matrix(1 0 0 -1 0 148.95)"><g id="g12" transform="translate(0 2.222)"><path id="path14" d="M91.9 142.3l-1.6-.5c-16.7-5.3-24.7-15.5-26.5-18.2-.6-.6-5.2-8.4-7.3-10.5-5.3-.7-19-4.2-25.7-12.1-3.8.1-9.8 0-9.8 0-2.5-.2-4.6-1.7-5.4-4-.2-.4-.3-1.1-.3-2 0-1.4.5-3.3 2.5-5.1 1.2-1.2 3.2-2.5 5.4-3.6-.9-3.2-1.4-7.4-1.4-11.4 0-1.7.1-3.3.3-4.8-1-.5-1.9-1-2.5-1.4-1.5-1-4.6-3.7-6.7-7.4-1.4-2.3-2-4.2-2.2-8.7 0-.8-.1-3.1-.7-4-.6-1.1-2.8-4.2-3.9-5.8L4.9 41c-.8-1.3-1.4-3-2-5.4l-.3-.6c-.2-.6-1-2.4-1.3-2.9C.3 30.7 0 29 0 27.2c0-1.8.4-3.6.8-5.4 1.1-4.5 5.6-11.7 9.4-17.4l.5-.8-.1.2c1-1.8 2.4-3 4.2-3.4 2.6-.6 4.6.7 5.5 1.3l.4.3c3.1 1.9 4.7 4.5 5.7 6l.2.4c.4.3 1 .8 1 .8 1.9 1.4 3.1 2.3 3.9 3.3 3.1 3.8 4.7 9.5 4.9 12.2l.2 2.3c.6 5.7.7 8.1.7 9.4 0 .5 0 .8-.1 1.1V37c0 .5.3 1.9.6 2.7 1.7-.4 3.9-1.2 4.5-1.6 2.1-1.2 7.9-4.1 16.7-4 9.7 0 15 1.4 16.4 1.8 2 .6 5.7 1.8 7.2 2.6l-.1-.1.3.1c1 .4 2.5 1.1 3.8 2.2 5.1.2 8.9.2 11.7.1-1.7-1.9-3.3-4.2-4.4-7.2-1.1-3.1-1.8-7.3-2.1-12.6-.1-2.3-.2-4.1-.2-5.4 0-3 .4-4 1.8-5.3l1.9-1.8 11 1.9h-.2 1.6l3.8.2c2.3.3 5.8 1.2 8.3 2.7 2.8 1.7 5.3 4.7 5.8 5.4.6.7 3.3 2.7 4.3 3.3.1 0 1.2.5 1.2.5l3.2 1.7c.1 0 5.8 4.3 8 6.6.7.8 1.7 1.9 2.6 3.1.5-.7 1.1-1.3 1.7-1.9l.4-.5c2.4-2.8 5.6-3 7.5-2.4l.5.2.4.2c1.6.9 5.3 2.9 6.7 3.9.3.1 1.1.3 1.5.3 2.3 0 4.5 1.4 5.6 2.5-.1-.1.3.2.3.2 6.7 6.2 18.7 17.7 23.9 25.4 2.4 3.6 3.9 6.5 4.7 11 1.2 6.6 1.1 8.2.4 14.1l-.1 1.2c-1.1 9.8-10.5 20.9-12 22.2l-.3.2c-1.8 1.6-6.7 5.8-16.4 8.8-4.6 1.5-10.3 1.7-12.9 1.7h-.1c-.4.6-1.4 1.8-1.9 2.7-2.5 4.2-6.7 8.5-12.5 12.7l-.1.1-.2.2c-1.9 1.4-7.5 5.8-19.1 8.1-15.4 2.9-25.5-.6-31-2.5" fill-rule="evenodd" clip-rule="evenodd" fill="#d5c581"/><path id="path16" class="st1" d="M77.2 51.3l1.9 13.2H64.4L55.7 75l5.1 34.4c-4.7-.7-20.7-4.6-26.8-13-.4-.5-1.7-.7-2.4-.7H21.5c-.4 0-1.5-.4.1-1.9 1.3-1.3 4.5-3.1 7.2-4.1 1-.3.8-1.9.3-2.8-1.7-2.9-2.6-14-1.2-17.9.2-.5-.1-2.3-.8-2.6-1.1-.3-3.4-1.4-4.4-2-.9-.6-3.4-2.8-5.1-5.6-.9-1.6-1.3-2.5-1.5-6.2-.1-2.2-.3-4.6-1.4-6.5-1.1-1.9-4.7-7-5.4-7.9-.6-.9-1.4-4-1.7-4.9-.3-.9-1.3-3.3-1.9-4.1-.9-1.4-.2-4.5.2-6.1C7.2 18.2 15 7 15.3 6.4c.8-1.4 1.2-.7 2.6.2 3 1.9 4.1 4.9 5 5.7.9.8 3.9 2.8 4.6 3.6 2.3 2.8 3.5 7.4 3.7 9.3.2 1.9 1.1 10.5.9 11.6-.2 1.1.8 5.3 1.7 6.3.9 1.1 2.7 2.3 3.7 2.2 2.5-.3 6.5-1.8 7.9-2.6 2.6-1.6 7.4-3.3 14-3.3 7.8 0 12.9 1 14.9 1.5 2.4.7 5.4 1.7 6.2 2.2.3.2 1.3.6 2.3 1.1l-5.6 7.1"/><path id="path18" class="st1" d="M193.3 87.4c-.9 7.9-8.9 17.6-10.1 18.6-1.1.9-5.4 5.1-14.9 8.1-4.6 1.4-10.9 1.5-11.7 1.4-.9-.1-2.9.9-3.3 1.4-.5.5-2.1 2.6-2.9 3.9-3.3 5.6-10 10.3-11.2 11.2-1.3.9-6.1 5.1-17.2 7.3-16 3.2-25.5-1.2-30-2.7-8.8-2.8-14.8-7-18.7-10.5h40.9l7.8-10.7-2.1-13.9h-13.8l1.7 11.2h-32L70.6 78h10.6L83 90.4h-4.3l1.7 11.2H99L95.5 78h7l1.8 12.3h13.9L116 74.9l-11-10.4H93.5l-1.5-10h27.4l7 47.2h18.5l-1.7-11.3H139l-5.8-39.2L122.6 41H107c-3.1-1.5-6.1-4.3-7.7-9.3-2-6.4-1.9-17.6-1.9-17.6s7.1 1.2 8.1 1.4c1 .2 3.8 0 5.6.2 1.8.2 4.5.9 6.2 2 1.7 1 3.7 3.3 4.5 4.3.8 1 4.8 3.9 5.5 4.4.7.5 3.3 1.5 4.1 2.1.8.6 5.6 4.2 7.2 5.9 1.6 1.7 4.5 5.3 5.4 6.6 1.5 2.2 3 .4 3.2-.3.6-2 3.2-4.6 4.1-5.7.9-1 1.7-.8 1.7-.8s5.3 2.9 6.4 3.7c1.1.8 3.6 1.2 4.2 1.2.7 0 1.6.6 1.9.9.3.3 17.4 15.8 23.5 24.8 2 3 3.3 5.3 3.9 8.9 1.4 6.4 1.1 7.3.4 13.7"/><path id="path20" class="st2" d="M164 72.9c-1.5-2.3-3.6-2.3-3.6-2.3-4.7-.2-4.9 4.5-4.9 4.5.2 10.1 11.6 16.3 15.6 18.4 0 0 1.5.8.7-.4-3.8-6.6-5.5-11.6-6-13.9 0-.2-.9-4.9-1.8-6.3"/><path id="path22" class="st2" d="M164 72.9c-1.5-2.3-3.6-2.3-3.6-2.3-4.7-.2-4.9 4.5-4.9 4.5.2 10.1 11.6 16.3 15.6 18.4 0 0 1.5.8.7-.4-3.8-6.6-5.5-11.6-6-13.9 0-.2-.9-4.9-1.8-6.3"/></g></g></g></g></g></svg>