<?xml version="1.0" encoding="utf-8"?>
<!-- Generator: Adobe Illustrator 24.1.2, SVG Export Plug-In . SVG Version: 6.00 Build 0)  -->
<svg version="1.1" id="Layer_1" xmlns="http://www.w3.org/2000/svg" xmlns:xlink="http://www.w3.org/1999/xlink" x="0px" y="0px"
	 viewBox="0 0 200 200" style="enable-background:new 0 0 200 200;" xml:space="preserve">
<style type="text/css">
	.st0{fill:#88C3EC;}
	.st1{fill:#FFFFFF;}
	.st2{fill:#114781;}
</style>
<desc>Created with Sketch.</desc>
<g id="columbia_1_">
	<g id="columbia_BGD">
		<g id="columbia" transform="translate(15.000000, 0.000000)">
			
				<g id="g10" transform="translate(85.472355, 99.628333) scale(-1, 1) rotate(-180.000000) translate(-85.472355, -99.628333) translate(0.000000, 0.037586)">
				<g id="g12">
					<path id="path14" class="st0" d="M142.6,127.2c0,0,17.3-25.7,4.2-58.5l-16.8,19c0,0-0.1-12.3-7.2-26.8
						c-7.4-15.1-15.2-14.8-17.6-15.5c-0.8-0.1-13.4-24.3-16.1-23.6c-7.6,2-15.7,22-16.5,21.4c-3.7-2.4-5.5,2.1-5.5,2.1
						c14.5-28.3,17.5-22.6,17.5-24.3c0-1-1.6-9.4-2.1-9.2C71.3,15.5,54,60.5,54,60.5l-4.8-12.3c-7,6.4-3.7,41.5-4.8,41
						c-13.9-7-16.6-15.7-18.5-20L24,74.9c-12.6,19.7,3.4,52.9,3.4,52.9c-3.6,0.3-12.9-8-12.9-7.6c0,18.1,20.8,34.8,16.7,34.4
						c-4.2-0.4-10.1-2.1-10.1-2.1c-1.4,5.7,8.3,15.1,7.6,15.1c-11.3,0-15.1,4.8-15.1,4.8c5.5,0.6,11.2,11.8,17.1,12.1
						c9.3,0.4,10.5-5,10.5-5c6.5,4.2,15.5,4.8,15.5,4.8c-1.5,3.4-5.9,5.3-5.9,5.3c8.1,3,20.9-2.8,20.9-2.8c0.6,4.8-1.2,6.4-1.2,6.4
						c6.2,1,14.9-9,14.9-9l0.3-0.6c0,0,8.4,10.1,14.6,9c0,0-1.8-1.5-1.2-6.4c0,0,12.8,5.8,20.9,2.8c0,0-4.4-2-5.9-5.3
						c0,0,6.6-0.6,13.1-4.8c0,0,3.6,5.5,12.9,5c5.9-0.3,11.6-11.5,17.1-12.1c0,0-3.8-4.8-15.1-4.8c-0.6,0,9.9-9.4,8.4-15.1
						c0,0-5.9,1.7-10.1,2.1c-4.2,0.4,15-16.3,15-34.4C155.5,119.2,146.3,127.5,142.6,127.2"/>
					<path id="path16" class="st1" d="M69.1,94.1c0,0-6-5.7,2-19.1c0,0-0.2,4.2,1.4,9.8c1,3.5,2.2,7,2.2,8.5
						C74.7,94.9,70.5,94.1,69.1,94.1"/>
					<path id="path18" class="st2" d="M69.3,93.6c-0.4-0.4-1.4-1.8-1.7-4.2c-0.4-2.5-0.1-6.7,3.1-12.6c0.1,1.8,0.4,4.7,1.4,8.2
						c0.3,0.9,0.5,1.9,0.8,2.8c0.7,2.3,1.4,4.5,1.4,5.6c0,0.1,0,0.1-0.1,0.1c-0.5,0.5-2.6,0.3-3.8,0.2C70,93.7,69.6,93.6,69.3,93.6
						L69.3,93.6z M70.7,74.8c-3.4,5.7-4.7,10.7-4.1,14.9c0.5,3.2,2.1,4.7,2.1,4.8l0.1,0.1h0.2c0.3,0,0.7,0,1.2,0.1
						c2,0.2,3.8,0.2,4.5-0.5c0.2-0.2,0.4-0.5,0.4-0.9c0-1.2-0.7-3.3-1.4-5.9c-0.3-0.9-0.5-1.8-0.8-2.8c-1.6-5.5-1.4-9.6-1.4-9.7
						L70.7,74.8L70.7,74.8z"/>
					<path id="path20" class="st1" d="M103.7,94.1c0,0,6-5.7-2-19.1c0,0,0.2,4.2-1.4,9.8c-1,3.5-2.2,7-2.2,8.5
						C98.1,94.9,102.3,94.1,103.7,94.1"/>
					<path id="path22" class="st2" d="M100.4,93.8c-0.8,0-1.5-0.1-1.7-0.3c0,0-0.1-0.1-0.1-0.1c0-1,0.7-3.3,1.4-5.6
						c0.3-0.9,0.5-1.8,0.8-2.7c1-3.5,1.3-6.4,1.4-8.2c5.8,10.8,2.1,15.9,1.3,16.8c-0.3,0-0.6,0-1,0.1
						C101.9,93.7,101.1,93.8,100.4,93.8z M102.2,74.8l-0.9,0.3c0,0,0.2,4.2-1.4,9.7c-0.3,0.9-0.5,1.8-0.8,2.7
						c-0.8,2.5-1.4,4.7-1.4,5.9c0,0.3,0.1,0.6,0.4,0.9c0.8,0.7,2.5,0.6,4.5,0.5c0.5,0,0.9-0.1,1.2-0.1h0.2l0.1-0.1
						c0.1-0.1,1.6-1.6,2.1-4.8C106.9,85.5,105.5,80.5,102.2,74.8L102.2,74.8z"/>
					<path id="path24" class="st1" d="M73.1,56.8c0,0-6,5.7,2,19c0,0-0.2-4.1,1.4-9.8c1-3.5,2.2-7,2.2-8.5
						C78.7,56,74.5,56.8,73.1,56.8"/>
					<path id="path26" class="st2" d="M73.3,57.3c0.3,0,0.6,0,1-0.1c1.1-0.1,3.3-0.3,3.8,0.2c0,0,0.1,0.1,0.1,0.1
						c0,1-0.7,3.2-1.4,5.6c-0.3,0.9-0.6,1.8-0.8,2.8c-1,3.5-1.3,6.4-1.4,8.2c-1.9-3.6-3.7-8.3-3.1-12.6C71.9,59,73,57.7,73.3,57.3
						L73.3,57.3z M76.4,56.1c-0.6,0-1.4,0-2.1,0.1c-0.5,0-0.9,0.1-1.2,0.1h-0.2l-0.1,0.1c-0.1,0.1-1.6,1.6-2.1,4.8
						c-0.7,4.2,0.7,9.2,4.1,14.9l0.9-0.3c0,0-0.2-4.1,1.4-9.7c0.3-0.9,0.5-1.9,0.8-2.8c0.8-2.5,1.4-4.7,1.4-5.8
						c0-0.3-0.1-0.6-0.4-0.9C78.3,56.2,77.5,56.1,76.4,56.1L76.4,56.1z"/>
					<path id="path28" class="st1" d="M99.7,56.8c0,0,6,5.7-2,19c0,0,0.2-4.1-1.4-9.8c-1-3.5-2.2-7-2.2-8.5
						C94.1,56,98.3,56.8,99.7,56.8"/>
					<path id="path30" class="st2" d="M98.2,74c-0.1-1.8-0.4-4.7-1.4-8.2c-0.3-0.9-0.5-1.9-0.8-2.8c-0.7-2.3-1.4-4.5-1.4-5.6
						c0-0.1,0-0.1,0.1-0.1c0.5-0.5,2.6-0.3,3.8-0.2c0.4,0,0.8,0.1,1,0.1c0.4,0.4,1.4,1.8,1.7,4.2C101.7,64,101.4,68.1,98.2,74
						L98.2,74z M96.4,56.1c-1.1,0-1.9,0.1-2.4,0.6c-0.2,0.2-0.4,0.5-0.4,0.9c0,1.2,0.7,3.3,1.4,5.9c0.3,0.9,0.5,1.8,0.8,2.8
						c1.6,5.5,1.4,9.6,1.4,9.7l0.9,0.3c3.4-5.7,4.7-10.7,4.1-14.9c-0.5-3.2-2.1-4.7-2.1-4.8l-0.1-0.1h-0.2c-0.3,0-0.7,0-1.2-0.1
						C97.8,56.2,97.1,56.1,96.4,56.1L96.4,56.1z"/>
					<path id="path32" class="st1" d="M74.2,92.9l3.6-9.8l3.8,8l4.3-8.1l4.5,8.5l4-8.4l3.9,9.2c0,0-9.5,4.5-12.3,4.5
						C83.2,96.9,75,93.7,74.2,92.9"/>
					<path id="path34" class="st2" d="M81.6,92.2l4.3-8.2l4.5,8.5l3.9-8.3l3.3,7.8c-1.9,0.9-9.3,4.3-11.7,4.3
						c-2.5,0-9.7-2.7-11.2-3.6l3.1-8.4L81.6,92.2z M77.8,81.8L73.7,93l0.2,0.2c0.9,1,9.2,4.1,12.1,4.1c2.9,0,12.1-4.4,12.5-4.6
						l0.4-0.2l-4.5-10.7l-4,8.5L85.9,82L81.7,90L77.8,81.8L77.8,81.8z"/>
					<path id="path36" class="st1" d="M78.6,59.4l2.6,8.1l4.8-5.7l5,5.8l3-7.7c0,0-6.4-1.7-8.4-1.7C83.6,58.3,78.6,59.4,78.6,59.4"
						/>
					<path id="path38" class="st2" d="M79.3,59.8c1.3-0.3,4.8-1,6.4-1c1.6,0,6.2,1.1,7.7,1.5l-2.5,6.5L86,61.1l-4.6,5.4L79.3,59.8z
						 M85.6,57.8c-2,0-6.9,1.1-7.1,1.1L78,59.1l3,9.4l5-5.9l5.2,6l3.5-9l-0.5-0.1C93.9,59.4,87.7,57.8,85.6,57.8L85.6,57.8z"/>
					<path id="path40" class="st2" d="M106.6,80.4c-2.2-5.9-3-10.4-2.6-12.3c0.5-2.9,0.1-6.6-2.1-8.3c-1.5-1.1-3.5-0.3-5.1-0.1
						c-1.6,0.1-12.3,1.1-19-0.6c-4-1-6.4-0.9-7.2,0.5c-2,3.3-0.7,5.8-0.9,8.3c-0.2,5.2,0.2,6.9-2.5,11.7c-2.7,4.9-3.3,9.7,2.4,13.5
						c3.3-0.4,4.9-0.9,9.6-0.4c3,0.3,6.3,1,6.5,2.8h0.5c0.2-1.8,3.7-2.6,6.5-2.8c5.6-0.3,4.9-0.7,11.2,0.5
						C105.6,91.4,109.8,89.2,106.6,80.4L106.6,80.4z M112.6,101.8c-0.5-1-1.7-1.8-3.5-2.5c-4.1-1.7-15.5-1.3-18,0.8l-1.5,7.5h-7.5
						l-1.5-7.5c-2.5-2-11.5-2.6-16.5-0.8c-1.8,0.7-3,1.5-3.5,2.5l-4-0.7c0,0,2-2.9,2.5-3.8c0.4-0.9,2.3-2,4.7-2.5
						c-1.1-1.4-4.8-8-1.3-14.6c1.8-3.6,4.5-7.1,3.9-12.2c-0.7-6.1-1.9-9.3,1-12.6c2.2-2.5,6-2.2,11.2-0.8c7.5,2.1,15.9,0.3,18.2-0.2
						c2.4-0.5,7-1,9.1,1.4c2.1,2.4,2.3,8.4,2.1,12.3c-0.2,6.6,1.6,9.6,3,12.1c3.3,6,0.3,12.9-1.4,14.9c2.8,0.3,4.1,1.5,4.4,2.2
						c0.5,1,2,3.7,2,3.7L112.6,101.8L112.6,101.8z"/>
					<path id="path42" class="st2" d="M68.4,75.3c0.4-2.8,3.2-8.2,3.2-8.2c-1.4-4.3,1.8-10.7,1.8-10.7l-3.9-0.4L67,66L68.4,75.3"/>
					<path id="path44" class="st2" d="M105.2,73.1c-0.2-2.5-3.1-6.4-3.1-6.4l-0.2-8.9l3.1-1.4l1.5,10.7L105.2,73.1"/>
					<polygon id="path46" class="st2" points="75.2,71.7 80.5,65.3 78.4,60.3 					"/>
					<polygon id="path48" class="st2" points="97.3,71 91.6,66 94,60 					"/>
					<polygon id="path50" class="st2" points="72.5,84.9 78,81.7 74.5,92.1 					"/>
					<polygon id="path52" class="st2" points="77.8,83.1 81.6,91.1 84.4,85.6 					"/>
					<polygon id="path54" class="st2" points="86.2,82 93.8,84.2 90.4,91.5 					"/>
					<polygon id="path56" class="st2" points="94.4,83.1 100.3,84.9 98.3,92.4 					"/>
					<path id="path58" class="st2" d="M72,81c7.5,0.7,11.4-3.9,13.5-4.6c2.1-0.7,5.1,7.8,15.8,4.3l-1.1,5l-5.7-2.5l-4.2,5.3
						l-4.4-5.7l-3.5,5.6l-4.5-5.2L73.1,87L72,81"/>
					<polygon id="path60" class="st2" points="62.4,83.5 67.7,83.1 66.6,93.8 					"/>
					<polygon id="path62" class="st2" points="105.6,83.2 111.5,84.2 105.8,94.5 					"/>
					<path id="path64" class="st2" d="M54.7,138.4c0,0-18.8-15.6,2.4-28.8c0,0-18.2-2.8-23.4,8.4c-2.8,6,6.3,14.6,7,15"/>
					<path id="path66" class="st2" d="M116.9,138.4c0,0,18.8-15.6-2.4-28.8c0,0,18.2-2.8,23.4,8.4c2.8,6-6.3,14.6-7,15"/>
					<path id="path68" class="st2" d="M85.5,43.6c0-0.2,0.1-0.4,0.1-0.5C86.4,43.2,85.5,43.6,85.5,43.6"/>
					<path id="path70" class="st2" d="M33.3,180.2c4.5,0.2,7-1,8.4-2.3l-9-8.5c-10,0.3-13.4,4.6-13.4,4.6
						C24.5,174.6,27.7,179.9,33.3,180.2L33.3,180.2z M57.8,186.6c7.7,2.8,16.9-4.2,16.9-4.2c0.6,4.6-1.1,6.1-1.1,6.1
						c5.9,1,11.9-8.5,11.9-8.5l0.2-0.6c0,0,5.7,9.6,11.6,8.6c0,0-1.7-1.5-1.1-6.1c0,0,9.1,7,16.9,4.2c0,0-4.2-1.9-5.6-5.1
						c0,0,9.9-1.5,16.7-4.4c3.8-3,10.6-10.1,15-20.5c-1,0.2-2,0.3-2.8,0.4c-2.2,0.2-1.6-10.5,2.3-18.7c3.8-5.8,4.7-12.7,4.2-16.2
						c-1.2-10.2-9.4-21.4-15.1-29.3c-5.7-7.8-7.8-22.4-10-29.2c-2.1-6.8-4.4-17.8-19-18.5C89.7,44.2,82.1,43,73.1,45
						c-12.8,2.8-16,11.7-18.2,18.5c-2.1,6.8-4.3,21.4-10,29.2c-5.7,7.8-15.7,16.8-16.7,29.3c-0.5,6.4,0.8,8.3,3.5,15.2
						c3.8,5.6,4.3,20,2.8,19.8c-0.8-0.1-1.6-0.2-2.5-0.4c4.7,11.1,12.1,18.3,15.7,20.9c6.7,2.6,15.7,4,15.7,4
						C62,184.7,57.8,186.6,57.8,186.6L57.8,186.6z M137.5,179.7c5.6-0.3,8.8-5.6,14-6.2c0,0-3.3-4.2-13-4.6l-9.1,8.6
						C130.8,178.8,133.2,179.9,137.5,179.7L137.5,179.7z M155.9,142.9c0,0,3.8,1,11.4-3.4c0,0-4.8,18.8-15,25
						c-0.5,0.3,4.4,0.4,11.6,11.4c0,0-7.8,3.3-11.4,5.4c-5.8,3.4-11.4,6.4-14.6,6.6c-1.4,0.1-7.5,1.5-10.8-1.8
						c-0.6-0.6-4.5,1.6-6.1,1.6c0,0,0.6,1.1,7.2,2.7c0.6,0.1-11.1,7.1-24,3.2c0,0,1.3,3.2,5.6,4c0,0-13.3,4.6-24.1-4.1
						C74.8,202.3,61,198,61,198c4.3-0.8,5.6-4,5.6-4c-12.9,3.9-24.6-3.1-24-3.2c6.6-1.6,7.2-2.7,7.2-2.7c-1.6,0-5.5-2.2-6.1-1.6
						c-3.3,3.3-9.4,1.9-10.8,1.8c-3.2-0.2-8.8-3.2-14.6-6.6c-3.6-2.1-11.4-5.4-11.4-5.4c7.2-11,12.1-11.1,11.6-11.4
						c-10.2-6.2-15-25-15-25c7.6,4.4,11.4,3.4,11.4,3.4c-19.4-15-14.4-52.2-14.2-48.5c0.2,3.6,7.5,8.1,9,8.5
						c-0.8-5.6-0.9-12.8,1-22.3c4.8-25,21.8-37.3,21.8-37.3c-2.5,7.6-2,14.6-1.1,19.1c0.2-0.3,0.3-0.6,0.3-1
						c1-10.9,4.4-20.2,6.6-23.2c6.3-8.5,3-6.3,15.9-16.2l-0.6,13.2c0.5-1.1,2.4-6.4,3-7.5C67.9,6.7,90.6,0,90.6,0
						c-1.9,12.7,2.3,12.5,7.9,17c5.5,4.5,7.7,7.6,9.9,10.9l0,0l0.1,0.1c1.1,1.6,2.1,3.3,3.6,5.1c-1-6-1.9-9.8-6.2-13.1
						c-0.7-0.5,31.3,15.4,29.8,41.6c-0.1,2.4,3.4-12.4,2.6-18.4c0,0,17.1,12.3,21.9,37.3c1.8,9.5,1.7,16.7,1,22.3
						c1.6-0.4,8.8-4.9,9-8.5C170.3,90.7,175.3,127.9,155.9,142.9L155.9,142.9z"/>
					<path id="path72" class="st2" d="M78.9,147.6c0,0,5.8,6,14,0.6l-2.6-1.2c0,0-4.4,2.7-9,0L78.9,147.6"/>
					<path id="path74" class="st2" d="M113.9,110.6c0,0-1.3-2.4,0.8-2.1c10.9,1.7,25.7-2.6,36.5-10.8
						C151.1,97.7,133.8,113.3,113.9,110.6"/>
					<path id="path76" class="st2" d="M113,110.4c0,0-0.8-1.5-0.1-2.1c0.3-0.2-1.3-0.2-1.3-0.2s-0.4,1.7,0.1,2
						C112.3,110.4,113,110.4,113,110.4"/>
					<path id="path78" class="st2" d="M110.1,106.3c0,0-1.3-2.3,0.7-2.1c10.9,1.4,25.6-3.2,36.2-11.6
						C147,92.6,130.1,108.6,110.1,106.3"/>
					<path id="path80" class="st2" d="M109.2,106.3c0,0-0.8-1.5-0.1-2.1c0.3-0.2-1.3-0.2-1.3-0.2s-0.4,1.7,0.1,2
						C108.5,106.3,109.2,106.3,109.2,106.3"/>
					<path id="path82" class="st2" d="M106.6,101.9c0,0-1.4-2.3,0.6-2.1c11,0.8,25.4-4.7,35.5-13.7
						C142.7,86.1,126.7,103,106.6,101.9"/>
					<path id="path84" class="st2" d="M105.7,101.9c0,0-0.8-1.5-0.1-2.1c0.3-0.2-1.3-0.2-1.3-0.2s-0.4,1.7,0.1,2
						C105,101.9,105.7,101.9,105.7,101.9"/>
					<path id="path86" class="st2" d="M56.7,110.6c0,0,1.3-2.4-0.7-2.1c-10.8,1.7-25.7-2.6-36.5-10.8
						C19.5,97.7,36.8,113.3,56.7,110.6"/>
					<path id="path88" class="st2" d="M57.6,110.4c0,0,0.8-1.5,0.1-2.1c-0.3-0.2,1.3-0.2,1.3-0.2s0.4,1.7-0.1,2
						C58.3,110.4,57.6,110.4,57.6,110.4"/>
					<path id="path90" class="st2" d="M60.5,106.3c0,0,1.3-2.3-0.7-2.1c-10.9,1.4-25.6-3.2-36.2-11.6
						C23.6,92.6,40.5,108.6,60.5,106.3"/>
					<path id="path92" class="st2" d="M61.4,106.3c0,0,0.8-1.5,0.1-2.1c-0.3-0.2,1.3-0.2,1.3-0.2s0.4,1.7-0.1,2
						C62.1,106.3,61.4,106.3,61.4,106.3"/>
					<path id="path94" class="st2" d="M64,101.9c0,0,1.4-2.3-0.6-2.1c-11,0.8-25.4-4.7-35.5-13.7C27.9,86.1,43.9,103,64,101.9"/>
					<path id="path96" class="st2" d="M64.9,101.9c0,0,0.8-1.5,0.1-2.1c-0.3-0.2,1.3-0.2,1.3-0.2s0.4,1.7-0.1,2
						C65.6,101.9,64.9,101.9,64.9,101.9"/>
					<polygon id="path98" class="st2" points="30.6,134.1 37,142.9 25.5,138.9 					"/>
					<polygon id="path100" class="st2" points="141.9,132.8 134.1,142 145.6,138.1 					"/>
					<path id="path102" class="st2" d="M71.3,154.3l-3.7,7.1c-9.4,2.5-13.1,6.4-15.1,11.7c12.7-6.1,22-9.6,22-9.6l0.8-14.3
						L71.3,154.3"/>
					<path id="path104" class="st2" d="M81.8,190.6h8.6c-1.6-14.7-2.6-27.9-2.6-27.9l-3.3,0.4C83.2,178.7,81.8,190.6,81.8,190.6"/>
					<path id="path106" class="st2" d="M104.6,115.6c-0.2-0.2,0-0.4-0.2-0.6c0.4,0.5-0.2,0.5-0.3,1.1c2,1.4,0,2,0,2
						c-3.8,0.7-7.9-1.8-12.6-2.7c-2.1-0.4-7.2-1.3-10.6,0c-4.4,1.7-8.9,3.4-12.6,2.7c0,0-1.1-0.4-0.9-1.1c-0.6-0.3-1.1-1.1-0.5-3.7
						c1-4.4,11.9-5.8,14.3-7.5c0,0,0,0.3-0.2,0.8c2-1.8,3.3-4.3,3.2-8.3c0,0-0.3-1.8,1.9-0.9c2.2-0.9,1.9,0.9,1.9,0.9
						c-1,3.8,0.7,6.5,3.3,8.6c-0.2-0.6-0.3-1.1-0.3-1.1c2.4,1.7,13.3,3.1,14.3,7.5C106.4,117.8,104.6,115.6,104.6,115.6"/>
					<path id="path108" class="st2" d="M74.7,142.7c-1.8-4.1-5.3-24.5-5.3-24.5l-3.2-4.7c-6.4,4.7,2.1,24.8,2.1,29.6
						C68.4,147.8,74.7,142.7,74.7,142.7"/>
					<path id="path110" class="st2" d="M100.2,154.3l3.7,7.1c9.4,2.5,13.1,6.4,15.1,11.7c-12.7-6.1-22-9.6-22-9.6l-0.8-14.3
						L100.2,154.3"/>
					<path id="path112" class="st2" d="M97.2,142.7c1.7-4.1,5.1-24.5,5.1-24.5l3-4.7c6.1,4.7-2,24.8-2,29.6
						C103.3,147.8,97.2,142.7,97.2,142.7"/>
					<path id="path114" class="st2" d="M61.4,148.5c0-2.8-2.2-4.1-5-4.1c-2.8,0-5,1.3-5,4.1c0,2.8,2.3,5,5,5
						C59.2,153.5,61.4,151.3,61.4,148.5"/>
					<path id="path116" class="st2" d="M56.4,152.4c-2.2,0-3.9-1.8-3.9-3.9c0-2.8,3-3,3.9-3c0.9,0,3.9,0.2,3.9,3
						C60.3,150.7,58.6,152.4,56.4,152.4z M56.4,143.3c-3.7,0-6.1,2.1-6.1,5.2c0,3.4,2.8,6.1,6.1,6.1c3.4,0,6.1-2.8,6.1-6.1
						C62.6,145.3,60.2,143.3,56.4,143.3L56.4,143.3z"/>
					<path id="path118" class="st2" d="M41.7,154.2c7.7,1.9,6.8,2,14,2.1c17.4,0.4,14.6-11.2,18.7-12.9l-5.4-5.5
						c-2.3,2.3-1.1,3.6-4.1,7.2c0.7,7.8-6.1,8.5-9.6,7.6c-2.9-2.6-5.9,0.8-3.7-2.7C39,152,41.7,154.2,41.7,154.2"/>
					<path id="path120" class="st2" d="M110.3,148.5c0-2.8,2.2-4.1,5-4.1c2.8,0,5,1.3,5,4.1c0,2.8-2.3,5-5,5
						C112.6,153.5,110.3,151.3,110.3,148.5"/>
					<path id="path122" class="st2" d="M115.4,152.4c-2.2,0-3.9-1.8-3.9-3.9c0-2.8,3-3,3.9-3c0.9,0,3.9,0.2,3.9,3
						C119.3,150.7,117.5,152.4,115.4,152.4z M115.4,143.3c-3.7,0-6.1,2.1-6.1,5.2c0,3.4,2.8,6.1,6.1,6.1c3.4,0,6.2-2.8,6.2-6.1
						C121.5,145.3,119.1,143.3,115.4,143.3L115.4,143.3z"/>
					<path id="path124" class="st2" d="M130,154.2c-6.8,2.5-6.8,2-14,2.1c-16.6,0.4-14.6-11.2-18.7-12.9l5.4-5.5
						c2.3,2.3,1.1,3.6,4.1,7.2c-0.7,7.8,6.1,8.5,9.6,7.6c2.9-2.6,6.8,1.5,4.6-2C132.8,151,130,154.2,130,154.2"/>
					<path id="path126" class="st1" d="M60.4,148.8c0-1.8-1.7-3.3-3.8-3.3c-2.1,0-3.8,1.5-3.8,3.3c0,1.8,1.7,3.3,3.8,3.3
						C58.7,152.1,60.4,150.7,60.4,148.8"/>
					<path id="path128" class="st2" d="M59.2,150.2c0-1.5-1.2-2.8-2.6-2.8c-1.4,0-2.6,1.3-2.6,2.8c0,1.5,1.2,2.8,2.6,2.8
						C58.1,153,59.2,151.8,59.2,150.2"/>
					<path id="path130" class="st1" d="M119.4,148.8c0-1.8-1.7-3.3-3.8-3.3c-2.1,0-3.8,1.5-3.8,3.3c0,1.8,1.7,3.3,3.8,3.3
						C117.7,152.1,119.4,150.7,119.4,148.8"/>
					<path id="path132" class="st2" d="M118.2,150.2c0-1.5-1.2-2.8-2.6-2.8c-1.4,0-2.6,1.3-2.6,2.8c0,1.5,1.2,2.8,2.6,2.8
						C117.1,153,118.2,151.8,118.2,150.2"/>
				</g>
			</g>
		</g>
	</g>
</g>
</svg>
