<svg version="1.1" id="Layer_1" xmlns="http://www.w3.org/2000/svg" x="0" y="0" viewBox="0 0 200 200" xml:space="preserve"><style>.st1{fill:#fff}.st2{fill:#114781}</style><g id="columbia_1_"><g id="columbia_BGD"><g id="columbia" transform="translate(15)"><g id="g10" transform="matrix(1 0 0 -1 0 199.22)"><g id="g12"><path id="path14" d="M142.6 127.2s17.3-25.7 4.2-58.5l-16.8 19s-.1-12.3-7.2-26.8c-7.4-15.1-15.2-14.8-17.6-15.5-.8-.1-13.4-24.3-16.1-23.6-7.6 2-15.7 22-16.5 21.4-3.7-2.4-5.5 2.1-5.5 2.1C81.6 17 84.6 22.7 84.6 21c0-1-1.6-9.4-2.1-9.2C71.3 15.5 54 60.5 54 60.5l-4.8-12.3c-7 6.4-3.7 41.5-4.8 41-13.9-7-16.6-15.7-18.5-20L24 74.9c-12.6 19.7 3.4 52.9 3.4 52.9-3.6.3-12.9-8-12.9-7.6 0 18.1 20.8 34.8 16.7 34.4-4.2-.4-10.1-2.1-10.1-2.1-1.4 5.7 8.3 15.1 7.6 15.1-11.3 0-15.1 4.8-15.1 4.8 5.5.6 11.2 11.8 17.1 12.1 9.3.4 10.5-5 10.5-5 6.5 4.2 15.5 4.8 15.5 4.8-1.5 3.4-5.9 5.3-5.9 5.3 8.1 3 20.9-2.8 20.9-2.8.6 4.8-1.2 6.4-1.2 6.4 6.2 1 14.9-9 14.9-9l.3-.6s8.4 10.1 14.6 9c0 0-1.8-1.5-1.2-6.4 0 0 12.8 5.8 20.9 2.8 0 0-4.4-2-5.9-5.3 0 0 6.6-.6 13.1-4.8 0 0 3.6 5.5 12.9 5 5.9-.3 11.6-11.5 17.1-12.1 0 0-3.8-4.8-15.1-4.8-.6 0 9.9-9.4 8.4-15.1 0 0-5.9 1.7-10.1 2.1-4.2.4 15-16.3 15-34.4.1-.4-9.1 7.9-12.8 7.6" fill="#88c3ec"/><path id="path16" class="st1" d="M69.1 94.1s-6-5.7 2-19.1c0 0-.2 4.2 1.4 9.8 1 3.5 2.2 7 2.2 8.5 0 1.6-4.2.8-5.6.8"/><path id="path18" class="st2" d="M69.3 93.6c-.4-.4-1.4-1.8-1.7-4.2-.4-2.5-.1-6.7 3.1-12.6.1 1.8.4 4.7 1.4 8.2.3.9.5 1.9.8 2.8.7 2.3 1.4 4.5 1.4 5.6 0 .1 0 .1-.1.1-.5.5-2.6.3-3.8.2-.4 0-.8-.1-1.1-.1zm1.4-18.8c-3.4 5.7-4.7 10.7-4.1 14.9.5 3.2 2.1 4.7 2.1 4.8l.1.1h.2c.3 0 .7 0 1.2.1 2 .2 3.8.2 4.5-.5.2-.2.4-.5.4-.9 0-1.2-.7-3.3-1.4-5.9-.3-.9-.5-1.8-.8-2.8-1.6-5.5-1.4-9.6-1.4-9.7l-.8-.1z"/><path id="path20" class="st1" d="M103.7 94.1s6-5.7-2-19.1c0 0 .2 4.2-1.4 9.8-1 3.5-2.2 7-2.2 8.5 0 1.6 4.2.8 5.6.8"/><path id="path22" class="st2" d="M100.4 93.8c-.8 0-1.5-.1-1.7-.3l-.1-.1c0-1 .7-3.3 1.4-5.6.3-.9.5-1.8.8-2.7 1-3.5 1.3-6.4 1.4-8.2 5.8 10.8 2.1 15.9 1.3 16.8-.3 0-.6 0-1 .1-.6-.1-1.4 0-2.1 0zm1.8-19l-.9.3s.2 4.2-1.4 9.7c-.3.9-.5 1.8-.8 2.7-.8 2.5-1.4 4.7-1.4 5.9 0 .3.1.6.4.9.8.7 2.5.6 4.5.5.5 0 .9-.1 1.2-.1h.2l.1-.1c.1-.1 1.6-1.6 2.1-4.8.7-4.3-.7-9.3-4-15z"/><path id="path24" class="st1" d="M73.1 56.8s-6 5.7 2 19c0 0-.2-4.1 1.4-9.8 1-3.5 2.2-7 2.2-8.5s-4.2-.7-5.6-.7"/><path id="path26" class="st2" d="M73.3 57.3c.3 0 .6 0 1-.1 1.1-.1 3.3-.3 3.8.2l.1.1c0 1-.7 3.2-1.4 5.6-.3.9-.6 1.8-.8 2.8-1 3.5-1.3 6.4-1.4 8.2-1.9-3.6-3.7-8.3-3.1-12.6.4-2.5 1.5-3.8 1.8-4.2zm3.1-1.2c-.6 0-1.4 0-2.1.1-.5 0-.9.1-1.2.1h-.2l-.1.1c-.1.1-1.6 1.6-2.1 4.8-.7 4.2.7 9.2 4.1 14.9l.9-.3s-.2-4.1 1.4-9.7c.3-.9.5-1.9.8-2.8.8-2.5 1.4-4.7 1.4-5.8 0-.3-.1-.6-.4-.9-.6-.4-1.4-.5-2.5-.5z"/><path id="path28" class="st1" d="M99.7 56.8s6 5.7-2 19c0 0 .2-4.1-1.4-9.8-1-3.5-2.2-7-2.2-8.5s4.2-.7 5.6-.7"/><path id="path30" class="st2" d="M98.2 74c-.1-1.8-.4-4.7-1.4-8.2-.3-.9-.5-1.9-.8-2.8-.7-2.3-1.4-4.5-1.4-5.6 0-.1 0-.1.1-.1.5-.5 2.6-.3 3.8-.2.4 0 .8.1 1 .1.4.4 1.4 1.8 1.7 4.2.5 2.6.2 6.7-3 12.6zm-1.8-17.9c-1.1 0-1.9.1-2.4.6-.2.2-.4.5-.4.9 0 1.2.7 3.3 1.4 5.9.3.9.5 1.8.8 2.8 1.6 5.5 1.4 9.6 1.4 9.7l.9.3c3.4-5.7 4.7-10.7 4.1-14.9-.5-3.2-2.1-4.7-2.1-4.8l-.1-.1h-.2c-.3 0-.7 0-1.2-.1-.8-.2-1.5-.3-2.2-.3z"/><path id="path32" class="st1" d="M74.2 92.9l3.6-9.8 3.8 8 4.3-8.1 4.5 8.5 4-8.4 3.9 9.2s-9.5 4.5-12.3 4.5c-2.8.1-11-3.1-11.8-3.9"/><path id="path34" class="st2" d="M81.6 92.2l4.3-8.2 4.5 8.5 3.9-8.3 3.3 7.8c-1.9.9-9.3 4.3-11.7 4.3-2.5 0-9.7-2.7-11.2-3.6l3.1-8.4 3.8 7.9zm-3.8-10.4L73.7 93l.2.2c.9 1 9.2 4.1 12.1 4.1 2.9 0 12.1-4.4 12.5-4.6l.4-.2-4.5-10.7-4 8.5-4.5-8.3-4.2 8-3.9-8.2z"/><path id="path36" class="st1" d="M78.6 59.4l2.6 8.1 4.8-5.7 5 5.8 3-7.7s-6.4-1.7-8.4-1.7c-2 .1-7 1.2-7 1.2"/><path id="path38" class="st2" d="M79.3 59.8c1.3-.3 4.8-1 6.4-1 1.6 0 6.2 1.1 7.7 1.5l-2.5 6.5-4.9-5.7-4.6 5.4-2.1-6.7zm6.3-2c-2 0-6.9 1.1-7.1 1.1l-.5.2 3 9.4 5-5.9 5.2 6 3.5-9-.5-.1c-.3-.1-6.5-1.7-8.6-1.7z"/><path id="path40" class="st2" d="M106.6 80.4c-2.2-5.9-3-10.4-2.6-12.3.5-2.9.1-6.6-2.1-8.3-1.5-1.1-3.5-.3-5.1-.1-1.6.1-12.3 1.1-19-.6-4-1-6.4-.9-7.2.5-2 3.3-.7 5.8-.9 8.3-.2 5.2.2 6.9-2.5 11.7-2.7 4.9-3.3 9.7 2.4 13.5 3.3-.4 4.9-.9 9.6-.4 3 .3 6.3 1 6.5 2.8h.5c.2-1.8 3.7-2.6 6.5-2.8 5.6-.3 4.9-.7 11.2.5 1.7-1.8 5.9-4 2.7-12.8zm6 21.4c-.5-1-1.7-1.8-3.5-2.5-4.1-1.7-15.5-1.3-18 .8l-1.5 7.5h-7.5l-1.5-7.5c-2.5-2-11.5-2.6-16.5-.8-1.8.7-3 1.5-3.5 2.5l-4-.7s2-2.9 2.5-3.8c.4-.9 2.3-2 4.7-2.5-1.1-1.4-4.8-8-1.3-14.6 1.8-3.6 4.5-7.1 3.9-12.2-.7-6.1-1.9-9.3 1-12.6 2.2-2.5 6-2.2 11.2-.8 7.5 2.1 15.9.3 18.2-.2 2.4-.5 7-1 9.1 1.4 2.1 2.4 2.3 8.4 2.1 12.3-.2 6.6 1.6 9.6 3 12.1 3.3 6 .3 12.9-1.4 14.9 2.8.3 4.1 1.5 4.4 2.2.5 1 2 3.7 2 3.7l-3.4.8z"/><path id="path42" class="st2" d="M68.4 75.3c.4-2.8 3.2-8.2 3.2-8.2-1.4-4.3 1.8-10.7 1.8-10.7l-3.9-.4L67 66l1.4 9.3"/><path id="path44" class="st2" d="M105.2 73.1c-.2-2.5-3.1-6.4-3.1-6.4l-.2-8.9 3.1-1.4 1.5 10.7-1.3 6"/><path id="path46" class="st2" d="M75.2 71.7l5.3-6.4-2.1-5z"/><path id="path48" class="st2" d="M97.3 71l-5.7-5 2.4-6z"/><path id="path50" class="st2" d="M72.5 84.9l5.5-3.2-3.5 10.4z"/><path id="path52" class="st2" d="M77.8 83.1l3.8 8 2.8-5.5z"/><path id="path54" class="st2" d="M86.2 82l7.6 2.2-3.4 7.3z"/><path id="path56" class="st2" d="M94.4 83.1l5.9 1.8-2 7.5z"/><path id="path58" class="st2" d="M72 81c7.5.7 11.4-3.9 13.5-4.6 2.1-.7 5.1 7.8 15.8 4.3l-1.1 5-5.7-2.5-4.2 5.3-4.4-5.7-3.5 5.6-4.5-5.2-4.8 3.8-1.1-6"/><path id="path60" class="st2" d="M62.4 83.5l5.3-.4-1.1 10.7z"/><path id="path62" class="st2" d="M105.6 83.2l5.9 1-5.7 10.3z"/><path id="path64" class="st2" d="M54.7 138.4s-18.8-15.6 2.4-28.8c0 0-18.2-2.8-23.4 8.4-2.8 6 6.3 14.6 7 15"/><path id="path66" class="st2" d="M116.9 138.4s18.8-15.6-2.4-28.8c0 0 18.2-2.8 23.4 8.4 2.8 6-6.3 14.6-7 15"/><path id="path68" class="st2" d="M85.5 43.6c0-.2.1-.4.1-.5.8.1-.1.5-.1.5"/><path id="path70" class="st2" d="M33.3 180.2c4.5.2 7-1 8.4-2.3l-9-8.5c-10 .3-13.4 4.6-13.4 4.6 5.2.6 8.4 5.9 14 6.2zm24.5 6.4c7.7 2.8 16.9-4.2 16.9-4.2.6 4.6-1.1 6.1-1.1 6.1 5.9 1 11.9-8.5 11.9-8.5l.2-.6s5.7 9.6 11.6 8.6c0 0-1.7-1.5-1.1-6.1 0 0 9.1 7 16.9 4.2 0 0-4.2-1.9-5.6-5.1 0 0 9.9-1.5 16.7-4.4 3.8-3 10.6-10.1 15-20.5-1 .2-2 .3-2.8.4-2.2.2-1.6-10.5 2.3-18.7 3.8-5.8 4.7-12.7 4.2-16.2-1.2-10.2-9.4-21.4-15.1-29.3-5.7-7.8-7.8-22.4-10-29.2-2.1-6.8-4.4-17.8-19-18.5-9.1-.4-16.7-1.6-25.7.4-12.8 2.8-16 11.7-18.2 18.5-2.1 6.8-4.3 21.4-10 29.2-5.7 7.8-15.7 16.8-16.7 29.3-.5 6.4.8 8.3 3.5 15.2 3.8 5.6 4.3 20 2.8 19.8-.8-.1-1.6-.2-2.5-.4 4.7 11.1 12.1 18.3 15.7 20.9 6.7 2.6 15.7 4 15.7 4-1.4 3.2-5.6 5.1-5.6 5.1zm79.7-6.9c5.6-.3 8.8-5.6 14-6.2 0 0-3.3-4.2-13-4.6l-9.1 8.6c1.4 1.3 3.8 2.4 8.1 2.2zm18.4-36.8s3.8 1 11.4-3.4c0 0-4.8 18.8-15 25-.5.3 4.4.4 11.6 11.4 0 0-7.8 3.3-11.4 5.4-5.8 3.4-11.4 6.4-14.6 6.6-1.4.1-7.5 1.5-10.8-1.8-.6-.6-4.5 1.6-6.1 1.6 0 0 .6 1.1 7.2 2.7.6.1-11.1 7.1-24 3.2 0 0 1.3 3.2 5.6 4 0 0-13.3 4.6-24.1-4.1C74.8 202.3 61 198 61 198c4.3-.8 5.6-4 5.6-4-12.9 3.9-24.6-3.1-24-3.2 6.6-1.6 7.2-2.7 7.2-2.7-1.6 0-5.5-2.2-6.1-1.6-3.3 3.3-9.4 1.9-10.8 1.8-3.2-.2-8.8-3.2-14.6-6.6-3.6-2.1-11.4-5.4-11.4-5.4 7.2-11 12.1-11.1 11.6-11.4-10.2-6.2-15-25-15-25 7.6 4.4 11.4 3.4 11.4 3.4C-4.5 128.3.5 91.1.7 94.8c.2 3.6 7.5 8.1 9 8.5-.8-5.6-.9-12.8 1-22.3 4.8-25 21.8-37.3 21.8-37.3-2.5 7.6-2 14.6-1.1 19.1.2-.3.3-.6.3-1 1-10.9 4.4-20.2 6.6-23.2 6.3-8.5 3-6.3 15.9-16.2l-.6 13.2c.5-1.1 2.4-6.4 3-7.5C67.9 6.7 90.6 0 90.6 0c-1.9 12.7 2.3 12.5 7.9 17 5.5 4.5 7.7 7.6 9.9 10.9l.1.1c1.1 1.6 2.1 3.3 3.6 5.1-1-6-1.9-9.8-6.2-13.1-.7-.5 31.3 15.4 29.8 41.6-.1 2.4 3.4-12.4 2.6-18.4 0 0 17.1 12.3 21.9 37.3 1.8 9.5 1.7 16.7 1 22.3 1.6-.4 8.8-4.9 9-8.5.1-3.6 5.1 33.6-14.3 48.6z"/><path id="path72" class="st2" d="M78.9 147.6s5.8 6 14 .6l-2.6-1.2s-4.4 2.7-9 0l-2.4.6"/><path id="path74" class="st2" d="M113.9 110.6s-1.3-2.4.8-2.1c10.9 1.7 25.7-2.6 36.5-10.8-.1 0-17.4 15.6-37.3 12.9"/><path id="path76" class="st2" d="M113 110.4s-.8-1.5-.1-2.1c.3-.2-1.3-.2-1.3-.2s-.4 1.7.1 2c.6.3 1.3.3 1.3.3"/><path id="path78" class="st2" d="M110.1 106.3s-1.3-2.3.7-2.1c10.9 1.4 25.6-3.2 36.2-11.6 0 0-16.9 16-36.9 13.7"/><path id="path80" class="st2" d="M109.2 106.3s-.8-1.5-.1-2.1c.3-.2-1.3-.2-1.3-.2s-.4 1.7.1 2c.6.3 1.3.3 1.3.3"/><path id="path82" class="st2" d="M106.6 101.9s-1.4-2.3.6-2.1c11 .8 25.4-4.7 35.5-13.7 0 0-16 16.9-36.1 15.8"/><path id="path84" class="st2" d="M105.7 101.9s-.8-1.5-.1-2.1c.3-.2-1.3-.2-1.3-.2s-.4 1.7.1 2c.6.3 1.3.3 1.3.3"/><path id="path86" class="st2" d="M56.7 110.6s1.3-2.4-.7-2.1c-10.8 1.7-25.7-2.6-36.5-10.8 0 0 17.3 15.6 37.2 12.9"/><path id="path88" class="st2" d="M57.6 110.4s.8-1.5.1-2.1c-.3-.2 1.3-.2 1.3-.2s.4 1.7-.1 2c-.6.3-1.3.3-1.3.3"/><path id="path90" class="st2" d="M60.5 106.3s1.3-2.3-.7-2.1c-10.9 1.4-25.6-3.2-36.2-11.6 0 0 16.9 16 36.9 13.7"/><path id="path92" class="st2" d="M61.4 106.3s.8-1.5.1-2.1c-.3-.2 1.3-.2 1.3-.2s.4 1.7-.1 2c-.6.3-1.3.3-1.3.3"/><path id="path94" class="st2" d="M64 101.9s1.4-2.3-.6-2.1c-11 .8-25.4-4.7-35.5-13.7 0 0 16 16.9 36.1 15.8"/><path id="path96" class="st2" d="M64.9 101.9s.8-1.5.1-2.1c-.3-.2 1.3-.2 1.3-.2s.4 1.7-.1 2c-.6.3-1.3.3-1.3.3"/><path id="path98" class="st2" d="M30.6 134.1l6.4 8.8-11.5-4z"/><path id="path100" class="st2" d="M141.9 132.8l-7.8 9.2 11.5-3.9z"/><path id="path102" class="st2" d="M71.3 154.3l-3.7 7.1c-9.4 2.5-13.1 6.4-15.1 11.7 12.7-6.1 22-9.6 22-9.6l.8-14.3-4 5.1"/><path id="path104" class="st2" d="M81.8 190.6h8.6c-1.6-14.7-2.6-27.9-2.6-27.9l-3.3.4c-1.3 15.6-2.7 27.5-2.7 27.5"/><path id="path106" class="st2" d="M104.6 115.6c-.2-.2 0-.4-.2-.6.4.5-.2.5-.3 1.1 2 1.4 0 2 0 2-3.8.7-7.9-1.8-12.6-2.7-2.1-.4-7.2-1.3-10.6 0-4.4 1.7-8.9 3.4-12.6 2.7 0 0-1.1-.4-.9-1.1-.6-.3-1.1-1.1-.5-3.7 1-4.4 11.9-5.8 14.3-7.5 0 0 0 .3-.2.8 2-1.8 3.3-4.3 3.2-8.3 0 0-.3-1.8 1.9-.9 2.2-.9 1.9.9 1.9.9-1 3.8.7 6.5 3.3 8.6-.2-.6-.3-1.1-.3-1.1 2.4 1.7 13.3 3.1 14.3 7.5 1.1 4.5-.7 2.3-.7 2.3"/><path id="path108" class="st2" d="M74.7 142.7c-1.8-4.1-5.3-24.5-5.3-24.5l-3.2-4.7c-6.4 4.7 2.1 24.8 2.1 29.6.1 4.7 6.4-.4 6.4-.4"/><path id="path110" class="st2" d="M100.2 154.3l3.7 7.1c9.4 2.5 13.1 6.4 15.1 11.7-12.7-6.1-22-9.6-22-9.6l-.8-14.3 4 5.1"/><path id="path112" class="st2" d="M97.2 142.7c1.7-4.1 5.1-24.5 5.1-24.5l3-4.7c6.1 4.7-2 24.8-2 29.6 0 4.7-6.1-.4-6.1-.4"/><path id="path114" class="st2" d="M61.4 148.5c0-2.8-2.2-4.1-5-4.1s-5 1.3-5 4.1 2.3 5 5 5c2.8 0 5-2.2 5-5"/><path id="path116" class="st2" d="M56.4 152.4c-2.2 0-3.9-1.8-3.9-3.9 0-2.8 3-3 3.9-3 .9 0 3.9.2 3.9 3 0 2.2-1.7 3.9-3.9 3.9zm0-9.1c-3.7 0-6.1 2.1-6.1 5.2 0 3.4 2.8 6.1 6.1 6.1 3.4 0 6.1-2.8 6.1-6.1.1-3.2-2.3-5.2-6.1-5.2z"/><path id="path118" class="st2" d="M41.7 154.2c7.7 1.9 6.8 2 14 2.1 17.4.4 14.6-11.2 18.7-12.9l-5.4-5.5c-2.3 2.3-1.1 3.6-4.1 7.2.7 7.8-6.1 8.5-9.6 7.6-2.9-2.6-5.9.8-3.7-2.7-12.6 2-9.9 4.2-9.9 4.2"/><path id="path120" class="st2" d="M110.3 148.5c0-2.8 2.2-4.1 5-4.1s5 1.3 5 4.1-2.3 5-5 5-5-2.2-5-5"/><path id="path122" class="st2" d="M115.4 152.4c-2.2 0-3.9-1.8-3.9-3.9 0-2.8 3-3 3.9-3 .9 0 3.9.2 3.9 3 0 2.2-1.8 3.9-3.9 3.9zm0-9.1c-3.7 0-6.1 2.1-6.1 5.2 0 3.4 2.8 6.1 6.1 6.1 3.4 0 6.2-2.8 6.2-6.1-.1-3.2-2.5-5.2-6.2-5.2z"/><path id="path124" class="st2" d="M130 154.2c-6.8 2.5-6.8 2-14 2.1-16.6.4-14.6-11.2-18.7-12.9l5.4-5.5c2.3 2.3 1.1 3.6 4.1 7.2-.7 7.8 6.1 8.5 9.6 7.6 2.9-2.6 6.8 1.5 4.6-2 11.8.3 9 3.5 9 3.5"/><path id="path126" class="st1" d="M60.4 148.8c0-1.8-1.7-3.3-3.8-3.3-2.1 0-3.8 1.5-3.8 3.3 0 1.8 1.7 3.3 3.8 3.3 2.1 0 3.8-1.4 3.8-3.3"/><path id="path128" class="st2" d="M59.2 150.2c0-1.5-1.2-2.8-2.6-2.8-1.4 0-2.6 1.3-2.6 2.8 0 1.5 1.2 2.8 2.6 2.8 1.5 0 2.6-1.2 2.6-2.8"/><path id="path130" class="st1" d="M119.4 148.8c0-1.8-1.7-3.3-3.8-3.3-2.1 0-3.8 1.5-3.8 3.3 0 1.8 1.7 3.3 3.8 3.3 2.1 0 3.8-1.4 3.8-3.3"/><path id="path132" class="st2" d="M118.2 150.2c0-1.5-1.2-2.8-2.6-2.8-1.4 0-2.6 1.3-2.6 2.8 0 1.5 1.2 2.8 2.6 2.8 1.5 0 2.6-1.2 2.6-2.8"/></g></g></g></g></g></svg>