<svg width="200" height="200" xmlns="http://www.w3.org/2000/svg">
 <!-- Generator: Sketch 54.1 (76490) - https://sketchapp.com -->

 <title>cal-poly</title>
 <desc>Created with Sketch.</desc>
 <g>
  <title>background</title>
  <rect fill="none" id="canvas_background" height="2502" width="2502" y="-1" x="-1"/>
 </g>
 <g>
  <title>Layer 1</title>
  <g fill-rule="evenodd" fill="none" id="cal-poly">
   <g id="cal-poly_BGD">
    <g id="cal-poly">
     <g fill-rule="nonzero" transform="rotate(-180 101.23556518554688,99.43877410888672) translate(69.5,100.49467468261719) scale(-1,1) translate(-69.5,-100.49467468261719) translate(0,0.6119279861450195) " id="g10">
      <g id="g12">
       <path fill="#FFFFFF" id="path176" d="m101.764456,57.222091c-0.300383,-0.472902 -1.304576,-2.048787 -2.137677,-2.662713c-0.220669,-0.16915 -0.822407,-0.910961 -1.36193,-1.670874c-0.229419,-1.026875 -0.944894,-4.062537 -1.982138,-5.84368l-1.220974,-1.938518c-0.903093,-1.391844 -1.928672,-2.969578 -2.183366,-3.970954l-0.448144,-2.556629c-0.466614,-3.077511 -0.801021,-5.022161 -1.537882,-5.925044c-0.768942,-0.958066 -3.658061,-3.506033 -4.693362,-4.411933c-0.246916,-0.585896 -2.403063,-5.849423 -2.403063,-5.849423l-0.300383,-0.239127c-1.179173,-0.946972 -7.024488,-4.503127 -7.579564,-4.894763c-0.932256,-0.642149 -1.814935,-0.458108 -2.533326,-0.290806l-0.611459,0.119709c-1.091683,0.182095 -4.879035,2.008884 -4.879035,2.008884c-1.308464,0.851593 -3.966221,3.256589 -3.966221,3.256589c-0.595905,1.186099 -1.322073,3.005297 -1.302631,3.892997c0.077769,1.956037 1.017802,6.185778 2.120178,7.534701c1.118902,1.389897 5.802542,3.807448 6.867978,4.072075c0.402455,0.114065 2.940641,0.748526 6.66675,-0.956509c1.081962,1.317682 2.232944,4.767753 2.764689,5.254378c0.548272,0.520785 2.194059,1.388048 2.90273,1.779197c1.860624,4.999289 3.717359,9.962081 3.768881,11.050953c0,0 0.611459,2.468452 0.622153,2.597018c0.025275,0.884586 -0.006805,2.551665 -1.429006,3.463697c-0.972113,0.621614 -8.696522,5.533895 -11.496208,6.347434c-2.527493,0.726141 -5.804486,2.669623 -7.578592,3.879371c-0.990583,-0.379567 -2.882315,-1.862896 -4.470747,-0.99758c-0.706726,-0.288179 -1.828545,-1.058798 -3.427671,-0.681275c-0.52008,-2.503099 -1.669117,-10.030209 -1.669117,-10.030209c-0.102072,-0.564582 -0.901149,-6.661015 -1.385261,-10.384472l-0.011666,-0.125841l-0.051522,-0.123603c-0.29455,-0.952713 -1.347348,-4.100202 -2.432226,-5.267322c-0.723252,-0.763806 -4.055655,-4.695927 -5.703387,-6.668606l-0.354821,-0.429301c0,0 -3.802906,-0.627648 -5.772406,-0.956509c0.52008,-1.508536 1.264718,-3.65533 1.264718,-3.65533l-0.017498,-0.283215c-0.020414,-0.585118 -0.098183,-2.035161 -0.472447,-2.84909c-0.135123,-0.31397 -0.296494,-1.136755 -0.311076,-1.7245c-0.007777,-0.197667 0,-0.383558 0.019443,-0.502975c0.128319,-0.424629 1.050854,-2.139202 1.55538,-3.051234l0.9935,-1.927909c0.497722,-1.071645 0.615347,-2.908361 0.573546,-4.236652c-0.010693,-0.444775 -0.051522,-0.847797 -0.107904,-1.138604c-0.123459,-0.817821 -0.818519,-6.510162 -1.065436,-8.6262l-0.107904,-0.922348l-6.292487,-2.322465l-0.357738,0.042239c-0.197339,0.020146 -5.109426,0.630276 -7.795374,3.078971c-2.408895,2.193996 -3.28963,2.811036 -3.367399,2.89094l-0.575491,0.715046l0.366487,0.834172c1.404703,3.308269 3.275049,8.234565 4.169392,9.21959c0.001945,0.217813 -0.177896,0.796118 -0.587156,1.308144c-0.769913,0.98016 -1.363874,2.468939 -1.303603,4.010469c0.014581,0.471052 0.121514,0.94629 0.273164,1.426102c-0.210949,0.6003 -0.734918,1.959053 -1.136401,3.067584c-0.954614,-0.11971 -3.319765,0.361173 -3.319765,0.361173l-10.922661,4.132124l-2.953279,4.265946c0,0 3.538491,7.45908 4.246189,8.958857c-0.450088,0.482439 -0.913786,0.986972 -0.913786,0.986972l-0.089434,0.083602c-0.645483,0.66833 -0.821436,1.210527 -0.774774,2.428938c0.017498,0.720399 0.364542,1.585715 0.724224,2.307671c-2.093931,1.240893 -6.159308,3.7219 -7.691358,4.951795c-1.733277,1.422209 -2.263079,2.771133 -2.213501,4.033242c0.025275,0.867262 0.325658,1.69141 0.693117,2.458622c0.128319,0.285162 1.079045,1.244689 1.12279,1.380068c-0.978918,1.813066 -8.583757,16.929573 -8.869558,23.385135c-0.056383,1.263278 -0.583268,3.682775 -0.535634,5.061869c0.213864,5.98451 1.886871,11.988485 3.458777,16.080998c0.792272,2.092486 2.510968,4.476946 4.401728,6.685249c-1.43095,1.666202 -3.925392,5.007367 -4.647672,8.531503c-1.024607,5.033645 1.638982,7.534895 2.363206,8.371889c0.716448,0.831155 5.671307,4.780601 8.970658,5.177686c0,0 -5.821984,-3.757715 -7.348201,-7.828816c-1.520385,-4.076942 0.769913,-7.268226 0.769913,-7.268226c0,0 0.974057,7.894998 3.458778,10.212304c2.500274,2.316334 6.511212,3.728518 6.511212,3.728518c0,0 2.974666,1.893943 4.978191,3.723652c-1.043077,-0.509009 -2.770522,-1.008286 -5.069569,-1.307074c0,0 -2.778299,3.89689 -4.460054,4.806878c-1.697309,0.926533 -11.765483,3.019993 -11.765483,3.019993c0,0 9.481017,0.516795 12.052256,0.586869c2.589709,0.084673 7.479437,-2.682275 9.510181,-3.601022c1.069324,-0.493438 1.372623,-1.104638 1.312352,-1.666203c0.043745,0.084673 -0.974057,-5.01126 -0.974057,-5.01126c0,0 -3.23908,-2.193704 -5.916279,-4.847755c-2.143509,-2.124603 -2.787048,-5.749956 -2.294187,-8.197678c0.051522,-0.274456 0.120542,-0.520689 0.204144,-0.753295c-0.015554,0 0.162343,0.151827 0.545355,0.487598c0.433563,0.400978 0.948783,0.862299 1.502887,1.357682c0.161371,0.143068 0.386901,0.343557 0.342184,0.298788l-0.184702,0.852566l-0.284829,1.31194c0,0 1.695365,4.065262 2.574155,4.894471c0.907954,0.84478 5.11137,2.918774 5.11137,2.918774c0,0 -3.062156,-3.853094 -3.275049,-4.875005c-0.075824,-0.368862 -0.08749,-1.027751 -0.079713,-1.732384c1.677867,1.444302 3.112706,2.613174 3.549185,2.81853c1.100431,0.493437 8.278513,1.052082 10.993625,1.049163c0.146789,0.199516 0.323713,0.398059 0.513275,0.641371c-1.313324,-0.211195 -2.555685,-0.357183 -3.203112,-0.338691c-2.131844,0.087593 -4.749744,2.196624 -5.454526,2.961598l-3.139924,3.398586l4.533934,-0.896363c0.595906,-0.115816 2.396259,-0.352316 3.52391,-0.138201c1.695365,0.321172 6.68036,2.373755 7.509572,3.31586l1.086822,1.323619c1.950059,2.384461 3.920532,4.732911 5.702415,6.597657c-1.777023,-0.085646 -3.732914,0.057421 -5.521602,0.6949c-5.124007,1.868638 -5.752964,6.749483 -5.781155,6.942186l-0.438423,3.712946l2.889119,-2.367915c1.319158,-1.069601 3.24783,-2.24042 4.009966,-2.274484c1.581628,-0.054502 8.362116,1.85988 9.41783,2.655998c0.39079,0.307546 1.300687,0.943078 2.376816,1.619486c-1.163619,0.172265 -2.289326,0.398059 -3.026187,0.717285c-2.232944,0.913881 -3.93803,6.664811 -3.93803,6.664811c1.85868,-0.81753 4.32007,-1.652577 5.021936,-1.614621c0.507443,0.056449 2.629565,0.875925 4.184946,1.4735c1.309436,0.510956 2.426394,0.934319 3.402395,1.280796c-2.349597,1.197096 -2.542075,1.600021 -2.718028,1.96499l-0.150677,0.306573c-3.967193,8.232716 -4.475608,10.914017 -4.443528,12.131552c0.001944,0.056449 0,0.117763 0.013609,0.174212l0.439395,4.845808l2.372928,-4.235581c1.265691,-2.245286 2.853151,-4.882791 3.312961,-5.386935l0.195395,-0.206328c0.700893,-0.746483 0.914758,-0.982009 1.767301,-1.080307c0.63479,-0.081753 2.166839,0.071047 3.605567,0.246232c-0.711587,1.374228 -1.806186,3.182525 -3.003829,4.265751l-2.317518,2.110005l3.088403,0.493437c0.135124,0.027251 2.658729,0.390273 6.023212,-1.141621c0.022359,0.445748 0.039856,0.885657 0.093323,1.35087c0.25761,2.373755 2.37876,5.273064 4.036213,6.177213l2.745247,1.525081l-0.532718,-3.094932c-0.148734,-0.904149 -0.27608,-1.884211 -0.28969,-2.407819c-0.011665,-0.069101 0.004861,-0.099271 -0.000972,-0.145987c0.185673,-0.297815 0.720336,-0.927507 1.515524,-1.287609c0.763109,-0.331878 4.164532,-1.279823 8.664442,-2.424364c1.987971,-0.502197 3.520021,-1.54552 5.280518,-3.596156c0.022358,-0.022385 1.17334,-1.385907 1.952003,-2.899309c0.41412,0.22482 0.831156,0.479812 1.129595,0.714365c0.84671,0.69198 2.922171,3.659417 3.153534,4.389354c0.507443,1.750875 3.753328,3.953338 5.462303,4.367942l2.095875,0.47008l-0.996416,-8.234662c-0.209004,-2.231661 -1.418312,-4.98401 -2.570266,-7.372363c-0.800049,-1.638952 -2.400147,-2.73775 -3.725137,-3.349924c0.743666,-2.494438 1.575795,-5.029752 1.850903,-5.503725c0.655204,-1.012179 2.312657,-4.302734 2.59943,-5.613701c0.052494,-0.254018 0.068048,-0.61412 0.052494,-1.04235c-0.064159,-1.915355 -0.821435,-5.068682 -1.61954,-6.425392c-0.500638,-0.84186 -1.588433,-4.038984 -2.20378,-6.012733c0.022359,-0.483705 0.263443,-6.67357 0.263443,-6.67357c0,0 -0.59785,-5.249707 -0.707699,-6.129524c0.417037,-0.680301 1.97825,-3.219509 1.97825,-3.219509l0.049578,-0.10803c0.08749,-0.23066 0.540495,-1.367415 0.673674,-2.144068c0.021387,-0.084673 0.015554,-0.195623 0.015554,-0.363022c-0.017498,-0.534314 -0.266359,-1.691507 -1.583572,-4.710527c-0.205116,-0.409738 -0.752415,-1.431649 -1.674951,-1.852093c-0.095267,-0.045743 -0.244972,-0.150854 -0.390789,-0.265697c-0.159426,-1.051109 -0.4462,-3.154301 -0.461754,-3.208803c-0.217753,-1.141621 -1.093627,-3.047243 -2.982442,-3.731437c-0.320797,-0.628719 -0.938089,-1.834575 -0.938089,-1.834575l-0.22553,-0.193677c-0.266359,-0.207302 -1.559269,-1.236999 -2.890092,-1.522161c0,0 -0.951698,-0.211196 -1.872289,-0.435043c0.410231,-1.802457 1.254997,-5.576718 1.254997,-5.576718c0,0 -1.097515,-9.713027 -1.143204,-10.72034c0.636734,-0.748429 4.565042,-5.773315 4.667114,-5.888158c0.457865,-0.408765 1.545659,-1.46766 1.836321,-2.655998c0.235251,-0.990767 2.641231,-7.186472 3.191447,-7.983563c0.579379,-0.829208 4.671002,-6.149962 6.244853,-8.189892c0.290662,-0.42239 1.75272,-2.60461 1.677867,-4.434027c-0.034024,-1.084199 1.334711,-3.958302 1.378456,-6.12456l0.007777,-0.462293l-0.237195,-0.3711zm-114.649054,80.459585c-2.619845,-1.108531 -5.812264,-1.055002 -9.107726,0.166426c-0.135124,0.04185 -2.178505,1.62046 -2.178505,1.62046c7.535819,-0.959624 12.106694,1.80927 13.873995,3.119264c1.768274,1.324592 3.344069,2.11779 3.344069,2.11779c-1.372624,0.216061 -10.070118,-2.38738 -10.070118,-2.38738c2.657757,1.972776 3.921503,3.479366 9.267153,3.965017c5.36023,0.50317 6.874782,-0.243312 9.605447,-1.017045c2.717056,-0.809744 7.774959,-3.739224 7.774959,-3.739224c-1.386233,-0.133335 -5.980438,-3.569878 -5.980438,-3.569878c-5.859897,4.337772 -13.904131,0.838941 -16.528836,-0.27543zm109.626808,28.50647c-0.044838,0.090151 -0.123306,0.1895 -0.136758,0.224456c0,0 0.136758,-0.189499 0.136758,-0.224456zm-3.126278,-47.299931c-0.013452,0 -0.078468,-0.029179 -0.078468,-0.029179c0.031387,0 0.053806,0.04938 0.105371,0.044891l-0.026903,-0.015712l0,0z"/>
       <path fill="#B49154" id="path178" d="m102.094974,57.316788c-0.300383,-0.473291 -1.304576,-2.049955 -2.136704,-2.662031c-0.221642,-0.16954 -0.82338,-0.910864 -1.36193,-1.671945c-0.230391,-1.025707 -0.945866,-4.061466 -1.983111,-5.84261l-1.220974,-1.938518c-0.903093,-1.391746 -1.928672,-2.96948 -2.183365,-3.970857l-0.448144,-2.556725c-0.466615,-3.07868 -0.800049,-5.022842 -1.537883,-5.926212c-0.768941,-0.958748 -3.658061,-3.504768 -4.693361,-4.410766c-0.246917,-0.585798 -2.404035,-5.849325 -2.404035,-5.849325l-0.298439,-0.239127c-1.179173,-0.947069 -7.02546,-4.503614 -7.581509,-4.895541c-0.931284,-0.64254 -1.81299,-0.45733 -2.531382,-0.291197l-0.612431,0.11971c-1.090711,0.182095 -4.879035,2.009954 -4.879035,2.009954c-1.307492,0.851593 -3.96622,3.2562 -3.96622,3.2562c-0.594934,1.185418 -1.321102,3.005686 -1.302632,3.892316c0.078741,1.955939 1.018775,6.184999 2.121151,7.535772c1.11793,1.389994 5.802542,3.806377 6.867005,4.072074c0.403427,0.113676 2.941614,0.747456 6.667723,-0.957677c1.081962,1.31885 2.231971,4.768921 2.762745,5.255546c0.549244,0.520494 2.195031,1.38688 2.903701,1.779294c1.860624,4.998511 3.71736,9.960914 3.768882,11.050175c0,0 0.611459,2.466895 0.622152,2.59731c0.025275,0.883905 -0.006805,2.550984 -1.429006,3.463016c-0.972113,0.620835 -8.696522,5.533116 -11.496207,6.346655c-2.527494,0.72692 -5.803514,2.670401 -7.577621,3.880248c-0.991555,-0.379568 -2.883286,-1.862605 -4.471719,-0.997776c-0.706726,-0.287789 -1.828544,-1.058797 -3.426698,-0.681274c-0.52008,-2.503002 -1.669118,-10.030112 -1.669118,-10.030112c-0.103044,-0.565361 -0.902121,-6.661113 -1.386233,-10.384569l-0.011665,-0.125452l-0.05055,-0.124674c-0.29455,-0.950767 -1.347349,-4.099423 -2.433199,-5.266154c-0.723252,-0.764195 -4.054683,-4.695927 -5.703386,-6.668704l-0.354821,-0.429203c0,0 -3.802906,-0.626869 -5.771435,-0.956898c0.52008,-1.508536 1.263747,-3.654648 1.263747,-3.654648l-0.016526,-0.283216c-0.021387,-0.584728 -0.099156,-2.035843 -0.473419,-2.85055c-0.135124,-0.313289 -0.296494,-1.135587 -0.311076,-1.722553c-0.007777,-0.198446 0,-0.385504 0.020414,-0.504144c0.128319,-0.424239 1.049882,-2.138131 1.554409,-3.051233l0.994471,-1.92791c0.49675,-1.071742 0.615348,-2.907971 0.572575,-4.23558c-0.010694,-0.445943 -0.051522,-0.848479 -0.107905,-1.138605c-0.123458,-0.818502 -0.817547,-6.51201 -1.065435,-8.626881l-0.106933,-0.92157l-6.292487,-2.324411l-0.35871,0.042921c-0.197338,0.020535 -5.108453,0.630762 -7.795373,3.079457c-2.408896,2.192439 -3.28963,2.810647 -3.367399,2.891232l-0.575491,0.714365l0.367459,0.835242c1.403731,3.306031 3.274076,8.233884 4.169392,9.21959c0.000972,0.217132 -0.177897,0.79495 -0.587156,1.307074c-0.769914,0.980841 -1.364847,2.46816 -1.304576,4.00969c0.015554,0.47222 0.121514,0.948236 0.273164,1.42688c-0.210949,0.600593 -0.734917,1.960124 -1.1364,3.068753c-0.953643,-0.119807 -3.318794,0.361172 -3.318794,0.361172l-10.923633,4.131346l-2.953279,4.266725c0,0 3.538491,7.457911 4.24619,8.957689c-0.450089,0.483607 -0.913787,0.985804 -0.913787,0.985804l-0.088462,0.083602c-0.645483,0.670666 -0.822407,1.210916 -0.775746,2.430495c0.017498,0.72001 0.364542,1.584158 0.723252,2.307671c-2.091987,1.241672 -6.157363,3.722679 -7.691357,4.951795c-1.732306,1.420652 -2.261135,2.770646 -2.212529,4.034021c0.025275,0.865997 0.325658,1.69141 0.693116,2.456286c0.129291,0.28633 1.080018,1.247025 1.122791,1.381236c-0.978918,1.814136 -8.583758,16.92967 -8.869559,23.386206c-0.056382,1.262304 -0.582295,3.681801 -0.535634,5.059922c0.214837,5.985483 1.886871,11.990431 3.458778,16.081971c0.792272,2.093459 2.510967,4.476946 4.402699,6.685249c-1.43095,1.666203 -3.926364,5.007367 -4.648644,8.531503c-1.024607,5.034618 1.638983,7.535869 2.364179,8.37189c0.715475,0.831154 5.671307,4.781573 8.969686,5.177686c0,0 -5.821985,-3.757716 -7.34723,-7.828817c-1.521356,-4.075968 0.769914,-7.269199 0.769914,-7.269199c0,0 0.974057,7.895971 3.458778,10.213278c2.499302,2.316333 6.51024,3.728517 6.51024,3.728517c0,0 2.975638,1.893944 4.97819,3.722679c-1.042105,-0.507063 -2.770522,-1.007313 -5.069569,-1.306101c0,0 -2.777326,3.89689 -4.460054,4.806878c-1.697309,0.926534 -11.764511,3.019993 -11.764511,3.019993c0,0 9.480046,0.516795 12.052257,0.586869c2.589708,0.084673 7.479436,-2.682275 9.509208,-3.600049c1.070296,-0.494411 1.372624,-1.105611 1.312353,-1.667176c0.044717,0.084673 -0.973085,-5.01126 -0.973085,-5.01126c0,0 -3.239081,-2.193704 -5.917252,-4.847755c-2.142537,-2.124603 -2.787047,-5.749956 -2.293214,-8.197678c0.05055,-0.274456 0.118598,-0.520688 0.204144,-0.753295c-0.016526,0 0.16137,0.151827 0.544383,0.488571c0.434534,0.400006 0.948782,0.862299 1.502886,1.35671c0.161371,0.143067 0.386901,0.343557 0.343156,0.298787l-0.185673,0.852567l-0.283857,1.311939c0,0 1.695365,4.065263 2.573183,4.894471c0.907953,0.845753 5.112341,2.919748 5.112341,2.919748c0,0 -3.062155,-3.853094 -3.27602,-4.875979c-0.075825,-0.368862 -0.086518,-1.027751 -0.078741,-1.73141c1.676894,1.443328 3.112705,2.613174 3.54724,2.818529c1.101404,0.492464 8.279486,1.05111 10.994597,1.04819c0.147761,0.199516 0.323714,0.399032 0.514248,0.641371c-1.313325,-0.211195 -2.556657,-0.356209 -3.204084,-0.338691c-2.130872,0.087593 -4.748772,2.196624 -5.453554,2.961598l-3.140897,3.398586l4.534907,-0.896362c0.594933,-0.115817 2.394314,-0.35329 3.522937,-0.138202c1.695365,0.321172 6.68036,2.373755 7.510545,3.316834l1.08585,1.322645c1.95103,2.384461 3.920531,4.732911 5.702414,6.597657c-1.777994,-0.085646 -3.731941,0.057422 -5.521601,0.6949c-5.124008,1.868638 -5.751992,6.749483 -5.781156,6.94316l-0.438423,3.711972l2.890092,-2.367915c1.318185,-1.069601 3.246857,-2.239446 4.009966,-2.274483c1.581628,-0.054502 8.361143,1.859879 9.41783,2.655997c0.389817,0.307547 1.299715,0.943078 2.375844,1.619486c-1.163619,0.173239 -2.289326,0.398059 -3.026188,0.717285c-2.231971,0.913881 -3.938029,6.664811 -3.938029,6.664811c1.859652,-0.817529 4.321042,-1.651604 5.022907,-1.614621c0.506471,0.056449 2.629566,0.875925 4.184946,1.4735c1.309437,0.510956 2.426394,0.934319 3.402396,1.280796c-2.350569,1.197096 -2.542076,1.600022 -2.719,1.96499l-0.150678,0.306574c-3.966221,8.232715 -4.474636,10.91499 -4.442556,12.131551c0.000972,0.057422 0,0.118737 0.012638,0.174212l0.439395,4.845808l2.373899,-4.235581c1.264719,-2.245286 2.85218,-4.882791 3.311989,-5.386934l0.196367,-0.206329c0.698949,-0.745509 0.914758,-0.982009 1.767301,-1.080307c0.632846,-0.08078 2.165868,0.071047 3.605567,0.246232c-0.711586,1.374228 -1.807158,3.182525 -3.003829,4.264778l-2.318489,2.111951l3.089375,0.492464c0.134151,0.027251 2.657756,0.390273 6.021267,-1.141621c0.023331,0.445748 0.039857,0.88663 0.095267,1.35087c0.25761,2.373755 2.376816,5.273064 4.036213,6.177213l2.744275,1.525081l-0.532718,-3.094932c-0.148733,-0.904149 -0.27608,-1.884211 -0.288718,-2.407819c-0.011665,-0.068127 0.003889,-0.099271 -0.000972,-0.145987c0.184702,-0.297814 0.719364,-0.926533 1.514552,-1.287609c0.763109,-0.330905 4.165504,-1.279823 8.664443,-2.425337c1.987971,-0.50025 3.520993,-1.543573 5.280517,-3.595183c0.022359,-0.022384 1.17334,-1.385907 1.952003,-2.898336c0.413148,0.224821 0.831156,0.478839 1.129595,0.713392c0.84671,0.692953 2.923144,3.66039 3.153534,4.389354c0.506471,1.751848 3.753328,3.953338 5.462303,4.367942l2.095875,0.47008l-0.996415,-8.233689c-0.209005,-2.23166 -1.418313,-4.984982 -2.571239,-7.373336c-0.798105,-1.638952 -2.398203,-2.73775 -3.725137,-3.349924c0.744639,-2.494438 1.576767,-5.028779 1.851875,-5.503724c0.655205,-1.01218 2.312657,-4.302735 2.59943,-5.613702c0.052494,-0.254018 0.068048,-0.61412 0.053467,-1.04235c-0.065132,-1.915354 -0.82338,-5.068682 -1.620513,-6.425391c-0.500638,-0.841861 -1.589404,-4.038985 -2.20378,-6.012734c0.022359,-0.483705 0.264415,-6.67357 0.264415,-6.67357c0,0 -0.598822,-5.249707 -0.70867,-6.128551c0.418008,-0.680301 1.97825,-3.219508 1.97825,-3.219508l0.049577,-0.109004c0.08749,-0.229687 0.540495,-1.367415 0.673675,-2.144068c0.020414,-0.084673 0.014581,-0.19465 0.014581,-0.363022c-0.016526,-0.534314 -0.264414,-1.691507 -1.5826,-4.710526c-0.205115,-0.409738 -0.752415,-1.430677 -1.67495,-1.85112c-0.094295,-0.046716 -0.244973,-0.151827 -0.389817,-0.265697c-0.160399,-1.052083 -0.447172,-3.155275 -0.462726,-3.209776c-0.218726,-1.141622 -1.092655,-3.046271 -2.982443,-3.731438c-0.319825,-0.628719 -0.938089,-1.835548 -0.938089,-1.835548l-0.226502,-0.192703c-0.265387,-0.206329 -1.558297,-1.237 -2.88912,-1.522162c0,0 -0.951698,-0.211195 -1.871317,-0.435043c0.40926,-1.802457 1.254026,-5.576718 1.254026,-5.576718c0,0 -1.097516,-9.712054 -1.143205,-10.719367c0.635762,-0.749402 4.56407,-5.774288 4.667114,-5.888158c0.457865,-0.409738 1.54566,-1.468633 1.836321,-2.65697c0.235252,-0.989795 2.640259,-7.186473 3.191447,-7.983564c0.579379,-0.829208 4.670031,-6.148988 6.244854,-8.18999c0.289689,-0.42239 1.751747,-2.603441 1.677866,-4.435194c-0.034023,-1.083031 1.334712,-3.957231 1.378457,-6.123489l0.008749,-0.461515l-0.238168,-0.371392zm-114.649054,80.460267c-2.619844,-1.110478 -5.812263,-1.055976 -9.106754,0.165452c-0.135124,0.042823 -2.179477,1.62046 -2.179477,1.62046c7.535819,-0.959624 12.107667,1.80927 13.873996,3.120237c1.769245,1.324592 3.344068,2.116817 3.344068,2.116817c-1.371651,0.216061 -10.070118,-2.38738 -10.070118,-2.38738c2.657757,1.973749 3.921504,3.480339 9.268125,3.965017c5.359259,0.50317 6.87381,-0.243312 9.604476,-1.017045c2.717055,-0.80877 7.775931,-3.739224 7.775931,-3.739224c-1.387205,-0.133335 -5.981411,-3.569878 -5.981411,-3.569878c-5.859897,4.337772 -13.904131,0.838941 -16.528836,-0.274456zm109.629051,28.505497c-0.047081,0.09015 -0.125549,0.189499 -0.139,0.224455c0,0 0.136758,-0.189499 0.139,-0.224455zm-3.127549,-47.299932c-0.013451,0 -0.078468,-0.029179 -0.078468,-0.029179c0.029146,0 0.049323,0.04938 0.105371,0.044891l-0.026903,-0.015712zm10.536033,-60.77054c-0.053466,1.504351 -0.55216,3.147488 -0.954615,4.453394c-0.164287,0.556991 -0.389817,1.319921 -0.426757,1.572771c0,-0.010609 0.014582,-0.028127 0.014582,-0.043699l-0.015554,0.071826l0.007777,-0.017519c0.064159,2.345725 -1.42609,4.767072 -2.067684,5.680272l-0.029164,0.058103l-0.042773,0.030073c-3.45975,4.492714 -5.730606,7.489348 -6.15153,8.077191c-0.495778,0.853539 -2.654841,6.371862 -2.899813,7.310075c-0.373292,1.499777 -1.418313,2.738723 -2.297103,3.561119c-0.104016,0.118736 -0.782551,0.989794 -0.782551,0.989794c0,0 -2.470139,3.110505 -3.27116,4.155774c0.150678,1.709026 0.612431,5.94266 1.050854,9.786021l0.039857,0.366915c0,0 -0.494806,2.221928 -0.872958,3.869639c1.599126,0.388327 3.001885,1.427757 3.555017,1.871559l0.580352,0.489544c0,0 0.527857,1.03651 0.806853,1.568878c2.076434,1.137728 3.190475,3.301261 3.513217,4.957731c0.014581,0.046716 0.201227,1.39856 0.341211,2.374728c1.059603,0.73675 1.726473,1.798565 2.018107,2.459401c1.53691,3.505644 1.760496,4.763082 1.786743,5.538762l-0.034996,0.804877c-0.159426,0.945998 -0.614375,2.115844 -0.811714,2.583977l-0.107905,0.291001c0,0 -1.183061,1.917301 -1.676895,2.744563c0.129291,1.148434 0.640623,5.535842 0.640623,5.535842c0,0 -0.230391,5.782073 -0.262471,6.466268c0.828241,2.605388 1.621485,4.77768 1.89076,5.213696c1.037245,1.763527 1.842154,5.331459 1.91409,7.436597l-0.099155,1.582503c-0.356766,1.647711 -2.09782,5.049218 -2.814267,6.214197c-0.144845,0.277376 -0.572575,1.496857 -1.176257,3.459901c1.121819,0.750375 2.349597,1.820949 3.105901,3.402479c1.236528,2.564512 2.525549,5.51443 2.781215,8.094514c-0.002916,-0.044769 0.97989,8.186973 0.97989,8.186973l0.361626,3.038484l-5.073457,-1.1533c-2.300992,-0.536261 -6.275961,-3.161114 -7.067261,-5.871613c0.02333,0.04185 0.051522,0.133335 0.051522,0.133335c-0.18373,-0.427256 -1.057659,-1.687614 -1.744943,-2.585923c-0.472447,0.643318 -0.825324,1.058895 -0.830184,1.065708c-2.04241,2.383487 -3.953584,3.670123 -6.392615,4.289109c-5.273713,1.330432 -7.846896,2.093459 -8.291151,2.309521c-0.079713,0.017518 -0.124431,0.0691 -0.18859,0.116789c0.046661,0.410712 0.113737,0.884684 0.189562,1.363523l1.312352,7.531975l-3.943862,-2.178131l-2.74233,-1.520216c-1.904369,-1.043323 -4.079958,-3.750902 -4.880007,-6.524663c-2.520689,0.640398 -4.322986,0.418498 -4.571847,0.378594c0,0 -3.999273,-0.651103 -4.84015,-0.781519c-0.670758,1.20391 -5.381618,9.582612 -5.381618,9.582612l-1.036272,-11.788968c-0.011665,-0.040876 -0.026247,-0.30268 -0.026247,-0.30268c-0.058327,-1.594182 0.452033,-4.413686 4.647672,-13.144704c0,0.007786 0.150677,-0.302681 0.150677,-0.302681c0.061243,-0.143068 0.161371,-0.253045 0.237196,-0.382487c-0.962392,-0.377621 -2.64998,-1.027751 -3.294491,-1.19807c-0.594933,0.110951 -2.310712,0.659863 -4.019687,1.413158l-4.252022,1.849174l1.311381,-4.443856c0.409259,-1.345031 1.750775,-5.302262 3.943862,-7.236108c-2.086155,-0.711446 -5.502159,-1.611701 -6.51024,-1.652578c-0.463698,0.151827 -1.73425,0.879818 -2.826905,1.784939l-7.029348,5.738278l1.069324,-9.016181c0.275108,-2.364022 2.09782,-6.86238 7.186831,-8.7135c0.544383,-0.20049 1.14126,-0.333825 1.742998,-0.460347c-1.023635,-1.210722 -2.007413,-2.402953 -2.862872,-3.440436c0.006804,0.003893 -0.790328,-0.952811 -0.987667,-1.202936c-0.786439,-0.652077 -4.947083,-2.408792 -6.341093,-2.675463c-0.614375,-0.124575 -2.002552,0.003893 -2.714139,0.130416c0,0 -1.897564,0.376647 -3.222554,0.634558c0.011665,0.045743 0.102072,0.384434 0.102072,0.384434l-0.241085,0.062288c0.062216,0.37762 0.078742,0.743562 0.017499,1.11729c-0.138041,0.893443 -0.70381,2.12071 -2.535271,2.969383l-1.381372,0.663756c-3.412117,1.697347 -6.666751,3.218536 -9.08634,3.151381l-19.537525,-1.676908l7.161556,-2.338718c-1.470807,0.206329 -3.304212,0.254018 -5.972662,0.006813c-5.292183,-0.495384 -7.198497,-1.971803 -9.419775,-3.678882c0,0 -2.185309,-3.216589 -2.189198,-3.128023c-1.839237,-0.403899 -1.697309,-0.35037 -4.337568,-0.018492l-7.879947,1.005366l6.295403,-4.850674c2.305852,-1.790779 2.400147,-1.827762 2.753996,-1.957204c3.769854,-1.39272 7.57276,-1.447222 10.69227,-0.112897l0.104016,0.034064c2.351541,1.00342 8.213382,3.472553 12.862998,1.310966c-0.08749,-0.079806 -0.159426,-0.160586 -0.21192,-0.22774l-0.153594,-0.15864c-0.768941,-0.864245 -2.8201,-3.134835 -2.952307,-7.008367c-0.033052,-0.919721 0.031108,-1.938713 0.250805,-3.01318c0.652288,-3.16598 2.485693,-6.112978 4.001217,-8.123711c-1.747859,-2.205383 -2.99994,-4.189838 -3.636675,-5.894971c-1.246248,-3.242867 -3.354761,-9.718867 -3.605566,-16.791469c-0.036941,-0.997581 0.13804,-2.23458 0.319825,-3.442383l0.213865,-1.798564c0.277052,-6.256046 6.414001,-18.913153 8.460299,-22.982308c-0.214838,-0.272607 -0.394678,-0.505311 -0.511332,-0.757285c-0.366487,-0.770619 -0.849627,-1.936669 -0.896288,-3.297271c-0.081657,-2.159835 0.92934,-4.115774 3.016466,-5.789763c1.313325,-1.053055 4.144118,-2.837216 6.391643,-4.204728c-0.127347,-0.453534 -0.209977,-0.900256 -0.22553,-1.306977c-0.051522,-1.475543 0.155538,-2.717117 1.34832,-3.961124c-0.904065,-1.930829 -4.147034,-8.781628 -4.147034,-8.781628l4.048851,-5.846308l11.717849,-4.430231l0.171092,-0.031144c0.471475,-0.10005 1.334711,-0.267643 2.221278,-0.352024c0.19345,-0.53081 0.278024,-0.719328 0.399538,-1.08926c-0.089434,-0.411685 -0.162343,-0.82152 -0.169147,-1.219579c-0.070965,-1.80927 0.546327,-3.726474 1.620512,-5.200071c-0.645483,-1.177339 -1.443588,-3.033423 -2.628593,-5.896917l-1.103349,-2.662713c-0.005832,0.003796 -0.872957,-2.040027 -0.872957,-2.040027l1.395954,-1.720705c0.003889,0.001168 0.562854,-0.518547 0.562854,-0.518547l3.041741,-2.617067c0.606598,-0.557769 1.30652,-1.033688 2.021995,-1.439339c0,0 2.964944,-1.309409 4.32007,-1.695594c1.359014,-0.38823 2.712195,-0.612077 2.712195,-0.612077c0,0 5.996964,1.225224 8.942466,4.072756l0.129291,1.127218c0.443284,3.697276 0.96142,7.932759 1.063492,8.562744l0.120542,1.397488c0.042773,0.993785 0.03694,3.478198 -0.749499,5.213696l-0.030136,0.063164l-1.033356,1.967034c-0.310104,0.561468 -1.083905,2.001974 -1.321101,2.541057c0.031107,0.341805 0.109849,0.789305 0.154566,0.915146l-0.01361,-0.046035c0.45981,1.047411 0.610487,2.568502 0.654232,3.645889l0.016526,0.678258c0,0 -0.367458,1.067849 -0.554104,1.621433c1.596209,0.270661 4.034268,0.665702 4.034268,0.665702l0.864209,1.038555c1.90923,2.274678 4.985967,5.896917 5.635339,6.573325c1.317213,1.399338 2.386537,4.422542 2.911478,6.09838l0.098183,0.302583l0.038885,0.313678c0.588128,4.534368 1.281244,9.726361 1.373595,10.25104l0.01847,0.086619c0.006805,0.068127 0.766025,5.044253 1.318185,8.190963c0.721308,0.099174 1.315269,0.329931 1.779939,0.539083c1.640927,-0.349397 3.176865,0.319323 4.197584,0.84585c2.087126,-1.328679 4.846955,-2.828456 7.114894,-3.486178c1.506775,-0.432999 5.651865,-2.748651 10.847808,-6.041056l0.099156,-0.053528c0.202199,-0.130416 0.418981,-0.436113 0.404399,-1.410141c-0.048606,-0.248179 -0.599794,-2.496579 -0.599794,-2.496579l-0.012637,-0.261512l0.00486,0.057324c-0.131235,-0.993006 -1.959779,-5.919302 -3.352817,-9.679255c-1.149038,-0.629498 -2.086155,-1.179287 -2.639287,-1.694427c-0.531746,-0.502976 -0.852543,-1.206635 -1.493165,-2.626605c-0.2022,-0.455481 -0.460782,-1.026876 -0.709643,-1.558367c-2.911478,0.93938 -5.110397,0.694997 -6.276933,0.409057c-1.270551,-0.319323 -6.453857,-2.87712 -8.024792,-4.819433c-1.566074,-1.933263 -2.512912,-6.769046 -2.58582,-8.831459c-0.055411,-1.578512 1.043077,-3.96492 1.525245,-4.924835l0.184701,-0.352025l0.300383,-0.279419c0.281913,-0.258885 2.814267,-2.539208 4.21411,-3.464962l0.114709,-0.081753l0.13318,-0.063067c1.227778,-0.580154 4.201472,-1.980757 5.475912,-2.193606c-0.067076,0.013625 0.53369,-0.107252 0.53369,-0.107252c0.848654,-0.175964 2.494441,-0.537915 4.196611,0.65996c-0.006805,-0.006813 1.527189,0.95466 1.527189,0.95466c2.760801,1.719926 5.308709,3.312064 6.166113,4.012025l0.739778,0.587746c0,0 2.085182,5.106541 2.418617,5.902562c1.517468,1.342013 3.790268,3.383209 4.567958,4.349645c1.103348,1.357585 1.478584,3.526861 1.993804,6.943841c-0.003889,-0.036886 0.329546,1.873505 0.418981,2.388646c0.178868,0.665703 1.241388,2.301637 1.890759,3.290458c0.016526,0.026181 1.238472,1.97083 1.238472,1.97083c1.079045,1.86095 1.811046,4.602398 2.151286,6.08164c0.376208,0.479033 0.677563,0.844002 0.765053,0.920012c0.964336,0.767602 1.926728,2.141149 2.569294,3.17182l0.577435,0.937141l-0.025275,1.106682l0,0z"/>
       <path fill="#231F20" id="path198" d="m98.742156,58.651989c-0.457865,-1.131013 -1.116957,-1.138702 -2.508051,-1.257633c-1.407619,-0.112897 -3.495718,3.671291 -3.495718,3.671291l-1.866457,0.401854c0,0 -2.571238,1.729464 -3.997328,3.022037c-1.44456,1.278947 -6.620089,6.518726 -9.814452,9.021923c0,0 6.537459,-2.874978 9.477129,-3.549246c0,0 -1.175285,1.513208 -2.443892,2.795951c-1.271524,1.289555 -8.254211,5.731465 -9.96999,8.425419c0,0 1.024607,6.430257 2.113373,7.05703c1.097516,0.615093 2.157119,1.319726 2.657757,1.88421c0.521052,0.557672 1.094599,0.496358 1.728417,-0.190757c0.633817,-0.684194 4.898477,-5.434623 5.211497,-6.022466c0.302327,-0.585896 1.253054,-1.686641 1.61468,-2.942132c0.367458,-1.257438 3.435447,-7.369444 4.934445,-9.15049c1.49997,-1.786107 4.586429,-5.113354 5.170668,-6.9344c0.587157,-1.836619 1.638983,-5.088342 1.187922,-6.232591l0,0zm-60.715256,1.244688c0.021386,0.066084 6.233188,1.235151 8.652777,7.133917l-1.535939,-5.701489l-1.254025,-2.301539c0,0 -1.776051,1.141621 -2.443892,1.251501c-0.854488,0.125452 -3.474332,-0.452366 -3.418921,-0.38239l0,0zm2.451668,29.011587c2.654841,0.210222 6.411085,-0.11971 7.703995,-1.095879c1.289022,-0.971303 5.871562,-1.22824 7.215995,-0.666676c0,0 1.1364,0.259858 1.72064,-0.373727c0.581323,-0.630666 2.75594,-8.459483 2.75594,-8.459483c0,0 -2.170729,-3.605888 -3.000913,-4.086673c-0.575491,-0.332851 -1.888815,-0.338691 -3.087431,-0.144041l-1.526217,0.445748c0.453977,-0.584923 1.083906,-1.35087 1.896592,-2.04285c0,0 -0.960447,-24.802284 -1.280272,-25.370661c-0.645483,-1.124201 -1.359014,-2.12363 -2.077406,-2.687141c-1.151953,-0.870182 -3.626953,-4.362104 -3.626953,-4.362104l-10.84878,-1.131012c0,0 -3.368372,5.424015 -3.916643,6.97625c-0.573547,1.552625 2.074489,9.724901 2.074489,9.724901c0,0 5.165808,1.858614 5.470079,1.841193c0.3033,0.001071 3.485025,-2.269714 3.485025,-2.269714c0,0 -1.559269,-3.718494 -0.209976,-5.810201c0,0 0.642566,3.556155 1.610791,4.848046c0.958503,1.290237 3.192419,4.067793 3.192419,4.067793l2.340847,16.763439c0,0 -2.272799,1.915355 -2.626649,3.466714c-0.091378,0.38638 -0.051522,0.942105 0.049578,1.58445l0.595905,2.43507c0.306216,0.982981 0.589101,1.746982 0.589101,1.746982c0,0 -0.18373,-0.179078 -0.45981,-0.513876c-0.79616,-0.95573 -2.327238,-3.120237 -2.413756,-5.59521c-0.104016,-2.931426 0.271219,-2.836048 0.371347,-2.757215c-0.25761,-0.245258 -5.744215,-5.217491 -11.568144,-6.597559c0,0 -1.55538,-0.091583 -2.458473,0.452464c-0.894344,0.5421 -2.204752,4.66381 -2.455557,5.899837c-0.27122,1.236999 -0.577435,6.858487 2.470138,12.259047c0,0 -2.823988,12.051745 -0.564797,18.090757c0,0 -3.310045,-6.915909 -3.617232,-9.868748c-0.313993,-2.941159 0.906009,-5.946552 0.906009,-5.946552l-3.306156,-9.486261l-0.041801,-2.550886c0,0 -7.773015,4.449696 -9.541288,6.041931c-1.780911,1.594183 -4.235496,5.844362 -4.761409,8.459483c-0.44134,2.218035 -1.663286,10.364131 -0.135124,19.002691c0,0 -2.881343,-9.082362 -2.867733,-17.461064c-0.003889,-8.37773 6.508296,-19.802703 6.508296,-19.802703c0,0 -6.444137,2.638479 -7.128504,3.182525c-0.698949,0.528475 -2.531382,2.220955 -3.090347,3.566959c-0.562854,1.354763 -5.011242,11.733493 -4.817792,17.134053c0.135124,3.558199 1.421229,8.44099 3.23422,12.739832c0.048606,0.093432 18.824505,6.497412 23.73122,8.137337l0.434535,0.671542l0.303299,0.748429l5.075402,9.802566c0,0 5.089983,5.937794 7.088647,7.60205c2.000609,1.650631 10.237321,6.366023 10.237321,6.366023c0,0 2.328211,5.532922 3.90109,9.359738c1.29291,3.147488 7.322926,12.197733 10.629082,16.463484c0.698949,0.904149 1.268608,1.594182 1.657453,1.97083c0,0 0.785467,-1.397586 3.646395,-0.781519c0.160399,0.040876 0.330519,0.061314 0.507443,0.118736c0,0 -1.215141,0.142095 -1.708974,0.563511c-0.492861,0.443802 -3.014522,6.95484 -4.051767,9.136864c-1.049882,2.196624 -2.310712,3.85796 -2.709279,4.292029c0,0 3.992468,-2.305627 4.504772,-2.711472c0.495777,-0.442828 4.148006,-6.180133 4.606843,-7.732465c0,0 4.298683,0.467159 6.018351,0.195623c1.723556,-0.262777 4.607815,-2.100272 5.306764,-2.846754c0.691173,-0.746482 1.611764,-3.419998 1.611764,-3.419998c0,0 1.524273,2.897363 2.069628,3.89397c0.542439,1.00634 3.203112,4.071102 3.529742,4.365996c0.30816,0.300734 2.082266,1.245759 2.610123,1.946499c0.537579,0.696846 3.25269,5.495938 5.232884,6.546074l-1.105292,-2.612201l-0.633818,-3.04335c0,0 -0.268303,-4.788386 -5.428278,-6.64048c0,0 1.59232,-6.795226 1.926727,-8.851701c0,0 2.089071,-4.05845 2.364179,-4.884738c0.274136,-0.81461 0.135124,-1.733357 -0.079713,-2.231661c-0.216781,-0.507063 -1.057659,-3.839468 -1.796465,-4.636559c0,0 -0.736862,-3.443356 -1.510663,-5.153355c0,0 0.333434,-5.008341 0.030135,-7.759716c-0.30816,-2.74651 -0.951699,-6.592791 -0.951699,-6.592791c0,0 2.324322,-3.146514 2.607207,-3.980589c0.272192,-0.828235 0.541467,-1.758661 0.215809,-2.450641c-0.335379,-0.709499 -1.859652,-3.413186 -3.090347,-3.979617c0,0 -0.750471,-0.683221 -0.557992,-1.304154c0.170119,-0.619959 0.615347,-2.369862 -0.02722,-3.268171c-0.642566,-0.895389 -1.074184,-1.390773 -3.195335,-0.801957c-2.111429,0.579083 -3.604594,-1.088093 -5.122063,-0.938212c-1.531078,0.163506 -2.250441,2.744563 -2.501246,4.374755c-0.248861,1.651604 -0.967253,1.476419 -1.758553,2.00684c-0.786439,0.53918 -2.392369,1.518269 -2.780242,4.687168c-0.080686,0.683221 -0.159427,1.35963 -0.223586,2.019493c0.006804,-0.00584 -0.005833,0 -0.092351,0.967409c-0.181785,2.053556 -0.353849,3.864773 -0.729085,4.723179c-0.568686,1.243812 -3.379064,2.466213 -4.188834,2.803931c-0.802966,0.330905 -0.843794,2.066208 -0.843794,2.066208l-1.791605,9.452197c0,0 -0.231363,2.255991 0.570631,4.986929c0.82824,2.733857 2.821071,12.749565 2.821071,12.749565l-6.168056,-21.103937c0,0 -1.006137,-2.505143 -0.658121,-3.949445c0.351905,-1.455981 3.833042,-15.354953 4.048851,-17.817274c0.219697,-2.455508 1.539827,-11.169008 1.539827,-11.169008c0,0 -7.947024,5.895944 -9.46838,6.249233c-1.510664,0.365942 -6.658974,-0.77276 -8.500156,-1.324592l3.042714,-3.16306c0,0 3.380036,-7.973831 3.987607,-10.870221c0.615347,-2.869139 -0.096239,-8.575299 -0.096239,-8.575299c0,0 -2.80163,4.701767 -4.180086,5.664311c-1.396926,0.974222 -4.641839,1.802457 -4.641839,1.802457c0,0 2.792881,-1.936766 4.091623,-5.554333c1.297771,-3.617568 0.86032,-7.280878 0.86032,-7.280878c0,0 -5.058875,1.102692 -6.747436,2.382515l-5.509935,-0.103165c0,0 -5.136645,-1.135782 -5.949332,-6.51785c0,0 0.182758,0.219954 0.495778,0.53626c0.873929,0.895389 2.77441,2.603442 4.730301,2.747483zm-21.445783,-23.516524c0,0 3.280881,2.403828 3.389758,5.280753c0,0 2.494442,-1.876327 3.904978,-1.6954c0,0 -3.004801,-4.221761 -5.875451,-4.360936l-1.419285,0.775583zm7.769127,-31.015507l-4.727385,1.845378c1.830488,2.958483 4.219942,8.272618 3.118538,9.37132c-1.108209,1.116219 0.03694,5.584406 0.240112,6.475903c0.195394,0.889647 -0.898233,1.670095 -1.764385,2.521688c-0.869069,0.850426 -8.768459,8.783575 -8.768459,8.783575c0,0 10.723378,-6.561841 12.177659,-7.502c1.433866,-0.952714 1.312352,-3.830612 0.928368,-5.210679c-0.37718,-1.38688 -0.06416,-3.091916 0.314964,-3.832558c0.380096,-0.755436 1.199588,-2.514098 0.964336,-4.544977c-0.236223,-2.04577 -2.483748,-7.90765 -2.483748,-7.90765l0,0zm58.700066,79.206819c-0.458837,-0.419471 -4.803209,-0.927507 -4.803209,-0.927507c0,0 -4.493106,0.927507 -5.231912,1.394666c-0.763109,0.486625 -1.442616,3.150408 -1.304576,4.040931c0.144845,0.877871 0.058327,4.536315 0.058327,4.536315c0,0 1.384289,-1.378121 1.801325,-2.060369c0.426758,-0.666675 0.757276,-3.781073 1.38915,-4.477919c0.629929,-0.690034 3.485024,-1.336272 3.485024,-1.336272l5.459387,0.909988c0,0 -0.403427,-1.655497 -0.853516,-2.079833l0,0zm15.443958,-49.309868c0.073881,1.831753 -1.388177,4.012804 -1.677866,4.435194c-1.574823,2.041002 -5.665475,7.360782 -6.244854,8.18999c-0.551188,0.797091 -2.956195,6.993769 -3.191447,7.983564c-0.290661,1.188337 -1.378456,2.247232 -1.836321,2.65697c-0.103044,0.11387 -4.031352,5.138756 -4.667114,5.888158c0.045689,1.007313 1.143205,10.719367 1.143205,10.719367c0,0 -0.844766,3.774261 -1.254026,5.576718c0.919619,0.223848 1.871317,0.435043 1.871317,0.435043c1.330823,0.285162 2.623733,1.315833 2.88912,1.522162l0.226502,0.192703c0,0 0.618264,1.206829 0.938089,1.835548c1.889788,0.685167 2.763717,2.589816 2.982443,3.731438c0.015554,0.054501 0.302327,2.157693 0.462726,3.209776c0.144844,0.11387 0.295522,0.218981 0.389817,0.265697c0.922535,0.420443 1.469835,1.441382 1.67495,1.85112c1.318186,3.019019 1.566074,4.176212 1.5826,4.710526c0,0.168372 0.005833,0.278349 -0.014581,0.363022c-0.13318,0.776653 -0.586185,1.914381 -0.673675,2.144068l-0.049577,0.109004c0,0 -1.560242,2.539207 -1.97825,3.219508c0.109848,0.878844 0.70867,6.128551 0.70867,6.128551c0,0 -0.242056,6.189865 -0.264415,6.67357c0.614376,1.973749 1.703142,5.170873 2.20378,6.012734c0.797133,1.356709 1.555381,4.510037 1.620513,6.425391c0.014581,0.42823 -0.000973,0.788332 -0.053467,1.04235c-0.286773,1.310967 -1.944225,4.601522 -2.59943,5.613702c-0.275108,0.474945 -1.107236,3.009286 -1.851875,5.503724c1.326934,0.612174 2.927032,1.710972 3.725137,3.349924c1.152926,2.388354 2.362234,5.141676 2.571239,7.373336l0.996415,8.233689l-2.095875,-0.47008c-1.708975,-0.414604 -4.955832,-2.616094 -5.462303,-4.367942c-0.23039,-0.728964 -2.306824,-3.696401 -3.153534,-4.389354c-0.298439,-0.234553 -0.716447,-0.488571 -1.129595,-0.713392c-0.778663,1.512429 -1.929644,2.875952 -1.952003,2.898336c-1.759524,2.05161 -3.292546,3.094933 -5.280517,3.595183c-4.498939,1.145514 -7.901334,2.094432 -8.664443,2.425337c-0.795188,0.361076 -1.32985,0.989795 -1.514552,1.287609c0.004861,0.046716 -0.010693,0.07786 0.000972,0.145987c0.012638,0.523608 0.139985,1.50367 0.288718,2.407819l0.532718,3.094932l-2.744275,-1.525081c-1.659397,-0.904149 -3.778603,-3.803458 -4.036213,-6.177213c-0.05541,-0.46424 -0.071936,-0.905122 -0.095267,-1.35087c-3.363511,1.531894 -5.887116,1.168872 -6.021267,1.141621l-3.089375,-0.492464l2.318489,-2.111951c1.196671,-1.082253 2.292243,-2.89055 3.003829,-4.264778c-1.439699,-0.175185 -2.972721,-0.327012 -3.605567,-0.246232c-0.852543,0.098298 -1.068352,0.334798 -1.767301,1.080307l-0.196367,0.206329c-0.459809,0.504143 -2.04727,3.141648 -3.311989,5.386934l-2.373899,4.235581l-0.439395,-4.845808c-0.012638,-0.055475 -0.011666,-0.11679 -0.012638,-0.174212c-0.03208,-1.216561 0.476335,-3.898836 4.442556,-12.131551l0.150678,-0.306574c0.176924,-0.364968 0.368431,-0.767894 2.719,-1.96499c-0.976002,-0.346477 -2.092959,-0.76984 -3.402396,-1.280796c-1.55538,-0.597575 -3.678475,-1.417051 -4.184946,-1.4735c-0.701865,-0.036983 -3.163255,0.797092 -5.022907,1.614621c0,0 1.706058,-5.75093 3.938029,-6.664811c0.736862,-0.319226 1.862569,-0.544046 3.026188,-0.717285c-1.076129,-0.676408 -1.986027,-1.311939 -2.375844,-1.619486c-1.056687,-0.796118 -7.836202,-2.710499 -9.41783,-2.655997c-0.763109,0.035037 -2.691781,1.204882 -4.009966,2.274483l-2.890092,2.367915l0.438423,-3.711972c0.029164,-0.193677 0.657148,-5.074522 5.781156,-6.94316c1.78966,-0.637478 3.743607,-0.780546 5.521601,-0.6949c-1.781883,-1.864746 -3.751384,-4.213196 -5.702414,-6.597657l-1.08585,-1.322645c-0.830185,-0.943079 -5.81518,-2.995662 -7.510545,-3.316834c-1.128623,-0.215088 -2.928004,0.022385 -3.522937,0.138202l-4.534907,0.896362l3.140897,-3.398586c0.704782,-0.764974 3.322682,-2.874005 5.453554,-2.961598c0.647427,-0.017518 1.890759,0.127496 3.204084,0.338691c-0.190534,-0.242339 -0.366487,-0.441855 -0.514248,-0.641371c-2.715111,0.00292 -9.893193,-0.555726 -10.994597,-1.04819c-0.434535,-0.205355 -1.870346,-1.375201 -3.54724,-2.818529c-0.005833,0 -0.005833,0 -0.005833,0c-0.008749,-0.00292 -0.022358,0 -0.033052,-0.025305c0.016526,0.025305 0.024303,0.022385 0.038885,0.025305c-0.007777,0.703659 0.002916,1.362548 0.078741,1.73141c0.213865,1.022885 3.27602,4.875979 3.27602,4.875979c0,0 -4.204388,-2.073995 -5.112341,-2.919748c-0.877818,-0.829208 -2.573183,-4.894471 -2.573183,-4.894471l0.283857,-1.311939l0.185673,-0.852567c0.043745,0.04477 -0.181785,-0.15572 -0.343156,-0.298787c-0.554104,-0.494411 -1.068352,-0.956704 -1.502886,-1.35671c-0.383013,-0.336744 -0.560909,-0.488571 -0.544383,-0.488571c-0.085546,0.232607 -0.153594,0.478839 -0.204144,0.753295c-0.493833,2.447722 0.150677,6.073075 2.293214,8.197678c2.678171,2.654051 5.917252,4.847755 5.917252,4.847755c0,0 1.017802,5.095933 0.973085,5.01126c0.060271,0.561565 -0.242057,1.172765 -1.312353,1.667176c-2.029772,0.917774 -6.9195,3.684722 -9.509208,3.600049c-2.572211,-0.070074 -12.052257,-0.586869 -12.052257,-0.586869c0,0 10.067202,-2.093459 11.764511,-3.019993c1.682728,-0.909988 4.460054,-4.806878 4.460054,-4.806878c2.299047,0.298788 4.027464,0.799038 5.069569,1.306101c-2.002552,-1.828735 -4.97819,-3.722679 -4.97819,-3.722679c0,0 -4.010938,-1.412184 -6.51024,-3.728517c-2.484721,-2.317307 -3.458778,-10.213278 -3.458778,-10.213278c0,0 -2.29127,3.193231 -0.769914,7.269199c1.525245,4.071101 7.34723,7.828817 7.34723,7.828817c-3.298379,-0.396113 -8.254211,-4.346532 -8.969686,-5.177686c-0.725196,-0.836021 -3.388786,-3.337272 -2.364179,-8.37189c0.72228,-3.524136 3.217694,-6.8653 4.648644,-8.531503c-1.891732,-2.208303 -3.610427,-4.59179 -4.402699,-6.685249c-1.571907,-4.09154 -3.243941,-10.096488 -3.458778,-16.081971c-0.046661,-1.378121 0.479252,-3.797618 0.535634,-5.059922c0.285801,-6.456536 7.890641,-21.57207 8.869559,-23.386206c-0.042773,-0.134211 -0.9935,-1.094906 -1.122791,-1.381236c-0.367458,-0.764876 -0.667841,-1.590289 -0.693116,-2.456286c-0.048606,-1.263375 0.480223,-2.613369 2.212529,-4.034021c1.533994,-1.229116 5.59937,-3.710123 7.691357,-4.951795c-0.35871,-0.723513 -0.705754,-1.587661 -0.723252,-2.307671c-0.046661,-1.219579 0.130263,-1.759829 0.775746,-2.430495l0.088462,-0.083602c0,0 0.463698,-0.502197 0.913787,-0.985804c-0.707699,-1.499778 -4.24619,-8.957689 -4.24619,-8.957689l2.953279,-4.266725l10.923633,-4.131346c0,0 2.365151,-0.480979 3.318794,-0.361172c0.401483,-1.108629 0.925451,-2.46816 1.1364,-3.068753c-0.15165,-0.478644 -0.25761,-0.95466 -0.273164,-1.42688c-0.060271,-1.54153 0.534662,-3.028849 1.304576,-4.00969c0.409259,-0.512124 0.588128,-1.089942 0.587156,-1.307074c-0.895316,-0.985706 -2.765661,-5.913559 -4.169392,-9.21959l-0.367459,-0.835242l0.575491,-0.714365c0.077769,-0.080585 0.958503,-0.698793 3.367399,-2.891232c2.68692,-2.448695 7.598035,-3.058922 7.795373,-3.079457l0.35871,-0.042921l6.292487,2.324411l0.106933,0.92157c0.247888,2.114871 0.941977,7.808379 1.065435,8.626881c0.056383,0.290126 0.097211,0.692662 0.107905,1.138605c0.042773,1.327609 -0.075825,3.163838 -0.572575,4.23558l-0.994471,1.92791c-0.504527,0.913102 -1.42609,2.626994 -1.554409,3.051233c-0.020414,0.11864 -0.028191,0.305698 -0.020414,0.504144c0.014582,0.586966 0.175952,1.409264 0.311076,1.722553c0.374263,0.814707 0.452032,2.265822 0.473419,2.85055l0.016526,0.283216c0,0 -0.743667,2.146112 -1.263747,3.654648c1.968529,0.330029 5.771435,0.956898 5.771435,0.956898l0.354821,0.429203c1.648703,1.972777 4.980134,5.904509 5.703386,6.668704c1.08585,1.166731 2.138649,4.315387 2.433199,5.266154l0.05055,0.124674l0.011665,0.125452c0.484112,3.723456 1.283189,9.819208 1.386233,10.384569c0,0 1.149038,7.52711 1.669118,10.030112c1.598154,-0.377523 2.719972,0.393485 3.426698,0.681274c1.588433,-0.864829 3.480164,0.618208 4.471719,0.997776c1.774107,-1.209847 5.050127,-3.153328 7.577621,-3.880248c2.799685,-0.813539 10.524094,-5.72582 11.496207,-6.346655c1.422201,-0.912032 1.454281,-2.579111 1.429006,-3.463016c-0.010693,-0.130415 -0.622152,-2.59731 -0.622152,-2.59731c-0.051522,-1.089261 -1.908258,-6.051664 -3.768882,-11.050175c-0.70867,-0.392414 -2.354457,-1.2588 -2.903701,-1.779294c-0.530774,-0.486625 -1.680783,-3.936696 -2.762745,-5.255546c-3.726109,1.705133 -6.264296,1.071353 -6.667723,0.957677c-1.064463,-0.265697 -5.749075,-2.68208 -6.867005,-4.072074c-1.102376,-1.350773 -2.04241,-5.579833 -2.121151,-7.535772c-0.01847,-0.88663 0.707698,-2.706898 1.302632,-3.892316c0,0 2.658728,-2.404607 3.96622,-3.2562c0,0 3.788324,-1.827859 4.879035,-2.009954l0.612431,-0.11971c0.718392,-0.166133 1.600098,-0.351343 2.531382,0.291197c0.556049,0.391927 6.402336,3.948472 7.581509,4.895541l0.298439,0.239127c0,0 2.157118,5.263527 2.404035,5.849325c1.0353,0.905998 3.92442,3.452018 4.693361,4.410766c0.737834,0.90337 1.071268,2.847532 1.537883,5.926212l0.448144,2.556725c0.254693,1.001377 1.280272,2.579111 2.183365,3.970857l1.220974,1.938518c1.037245,1.781144 1.75272,4.816903 1.983111,5.84261c0.53855,0.761081 1.140288,1.502405 1.36193,1.671945c0.832128,0.612076 1.836321,2.18874 2.136704,2.662031l0.238168,0.371392l-0.008749,0.461515c-0.043745,2.166258 -1.41248,5.040458 -1.378457,6.123489l0,0z"/>
       <path fill="#B49154" id="path180" d="m103.148995,64.194546c0,0.047884 -0.044891,0.101753 -0.044891,0.134374l-0.002993,0.08649l0.047884,-0.220864"/>
       <path fill="#231F20" id="path182" d="m18.936227,131.858677c0,0 0,0 0.017957,0c-0.044891,-0.008978 -0.068833,0 -0.11971,-0.077811c0.03292,0.077811 0.074819,0.068833 0.101753,0.077811"/>
       <path fill="#FFFFFF" id="path184" d="m77.411083,116.089169c-0.631874,0.696846 -0.962392,3.811244 -1.38915,4.477919c-0.417036,0.682248 -1.801325,2.060369 -1.801325,2.060369c0,0 0.086518,-3.658444 -0.058327,-4.536315c-0.13804,-0.890523 0.541467,-3.554306 1.304576,-4.040931c0.738806,-0.467159 5.231912,-1.394666 5.231912,-1.394666c0,0 4.344372,0.508036 4.803209,0.927507c0.450089,0.424336 0.853516,2.079833 0.853516,2.079833l-5.459387,-0.909988c0,0 -2.855095,0.646238 -3.485024,1.336272"/>
       <path fill="#FEF0C8" id="path186" d="m41.638299,86.510178c-2.721916,0.07494 -5.437027,-0.282243 -5.890032,-0.349397c-0.31302,-0.316306 -0.495778,-0.53626 -0.495778,-0.53626c0.812687,5.382068 5.949332,6.51785 5.949332,6.51785l5.509935,0.103165c1.688561,-1.279823 6.747436,-2.382515 6.747436,-2.382515c0,0 0.437451,3.66331 -0.86032,7.280878c-1.298742,3.617567 -4.091623,5.554333 -4.091623,5.554333c0,0 3.244913,-0.828235 4.641839,-1.802457c1.378456,-0.962544 4.180086,-5.664311 4.180086,-5.664311c0,0 0.711586,5.70616 0.096239,8.575299c-0.607571,2.89639 -3.987607,10.870221 -3.987607,10.870221l-3.042714,3.16306c1.841182,0.551832 6.989492,1.690534 8.500156,1.324592c1.521356,-0.353289 9.46838,-6.249233 9.46838,-6.249233c0,0 -1.32013,8.7135 -1.539827,11.169008c-0.215809,2.462321 -3.696946,16.361293 -4.048851,17.817274c-0.348016,1.444302 0.658121,3.949445 0.658121,3.949445l6.168056,21.103937c0,0 -1.992831,-10.015708 -2.821071,-12.749565c-0.801994,-2.730938 -0.570631,-4.986929 -0.570631,-4.986929l1.791605,-9.452197c0,0 0.040828,-1.735303 0.843794,-2.066208c0.80977,-0.337718 3.620148,-1.560119 4.188834,-2.803931c0.375236,-0.858406 0.5473,-2.669623 0.729085,-4.723179c0.086518,-0.967409 0.099155,-0.973249 0.092351,-0.967409c0.030135,0.116789 0.061243,0.235526 0.094294,0.340637c0.060271,0.176158 0.13318,0.348423 0.195395,0.522635c0.048606,0.126522 0.090407,0.254018 0.148733,0.37762c0.100128,0.248179 0.23428,0.472999 0.35871,0.724098c0.081658,0.121656 0.143873,0.262777 0.230391,0.390273c0.15651,0.246232 0.344128,0.472999 0.53369,0.702686c0.097211,0.111923 0.17012,0.226767 0.279968,0.337717c0.306216,0.313386 0.652288,0.610227 1.063492,0.857433c2.807462,1.797591 4.068293,-0.247206 5.004437,-1.572771l0.262471,-1.23408l2.773438,-2.762081l-2.33696,-3.137756c0,0 1.336656,-3.144568 1.639955,-3.81903c0.304271,-0.666676 2.990219,0.333825 2.990219,0.333825c0,0 0.501611,1.204882 0.609515,1.530921c0.103044,0.250125 1.322074,0.768866 1.919923,1.012179l-0.804909,0.017518c0,0 -0.741723,0.905122 -0.596878,2.059396c0.142901,1.148434 0.84185,2.0847 1.644815,2.823396c0.379124,0.353289 0.810743,0.354262 1.218058,0.218008c-0.219698,0.157666 -0.450088,0.297814 -0.590073,0.411684c-0.436478,0.352316 -3.098124,-2.865246 -3.098124,-2.865246c0,0 -0.556048,2.882764 -1.080017,3.587397c-0.535634,0.671542 -2.727749,1.302207 -3.368371,1.663283c0,0 -0.746583,1.981535 -1.563158,3.884238c-0.624096,2.523635 -1.496082,5.679882 -2.528466,8.21617l0,-0.006813c0,0 0,0.006813 -0.005832,0.006813c-0.110821,0.089539 -7.803151,7.608862 -8.757766,11.608917c-0.961419,4.020492 1.138345,3.823896 1.812991,3.911488c0,0 -1.021691,5.683776 -0.383985,7.882346c0,0 0.374264,-1.868639 0.852543,-3.9329c-0.291633,1.499777 -0.664925,3.61854 -0.664925,3.61854c0,0 2.320434,-3.088119 3.621121,-6.044851c0,0.327012 0.003888,0.652077 -0.01361,0.968383c0,0.15572 0.009721,0.292948 -0.006805,0.429203c-0.011665,0.400979 -0.034023,0.787359 -0.068047,1.173739c-0.197339,2.002947 -0.8924,3.957231 -3.173949,5.924168c-0.020415,0.019465 -0.047634,0.043796 -0.059299,0.058395c-0.06902,0.039903 -0.136096,0.099271 -0.186646,0.143068c-0.545355,0.447694 -1.157786,0.891496 -1.876178,1.332378c-2.860928,-0.616067 -3.646395,0.781519 -3.646395,0.781519c-0.388845,-0.376648 -0.958504,-1.066681 -1.657453,-1.97083c-6.494686,-10.350506 -13.12158,-29.068035 -13.12158,-29.068035c0,0 -12.58789,-7.945607 -14.228817,-9.128104c-1.460113,-1.049163 -8.024792,-9.671178 -9.566563,-11.710135c-0.212893,-0.274457 -0.317881,-0.436016 -0.317881,-0.436016l-0.434535,-0.671542c0.556049,4.570378 1.277357,7.639033 1.948115,9.711081c0,0 0,-0.003893 -0.003889,-0.003893c-4.144117,-0.427256 -10.236349,-3.681802 -13.326696,-5.386935c-0.205116,-0.11387 -0.399538,-0.242339 -0.627013,-0.397085c-0.093322,-0.071047 -0.200255,-0.142095 -0.301355,-0.221901c-0.133179,-0.097325 -0.265386,-0.190757 -0.402454,-0.296841c-0.129291,-0.101218 -0.25275,-0.214115 -0.384957,-0.315333c-0.12443,-0.107057 -0.249833,-0.197569 -0.379124,-0.313386c-0.149706,-0.128469 -0.297467,-0.260831 -0.452033,-0.400006c-0.116653,-0.10803 -0.244,-0.215088 -0.36843,-0.330904c-0.168176,-0.144041 -0.329547,-0.298788 -0.499666,-0.471053c-0.117626,-0.102191 -0.230391,-0.207302 -0.346073,-0.320199c-0.180813,-0.177131 -0.369402,-0.358156 -0.55702,-0.543073c-0.106933,-0.096352 -0.2022,-0.203409 -0.307188,-0.302681c-0.204144,-0.193676 -0.407315,-0.391246 -0.611459,-0.603414c-0.094295,-0.091485 -0.17498,-0.179078 -0.263443,-0.276403c-0.214837,-0.212168 -0.434534,-0.442828 -0.649371,-0.666676c-0.076797,-0.070074 -0.145817,-0.14988 -0.212893,-0.218007c-0.237195,-0.243313 -0.462726,-0.482732 -0.698949,-0.732857c-0.041801,-0.048663 -0.090406,-0.097325 -0.144845,-0.151827c-0.248861,-0.254991 -0.496749,-0.537234 -0.744638,-0.798064c-0.015554,-0.014599 -0.020415,-0.033091 -0.037913,-0.051583c-1.646759,-1.765474 -3.088402,-3.412211 -3.886507,-4.351397c-0.016526,-0.020438 -0.034024,-0.034064 -0.048606,-0.049636c-0.108876,-0.117763 -0.209004,-0.231633 -0.291634,-0.336744c-0.035968,-0.106084 -0.084573,-0.215088 -0.133179,-0.30852c-1.812991,-4.298842 -3.099096,-9.181633 -3.23422,-12.739832c-0.19345,-5.40056 4.254938,-15.77929 4.817792,-17.134053c0.558965,-1.346004 2.391398,-3.038484 3.090347,-3.566959c0.684367,-0.544046 7.128504,-3.182525 7.128504,-3.182525c0,0 -6.512185,11.424973 -6.508296,19.802703c-0.01361,8.378702 2.867733,17.461064 2.867733,17.461064c-1.528162,-8.63856 -0.306216,-16.784656 0.135124,-19.002691c0.525913,-2.615121 2.980498,-6.8653 4.761409,-8.459483c1.768273,-1.592235 9.541288,-6.041931 9.541288,-6.041931l0.041801,2.550886l3.306156,9.486261c0,0 -1.220002,3.005393 -0.906009,5.946552c0.307187,2.952839 3.617232,9.868748 3.617232,9.868748c-2.259191,-6.039012 0.564797,-18.090757 0.564797,-18.090757c-3.047573,-5.40056 -2.741358,-11.022048 -2.470138,-12.259047c0.250805,-1.236027 1.561213,-5.357737 2.455557,-5.899837c0.903093,-0.544047 2.458473,-0.452464 2.458473,-0.452464c5.823929,1.380068 11.310534,6.352301 11.568144,6.597559c-0.100128,-0.078833 -0.475363,-0.174211 -0.371347,2.757215c0.086518,2.474973 1.617596,4.63948 2.413756,5.59521c-0.275108,0.188811 -0.744638,0.577137 -1.578711,1.338218c-1.055715,0.972276 -3.172977,1.307074 -5.301904,1.377148"/>
       <path fill="#FEF0C8" id="path188" d="m48.029942,58.312033c0,0 -2.233916,-2.777556 -3.192419,-4.067793c-0.968225,-1.291891 -1.610791,-4.848046 -1.610791,-4.848046c-1.349293,2.091707 0.209976,5.810201 0.209976,5.810201c0,0 -3.181725,2.270785 -3.485025,2.269714c-0.304271,0.017421 -5.470079,-1.841193 -5.470079,-1.841193c0,0 -2.648036,-8.172276 -2.074489,-9.724901c0.548271,-1.552235 3.916643,-6.97625 3.916643,-6.97625l10.84878,1.131012c0,0 2.475,3.491922 3.626953,4.362104c0.718392,0.563511 1.431923,1.56294 2.014218,2.576093c0.023331,0.035037 0.037913,0.076789 0.063188,0.111048c0.057354,0.187058 0.125402,0.394263 0.175952,0.588913c0.051522,0.171 0.104016,0.358058 0.149705,0.550859c0.023331,0.098103 0.059299,0.209054 0.07777,0.323897c0.03694,0.174504 0.069992,0.350467 0.109848,0.541321c0.01847,0.122435 0.039857,0.251001 0.063188,0.372658c0.030135,0.170318 0.062215,0.354262 0.075824,0.528377c0.020415,0.15971 0.046662,0.296938 0.061243,0.444872c0.019443,0.163408 0.036941,0.316306 0.056383,0.484678c0.022359,0.162727 0.023331,0.328861 0.046661,0.494216c0.007777,0.140343 0.024303,0.294992 0.030136,0.437184c0.016526,0.189004 0.031108,0.381319 0.03694,0.566528c0.012638,0.127301 0.012638,0.256938 0.015554,0.37363c0.021387,0.199614 0.027219,0.407597 0.025275,0.613245c0.007777,0.10005 0.009721,0.210221 0.009721,0.307546c0.010693,0.21976 0.006805,0.444873 0.007777,0.652759c-0.002916,0.081753 -0.003888,0.150951 0.006805,0.236499c0,0.237668 0.000972,0.465311 -0.004861,0.694219c-0.013609,0.049441 -0.00486,0.101121 -0.005832,0.141024c-0.001945,0.258884 -0.008749,0.498401 -0.016526,0.730715c0.00486,0.019757 0,0.047884 0.002916,0.06842c-0.010693,0.233482 -0.025275,0.458108 -0.025275,0.665702c-0.006805,0.012555 -0.006805,0.035718 -0.008749,0.059271c-0.012637,0.434945 -0.031107,0.810522 -0.059299,1.101816c0.009721,0.014404 -0.000972,0.021216 -0.000972,0.021216c-0.025275,0.460444 -0.054438,0.728088 -0.054438,0.728088l0.489945,13.641061c0.011665,0.001947 0.014581,0.001947 0.014581,0.001947c-0.812686,0.69198 -1.442615,1.457927 -1.70703,1.808297c-0.109849,0.124576 -0.145817,0.200489 -0.145817,0.200489c0,0 -0.03694,0.025305 -0.043745,0.034064l-1.889788,0.547939l-2.340847,-16.763439"/>
       <path fill="#FEF0C8" id="path190" d="m28.00636,50.661418c0.383984,1.380067 0.505498,4.257965 -0.928368,5.210679c-1.454281,0.940159 -12.177659,7.502 -12.177659,7.502c0,0 7.89939,-7.933149 8.768459,-8.783575c0.866152,-0.851593 1.959779,-1.632041 1.764385,-2.521688c-0.203172,-0.891497 -1.348321,-5.359684 -0.240112,-6.475903c1.101404,-1.098702 -1.28805,-6.412837 -3.118538,-9.37132l4.727385,-1.845378c0,0 2.247525,5.86188 2.483748,7.90765c0.235252,2.030879 -0.58424,3.789541 -0.964336,4.544977c-0.379124,0.740642 -0.692144,2.445678 -0.314964,3.832558"/>
       <path fill="#FEEFAF" id="path192" d="m41.445821,60.279067c0.667841,-0.10988 2.443892,-1.251501 2.443892,-1.251501l1.254025,2.301539l1.535939,5.701489c-2.419589,-5.898766 -8.631391,-7.067833 -8.652777,-7.133917c-0.055411,-0.069976 2.564433,0.507842 3.418921,0.38239"/>
       <path fill="#FEF0C8" id="path194" d="m26.327521,68.977093c-1.410536,-0.180927 -3.904978,1.6954 -3.904978,1.6954c-0.108877,-2.876925 -3.389758,-5.280753 -3.389758,-5.280753l1.419285,-0.775583c2.87065,0.139175 5.875451,4.360936 5.875451,4.360936"/>
       <path fill="#FEF0C8" id="path196" d="m92.383566,71.81898c-1.498998,1.781046 -4.566987,7.893052 -4.934445,9.15049c-0.361626,1.255491 -1.312353,2.356236 -1.61468,2.942132c-0.31302,0.587843 -4.57768,5.338272 -5.211497,6.022466c-0.633818,0.687115 -1.207365,0.748429 -1.728417,0.190757c-0.500638,-0.564484 -1.560241,-1.269117 -2.657757,-1.88421c-1.088766,-0.626773 -2.113373,-7.05703 -2.113373,-7.05703c1.715779,-2.693954 8.698466,-7.135864 9.96999,-8.425419c1.268607,-1.282743 2.443892,-2.795951 2.443892,-2.795951c-2.93967,0.674268 -9.477129,3.549246 -9.477129,3.549246c3.194363,-2.503197 8.369892,-7.742976 9.814452,-9.021923c1.42609,-1.292573 3.997328,-3.022037 3.997328,-3.022037l1.866457,-0.401854c0,0 2.088099,-3.784188 3.495718,-3.671291c1.391094,0.118931 2.050186,0.12662 2.508051,1.257633c0.451061,1.144249 -0.600765,4.395972 -1.187922,6.232591c-0.584239,1.821046 -3.670698,5.148293 -5.170668,6.9344"/>
       <path fill="#231F20" id="path200" d="m9.956167,141.621389c0,0 -5.058876,2.930454 -7.775931,3.739224c-2.730666,0.773733 -4.245217,1.520215 -9.604476,1.017045c-5.346621,-0.484678 -6.610368,-1.991268 -9.268125,-3.965017c0,0 8.698467,2.603441 10.070118,2.38738c0,0 -1.574823,-0.792225 -3.344068,-2.116817c-1.766329,-1.310967 -6.338177,-4.079861 -13.873996,-3.120237c0,0 2.044353,-1.577637 2.179477,-1.62046c3.294491,-1.221428 6.48691,-1.27593 9.106754,-0.165452c2.624705,1.113397 10.668939,4.612228 16.528836,0.274456c0,0 4.594206,3.436543 5.981411,3.569878"/>
       <path fill="#231F20" id="path202" d="m71.467584,167.060178c0,0 4.657393,-5.308102 4.657393,-9.397695c0,-4.089593 -0.858376,-4.231688 -0.858376,-4.231688l3.511272,-9.470688c0,0 -8.061732,7.64098 -8.813175,11.908678c-0.645483,3.66039 1.861596,3.515376 1.861596,3.515376c0,0 -0.92934,6.243394 -0.35871,7.676017"/>
       <path fill="#FFFFFF" id="path204" d="m70.887233,155.536907c0,0 0.869069,-0.529448 1.509691,-0.187837c0.641595,0.339664 1.13154,1.169845 1.13154,1.169845c0,0 -0.075825,-1.813163 -0.981834,-2.378621c-0.904065,-0.567404 -1.659397,1.396613 -1.659397,1.396613"/>
       <polygon points="91.76821517944336,157.40261840820312 87.84865951538086,165.87086486816406 89.51971817016602,154.62692260742188 " fill="#231F20" id="path206"/>
       <polyline points="81.62519454956055,157.125244140625 77.51121139526367,167.71224975585938 78.56303787231445,157.4366912841797 77.01154708862305,154.04783630371094 81.62519454956055,157.125244140625 " fill="#231F20" id="path208"/>
       <path fill="#231F20" id="path210" d="m81.248012,127.794437c-0.186645,0.679328 -0.79616,2.12947 -1.352209,2.372782c-0.545355,0.239419 -2.407923,0.42239 -2.407923,0.42239c0,0 -1.162648,-1.511456 -1.615652,-2.04285c-0.462726,-0.531394 -0.267331,-1.319726 0.1429,-2.118764c0.408288,-0.787358 5.203721,-5.708107 5.203721,-5.708107l-1.503859,4.470134c0,0 1.73911,1.938713 1.533022,2.604415"/>
       <path fill="#231F20" id="path212" d="m92.245526,128.046509c-0.297467,0.362048 -0.714503,0.714365 -1.161675,0.881764c-0.407315,0.136254 -0.838934,0.135281 -1.218058,-0.218008c-0.802965,-0.738696 -1.501914,-1.674962 -1.644815,-2.823396c-0.144845,-1.154274 0.596878,-2.059396 0.596878,-2.059396l0.804909,-0.017518c0.06416,0.027251 0.094295,0.043796 0.134152,0.049635c0.068048,0.054502 0.167203,0.118737 0.288717,0.220928c0.582296,0.448668 1.641899,1.365469 1.741055,2.064262c0.128318,0.956704 1.011969,1.205856 0.458837,1.901729"/>
       <path fill="#004E3A" id="path214" d="m69.828602,94.171596c-0.956559,-3.63314 -5.797682,-13.472689 -5.797682,-13.472689c0,0 8.108394,10.021547 8.555566,11.130078c0.46467,1.098798 1.694393,9.934928 1.249165,11.592371c-0.465642,1.645765 -3.042713,6.232689 -3.042713,6.232689c0,0 0.466614,-4.095433 0.301355,-5.832683c-0.161371,-1.729464 -0.324686,-6.008841 -1.265691,-9.649766"/>
       <path fill="#004E3A" id="path216" d="m88.012946,35.542186l-5.965857,-3.638979l-3.141869,-6.33303l-8.907471,-4.43208c0,0 1.345405,-1.43856 4.684613,-2.172292l6.90589,4.508869l2.5168,6.204463l6.167085,4.849896c0,0 0.221641,5.990057 0.74561,7.816068c0.520081,1.814915 3.694029,4.924738 4.406588,7.359808c0,0 -4.277297,-3.993339 -5.56243,-5.333504c-1.270552,-1.3352 -1.848959,-8.829219 -1.848959,-8.829219"/>
       <path fill="#004E3A" id="path218" d="m41.544976,31.840821c-0.378152,2.017643 -2.15809,3.923071 -2.15809,3.923071l-2.300019,0.079028c0,0 1.881038,-3.149338 2.003524,-4.226725c0.106933,-1.082447 -1.214169,-3.798786 -1.106264,-5.020992c0.104988,-1.240893 3.185614,-5.038901 3.408228,-7.659764c0.20706,-2.614147 -2.566378,-11.424681 -2.566378,-11.424681c0,0 3.236163,0.203409 4.032324,0.942787c0,0 1.878122,9.738234 1.309436,10.99285c-0.56577,1.263278 -3.788324,5.668398 -3.418921,7.349881c0.376208,1.681872 1.188894,3.031866 0.79616,5.044545"/>
       <path fill="#004E3A" id="path220" d="m69.96567,76.509068c0,0 0.456893,2.376675 0.521052,4.215143c0,0 -1.711891,-6.912016 -6.240965,-5.275984c0,0 -1.333739,-1.246732 -3.67167,-0.056449l-0.303299,-3.301261c0,0 2.203779,0.097325 3.526825,1.158167c0,0 2.524577,-1.011206 4.79835,0.745508c0,0 4.100372,-3.280823 7.021571,-3.748761c0,0 -3.596818,2.159446 -5.651864,6.263637"/>
       <path fill="#004E3A" id="path222" d="m53.707081,58.126142c0,0 0.010693,-0.019367 0.000972,-0.033771c0.028192,-0.291294 0.046662,-0.666871 0.059299,-1.101816c0.001944,-0.023553 0.001944,-0.046716 0.008749,-0.059271c0,-0.207594 0.019442,-0.429203 0.025275,-0.665702c-0.002916,-0.020536 0.001944,-0.048663 -0.002916,-0.06842c0.007777,-0.232314 0.014581,-0.471831 0.016526,-0.730715c0.000972,-0.039903 -0.007777,-0.091583 0.005832,-0.141024c0.005833,-0.228908 0.000972,-0.456551 0.004861,-0.694219c-0.010693,-0.085548 -0.009721,-0.154746 -0.006805,-0.236499c-0.000972,-0.207886 0.002916,-0.432999 -0.007777,-0.652759c0,-0.097325 -0.009721,-0.207496 -0.009721,-0.307546c0.001944,-0.205648 -0.003888,-0.413631 -0.025275,-0.613245c0.002917,-0.124673 -0.002916,-0.246329 -0.015554,-0.37363c-0.005832,-0.185209 -0.020414,-0.377524 -0.03694,-0.566528c-0.005833,-0.142192 -0.016526,-0.290029 -0.030136,-0.437184c-0.02333,-0.165355 -0.024302,-0.331489 -0.046661,-0.494216c-0.019442,-0.168372 -0.03694,-0.32127 -0.056383,-0.484678c-0.014581,-0.147934 -0.040828,-0.285162 -0.061243,-0.444872c-0.013609,-0.174115 -0.045689,-0.353193 -0.075824,-0.528377c-0.025275,-0.125549 -0.044718,-0.250223 -0.063188,-0.372658c-0.039856,-0.190854 -0.072908,-0.366817 -0.109848,-0.541321c-0.018471,-0.114843 -0.048606,-0.214017 -0.07777,-0.323897c-0.045689,-0.192801 -0.098183,-0.379859 -0.149705,-0.550859c-0.014582,-0.052458 -0.019442,-0.095476 -0.035968,-0.132362c-0.040829,-0.156596 -0.096239,-0.31251 -0.139984,-0.456551c0.319825,0.568377 0.595905,1.118068 0.831156,1.612674c0.656176,1.397586 1.220002,8.311451 1.850903,11.860015c0.641595,3.558005 1.39401,10.472162 1.39401,10.472162c-1.011969,0.118736 -2.00158,0.750375 -2.810378,1.423863l-0.489945,-13.641061c0,0 0.029163,-0.267644 0.054438,-0.715533"/>
       <path fill="#004E3A" id="path224" d="m31.310572,119.42644c0,0 8.496266,8.80304 12.844527,10.288218c4.34729,1.482259 10.868223,4.152854 12.448879,6.230742c1.580655,2.07886 3.261439,12.860515 4.94125,17.509727c1.680783,4.649211 4.447416,12.267806 4.447416,12.267806c0,0 -5.731578,-8.012761 -8.102561,-13.354926c-2.372928,-5.342165 -5.533267,-12.761244 -5.533267,-12.761244c0,0 -9.288539,-5.343138 -12.549978,-8.60547c-3.259494,-3.266224 -8.496266,-11.574853 -8.496266,-11.574853"/>
       <path fill="#004E3A" id="path226" d="m88.449425,132.256785c0.766025,0.31144 1.199587,0.264724 1.199587,0.264724c0,0 0.790328,4.923668 0.976002,7.761662c0.180813,2.828263 -0.35871,6.739751 -0.35871,6.739751c0,0 0.379124,1.132863 1.015858,3.143595c0.631873,1.997108 0.818519,4.836076 0.818519,4.836076c0,0 -0.535634,-0.679328 -0.691172,-0.960597c0,0 -3.660978,-4.192758 -4.23258,-6.239501c-0.58424,-2.053556 -0.194423,-7.204964 0.645483,-10.02836c0.150678,-0.516795 0.304271,-1.849174 0.304271,-1.849174l0.277053,-1.404398c0,0 -1.344433,-0.747456 -2.121151,-1.764501c-0.766997,-1.002447 -0.148733,-2.275457 -0.148733,-2.275457c0,0 1.116958,1.297341 2.315573,1.77618"/>
       <path fill="#004E3A" id="path228" d="m49.945004,167.747292l-2.135732,0.248178c1.431922,-1.694427 3.392674,-1.760608 3.392674,-1.760608l7.235437,4.823424l-8.492379,-3.310994"/>
       <path fill="#004E3A" id="path230" d="m52.907032,163.537989c0,0 -2.893008,-3.023886 -3.885535,-3.478393c-1.013914,-0.462293 -7.995629,-2.824369 -9.950548,-2.43215c-1.963668,0.396113 -4.197584,2.450642 -4.197584,2.450642c1.378456,-3.1689 4.114954,-4.58887 4.114954,-4.58887c0,0 8.947328,1.820949 10.113863,2.437989c1.174313,0.61996 3.80485,5.610782 3.80485,5.610782"/>
       <path fill="#004E3A" id="path232" d="m45.214703,151.10181c-2.11143,-3.020966 -6.976855,-8.209357 -7.676776,-8.873113c-0.858376,-0.795145 -5.979467,-1.600995 -7.14017,-2.049663c-1.169451,-0.450615 -3.769853,-0.020438 -3.769853,-0.020438c0.946838,-0.854513 2.072544,-1.561092 3.544323,-1.446249c1.483445,0.110951 5.756853,0.285162 7.783708,1.85112c1.55052,1.197097 5.495355,7.596211 7.258768,10.538343"/>
       <path fill="#004E3A" id="path234" d="m9.994079,123.86835c-0.657148,2.311467 -1.525245,6.084754 -0.693116,7.814218c1.241388,2.592736 7.49499,7.295476 7.49499,7.295476c0,0 -0.792272,1.019965 -6.195275,-3.232161c-4.331735,-3.388853 -3.349901,-11.081415 -2.766634,-14.018682c0.778663,0.798065 1.512608,1.519242 2.160035,2.141149"/>
       <path fill="#004E3A" id="path236" d="m7.422841,121.301891c-1.975334,0.815583 -6.337205,7.031726 -6.337205,7.031726c0.681452,-3.230214 4.736135,-8.300843 4.924724,-8.541235c0.466615,0.520688 0.943922,1.03651 1.412481,1.509509"/>
       <path fill="#004E3A" id="path238" d="m17.462823,130.589609l-0.290662,0.654997l0.115682,3.27109l-1.26958,-3.394693l0.411204,-1.416078c0.355793,0.292948 0.686312,0.590763 1.033356,0.884684"/>
       <path fill="#004E3A" id="path240" d="m3.665624,111.203457c0.803938,0.923614 2.248497,2.582031 3.935113,4.401033c0.017498,0.018492 0.022359,0.036984 0.037913,0.051583c0.250805,0.26667 0.488973,0.532367 0.744638,0.798064c0.054439,0.054502 0.103044,0.103164 0.144845,0.151827c0.236223,0.250125 0.461754,0.489544 0.698949,0.732857c0.069992,0.075913 0.136096,0.147933 0.212893,0.218007c0.214837,0.223848 0.434534,0.454508 0.649371,0.666676c0.088463,0.097325 0.169148,0.184918 0.263443,0.276403c0.215809,0.212168 0.407315,0.409738 0.611459,0.603414c0.099155,0.099272 0.200255,0.206329 0.307188,0.302681c0.187618,0.184917 0.376207,0.365942 0.55702,0.543073c0.115682,0.112897 0.228447,0.218008 0.346073,0.320199c0.170119,0.172265 0.33149,0.327012 0.499666,0.471053c0.12443,0.115816 0.251777,0.222874 0.36843,0.330904c0.154566,0.139175 0.302327,0.271537 0.452033,0.400006c0.129291,0.115817 0.254694,0.206329 0.379124,0.313386c0.132207,0.101218 0.255666,0.214115 0.384957,0.315333c0.137068,0.106084 0.269275,0.199516 0.402454,0.296841c0.1011,0.079806 0.208033,0.150854 0.301355,0.221901c0.227475,0.154746 0.421897,0.283215 0.627013,0.397085c3.090347,1.705133 9.182579,4.959679 13.326696,5.386935c1.152926,3.486179 2.164896,4.093486 2.164896,4.093486c0,0 0.019442,0.086619 -0.141929,0.162533c-1.028495,0.123603 -2.602346,0.107057 -4.908198,-0.356209c-5.142477,-1.035538 -16.299417,-11.038593 -19.63182,-15.822113c-0.185674,-0.263751 -0.369403,-0.5421 -0.555077,-0.832128c-0.044717,-0.07786 -0.094295,-0.154747 -0.154566,-0.234553c-0.149705,-0.263751 -0.306215,-0.529448 -0.488,-0.813637c-0.033052,-0.101218 -0.097212,-0.200489 -0.155538,-0.303654c-0.11471,-0.208275 -0.221642,-0.407791 -0.328575,-0.618986c-0.09235,-0.15864 -0.155538,-0.298788 -0.235251,-0.450614c-0.088462,-0.16156 -0.17498,-0.333825 -0.252749,-0.513876c-0.154566,-0.287109 -0.284829,-0.577137 -0.430646,-0.882737c-0.054439,-0.107058 -0.090407,-0.198543 -0.144845,-0.30852c-0.100128,-0.22774 -0.200255,-0.450615 -0.290662,-0.673489c0.007777,0.006813 0.010693,0.011679 0.010693,0.011679c0.004861,0.006813 0.004861,0.006813 0.003889,0.018492c0.081657,0.097325 0.178869,0.207302 0.287745,0.325065"/>
       <path fill="#004E3A" id="path242" d="m79.241571,183.145068c1.939366,-0.574217 5.45161,-3.491045 5.895865,-4.838022c0.444256,-1.312913 -0.850599,-5.381095 -0.850599,-5.381095c0,0 3.091319,3.842388 2.666506,5.665284c-0.421897,1.821922 -2.669422,3.377175 -5.227051,5.28669c-2.564434,1.900755 -10.561035,3.0015 -11.845196,4.041904c-1.258886,1.016072 -0.505499,3.96891 -0.505499,3.96891c-6.652168,-6.671623 7.909111,-8.18016 9.865974,-8.743671"/>
       <path fill="#004E3A" id="path244" d="m62.77495,177.319198l-0.755331,2.00392c0,0 -4.270492,-0.171292 -4.933473,-0.150853c-0.65326,0.018491 -1.129596,0.199516 -1.9277,1.043323c-0.796161,0.861325 -3.7125,6.402033 -3.7125,6.402033c0.40926,-2.325092 1.915063,-6.155801 3.985663,-8.038065c2.057964,-1.888104 7.343341,-1.260358 7.343341,-1.260358"/>
       <path fill="#004E3A" id="path246" d="m73.338902,159.238174c0,0 1.368735,-0.524582 1.510663,-2.908069c0.109849,-1.925087 -1.094599,-2.531421 -1.094599,-2.531421l5.054987,-9.831764c0.001944,-0.001947 0.005833,-0.006813 0.005833,-0.006813l-3.512244,9.470688c0,0 0.861292,0.142095 0.861292,4.231688c0,4.089593 -4.658365,9.397695 -4.658365,9.397695l0,0c0.350932,-1.436516 1.315268,-5.387908 1.53205,-6.311522c0.26247,-1.132862 0.300383,-1.510482 0.300383,-1.510482"/>
      </g>
     </g>
    </g>
   </g>
  </g>
 </g>
</svg>