<svg width="200" height="200" xmlns="http://www.w3.org/2000/svg"><path fill="none" d="M-1-1h2502v2502H-1z"/><g><g fill-rule="nonzero" fill="none"><path fill="#FFF" d="M165.236 141.044c-.3.472-1.305 2.048-2.138 2.662-.22.17-.822.911-1.362 1.671-.23 1.027-.945 4.063-1.982 5.844l-1.221 1.938c-.903 1.392-1.929 2.97-2.183 3.971l-.449 2.557c-.466 3.077-.8 5.022-1.538 5.925-.768.958-3.658 3.506-4.693 4.412-.247.586-2.403 5.85-2.403 5.85l-.3.238c-1.18.947-7.025 4.504-7.58 4.895-.932.642-1.815.458-2.533.291l-.612-.12c-1.091-.182-4.879-2.009-4.879-2.009-1.308-.851-3.966-3.256-3.966-3.256-.596-1.186-1.322-3.005-1.303-3.893.078-1.956 1.018-6.186 2.12-7.535 1.12-1.39 5.803-3.807 6.869-4.072.402-.114 2.94-.748 6.666.957 1.082-1.318 2.233-4.768 2.765-5.255.548-.52 2.194-1.388 2.903-1.779 1.86-5 3.717-9.962 3.769-11.051 0 0 .611-2.468.622-2.597.025-.885-.007-2.552-1.43-3.464-.971-.621-8.696-5.534-11.495-6.347-2.528-.726-5.805-2.67-7.579-3.88-.99.38-2.882 1.863-4.47.998-.707.288-1.83 1.059-3.428.681-.52 2.503-1.67 10.03-1.67 10.03-.102.565-.9 6.662-1.385 10.385l-.011.126-.052.123c-.295.953-1.347 4.1-2.432 5.268-.723.764-4.056 4.696-5.704 6.668l-.354.43s-3.803.627-5.773.956c.52 1.509 1.265 3.656 1.265 3.656l-.018.283c-.02.585-.098 2.035-.472 2.849-.135.314-.297 1.137-.311 1.724-.008.198 0 .384.02.503.128.425 1.05 2.14 1.555 3.052l.993 1.927c.498 1.072.616 2.909.574 4.237-.011.445-.052.848-.108 1.139-.124.818-.819 6.51-1.066 8.626l-.108.922-6.292 2.323-.358-.042c-.197-.02-5.11-.63-7.795-3.08-2.409-2.193-3.29-2.81-3.368-2.89l-.575-.715.366-.835c1.405-3.308 3.276-8.234 4.17-9.22.002-.217-.178-.795-.587-1.307-.77-.98-1.364-2.47-1.304-4.01.015-.472.122-.947.273-1.427-.21-.6-.735-1.959-1.136-3.068-.955.12-3.32-.36-3.32-.36L77.5 162.815l-2.953-4.266s3.539-7.459 4.246-8.959c-.45-.482-.913-.987-.913-.987l-.09-.083c-.645-.669-.821-1.21-.775-2.43.018-.72.365-1.585.725-2.307-2.094-1.24-6.16-3.722-7.692-4.952-1.733-1.422-2.263-2.77-2.213-4.033.025-.867.325-1.691.693-2.458.128-.286 1.079-1.245 1.123-1.38-.98-1.814-8.584-16.93-8.87-23.386-.056-1.263-.583-3.682-.536-5.062.214-5.984 1.887-11.988 3.46-16.08.791-2.093 2.51-4.477 4.401-6.686-1.431-1.666-3.925-5.007-4.648-8.531-1.024-5.034 1.64-7.535 2.363-8.372.717-.831 5.672-4.78 8.971-5.178 0 0-5.822 3.758-7.348 7.829-1.52 4.077.77 7.268.77 7.268s.974-7.895 3.459-10.212c2.5-2.316 6.51-3.729 6.51-3.729s2.976-1.894 4.979-3.723c-1.043.509-2.77 1.008-5.07 1.307 0 0-2.778-3.897-4.46-4.807-1.697-.927-11.765-3.02-11.765-3.02s9.48-.517 12.052-.587c2.59-.085 7.48 2.682 9.51 3.601 1.07.494 1.373 1.105 1.313 1.666.043-.084-.974 5.012-.974 5.012s-3.24 2.193-5.917 4.847c-2.143 2.125-2.787 5.75-2.294 8.198.052.274.12.52.204.753-.015 0 .163-.152.546-.487.433-.401.948-.863 1.503-1.358.161-.143.386-.344.342-.299l-.185-.852-.285-1.312s1.696-4.066 2.574-4.895c.908-.845 5.112-2.919 5.112-2.919s-3.062 3.854-3.275 4.875c-.076.37-.088 1.028-.08 1.733 1.678-1.444 3.113-2.613 3.55-2.819 1.1-.493 8.278-1.052 10.993-1.049.147-.2.324-.398.513-.641-1.313.211-2.556.357-3.203.338-2.132-.087-4.75-2.196-5.455-2.961l-3.14-3.399 4.534.897c.596.115 2.397.352 3.524.138 1.696-.321 6.68-2.374 7.51-3.316l1.087-1.324c1.95-2.384 3.92-4.733 5.702-6.597-1.777.085-3.733-.058-5.521-.695-5.124-1.869-5.753-6.75-5.782-6.942l-.438-3.713 2.89 2.368c1.318 1.07 3.247 2.24 4.01 2.274 1.58.055 8.361-1.86 9.417-2.656.39-.307 1.3-.943 2.377-1.62-1.164-.172-2.29-.397-3.026-.717-2.233-.914-3.938-6.665-3.938-6.665 1.858.818 4.32 1.653 5.021 1.615.508-.056 2.63-.876 4.185-1.473 1.31-.511 2.427-.935 3.403-1.281-2.35-1.197-2.542-1.6-2.718-1.965l-.15-.307c-3.968-8.232-4.477-10.914-4.444-12.131.001-.057 0-.118.013-.175l.44-4.845 2.372 4.235c1.266 2.246 2.854 4.883 3.313 5.387l.196.207c.7.746.915.982 1.767 1.08.635.082 2.167-.071 3.606-.246-.712-1.375-1.806-3.183-3.004-4.266l-2.318-2.11 3.089-.494c.135-.027 2.658-.39 6.023 1.142.022-.446.04-.886.093-1.35.258-2.375 2.38-5.274 4.037-6.178l2.745-1.525-.533 3.095c-.149.904-.276 1.884-.29 2.408-.011.069.005.099 0 .146.185.297.72.927 1.515 1.287.763.332 4.164 1.28 8.664 2.425 1.988.502 3.52 1.545 5.28 3.596.023.022 1.174 1.386 1.953 2.899a8.49 8.49 0 001.13-.714c.846-.692 2.922-3.66 3.153-4.39.507-1.75 3.753-3.953 5.462-4.368l2.096-.47-.996 8.235c-.21 2.232-1.419 4.984-2.57 7.372-.8 1.64-2.4 2.738-3.726 3.35.744 2.495 1.576 5.03 1.851 5.504.655 1.012 2.313 4.303 2.6 5.614.052.254.068.614.052 1.042-.064 1.915-.821 5.069-1.62 6.425-.5.842-1.588 4.04-2.203 6.013.022.484.263 6.674.263 6.674s-.598 5.25-.707 6.13l1.978 3.219.05.108c.087.23.54 1.367.673 2.144.021.085.016.195.016.363-.018.534-.267 1.691-1.584 4.71-.205.41-.752 1.432-1.675 1.852-.095.046-.245.151-.39.266-.16 1.051-.447 3.154-.462 3.209-.218 1.142-1.094 3.047-2.983 3.731-.32.63-.938 1.835-.938 1.835l-.225.194c-.267.207-1.56 1.237-2.89 1.522 0 0-.952.211-1.873.435.41 1.802 1.255 5.577 1.255 5.577s-1.097 9.713-1.143 10.72c.637.748 4.565 5.773 4.667 5.888.458.409 1.546 1.468 1.836 2.656.236.99 2.642 7.187 3.192 7.984.58.829 4.67 6.15 6.245 8.19.29.422 1.752 2.604 1.678 4.434-.034 1.084 1.334 3.958 1.378 6.124l.008.462-.237.372zm-114.65-80.46c-2.62 1.108-5.812 1.055-9.107-.166-.135-.042-2.179-1.62-2.179-1.62 7.536.959 12.107-1.81 13.874-3.12 1.769-1.325 3.344-2.118 3.344-2.118-1.372-.216-10.07 2.387-10.07 2.387 2.658-1.972 3.922-3.479 9.267-3.965 5.36-.503 6.875.244 9.606 1.017 2.717.81 7.775 3.74 7.775 3.74-1.386.133-5.98 3.57-5.98 3.57-5.86-4.338-13.905-.84-16.53.275zm109.627-28.507c-.044-.09-.123-.189-.136-.224 0 0 .136.19.136.224zm-3.126 47.3c-.013 0-.078.03-.078.03.031 0 .053-.05.105-.045l-.027.015z"/><path fill="#B49154" d="M165.566 140.949c-.3.473-1.304 2.05-2.137 2.662-.221.17-.823.91-1.362 1.672-.23 1.026-.945 4.061-1.983 5.842l-1.22 1.939c-.904 1.392-1.93 2.97-2.184 3.97l-.448 2.558c-.467 3.078-.8 5.022-1.538 5.926-.769.958-3.658 3.504-4.693 4.41-.247.586-2.404 5.85-2.404 5.85l-.299.239c-1.179.947-7.025 4.504-7.581 4.895-.932.643-1.813.458-2.532.292l-.612-.12c-1.09-.182-4.88-2.01-4.88-2.01-1.307-.852-3.965-3.256-3.965-3.256-.595-1.186-1.322-3.006-1.303-3.892.079-1.956 1.019-6.185 2.121-7.536 1.118-1.39 5.803-3.807 6.867-4.072.404-.114 2.942-.748 6.668.957 1.082-1.319 2.232-4.769 2.763-5.255.549-.52 2.195-1.387 2.903-1.78 1.86-4.998 3.718-9.96 3.77-11.05 0 0 .61-2.467.621-2.597.026-.884-.006-2.551-1.429-3.463-.972-.62-8.696-5.533-11.496-6.347-2.527-.727-5.803-2.67-7.578-3.88-.991.38-2.883 1.863-4.471.998-.707.288-1.829 1.059-3.427.681-.52 2.503-1.67 10.03-1.67 10.03-.102.566-.901 6.661-1.385 10.385l-.012.125-.05.125c-.295.95-1.348 4.1-2.434 5.266-.723.764-4.054 4.696-5.703 6.669l-.355.429s-3.803.627-5.771.957c.52 1.508 1.263 3.655 1.263 3.655l-.016.283c-.022.585-.1 2.036-.474 2.85-.135.314-.296 1.136-.31 1.723-.008.198 0 .385.02.504.128.424 1.05 2.138 1.554 3.051l.995 1.928c.496 1.072.615 2.908.572 4.236-.01.446-.051.848-.108 1.138-.123.819-.817 6.512-1.065 8.627l-.107.922-6.293 2.324-.358-.043c-.198-.02-5.109-.63-7.796-3.08-2.408-2.192-3.29-2.81-3.367-2.89l-.575-.715.367-.835c1.404-3.306 3.274-8.234 4.17-9.22 0-.217-.179-.795-.588-1.307-.77-.98-1.365-2.468-1.304-4.01.015-.472.121-.948.273-1.426-.211-.6-.735-1.96-1.137-3.069-.953.12-3.318-.361-3.318-.361L77.83 162.72l-2.953-4.266s3.538-7.458 4.246-8.958l-.914-.986-.088-.083c-.646-.671-.823-1.211-.776-2.43.017-.72.364-1.585.723-2.308-2.092-1.242-6.157-3.723-7.691-4.952-1.733-1.42-2.261-2.77-2.213-4.034.026-.866.326-1.692.693-2.457.13-.286 1.08-1.247 1.123-1.38-.979-1.815-8.584-16.93-8.87-23.387-.056-1.262-.582-3.682-.535-5.06.215-5.985 1.887-11.99 3.459-16.082.792-2.093 2.51-4.477 4.402-6.685-1.43-1.666-3.926-5.008-4.648-8.532-1.025-5.034 1.639-7.536 2.364-8.372.715-.83 5.671-4.781 8.97-5.177 0 0-5.822 3.757-7.348 7.829-1.52 4.076.77 7.269.77 7.269s.974-7.896 3.46-10.214c2.498-2.316 6.51-3.728 6.51-3.728s2.975-1.894 4.978-3.723c-1.043.507-2.771 1.008-5.07 1.306 0 0-2.777-3.897-4.46-4.806-1.697-.927-11.765-3.02-11.765-3.02s9.48-.517 12.053-.587c2.59-.085 7.48 2.682 9.509 3.6 1.07.494 1.373 1.105 1.312 1.667.045-.085-.973 5.011-.973 5.011s-3.239 2.194-5.917 4.848c-2.143 2.124-2.787 5.75-2.293 8.198.05.274.118.52.204.753-.017 0 .161-.152.544-.489.435-.4.949-.862 1.503-1.356.161-.143.387-.344.343-.3l-.185-.852-.284-1.312s1.695-4.065 2.573-4.894c.908-.846 5.112-2.92 5.112-2.92s-3.062 3.853-3.276 4.876c-.076.369-.086 1.028-.079 1.731 1.677-1.443 3.113-2.613 3.548-2.818 1.101-.493 8.28-1.051 10.994-1.048.148-.2.324-.4.515-.642-1.314.212-2.557.357-3.205.34-2.13-.089-4.748-2.198-5.453-2.963l-3.141-3.398 4.535.896c.595.116 2.394.354 3.523.138 1.695-.32 6.68-2.373 7.51-3.316l1.086-1.323c1.951-2.385 3.92-4.733 5.703-6.598-1.778.086-3.732-.057-5.522-.695-5.124-1.868-5.752-6.75-5.781-6.943l-.438-3.712 2.89 2.368c1.318 1.07 3.246 2.24 4.01 2.275 1.581.054 8.36-1.86 9.417-2.656.39-.308 1.3-.943 2.376-1.62-1.163-.173-2.29-.398-3.026-.717-2.232-.914-3.938-6.665-3.938-6.665 1.86.818 4.321 1.652 5.023 1.615.506-.057 2.63-.876 4.185-1.474 1.31-.51 2.426-.934 3.402-1.28-2.35-1.198-2.542-1.6-2.719-1.966l-.15-.306c-3.967-8.233-4.475-10.915-4.443-12.132.001-.057 0-.118.013-.174l.44-4.846 2.373 4.236c1.265 2.245 2.852 4.883 3.312 5.387l.196.206c.7.746.915.982 1.768 1.08.632.081 2.165-.07 3.605-.246-.711-1.374-1.807-3.182-3.004-4.265l-2.318-2.112 3.09-.492c.133-.027 2.657-.39 6.02 1.142.024-.446.04-.887.096-1.351.257-2.374 2.377-5.273 4.036-6.177l2.744-1.526-.532 3.095c-.15.905-.277 1.885-.29 2.408-.01.068.005.1 0 .146.185.298.72.927 1.514 1.288.764.33 4.166 1.28 8.665 2.425 1.988.5 3.52 1.544 5.28 3.595.023.023 1.174 1.386 1.952 2.899a8.554 8.554 0 001.13-.714c.847-.693 2.923-3.66 3.154-4.39.506-1.75 3.753-3.952 5.462-4.367l2.096-.47-.997 8.234c-.209 2.231-1.418 4.985-2.571 7.373-.798 1.639-2.398 2.738-3.725 3.35.745 2.494 1.577 5.029 1.852 5.504.655 1.012 2.312 4.302 2.6 5.613.052.254.067.614.053 1.043-.065 1.915-.824 5.068-1.62 6.425-.501.842-1.59 4.039-2.205 6.013.023.483.265 6.673.265 6.673s-.599 5.25-.709 6.129l1.978 3.22.05.108c.087.23.54 1.368.674 2.144.02.085.014.195.014.363-.016.535-.264 1.692-1.582 4.711-.206.41-.753 1.43-1.675 1.851a2.707 2.707 0 00-.39.266c-.16 1.052-.447 3.155-.463 3.21-.219 1.141-1.093 3.046-2.982 3.731-.32.629-.938 1.836-.938 1.836l-.227.192c-.265.207-1.558 1.237-2.889 1.522 0 0-.952.212-1.871.435.409 1.803 1.254 5.577 1.254 5.577s-1.098 9.712-1.144 10.72c.636.749 4.565 5.774 4.668 5.888.457.41 1.545 1.468 1.836 2.657.235.99 2.64 7.186 3.191 7.983.58.83 4.67 6.15 6.245 8.19.29.423 1.752 2.604 1.678 4.435-.034 1.083 1.335 3.958 1.379 6.124l.008.461-.238.372zM50.917 60.489c-2.62 1.11-5.812 1.056-9.107-.166-.135-.043-2.18-1.62-2.18-1.62 7.537.96 12.108-1.81 13.875-3.12a24.977 24.977 0 013.344-2.117c-1.372-.216-10.07 2.387-10.07 2.387 2.658-1.974 3.921-3.48 9.268-3.965 5.36-.503 6.874.243 9.604 1.017 2.717.809 7.776 3.74 7.776 3.74-1.387.133-5.981 3.57-5.981 3.57-5.86-4.339-13.904-.84-16.529.274zm109.63-28.506c-.048-.09-.126-.19-.14-.224 0 0 .137.19.14.224zm-3.128 47.3c-.014 0-.079.03-.079.03.03 0 .05-.05.105-.046l-.026.016zm10.536 60.77c-.054-1.504-.553-3.147-.955-4.453-.164-.557-.39-1.32-.427-1.573 0 .011.015.029.015.044l-.016-.072.008.018c.064-2.346-1.426-4.767-2.068-5.68l-.029-.059-.043-.03c-3.46-4.492-5.73-7.489-6.151-8.077-.496-.853-2.655-6.372-2.9-7.31-.373-1.5-1.418-2.739-2.297-3.561-.104-.119-.783-.99-.783-.99s-2.47-3.11-3.27-4.156c.15-1.709.612-5.942 1.05-9.786l.04-.367s-.495-2.221-.873-3.87c1.6-.388 3.002-1.427 3.555-1.87l.58-.49s.528-1.037.807-1.57c2.077-1.137 3.19-3.3 3.513-4.957.015-.047.202-1.398.342-2.375 1.06-.736 1.726-1.798 2.018-2.459 1.537-3.506 1.76-4.763 1.786-5.539l-.035-.805c-.159-.946-.614-2.116-.811-2.584l-.108-.29s-1.183-1.918-1.677-2.745c.13-1.149.64-5.536.64-5.536s-.23-5.782-.262-6.466c.828-2.606 1.622-4.778 1.89-5.214 1.038-1.764 1.843-5.331 1.915-7.437l-.1-1.582c-.356-1.648-2.097-5.05-2.813-6.214-.145-.278-.573-1.497-1.177-3.46 1.122-.75 2.35-1.821 3.106-3.403 1.237-2.564 2.526-5.514 2.781-8.094-.002.045.98-8.187.98-8.187l.362-3.039-5.074 1.154c-2.3.536-6.275 3.16-7.067 5.871.024-.042.052-.133.052-.133-.184.427-1.058 1.688-1.745 2.586-.473-.644-.826-1.06-.83-1.066-2.043-2.383-3.954-3.67-6.393-4.289-5.274-1.33-7.847-2.093-8.291-2.31-.08-.017-.125-.069-.189-.116.047-.411.114-.885.19-1.364l1.312-7.532L134.57.794l-2.742 1.52c-1.904 1.044-4.08 3.751-4.88 6.525-2.52-.64-4.323-.418-4.572-.378 0 0-4 .65-4.84.781-.67-1.204-5.382-9.582-5.382-9.582l-1.036 11.788c-.012.041-.026.303-.026.303-.058 1.594.452 4.414 4.648 13.145 0-.008.15.303.15.303.061.143.162.253.237.382-.962.378-2.65 1.028-3.294 1.198-.595-.11-2.31-.66-4.02-1.413l-4.252-1.85 1.312 4.445c.409 1.345 1.75 5.302 3.943 7.236-2.086.711-5.502 1.611-6.51 1.652-.464-.152-1.734-.88-2.827-1.785l-7.03-5.738 1.07 9.016c.275 2.364 2.098 6.863 7.187 8.714.544.2 1.141.334 1.743.46a361.081 361.081 0 00-2.863 3.44c.007-.003-.79.953-.987 1.203-.787.653-4.948 2.41-6.342 2.676-.614.125-2.002-.004-2.714-.13 0 0-1.897-.377-3.222-.635.011-.046.102-.384.102-.384l-.241-.063c.062-.377.078-.743.017-1.117-.138-.893-.704-2.12-2.535-2.97l-1.381-.663c-3.413-1.698-6.667-3.219-9.087-3.152l-19.537 1.677 7.161 2.34c-1.47-.207-3.304-.255-5.972-.008-5.293.496-7.199 1.972-9.42 3.68 0 0-2.185 3.216-2.19 3.127-1.839.404-1.697.35-4.337.019l-7.88-1.006 6.296 4.851c2.305 1.79 2.4 1.828 2.754 1.957 3.77 1.393 7.572 1.447 10.692.113l.104-.034c2.351-1.003 8.213-3.473 12.863-1.311-.088.08-.16.16-.212.228l-.154.158c-.769.865-2.82 3.135-2.952 7.009-.033.92.031 1.939.25 3.013.653 3.166 2.487 6.113 4.002 8.124-1.748 2.205-3 4.19-3.637 5.895-1.246 3.243-3.354 9.719-3.605 16.791-.037.998.138 2.235.32 3.443l.213 1.798c.278 6.256 6.414 18.913 8.46 22.982-.214.273-.394.506-.51.758-.367.77-.85 1.936-.897 3.297-.081 2.16.93 4.116 3.017 5.79 1.313 1.053 4.144 2.837 6.391 4.204-.127.454-.21.9-.225 1.307-.052 1.476.155 2.718 1.348 3.962-.904 1.93-4.147 8.781-4.147 8.781l4.049 5.846 11.718 4.43.17.032c.472.1 1.336.267 2.222.352.194.53.278.72.4 1.09-.09.41-.163.82-.17 1.219-.07 1.809.547 3.726 1.621 5.2-.645 1.177-1.444 3.033-2.629 5.897l-1.103 2.662c-.006-.003-.873 2.04-.873 2.04l1.396 1.721c.004-.001.563.519.563.519l3.042 2.617c.606.558 1.306 1.033 2.022 1.44 0 0 2.965 1.308 4.32 1.695 1.359.388 2.712.612 2.712.612s5.997-1.225 8.942-4.073l.13-1.127c.443-3.697.961-7.933 1.063-8.563l.12-1.397c.043-.994.038-3.479-.749-5.214l-.03-.063-1.033-1.967c-.31-.562-1.084-2.002-1.321-2.541.03-.342.11-.79.154-.916l-.013.046c.46-1.047.61-2.568.654-3.645l.016-.679s-.367-1.068-.554-1.621c1.596-.27 4.034-.666 4.034-.666l.865-1.038c1.909-2.275 4.986-5.897 5.635-6.574 1.317-1.399 2.387-4.422 2.912-6.098l.098-.303.039-.313c.588-4.535 1.28-9.727 1.373-10.251l.019-.087a428.4 428.4 0 011.318-8.19c.721-.1 1.315-.33 1.78-.54 1.64.35 3.177-.32 4.197-.846 2.087 1.329 4.847 2.829 7.115 3.486 1.507.433 5.652 2.749 10.848 6.041l.1.054c.201.13.418.436.404 1.41-.049.248-.6 2.497-.6 2.497l-.013.261.005-.057c-.131.993-1.96 5.92-3.353 9.68-1.149.629-2.086 1.178-2.64 1.693-.53.503-.852 1.207-1.492 2.627-.202.456-.461 1.027-.71 1.558-2.911-.939-5.11-.695-6.277-.409-1.27.32-6.454 2.878-8.025 4.82-1.566 1.933-2.513 6.769-2.585 8.831-.056 1.579 1.043 3.965 1.525 4.925l.185.352.3.28c.282.258 2.814 2.539 4.214 3.465l.115.081.133.063c1.228.58 4.201 1.981 5.476 2.194l.534.107c.848.176 2.494.538 4.196-.66-.007.007 1.527-.954 1.527-.954 2.761-1.72 5.309-3.312 6.166-4.012l.74-.588s2.085-5.107 2.419-5.903c1.517-1.342 3.79-3.383 4.568-4.35 1.103-1.357 1.478-3.526 1.994-6.943-.004.037.33-1.874.419-2.389.178-.666 1.24-2.302 1.89-3.29l1.239-1.971c1.079-1.861 1.81-4.603 2.151-6.082.376-.479.678-.844.765-.92.964-.767 1.927-2.141 2.57-3.172l.577-.937-.025-1.106z"/><path fill="#231F20" d="M162.213 139.614c-.458 1.13-1.117 1.138-2.508 1.257-1.407.113-3.495-3.671-3.495-3.671l-1.867-.402s-2.571-1.73-3.997-3.022c-1.445-1.279-6.62-6.519-9.815-9.022 0 0 6.538 2.875 9.477 3.55 0 0-1.175-1.514-2.443-2.797-1.272-1.29-8.255-5.731-9.97-8.425 0 0 1.024-6.43 2.113-7.057 1.097-.615 2.157-1.32 2.658-1.884.52-.558 1.094-.497 1.728.19.634.685 4.899 5.435 5.212 6.023.302.586 1.253 1.687 1.614 2.942.368 1.258 3.436 7.37 4.935 9.15 1.5 1.787 4.586 5.114 5.17 6.935.588 1.837 1.64 5.088 1.188 6.233zm-60.715-1.245c.021-.066 6.233-1.235 8.653-7.134l-1.536 5.702-1.254 2.301s-1.776-1.142-2.444-1.251c-.855-.126-3.474.452-3.419.382zm2.452-29.012c2.655-.21 6.41.12 7.704 1.096 1.289.972 5.871 1.228 7.216.667 0 0 1.136-.26 1.72.374.582.63 2.756 8.46 2.756 8.46s-2.17 3.605-3 4.086c-.576.333-1.89.338-3.088.144l-1.526-.446c.454.585 1.084 1.351 1.896 2.043 0 0-.96 24.802-1.28 25.37-.645 1.125-1.359 2.124-2.077 2.688-1.152.87-3.627 4.362-3.627 4.362l-10.85 1.13s-3.367-5.423-3.916-6.975c-.573-1.553 2.075-9.725 2.075-9.725s5.166-1.859 5.47-1.841c.303-.002 3.485 2.27 3.485 2.27s-1.56 3.718-.21 5.81c0 0 .642-3.557 1.61-4.849.96-1.29 3.193-4.067 3.193-4.067l2.34-16.764s-2.272-1.915-2.626-3.467c-.091-.386-.051-.942.05-1.584l.596-2.435c.306-.983.589-1.747.589-1.747s-.184.179-.46.514c-.796.956-2.327 3.12-2.414 5.595-.104 2.931.272 2.836.372 2.757-.258.245-5.745 5.218-11.569 6.598 0 0-1.555.091-2.458-.453-.894-.542-2.205-4.663-2.456-5.9-.27-1.237-.577-6.858 2.47-12.259 0 0-2.823-12.051-.564-18.09 0 0-3.31 6.916-3.617 9.868-.314 2.942.906 5.947.906 5.947l-3.307 9.486-.041 2.551s-7.773-4.45-9.542-6.042c-1.78-1.594-4.235-5.844-4.761-8.46-.441-2.217-1.663-10.363-.135-19.002 0 0-2.882 9.082-2.868 17.461-.004 8.378 6.508 19.803 6.508 19.803s-6.444-2.639-7.128-3.183c-.7-.528-2.532-2.22-3.09-3.567-.563-1.354-5.012-11.733-4.818-17.134.135-3.558 1.421-8.44 3.234-12.74.049-.093 18.824-6.497 23.731-8.137l.435-.671.303-.749 5.075-9.802s5.09-5.938 7.089-7.602c2-1.651 10.237-6.367 10.237-6.367s2.329-5.532 3.901-9.36c1.293-3.147 7.323-12.197 10.63-16.463.698-.904 1.268-1.594 1.657-1.97 0 0 .785 1.397 3.646.78.16-.04.33-.06.508-.118 0 0-1.215-.142-1.71-.563-.492-.444-3.014-6.955-4.05-9.137-1.05-2.197-2.312-3.858-2.71-4.292 0 0 3.992 2.305 4.505 2.711.495.443 4.148 6.18 4.606 7.733 0 0 4.3-.467 6.019-.196 1.723.263 4.608 2.1 5.307 2.847.69.746 1.611 3.42 1.611 3.42s1.525-2.897 2.07-3.894c.542-1.006 3.203-4.071 3.53-4.366.308-.3 2.082-1.246 2.61-1.947.537-.696 3.252-5.496 5.233-6.546l-1.106 2.613-.633 3.043s-.269 4.788-5.429 6.64c0 0 1.593 6.796 1.927 8.852 0 0 2.09 4.059 2.364 4.885.274.814.135 1.733-.08 2.231-.216.508-1.057 3.84-1.796 4.637 0 0-.737 3.443-1.51 5.153 0 0 .333 5.009.03 7.76-.309 2.747-.952 6.593-.952 6.593s2.324 3.146 2.607 3.98c.272.829.541 1.76.216 2.451-.336.71-1.86 3.413-3.09 3.98 0 0-.751.683-.559 1.304.17.62.616 2.37-.027 3.268-.642.895-1.074 1.39-3.195.802-2.112-.58-3.605 1.088-5.122.938-1.531-.163-2.25-2.744-2.501-4.375-.25-1.651-.968-1.476-1.759-2.006-.786-.54-2.392-1.519-2.78-4.688-.08-.683-.16-1.36-.224-2.019.007.006-.006 0-.092-.967-.182-2.054-.354-3.865-.73-4.724-.568-1.243-3.378-2.466-4.188-2.804-.803-.33-.844-2.066-.844-2.066l-1.791-9.452s-.232-2.256.57-4.987c.828-2.734 2.821-12.75 2.821-12.75l-6.168 21.104s-1.006 2.506-.658 3.95c.352 1.456 3.833 15.355 4.049 17.817.22 2.456 1.54 11.17 1.54 11.17s-7.947-5.897-9.469-6.25c-1.51-.366-6.659.773-8.5 1.325l3.043 3.163s3.38 7.973 3.988 10.87c.615 2.869-.097 8.575-.097 8.575s-2.801-4.702-4.18-5.664c-1.397-.974-4.642-1.803-4.642-1.803s2.793 1.937 4.092 5.555c1.298 3.617.86 7.28.86 7.28s-5.059-1.102-6.747-2.382l-5.51.103s-5.137 1.136-5.95 6.518c0 0 .183-.22.496-.536.874-.896 2.775-2.604 4.73-2.748zm-21.446 23.517s3.28-2.404 3.39-5.28c0 0 2.494 1.875 3.905 1.695 0 0-3.005 4.221-5.876 4.36l-1.42-.775zm7.769 31.015l-4.727-1.845c1.83-2.958 4.22-8.273 3.118-9.371-1.108-1.117.037-5.585.24-6.476.196-.89-.898-1.67-1.764-2.522-.87-.85-8.769-8.783-8.769-8.783s10.724 6.561 12.178 7.502c1.434.952 1.312 3.83.928 5.21-.377 1.387-.064 3.092.315 3.833.38.755 1.2 2.514.965 4.545-.236 2.046-2.484 7.907-2.484 7.907zm58.7-79.206c-.459.419-4.803.927-4.803.927s-4.493-.927-5.232-1.395c-.763-.486-1.443-3.15-1.305-4.04.145-.878.059-4.537.059-4.537s1.384 1.378 1.801 2.06c.427.667.757 3.782 1.39 4.478.63.69 3.484 1.337 3.484 1.337l5.46-.91s-.404 1.655-.854 2.08zm15.444 49.31c.074-1.832-1.388-4.013-1.678-4.436-1.575-2.04-5.665-7.36-6.245-8.19-.55-.797-2.956-6.994-3.191-7.983-.29-1.189-1.379-2.248-1.836-2.657-.103-.114-4.032-5.139-4.668-5.888.046-1.008 1.144-10.72 1.144-10.72s-.845-3.774-1.254-5.577c.92-.223 1.871-.435 1.871-.435 1.33-.285 2.624-1.315 2.89-1.522l.226-.192s.618-1.207.938-1.836c1.89-.685 2.763-2.59 2.982-3.731.016-.055.302-2.158.463-3.21.145-.114.295-.22.39-.266.922-.42 1.47-1.441 1.675-1.851 1.318-3.019 1.566-4.176 1.582-4.71 0-.169.006-.279-.014-.364-.134-.776-.587-1.914-.674-2.144l-.05-.109-1.978-3.22c.11-.878.709-6.128.709-6.128s-.242-6.19-.265-6.673c.615-1.974 1.704-5.171 2.204-6.013.797-1.357 1.556-4.51 1.62-6.425.015-.429 0-.789-.053-1.043-.287-1.31-1.944-4.601-2.6-5.613-.274-.475-1.106-3.01-1.851-5.504 1.327-.612 2.927-1.711 3.725-3.35 1.153-2.388 2.362-5.142 2.571-7.373l.997-8.234-2.096.47c-1.71.415-4.956 2.616-5.462 4.368-.23.729-2.307 3.696-3.154 4.39a8.554 8.554 0 01-1.13.713c-.778-1.513-1.93-2.876-1.952-2.899-1.76-2.051-3.292-3.095-5.28-3.595-4.5-1.145-7.901-2.094-8.665-2.425-.795-.361-1.33-.99-1.514-1.288.005-.047-.01-.078 0-.146.013-.523.14-1.503.29-2.408l.532-3.095-2.744 1.526c-1.66.904-3.779 3.803-4.036 6.177-.056.464-.072.905-.095 1.35-3.364-1.531-5.888-1.168-6.022-1.141l-3.09.492 2.32 2.112c1.196 1.083 2.292 2.891 3.003 4.265-1.44.175-2.973.327-3.605.246-.853-.098-1.069-.334-1.768-1.08l-.196-.206c-.46-.504-2.047-3.142-3.312-5.387l-2.374-4.236-.44 4.846c-.012.056-.011.117-.012.174-.032 1.217.476 3.9 4.443 12.132l.15.306c.177.365.369.768 2.72 1.965-.977.347-2.094.77-3.403 1.281-1.555.598-3.679 1.417-4.185 1.474-.702.037-3.163-.797-5.023-1.615 0 0 1.706 5.751 3.938 6.665.737.32 1.863.544 3.026.717-1.076.677-1.986 1.312-2.376 1.62-1.056.796-7.836 2.71-9.417 2.656-.764-.035-2.692-1.205-4.01-2.275l-2.89-2.368.438 3.712c.03.194.657 5.075 5.781 6.943 1.79.638 3.744.78 5.522.695-1.782 1.865-3.752 4.213-5.703 6.598l-1.086 1.323c-.83.943-5.815 2.995-7.51 3.316-1.129.216-2.928-.022-3.523-.138l-4.535-.896 3.14 3.398c.706.765 3.324 2.874 5.454 2.962.648.018 1.891-.127 3.205-.339-.191.243-.367.442-.515.642-2.715-.003-9.893.555-10.994 1.048-.435.205-1.87 1.375-3.548 2.818h-.005c-.01.003-.023 0-.033.026.016-.026.024-.023.038-.026-.007-.703.003-1.362.08-1.731.213-1.023 3.275-4.876 3.275-4.876s-4.204 2.074-5.112 2.92c-.878.829-2.573 4.894-2.573 4.894l.284 1.312.185.853c.044-.045-.182.156-.343.299-.554.494-1.068.956-1.503 1.356-.383.337-.56.489-.544.489a4.544 4.544 0 01-.204-.753c-.494-2.448.15-6.074 2.293-8.198 2.678-2.654 5.917-4.848 5.917-4.848s1.018-5.096.973-5.011c.06-.562-.242-1.173-1.312-1.667-2.03-.918-6.92-3.685-9.51-3.6-2.572.07-12.052.587-12.052.587s10.068 2.093 11.765 3.02c1.683.91 4.46 4.806 4.46 4.806 2.299-.298 4.027-.799 5.07-1.306-2.003 1.829-4.979 3.723-4.979 3.723s-4.01 1.412-6.51 3.728c-2.485 2.318-3.459 10.214-3.459 10.214s-2.29-3.193-.77-7.27c1.526-4.07 7.348-7.828 7.348-7.828-3.299.396-8.255 4.346-8.97 5.177-.725.836-3.389 3.338-2.364 8.372.722 3.524 3.217 6.866 4.648 8.532-1.891 2.208-3.61 4.592-4.402 6.685-1.572 4.092-3.244 10.097-3.459 16.082-.047 1.378.48 3.798.536 5.06.285 6.456 7.89 21.572 8.87 23.386-.044.134-.994 1.095-1.124 1.381-.367.765-.667 1.59-.693 2.457-.048 1.263.48 2.613 2.213 4.034 1.534 1.229 5.6 3.71 7.691 4.952-.359.723-.706 1.587-.723 2.307-.047 1.22.13 1.76.776 2.43l.088.084.914.986c-.708 1.5-4.246 8.958-4.246 8.958l2.953 4.266 10.924 4.132s2.365.48 3.318.361c.402 1.109.926 2.468 1.137 3.069-.152.478-.258.954-.273 1.427-.06 1.541.534 3.028 1.304 4.01.41.511.588 1.09.587 1.306-.895.986-2.765 5.914-4.169 9.22l-.367.835.575.715c.078.08.959.698 3.367 2.89 2.687 2.45 7.598 3.06 7.796 3.08l.358.043 6.293-2.324.107-.922c.248-2.115.942-7.808 1.065-8.627.057-.29.098-.692.108-1.138.043-1.328-.076-3.164-.572-4.236l-.995-1.928c-.504-.913-1.426-2.627-1.554-3.051a2.672 2.672 0 01-.02-.504c.014-.587.175-1.41.31-1.723.375-.814.452-2.265.474-2.85l.016-.283s-.743-2.147-1.263-3.655c1.968-.33 5.771-.957 5.771-.957l.355-.43c1.649-1.972 4.98-5.904 5.703-6.668 1.086-1.167 2.139-4.315 2.433-5.266l.051-.125.012-.125c.484-3.724 1.283-9.82 1.386-10.385 0 0 1.149-7.527 1.67-10.03 1.597.378 2.719-.393 3.426-.681 1.588.865 3.48-.618 4.471-.998 1.775 1.21 5.05 3.153 7.578 3.88 2.8.814 10.524 5.726 11.496 6.347 1.423.912 1.455 2.58 1.43 3.463-.011.13-.623 2.597-.623 2.597-.051 1.09-1.908 6.052-3.769 11.05-.708.393-2.354 1.26-2.903 1.78-.531.486-1.681 3.936-2.763 5.255-3.726-1.705-6.264-1.071-6.668-.957-1.064.265-5.749 2.682-6.867 4.072-1.102 1.35-2.042 5.58-2.121 7.536-.019.886.708 2.706 1.303 3.892 0 0 2.658 2.404 3.966 3.256 0 0 3.788 1.828 4.879 2.01l.612.12c.719.166 1.6.351 2.532-.292.556-.391 6.402-3.948 7.581-4.895l.299-.24s2.157-5.263 2.404-5.849c1.035-.906 3.924-3.452 4.693-4.41.738-.904 1.071-2.848 1.538-5.926l.448-2.557c.255-1.002 1.28-2.58 2.183-3.971l1.221-1.939c1.038-1.78 1.753-4.816 1.983-5.842.539-.761 1.14-1.503 1.362-1.672.833-.612 1.837-2.189 2.137-2.662l.238-.372-.008-.461c-.044-2.166-1.413-5.04-1.379-6.124z"/><path fill="#B49154" d="M166.62 134.071c0-.048-.045-.102-.045-.134l-.003-.087.048.221"/><path fill="#231F20" d="M82.407 66.407h.018c-.045.009-.069 0-.12.078.034-.078.075-.07.102-.078"/><path fill="#FFF" d="M140.882 82.176c-.632-.696-.962-3.81-1.389-4.477-.417-.683-1.801-2.06-1.801-2.06s.086 3.658-.059 4.535c-.138.891.542 3.555 1.305 4.041.739.468 5.232 1.395 5.232 1.395s4.344-.508 4.803-.927c.45-.425.854-2.08.854-2.08l-5.46.91s-2.855-.647-3.485-1.337"/><path fill="#FEF0C8" d="M105.11 111.755c-2.722-.074-5.438.283-5.89.35-.314.316-.496.536-.496.536.812-5.382 5.949-6.518 5.949-6.518l5.51-.103c1.688 1.28 6.747 2.383 6.747 2.383s.438-3.664-.86-7.281c-1.299-3.618-4.092-5.555-4.092-5.555s3.245.829 4.642 1.803c1.379.962 4.18 5.664 4.18 5.664s.712-5.706.097-8.575c-.608-2.897-3.988-10.87-3.988-10.87l-3.043-3.163c1.841-.552 6.99-1.691 8.5-1.325 1.522.353 9.469 6.25 9.469 6.25s-1.32-8.714-1.54-11.17c-.216-2.462-3.697-16.361-4.049-17.817-.348-1.444.658-3.95.658-3.95l6.168-21.103s-1.993 10.015-2.82 12.75c-.803 2.73-.571 4.986-.571 4.986l1.791 9.452s.041 1.736.844 2.066c.81.338 3.62 1.56 4.189 2.804.375.859.547 2.67.729 4.724.086.967.099.973.092.967.03-.117.061-.236.095-.34.06-.177.133-.35.195-.523.049-.127.09-.254.149-.378.1-.248.234-.473.358-.724.082-.122.144-.263.23-.39.157-.247.345-.473.534-.703.098-.112.17-.227.28-.338.307-.313.653-.61 1.064-.857 2.807-1.798 4.068.247 5.004 1.573l.263 1.234 2.773 2.762-2.337 3.138s1.337 3.144 1.64 3.819c.305.666 2.99-.334 2.99-.334s.502-1.205.61-1.531c.103-.25 1.322-.769 1.92-1.012l-.805-.018s-.742-.905-.597-2.06c.143-1.148.842-2.084 1.645-2.823.379-.353.81-.354 1.218-.218-.22-.157-.45-.297-.59-.411-.437-.353-3.098 2.865-3.098 2.865s-.556-2.883-1.08-3.587c-.536-.672-2.728-1.303-3.369-1.664 0 0-.746-1.981-1.563-3.884-.624-2.524-1.496-5.68-2.528-8.216v.007s0-.007-.006-.007c-.11-.09-7.803-7.609-8.758-11.61-.961-4.02 1.139-3.823 1.813-3.91 0 0-1.022-5.684-.384-7.883 0 0 .374 1.869.853 3.933-.292-1.5-.665-3.619-.665-3.619s2.32 3.089 3.62 6.045c0-.327.005-.652-.013-.968 0-.156.01-.293-.006-.43a19.892 19.892 0 00-.069-1.173c-.197-2.003-.892-3.957-3.173-5.924-.02-.02-.048-.044-.06-.059-.069-.04-.136-.099-.186-.143a16.679 16.679 0 00-1.877-1.332c-2.86.616-3.646-.782-3.646-.782-.389.377-.959 1.067-1.657 1.971-6.495 10.35-13.122 29.068-13.122 29.068s-12.588 7.946-14.229 9.128c-1.46 1.05-8.025 9.672-9.566 11.71-.213.275-.318.437-.318.437l-.435.671C91 75 91.721 71.931 92.391 69.86c0 0 0 .004-.004.004-4.144.427-10.236 3.682-13.326 5.387-.205.114-.4.242-.627.397-.094.071-.2.142-.302.222-.133.097-.265.19-.402.297-.13.1-.253.214-.385.315-.125.107-.25.198-.38.313-.149.129-.297.261-.451.4-.117.108-.244.215-.369.331-.168.144-.33.3-.5.471-.117.103-.23.208-.345.32-.181.178-.37.359-.557.544-.107.096-.203.203-.308.302a18.69 18.69 0 00-.611.604c-.094.091-.175.179-.264.276-.214.212-.434.443-.649.667-.077.07-.146.15-.213.218-.237.243-.463.483-.699.733-.042.048-.09.097-.145.151-.248.255-.496.538-.744.799-.016.014-.02.033-.038.051a134.343 134.343 0 00-3.887 4.352c-.016.02-.034.034-.048.05a5.714 5.714 0 00-.292.336 2.268 2.268 0 01-.133.308c-1.813 4.3-3.1 9.182-3.234 12.74-.194 5.4 4.255 15.78 4.818 17.134.558 1.346 2.39 3.039 3.09 3.567.684.544 7.128 3.183 7.128 3.183s-6.512-11.425-6.508-19.803c-.014-8.379 2.868-17.461 2.868-17.461-1.528 8.639-.306 16.785.135 19.003.526 2.615 2.98 6.865 4.761 8.46 1.769 1.591 9.542 6.041 9.542 6.041l.041-2.55 3.307-9.487s-1.22-3.005-.906-5.947c.307-2.952 3.617-9.868 3.617-9.868-2.26 6.039.565 18.09.565 18.09-3.048 5.401-2.742 11.022-2.47 12.26.25 1.236 1.56 5.357 2.455 5.9.903.543 2.458.452 2.458.452 5.824-1.38 11.311-6.353 11.569-6.598-.1.08-.476.174-.372-2.757.087-2.475 1.618-4.64 2.414-5.595-.275-.189-.745-.577-1.579-1.338-1.055-.973-3.173-1.307-5.302-1.378M111.501 139.954s-2.234 2.777-3.192 4.067c-.969 1.292-1.611 4.848-1.611 4.848-1.35-2.091.21-5.81.21-5.81s-3.182-2.27-3.485-2.27c-.304-.017-5.47 1.842-5.47 1.842s-2.648 8.172-2.075 9.725c.549 1.552 3.917 6.976 3.917 6.976l10.849-1.131s2.475-3.492 3.627-4.362c.718-.564 1.432-1.563 2.014-2.576.023-.035.038-.077.063-.111.057-.187.125-.395.176-.59.052-.17.104-.357.15-.55.023-.098.059-.21.077-.324.037-.175.07-.35.11-.541.019-.123.04-.251.063-.373.03-.17.063-.354.076-.528.02-.16.047-.297.062-.445l.056-.485c.022-.163.023-.329.047-.494.007-.14.024-.295.03-.437.016-.19.03-.382.037-.567.012-.127.012-.257.015-.374.022-.2.027-.407.026-.613.007-.1.01-.21.01-.307.01-.22.006-.445.007-.653a1.385 1.385 0 01.007-.237c0-.237 0-.465-.005-.694-.014-.05-.005-.1-.006-.14a27.67 27.67 0 00-.016-.732c.004-.02 0-.047.003-.068-.011-.233-.026-.458-.026-.666-.007-.012-.007-.035-.009-.059-.012-.435-.03-.81-.059-1.102.01-.014 0-.021 0-.021-.026-.46-.055-.728-.055-.728l.49-13.641.014-.002a12.142 12.142 0 01-1.707-1.808.992.992 0 01-.146-.2s-.036-.026-.043-.035l-1.89-.548-2.34 16.764M91.477 147.604c.384-1.38.506-4.258-.928-5.21-1.454-.94-12.178-7.502-12.178-7.502s7.9 7.933 8.769 8.783c.866.852 1.96 1.632 1.764 2.522-.203.891-1.348 5.36-.24 6.476 1.102 1.098-1.288 6.413-3.118 9.371l4.727 1.845s2.248-5.861 2.484-7.907c.235-2.031-.584-3.79-.965-4.545-.379-.74-.692-2.446-.315-3.833"/><path fill="#FEEFAF" d="M104.917 137.987c.668.11 2.444 1.251 2.444 1.251l1.254-2.301 1.536-5.702c-2.42 5.899-8.632 7.068-8.653 7.134-.055.07 2.564-.508 3.419-.382"/><path fill="#FEF0C8" d="M89.799 129.289c-1.41.18-3.905-1.696-3.905-1.696-.11 2.877-3.39 5.28-3.39 5.28l1.42.776c2.87-.139 5.875-4.36 5.875-4.36M155.855 126.447c-1.5-1.781-4.567-7.893-4.935-9.15-.361-1.256-1.312-2.357-1.614-2.943-.313-.588-4.578-5.338-5.212-6.022-.634-.688-1.207-.749-1.728-.191-.501.564-1.56 1.269-2.658 1.884-1.089.627-2.113 7.057-2.113 7.057 1.715 2.694 8.698 7.136 9.97 8.425 1.268 1.283 2.443 2.796 2.443 2.796-2.94-.674-9.477-3.549-9.477-3.549 3.195 2.503 8.37 7.743 9.815 9.022 1.426 1.293 3.997 3.022 3.997 3.022l1.867.402s2.088 3.784 3.495 3.671c1.391-.119 2.05-.126 2.508-1.257.451-1.145-.6-4.396-1.188-6.233-.584-1.821-3.67-5.148-5.17-6.934"/><path fill="#231F20" d="M73.427 56.644s-5.059-2.93-7.776-3.739c-2.73-.774-4.245-1.52-9.604-1.017-5.347.485-6.61 1.991-9.268 3.965 0 0 8.698-2.603 10.07-2.387 0 0-1.575.792-3.344 2.116-1.767 1.311-6.338 4.08-13.874 3.12 0 0 2.044 1.578 2.18 1.621 3.294 1.222 6.486 1.276 9.106.166 2.625-1.114 10.669-4.613 16.529-.275 0 0 4.594-3.436 5.981-3.57M134.939 31.205s4.657 5.309 4.657 9.398c0 4.09-.858 4.232-.858 4.232l3.511 9.47s-8.062-7.64-8.813-11.908c-.646-3.66 1.861-3.516 1.861-3.516s-.929-6.243-.358-7.676"/><path fill="#FFF" d="M134.358 42.729s.87.53 1.51.188c.642-.34 1.132-1.17 1.132-1.17s-.076 1.813-.982 2.378c-.904.568-1.66-1.396-1.66-1.396"/><path fill="#231F20" d="M155.24 40.863l-3.92-8.468 1.67 11.244zM145.096 41.14l-4.114-10.587 1.052 10.276-1.551 3.389 4.613-3.078M144.72 70.471c-.188-.68-.797-2.13-1.353-2.373-.545-.239-2.408-.422-2.408-.422s-1.163 1.511-1.616 2.043c-.462.531-.267 1.32.143 2.119.409.787 5.204 5.708 5.204 5.708l-1.504-4.47s1.74-1.94 1.533-2.605M155.717 70.22c-.298-.363-.715-.715-1.162-.883-.407-.136-.839-.135-1.218.218-.803.74-1.502 1.675-1.645 2.824-.145 1.154.597 2.06.597 2.06l.805.017c.064-.028.094-.044.134-.05.068-.054.167-.119.289-.22.582-.45 1.642-1.366 1.74-2.065.13-.957 1.013-1.206.46-1.902"/><path fill="#004E3A" d="M133.3 104.094c-.957 3.633-5.798 13.473-5.798 13.473s8.108-10.022 8.556-11.13c.464-1.1 1.694-9.935 1.249-11.593-.466-1.646-3.043-6.232-3.043-6.232s.467 4.095.301 5.832c-.16 1.73-.324 6.01-1.265 9.65M151.484 162.723l-5.966 3.64-3.142 6.332-8.907 4.433s1.345 1.438 4.684 2.172l6.906-4.51 2.517-6.204 6.167-4.85s.222-5.99.746-7.815c.52-1.815 3.694-4.925 4.406-7.36 0 0-4.277 3.993-5.562 5.333-1.27 1.335-1.849 8.83-1.849 8.83M105.016 166.425c-.378-2.018-2.158-3.923-2.158-3.923l-2.3-.08s1.881 3.15 2.004 4.227c.106 1.083-1.215 3.8-1.107 5.021.105 1.241 3.186 5.04 3.408 7.66.208 2.614-2.566 11.425-2.566 11.425s3.236-.204 4.032-.943c0 0 1.879-9.738 1.31-10.993-.566-1.263-3.788-5.668-3.42-7.35.377-1.682 1.19-3.032.797-5.044M133.437 121.757s.457-2.377.52-4.216c0 0-1.711 6.912-6.24 5.276 0 0-1.334 1.247-3.672.057l-.303 3.301s2.204-.097 3.527-1.158c0 0 2.524 1.011 4.798-.746 0 0 4.1 3.281 7.022 3.75 0 0-3.597-2.16-5.652-6.264M117.178 140.14s.01.019.001.033c.028.292.047.667.06 1.102.001.024.001.047.008.06 0 .207.02.429.026.665-.003.02.001.049-.003.068.007.233.014.472.016.731.001.04-.008.092.006.141.006.23 0 .457.005.694-.01.086-.01.155-.007.237-.001.208.003.433-.008.653 0 .097-.01.207-.01.307.002.206-.003.414-.025.613.003.125-.003.247-.015.374-.006.185-.02.378-.037.567a8.63 8.63 0 01-.03.437c-.024.165-.025.331-.047.494l-.056.485c-.015.148-.041.285-.062.445-.013.174-.045.353-.076.528-.025.125-.044.25-.063.373-.04.19-.073.366-.11.54-.018.116-.048.215-.077.325-.046.193-.098.38-.15.55-.015.053-.02.096-.036.133-.04.157-.096.313-.14.457.32-.569.596-1.118.831-1.613.656-1.398 1.22-8.312 1.851-11.86.642-3.558 1.394-10.472 1.394-10.472-1.012-.119-2.001-.75-2.81-1.424l-.49 13.64s.029.269.054.716M94.782 78.84s8.496-8.804 12.844-10.289c4.348-1.482 10.868-4.153 12.45-6.23 1.58-2.08 3.26-12.861 4.94-17.51 1.681-4.65 4.448-12.268 4.448-12.268s-5.732 8.012-8.103 13.355c-2.373 5.342-5.533 12.76-5.533 12.76s-9.289 5.344-12.55 8.606c-3.26 3.267-8.496 11.575-8.496 11.575M151.92 66.009c.767-.312 1.2-.265 1.2-.265s.79-4.924.976-7.762c.181-2.828-.359-6.74-.359-6.74s.38-1.132 1.016-3.143c.632-1.997.819-4.836.819-4.836s-.536.68-.691.96c0 0-3.661 4.193-4.233 6.24-.584 2.054-.194 7.205.646 10.028.15.517.304 1.85.304 1.85l.277 1.404s-1.345.748-2.121 1.765c-.767 1.002-.149 2.275-.149 2.275s1.117-1.297 2.316-1.776M113.416 30.518l-2.136-.248c1.432 1.695 3.393 1.76 3.393 1.76l7.236-4.823-8.493 3.311M116.378 34.728s-2.893 3.024-3.885 3.478c-1.014.462-7.996 2.824-9.95 2.432-1.965-.396-4.199-2.45-4.199-2.45 1.379 3.168 4.115 4.588 4.115 4.588s8.948-1.82 10.114-2.438c1.175-.62 3.805-5.61 3.805-5.61M108.686 47.164c-2.112 3.02-6.977 8.21-7.677 8.873-.858.795-5.98 1.6-7.14 2.05-1.17.45-3.77.02-3.77.02.947.855 2.073 1.561 3.544 1.446 1.484-.11 5.757-.285 7.784-1.85 1.55-1.198 5.495-7.597 7.259-10.54M73.465 74.397c-.657-2.311-1.525-6.084-.693-7.814 1.241-2.593 7.495-7.295 7.495-7.295s-.792-1.02-6.195 3.232c-4.332 3.389-3.35 11.081-2.767 14.018a93.976 93.976 0 012.16-2.14M70.894 76.964c-1.975-.816-6.337-7.032-6.337-7.032.681 3.23 4.736 8.3 4.924 8.541.467-.52.944-1.036 1.413-1.51M80.934 67.676l-.29-.655.115-3.271-1.27 3.395.412 1.416c.355-.293.686-.591 1.033-.885M67.137 87.062c.804-.923 2.248-2.582 3.935-4.4.017-.02.022-.038.038-.052.25-.267.489-.533.744-.799.055-.054.103-.103.145-.151.236-.25.462-.49.7-.733.07-.076.135-.148.212-.218.215-.224.435-.455.65-.667.088-.097.169-.185.263-.276.216-.212.407-.41.611-.604.1-.099.2-.206.308-.302.187-.185.376-.366.557-.543.115-.113.228-.218.346-.32.17-.173.331-.328.5-.472.124-.116.251-.223.368-.33.154-.14.302-.272.452-.4.13-.116.254-.207.379-.314.132-.101.256-.214.385-.315.137-.106.27-.2.402-.297.101-.08.208-.151.302-.222.227-.155.422-.283.627-.397 3.09-1.705 9.182-4.96 13.326-5.387 1.153-3.486 2.165-4.094 2.165-4.094s.02-.086-.142-.162c-1.028-.124-2.602-.107-4.908.356C84.36 67 73.202 77.002 69.87 81.785c-.185.264-.37.542-.555.832a2.208 2.208 0 01-.154.235c-.15.264-.307.53-.488.814-.033.1-.098.2-.156.303-.115.208-.221.408-.328.62-.093.158-.156.298-.236.45a6.158 6.158 0 00-.252.514c-.155.287-.285.577-.431.882-.055.107-.09.199-.145.309-.1.228-.2.45-.29.673.007-.006.01-.011.01-.011.005-.007.005-.007.004-.019.082-.097.179-.207.288-.325M142.713 15.12c1.94.575 5.451 3.492 5.896 4.839.444 1.312-.851 5.38-.851 5.38s3.091-3.842 2.666-5.665c-.421-1.822-2.669-3.377-5.227-5.286-2.564-1.901-10.56-3.002-11.845-4.042-1.259-1.016-.505-3.97-.505-3.97-6.652 6.673 7.909 8.181 9.866 8.745M126.246 20.946l-.755-2.003s-4.27.17-4.934.15c-.653-.018-1.13-.2-1.927-1.043-.797-.861-3.713-6.402-3.713-6.402.41 2.325 1.915 6.156 3.986 8.038 2.058 1.888 7.343 1.26 7.343 1.26M136.81 39.027s1.369.525 1.51 2.909c.11 1.925-1.094 2.53-1.094 2.53l5.055 9.833.006.007-3.512-9.471s.861-.142.861-4.232-4.658-9.398-4.658-9.398c.35 1.437 1.315 5.388 1.532 6.312.262 1.133.3 1.51.3 1.51"/></g></g></svg>