<svg id="Layer_1" data-name="Layer 1" xmlns="http://www.w3.org/2000/svg" width="312" height="312" viewBox="0 0 312 312"><defs><style>.cls-1{fill:none;}.cls-2{fill:#a3a3a3;}</style></defs><rect id="canvas_background" data-name="canvas background" class="cls-1" width="312" height="312"/><path id="svg_1" data-name="svg 1" class="cls-2" d="M80,165.106h33.981V305a4.99926,4.99926,0,0,0,4.9985,5H176.597a4.99928,4.99928,0,0,0,5-4.99854V165.765h39.064a5.00072,5.00072,0,0,0,4.967-4.429l5.933-51.502a4.99885,4.99885,0,0,0-4.966-5.572H181.599V71.978c0-9.732,5.24-14.667,15.576-14.667h29.42a4.99993,4.99993,0,0,0,5-4.9998h0V5.037a4.99929,4.99929,0,0,0-4.99852-5H186.05C185.764.023,185.129,0,184.193,0c-7.035,0-31.488,1.381-50.804,19.151-21.402,19.692-18.427,43.27-17.716,47.358v37.752H80a4.99926,4.99926,0,0,0-5,4.9985V160.105a5.00008,5.00008,0,0,0,4.99916,5.001H80Z" transform="translate(1 1)"/></svg>