<svg data-name="Layer 1" xmlns="http://www.w3.org/2000/svg" width="312" height="312"><path data-name="canvas background" fill="none" d="M0 0h312v312H0z"/><path data-name="svg 1" d="M81 166.106h33.981V306a5 5 0 004.998 5h57.618a5 5 0 005-4.999V166.765h39.064a5 5 0 004.967-4.429l5.933-51.502a4.999 4.999 0 00-4.966-5.572h-44.996V72.978c0-9.732 5.24-14.667 15.576-14.667h29.42a5 5 0 005-5V6.037a5 5 0 00-4.999-5H187.05A39.746 39.746 0 00185.193 1c-7.035 0-31.488 1.381-50.804 19.151-21.402 19.692-18.427 43.27-17.716 47.358v37.752H81a5 5 0 00-5 4.998v50.846a5 5 0 005 5.001z" fill="#a3a3a3"/></svg>