<svg width="370" height="370" xmlns="http://www.w3.org/2000/svg"><style>.st0{fill:#fff}.st1{fill:#003087}</style><path fill="none" id="canvas_background" d="M-1-1h372v372H-1z"/><g><g id="XMLID_83_"><g id="svg_1"><path d="M365.743 118.05c-2.5-5.4-7.6-9.3-14.1-10.8-2.6-.6-4.2-2.9-6.6-6.6-1.7-2.6-3.4-5.3-5.9-7.4-3.5-3-8-4.5-12.9-4.5-3.5 0-7.2.8-10.8 2.3-1.9.8-3.8 1.8-5.8 3.1-.8-.3-1.6-.5-2.4-.7-1.8-.4-3.7-.6-5.8-.6-2.1 0-4.3.2-6.8.6-4.6.7-11.5 3.5-15.1 5h-.1c-24.5-10.1-52.8-16.2-82-17.9-4.6-3.5-9.1-6.1-13-7.7-5.4-2.2-11.2-3.3-17.2-3.3-9.2 0-18.1 2.7-25.5 7.6-7.5-3.4-16.1-5.2-24.5-5.2-6.6 0-13 1.1-18.6 3.2-12.8 4.8-23.1 15.3-27.9 28.2-19.9 9.6-36.5 21.9-48.1 35.7-13.2 15.6-20.1 33.3-20.1 51.2 0 20.7 9.2 40.8 26.5 58.2 15.7 15.7 37.9 28.8 64 37.9 26.6 9.2 57 14.1 87.8 14.1 66.1 0 126.5-22.3 157.5-58.3.3-.3 4.8-6.2 4.8-6.2 4.3-5.7 7.6-11.3 10.1-17.2 7.7-18 7.9-37.9.4-55.9.9-1.2 1.8-2.5 2.6-3.8 1.8-3 3.3-6.1 4.4-9.3 1.2-3.4 2-6.9 2.3-10.4.3-.4.6-.9.9-1.3.8-1.2 1.5-2.6 2.1-3.9 2.1-5.4 2-11.2-.2-16.1z" class="st0" id="XMLID_85_"/><path d="M350.443 111.75c-7.4-1.7-9.2-10.6-14.5-15-5.4-4.6-12.7-4.1-18.9-1.5-2 .9-4.5 2.2-7.2 4.1-5.6-2.8-11.2-1.9-14.7-1.4-5.7.8-12.9 3.8-15.7 5.3-5.5 3-7 6.2-10.1 8-1.2.7-4.8 2.8-12 3.9-9.9 1.6-16.9.8-21.7.6-14.1-1-29.1-3.8-34.1-4.5-2.6-.7-10.1-6.1-16-11.1-8.9-7.5-11.3-7.8-15.2-8.3-14.9-1.8-21.3 8.5-21.3 8.5s-7-.3-11 0c-8.5-5.9-19.1-7.6-27.8-5.7-4.4 1-8.4 3.1-11.6 6.2-.1.1-3.6 3.4-5.5 8.8-.1.2-2.5 6.4-1.4 13.7-12.1 2.8-17.8 6.8-19 7.6-3 2.1-4.4 5.6-4.9 7.9-.7 4.2.7 8.7 2.7 12.5-4.5.6-9 1.7-11.8 2.9-1.9.9-8.4 4-7.5 12.8 0 .1.3 3.9 3.4 12.1-4.6 2.3-10.1 7.3-11.9 8.9-4.7 4.6-4.4 10.1-4.4 10.5 1.1 8.8 12.8 18.4 17.1 21.2 5.1 20.1 24.6 32.4 37.9 37.5.3.1 18.1 7.6 35.7 5.9 10.8 6.9 31.8 6.1 33.5 6.1 10.7.1 23-2.5 23.2-2.5 11.6-2.1 11.9-4.3 12.4-6.8 18.2 1.7 32.9-2.2 33.4-2.3 7.1-1.7 8.2-3.4 9.3-5.2 15.2 1.2 26.4-1 30-2 9-2.3 12.9-5.7 15.3-8.5 8.1-.1 11.8.1 14.3.7 7.5 2 16.2.2 18.8-.4 8-2.1 16.2-6.8 23.5-14.6 2.3-3.5 4.3-7.2 6-11.1 7.3-16.9 7.3-35.8.2-52.7l-.9-2.1c8.5-10 9.8-20.2 10.1-23.5.1-.8.1-1 .6-1.6 1.2-1.5 2.3-3.5 2.8-4.6 1.6-3.9 1.7-8.4-.1-12.2-2-4.2-6.3-7-11-8.1z" class="st1" id="XMLID_89_"/><path d="M166.143 77.95c-1 0-2 .1-2.9.2-.3 0-.6.1-.9.1l-2.1.3c-.3.1-.6.1-1 .2-.7.1-1.3.3-2 .5-.3.1-.6.1-.8.2-1.9.5-3.7 1.2-5.4 2-.3.1-.5.3-.8.4-.6.3-1.2.6-1.7.9-.3.2-.6.3-.9.5-.5.3-1.1.7-1.6 1-.3.2-.5.4-.8.5-.7.5-1.3 1-2 1.5l-.2.2h-1.2c-11.8-6.7-27.9-8.3-40.3-3.6-.8.3-1.7.7-2.5 1.1l-.2.1-2.4 1.2c-2.1 1.2-4.1 2.5-6 4.1-1.9 1.5-3.6 3.2-5.1 5.1-.4.5-.9 1-1.3 1.6l-.1.2c-.4.5-.7 1-1.1 1.5l-.2.3c-.3.5-.6.9-.9 1.4-.1.2-.2.3-.3.5-.3.4-.5.9-.8 1.3-.1.3-.3.5-.4.8-.2.4-.4.8-.6 1.1-.2.4-.3.7-.5 1.1-.1.3-.3.6-.4.9-.2.6-.4 1.1-.6 1.7l-.1.4c-.2.7-.5 1.5-.7 2.2-40.5 18.6-66.7 47.9-66.7 80.9 0 1.1 0 2.2.1 3.4 0 .3 0 .6.1.9.1.9.1 1.9.3 2.8 0 .2 0 .4.1.6.1 1.1.3 2.2.5 3.3.1.3.1.6.2.8.2.9.4 1.7.6 2.6.1.3.1.5.2.8.3 1.1.6 2.1.9 3.2.1.2.1.4.2.7.3.9.6 1.7.9 2.6.1.3.2.6.3.8.4 1 .8 2.1 1.2 3.1l.2.4c.4.9.8 1.8 1.3 2.7.1.3.3.6.4.9.5.9.9 1.8 1.4 2.7l.2.4 1.8 3c.2.3.4.6.5.8.5.8 1 1.6 1.6 2.4.2.2.3.4.5.7.7 1 1.4 1.9 2.1 2.8.2.2.4.5.6.7.6.8 1.2 1.5 1.8 2.2.2.2.4.5.6.8l2.4 2.7.5.5c.7.8 1.4 1.5 2.1 2.2l.8.8c.9.8 1.7 1.7 2.6 2.5l.2.2c.9.8 1.8 1.6 2.7 2.5.3.3.6.5.9.8.8.7 1.6 1.4 2.5 2.1.2.2.4.3.6.5 1 .8 2 1.6 3.1 2.4.3.2.6.5.9.7.8.6 1.7 1.2 2.5 1.8l.9.6c1.1.8 2.2 1.5 3.4 2.3l.9.6c.9.6 1.8 1.2 2.8 1.7.4.2.7.5 1.1.7l3.6 2.1.6.3c1.1.6 2.2 1.2 3.2 1.8l1.2.6c1.1.6 2.2 1.2 3.3 1.7l.6.3c1.3.7 2.6 1.3 4 1.9l1.2.6c1.1.5 2.1 1 3.2 1.4.4.2.7.3 1.1.5 1.4.6 2.8 1.2 4.1 1.7.4.2.8.3 1.2.5 1.1.4 2.2.9 3.3 1.3.4.2.9.3 1.3.5 1.4.5 2.9 1 4.4 1.6.3.1.7.2 1 .3l3.6 1.2c.5.2 1 .3 1.5.5 1.4.4 2.9.9 4.3 1.3.2.1.4.1.6.2 1.5.4 3 .8 4.6 1.2.5.1 1 .3 1.5.4 1.5.4 3.1.8 4.6 1.2.2 0 .3.1.5.1l6.6 1.5c.3 0 .5.1.8.2 2.2.4 4.3.8 6.5 1.2.4.1.8.1 1.1.2 2.1.4 4.3.7 6.5 1 .4.1.8.1 1.3.2l6.6.9c.4 0 .9.1 1.3.1 2.2.2 4.5.5 6.7.7.4 0 .8.1 1.2.1 2.3.2 4.6.4 7 .5h1c2.4.1 4.8.2 7.3.3h.6c2.6.1 5.2.1 7.8.1 7.6 0 15-.3 22.3-.9h.2c3.2-.3 6.4-.6 9.5-.9.5-.1 1-.1 1.5-.2l4.8-.6c.2 0 .4 0 .5-.1 1.5-.2 3-.4 4.5-.7.3 0 .6-.1.9-.1.7-.1 1.4-.2 2.1-.4.2 0 .4-.1.6-.1.9-.1 1.8-.3 2.6-.5 1.3-.2 2.5-.5 3.8-.7l1.5-.3c1.3-.3 2.7-.6 4-.9.4-.1.7-.1 1-.2 1.2-.3 2.5-.6 3.7-.9.5-.1 1-.2 1.4-.3 1-.2 1.9-.5 2.9-.8.7-.2 1.4-.3 2.1-.5 1-.3 2-.6 3-.8.7-.2 1.3-.4 2-.6 1.1-.3 2.1-.6 3.2-1l1.7-.5c1-.3 1.9-.6 2.9-1l1.8-.6c.8-.3 1.7-.6 2.5-.9.7-.2 1.4-.5 2-.7.9-.3 1.7-.6 2.6-1 .7-.3 1.4-.5 2.1-.8.8-.3 1.7-.7 2.5-1 .6-.3 1.3-.5 1.9-.8l.2-.1 2-.8 2.1-.9c.8-.4 1.7-.8 2.5-1.2.6-.3 1.2-.5 1.7-.8.7-.3 1.4-.7 2.1-1 .7-.3 1.4-.7 2-1 .8-.4 1.6-.8 2.3-1.2.5-.3 1.1-.6 1.6-.9.3-.2.7-.4 1-.6.3-.2.6-.3.8-.5l2.1-1.2.6-.3 1.5-.9 1.6-1c.7-.4 1.4-.9 2.1-1.3.5-.3 1-.7 1.5-1l.9-.6c.3-.2.6-.4.8-.6l1.8-1.2c.7-.5 1.3-.9 1.9-1.4.5-.3.9-.7 1.4-1 .6-.5 1.2-1 1.9-1.4.5-.4.9-.7 1.4-1.1l1.8-1.5c.4-.4.9-.7 1.3-1.1.6-.5 1.2-1 1.8-1.6.4-.4.8-.7 1.2-1.1l1.8-1.7 1.5-1.5c-6.8 2.8-15.9 4.9-26.6 1.9h-.1c-27.9 20-70.9 32.9-119 32.9-84.2 0-152.5-39.2-152.5-87.7 0-25.8 19.4-49 50.3-65.1l.2-.1 4.8-2.4c.3-.1.6-.3.9-.4 1.6-.7 3.2-1.5 4.8-2.2h.1v-.5c0-11.5 6.3-21.6 16.3-25.4 10.1-3.8 24-1.9 32.8 4.4 2.8-.2 7.3-.1 9.4 0 5.9-7.8 18.7-11 28.9-6.9 2.5 1 6 3.9 10.1 7.3 1.6 1.3 3.2 2.6 4.9 3.9 22.8.9 44.2 4.8 63.1 10.8 5.5-.7 10.4-2.1 14.3-4.5 1.9-1.8 3.5-3.1 4.7-4-23.2-9.1-50.3-14.9-79.5-16.3-.2-.2-.4-.3-.6-.5l-.3-.3c-.5-.4-1-.8-1.6-1.2h-.1c-.5-.4-1-.7-1.5-1.1l-.1-.1c-.5-.3-1-.7-1.4-1l-.2-.1c-.5-.3-.9-.6-1.4-.9l-.3-.2c-.4-.3-.8-.5-1.2-.7l-.4-.2c-.4-.2-.7-.4-1.1-.6l-.6-.3c-.3-.2-.6-.3-.9-.4-.5-.2-.9-.4-1.4-.6-3.2-1.3-6.6-2.1-10-2.5-1.5 0-3.2-.1-4.9 0zm179.4 87c-2.9 2.9-7.7 7.2-12.3 6.7-.5-.1-1.4 3.2-1.6 3.8-.3.9-.4 1.2-.1 2.2.2.7.4 1.5.5 2.2.6 3 1 6 1 9.1.1 3.2-.2 6.5-.7 9.7-.1.8-.3 1.5-.4 2.2-.2.8.3.9.8 1.5.7.8 1.2 1.7 1.6 2.6 1 2.6 1.3 5.6 1 8.3 2-.8 4.6-1.5 6.7-.7 2.6 1 2.2 4.1 1.9 6.3 4.4-8.9 6.8-18.7 6.8-28.7.1-8.6-1.8-17.2-5.2-25.2zm-139.4 11.3l-.4.1c-.6 3.1-2 6.1-3.7 8.7-2 3.3-4.9 7.1-8.6 8.6-2.6 1.1-6.1.4-6.7-2.7-.3-1.7.4-3.5.3-5.2-.1-1.6-.5-3.4-1.7-4.6-.7-.1-2.1.7-2.8 1-.7.2-1.3 3.2-1.6 4-1.4 3.2-3.6 6.1-6.2 8.4-2 1.8-4.3 3.4-6.8 4.5-2.2.9-6.1 1.3-7.3-1.5-.7-1.8.7-3.6 1.2-5.3.6-1.8.9-3.7.9-5.6 0-.5.2-2.3-.2-2.7-.9-.9-3 2-3.5 2.5-3 2.7-6.3 5.1-9.9 6.9-2.8 1.4-6.6 3.2-9.7 2.4-1.3-.4-2.5-1.3-2.8-2.7-.4-1.6.4-3 1.1-4.3 1.2-2.6 2.3-5.4 2.5-8.3.1-1.4-6.2-2.6-7.4-2.9-.2 0-2.1-.6-2.2-.4-.4.6-.8 1.2-1.1 1.9-1.6 3-3 6.5-2.9 10 0 1.6.1 3-1.3 4.1-1.2.9-2.8 1.1-4.3 1-6.5-.8-11.6-7.9-13.3-13.7-10.9 5.3-11.1 20.6-9 30.7 1.1-.2 3.5-.7 3.5-.7 0-1.5.5-3.2.7-3.8 1.2-3.6 3.3-7.4 6-10.1 2.6-2.5 7.9-4.1 9.2.5 1.2 3.9 1.1 8.1 4.4 11 .3-1.6.8-3.3 1.4-4.8 1.2-2.9 3.2-6.4 6.4-7.5 2.8-1 5.8.6 5.9 3.7 0 2.1-.1 4 .4 6.1.6 2 1.4 3.9 2.4 5.7l1.8 3c.5.8.7 1.8 1.8 1.3 1.4-.6 2.6-1.7 3.4-3 .9-1.3 1.5-2.9 1.7-4.5.2-1.5-.1-3.1.4-4.6.9-2.8 3.7-2.7 5.9-1.6 6.8 3.3 7.8 11.5 8.9 18.2 5.2-1.9 8.1-7.1 9.7-12.1.7-2.3 1.1-4.7 1.4-7.1.2-2 .1-5 2.4-5.9 2.4-.9 5.3.9 7.2 2.2 2.2 1.5 4.2 3.3 6.1 5.3l1.4 1.4c.1.1 2.5-1.1 2.8-1.3 1.9-.8 4.1-1.1 5.7-2.4 2.5-2.1 4.1-5.3 4.7-8.5.5-2.4-.5-5.8 1.6-7.5 2.7-2.2 6.5.2 8.8 1.9 3.1 2.3 5.7 5.3 7.9 8.5 1.2 1.7 2.4 3.6 3.3 5.5.4.8.8 1.7 1.2 2.6.3.6.5 2.2 1.2 2 3.5-1 6.6-3.7 8.7-6.7 1-1.4 1.8-2.9 2.2-4.6.4-1.4 1-3 2.3-3.8 2.3-1.5 5.2.2 6.8 1.9 2.3 2.4 3.3 6.4 4.1 9.4 1.1 4.2 1.9 8.6 1.7 13 4.9-1 9.5-3.4 13.5-6.3 3.7-2.7 6.5-5.8 8.9-9.6-8.8-3.2-17-7.8-25.6-11.4-7.7-3.2-16-6.7-24.3-8-1-.1-1.2-.1-2.1.6-.8.6-1.7 1.2-2.6 1.6-1.2.7-2.6 1.3-4 1.4-1.9.2-3.6-.8-4.5-2.5-.4-.8-.6-1.6-.7-2.5 0-.4-1.3-.3-1.6-.3-1.2-.1-2.5-.2-3.8-.4.2 0-.7-.2-1.2-.2zm80.8 25c.9 4.2.9 8.6.6 12.9 4.4-2.2 8.3-5.9 11.3-9.7-4-.9-8-2-11.9-3.2z" id="XMLID_94_" fill="#fa4616"/><path d="M168.243 97.15c-4.5-.1-8.8 1.9-12.2 4.7 4.1.8 8.1 1.9 11.9 3.6 2 .9 4 1.9 5.9 3.1.9.5 1.3.5 2.2.5h2.1c4.9.2 9.8.7 14.6 1.4-2-.3-3.9-1.9-5.5-3-2.5-1.7-4.9-3.6-7.2-5.5-3.2-2.7-7.3-4.7-11.8-4.8zm159 2c-4.3-.1-8.9 2.1-12.2 4.3 2.2 1.5 3.8 4.1 5.4 6.1 1.8 2.2 3.7 4.5 6.3 5.8 2.9 1.5 5.6-.7 8.6-.1 1.7.3 1 1.4.7 2.6-.2.8 1.1 1.3 1.4 2 .9 2.6-6.7.3-7.7 0-3.4-1.1-6.6-2.8-9.5-4.9-2.6-1.8-4.9-4-7.2-6.3-1.5-1.5-3.2-2.9-5.1-3.8-6-2.7-13.8-1.1-19.7 1.2-5.8 2.3-12 5.7-16.4 10.3-2.3 2.4-4.4 4.8-7.1 6.9-1.6 1.3-3.3 2.4-5.2 3.3-1.4.7-3.6 1.9-5.2 1.6-1.7-.3.1-1.5.7-1.8 1-.6 1.9-1.3 2.9-2 2.2-1.6 4.8-3.5 6.2-5.9-4.5 1.8-9.9 1.9-14.7 2.2-6.3.3-12.6.3-18.9-.3-5.9-.6-11.7-1.9-17.5-2.8-8.5-1.3-17-2.4-25.6-3-4.5-.3-9.1-.2-13.7-.5-3.3-.2-6.2-2.7-9.3-3.8-6.3-2.4-13.5-4-20.3-3.8 2.1 4 6.2 7.1 9.8 9.7 1.6 1.2 3.2 2.3 4.9 3.3.8.5 3.7 1.8 3.1 3-.8 1.5-4.5-.5-5.5-1-2.4-1.1-4.6-2.6-6.7-4.2-4.3-3.2-8.3-6.9-12.4-10.3-5.4-4.5-11.4-7.3-18.5-7.3-6.6 0-14.5 2.3-18.2 8-3.5 5.4-3.6 13-1.8 19 .4 1.5 1 2.9 1.8 4.2.4.7 1.6 2.3 1.2 3.2-.7 1.5-5.2-2.9-5.8-3.6-2.7 4.5-5.2 9.7-4.7 15.1.2 2.6 1.2 5.1 2.6 7.3.4.6 3.2 3.6 2.2 4.6-.9.9-3.5-1.4-4.1-1.9-.6-.5-2.7-3.2-3.4-2.8-3.3 1.9-6.4 4.2-9.2 6.8-10.6 9.8-16.6 23.6-18.5 37.7-1 7.4-1.4 15 .8 22.2 1.9 6.4 5.6 12.1 10.2 17 10.1 10.6 24.2 17 38.4 19.9 7 1.4 13.9 1.7 20.9.8 7.6-1 15-3 22.2-5.6 6.5-2.4 13-5.3 18.8-9.1 1.2-.8 2.4-2 3.7-2.6 1.7-.8 3.6-.8 5.4-.8l8.7.3c14.3.2 28.7-.4 43-1.6l9-.9c3.9-.5 7.4-.4 11.3.1 6.9.9 14 .9 21 .9 5.8 0 11.7-.3 17.5-.1 3.9.2 7.7.5 11.6.8 3.3.2 6.7.5 10 0 6.9-1.1 13.8-4.6 19.1-9.1 2.4-2.1 4.7-4.6 6-7.5.5-1.2 2.1-5.9-.6-5.8-1.5 0-2.9 1-4.3 1.6-1.2.6-2.5 1.1-3.8 1.5-3 1.1-6 1.9-9.1 2.6-7 1.5-14.1 2.3-21.3 2.8-13.5.8-27.4.5-40.7-2-6.5-1.3-12.8-4-18.9-6.6-5.9-2.6-11.7-5.5-17.7-7.8-7.3-2.9-16.1-2.9-23.7-.9-5.6 1.5-10.7 4.8-15.7 7.6-5.8 3.3-11.5 6.7-17.4 9.8-2.2 1.2-4.5 2.4-6.9 3.2-4.2 1.5-8.8 1.5-13 .2-6.2-1.9-10.5-6.5-15.9-9.8-6.6-4-14.4-4.6-21.9-3.5-3.4.5-6.7 1.5-9.7 3.1-3 1.7-5 4.2-7.6 6.5-2.5 2.2-7 5.1-9.2.9-.7-1.4-.4-3.1-.8-4.6-.4-1.4-1.1-2.6-1.7-3.9-3.3-6.7-5-14.2-1.9-21.4 1.5-3.4 3.5-6.7 5.6-9.7 1.1-1.5 2.2-3 3.5-4.3.6-.7 2-2.3 3.1-1.8 1.3.6-2.7 6.5-3.2 7.4-1.5 2.8-3 5.5-4.3 8.4-3.5 7.6 1.6 16.2 4.9 23 1.4-1.2 2.9-2.5 4.3-3.7 1-.8 2-1.7 3.1-2.5.7-.5.3-1 .1-1.8-.2-.8-.3-1.6-.5-2.4-1-5.8-1.1-11.8.5-17.5 2.7-9.8 10.3-17.3 20.1-19.9 6.3-1.7 12.5-1.1 18.8.3 3.7.8 7.4 1.8 11.1 3.1 3.6 1.2 7 2.7 10.8 3.4 4.4.8 9 1 13.5.7 3.7-.2 7.5-.6 11-1.8 5.2-1.8 10-4.8 14.7-7.7 5.3-3.2 10.4-6.6 15.6-10 5-3.3 9.8-6.4 15.8-7.4 7.7-1.2 14.9 1.2 22.2 3.4 8 2.4 16.5 4.9 25 3.7 5.2-.7 9.7-2.8 14.3-5.1 5.6-2.8 11-5.8 16.5-8.7 4.4-2.3 9-4.9 13.7-6.4 3.4-1.1 7-1.2 10.5-1.1 4.2 0 8.5.4 12.7 1 6.2.9 12.7-4.7 15.1-10 3-6.7-3.4-11.1-8.7-13.6-3.6-1.7-6.6-3.4-9.1-6.7-1.3-1.8-2-4.1-3.6-5.8-1.6-1.9-4-2.8-6.6-2.8zm-237.7 30.2c-4.7 1.3-10 3.2-13.9 6.3-6 4.7-.6 13.5 2.6 18.1 1.7-1.4 3.3-2.9 4.9-4.3.3-.2 1.5-1 1.5-1.4 0-.9.1-1.8.1-2.7.1-2.3.3-4.3 1-6.6 1-3.2 2.2-6.5 3.8-9.4zm-14.5 27.1c-4.5.2-9.2 1-13.5 2.6-3.7 1.4-5.6 4.4-4.9 8.3.7 3.8 1.9 7.5 3.4 11 3.4-8.2 8.4-15.8 15-21.9zm-16.8 27c-2.7 1.3-5.2 3.1-7.5 5-2.2 1.7-4.7 3.6-6 6.2-1.9 3.5-.4 6.5 1.8 9.3 2.3 3 5 5.8 8 8.1v-1.8c-.2-9.1 1-18.2 3.7-26.8zm189.4 57.7c-.7 0-1.4.2-2.1.3-2 .3-4 .6-5.9.8-1.4.1-3.4 0-4.4 1.2-.8 1 .2 2.2 1.1 2.6 7.4 3.5 16.4 3.7 24.4 2.9 6.5-.7 14.7-2.1 19.8-6.6-9.6.2-19.4.6-28.9-.6-1.1-.1-2.3-.3-3.4-.5-.2-.1-.4-.1-.6-.1zm-21 2.3c-.5 0-1 .1-1.6.1-1.9.1-3.8.3-5.7.4-4.2.3-8.5.5-12.8.6-8.1.3-16.2.5-24.3.2-1 0-2.2-.5-2.8.5-.3.5-.4 1-.3 1.6.1 1.6 1.4 2.8 2.6 3.7 3 2.2 7.1 3.5 10.7 4.4 7.6 1.8 15.7 1.7 23.5 1.1 5.8-.5 11.6-1.3 17.2-3 1.4-.4 5.3-1.5 3.5-3.4-1.7-1.9-3.5-3.6-5.8-4.8-.9-.5-1.9-.9-2.9-1.2-.3-.2-.8-.2-1.3-.2zm-56.8 9.2c-1.7 0-3.3.2-5 .9-3 1.3-6.1 2.5-9.2 3.6-6.2 2.1-12.7 3.8-19.2 5 8.8 3.5 19.3 3.5 28.5 3.1 5.1-.2 10.2-.7 15.2-1.6 2.6-.4 5.1-.9 7.7-1.6 1.7-.4 4.6-.7 6-1.9 1.4-1.2-2.2-2.1-3-2.4-1.7-.6-3.4-1.3-5.2-1.8-4.5-1.5-9.1-2.9-13.9-3.4-.7.2-1.3.1-1.9.1z" id="XMLID_107_" fill="#046a38"/><path d="M167.043 74.15c-8.9 0-17.8 2.9-24.8 8.3-12.8-6.6-29.2-7.8-41.9-3-12.1 4.6-21.8 14.8-25.9 27.3-20.1 9.4-36.8 21.7-48.3 35.3-12.4 14.8-19 31.4-19 48.2 0 19.5 8.7 38.4 25.1 54.9 15.2 15.2 36.8 28 62.3 36.8 26.1 9.1 56 13.9 86.3 13.9 67 0 125.2-23.1 154.2-57 .4-.5.8-1 1.1-1.4l.1-.2c-.6.5-1.1.9-1.6 1.2-3 2.1-5.2 2.9-8.3 4.4l-.7.7-.9.9c-.6.5-1.1 1-1.7 1.6v.1c-.4.4-.8.7-1.2 1.1l-.1.1c-.6.5-1.1 1-1.7 1.5-.4.4-.9.7-1.3 1.1l-.1.1c-.6.5-1.1.9-1.7 1.4-.5.4-.9.7-1.4 1.1l-.1.1c-.6.4-1.1.9-1.7 1.3-.5.3-.9.7-1.4 1l-.2.2c-.6.4-1.1.8-1.7 1.2-.8.6-1.7 1.2-2.6 1.8l-.9.6c-.5.3-1 .7-1.5 1l-.3.2c-.6.4-1.2.7-1.8 1.1-.5.3-1.1.7-1.6 1l-.3.2c-.4.2-.8.5-1.2.7-1.1.7-2.3 1.3-3.5 2-.3.2-.6.4-1 .6-.5.3-1.1.6-1.6.9l-.5.3c-.6.3-1.2.7-1.8 1-.7.3-1.3.7-2 1l-.2.1c-.6.3-1.2.6-1.9.9-.6.3-1.2.5-1.7.8-.2.1-.4.2-.5.2-.6.3-1.3.6-1.9.9l-2.1.9-.2.1c-.6.2-1.2.5-1.7.8l-2.1.9c-.2.1-.3.1-.5.2-.7.3-1.3.6-2 .8-.7.3-1.4.5-2.1.8l-.4.1c-.7.3-1.4.5-2.1.8h-.1c-.7.3-1.4.5-2 .7l-.3.1c-.7.3-1.4.5-2.2.8l-1.8.6-.7.2c-.7.2-1.5.5-2.2.7l-1.7.5c-.3.1-.6.2-.8.3-.8.2-1.5.5-2.3.7h-.1c-.7.2-1.3.4-2 .6-.2 0-.3.1-.5.1-.8.2-1.6.4-2.3.7h-.1c-.7.2-1.4.4-2.1.5l-.4.1-2.4.6h-.1c-.5.1-.9.2-1.4.3-.4.1-.7.2-1.1.3-.8.2-1.6.4-2.5.6h-.1c-.3.1-.7.1-1 .2-.5.1-1 .2-1.4.3-.8.2-1.7.4-2.5.5l-1.5.3-1.2.2c-.8.2-1.7.3-2.5.5h-.1c-1.1.2-2.1.4-3.2.6-.7.1-1.3.2-2 .3h-.1c-.3 0-.6.1-.9.1l-1.8.3c-.9.1-1.7.3-2.6.4h-.1c-.2 0-.4 0-.5.1l-2.1.3c-.9.1-1.7.2-2.6.3h-.1c-.5.1-1 .1-1.5.2-.4 0-.9.1-1.3.1-.8.1-1.7.2-2.6.3l-3 .3c-.8.1-1.7.2-2.5.2H203.843c-.9.1-1.9.1-2.8.2-.8 0-1.6.1-2.4.2-1.1.1-2.3.1-3.4.2-.7 0-1.5.1-2.2.1-1.3.1-2.6.1-4 .1h-7.4c-2.6 0-5.2 0-7.8-.1h-.6c-2.5-.1-4.9-.2-7.3-.3h-1c-2.3-.1-4.7-.3-7-.5-.4 0-.8-.1-1.2-.1-2.3-.2-4.5-.4-6.7-.7-.4 0-.8-.1-1.3-.1-2.2-.3-4.4-.5-6.6-.9-.4 0-.8-.1-1.3-.2-2.2-.3-4.3-.7-6.5-1-.4-.1-.7-.1-1.1-.2-2.2-.4-4.4-.8-6.5-1.2-.3 0-.5-.1-.8-.2-2.2-.5-4.4-.9-6.6-1.5h-.2l-.3-.1c-1.6-.4-3.1-.8-4.6-1.2-.5-.1-1-.3-1.5-.4-1.5-.4-3.1-.8-4.6-1.2l-.3-.1-.3-.1c-1.4-.4-2.9-.9-4.3-1.3-.5-.1-1-.3-1.5-.5l-3.6-1.2c-.3-.1-.7-.2-1-.3-1.5-.5-2.9-1-4.4-1.6-.4-.2-.9-.3-1.3-.5-1.1-.4-2.2-.8-3.3-1.3-.4-.2-.8-.3-1.2-.5-1.4-.6-2.8-1.1-4.1-1.7-.4-.2-.7-.3-1.1-.5-1.1-.5-2.2-.9-3.2-1.4l-1.2-.6c-1.3-.6-2.7-1.2-4-1.9l-.6-.3c-1.1-.6-2.2-1.1-3.3-1.7l-1.2-.6c-1.1-.6-2.2-1.2-3.2-1.8l-.6-.3-3.6-2.1c-.4-.2-.7-.4-1.1-.7-.9-.6-1.9-1.2-2.8-1.7l-.9-.6c-1.1-.8-2.3-1.5-3.4-2.3l-.9-.6c-.9-.6-1.7-1.2-2.5-1.8-.3-.2-.6-.5-.9-.7-1.1-.8-2.1-1.6-3.1-2.4-.2-.2-.4-.3-.6-.5-.8-.7-1.7-1.4-2.5-2.1-.3-.3-.6-.5-.9-.8-.9-.8-1.9-1.6-2.7-2.5l-.2-.2c-.9-.8-1.8-1.7-2.6-2.5l-.8-.8c-.7-.8-1.4-1.5-2.1-2.2-.2-.2-.3-.4-.5-.5l-2.4-2.7c-.2-.2-.4-.5-.6-.8-.6-.7-1.2-1.5-1.8-2.2-.2-.2-.4-.5-.6-.7-.7-.9-1.4-1.9-2.1-2.8-.2-.2-.3-.4-.5-.7-.5-.8-1.1-1.6-1.6-2.4-.2-.3-.3-.6-.5-.8l-1.8-3-.2-.4c-.5-.9-1-1.8-1.4-2.7-.1-.3-.3-.6-.4-.9-.4-.9-.9-1.8-1.3-2.7l-.2-.4c-.4-1-.9-2.1-1.2-3.1-.1-.3-.2-.6-.3-.8-.3-.9-.6-1.7-.9-2.6-.1-.2-.1-.4-.2-.7-.3-1.1-.6-2.1-.9-3.2-.1-.3-.1-.5-.2-.8-.2-.9-.4-1.7-.6-2.6-.1-.3-.1-.6-.2-.8-.2-1.1-.4-2.2-.5-3.3 0-.2 0-.4-.1-.6-.1-.9-.2-1.9-.3-2.8 0-.3 0-.6-.1-.9-.1-1.1-.1-2.2-.1-3.4 0-33 26.1-62.3 66.7-80.9.2-.7.4-1.5.7-2.2l.1-.4c.2-.6.4-1.1.6-1.7.1-.3.3-.6.4-.9.2-.4.3-.7.5-1.1.2-.4.4-.8.6-1.1.1-.3.3-.5.4-.8.2-.4.5-.9.8-1.3.1-.2.2-.3.3-.5.3-.5.6-1 .9-1.4l.2-.3c.3-.5.7-1 1.1-1.5l.1-.2c.4-.5.8-1.1 1.3-1.6 1.6-1.8 3.3-3.5 5.1-5.1 2.5-2.1 5.3-3.9 8.3-5.3l.2-.1c.8-.4 1.6-.7 2.5-1.1 12.4-4.7 28.5-3.1 40.3 3.6h1.2l.2-.2c.6-.5 1.3-1 2-1.5.3-.2.5-.4.8-.5.5-.4 1-.7 1.6-1 .3-.2.6-.3.9-.5.6-.3 1.1-.6 1.7-.9.3-.1.5-.3.8-.4 1.7-.8 3.5-1.5 5.4-2 .3-.1.6-.1.8-.2.7-.2 1.3-.3 2-.5.3-.1.7-.1 1-.2l2.1-.3c.3 0 .6-.1.9-.1 6.1-.6 12.3.1 18.1 2.4.5.2.9.4 1.4.6.3.1.6.3.9.4l.6.3c.4.2.7.4 1.1.6l.4.2c.4.2.8.5 1.2.7l.3.2c.4.3.9.6 1.4.9l.2.1c.5.3 1 .6 1.4 1l.1.1c.5.4 1 .7 1.5 1.1h.1c.5.4 1 .8 1.6 1.2l.3.3c.2.2.4.3.6.5 29.2 1.4 56.3 7.2 79.5 16.3 1.9-1.4 3.1-2 3.7-2.3-24.3-10-52.4-16.1-81.9-17.6-4.7-3.6-9.2-6.4-13-7.9-5.7-1.6-11-2.6-16.3-2.6zm24.6 28.5c3.6 2.8 7.3 5.4 10.5 6.8 2.3.3 5.3.7 8.7 1.3 12 1.9 29.7 4.6 43.9 2.8-18.8-6.1-40.3-9.9-63.1-10.9zm-102.3 17.2c-1.7.7-3.3 1.5-4.9 2.2-.3.1-.6.3-.9.4l-4.8 2.4-.2.1c-1 .5-2 1.1-3.1 1.7-.5.3-1.1.6-1.6.9h-.1l-.3.2c-1.4.8-2.8 1.6-4.2 2.5-25.4 15.7-41 36.7-41 59.8 0 48.4 68.3 87.7 152.5 87.7 48.1 0 91.1-12.8 119-32.9-2.3-.6-7.5-.6-12.4-.6-10.2 11.3-33.9 11.3-45.1 10.6-.8 1.1-1.9 2.1-3.1 2.7-6.9 3.4-24.3 6.1-39.2 4.9-.7 1.6-2.1 3.5-5.4 4.5-22 6.7-54.1 5.9-65.8-1.5-25.6 2.2-66.6-13.7-74.9-44.2-6.9-4.2-13.6-12.9-15.7-16.7-.7-1.3-1.7-3.6-1.7-6.6 0-2.8.9-6.2 3.7-9.8 2.1-2.7 7.5-7 12-9.7-1.2-3.4-2.3-7.1-2.8-9.7-.2-1-.3-2.1-.3-3.1 0-5.4 2.7-10 7.6-12.5 2.4-1.3 6.5-2.5 10.8-3.2-.6-1.5-1.1-2.8-1.4-4.1-.3-1.3-.5-2.7-.5-4 0-4.7 2-9.2 5.5-12 2.6-2 9.7-5.7 18.5-7.9-.2-.7-.2-1.4-.2-2.1z" class="st1" id="XMLID_115_"/><path d="M121.743 111.75c-3.5 0-6.9 2.1-10 5.4-1.6 1.7-1.3 3.1 1.1 2 2.2-1 5-2.4 6.6-1.9-4 13-1.1 25.5 12.8 25.8-2.9 3.2-8.8 3.7-12.5 3.7-3.7 0-3.5 1.7-.3 2.1 13 1.9 24.7-3.5 33-14.1l5.3-1.1c3.5-1.1 2.4-3.7-.4-3.2-5.7 1.1-11 1.1-19.1-5.3-5-3.9-8.5-10.6-13.1-12.7-1.1-.5-2.2-.7-3.4-.7zm176.1 4.5c-.8 0-1.6.1-2.5.2-2.5.4-8.4 4.3-10.1 6.4-2.4 2.9-.8 5.6 2.7 5 3.4-.5 8.2-4.5 9.6-5.8 1.3-1.3 2.1-1.9 4.8.3 2.7 2.1 7.4 4.5 13 4.5 3.4 0 3.4-1.6.3-2.1-4.5-.8-8.8-2.1-11.9-6.6-1.1-1.5-3.5-2-5.9-1.9z" class="st1" id="XMLID_118_"/><path d="M124.043 121.05c-4.3 10-.7 17.2 6.5 18.3 6.1 1 11.1.3 14.5-5.1 0 0-5.7-2.2-7-3.5-1.3 2.1-4.4 4-6.6 4.3-2.9.5-3.4-.7-1.5-2.5 1.2-1.2 2.8-3.8 2.6-5.6-1.1-1.2-6.4-5.5-8.5-5.9zm229.5 19.9c-1.7.2-3.2 1.8-4.5 2.7-1.5 1.1-3.7 1.4-5.6 1.1-.5 4.9-3 9.8-5.4 14-1.1 2-2.4 3.9-3.6 5.8-1.5 2.5 1 2.5 2.8 1.6 4.6-2.4 8.1-7.3 10.8-11.6 2.5-3.7 5.5-8.8 5.5-13.6zm-21.9 2.1c-1.6 0-3.2.1-4.7.3.9 4.8-.3 9.9-1.7 14.5-1.5 4.7-3.4 9.3-5.8 13.7-.9 1.7-.7 3.4 1.5 2.4 1.7-.8 3.1-2.1 4.4-3.5 3.2-3.4 5.9-7.5 8.2-11.6 2.6-4.6 4.8-9.5 6-14.7-2.4-.8-5.2-1.1-7.9-1.1zm-9.9.5h-.5c-1.6.1-3.2.6-4.7 1.2-3 1.1-5.6 2.7-8.3 4.4-1.8 1.2-3.7 2.3-5.6 3.2-.9.4-1.9.8-2.8 1.1.2.8.3 1.6.4 2.5.5 3.8.5 7.7.3 11.6-.2 3.4-.5 6.8-1.2 10.1-.3 1.3-1 3-.2 4.2.8 1 2.3.6 3.3.2 3.5-1.6 6.5-5.1 9-7.9 2.4-2.7 4.2-5.8 5.8-9 2.7-5.6 5.5-12.3 5.4-18.7 0-.7-.1-1.3-.2-1.9-.2-.8-.3-1-.7-1zm-94.1 13.4c-.9 0-1.8.2-2.6.3-4.6 1-9.7 3.5-13.1 6.9 2.4 2.1 4.3 4.8 4.9 7.9.2 1.1.3 2.2.1 3.4-.1.8-.3 2 .5 2.6 1.8 1.3 5.2-1.7 6.4-2.8 2.1-2.1 3.7-4.6 4.8-7.3 1.3-2.9 2.1-6.1 2.1-9.3 0-.8.1-1.3-.6-1.5-.5-.1-1-.2-1.6-.3-.3.1-.6.1-.9.1zm63.1 1.1c-2.5 2.5-6.2 3.8-9.5 4.9-3.2 1.1-6.7 2.1-10.2 2.2 1.9 3.8 2 8.8 1.7 12.9-.1 1.5-.9 3.3-.5 4.8.7 2.2 3.3 1 4.6.1 7.9-5.5 12.7-15.6 13.9-24.9zm-48.2 1.1c1.3 3.7 1.2 8 .9 11.8-.1 1.5-.2 3.1-.6 4.6-.3 1.3-.8 2.9.9 3.5 3.2 1 7.7-2.6 10-4.5 3.3-2.6 6.3-6.1 7.2-10.3-6.3-1-12.4-3.1-18.4-5.1zm-40.4 10.1c-1.9 1.8-4.3 3.1-6.6 4.4-2.5 1.4-5 2.7-7.6 3.8 1.8 2.7 2.9 6.4 2.6 9.6-.1 1.1-1 2.8.2 3.6 1.4.9 3.1-.7 4.1-1.6 5-4.8 8.7-12.8 7.3-19.8zm-80.2 4.3c-3.6 0-7.7.7-10.5 2.8.6 4.9 2.7 10.1 6.7 13.2 1.2.9 4.1 2.7 5.2.9.6-1 .2-2.5.3-3.5.1-1.4.4-2.7.7-4.1.7-2.6 1.7-5 3-7.4.4-.7.4-.7-.3-1-.3-.2-.7-.3-1.1-.4-.9-.2-1.8-.3-2.7-.4-.2-.1-.7-.1-1.3-.1zm22.6 4.9c.2 3.3-1.4 6.8-2.9 9.6-.5 1-1.8 2.4-1.9 3.5-.1 1.5 1.9 1.3 2.9 1.1 5.7-1.3 12.7-5.4 15.3-10.8-4.3-.4-9.3-1.5-13.4-3.4zm34.3 2.1c-3.8 1.4-8.6 2.2-12.6 1.9.4 3.1 0 6.4-.7 9.5-.3 1.2-1 2.3-1.3 3.4-.4 1.4 1 1.7 2 1.4 3.3-.9 6.6-4.2 8.6-6.9 2.1-2.7 3.8-5.9 4-9.3zm30.6 6.1c-.7 0-1.2.5-.9 2 .9 4.3-1.7 10.3-5 13 3.2-.8 6.7-.7 10-.4 3.8.4 8 1.1 11.2 3.3-.5-1.9-1.7-3.7-2.7-5.4-1.4-2.2-2.9-4.2-4.6-6.2-1.6-1.9-3.3-3.9-5.3-5.3-1-.5-2-1-2.7-1zm35.2 6.4c-.7 0-1.3.9-1.6 2.1-.4 1.5-1.2 3-2 4.3-2 3.3-5.1 6.6-9 7.5 3 1.1 5.9 2.2 8.8 3.5 3.1 1.3 6.4 2.8 9.1 4.9.8-3.7 0-7.8-.7-11.4-.6-3.2-1.3-7-3.1-9.8-.6-.8-1.1-1.1-1.5-1.1zm-130.9 4.3c-2 .2-3.9 3.2-4.7 4.6-1.6 2.7-2.8 5.8-3 8.9 4.4-1.2 10.1-2.1 14.5-.5-2-1.8-3.1-4.5-3.9-7-.3-1.1-.7-2.2-.7-3.3-.1-1-.2-2.2-1.3-2.6-.3-.1-.6-.2-.9-.1zm65 .3c-.8 0-1.3.5-1.1 2.3.3 2.3-.3 4.8-.8 7-.6 2.5-1.4 5.1-2.8 7.3 4.4-3.5 9.8-5.3 14.8-7.6-1.4-2.9-4.3-5.1-6.7-7.1-.8-.8-2.3-1.8-3.4-1.9zm-46.6.6c-.2 0-.5.1-.9.3-1.8.9-2.8 3.3-3.6 5-1.1 2.5-2 5.2-1.9 8 1.6.5 3.1 1.3 4.5 2 2 1.1 4 2.2 5.9 3.5 1.3.8 2.7 1.7 3.6 3 0-2.2-1.4-4.7-2.7-6.5-2.1-3-4-7.4-4-11 .2-1.2.7-4.4-.9-4.3zm149 1.9c-1.1.1-2 1.9-2.4 2.7-1.7 3.7-5.1 6.6-8.4 8.8-3.5 2.4-7.5 4.5-11.6 5.6 3.7 1.4 7.9 1.7 11.8 2l6.6.3h2.8c.8 0 2 .3 2.2-.5 1.1-4.7 1-9.7.8-14.5 0-1.1.2-4-1.3-4.5l-.5.1zm25.9.4c-1.3 0-2.3 2.1-2.7 3-1.5 3.2-4.4 6-6.9 8.4-3.1 3-6.6 5.9-10.7 7.5 4 .5 8.1.7 12.1.5 2-.1 4-.2 6-.5.8-.1 1.7-.3 2.5-.5 1.1-.3 1-.6 1.2-1.6.6-4.1.9-8.3.6-12.4-.1-1.3-.2-3.6-1.5-4.3-.2-.1-.4-.1-.6-.1zm22.4 3.4c-.9.1-1.3 1.6-1.7 2.3-.9 1.7-2.2 3.2-3.6 4.6-.1 1.9-.8 3.9-1.3 5.7 2.5.1 5.7-.2 7.8-1.7 1.9-1.4 1.6-5.8 1.1-7.8-.2-1-.7-2.7-1.9-3l-.4-.1zm-11.7.2c-.1 0-.3 0-.5.1-1.8.7-3 3.5-4.1 5 .1 2.9-.3 5.9-.7 8.8 2.1.1 4.4-.3 6.5-.7.6-.1 1.1-2.8 1.2-3.3.3-1.4.5-2.8.5-4.2 0-1.5-.7-6-2.9-5.7zm-165 .4c-1.2 0-1.6 1.3-1.4 2.3.6 2.3-.7 5.2-1.8 7.2-1.3 2.3-3.5 3.2-5.2 5-.5.5-.8 1-1.1 1.6-.4.9 0 1.1.7 1.7 1 .8 2.1 1.3 3.3 1.7 2.3.7 4.7.6 7 .1 1.1-.2 5.5-1.1 5.6-2.4.1-2.6-.3-5.2-.9-7.6-.7-2.6-1.7-5.3-3.3-7.4-.7-1-1.6-2.3-2.9-2.2z" class="st0" id="XMLID_140_"/></g></g></g></svg>