<svg id="Layer_1" data-name="Layer 1" xmlns="http://www.w3.org/2000/svg" width="600" height="200"><defs><style>.cls-1{fill:#fff}</style></defs><path d="M105.028 0h389.944C552.977 0 600 44.771 600 100s-47.023 100-105.028 100H105.028C47.023 200 0 155.229 0 100S47.023 0 105.028 0z"/><path class="cls-1" d="M70.543 46.731h50.82v10.22h-38.64v31.36h35.7v10.08h-35.7v42.7h-12.18zM219.363 92.931c0 32.48-19.74 49.7-43.82 49.7-24.92 0-42.42-19.32-42.42-47.88 0-29.96 18.62-49.56 43.82-49.56 25.76 0 42.42 19.74 42.42 47.74zm-73.22 1.54c0 20.16 10.92 38.22 30.1 38.22 19.32 0 30.24-17.78 30.24-39.2 0-18.76-9.8-38.36-30.1-38.36-20.16 0-30.24 18.62-30.24 39.34zM235.181 47.991a126.893 126.893 0 0123.38-1.96c13.02 0 21.42 2.38 27.3 7.7 4.76 4.2 7.42 10.64 7.42 17.92 0 12.46-7.84 20.72-17.78 24.08v.42c7.28 2.52 11.62 9.24 13.86 19.04 3.08 13.16 5.32 22.26 7.28 25.9h-12.6c-1.54-2.66-3.64-10.78-6.3-22.54-2.8-13.02-7.84-17.92-18.9-18.34h-11.479v40.88h-12.18zm12.181 42.98h12.46c13.02 0 21.28-7.14 21.28-17.92 0-12.18-8.82-17.5-21.7-17.64a50.096 50.096 0 00-12.04 1.12zM310.5 46.731h50.821v10.22h-38.64v31.36h35.7v10.08h-35.7v42.7h-12.18zM427.54 96.851h-36.679v34.02h40.88v10.22h-53.06V46.73h50.96v10.22h-38.78v29.82h36.68zM459.74 46.731v94.36h-12.18V46.73zM498.94 57.091h-28.7v-10.36h69.86v10.36h-28.84v84h-12.32z"/></svg>