<svg width="365" height="365" xmlns="http://www.w3.org/2000/svg">
 <defs>
  <style>.cls-1{fill:#13294b;}.cls-2{fill:#e84a27;}</style>
 </defs>
 <g>
  <title>background</title>
  <rect fill="none" id="canvas_background" height="367" width="367" y="-1" x="-1"/>
 </g>
 <g>
  <title>Layer 1</title>
  <polygon id="svg_1" points="308.79998779296875,98.30000305175781 308.79998779296875,0 56.19999694824219,0 56.19999694824219,98.30000305175781 112.30000305175781,98.30000305175781 112.30000305175781,266.70001220703125 56.19999694824219,266.70001220703125 56.19999694824219,365 308.79998779296875,365 308.79998779296875,266.70001220703125 252.6999969482422,266.70001220703125 252.6999969482422,98.30000305175781 308.79998779296875,98.30000305175781 " class="cls-1"/>
  <path id="svg_2" d="m252.7,84.150003l42.1,0l0,-70.1l-224.6,0l0,70.2l42.1,0a14.04117,14.04117 0 0 1 14,14l0,168.5a13.977,13.977 0 0 1 -14,14l-42.1,0l0,70.2l224.6,0l0,-70.2l-42.1,0a13.97694,13.97694 0 0 1 -14,-14l0,-168.5a13.99883,13.99883 0 0 1 14,-14.1" class="cls-2"/>
 </g>
</svg>