<svg id="Layer_1" data-name="Layer 1" xmlns="http://www.w3.org/2000/svg" width="349.0609" height="35.99995" viewBox="0 0 349.0609 35.99995"><defs><style>.cls-1{fill:#ffcb05;}.cls-2{fill:#fff;}.cls-3{isolation:isolate;}</style></defs><g id="svg_1" data-name="svg 1"><g id="svg_2" data-name="svg 2"><path id="svg_3" data-name="svg 3" class="cls-1" d="M29.86,36.625l-10.125-14v10.25H23.86V43H4.985V32.875H8.86V17.125H4.985V7.00005h14.75l10.25,14.125,10.25-14.125h14.75V17.125H51.11v15.75h3.875V43H36.11V32.875h4.125V22.625Z" transform="translate(-4.985 -7.00005)"/></g></g><rect class="cls-2" x="58.1721" y="0.09995" width="1.4" height="35.9"/><g class="cls-3"><path class="cls-2" d="M84.86719,31.5166H81.42578l-4.83252-16.21h-.21972L75.898,38.52832H72.85938l.76855-28.87256h4.02734l5.38135,18.231h.21973l5.38135-18.231h4.02685l.769,28.87256H90.395L89.919,15.30664h-.21973Z" transform="translate(-4.985 -7.00005)"/><path class="cls-2" d="M99.73,38.52832V9.65576h12.19043L111.5542,12.543h-8.67627V22.60742h7.94434v2.88721h-7.94434v10.146h9.40869v2.88769Z" transform="translate(-4.985 -7.00005)"/><path class="cls-2" d="M117.0459,9.65576h4.6123l7.3584,24.08838h.21973V9.65576h3.07519V38.52832h-4.61279l-7.3584-24.08789h-.21924V38.52832H117.0459Z" transform="translate(-4.985 -7.00005)"/><path class="cls-2" d="M138.9917,8.25342a9.1842,9.1842,0,0,1,1.09814.0415,1.618,1.618,0,0,1,.604.24707q.58519.37134.58594,1.98a8.29086,8.29086,0,0,1-1.208,3.91846l-1.977,3.50586-1.64746-.98975,1.501-4.24853q-.84228-.32959-.84179-2.186,0-1.60839.58593-1.98A2.50373,2.50373,0,0,1,138.9917,8.25342Z" transform="translate(-4.985 -7.00005)"/><path class="cls-2" d="M158.30273,30.65039a10.161,10.161,0,0,1-1.64746,6.125q-1.64721,2.24853-5.3999,2.248a15.36865,15.36865,0,0,1-6.86377-1.52637l.65869-2.55762a16.21927,16.21927,0,0,0,6.00391,1.15528,3.91094,3.91094,0,0,0,3.1665-1.19629,5.61316,5.61316,0,0,0,1.00684-3.6709,9.91848,9.91848,0,0,0-.54932-3.75293,2.76911,2.76911,0,0,0-2.30615-1.56787l-3.624-.57715a4.25344,4.25344,0,0,1-3.42334-2.35107,14.55722,14.55722,0,0,1-.85987-5.7334,9.0319,9.0319,0,0,1,1.77539-5.96,6.048,6.048,0,0,1,4.90528-2.12452,16.13378,16.13378,0,0,1,6.27832,1.32032l-.65869,2.47461a16.65831,16.65831,0,0,0-4.96045-.86621,4.467,4.467,0,0,0-3.23975,1.01074q-1.02538,1.01075-1.02539,3.77392a10.57342,10.57342,0,0,0,.53125,3.95948,2.5595,2.5595,0,0,0,2.1416,1.44384l3.44092.57715A5.00511,5.00511,0,0,1,157.14941,25.02Q158.303,26.77417,158.30273,30.65039Z" transform="translate(-4.985 -7.00005)"/><path class="cls-2" d="M194.06836,38.52832H189.127l-4.09961-23.59277h-.2207l-4.0625,23.59277h-4.94336L171.48242,9.65576h3.11133l3.69727,26.522h.21875l4.6875-26.522h3.47656l4.68555,26.522h.2207l3.69726-26.522h3.11133Z" transform="translate(-4.985 -7.00005)"/><path class="cls-2" d="M204.17285,38.52832h-3.22168l6.07715-28.87256h5.34473l6.07715,28.87256h-3.22168l-1.501-7.30078h-8.05371Zm8.93262-10.1875-3.29492-16.04541h-.21973l-3.33105,16.04541Z" transform="translate(-4.985 -7.00005)"/><path class="cls-2" d="M218.63281,12.543V9.65576H232.544V12.543h-5.38184V38.52832h-3.14844V12.543Z" transform="translate(-4.985 -7.00005)"/><path class="cls-2" d="M236.20508,38.52832V9.65576h12.19043L248.0293,12.543h-8.67578V22.60742h7.94336v2.88721h-7.94336v10.146h9.4082v2.88769Z" transform="translate(-4.985 -7.00005)"/><path class="cls-2" d="M259.04785,27.47461H256.669V38.52832h-3.14844V9.65576h5.52734q4.39307,0,6.26074,2.00049,1.86621,2.001,1.86719,6.90869a13.55882,13.55882,0,0,1-.86035,5.34131,5.21074,5.21074,0,0,1-2.72754,2.78418l4.21,11.83789h-3.22168l-4.02734-11.0957Q260.07276,27.4751,259.04785,27.47461Zm4.94238-8.00195V17.65771q0-1.1543-.03613-1.71191a6.1574,6.1574,0,0,0-.27441-1.34033,2.13449,2.13449,0,0,0-.751-1.15479,6.911,6.911,0,0,0-3.84375-.86621h-2.416V24.5459h2.416a6.91513,6.91513,0,0,0,3.84375-.86621,2.13449,2.13449,0,0,0,.751-1.15479,6.14968,6.14968,0,0,0,.27441-1.34082Q263.98926,20.62744,263.99023,19.47266Z" transform="translate(-4.985 -7.00005)"/><path class="cls-2" d="M282.44141,9.65576h5.52734q4.39307,0,6.26074,2.10352,1.86621,2.10351,1.86719,7.21826,0,5.1145-1.86719,7.21777-1.86767,2.10353-6.26074,2.10352h-2.37891V38.52832h-3.14843Zm10.46972,10.31153v-1.9795q0-1.23778-.03613-1.83545a6.78907,6.78907,0,0,0-.27441-1.42334,2.15054,2.15054,0,0,0-.751-1.1958,6.54,6.54,0,0,0-3.84375-.94873h-2.416V25.37061h2.416a6.53633,6.53633,0,0,0,3.84375-.94873,3.33755,3.33755,0,0,0,1.02539-2.63965Q292.91016,21.20508,292.91113,19.96729Z" transform="translate(-4.985 -7.00005)"/><path class="cls-2" d="M313.90527,38.05371a12.56118,12.56118,0,0,1-4.88672.96973,23.816,23.816,0,0,1-2.43457-.10352,6.47157,6.47157,0,0,1-1.73925-.41211q-.76905-.30907-1.3545-.59863a2.69,2.69,0,0,1-1.043-.98926q-.45851-.70165-.751-1.19629a5.136,5.136,0,0,1-.49414-1.6084q-.20216-1.11474-.31152-1.87695a21.65439,21.65439,0,0,1-.14551-2.37207q-.07471-3.1333-.07324-5.89795,0-2.7627.03613-4.166.03661-1.40114.165-3.38184a10.42707,10.42707,0,0,1,.457-2.82568q.32958-.84449.8789-1.93848a3.12136,3.12136,0,0,1,1.42774-1.50537,12.56262,12.56262,0,0,1,4.94238-.99024,11.54221,11.54221,0,0,1,4.11817.59815,7.48065,7.48065,0,0,1,2.39843,1.42334,5.48269,5.48269,0,0,1,1.2627,3.05225,31.49553,31.49553,0,0,1,.457,4.042q.07325,1.81568.07324,5.30029,0,3.4856-.03613,4.88721-.03661,1.40331-.165,3.38281a10.46206,10.46206,0,0,1-.457,2.8252,21.07178,21.07178,0,0,1-.87891,1.918A2.999,2.999,0,0,1,313.90527,38.05371Zm-.20117-7.48633V17.61621q0-3.29883-.62207-4.00049a3.46754,3.46754,0,0,0-1.99512-1.32031,12.22139,12.22139,0,0,0-2.28808-.20605,11.51984,11.51984,0,0,0-2.08692.165,3.24358,3.24358,0,0,0-1.40918.57764,5.5152,5.5152,0,0,0-.84277.78369,2.52011,2.52011,0,0,0-.457,1.15479,20.81634,20.81634,0,0,0-.14648,2.8457V30.56738q0,3.3003.58593,4.001a3.61,3.61,0,0,0,2.04981,1.32031,12.465,12.465,0,0,0,2.30664.20606,11.13589,11.13589,0,0,0,2.06836-.165,3.21053,3.21053,0,0,0,1.39062-.57715,5.45517,5.45517,0,0,0,.8418-.78418,2.29059,2.29059,0,0,0,.42187-1.1543A16.83542,16.83542,0,0,0,313.7041,30.56738Z" transform="translate(-4.985 -7.00005)"/><path class="cls-2" d="M322.92969,38.52832V9.65576h3.14844V35.64063h8.27343v2.88769Z" transform="translate(-4.985 -7.00005)"/><path class="cls-2" d="M351.0625,38.05371a12.56128,12.56128,0,0,1-4.88672.96973,23.816,23.816,0,0,1-2.43457-.10352,6.47173,6.47173,0,0,1-1.73926-.41211q-.769-.30907-1.35449-.59863a2.69011,2.69011,0,0,1-1.043-.98926q-.45849-.70165-.751-1.19629a5.13546,5.13546,0,0,1-.49414-1.6084q-.20216-1.11474-.31153-1.87695a21.65951,21.65951,0,0,1-.14551-2.37207q-.0747-3.1333-.07324-5.89795,0-2.7627.03613-4.166.03663-1.40114.165-3.38184a10.42747,10.42747,0,0,1,.457-2.82568q.32959-.84449.87891-1.93848a3.12132,3.12132,0,0,1,1.42774-1.50537,12.56262,12.56262,0,0,1,4.94238-.99024,11.54211,11.54211,0,0,1,4.11816.59815,7.4807,7.4807,0,0,1,2.39844,1.42334,5.48269,5.48269,0,0,1,1.2627,3.05225,31.49732,31.49732,0,0,1,.457,4.042q.07323,1.81568.07324,5.30029,0,3.4856-.03613,4.88721-.03663,1.40331-.165,3.38281a10.46246,10.46246,0,0,1-.457,2.8252,21.07178,21.07178,0,0,1-.87891,1.918A2.999,2.999,0,0,1,351.0625,38.05371Zm-.20117-7.48633V17.61621q0-3.29883-.62207-4.00049a3.46754,3.46754,0,0,0-1.99512-1.32031,12.2215,12.2215,0,0,0-2.28809-.20605,11.5198,11.5198,0,0,0-2.08691.165A3.24353,3.24353,0,0,0,342.46,12.832a5.5152,5.5152,0,0,0-.84277.78369,2.52011,2.52011,0,0,0-.457,1.15479,20.816,20.816,0,0,0-.14649,2.8457V30.56738q0,3.3003.58594,4.001a3.61,3.61,0,0,0,2.0498,1.32031,12.46515,12.46515,0,0,0,2.30664.20606,11.13581,11.13581,0,0,0,2.06836-.165,3.21057,3.21057,0,0,0,1.39063-.57715,5.4561,5.4561,0,0,0,.8418-.78418,2.29059,2.29059,0,0,0,.42187-1.1543A16.83648,16.83648,0,0,0,350.86133,30.56738Z" transform="translate(-4.985 -7.00005)"/></g></svg>