<svg id="Layer_1" data-name="Layer 1" xmlns="http://www.w3.org/2000/svg" width="349.061" height="36"><defs><style>.cls-2{fill:#fff}</style></defs><g id="svg_1" data-name="svg 1"><g id="svg_2" data-name="svg 2"><path id="svg_3" data-name="svg 3" d="M29.86 36.625l-10.125-14v10.25h4.125V43H4.985V32.875H8.86v-15.75H4.985V7h14.75l10.25 14.125L40.235 7h14.75v10.125H51.11v15.75h3.875V43H36.11V32.875h4.125v-10.25z" transform="translate(-4.985 -7)" fill="#ffcb05"/></g></g><path class="cls-2" d="M58.172.1h1.4V36h-1.4z"/><g style="isolation:isolate"><path class="cls-2" d="M84.867 31.517h-3.441l-4.833-16.21h-.22l-.475 23.221h-3.039l.769-28.872h4.027l5.382 18.23h.22l5.38-18.23h4.028l.769 28.872h-3.039l-.476-23.221h-.22zM99.73 38.528V9.656h12.19l-.366 2.887h-8.676v10.064h7.944v2.888h-7.944V35.64h9.409v2.887zM117.046 9.656h4.612l7.359 24.088h.22V9.656h3.075v28.872h-4.613L120.34 14.44h-.219v24.088h-3.075zM138.992 8.253a9.184 9.184 0 011.098.042 1.618 1.618 0 01.604.247q.585.371.586 1.98a8.29 8.29 0 01-1.208 3.918l-1.977 3.506-1.648-.99 1.501-4.248q-.842-.33-.841-2.186 0-1.608.585-1.98a2.504 2.504 0 011.3-.289zM158.303 30.65a10.161 10.161 0 01-1.648 6.125q-1.647 2.249-5.4 2.248a15.369 15.369 0 01-6.863-1.526l.658-2.558a16.22 16.22 0 006.004 1.156 3.91 3.91 0 003.167-1.197 5.613 5.613 0 001.007-3.67 9.918 9.918 0 00-.55-3.753 2.77 2.77 0 00-2.306-1.568l-3.624-.577a4.253 4.253 0 01-3.423-2.352 14.557 14.557 0 01-.86-5.733 9.032 9.032 0 011.775-5.96 6.048 6.048 0 014.906-2.124 16.134 16.134 0 016.278 1.32l-.659 2.474a16.658 16.658 0 00-4.96-.866 4.467 4.467 0 00-3.24 1.011q-1.025 1.01-1.025 3.774a10.573 10.573 0 00.53 3.96 2.56 2.56 0 002.142 1.443l3.441.577a5.005 5.005 0 013.496 2.166q1.154 1.754 1.154 5.63zM194.068 38.528h-4.941l-4.1-23.592h-.22l-4.063 23.592h-4.943l-4.319-28.872h3.112l3.697 26.522h.219l4.687-26.522h3.477l4.685 26.522h.221l3.697-26.522h3.112zM204.173 38.528h-3.222l6.077-28.872h5.345l6.077 28.872h-3.221l-1.501-7.3h-8.054zm8.932-10.187l-3.294-16.046h-.22l-3.331 16.046zM218.633 12.543V9.656h13.911v2.887h-5.382v25.985h-3.148V12.543zM236.205 38.528V9.656h12.19l-.366 2.887h-8.675v10.064h7.943v2.888h-7.943V35.64h9.408v2.887zM259.048 27.475h-2.379v11.053h-3.148V9.656h5.527q4.393 0 6.26 2 1.867 2.001 1.868 6.909a13.559 13.559 0 01-.86 5.341 5.21 5.21 0 01-2.728 2.784l4.21 11.838h-3.222l-4.027-11.095q-.476.042-1.501.042zm4.942-8.002v-1.815q0-1.155-.036-1.712a6.157 6.157 0 00-.274-1.34 2.134 2.134 0 00-.751-1.155 6.911 6.911 0 00-3.844-.867h-2.416v11.962h2.416a6.915 6.915 0 003.844-.866 2.134 2.134 0 00.75-1.155 6.15 6.15 0 00.275-1.34q.035-.558.036-1.712zM282.441 9.656h5.528q4.393 0 6.26 2.103 1.867 2.104 1.868 7.219 0 5.114-1.868 7.217-1.867 2.104-6.26 2.104h-2.38v10.23h-3.148zm10.47 10.311v-1.98q0-1.237-.036-1.835a6.79 6.79 0 00-.274-1.423 2.15 2.15 0 00-.751-1.196 6.54 6.54 0 00-3.844-.949h-2.416v12.787h2.416a6.536 6.536 0 003.844-.95 3.338 3.338 0 001.025-2.639q.035-.577.036-1.815zM313.905 38.054a12.561 12.561 0 01-4.886.97 23.816 23.816 0 01-2.435-.104 6.472 6.472 0 01-1.74-.412q-.768-.31-1.354-.599a2.69 2.69 0 01-1.043-.99q-.458-.7-.75-1.195a5.136 5.136 0 01-.495-1.609Q301 33 300.891 32.238a21.654 21.654 0 01-.146-2.372q-.075-3.133-.073-5.898 0-2.762.036-4.166.037-1.4.165-3.382a10.427 10.427 0 01.457-2.825q.33-.845.879-1.939a3.121 3.121 0 011.428-1.505 12.563 12.563 0 014.942-.99 11.542 11.542 0 014.118.598 7.48 7.48 0 012.399 1.423 5.483 5.483 0 011.262 3.052 31.496 31.496 0 01.457 4.042q.074 1.816.074 5.3 0 3.486-.037 4.888-.036 1.403-.165 3.383a10.462 10.462 0 01-.457 2.825 21.072 21.072 0 01-.879 1.918 2.999 2.999 0 01-1.446 1.464zm-.2-7.487v-12.95q0-3.3-.623-4.001a3.468 3.468 0 00-1.995-1.32 12.221 12.221 0 00-2.288-.207 11.52 11.52 0 00-2.087.165 3.244 3.244 0 00-1.41.578 5.515 5.515 0 00-.842.784 2.52 2.52 0 00-.457 1.154 20.816 20.816 0 00-.147 2.846v12.951q0 3.3.586 4.001a3.61 3.61 0 002.05 1.32 12.465 12.465 0 002.307.207 11.136 11.136 0 002.068-.165 3.21 3.21 0 001.39-.577 5.455 5.455 0 00.843-.785 2.29 2.29 0 00.422-1.154 16.835 16.835 0 00.182-2.847zM322.93 38.528V9.656h3.148V35.64h8.274v2.887zM351.063 38.054a12.561 12.561 0 01-4.887.97 23.816 23.816 0 01-2.435-.104 6.472 6.472 0 01-1.74-.412q-.768-.31-1.354-.599a2.69 2.69 0 01-1.043-.99q-.458-.7-.75-1.195a5.135 5.135 0 01-.495-1.609q-.202-1.115-.311-1.877a21.66 21.66 0 01-.146-2.372q-.074-3.133-.073-5.898 0-2.762.036-4.166.037-1.4.165-3.382a10.427 10.427 0 01.457-2.825q.33-.845.88-1.939a3.121 3.121 0 011.427-1.505 12.563 12.563 0 014.942-.99 11.542 11.542 0 014.118.598 7.48 7.48 0 012.399 1.423 5.483 5.483 0 011.262 3.052 31.497 31.497 0 01.457 4.042q.074 1.816.074 5.3 0 3.486-.036 4.888-.037 1.403-.165 3.383a10.462 10.462 0 01-.457 2.825 21.072 21.072 0 01-.88 1.918 2.999 2.999 0 01-1.445 1.464zm-.202-7.487v-12.95q0-3.3-.622-4.001a3.468 3.468 0 00-1.995-1.32 12.222 12.222 0 00-2.288-.207 11.52 11.52 0 00-2.087.165 3.244 3.244 0 00-1.409.578 5.515 5.515 0 00-.843.784 2.52 2.52 0 00-.457 1.154 20.816 20.816 0 00-.146 2.846v12.951q0 3.3.586 4.001a3.61 3.61 0 002.05 1.32 12.465 12.465 0 002.306.207 11.136 11.136 0 002.068-.165 3.21 3.21 0 001.391-.577 5.456 5.456 0 00.842-.785 2.29 2.29 0 00.422-1.154 16.836 16.836 0 00.182-2.847z" transform="translate(-4.985 -7)"/></g></svg>