<svg data-name="Layer 1" xmlns="http://www.w3.org/2000/svg" viewBox="0 0 256 256"><path d="M128 23.064c34.177 0 38.225.13 51.722.745 12.48.57 19.258 2.655 23.769 4.408a39.663 39.663 0 0114.717 9.575 39.656 39.656 0 019.575 14.717c1.753 4.511 3.838 11.289 4.408 23.768.615 13.498.745 17.546.745 51.723s-.13 38.226-.745 51.723c-.57 12.48-2.655 19.257-4.408 23.768a42.385 42.385 0 01-24.292 24.292c-4.511 1.753-11.289 3.839-23.769 4.408-13.495.616-17.543.746-51.722.746s-38.228-.13-51.723-.746c-12.48-.57-19.257-2.655-23.768-4.408a39.654 39.654 0 01-14.718-9.574 39.656 39.656 0 01-9.574-14.718c-1.753-4.51-3.838-11.288-4.408-23.768-.616-13.497-.746-17.545-.746-51.723s.13-38.225.746-51.722c.57-12.48 2.655-19.258 4.408-23.769a39.656 39.656 0 019.574-14.717 39.661 39.661 0 0114.718-9.575c4.51-1.753 11.288-3.838 23.768-4.408 13.497-.615 17.545-.745 51.723-.745M128 0C93.237 0 88.878.147 75.226.77c-13.625.622-22.93 2.786-31.071 5.95a62.742 62.742 0 00-22.672 14.764A62.742 62.742 0 006.72 44.155C3.555 52.297 1.392 61.602.77 75.226.147 88.878 0 93.237 0 128s.147 39.122.77 52.774c.622 13.625 2.785 22.93 5.95 31.071a62.747 62.747 0 0014.763 22.672 62.743 62.743 0 0022.672 14.763c8.142 3.165 17.446 5.328 31.07 5.95 13.653.623 18.012.77 52.775.77s39.122-.147 52.774-.77c13.624-.622 22.929-2.785 31.07-5.95a65.453 65.453 0 0037.436-37.435c3.164-8.142 5.328-17.446 5.95-31.07.623-13.653.77-18.012.77-52.775s-.147-39.122-.77-52.774c-.622-13.624-2.786-22.929-5.95-31.07a62.742 62.742 0 00-14.764-22.672A62.742 62.742 0 00211.845 6.72c-8.142-3.164-17.447-5.328-31.071-5.95C167.122.147 162.763 0 128 0zm0 62.27A65.73 65.73 0 10193.73 128 65.73 65.73 0 00128 62.27zm0 108.397A42.667 42.667 0 11170.667 128 42.667 42.667 0 01128 170.667zm83.686-110.994a15.36 15.36 0 11-15.36-15.36 15.36 15.36 0 0115.36 15.36z" fill="#a3a3a3"/></svg>