<svg width="364.8" height="365" xmlns="http://www.w3.org/2000/svg"><defs><style>.cls-1{fill:#fc0}</style></defs><path fill="none" id="canvas_background" d="M-1-1h366.8v367H-1z"/><g><g id="svg_9"><path id="svg_1" d="M155.8 295.5c36.9-8 70.6-36.7 75.8-75.5a84.445 84.445 0 00.6-15.1c-.1-2.9.4-15.7-4.1-14.3-10.8 3.4-22.5 5.1-33.5 1.8-10.9-3.2-19.9-11.1-25.5-20.9-2.1-3.6-2.9-7.4-4.7-11-2.3-4.7-10.9.5-10.9.5l-20 17.7s-2.7 4.7 1.8 4.7c5.5 0 11.3.5 16.3 3 6.8 3.5 16.3 12.4 10.7 20.6-4.5 6.5-13.2 9.4-19.7 13.4-15.3 9.5-33.2 23.1-33.2 43 0 19.2 16.2 34 35.1 33.7a55.936 55.936 0 0011.3-1.6" class="cls-1"/><path id="svg_2" d="M156.2 297.6a107.743 107.743 0 0050.8-26.7c14-13.3 24-30.6 26.6-50.5a81.25 81.25 0 00.7-11c0-1.5 0-3-.1-4.4 0-.6 0-1.9-.1-3.4a51.146 51.146 0 00-.7-7.6 10.007 10.007 0 00-1.3-3.4 4.66 4.66 0 00-1.4-1.4 3.697 3.697 0 00-2.1-.6 5.852 5.852 0 00-1.3.2 66.365 66.365 0 01-20.1 3.5 41.149 41.149 0 01-12.1-1.7c-10.4-3.1-18.9-10.6-24.3-20a35.455 35.455 0 01-2.3-5.2c-.7-1.8-1.4-3.8-2.3-5.7a5.301 5.301 0 00-2.4-2.5 6.583 6.583 0 00-3-.7 10.588 10.588 0 00-3.1.5 22.606 22.606 0 00-5.3 2.3l-.2.1-20.4 18-.2.3c0 .1-.3.5-.5 1.1a8.309 8.309 0 00-.6 2.6 10.401 10.401 0 00.2 1.5 2.384 2.384 0 00.6 1.1 4.345 4.345 0 001.7 1.2 7.613 7.613 0 002.1.3h.7c5.2 0 10.4.6 14.7 2.8a25.249 25.249 0 017.6 5.8 18.924 18.924 0 012.7 3.8 9.36 9.36 0 011 3.8 6.982 6.982 0 01-1.4 4.1c-2 2.8-5 5-8.4 7s-7.3 3.7-10.7 5.8c-7.7 4.8-16.2 10.6-22.8 18a50.212 50.212 0 00-8.2 12.2 35.432 35.432 0 00-3.2 14.6v.1a34.852 34.852 0 0010.9 25.4 37.161 37.161 0 0025.7 10.3h.5a75.533 75.533 0 0012-1.6l-.9-4.1a51.794 51.794 0 01-11 1.4h-.5a33.174 33.174 0 01-22.8-9.1 30.865 30.865 0 01-9.6-22.4 30.865 30.865 0 012.9-12.9c2.7-6 7.2-11.3 12.4-16a115.397 115.397 0 0116.9-12.3c3.1-1.9 6.9-3.6 10.5-5.7a29.667 29.667 0 009.8-8.2 11.652 11.652 0 002.1-6.5 11.919 11.919 0 00-1.4-5.6 25.783 25.783 0 00-5.4-6.9 33.449 33.449 0 00-6.7-4.6c-5.3-2.7-11.2-3.2-16.6-3.2h-.6c-.3 0-.6 0-.6-.1h-.1l-.1.1.1-.1-.1.1.1-.1-.3.2.4-.2-.2-.2-.2.4.4-.2-.2.1.3-.1-.2.1.3-.1v-.1a2.236 2.236 0 01.3-1c.1-.2.1-.3.2-.5l.1-.1-.6-.3.6.3-.6-.3.6.3-1.8-1 1.4 1.6 20-17.7-1.4-1.6 1.1 1.8c.1 0 1-.6 2.3-1.2a11.764 11.764 0 012-.7 7.387 7.387 0 011.9-.3 2.676 2.676 0 011.1.2.79.79 0 01.5.6c.8 1.7 1.5 3.5 2.2 5.3a41.574 41.574 0 002.6 5.8c5.9 10.2 15.2 18.5 26.7 21.9a46.989 46.989 0 0013.3 1.9 70.201 70.201 0 0021.4-3.7v-.4l-.2.4h.2v-.4l-.2.4.1-.3-.2.2.1-.3-.2.2a1.409 1.409 0 01.3.5 9.6 9.6 0 01.7 2.5 45.346 45.346 0 01.5 5.3v4.2c.1 1.4.1 2.8.1 4.2a74.084 74.084 0 01-.7 10.5c-2.5 18.9-12 35.3-25.4 48.1-13.1 12.9-30.5 21.9-48.6 25.8l.9 4.1z"/><path id="svg_3" d="M293.6 277.4a26.765 26.765 0 008.5-4.1c2.1-1.5 4.9-4.3.6-4.5-5.6-.3-11.4-.7-16.2-3.9a16.215 16.215 0 01-5.2-6.4c-1.2-2.6-1.3-5.8-2.7-8.3-1.2-2.3-26.9-6.8-30.4-6.9-4.4-.2-4.7.8-3 4.4a72.004 72.004 0 0012.3 17.7c9.1 9.5 22.9 15.8 36.1 12" class="cls-1"/><path id="svg_4" d="M294.1 279.4a27.186 27.186 0 009.2-4.5 18.617 18.617 0 002.2-1.9c.3-.4.7-.8 1-1.2a4.25 4.25 0 00.6-1.9 2.604 2.604 0 00-.4-1.5 2.047 2.047 0 00-.8-.8 4.236 4.236 0 00-1.4-.6 7.72 7.72 0 00-1.5-.2 52.933 52.933 0 01-8.1-.8 18.23 18.23 0 01-7.1-2.8 12.435 12.435 0 01-4.4-5.6 24.464 24.464 0 01-1.2-3.8 16.82 16.82 0 00-1.6-4.6 2.76 2.76 0 00-.6-.8 4.183 4.183 0 00-1.2-.8 27.39 27.39 0 00-2.8-1.1c-1.9-.6-4.4-1.2-7.1-1.8-4-.9-8.5-1.8-12.3-2.4-1.9-.3-3.6-.6-5-.8s-2.4-.3-3.1-.4h-1.2a8.082 8.082 0 00-1.6.1 3.546 3.546 0 00-1.1.3 3.4 3.4 0 00-2.1 2.2 3.402 3.402 0 00-.1 1 5.848 5.848 0 00.4 1.9c.2.6.5 1.2.8 1.9a74.368 74.368 0 0012.7 18.2 46.523 46.523 0 0013.3 10 36.254 36.254 0 0016.2 4 35.713 35.713 0 008.3-1.3l-1.1-4a26.921 26.921 0 01-7.4 1 32.785 32.785 0 01-14.3-3.5 41.428 41.428 0 01-12.1-9.1 71.417 71.417 0 01-12-17.1 7.718 7.718 0 01-.6-1.5.756.756 0 01-.1-.4v-.1h-.8l.7.4a.997.997 0 00.1-.4h-.8l.7.4-.8-.5.5.8c.1 0 .2-.2.3-.3l-.8-.5.5.8-.3-.4.2.5h.1l-.3-.4.2.5-.1-.1.1.2-.1-.1.1.2h.1c.2 0 .6-.1 1.2-.1h1c.3 0 1.1.1 2.1.2 3.6.5 10.3 1.7 16.3 2.9 3 .6 5.7 1.3 7.8 1.9 1 .3 1.8.6 2.4.8a1.07 1.07 0 01.5.3l.7-.9-1 .5c.2.3.3.3.3.4l.7-.9-1 .5a13.775 13.775 0 011.2 3.6 33.669 33.669 0 001.4 4.6 17.27 17.27 0 005.9 7.3 23.473 23.473 0 008.6 3.4 52.438 52.438 0 008.7.9c.3 0 .6 0 .7.1h.1l.2-.5-.3.4.1.1.2-.5-.3.4.7-1-1 .5c.1.2.3.3.3.4l.7-1-1 .5 1.1-.6h-1.3a.735.735 0 00.2.6l1.1-.6h-.4l-.8-.3v.3h.9l-.8-.3.2.1-.2-.1.2.1-.2-.1a1.238 1.238 0 00-.2.3 10.823 10.823 0 01-1.9 1.7 24.6 24.6 0 01-7.8 3.8l.7 3.9z"/><path id="svg_5" d="M52.7 253.4c19-22.6 37.6-45.6 59-65.9 10.9-10.3 22.2-20.2 34-29.5 5.8-4.6 11.8-9.2 17.9-13.5 4.2-2.9 15.1-12.1 15.4-8.2s-.9 23 7.1 32.5a29.485 29.485 0 0024.1 10c17.3-1 33.3-15.7 30.9-33.9-.4-2.9-2.8-7.6-2.2-10.5.8-3.5 7.2 2.8 8 3.7 7.1 7.6 12.3 17.1 20.9 23.2 9.1 6.5 22.8 8.5 31.1-.4 6.2-6.6 7.5-17 5.9-25.6-3.6-19.7-22.1-33.3-38.5-42.6-22.2-12.6-46.3-19-71.5-22.1C147.2 64.7 93 67.8 52.5 96.2c-15 10.6-28.2 24-37.5 39.9a102.193 102.193 0 00-10.6 25 87.803 87.803 0 00-2.5 13.4c-.4 4.1 1.7 3.1 4.4 1.4 1.9-1.2 4.3-3 6.6-3.3 3.1-.4-.7 7.1-1.1 8.1-4.3 9-4.4 30.3-3.5 31s5.3-4.6 5.8-5.2c.7-.8 7.3-8.6 8.2-4.9 1.3 5-.9 11.6-1 16.8-.1 6.2.2 17.9.8 18.6s6.8-8.8 12.2-8.6c0 14.5 1.2 43.4 2.2 43.6.9.2 10.9-12.3 16.2-18.6" class="cls-1"/><path id="svg_6" d="M54.3 254.7c19-22.6 37.5-45.5 58.8-65.7q16.2-15.45 33.8-29.4c5.8-4.6 11.7-9.2 17.8-13.4.9-.6 2.1-1.5 3.4-2.5 1.9-1.5 4.2-3.1 6.1-4.4a27.053 27.053 0 012.6-1.5c.4-.2.7-.3.9-.4.1 0 .2-.1.3-.1h.1v-.7l-.2.7h.2v-.7l-.2.7.4-1.2-1 .7a3.04 3.04 0 00.7.5l.4-1.2-1 .7.7-.5-.9.1a.62.62 0 00.2.4l.7-.5-.9.1c0 .4.1 1.1.1 2a98.664 98.664 0 00.9 14.8 42.2 42.2 0 002.2 9 25.983 25.983 0 004.4 8 31.05 31.05 0 0023.9 10.8 12.1 12.1 0 001.9-.1 36.958 36.958 0 0022.9-9.8 30.818 30.818 0 0010.2-22.4 27.965 27.965 0 00-.3-4 12.883 12.883 0 00-.6-2.5c-.4-1.2-.8-2.5-1.1-3.7a15.66 15.66 0 01-.6-3c0-.3 0-.5.1-.6l-.2-.1.2.1-.2-.1.2.1-.9-.4.5.8c.2-.1.3-.3.4-.4l-.9-.4.5.8-.5-.8v.9a.646.646 0 00.5-.2l-.5-.8v.9a.774.774 0 01.3.1 5.05 5.05 0 011.3.8 21.098 21.098 0 012.3 1.9 6.47 6.47 0 00.9.8l.5.5c3.4 3.7 6.5 7.9 9.8 12a58.618 58.618 0 0011.4 11.4 31.032 31.032 0 0017.9 6 24.548 24.548 0 008.5-1.5 20.46 20.46 0 007.5-5.1 23.74 23.74 0 005.4-9.5 36.236 36.236 0 001.6-10.8 41.971 41.971 0 00-.6-7.2 44.824 44.824 0 00-5.5-14.4 65.54 65.54 0 00-15.3-17.1 132.45 132.45 0 00-18.7-12.5c-22.5-12.8-46.9-19.2-72.3-22.4a313.232 313.232 0 00-39.1-2.5c-36.8 0-74.4 7.2-104.7 28.5-15.2 10.7-28.6 24.4-38.1 40.5a102.402 102.402 0 00-10.8 25.5A80.463 80.463 0 00.1 174c0 .4-.1.8-.1 1.2a5.283 5.283 0 00.1 1.3c.1.3.2.7.3 1a2.995 2.995 0 001.2 1.3 3.166 3.166 0 001.6.4 5.652 5.652 0 002.4-.6 8.175 8.175 0 002-1.2c1-.7 2-1.4 3-2a6.934 6.934 0 012.7-1v-1l-.4.9a.997.997 0 00.4.1v-1l-.4.9.5-1.2-.9.9c.1.1.3.2.4.3l.5-1.2-.9.9.8-.7-1 .3c0 .1.1.2.2.4l.8-.7-1 .3.4-.1-.4.1.4-.1-.4.1v.1c0 .2-.1.7-.2 1.3-.2.9-.7 1.9-1 2.8a9.746 9.746 0 00-.5 1.1 1.74 1.74 0 00-.3.7 31.181 31.181 0 00-2 6.1 96.124 96.124 0 00-2.1 20.4c0 1.6 0 2.9.1 3.9a6.753 6.753 0 00.2 1.4 1.421 1.421 0 00.2.6.758.758 0 00.2.4 3.191 3.191 0 00.6.7 2.35 2.35 0 002.4.3 5.422 5.422 0 001.1-.6 10.703 10.703 0 001.6-1.4c.8-.8 1.6-1.6 2.2-2.3a8.173 8.173 0 01.8-.9c.2-.2.4-.4.4-.5l.4-.4a39.968 39.968 0 013-3.1 15.498 15.498 0 011.7-1.3 2.187 2.187 0 00.5-.3h.1l-.1-.6v.6h.1l-.1-.6v-.4l-.3.9a1.007 1.007 0 01.3.1v-1l-.3.9.4-1.1-.9.7a2.18 2.18 0 00.5.4l.4-1.1-.9.7.6-.4-.6.3.1.1.6-.4-.6.3.2-.1-.2.1.2-.1-.2.1a13.855 13.855 0 01.3 3 49.206 49.206 0 01-.6 6.4 54.094 54.094 0 00-.7 6.8v2.6c0 3.2.1 7.1.2 10.3a41.048 41.048 0 00.3 4.1c.1.5.1 1 .2 1.4 0 .2.1.4.1.6 0 .1.1.2.1.4.1.1.1.3.3.6a2.407 2.407 0 00.8.6 2.92 2.92 0 00.9.2 1.997 1.997 0 00.9-.2 2.769 2.769 0 00.8-.5 9.016 9.016 0 011-.9c.6-.6 1.3-1.4 2-2.2a41.442 41.442 0 013.8-3.5 7.658 7.658 0 011.9-1.1 5.616 5.616 0 011.5-.4h.1l.1-2.1h-2.1v.8c0 7.4.3 18.1.7 27 .2 4.4.5 8.4.7 11.3.1 1.5.3 2.7.4 3.5.1.5.1.8.2 1.2.1.2.1.4.2.6.1.1.2.3.4.5l.4.4a4.874 4.874 0 00.7.3c.2 0 .3.1.5.1a2.151 2.151 0 001-.2c.4-.2.6-.4.8-.5.4-.3.8-.8 1.4-1.3 1.7-1.8 4.3-4.9 7.1-8.1 2.1-3.1 4.9-6.5 7-9l-3.2-2.7c-2.7 3.2-6.4 7.8-9.7 11.7-1.6 1.9-3.1 3.7-4.2 4.9-.6.6-1 1.1-1.3 1.4a1.238 1.238 0 00-.3.2l.5.7-.4-.8a.098.098 0 00-.1.1l.5.7-.4-.8.7 1.6v-1.8a.956.956 0 00-.7.2l.7 1.6v.2l.4-1.9h-.4v2l.4-1.9-.4 2 1.1-1.7a4.872 4.872 0 00-.7-.3l-.4 2 1.1-1.7-1.1 1.6 1.6-1.1a2.252 2.252 0 00-.5-.5l-1.1 1.6 1.6-1.1-1 .7 1.2-.4s0-.1-.2-.3l-1 .7 1.2-.4a1.213 1.213 0 01-.1-.5c-.1-.6-.2-1.5-.3-2.6-.4-4-.8-10.9-1-18.1-.3-7.3-.5-15-.5-20.6v-2.8l-2-.1h-.2a8.574 8.574 0 00-2.7.5 14.39 14.39 0 00-4 2.3 49.952 49.952 0 00-4.6 4.3c-.6.6-1.1 1.2-1.4 1.5l-.3.3.2.3-.2-.3.2.3-.2-.3.7 1.1-.5-1.2a.31.31 0 01-.2.1l.7 1.1-.5-1.2.7 1.7v-1.8a3.548 3.548 0 00-.7.1l.7 1.7v.2l.8-1.8a3.091 3.091 0 00-.8-.2v2l.8-1.8-.8 1.8 1.5-1.3a4.35 4.35 0 00-.7-.6l-.8 1.8 1.5-1.3-1.3 1.1 1.6-.7c0-.1-.1-.2-.2-.4l-1.3 1.1 1.6-.7-.9.4.9-.3v-.1l-.9.4.9-.3a2.442 2.442 0 01-.1-.7c-.2-1.2-.3-3.6-.4-6.3s-.1-5.7-.1-8.2v-2.5a53.451 53.451 0 01.7-6.2 55.076 55.076 0 00.7-7.1 17.518 17.518 0 00-.4-4 3.837 3.837 0 00-1.1-1.8 2.075 2.075 0 00-1-.6 4.4 4.4 0 00-1-.2 4.256 4.256 0 00-1.7.4 12.036 12.036 0 00-2.4 1.5c-1.1.9-2.1 2-3 2.8a11.982 11.982 0 00-1.1 1.2c-.3.3-.5.6-.6.6a1.38 1.38 0 00-.3.4c-.5.6-1.5 1.8-2.5 2.8-.5.5-1 .9-1.3 1.2a1.238 1.238 0 00-.3.2l.5 1v-1.1c-.4 0-.5.1-.5.1l.5 1v.7l1-1.4a1.129 1.129 0 00-1-.3v1.8l1-1.4-1.1 1.5 1.6-1a2.252 2.252 0 00-.5-.5l-1.1 1.5 1.6-1-1 .6 1.1-.3a.774.774 0 00-.1-.3l-1 .6 1.1-.3a.996.996 0 00-.1-.4 35.169 35.169 0 01-.2-4.1 104.186 104.186 0 01.8-12.8 59.892 59.892 0 011.2-6.6 31.738 31.738 0 011.7-5.2c.1-.2.3-.6.5-1.1a29.773 29.773 0 001.3-3 12.092 12.092 0 00.5-1.8 11.02 11.02 0 00.2-1.8 3.752 3.752 0 00-.1-1 6.888 6.888 0 00-.3-.8 2.345 2.345 0 00-1.1-1.1 2.822 2.822 0 00-1.5-.4h-.5a11.052 11.052 0 00-4.2 1.5c-1.2.7-2.3 1.5-3.2 2.1a14.563 14.563 0 01-1.6.9 1.69 1.69 0 01-.5.2h-.1v1l.4-.9a.996.996 0 00-.4-.1v1l.4-.9-.5 1 .9-.8a1.38 1.38 0 00-.4-.3l-.5 1 .9-.8-.7.6.8-.4-.1-.2-.7.6.8-.4-.3.1.3-.1-.3.1.3-.1v-1.2a97.325 97.325 0 012.4-13.1 93.976 93.976 0 0110.4-24.4 128.984 128.984 0 0136.9-39.2c29.3-20.6 66-27.8 102.3-27.8a306.453 306.453 0 0138.6 2.5c25 3.1 48.8 9.4 70.7 21.9 8.1 4.6 16.7 10.2 23.6 17a54.923 54.923 0 018.9 11.1 39.47 39.47 0 015 13 33.103 33.103 0 01.6 6.4 30.37 30.37 0 01-1.4 9.5 22.015 22.015 0 01-4.5 7.9 15.444 15.444 0 01-6 4 18.006 18.006 0 01-6.9 1.3 27.21 27.21 0 01-15.5-5.2 53.774 53.774 0 01-10.6-10.7c-3.2-4-6.3-8.3-10-12.3l-1.1-1.1a30.133 30.133 0 00-3.1-2.6 11.783 11.783 0 00-1.9-1.1 5.583 5.583 0 00-2.3-.6 1.803 1.803 0 00-1 .2 3.604 3.604 0 00-1.5 1 3.4 3.4 0 00-.7 1.5 8.753 8.753 0 00-.2 1.6 12.607 12.607 0 00.4 2.8c.3 1.4.8 2.7 1.1 3.9a19.617 19.617 0 01.8 3 19.977 19.977 0 01.2 3.4c0 7.6-3.5 14.3-8.9 19.4a33.11 33.11 0 01-20.3 8.7h-1.7a26.687 26.687 0 01-20.7-9.3 23.151 23.151 0 01-4.1-7.8 62.94 62.94 0 01-2.3-14c-.1-2.2-.2-4.1-.2-5.8v-2.2a7.589 7.589 0 00-.1-1.6 2.607 2.607 0 00-.3-1.1 3.232 3.232 0 00-1.2-1.4 3.429 3.429 0 00-1.6-.4 5.917 5.917 0 00-2 .4 29.378 29.378 0 00-3.5 1.8c-1.8 1.1-3.8 2.6-5.6 3.9s-3.4 2.6-4.5 3.4c-6.2 4.3-12.2 8.9-18 13.5q-17.7 14.1-34.1 29.6c-21.6 20.4-40.2 43.5-59.2 66.1l3.6 2.8z"/><path id="svg_7" d="M343.9 267.7c15.2-11.3 19.7-29.9 18.7-48-.6-10.6-2.2-21.3-7-30.8-4.8-9.6-12.1-17.5-19.9-24.8-3.5-3.2-7.4-7.8-11.6-10-3.2-1.6-72.4 65.1-72.4 65.1s-5.3 5.9-3.8 7.9c1.5 2.1 12.3-4.8 18.2-6.6 5.8-1.9 27.5-2.9 40.3 1.7 11.1 4 22.1 12.1 27.2 23 2.9 6.4 3 13.4 3.3 20.3.1 1.4-.4 6 2.2 5.4 1.8-.5 3.3-2.1 4.8-3.2" class="cls-1"/><path id="svg_8" d="M345.1 269.4a45.504 45.504 0 0015.3-20.2 67.049 67.049 0 004.4-24.7c0-1.6 0-3.2-.1-4.8-.6-10.7-2.3-21.7-7.2-31.6-5-9.9-12.4-18.1-20.3-25.4-1.7-1.5-3.5-3.5-5.5-5.4a31.292 31.292 0 00-6.5-5 2.607 2.607 0 00-1.1-.3c-.4 0-.6.1-.9.1a4.33 4.33 0 00-1.2.5 15.408 15.408 0 00-2.6 1.8c-1.9 1.4-4.4 3.5-7.3 6-10.2 8.7-25.6 23-38.5 35.2-12.9 12.1-23.2 22.1-23.2 22.1l-.1.1-.1.1a28.544 28.544 0 00-2.2 2.8c-.5.8-1.1 1.7-1.6 2.6-.2.5-.4.9-.6 1.4a4.145 4.145 0 00-.3 1.6 4.2 4.2 0 00.6 2.1 2.633 2.633 0 001.4 1 3.178 3.178 0 001.3.2 6.93 6.93 0 002-.3 25.706 25.706 0 003.8-1.4c2-.9 4.3-2 6.4-3s4.2-1.9 5.6-2.4a20.755 20.755 0 012.4-.6 90.268 90.268 0 0113.3-.9 100.961 100.961 0 0112.2.7 48.143 48.143 0 0111 2.5 50.03 50.03 0 0115.2 8.6 38.252 38.252 0 0110.8 13.3 29.1 29.1 0 012.5 9.3c.4 3.3.5 6.7.6 10.2v1.2a7.569 7.569 0 00.1 1.5 10.219 10.219 0 00.6 2.7 3.599 3.599 0 001.1 1.4 3.989 3.989 0 003 .5 8.616 8.616 0 003.3-1.7c1.1-.7 1.8-1.4 2.4-1.8l-2.5-3.3c-.8.6-1.6 1.3-2.3 1.8a5.545 5.545 0 01-1.8 1v.8l.3-.7a.494.494 0 00-.3-.1v.8l.3-.7-.3.8.6-.6-.2-.2-.3.8.6-.6-.3.3.3-.2-.1-.1-.3.3.3-.2a.31.31 0 00-.1-.2 2.483 2.483 0 01-.1-.9v-2.6c-.2-3.4-.2-6.9-.7-10.5a34.737 34.737 0 00-2.8-10.6 41.713 41.713 0 00-11.9-14.8 56.863 56.863 0 00-16.4-9.2 60.98 60.98 0 00-11.9-2.7 109.633 109.633 0 00-12.7-.8 100.221 100.221 0 00-10.1.5 34.188 34.188 0 00-3.9.5 16.702 16.702 0 00-3 .7 41.05 41.05 0 00-4.6 1.9c-2.4 1.1-5 2.4-7.3 3.4a31.149 31.149 0 01-3 1.2c-.4.1-.8.2-1.1.3a1.76 1.76 0 01-.6.1l-.1.8.4-.7a.367.367 0 00-.3-.1l-.1.8.4-.7-.6 1.1 1-.7c-.1-.2-.3-.3-.4-.4l-.6 1.1 1-.7-.6.4.7-.2-.1-.2-.6.4.7-.2-.4.1h.4v-.1l-.4.1h.4a.996.996 0 01.1-.4 9.758 9.758 0 01.7-1.6 16.005 16.005 0 011.8-2.5c.3-.3.5-.6.7-.8l.2-.2v-.1l-1.5-1.4 1.4 1.5s.3-.3.8-.7c3.7-3.6 20.5-19.7 36.9-34.8 8.2-7.6 16.3-15 22.6-20.4 3.1-2.7 5.8-5 7.9-6.5a15.94 15.94 0 012.4-1.7 5.927 5.927 0 00.6-.4h.1l-.3-1v1h.3l-.3-1v-.8l-.8 1.6a1.345 1.345 0 00.8.2v-1.8l-.8 1.6a25.46 25.46 0 015.6 4.3c1.9 1.8 3.7 3.7 5.5 5.4 7.7 7.1 14.8 14.9 19.4 24.2 4.6 9.2 6.2 19.6 6.8 30 .1 1.5.1 3.1.1 4.6a61.975 61.975 0 01-4.1 23.2 41.662 41.662 0 01-13.9 18.4l2.4 3.1z"/></g></g></svg>