<svg width="364.80003" height="365" xmlns="http://www.w3.org/2000/svg">
 <defs>
  <style>.cls-1{fill:#fc0;}</style>
 </defs>
 <g>
  <title>background</title>
  <rect fill="none" id="canvas_background" height="367" width="366.80003" y="-1" x="-1"/>
 </g>
 <g>
  <title>Layer 1</title>
  <g id="svg_9">
   <path id="svg_1" d="m155.800056,295.499991c36.9,-8 70.6,-36.7 75.8,-75.5a84.44466,84.44466 0 0 0 0.6,-15.1c-0.1,-2.9 0.4,-15.7 -4.1,-14.3c-10.8,3.4 -22.5,5.1 -33.5,1.8c-10.9,-3.2 -19.9,-11.1 -25.5,-20.9c-2.1,-3.6 -2.9,-7.4 -4.7,-11c-2.3,-4.7 -10.9,0.5 -10.9,0.5l-20,17.7s-2.7,4.7 1.8,4.7c5.5,0 11.3,0.5 16.3,3c6.8,3.5 16.3,12.4 10.7,20.6c-4.5,6.5 -13.2,9.4 -19.7,13.4c-15.3,9.5 -33.2,23.1 -33.2,43c0,19.2 16.2,34 35.1,33.7a55.9358,55.9358 0 0 0 11.3,-1.6" class="cls-1"/>
   <path id="svg_2" d="m156.200056,297.599991a107.74285,107.74285 0 0 0 50.8,-26.7c14,-13.3 24,-30.6 26.6,-50.5a81.25036,81.25036 0 0 0 0.7,-11c0,-1.5 0,-3 -0.1,-4.4l0,0c0,-0.6 0,-1.9 -0.1,-3.4a51.146,51.146 0 0 0 -0.7,-7.6a10.00672,10.00672 0 0 0 -1.3,-3.4a4.65947,4.65947 0 0 0 -1.4,-1.4a3.69691,3.69691 0 0 0 -2.1,-0.6a5.85245,5.85245 0 0 0 -1.3,0.2a66.3648,66.3648 0 0 1 -20.1,3.5a41.14883,41.14883 0 0 1 -12.1,-1.7c-10.4,-3.1 -18.9,-10.6 -24.3,-20a35.455,35.455 0 0 1 -2.3,-5.2c-0.7,-1.8 -1.4,-3.8 -2.3,-5.7a5.3013,5.3013 0 0 0 -2.4,-2.5a6.58307,6.58307 0 0 0 -3,-0.7a10.58794,10.58794 0 0 0 -3.1,0.5a22.60551,22.60551 0 0 0 -5.3,2.3l-0.2,0.1l-20.4,18l-0.2,0.3c0,0.1 -0.3,0.5 -0.5,1.1a8.30875,8.30875 0 0 0 -0.6,2.6a10.40121,10.40121 0 0 0 0.2,1.5a2.38379,2.38379 0 0 0 0.6,1.1a4.34461,4.34461 0 0 0 1.7,1.2a7.61291,7.61291 0 0 0 2.1,0.3l0.7,0c5.2,0 10.4,0.6 14.7,2.8a25.24868,25.24868 0 0 1 7.6,5.8a18.92438,18.92438 0 0 1 2.7,3.8a9.36,9.36 0 0 1 1,3.8a6.98244,6.98244 0 0 1 -1.4,4.1c-2,2.8 -5,5 -8.4,7s-7.3,3.7 -10.7,5.8c-7.7,4.8 -16.2,10.6 -22.8,18a50.2122,50.2122 0 0 0 -8.2,12.2a35.43238,35.43238 0 0 0 -3.2,14.6l0,0.1a34.85153,34.85153 0 0 0 10.9,25.4a37.16138,37.16138 0 0 0 25.7,10.3l0.5,0a75.53252,75.53252 0 0 0 12,-1.6l-0.9,-4.1a51.79366,51.79366 0 0 1 -11,1.4l-0.5,0a33.17414,33.17414 0 0 1 -22.8,-9.1a30.86458,30.86458 0 0 1 -9.6,-22.4l0,0a30.86472,30.86472 0 0 1 2.9,-12.9c2.7,-6 7.2,-11.3 12.4,-16a115.39725,115.39725 0 0 1 16.9,-12.3c3.1,-1.9 6.9,-3.6 10.5,-5.7a29.66668,29.66668 0 0 0 9.8,-8.2a11.65241,11.65241 0 0 0 2.1,-6.5a11.91852,11.91852 0 0 0 -1.4,-5.6a25.783,25.783 0 0 0 -5.4,-6.9a33.449,33.449 0 0 0 -6.7,-4.6c-5.3,-2.7 -11.2,-3.2 -16.6,-3.2l-0.6,0c-0.3,0 -0.6,0 -0.6,-0.1l-0.1,0l-0.1,0.1l0.1,-0.1l0,0l-0.1,0.1l0.1,-0.1l-0.3,0.2l0.4,-0.2l-0.2,-0.2l-0.2,0.4l0.4,-0.2l-0.2,0.1l0.3,-0.1l0,0l-0.2,0.1l0.3,-0.1l0,0l0,-0.1a2.23558,2.23558 0 0 1 0.3,-1c0.1,-0.2 0.1,-0.3 0.2,-0.5l0.1,-0.1l0,0l-0.6,-0.3l0.6,0.3l0,0l-0.6,-0.3l0.6,0.3l-1.8,-1l1.4,1.6l20,-17.7l-1.4,-1.6l1.1,1.8l0,0c0.1,0 1,-0.6 2.3,-1.2a11.76423,11.76423 0 0 1 2,-0.7a7.38672,7.38672 0 0 1 1.9,-0.3a2.67627,2.67627 0 0 1 1.1,0.2a0.7898,0.7898 0 0 1 0.5,0.6c0.8,1.7 1.5,3.5 2.2,5.3a41.57385,41.57385 0 0 0 2.6,5.8c5.9,10.2 15.2,18.5 26.7,21.9a46.98858,46.98858 0 0 0 13.3,1.9a70.20137,70.20137 0 0 0 21.4,-3.7l0,0l0,0l0,0l0,-0.4l-0.2,0.4l0.2,0l0,-0.4l-0.2,0.4l0.1,-0.3l-0.2,0.2l0,0l0.1,-0.3l-0.2,0.2l0,0a1.409,1.409 0 0 1 0.3,0.5a9.59947,9.59947 0 0 1 0.7,2.5a45.34574,45.34574 0 0 1 0.5,5.3l0,4.2l0,0c0.1,1.4 0.1,2.8 0.1,4.2a74.08369,74.08369 0 0 1 -0.7,10.5c-2.5,18.9 -12,35.3 -25.4,48.1c-13.1,12.9 -30.5,21.9 -48.6,25.8l0.9,4.1z"/>
   <path id="svg_3" d="m293.600056,277.399991a26.76484,26.76484 0 0 0 8.5,-4.1c2.1,-1.5 4.9,-4.3 0.6,-4.5c-5.6,-0.3 -11.4,-0.7 -16.2,-3.9a16.21505,16.21505 0 0 1 -5.2,-6.4c-1.2,-2.6 -1.3,-5.8 -2.7,-8.3c-1.2,-2.3 -26.9,-6.8 -30.4,-6.9c-4.4,-0.2 -4.7,0.8 -3,4.4a72.00373,72.00373 0 0 0 12.3,17.7c9.1,9.5 22.90006,15.8 36.1,12" class="cls-1"/>
   <path id="svg_4" d="m294.100056,279.399991a27.18632,27.18632 0 0 0 9.2,-4.5a18.61676,18.61676 0 0 0 2.2,-1.9c0.3,-0.4 0.7,-0.8 1,-1.2a4.2509,4.2509 0 0 0 0.6,-1.9a2.60415,2.60415 0 0 0 -0.4,-1.5a2.04684,2.04684 0 0 0 -0.8,-0.8a4.2355,4.2355 0 0 0 -1.4,-0.6a7.71916,7.71916 0 0 0 -1.5,-0.2a52.93331,52.93331 0 0 1 -8.1,-0.8a18.23008,18.23008 0 0 1 -7.1,-2.8a12.43466,12.43466 0 0 1 -4.4,-5.6a24.4642,24.4642 0 0 1 -1.2,-3.8a16.82055,16.82055 0 0 0 -1.6,-4.6l0,0a2.76059,2.76059 0 0 0 -0.6,-0.8a4.18313,4.18313 0 0 0 -1.2,-0.8a27.39065,27.39065 0 0 0 -2.8,-1.1c-1.9,-0.6 -4.4,-1.2 -7.1,-1.8c-4,-0.9 -8.5,-1.8 -12.3,-2.4c-1.9,-0.3 -3.6,-0.6 -5,-0.8s-2.4,-0.3 -3.1,-0.4l-1.2,0a8.08221,8.08221 0 0 0 -1.6,0.1a3.5455,3.5455 0 0 0 -1.1,0.3a3.40043,3.40043 0 0 0 -2.1,2.2a3.4019,3.4019 0 0 0 -0.1,1a5.84781,5.84781 0 0 0 0.4,1.9c0.2,0.6 0.5,1.2 0.8,1.9a74.368,74.368 0 0 0 12.7,18.2a46.52318,46.52318 0 0 0 13.3,10a36.25358,36.25358 0 0 0 16.2,4a35.71313,35.71313 0 0 0 8.3,-1.3l-1.1,-4a26.921,26.921 0 0 1 -7.4,1a32.78513,32.78513 0 0 1 -14.3,-3.5a41.42824,41.42824 0 0 1 -12.1,-9.1a71.41658,71.41658 0 0 1 -12,-17.1a7.718,7.718 0 0 1 -0.6,-1.5a0.75588,0.75588 0 0 1 -0.1,-0.4l0,-0.1l-0.8,0l0.7,0.4a0.9965,0.9965 0 0 0 0.1,-0.4l-0.8,0l0.7,0.4l-0.8,-0.5l0.5,0.8c0.1,0 0.2,-0.2 0.3,-0.3l-0.8,-0.5l0.5,0.8l-0.3,-0.4l0.2,0.5l0.1,0l-0.3,-0.4l0.2,0.5l-0.1,-0.1l0.1,0.2l0,0l-0.1,-0.1l0.1,0.2l0.1,0c0.2,0 0.6,-0.1 1.2,-0.1l1,0c0.3,0 1.1,0.1 2.1,0.2c3.6,0.5 10.3,1.7 16.3,2.9c3,0.6 5.7,1.3 7.8,1.9c1,0.3 1.8,0.6 2.4,0.8a1.06949,1.06949 0 0 1 0.5,0.3l0,0l0.7,-0.9l-1,0.5c0.2,0.3 0.3,0.3 0.3,0.4l0.7,-0.9l-1,0.5l0,0a13.77474,13.77474 0 0 1 1.2,3.6a33.66876,33.66876 0 0 0 1.4,4.6a17.27064,17.27064 0 0 0 5.9,7.3a23.47326,23.47326 0 0 0 8.6,3.4a52.43775,52.43775 0 0 0 8.7,0.9c0.3,0 0.6,0 0.7,0.1l0.1,0l0.2,-0.5l-0.3,0.4l0.1,0.1l0.2,-0.5l-0.3,0.4l0.7,-1l-1,0.5c0.1,0.2 0.3,0.3 0.3,0.4l0.7,-1l-1,0.5l1.1,-0.6l-1.3,0a0.73472,0.73472 0 0 0 0.2,0.6l1.1,-0.6l-0.4,0l-0.8,-0.3l0,0.3l0.9,0l-0.8,-0.3l0.2,0.1l-0.2,-0.1l0,0l0.2,0.1l-0.2,-0.1a1.23786,1.23786 0 0 0 -0.2,0.3a10.82254,10.82254 0 0 1 -1.9,1.7a24.59954,24.59954 0 0 1 -7.8,3.8l0.7,3.9z"/>
   <path id="svg_5" d="m52.700056,253.399991c19,-22.6 37.6,-45.6 59,-65.9c10.9,-10.3 22.2,-20.2 34,-29.5c5.8,-4.6 11.8,-9.2 17.9,-13.5c4.2,-2.9 15.1,-12.1 15.4,-8.2s-0.9,23 7.1,32.5a29.48531,29.48531 0 0 0 24.1,10c17.3,-1 33.3,-15.7 30.9,-33.9c-0.4,-2.9 -2.8,-7.6 -2.2,-10.5c0.8,-3.5 7.2,2.8 8,3.7c7.1,7.6 12.3,17.1 20.9,23.2c9.1,6.5 22.8,8.5 31.1,-0.4c6.2,-6.6 7.5,-17 5.9,-25.6c-3.6,-19.7 -22.1,-33.3 -38.5,-42.6c-22.2,-12.6 -46.3,-19 -71.5,-22.1c-47.6,-5.9 -101.8,-2.8 -142.3,25.6c-15,10.6 -28.2,24 -37.5,39.9a102.19326,102.19326 0 0 0 -10.6,25a87.80289,87.80289 0 0 0 -2.5,13.4c-0.4,4.1 1.7,3.1 4.4,1.4c1.9,-1.2 4.3,-3 6.6,-3.3c3.1,-0.4 -0.7,7.1 -1.1,8.1c-4.3,9 -4.4,30.3 -3.5,31s5.3,-4.6 5.8,-5.2c0.7,-0.8 7.3,-8.6 8.2,-4.9c1.3,5 -0.9,11.6 -1,16.8c-0.1,6.2 0.2,17.9 0.8,18.6s6.8,-8.8 12.2,-8.6c0,14.5 1.2,43.4 2.2,43.6c0.9,0.2 10.9,-12.3 16.2,-18.6" class="cls-1"/>
   <path id="svg_6" d="m54.300056,254.699991c19,-22.6 37.5,-45.5 58.8,-65.7q16.2,-15.45 33.8,-29.4c5.8,-4.6 11.7,-9.2 17.8,-13.4c0.9,-0.6 2.1,-1.5 3.4,-2.5c1.9,-1.5 4.2,-3.1 6.1,-4.4a27.05256,27.05256 0 0 1 2.6,-1.5c0.4,-0.2 0.7,-0.3 0.9,-0.4c0.1,0 0.2,-0.1 0.3,-0.1l0.1,0l0,-0.7l-0.2,0.7l0.2,0l0,-0.7l-0.2,0.7l0.4,-1.2l-1,0.7a3.03941,3.03941 0 0 0 0.7,0.5l0.4,-1.2l-1,0.7l0.7,-0.5l-0.9,0.1a0.61942,0.61942 0 0 0 0.2,0.4l0.7,-0.5l-0.9,0.1c0,0.4 0.1,1.1 0.1,2a98.66428,98.66428 0 0 0 0.9,14.8a42.19964,42.19964 0 0 0 2.2,9a25.98325,25.98325 0 0 0 4.4,8a31.05008,31.05008 0 0 0 23.9,10.8a12.10084,12.10084 0 0 0 1.9,-0.1a36.9582,36.9582 0 0 0 22.9,-9.8a30.81834,30.81834 0 0 0 10.2,-22.4a27.96548,27.96548 0 0 0 -0.3,-4a12.88294,12.88294 0 0 0 -0.6,-2.5c-0.4,-1.2 -0.8,-2.5 -1.1,-3.7a15.66034,15.66034 0 0 1 -0.6,-3c0,-0.3 0,-0.5 0.1,-0.6l0,0l-0.2,-0.1l0.2,0.1l0,0l-0.2,-0.1l0.2,0.1l-0.9,-0.4l0.5,0.8c0.2,-0.1 0.3,-0.3 0.4,-0.4l-0.9,-0.4l0.5,0.8l-0.5,-0.8l0,0.9a0.64635,0.64635 0 0 0 0.5,-0.2l-0.5,-0.8l0,0.9l0,0l0,0a0.77378,0.77378 0 0 1 0.3,0.1a5.05057,5.05057 0 0 1 1.3,0.8a21.09835,21.09835 0 0 1 2.3,1.9a6.46977,6.46977 0 0 0 0.9,0.8l0.5,0.5l0,0c3.4,3.7 6.5,7.9 9.8,12a58.61827,58.61827 0 0 0 11.4,11.4a31.03185,31.03185 0 0 0 17.9,6a24.54848,24.54848 0 0 0 8.5,-1.5a20.45934,20.45934 0 0 0 7.5,-5.1a23.74062,23.74062 0 0 0 5.4,-9.5a36.23633,36.23633 0 0 0 1.6,-10.8a41.97108,41.97108 0 0 0 -0.6,-7.2a44.82355,44.82355 0 0 0 -5.5,-14.4a65.53962,65.53962 0 0 0 -15.3,-17.1a132.44972,132.44972 0 0 0 -18.7,-12.5c-22.5,-12.8 -46.9,-19.2 -72.3,-22.4a313.23189,313.23189 0 0 0 -39.1,-2.5c-36.8,0 -74.4,7.2 -104.7,28.5c-15.2,10.7 -28.6,24.4 -38.1,40.5a102.40154,102.40154 0 0 0 -10.8,25.5a80.46344,80.46344 0 0 0 -2.5,13.7c0,0.4 -0.1,0.8 -0.1,1.2a5.28346,5.28346 0 0 0 0.1,1.3c0.1,0.3 0.2,0.7 0.3,1a2.995,2.995 0 0 0 1.2,1.3a3.16641,3.16641 0 0 0 1.6,0.4a5.65167,5.65167 0 0 0 2.4,-0.6a8.1748,8.1748 0 0 0 2,-1.2l0,0c1,-0.7 2,-1.4 3,-2a6.93369,6.93369 0 0 1 2.7,-1l0,0l0,0l0,-1l-0.4,0.9a0.9965,0.9965 0 0 0 0.4,0.1l0,-1l-0.4,0.9l0.5,-1.2l-0.9,0.9c0.1,0.1 0.3,0.2 0.4,0.3l0.5,-1.2l-0.9,0.9l0.8,-0.7l-1,0.3c0,0.1 0.1,0.2 0.2,0.4l0.8,-0.7l-1,0.3l0.4,-0.1l-0.4,0.1l0,0l0.4,-0.1l-0.4,0.1l0,0l0,0.1c0,0.2 -0.1,0.7 -0.2,1.3c-0.2,0.9 -0.7,1.9 -1,2.8a9.74577,9.74577 0 0 0 -0.5,1.1a1.74,1.74 0 0 0 -0.3,0.7l0,0a31.181,31.181 0 0 0 -2,6.1a96.12358,96.12358 0 0 0 -2.1,20.4c0,1.6 0,2.9 0.1,3.9a6.75254,6.75254 0 0 0 0.2,1.4a1.42132,1.42132 0 0 0 0.2,0.6a0.7581,0.7581 0 0 0 0.2,0.4a3.1912,3.1912 0 0 0 0.6,0.7l0,0a2.35049,2.35049 0 0 0 2.4,0.3a5.42216,5.42216 0 0 0 1.1,-0.6a10.7031,10.7031 0 0 0 1.6,-1.4c0.8,-0.8 1.6,-1.6 2.2,-2.3a8.17311,8.17311 0 0 1 0.8,-0.9c0.2,-0.2 0.4,-0.4 0.4,-0.5l0,0l0.4,-0.4a39.96764,39.96764 0 0 1 3,-3.1a15.49812,15.49812 0 0 1 1.7,-1.3a2.187,2.187 0 0 0 0.5,-0.3l0.1,0l0,0l0,0l0,0l-0.1,-0.6l0,0.6l0.1,0l-0.1,-0.6l0,-0.4l-0.3,0.9a1.00733,1.00733 0 0 1 0.3,0.1l0,-1l-0.3,0.9l0.4,-1.1l-0.9,0.7a2.18085,2.18085 0 0 0 0.5,0.4l0.4,-1.1l-0.9,0.7l0.6,-0.4l-0.6,0.3l0.1,0.1l0.6,-0.4l-0.6,0.3l0.2,-0.1l-0.2,0.1l0,0l0.2,-0.1l-0.2,0.1l0,0a13.85512,13.85512 0 0 1 0.3,3a49.206,49.206 0 0 1 -0.6,6.4a54.09418,54.09418 0 0 0 -0.7,6.8l0,2.6c0,3.2 0.1,7.1 0.2,10.3a41.04816,41.04816 0 0 0 0.3,4.1c0.1,0.5 0.1,1 0.2,1.4c0,0.2 0.1,0.4 0.1,0.6c0,0.1 0.1,0.2 0.1,0.4c0.1,0.1 0.1,0.3 0.3,0.6l0,0a2.40654,2.40654 0 0 0 0.8,0.6a2.91966,2.91966 0 0 0 0.9,0.2a1.99674,1.99674 0 0 0 0.9,-0.2a2.76861,2.76861 0 0 0 0.8,-0.5a9.016,9.016 0 0 1 1,-0.9c0.6,-0.6 1.3,-1.4 2,-2.2a41.44157,41.44157 0 0 1 3.8,-3.5a7.65815,7.65815 0 0 1 1.9,-1.1a5.61626,5.61626 0 0 1 1.5,-0.4l0.1,0l0.1,-2.1l-2.1,0l0,0.8c0,7.4 0.3,18.1 0.7,27c0.2,4.4 0.5,8.4 0.7,11.3c0.1,1.5 0.3,2.7 0.4,3.5c0.1,0.5 0.1,0.8 0.2,1.2c0.1,0.2 0.1,0.4 0.2,0.6c0.1,0.1 0.2,0.3 0.4,0.5l0.4,0.4a4.87356,4.87356 0 0 0 0.7,0.3l0,0c0.2,0 0.3,0.1 0.5,0.1a2.15121,2.15121 0 0 0 1,-0.2c0.4,-0.2 0.6,-0.4 0.8,-0.5c0.4,-0.3 0.8,-0.8 1.4,-1.3c1.7,-1.8 4.3,-4.9 7.1,-8.1c2.1,-3.1 4.9,-6.5 7,-9l-3.2,-2.7c-2.7,3.2 -6.4,7.8 -9.7,11.7c-1.6,1.9 -3.1,3.7 -4.2,4.9c-0.6,0.6 -1,1.1 -1.3,1.4a1.23781,1.23781 0 0 0 -0.3,0.2l0.5,0.7l-0.4,-0.8a0.098,0.098 0 0 0 -0.1,0.1l0.5,0.7l-0.4,-0.8l0.7,1.6l0,-1.8a0.95632,0.95632 0 0 0 -0.7,0.2l0.7,1.6l0,0.2l0.4,-1.9l-0.4,0l0,2l0.4,-1.9l0,0l-0.4,2l1.1,-1.7a4.87193,4.87193 0 0 0 -0.7,-0.3l-0.4,2l1.1,-1.7l-1.1,1.6l1.6,-1.1a2.25236,2.25236 0 0 0 -0.5,-0.5l-1.1,1.6l1.6,-1.1l-1,0.7l1.2,-0.4s0,-0.1 -0.2,-0.3l-1,0.7l1.2,-0.4a1.21348,1.21348 0 0 1 -0.1,-0.5c-0.1,-0.6 -0.2,-1.5 -0.3,-2.6c-0.4,-4 -0.8,-10.9 -1,-18.1c-0.3,-7.3 -0.5,-15 -0.5,-20.6l0,-2.8l-2,-0.1l-0.2,0a8.57384,8.57384 0 0 0 -2.7,0.5a14.39091,14.39091 0 0 0 -4,2.3a49.952,49.952 0 0 0 -4.6,4.3c-0.6,0.6 -1.1,1.2 -1.4,1.5l-0.3,0.3l0.2,0.3l-0.2,-0.3l0,0l0.2,0.3l-0.2,-0.3l0.7,1.1l-0.5,-1.2a0.30968,0.30968 0 0 1 -0.2,0.1l0.7,1.1l-0.5,-1.2l0.7,1.7l0,-1.8a3.54828,3.54828 0 0 0 -0.7,0.1l0.7,1.7l0,0.2l0.8,-1.8a3.091,3.091 0 0 0 -0.8,-0.2l0,2l0.8,-1.8l-0.8,1.8l1.5,-1.3a4.34988,4.34988 0 0 0 -0.7,-0.6l-0.8,1.8l1.5,-1.3l0,0l-1.3,1.1l1.6,-0.7c0,-0.1 -0.1,-0.2 -0.2,-0.4l-1.3,1.1l1.6,-0.7l-0.9,0.4l0.9,-0.3l0,-0.1l-0.9,0.4l0.9,-0.3l0,0a2.44154,2.44154 0 0 1 -0.1,-0.7c-0.2,-1.2 -0.3,-3.6 -0.4,-6.3s-0.1,-5.7 -0.1,-8.2l0,-2.5a53.451,53.451 0 0 1 0.7,-6.2a55.07636,55.07636 0 0 0 0.7,-7.1a17.51792,17.51792 0 0 0 -0.4,-4a3.83675,3.83675 0 0 0 -1.1,-1.8a2.0751,2.0751 0 0 0 -1,-0.6a4.40052,4.40052 0 0 0 -1,-0.2a4.256,4.256 0 0 0 -1.7,0.4a12.036,12.036 0 0 0 -2.4,1.5c-1.1,0.9 -2.1,2 -3,2.8a11.982,11.982 0 0 0 -1.1,1.2c-0.3,0.3 -0.5,0.6 -0.6,0.6l0,0a1.38086,1.38086 0 0 0 -0.3,0.4c-0.5,0.6 -1.5,1.8 -2.5,2.8c-0.5,0.5 -1,0.9 -1.3,1.2a1.238,1.238 0 0 0 -0.3,0.2l0,0l0.5,1l0,-1.1c-0.4,0 -0.5,0.1 -0.5,0.1l0.5,1l0,0.7l1,-1.4a1.12854,1.12854 0 0 0 -1,-0.3l0,1.8l1,-1.4l0,0l-1.1,1.5l1.6,-1a2.2519,2.2519 0 0 0 -0.5,-0.5l-1.1,1.5l1.6,-1l-1,0.6l1.1,-0.3a0.77384,0.77384 0 0 0 -0.1,-0.3l-1,0.6l1.1,-0.3a0.99644,0.99644 0 0 0 -0.1,-0.4a35.1686,35.1686 0 0 1 -0.2,-4.1a104.18645,104.18645 0 0 1 0.8,-12.8a59.892,59.892 0 0 1 1.2,-6.6a31.73757,31.73757 0 0 1 1.7,-5.2l0,0c0.1,-0.2 0.3,-0.6 0.5,-1.1a29.77316,29.77316 0 0 0 1.3,-3a12.092,12.092 0 0 0 0.5,-1.8a11.01912,11.01912 0 0 0 0.2,-1.8a3.75169,3.75169 0 0 0 -0.1,-1a6.888,6.888 0 0 0 -0.3,-0.8a2.34549,2.34549 0 0 0 -1.1,-1.1a2.822,2.822 0 0 0 -1.5,-0.4l-0.5,0a11.05161,11.05161 0 0 0 -4.2,1.5c-1.2,0.7 -2.3,1.5 -3.2,2.1l0,0a14.56337,14.56337 0 0 1 -1.6,0.9a1.68922,1.68922 0 0 1 -0.5,0.2l-0.1,0l0,0l0,0l0,1l0.4,-0.9a0.99647,0.99647 0 0 0 -0.4,-0.1l0,1l0.4,-0.9l-0.5,1l0.9,-0.8a1.38021,1.38021 0 0 0 -0.4,-0.3l-0.5,1l0.9,-0.8l-0.7,0.6l0.8,-0.4l-0.1,-0.2l-0.7,0.6l0.8,-0.4l-0.3,0.1l0.3,-0.1l0,0l-0.3,0.1l0.3,-0.1l0,-1.2a97.32483,97.32483 0 0 1 2.4,-13.1a93.97622,93.97622 0 0 1 10.4,-24.4a128.98438,128.98438 0 0 1 36.9,-39.2c29.3,-20.6 66,-27.8 102.3,-27.8a306.45255,306.45255 0 0 1 38.6,2.5c25,3.1 48.8,9.4 70.7,21.9c8.1,4.6 16.7,10.2 23.6,17a54.92307,54.92307 0 0 1 8.9,11.1a39.46934,39.46934 0 0 1 5,13a33.10291,33.10291 0 0 1 0.6,6.4a30.36961,30.36961 0 0 1 -1.4,9.5a22.01454,22.01454 0 0 1 -4.5,7.9a15.44372,15.44372 0 0 1 -6,4a18.00647,18.00647 0 0 1 -6.9,1.3a27.20925,27.20925 0 0 1 -15.5,-5.2a53.77411,53.77411 0 0 1 -10.6,-10.7c-3.2,-4 -6.3,-8.3 -10,-12.3l0,0l-1.1,-1.1a30.13264,30.13264 0 0 0 -3.1,-2.6a11.78256,11.78256 0 0 0 -1.9,-1.1a5.58313,5.58313 0 0 0 -2.3,-0.6a1.803,1.803 0 0 0 -1,0.2a3.60394,3.60394 0 0 0 -1.5,1a3.4,3.4 0 0 0 -0.7,1.5l0,0a8.75256,8.75256 0 0 0 -0.2,1.6a12.60684,12.60684 0 0 0 0.4,2.8c0.3,1.4 0.8,2.7 1.1,3.9a19.61709,19.61709 0 0 1 0.8,3a19.977,19.977 0 0 1 0.2,3.4c0,7.6 -3.5,14.3 -8.9,19.4a33.11026,33.11026 0 0 1 -20.3,8.7l-1.7,0a26.68656,26.68656 0 0 1 -20.7,-9.3a23.151,23.151 0 0 1 -4.1,-7.8a62.93953,62.93953 0 0 1 -2.3,-14c-0.1,-2.2 -0.2,-4.1 -0.2,-5.8l0,-2.2a7.58868,7.58868 0 0 0 -0.1,-1.6a2.60742,2.60742 0 0 0 -0.3,-1.1a3.2324,3.2324 0 0 0 -1.2,-1.4a3.42874,3.42874 0 0 0 -1.6,-0.4a5.91706,5.91706 0 0 0 -2,0.4a29.37767,29.37767 0 0 0 -3.5,1.8c-1.8,1.1 -3.8,2.6 -5.6,3.9s-3.4,2.6 -4.5,3.4c-6.2,4.3 -12.2,8.9 -18,13.5q-17.7,14.1 -34.1,29.6c-21.6,20.4 -40.2,43.5 -59.2,66.1l3.6,2.8z"/>
   <path id="svg_7" d="m343.900056,267.699991c15.2,-11.3 19.7,-29.9 18.7,-48c-0.6,-10.6 -2.2,-21.3 -7,-30.8c-4.8,-9.6 -12.1,-17.5 -19.9,-24.8c-3.5,-3.2 -7.4,-7.8 -11.6,-10c-3.2,-1.6 -72.4,65.1 -72.4,65.1s-5.3,5.9 -3.8,7.9c1.5,2.1 12.3,-4.8 18.2,-6.6c5.8,-1.9 27.5,-2.9 40.3,1.7c11.1,4 22.1,12.1 27.2,23c2.9,6.4 3,13.4 3.3,20.3c0.1,1.4 -0.4,6 2.2,5.4c1.8,-0.5 3.3,-2.1 4.8,-3.2" class="cls-1"/>
   <path id="svg_8" d="m345.100056,269.399991a45.504,45.504 0 0 0 15.3,-20.2a67.04877,67.04877 0 0 0 4.4,-24.7c0,-1.6 0,-3.2 -0.1,-4.8c-0.6,-10.7 -2.3,-21.7 -7.2,-31.6c-5,-9.9 -12.4,-18.1 -20.3,-25.4c-1.7,-1.5 -3.5,-3.5 -5.5,-5.4a31.29231,31.29231 0 0 0 -6.5,-5a2.60712,2.60712 0 0 0 -1.1,-0.3c-0.4,0 -0.6,0.1 -0.9,0.1a4.3293,4.3293 0 0 0 -1.2,0.5a15.40825,15.40825 0 0 0 -2.6,1.8c-1.9,1.4 -4.4,3.5 -7.3,6c-10.2,8.7 -25.6,23 -38.5,35.2c-12.9,12.1 -23.2,22.1 -23.2,22.1l-0.1,0.1l-0.1,0.1a28.544,28.544 0 0 0 -2.2,2.8c-0.5,0.8 -1.1,1.7 -1.6,2.6c-0.2,0.5 -0.4,0.9 -0.6,1.4a4.14536,4.14536 0 0 0 -0.3,1.6a4.20054,4.20054 0 0 0 0.6,2.1a2.63338,2.63338 0 0 0 1.4,1a3.17759,3.17759 0 0 0 1.3,0.2a6.92986,6.92986 0 0 0 2,-0.3a25.70555,25.70555 0 0 0 3.8,-1.4c2,-0.9 4.3,-2 6.4,-3s4.2,-1.9 5.6,-2.4a20.75525,20.75525 0 0 1 2.4,-0.6a90.26765,90.26765 0 0 1 13.3,-0.9a100.96125,100.96125 0 0 1 12.2,0.7a48.14288,48.14288 0 0 1 11,2.5a50.02964,50.02964 0 0 1 15.2,8.6a38.25153,38.25153 0 0 1 10.8,13.3a29.10066,29.10066 0 0 1 2.5,9.3c0.4,3.3 0.5,6.7 0.6,10.2l0,1.2a7.56868,7.56868 0 0 0 0.1,1.5a10.21858,10.21858 0 0 0 0.6,2.7a3.59866,3.59866 0 0 0 1.1,1.4a3.98892,3.98892 0 0 0 3,0.5l0,0a8.61617,8.61617 0 0 0 3.3,-1.7c1.1001,-0.7 1.80011,-1.4 2.40009,-1.8l-2.5,-3.3c-0.8,0.6 -1.6,1.3 -2.3,1.8a5.54479,5.54479 0 0 1 -1.8,1l0,0l0,0l0,0l0,0.8l0.3,-0.7a0.49375,0.49375 0 0 0 -0.3,-0.1l0,0.8l0.3,-0.7l-0.3,0.8l0.6,-0.6l-0.2,-0.2l-0.3,0.8l0.6,-0.6l-0.3,0.3l0.3,-0.2l-0.1,-0.1l-0.3,0.3l0.3,-0.2a0.30971,0.30971 0 0 0 -0.1,-0.2a2.4829,2.4829 0 0 1 -0.1,-0.9l0,-2.6c-0.2,-3.4 -0.2,-6.9 -0.7,-10.5a34.73725,34.73725 0 0 0 -2.8,-10.6a41.71271,41.71271 0 0 0 -11.9,-14.8a56.86256,56.86256 0 0 0 -16.4,-9.2a60.98081,60.98081 0 0 0 -11.9,-2.7a109.63341,109.63341 0 0 0 -12.7,-0.8a100.22146,100.22146 0 0 0 -10.1,0.5a34.18767,34.18767 0 0 0 -3.9,0.5a16.7021,16.7021 0 0 0 -3,0.7a41.04984,41.04984 0 0 0 -4.6,1.9c-2.4,1.1 -5,2.4 -7.3,3.4a31.14879,31.14879 0 0 1 -3,1.2c-0.4,0.1 -0.8,0.2 -1.1,0.3a1.75925,1.75925 0 0 1 -0.6,0.1l0,0l0,0l0,0l0,0l-0.1,0.8l0.4,-0.7a0.36736,0.36736 0 0 0 -0.3,-0.1l-0.1,0.8l0.4,-0.7l-0.6,1.1l1,-0.7c-0.1,-0.2 -0.3,-0.3 -0.4,-0.4l-0.6,1.1l1,-0.7l-0.6,0.4l0.7,-0.2l-0.1,-0.2l-0.6,0.4l0.7,-0.2l-0.4,0.1l0.4,0l0,-0.1l-0.4,0.1l0.4,0a0.99632,0.99632 0 0 1 0.1,-0.4a9.75777,9.75777 0 0 1 0.7,-1.6a16.00491,16.00491 0 0 1 1.8,-2.5c0.3,-0.3 0.5,-0.6 0.7,-0.8l0.2,-0.2l0,-0.1l0,0l-1.5,-1.4l1.4,1.5s0.3,-0.3 0.8,-0.7c3.7,-3.6 20.5,-19.7 36.9,-34.8c8.2,-7.6 16.3,-15 22.6,-20.4c3.1,-2.7 5.8,-5 7.9,-6.5a15.94093,15.94093 0 0 1 2.4,-1.7a5.92727,5.92727 0 0 0 0.6,-0.4l0.1,0l-0.3,-1l0,1l0.3,0l-0.3,-1l0,-0.8l-0.8,1.6a1.34469,1.34469 0 0 0 0.8,0.2l0,-1.8l-0.8,1.6a25.45971,25.45971 0 0 1 5.6,4.3c1.9,1.8 3.7,3.7 5.5,5.4c7.7,7.1 14.8,14.9 19.4,24.2c4.6,9.2 6.2,19.6 6.8,30c0.1,1.5 0.1,3.1 0.1,4.6a61.97508,61.97508 0 0 1 -4.1,23.2a41.662,41.662 0 0 1 -13.9,18.4l2.39991,3.1z"/>
  </g>
 </g>
</svg>