<svg width="365" height="365" xmlns="http://www.w3.org/2000/svg">
 <defs>
  <style>.cls-1{fill:#b30838;}</style>
 </defs>
 <g>
  <title>background</title>
  <rect fill="none" id="canvas_background" height="367" width="367" y="-1" x="-1"/>
 </g>
 <g>
  <title>Layer 1</title>
  <polygon id="svg_1" points="132.4000015258789,0 132.4000015258789,27.5 153.8000030517578,27.5 153.8000030517578,229.10000610351562 113.10000610351562,229.10000610351562 113.10000610351562,76.19999694824219 132.20000457763672,76.19999694824219 132.20000457763672,48.599998474121094 37.80000305175781,48.599998474121094 37.80000305175781,76.19999694824219 59.200002670288086,76.19999694824219 59.200002670288086,253.3000030517578 93.80000305175781,288.70001220703125 153.8000030517578,288.70001220703125 153.8000030517578,329.6000061035156 132.4000015258789,329.6000061035156 132.4000015258789,365 232.60000610351562,365 232.60000610351562,329.6000061035156 211.1999969482422,329.6000061035156 211.1999969482422,288.70001220703125 271.1999969482422,288.70001220703125 305.8000030517578,253.3000030517578 305.8000030517578,76.19999694824219 327.1999969482422,76.19999694824219 327.1999969482422,48.599998474121094 232.8000030517578,48.599998474121094 232.8000030517578,76.19999694824219 251.90000915527344,76.19999694824219 251.90000915527344,229.10000610351562 211.1999969482422,229.10000610351562 211.1999969482422,27.5 232.60000610351562,27.5 232.60000610351562,0 132.4000015258789,0 " class="cls-1"/>
 </g>
</svg>