<svg xmlns="http://www.w3.org/2000/svg" viewBox="0 0 506 506.67"><path d="M446.52 373.97c-.02-.01-.04-.03-.05-.04l-.25-.19-.21-.23c-.31-.33-.68-.67-1.08-1.03-.6-.55-1.29-1.17-1.92-1.93a24.233 24.233 0 01-2.92-4.34c-1.52-2.86-2.44-5.84-3.33-8.72l-.08-.26c-1.89-6.1-4.09-11.96-6.55-17.41-5.14-11.41-11.14-20.4-18.32-27.47-6.6-6.5-14.61-12.4-25.23-18.57-10.36-6.02-20.14-10.58-29.9-13.95l-6.22-2.14 5.25-3.96c1.37-1.03 2.77-1.98 4.13-2.9 1.2-.81 2.33-1.58 3.44-2.39 2.42-1.78 4.76-3.67 6.96-5.61 4.95-4.36 8.72-8.57 11.53-12.86 1.16-1.76 2.17-3.63 3.24-5.61.43-.79.85-1.57 1.29-2.35 1.25-2.23 2.38-4.74 3.57-7.88.92-2.43 1.86-5.13 2.96-8.5.31-.94.57-1.91.86-2.93.54-1.94 1.09-3.95 1.97-5.94 2.67-6.08 6.18-10.98 10.43-14.58l.06-.05c-.08-.08-.16-.15-.21-.2-2.32-2.32-4.27-4.6-5.96-6.97-3.59-5.06-6.01-10.65-8.36-16.05l-.26-.61c-1.8-4.15-4.33-9.54-8-14.39-5.71-7.56-13.56-14.46-24.71-21.72-10.48-6.82-21.26-12.07-32.05-15.62-13.51-4.44-28.36-6.66-44.13-6.62-9.83.02-20.13.93-30.62 2.7-6.19 1.04-12.49 2.36-18.72 3.9-2.88.71-5.95 1.51-8.92 2.52-1.3.44-2.65.96-4.01 1.53-.35.15-.71.32-1.07.48-1.23.57-2.62 1.22-4.26 1.48-.4.06-.8.1-1.19.1-3.87.01-6.06-2.88-7.51-4.8-.27-.36-.54-.71-.81-1.03-1.69-2-3.62-4.07-6.06-6.51-4.69-4.68-8.96-8.56-13.03-11.87a135.18 135.18 0 00-14.1-10.04c-3.47-2.15-7.18-4.11-10.77-6-1.26-.66-2.51-1.33-3.77-2 3.32 4.14 6.52 8.45 9.54 12.86 14.69 21.48 24.71 44.03 29.77 67.04 5.36 24.35 4.82 49.77-1.56 73.51-3.25 12.09-8.13 23.85-14.52 34.95-1.53 2.66-3.09 5.13-4.96 8.09l-.32.5c-.65 1.03-1.39 2.21-2.33 3.29-.22.25-.46.5-.71.76-.09.1-.21.22-.32.33l.09.09c.97 1.09 1.91 2.29 2.95 3.78 1.97 2.83 3.82 5.64 5.37 8.02 5.96 9.18 10.83 18.64 14.45 28.12 3.52 9.21 7.08 20.17 6.79 31.61l-.1 3.86-3.83-.48c-5.89-.74-12.8-1.8-19.32-4.1-6.04-2.13-11.61-5.07-16.58-8.72-9.35-6.89-16.68-16.39-20.65-26.76-4.7-12.29-4.8-25.72-4.89-37.57-.11-14.79.71-27.77 2.5-39.67 2.27-15.08 5.76-25.88 11.29-35.01 1.97-3.25 3.86-5.74 5.94-7.82 1.1-1.11 2.11-1.96 3.11-2.65-1.19-.9-2.32-1.89-3.42-3.03-2.02-2.09-3.92-4.5-5.81-7.39-7.25-11.09-10.42-24.12-12.37-34.23-2.24-11.6-3.72-24.05-4.66-39.18-1.76-28.27 1.47-51.96 9.87-72.43 4.79-11.67 11.12-21.6 18.81-29.49 2.51-2.58 5.27-4.96 8.34-7.19-2.02.02-3.92.1-5.77.21-12.07.77-22.73 3.79-31.69 8.98-2.08 1.2-4.26 2.67-6.69 4.49-1.16.87-2 1.58-2.72 2.29-.26.25-.54.61-.84.98-.51.63-1.08 1.35-1.85 2.01-1.06.92-2.33 1.41-3.65 1.42-2.69.01-4.64-1.94-5.93-3.23-.26-.26-.5-.51-.73-.7a58.903 58.903 0 00-6.81-4.92 58.638 58.638 0 00-15.58-6.8c-5.02-1.36-10.56-2.12-17.94-2.46-2.52-.11-4.87-.18-7.14-.19 1.19.83 2.38 1.7 3.55 2.62 21.03 16.51 29.86 40.2 33.56 57.17 2.26 10.35 3.44 21.88 3.71 36.28.26 13.67-.24 26.93-1.49 39.41-.68 6.82-1.64 13.4-2.83 19.57-1.02 5.26-2.5 12.15-4.95 18.86-2.26 6.2-5.43 11.26-9.42 15.04-1.28 1.21-2.5 2.22-3.73 3.1-.17.12-.33.23-.5.33 4.85 3.17 8 7.96 10 11.38 2.86 4.91 5.34 10.52 7.37 16.69 4.29 13.06 6.09 26.76 7.19 37.23 1.41 13.52 1.95 26.85 1.59 39.63-.4 14.2-2.28 26.66-5.75 38.07-4.09 13.46-10.12 24.21-17.93 31.95-3 2.97-6.46 5.67-10.33 8.05 4.5-.3 9.38-.77 14.18-1.66 5.76-1.07 11.29-2.93 16.41-5.52 5.01-2.53 9.82-5.79 14.3-9.69.19-.17.38-.36.58-.57.78-.79 1.75-1.77 3.13-2.34.58-.24 1.2-.36 1.83-.36 2.03 0 3.54 1.19 4.54 1.98.15.12.29.24.42.32 1.56 1.06 3.31 1.95 5.17 2.88.86.43 1.72.87 2.56 1.32 9.8 5.24 21.56 11.07 34.4 14.56 6.36 1.73 12.81 3.03 18.28 4.07l4.47.84.64.12c.53.09 1.07.19 1.6.31.07.01.16.02.25.02 1.12.1 2.64.25 3.75 1.5 1.17 1.32 1.03 2.89.98 3.4.02.73.04 1.47.05 2.21.03 1.52.05 3.03.08 4.55l.01.4c.06 3.77-.2 6.97-.81 10.08-.58 2.97-1.35 6.14-2.35 9.69-1.85 6.55-3.84 12.49-6.06 18.14-4.38 11.11-10.03 22.17-17.27 33.79-2.57 4.12-5.48 8.47-9.05 13.54 9.8-5.27 18.92-11.53 27.16-18.64 2.47-2.13 4.87-4.31 6.89-6.16l5.08-4.68c.5-.54 1.68-1.81 3.6-1.81.57 0 1.12.11 1.66.33 5.36 2.24 11.17 4.58 17.27 6.47 12.56 3.89 25.12 7.11 37.34 9.55 13.86 2.78 26.37 4.18 38.26 4.3 6.59.07 13.05-.27 19-1.01 5.66-.7 11.74-1.96 18.59-3.85 25.61-7.04 47.2-17.91 64.18-32.3 8.26-7 15.19-15.12 20.59-24.14 2.67-4.46 5.06-9.23 7.09-14.16 1-2.43 1.93-4.93 2.76-7.44.36-1.07.67-2.16.99-3.24.46-1.58.94-3.21 1.54-4.84 2.03-5.5 5.03-9.94 8.93-13.22.85-.71 1.77-1.42 2.76-2.09-.64-.58-1.33-1.09-2.06-1.64zm-215.85-216.8l.18-.07c.85-.33 1.7-.69 2.54-1.05.7-.29 1.4-.59 2.1-.87 3.4-1.37 6.85-2.37 9.47-3.08 6.26-1.71 12.82-2.97 19.5-3.75 13.19-1.55 26.73-1.29 39.75.76 13.89 2.18 25.28 6.1 34.82 11.98 2.26 1.39 5.13 3.34 7.35 6.13 2.04 2.56 3.51 5.74 4.26 9.2 1.34 6.2-.03 13.07-3.79 18.82-1.71 2.63-3.88 5.02-6.42 7.11-.55.45-1.11.88-1.69 1.28 2.02.89 3.93 1.9 5.72 3.04 5.72 3.64 9.76 8.31 11.69 13.51 2.25 6.04 1.46 13.1-2.11 18.9-3.4 5.52-8.66 9.28-12.89 12.3-5.04 3.6-10.59 6.76-16.46 9.41-10.85 4.88-23.27 8.13-36.91 9.68-6.33.72-12.89 1.07-20.05 1.09-1.6 0-3.19-.01-4.79-.04-7.45-.14-16.22-.47-24.77-1.95l-3.58-.62.76-3.56c5.18-24.36 5.14-50.11-.14-74.48-.9-4.16-2.08-8.56-3.72-13.83l-.88-2.86c-.98-3.23-2.01-6.54-3.2-9.68-.04-.16-.86-3.48-.08-4.76.46-.77 1.06-1.32 1.49-1.67.68-.49 1.37-.76 1.85-.94zM400.03 396.8c.05.68-.03 1.36-.16 1.93-.36 3.32-1.43 6.53-3.1 9.24l-.42.69c-1.53 2.51-3.12 5.12-5.35 7.37-3.91 3.94-8.7 7.54-15.09 11.34-2.86 1.7-5.83 3.21-8.61 4.58-.78.38-1.55.77-2.32 1.16-2.08 1.05-4.23 2.14-6.45 3.11-5.57 2.43-11.71 4.54-18.26 6.26-12.94 3.4-25.79 5.15-38.22 5.18h-.7c-12.25-.03-25.13-1.63-39.38-4.86-4.88-1.11-10.11-2.55-15.96-4.39-2.27-.72-4.56-1.4-6.84-2.08-2.87-.86-5.83-1.74-8.74-2.69l-3.72-1.21 1.61-3.56c2.97-6.59 5.03-12.12 6.49-17.43.88-3.23 1.63-6.51 2.19-9l.33-1.44c.22-.93.43-1.82.59-2.69.02-.13.03-.27.04-.4.38-4.35 3.37-4.93 4.64-4.97 4.12-.15 8.16-.29 12.27-.3 10.21-.03 17.98.75 25.19 2.52 8.96 2.2 21.44 6.89 29.97 16.77 1.12 1.3 2.12 2.65 2.98 4.05-.08-5.73-.2-11.64-1.51-17.36-1.41-6.13-3.7-11.21-6.79-15.12-.22-.28-.6-.66-1-1.06-1.66-1.66-4.76-4.74-3.09-8.93.55-1.39 1.38-2.48 2.12-3.45.22-.3.45-.59.65-.89.81-1.18 1.58-2.46 2.29-3.8 2.56-4.86 4.41-10.43 5.48-16.55.65-3.7.89-7.44.95-11.23-5.61 9.52-14.99 15.29-22.3 18.56-5.27 2.35-11.04 4.15-17.64 5.5-5.73 1.17-11.53 1.7-17.14 2.22l-2.52.23c-1.55.15-3.06.29-4.53.48l-.31.04c-.5.06-1 .13-1.49.21l-.13.03c-.35.07-.87.18-1.48.18-.95 0-1.8-.25-2.53-.73-.89-.6-1.92-1.77-1.75-3.99-.05-.71-.11-1.41-.17-2.12-.15-1.77-.33-3.35-.53-4.82-.2-1.45-.46-2.89-.74-4.41-.3-1.66-.62-3.37-.84-5.12-.45-3.53-.92-6.61-1.43-9.44-.62-3.41-1.3-6.74-1.88-9.55-.05-.26-.12-.52-.19-.78-.31-1.19-.73-2.82-.33-4.64.35-1.61 1.49-3.75 4.98-4.82 5.93-1.82 12.3-3.7 18.73-5.17 13-2.97 26.23-4.53 39.31-4.64h1c13.13-.03 26 1.41 38.26 4.29 6.29 1.48 12.6 3.39 18.76 5.69 4.95 1.85 11.43 4.41 17.63 7.86 10.54 5.86 18.23 14.37 21.65 23.96 2.74 7.67 2.34 14.16-1.16 19.28-1.66 2.43-3.99 4.63-7.11 6.73-.7.47-1.39.88-2.09 1.27 2.57 1.28 5.08 2.96 7.38 4.93 5.61 4.82 8.75 11.49 8.51 17.98z"/><path d="M454.22 371.14l-.2-.16c-.82-.72-1.66-1.39-2.52-2.04-.29-.32-.63-.61-.99-.84-.29-.28-.58-.55-.85-.79-.49-.45-.95-.86-1.29-1.27a17.43 17.43 0 01-2.09-3.11c-1.21-2.27-1.99-4.82-2.83-7.5l-.08-.27c-1.97-6.37-4.28-12.5-6.86-18.22-5.5-12.21-11.98-21.89-19.79-29.58-7.03-6.92-15.49-13.16-26.62-19.63-8.52-4.95-16.68-8.96-24.77-12.16.71-.49 1.42-.99 2.12-1.5a109.5 109.5 0 007.44-6c5.42-4.78 9.59-9.45 12.75-14.27 1.32-2.01 2.45-4.1 3.54-6.12.41-.76.82-1.52 1.25-2.28 1.42-2.54 2.69-5.34 4.01-8.82.96-2.53 1.93-5.33 3.07-8.82.36-1.09.66-2.18.95-3.23.49-1.78.96-3.46 1.63-4.99 2.24-5.1 5.12-9.15 8.54-12.06l.23-.2c1.01-.85 2.55-2.13 3.13-4.16.78-2.73-1.5-4.77-2.87-5.98-.1-.09-.18-.16-.23-.2-2.04-2.04-3.74-4.02-5.2-6.07-3.17-4.46-5.34-9.47-7.64-14.78l-.26-.61c-1.95-4.51-4.72-10.38-8.83-15.82-6.21-8.23-14.63-15.65-26.47-23.37-10.98-7.15-22.32-12.67-33.69-16.4-14.22-4.67-29.81-7.01-46.33-6.97-10.21.03-20.89.97-31.76 2.8-6.37 1.07-12.84 2.42-19.24 4.01-3.03.75-6.28 1.6-9.49 2.69-1.45.49-2.95 1.07-4.46 1.7-.43.18-.87.38-1.31.59-.89.42-1.74.81-2.52.93-.38 0-1.41-1.36-1.9-2.02-.35-.46-.69-.91-1.04-1.33-1.82-2.16-3.88-4.37-6.47-6.96-4.86-4.85-9.3-8.89-13.56-12.35-4.75-3.85-9.74-7.41-14.83-10.56-3.67-2.27-7.5-4.29-11.19-6.24-1.72-.91-3.45-1.82-5.16-2.75-1.03-.57-3.72-1.88-6.29-1.87-.79 0-1.53.12-2.2.36-1.07.38-3.49 1.72-2.81 6 .35 2.18 1.31 3.59 2.31 4.8 3.81 4.61 7.46 9.48 10.87 14.47 14.19 20.74 23.85 42.47 28.71 64.59 5.12 23.26 4.6 47.53-1.49 70.19-3.09 11.51-7.74 22.71-13.82 33.28-1.46 2.54-2.97 4.95-4.81 7.83l-.33.53c-.56.89-1.09 1.74-1.67 2.4-.14.16-.3.32-.46.49-.82.85-2.07 2.12-2.47 4.06-.62 2.96 1.32 5.11 2.04 5.92.78.87 1.55 1.86 2.43 3.11 1.92 2.75 3.72 5.5 5.24 7.83 5.7 8.77 10.33 17.79 13.78 26.81 2.86 7.47 5.74 16.14 6.26 25.01-4.59-.68-9.31-1.61-13.85-3.22-5.39-1.9-10.35-4.51-14.76-7.76-8.28-6.1-14.77-14.49-18.26-23.62-4.25-11.1-4.34-23.32-4.43-35.12-.11-14.42.69-27.04 2.42-38.58 2.13-14.12 5.32-24.12 10.36-32.43 1.67-2.76 3.23-4.83 4.9-6.5.96-.97 1.76-1.63 2.51-2.09.09-.05.21-.12.35-.19 1.28-.66 5.16-2.67 3.95-6.45-.65-2.04-2.43-3.16-3.61-3.9-.19-.12-.36-.22-.51-.33-1.02-.74-1.98-1.57-2.93-2.55-1.71-1.76-3.34-3.84-4.98-6.35-6.58-10.07-9.53-22.24-11.36-31.72-2.18-11.3-3.63-23.47-4.55-38.29-1.69-27.19 1.37-49.87 9.36-69.34 4.45-10.84 10.28-20.01 17.35-27.26 3.73-3.83 8.1-7.19 13.37-10.29 1.7-1 2.67-2.83 2.46-4.66-.2-1.74-1.42-3.18-3.2-3.74-1.22-.39-2.4-.43-3.3-.43-.4 0-.81.01-1.21.03-.31.01-.62.02-.91.02h-.15c-.81-.01-1.63-.02-2.44-.01-2.67.01-5.12.08-7.52.24-13.15.84-24.85 4.18-34.75 9.91-2.32 1.34-4.73 2.96-7.38 4.94-1.41 1.05-2.5 1.98-3.44 2.91-.55.54-.99 1.09-1.38 1.58-.09.12-.19.23-.28.34-.27-.25-.54-.52-.74-.72-.38-.38-.77-.77-1.19-1.12-2.39-2-4.95-3.85-7.61-5.5a66.105 66.105 0 00-17.44-7.61c-5.54-1.5-11.54-2.34-19.46-2.69-3.1-.14-5.96-.2-8.73-.2l-1.12.01c-1.12.01-2.24.03-3.36.05l-1.41.02h-.45c-.21 0-.42-.01-.63-.01-.89 0-2.07.07-3.25.59-1.47.65-2.41 1.94-2.51 3.45-.11 1.7.86 3.31 2.66 4.4.75.46 1.51.81 2.18 1.13.54.25 1.04.49 1.47.74 2.32 1.36 4.65 2.96 6.93 4.75 19.4 15.22 27.59 37.3 31.05 53.15 2.16 9.89 3.29 20.99 3.56 34.92.26 13.4-.23 26.38-1.46 38.58-.66 6.61-1.58 12.98-2.74 18.94-.97 5-2.37 11.54-4.65 17.79-1.89 5.17-4.47 9.33-7.66 12.36-1.03.98-2 1.78-2.96 2.47-.27.19-.63.4-1.02.63-.91.53-2.05 1.19-3 2.2-1.01 1.07-1.45 2.43-1.24 3.82.39 2.62 2.91 4.05 4.11 4.73l.1.06c3.06 1.75 5.78 4.77 8.54 9.51 2.61 4.48 4.89 9.64 6.76 15.34 4.08 12.43 5.82 25.65 6.88 35.78 1.38 13.21 1.91 26.23 1.56 38.7-.38 13.57-2.16 25.42-5.45 36.23-3.75 12.34-9.19 22.1-16.16 29.01-3.7 3.67-8.23 6.87-13.46 9.51-1.16.59-2.41 1.18-3.62 1.71l-.22.08c-1.64.59-4.11 1.48-4.75 3.82-.34 1.23-.06 2.5.76 3.49 1.29 1.55 3.15 1.61 3.85 1.64h.13c.83.05 1.66.09 2.49.11 1.68.03 3.35 0 5.3-.1 5.84-.29 12.73-.76 19.57-2.02 6.42-1.19 12.58-3.26 18.3-6.16 5.52-2.8 10.81-6.38 15.73-10.66.32-.27.64-.6.97-.93.05-.05.1-.11.16-.16 0 0 .01.01.02.01.29.23.57.45.82.62 1.94 1.33 3.99 2.36 5.97 3.35.81.41 1.61.81 2.4 1.23 10.15 5.43 22.35 11.47 35.87 15.15 6.59 1.79 13.2 3.12 18.8 4.2 1.5.29 3 .57 4.5.85l.7.13.85.15c0 .18.01.36.01.54.03 1.5.05 3 .08 4.51l.01.4c.05 3.27-.17 6.01-.68 8.63-.54 2.78-1.27 5.76-2.22 9.13-1.79 6.33-3.7 12.05-5.84 17.49-4.22 10.71-9.68 21.39-16.7 32.65-2.92 4.69-6.31 9.71-10.68 15.8-.3.42-.6.83-.9 1.24-.47.64-.94 1.28-1.4 1.93-1.36 1.95-1.37 3.6-1.14 4.64.29 1.3 1.11 2.4 2.32 3.1.85.49 1.79.74 2.8.74 2.02-.01 3.71-1.03 4.95-1.78.26-.16.51-.31.73-.42 11.59-5.87 22.34-13.06 31.95-21.35 2.54-2.19 4.98-4.41 7.04-6.29l4.56-4.18c5.06 2.1 10.5 4.23 16.25 6.01 12.79 3.96 25.59 7.24 38.04 9.73 14.29 2.86 27.23 4.31 39.56 4.44 6.91.06 13.68-.29 19.94-1.07 6-.75 12.4-2.07 19.58-4.04 26.6-7.31 49.09-18.66 66.85-33.71 8.85-7.5 16.28-16.21 22.07-25.88 2.85-4.76 5.39-9.84 7.56-15.09 1.06-2.58 2.05-5.24 2.93-7.9.38-1.15.72-2.32 1.06-3.48.45-1.53.87-2.98 1.39-4.38 1.6-4.34 3.91-7.8 6.86-10.28.71-.6 1.5-1.19 2.35-1.77l.35-.23c1.18-.76 3.15-2.04 3.74-4.23.79-2.95-1.65-4.93-2.56-5.67zm-8.39 6.5c-3.9 3.28-6.91 7.72-8.93 13.22-.6 1.63-1.07 3.26-1.54 4.84-.32 1.08-.63 2.17-.99 3.24-.83 2.51-1.76 5.01-2.76 7.44-2.04 4.94-4.42 9.7-7.09 14.16-5.4 9.02-12.33 17.14-20.59 24.14-16.98 14.39-38.57 25.26-64.18 32.3-6.85 1.88-12.93 3.14-18.59 3.85-5.95.74-12.41 1.08-19 1.01-11.89-.12-24.4-1.52-38.26-4.3-12.22-2.45-24.78-5.66-37.34-9.55-6.1-1.89-11.9-4.23-17.27-6.47-.53-.22-1.09-.34-1.66-.33-1.92 0-3.1 1.27-3.6 1.81l-5.08 4.68c-2.02 1.85-4.42 4.03-6.89 6.16-8.24 7.11-17.36 13.37-27.16 18.64 3.58-5.07 6.49-9.42 9.06-13.54 7.25-11.63 12.9-22.68 17.27-33.79 2.23-5.65 4.21-11.59 6.06-18.14 1-3.55 1.77-6.72 2.35-9.69.61-3.11.87-6.31.81-10.08l-.01-.4c-.02-1.52-.04-3.03-.08-4.55-.02-.74-.03-1.48-.05-2.21.05-.52.18-2.08-.99-3.4-1.11-1.25-2.64-1.4-3.75-1.5-.09-.01-.18-.02-.25-.02-.53-.12-1.06-.21-1.6-.31l-.64-.12-4.47-.84c-5.47-1.05-11.92-2.35-18.28-4.07-12.85-3.49-24.6-9.32-34.4-14.56-.84-.45-1.7-.88-2.56-1.32-1.86-.93-3.61-1.81-5.17-2.88-.13-.09-.27-.2-.42-.32-1-.79-2.51-1.98-4.54-1.98-.63 0-1.25.12-1.83.36-1.38.57-2.35 1.55-3.13 2.34-.2.2-.39.4-.58.57-4.48 3.9-9.29 7.16-14.29 9.69-5.12 2.59-10.65 4.45-16.41 5.52-4.79.89-9.68 1.36-14.18 1.66 3.87-2.38 7.33-5.08 10.33-8.05 7.8-7.74 13.84-18.49 17.93-31.95 3.47-11.41 5.35-23.86 5.75-38.07.36-12.77-.18-26.11-1.59-39.63-1.1-10.47-2.9-24.17-7.19-37.23-2.02-6.17-4.5-11.78-7.37-16.69-2-3.42-5.15-8.2-10-11.38.17-.11.33-.22.5-.33a33.42 33.42 0 003.73-3.1c3.99-3.78 7.16-8.84 9.42-15.04 2.45-6.71 3.93-13.6 4.95-18.86 1.19-6.17 2.15-12.76 2.83-19.57 1.25-12.48 1.75-25.74 1.49-39.41-.28-14.4-1.46-25.93-3.71-36.28-3.7-16.97-12.53-40.66-33.56-57.17-1.17-.92-2.36-1.79-3.55-2.62 2.27.01 4.62.08 7.14.19 7.38.33 12.91 1.09 17.94 2.46a58.317 58.317 0 0115.58 6.8c2.38 1.48 4.67 3.13 6.81 4.92.23.19.47.44.73.7 1.29 1.29 3.24 3.24 5.93 3.23 1.33 0 2.59-.49 3.65-1.42.77-.66 1.34-1.38 1.85-2.01.3-.37.58-.73.84-.98.72-.71 1.56-1.41 2.72-2.29 2.43-1.82 4.61-3.29 6.69-4.49 8.96-5.19 19.62-8.21 31.69-8.98 1.85-.12 3.75-.19 5.77-.21a64.962 64.962 0 00-8.34 7.19c-7.69 7.89-14.02 17.82-18.81 29.49-8.39 20.47-11.62 44.17-9.87 72.43.94 15.13 2.42 27.58 4.66 39.18 1.95 10.11 5.12 23.13 12.37 34.23 1.89 2.89 3.79 5.3 5.81 7.39 1.1 1.14 2.23 2.13 3.42 3.03-1 .69-2 1.55-3.11 2.65-2.08 2.08-3.97 4.57-5.94 7.82-5.53 9.13-9.01 19.93-11.29 35.01-1.79 11.9-2.61 24.88-2.5 39.67.09 11.85.19 25.29 4.89 37.57 3.96 10.37 11.3 19.87 20.65 26.76 4.97 3.66 10.54 6.59 16.58 8.72 6.52 2.3 13.42 3.37 19.32 4.1l3.83.48.1-3.86c.29-11.44-3.27-22.4-6.79-31.61-3.62-9.48-8.49-18.94-14.45-28.12-1.55-2.38-3.39-5.19-5.37-8.02-1.04-1.5-1.98-2.7-2.95-3.78-.03-.03-.06-.07-.09-.1.11-.12.22-.23.32-.33.25-.25.49-.5.71-.76.95-1.08 1.68-2.25 2.33-3.29l.32-.5c1.88-2.96 3.43-5.43 4.96-8.09 6.38-11.1 11.27-22.86 14.52-34.95 6.38-23.74 6.92-49.16 1.56-73.51-5.06-23-15.08-45.56-29.77-67.04-3.01-4.4-6.21-8.72-9.54-12.86 1.25.67 2.51 1.34 3.77 2 3.59 1.89 7.3 3.85 10.77 6 4.84 3 9.59 6.38 14.1 10.04 4.07 3.31 8.34 7.19 13.03 11.87 2.45 2.44 4.37 4.51 6.06 6.51.27.32.54.68.81 1.03 1.45 1.91 3.63 4.81 7.51 4.8.39 0 .79-.03 1.19-.1 1.64-.26 3.03-.91 4.26-1.48.36-.17.71-.33 1.07-.48a61.36 61.36 0 014.01-1.53c2.97-1.01 6.04-1.81 8.92-2.52 6.23-1.54 12.52-2.86 18.72-3.9 10.49-1.77 20.79-2.68 30.62-2.7 15.77-.04 30.62 2.19 44.13 6.62 10.79 3.54 21.58 8.8 32.05 15.62 11.15 7.26 19 14.16 24.71 21.72 3.66 4.85 6.2 10.24 8 14.39l.26.61c2.34 5.4 4.76 10.99 8.36 16.05 1.69 2.37 3.63 4.65 5.96 6.97.06.05.13.12.21.2l-.06.05c-4.25 3.6-7.75 8.5-10.43 14.58-.88 1.99-1.43 4-1.97 5.94-.28 1.02-.55 1.99-.86 2.93-1.1 3.38-2.04 6.08-2.96 8.5-1.19 3.15-2.33 5.65-3.57 7.88-.44.78-.86 1.57-1.29 2.35-1.07 1.98-2.08 3.85-3.24 5.61-2.81 4.29-6.59 8.49-11.53 12.86-2.2 1.94-4.54 3.83-6.96 5.61-1.11.81-2.24 1.58-3.44 2.39-1.36.92-2.77 1.87-4.13 2.9l-5.25 3.96 6.22 2.14c9.76 3.37 19.54 7.93 29.9 13.95 10.62 6.17 18.63 12.07 25.23 18.57 7.18 7.08 13.18 16.06 18.32 27.47 2.46 5.46 4.66 11.32 6.55 17.41l.08.26c.89 2.88 1.81 5.86 3.33 8.72.83 1.57 1.82 3.03 2.92 4.34.64.76 1.32 1.38 1.92 1.93.4.36.77.7 1.08 1.03l.21.23.25.19c.02.01.03.03.05.04.73.55 1.41 1.06 2.05 1.58-.99.75-1.91 1.45-2.76 2.16zm2.75-6.52c-.81-.87 1.44 1.08 0 0h0zM227.33 159.79c-.71 1.17-.1 4.01.05 4.65 1.21 3.17 2.25 6.53 3.24 9.8.29.96.58 1.91.88 2.86 1.64 5.27 2.82 9.67 3.72 13.83 5.27 24.37 5.32 50.12.14 74.48l-.76 3.56 3.58.62c8.55 1.48 17.32 1.82 24.77 1.95 1.6.03 3.19.04 4.79.04 7.16-.02 13.71-.38 20.04-1.09 13.64-1.55 26.06-4.8 36.91-9.68 5.88-2.64 11.42-5.81 16.46-9.41 4.23-3.02 9.5-6.78 12.89-12.3 3.57-5.8 4.35-12.86 2.11-18.9-1.93-5.2-5.98-9.87-11.69-13.51-1.79-1.14-3.7-2.16-5.72-3.04.58-.41 1.15-.84 1.69-1.28 2.55-2.09 4.71-4.48 6.42-7.11 3.75-5.76 5.13-12.62 3.79-18.82-.75-3.46-2.22-6.64-4.26-9.2-2.22-2.79-5.09-4.74-7.35-6.13-9.54-5.88-20.93-9.79-34.82-11.98-13.02-2.05-26.55-2.31-39.75-.76-6.69.78-13.25 2.04-19.5 3.75-2.63.72-6.07 1.71-9.47 3.08-.7.28-1.4.58-2.1.87-.84.36-1.68.71-2.54 1.05l-.18.07c-.54.2-1.32.52-2.09 1.14-.38.32-.86.82-1.25 1.46zm8.8 2.71c.66-.28 1.32-.56 1.99-.83 3.06-1.23 6.25-2.16 8.7-2.82 5.92-1.61 12.14-2.81 18.48-3.55 12.57-1.47 25.45-1.22 37.84.73 12.95 2.04 23.5 5.64 32.23 11.02 1.77 1.09 4 2.59 5.54 4.53 1.37 1.73 2.37 3.91 2.9 6.33.95 4.39-.07 9.32-2.81 13.52-1.32 2.03-3 3.88-4.99 5.51-.91.74-1.89 1.42-2.91 2.01-.31.18-.65.34-.99.51-.98.48-2.08 1.02-3.07 1.89-1.08.95-1.54 2.34-1.23 3.71.58 2.54 3.21 3.29 5.13 3.83l.25.07c2.72.96 5.25 2.18 7.51 3.62 3.08 1.96 7.13 5.3 8.9 10.05 1.5 4.03.94 8.81-1.51 12.79-2.46 4-6.27 6.89-11 10.27-4.67 3.33-9.81 6.27-15.27 8.72-10.19 4.58-21.91 7.64-34.83 9.11-6.08.69-12.38 1.03-19.28 1.05-1.55 0-3.1-.01-4.65-.04-6.43-.12-13.27-.37-20.14-1.3 4.64-24.24 4.34-49.67-.88-73.79l-3.88-14.43-.87-2.82c-.9-2.95-1.83-5.99-2.91-8.97.6-.24 1.18-.48 1.75-.72zm-5.84-.27c.04.11.05.12.04.11-.02-.03-.1-.23-.04-.11zm161.22 216.56c-2.3-1.98-4.81-3.66-7.38-4.93.7-.39 1.39-.8 2.09-1.27 3.12-2.1 5.44-4.3 7.11-6.73 3.5-5.12 3.89-11.6 1.16-19.28-3.42-9.59-11.1-18.09-21.65-23.96-6.2-3.44-12.68-6.01-17.63-7.86-6.16-2.3-12.47-4.21-18.76-5.69-12.25-2.88-25.12-4.32-38.26-4.29h-1c-13.09.11-26.31 1.67-39.31 4.64-6.43 1.47-12.8 3.35-18.73 5.17-3.49 1.07-4.63 3.21-4.98 4.82-.4 1.82.03 3.45.33 4.64.07.26.14.53.19.78.58 2.81 1.26 6.14 1.88 9.55.51 2.82.98 5.91 1.43 9.44.22 1.75.54 3.47.84 5.12.28 1.52.54 2.96.74 4.41.2 1.48.37 3.05.53 4.82.06.71.12 1.41.17 2.12-.17 2.22.85 3.39 1.75 3.99.73.49 1.58.74 2.53.73.61 0 1.14-.11 1.48-.18l.13-.03c.49-.08.99-.15 1.49-.21l.31-.04c1.47-.19 2.98-.34 4.53-.48l2.52-.23c5.61-.51 11.41-1.04 17.14-2.22 6.6-1.35 12.37-3.15 17.64-5.5 7.31-3.26 16.7-9.04 22.3-18.56-.06 3.79-.31 7.53-.95 11.23-1.07 6.12-2.91 11.69-5.48 16.55a36.77 36.77 0 01-2.29 3.8c-.2.3-.43.59-.65.89-.73.97-1.56 2.06-2.12 3.45-1.67 4.18 1.43 7.27 3.09 8.93.4.4.78.78 1 1.06 3.09 3.9 5.37 8.99 6.79 15.12 1.32 5.72 1.44 11.63 1.51 17.36-.87-1.4-1.86-2.75-2.98-4.05-8.53-9.87-21-14.57-29.97-16.77-7.21-1.77-14.98-2.55-25.19-2.52-4.11.01-8.15.15-12.27.3-1.27.05-4.26.62-4.64 4.97-.01.13-.02.27-.04.4-.16.87-.37 1.76-.59 2.69-.11.48-.23.96-.33 1.44-.55 2.5-1.3 5.78-2.19 9-1.45 5.31-3.52 10.84-6.49 17.43l-1.61 3.56 3.72 1.21c2.91.95 5.88 1.83 8.74 2.69 2.28.68 4.57 1.36 6.84 2.08 5.86 1.84 11.08 3.28 15.96 4.39 14.25 3.24 27.13 4.83 39.38 4.86h.7c12.42-.03 25.28-1.78 38.22-5.18 6.55-1.72 12.7-3.83 18.26-6.26 2.22-.97 4.37-2.06 6.45-3.11.77-.39 1.55-.78 2.32-1.16 2.78-1.38 5.75-2.89 8.61-4.58 6.39-3.79 11.18-7.39 15.09-11.34 2.23-2.25 3.82-4.85 5.35-7.37l.42-.69c1.66-2.71 2.73-5.92 3.1-9.24.13-.57.21-1.25.16-1.93.26-6.46-2.88-13.13-8.51-17.98zm4.94 19.15c.32-2.69-.13 1.41 0 0h0zm-3.43-.79c-.02.14-.03.28-.04.42v.02s0 0 0 0v.03c-.23 2.47-.97 4.79-2.14 6.7l-.43.71c-1.38 2.27-2.69 4.41-4.34 6.08-3.48 3.51-7.83 6.77-13.69 10.25-2.66 1.58-5.48 3.01-8.14 4.33-.79.39-1.58.79-2.37 1.19-2.09 1.05-4.06 2.05-6.1 2.94-5.24 2.29-11.04 4.27-17.24 5.91-12.36 3.25-24.63 4.92-36.45 4.95h-.67c-11.73-.03-24.11-1.57-37.84-4.69-4.7-1.07-9.74-2.46-15.41-4.24-2.31-.73-4.63-1.42-6.94-2.11-1.61-.48-3.25-.97-4.89-1.47 2.3-5.4 4-10.2 5.28-14.86.92-3.37 1.7-6.76 2.27-9.33.1-.45.21-.9.31-1.36.21-.89.42-1.8.6-2.74 3.4-.12 6.76-.21 10.14-.22 9.62-.02 16.87.69 23.5 2.32 7.97 1.96 19.02 6.07 26.34 14.54 1.51 1.75 2.73 3.61 3.61 5.54l.18.39c.79 1.78 2.44 5.47 6.17 5.77.15.01.29.02.43.02.83 0 4.97-.33 5.09-6.51.02-1.1-.04-2.16-.1-3.17-.04-.68-.08-1.36-.09-2.04-.08-6-.17-12.8-1.7-19.45-1.65-7.15-4.38-13.17-8.12-17.89-.48-.6-1.02-1.15-1.55-1.67-.45-.45-1.17-1.17-1.43-1.59.24-.47.66-1.02 1.1-1.6.29-.38.57-.76.83-1.14a42.6 42.6 0 002.72-4.52c2.9-5.51 4.98-11.77 6.18-18.61 1.16-6.63 1.14-13.13 1.02-19.75-.01-.3-.01-.61 0-.92 0-1.21 0-2.59-.31-4.02-.51-2.3-2.39-4.62-5-4.61-1.3 0-2.52.59-3.45 1.66-1.28 1.48-1.42 3.27-1.5 4.34-.01.19-.03.38-.05.55-.17 1.11-.52 2.3-1.04 3.53-3.28 7.71-10.65 14.44-20.76 18.96-4.8 2.14-10.09 3.79-16.19 5.04-5.35 1.09-10.71 1.58-16.38 2.1l-2.54.23c-1.61.15-3.18.31-4.76.51v-.05c-.17-1.88-.35-3.57-.56-5.15-.22-1.62-.51-3.2-.79-4.74-.3-1.64-.59-3.18-.78-4.74-.46-3.65-.95-6.86-1.49-9.8-.63-3.48-1.32-6.87-1.91-9.72-.08-.37-.17-.74-.27-1.12-.08-.29-.17-.67-.23-.97.05-.02.1-.03.15-.05 5.8-1.78 12.02-3.61 18.24-5.04 12.51-2.86 25.23-4.36 37.81-4.46h.96c12.59-.03 24.92 1.35 36.64 4.1 6 1.41 12.03 3.24 17.91 5.43 4.72 1.76 10.88 4.2 16.67 7.42 9.06 5.04 15.61 12.21 18.46 20.19 1.97 5.52 1.85 9.76-.34 12.97-1.15 1.68-2.87 3.28-5.24 4.88-1.08.73-2.27 1.34-3.53 1.99-.84.43-1.68.86-2.56 1.36-.72.41-2.39 1.35-2.91 3.24-.28 1.04-.14 2.13.4 3.06.96 1.67 2.67 2.1 3.49 2.31l.43.11c.63.16 1.17.3 1.63.49 2.63 1.05 5.28 2.69 7.67 4.75 4.17 3.59 6.44 8.46 6.04 13.02z" fill="#ffc82c" stroke="#ffc92c" stroke-width="2" stroke-miterlimit="10"/></svg>