<?xml version="1.0" encoding="utf-8"?>
<!-- Generator: Adobe Illustrator 24.1.2, SVG Export Plug-In . SVG Version: 6.00 Build 0)  -->
<svg version="1.1" id="Layer_1" xmlns="http://www.w3.org/2000/svg" xmlns:xlink="http://www.w3.org/1999/xlink" x="0px" y="0px"
	 viewBox="0 0 506 506.67" style="enable-background:new 0 0 506 506.67;" xml:space="preserve">
<style type="text/css">
	.st0{fill:#FFC82C;stroke:#FFC92C;stroke-width:2;stroke-miterlimit:10;}
</style>
<path d="M446.52,373.97c-0.02-0.01-0.04-0.03-0.05-0.04l-0.25-0.19l-0.21-0.23c-0.31-0.33-0.68-0.67-1.08-1.03
	c-0.6-0.55-1.29-1.17-1.92-1.93c-1.11-1.31-2.09-2.77-2.92-4.34c-1.52-2.86-2.44-5.84-3.33-8.72l-0.08-0.26
	c-1.89-6.1-4.09-11.96-6.55-17.41c-5.14-11.41-11.14-20.4-18.32-27.47c-6.6-6.5-14.61-12.4-25.23-18.57
	c-10.36-6.02-20.14-10.58-29.9-13.95l-6.22-2.14l5.25-3.96c1.37-1.03,2.77-1.98,4.13-2.9c1.2-0.81,2.33-1.58,3.44-2.39
	c2.42-1.78,4.76-3.67,6.96-5.61c4.95-4.36,8.72-8.57,11.53-12.86c1.16-1.76,2.17-3.63,3.24-5.61c0.43-0.79,0.85-1.57,1.29-2.35
	c1.25-2.23,2.38-4.74,3.57-7.88c0.92-2.43,1.86-5.13,2.96-8.5c0.31-0.94,0.57-1.91,0.86-2.93c0.54-1.94,1.09-3.95,1.97-5.94
	c2.67-6.08,6.18-10.98,10.43-14.58l0.06-0.05c-0.08-0.08-0.16-0.15-0.21-0.2c-2.32-2.32-4.27-4.6-5.96-6.97
	c-3.59-5.06-6.01-10.65-8.36-16.05l-0.26-0.61c-1.8-4.15-4.33-9.54-8-14.39c-5.71-7.56-13.56-14.46-24.71-21.72
	c-10.48-6.82-21.26-12.07-32.05-15.62c-13.51-4.44-28.36-6.66-44.13-6.62c-9.83,0.02-20.13,0.93-30.62,2.7
	c-6.19,1.04-12.49,2.36-18.72,3.9c-2.88,0.71-5.95,1.51-8.92,2.52c-1.3,0.44-2.65,0.96-4.01,1.53c-0.35,0.15-0.71,0.32-1.07,0.48
	c-1.23,0.57-2.62,1.22-4.26,1.48c-0.4,0.06-0.8,0.1-1.19,0.1c-3.87,0.01-6.06-2.88-7.51-4.8c-0.27-0.36-0.54-0.71-0.81-1.03
	c-1.69-2-3.62-4.07-6.06-6.51c-4.69-4.68-8.96-8.56-13.03-11.87c-4.52-3.67-9.26-7.05-14.1-10.04c-3.47-2.15-7.18-4.11-10.77-6
	c-1.26-0.66-2.51-1.33-3.77-2c3.32,4.14,6.52,8.45,9.54,12.86c14.69,21.48,24.71,44.03,29.77,67.04
	c5.36,24.35,4.82,49.77-1.56,73.51c-3.25,12.09-8.13,23.85-14.52,34.95c-1.53,2.66-3.09,5.13-4.96,8.09l-0.32,0.5
	c-0.65,1.03-1.39,2.21-2.33,3.29c-0.22,0.25-0.46,0.5-0.71,0.76c-0.09,0.1-0.21,0.22-0.32,0.33c0.03,0.03,0.06,0.06,0.09,0.09
	c0.97,1.09,1.91,2.29,2.95,3.78c1.97,2.83,3.82,5.64,5.37,8.02c5.96,9.18,10.83,18.64,14.45,28.12c3.52,9.21,7.08,20.17,6.79,31.61
	l-0.1,3.86l-3.83-0.48c-5.89-0.74-12.8-1.8-19.32-4.1c-6.04-2.13-11.61-5.07-16.58-8.72c-9.35-6.89-16.68-16.39-20.65-26.76
	c-4.7-12.29-4.8-25.72-4.89-37.57c-0.11-14.79,0.71-27.77,2.5-39.67c2.27-15.08,5.76-25.88,11.29-35.01
	c1.97-3.25,3.86-5.74,5.94-7.82c1.1-1.11,2.11-1.96,3.11-2.65c-1.19-0.9-2.32-1.89-3.42-3.03c-2.02-2.09-3.92-4.5-5.81-7.39
	c-7.25-11.09-10.42-24.12-12.37-34.23c-2.24-11.6-3.72-24.05-4.66-39.18c-1.76-28.27,1.47-51.96,9.87-72.43
	c4.79-11.67,11.12-21.6,18.81-29.49c2.51-2.58,5.27-4.96,8.34-7.19c-2.02,0.02-3.92,0.1-5.77,0.21
	c-12.07,0.77-22.73,3.79-31.69,8.98c-2.08,1.2-4.26,2.67-6.69,4.49c-1.16,0.87-2,1.58-2.72,2.29c-0.26,0.25-0.54,0.61-0.84,0.98
	c-0.51,0.63-1.08,1.35-1.85,2.01c-1.06,0.92-2.33,1.41-3.65,1.42c-2.69,0.01-4.64-1.94-5.93-3.23c-0.26-0.26-0.5-0.51-0.73-0.7
	c-2.14-1.79-4.43-3.45-6.81-4.92c-4.87-3.03-10.11-5.31-15.58-6.8c-5.02-1.36-10.56-2.12-17.94-2.46c-2.52-0.11-4.87-0.18-7.14-0.19
	c1.19,0.83,2.38,1.7,3.55,2.62c21.03,16.51,29.86,40.2,33.56,57.17c2.26,10.35,3.44,21.88,3.71,36.28
	c0.26,13.67-0.24,26.93-1.49,39.41c-0.68,6.82-1.64,13.4-2.83,19.57c-1.02,5.26-2.5,12.15-4.95,18.86
	c-2.26,6.2-5.43,11.26-9.42,15.04c-1.28,1.21-2.5,2.22-3.73,3.1c-0.17,0.12-0.33,0.23-0.5,0.33c4.85,3.17,8,7.96,10,11.38
	c2.86,4.91,5.34,10.52,7.37,16.69c4.29,13.06,6.09,26.76,7.19,37.23c1.41,13.52,1.95,26.85,1.59,39.63
	c-0.4,14.2-2.28,26.66-5.75,38.07c-4.09,13.46-10.12,24.21-17.93,31.95c-3,2.97-6.46,5.67-10.33,8.05c4.5-0.3,9.38-0.77,14.18-1.66
	c5.76-1.07,11.29-2.93,16.41-5.52c5.01-2.53,9.82-5.79,14.3-9.69c0.19-0.17,0.38-0.36,0.58-0.57c0.78-0.79,1.75-1.77,3.13-2.34
	c0.58-0.24,1.2-0.36,1.83-0.36c2.03,0,3.54,1.19,4.54,1.98c0.15,0.12,0.29,0.24,0.42,0.32c1.56,1.06,3.31,1.95,5.17,2.88
	c0.86,0.43,1.72,0.87,2.56,1.32c9.8,5.24,21.56,11.07,34.4,14.56c6.36,1.73,12.81,3.03,18.28,4.07c1.49,0.28,2.98,0.56,4.47,0.84
	l0.64,0.12c0.53,0.09,1.07,0.19,1.6,0.31c0.07,0.01,0.16,0.02,0.25,0.02c1.12,0.1,2.64,0.25,3.75,1.5c1.17,1.32,1.03,2.89,0.98,3.4
	c0.02,0.73,0.04,1.47,0.05,2.21c0.03,1.52,0.05,3.03,0.08,4.55l0.01,0.4c0.06,3.77-0.2,6.97-0.81,10.08
	c-0.58,2.97-1.35,6.14-2.35,9.69c-1.85,6.55-3.84,12.49-6.06,18.14c-4.38,11.11-10.03,22.17-17.27,33.79
	c-2.57,4.12-5.48,8.47-9.05,13.54c9.8-5.27,18.92-11.53,27.16-18.64c2.47-2.13,4.87-4.31,6.89-6.16l5.08-4.68
	c0.5-0.54,1.68-1.81,3.6-1.81c0.57,0,1.12,0.11,1.66,0.33c5.36,2.24,11.17,4.58,17.27,6.47c12.56,3.89,25.12,7.11,37.34,9.55
	c13.86,2.78,26.37,4.18,38.26,4.3c6.59,0.07,13.05-0.27,19-1.01c5.66-0.7,11.74-1.96,18.59-3.85c25.61-7.04,47.2-17.91,64.18-32.3
	c8.26-7,15.19-15.12,20.59-24.14c2.67-4.46,5.06-9.23,7.09-14.16c1-2.43,1.93-4.93,2.76-7.44c0.36-1.07,0.67-2.16,0.99-3.24
	c0.46-1.58,0.94-3.21,1.54-4.84c2.03-5.5,5.03-9.94,8.93-13.22c0.85-0.71,1.77-1.42,2.76-2.09
	C447.94,375.03,447.25,374.52,446.52,373.97z M230.67,157.17l0.18-0.07c0.85-0.33,1.7-0.69,2.54-1.05c0.7-0.29,1.4-0.59,2.1-0.87
	c3.4-1.37,6.85-2.37,9.47-3.08c6.26-1.71,12.82-2.97,19.5-3.75c13.19-1.55,26.73-1.29,39.75,0.76c13.89,2.18,25.28,6.1,34.82,11.98
	c2.26,1.39,5.13,3.34,7.35,6.13c2.04,2.56,3.51,5.74,4.26,9.2c1.34,6.2-0.03,13.07-3.79,18.82c-1.71,2.63-3.88,5.02-6.42,7.11
	c-0.55,0.45-1.11,0.88-1.69,1.28c2.02,0.89,3.93,1.9,5.72,3.04c5.72,3.64,9.76,8.31,11.69,13.51c2.25,6.04,1.46,13.1-2.11,18.9
	c-3.4,5.52-8.66,9.28-12.89,12.3c-5.04,3.6-10.59,6.76-16.46,9.41c-10.85,4.88-23.27,8.13-36.91,9.68
	c-6.33,0.72-12.89,1.07-20.05,1.09c-1.6,0-3.19-0.01-4.79-0.04c-7.45-0.14-16.22-0.47-24.77-1.95l-3.58-0.62l0.76-3.56
	c5.18-24.36,5.14-50.11-0.14-74.48c-0.9-4.16-2.08-8.56-3.72-13.83l-0.88-2.86c-0.98-3.23-2.01-6.54-3.2-9.68
	c-0.04-0.16-0.86-3.48-0.08-4.76c0.46-0.77,1.06-1.32,1.49-1.67C229.5,157.62,230.19,157.35,230.67,157.17z M400.03,396.8
	c0.05,0.68-0.03,1.36-0.16,1.93c-0.36,3.32-1.43,6.53-3.1,9.24l-0.42,0.69c-1.53,2.51-3.12,5.12-5.35,7.37
	c-3.91,3.94-8.7,7.54-15.09,11.34c-2.86,1.7-5.83,3.21-8.61,4.58c-0.78,0.38-1.55,0.77-2.32,1.16c-2.08,1.05-4.23,2.14-6.45,3.11
	c-5.57,2.43-11.71,4.54-18.26,6.26c-12.94,3.4-25.79,5.15-38.22,5.18h-0.7c-12.25-0.03-25.13-1.63-39.38-4.86
	c-4.88-1.11-10.11-2.55-15.96-4.39c-2.27-0.72-4.56-1.4-6.84-2.08c-2.87-0.86-5.83-1.74-8.74-2.69l-3.72-1.21l1.61-3.56
	c2.97-6.59,5.03-12.12,6.49-17.43c0.88-3.23,1.63-6.51,2.19-9c0.11-0.48,0.22-0.96,0.33-1.44c0.22-0.93,0.43-1.82,0.59-2.69
	c0.02-0.13,0.03-0.27,0.04-0.4c0.38-4.35,3.37-4.93,4.64-4.97c4.12-0.15,8.16-0.29,12.27-0.3c10.21-0.03,17.98,0.75,25.19,2.52
	c8.96,2.2,21.44,6.89,29.97,16.77c1.12,1.3,2.12,2.65,2.98,4.05c-0.08-5.73-0.2-11.64-1.51-17.36c-1.41-6.13-3.7-11.21-6.79-15.12
	c-0.22-0.28-0.6-0.66-1-1.06c-1.66-1.66-4.76-4.74-3.09-8.93c0.55-1.39,1.38-2.48,2.12-3.45c0.22-0.3,0.45-0.59,0.65-0.89
	c0.81-1.18,1.58-2.46,2.29-3.8c2.56-4.86,4.41-10.43,5.48-16.55c0.65-3.7,0.89-7.44,0.95-11.23c-5.61,9.52-14.99,15.29-22.3,18.56
	c-5.27,2.35-11.04,4.15-17.64,5.5c-5.73,1.17-11.53,1.7-17.14,2.22l-2.52,0.23c-1.55,0.15-3.06,0.29-4.53,0.48l-0.31,0.04
	c-0.5,0.06-1,0.13-1.49,0.21l-0.13,0.03c-0.35,0.07-0.87,0.18-1.48,0.18c-0.95,0-1.8-0.25-2.53-0.73c-0.89-0.6-1.92-1.77-1.75-3.99
	c-0.05-0.71-0.11-1.41-0.17-2.12c-0.15-1.77-0.33-3.35-0.53-4.82c-0.2-1.45-0.46-2.89-0.74-4.41c-0.3-1.66-0.62-3.37-0.84-5.12
	c-0.45-3.53-0.92-6.61-1.43-9.44c-0.62-3.41-1.3-6.74-1.88-9.55c-0.05-0.26-0.12-0.52-0.19-0.78c-0.31-1.19-0.73-2.82-0.33-4.64
	c0.35-1.61,1.49-3.75,4.98-4.82c5.93-1.82,12.3-3.7,18.73-5.17c13-2.97,26.23-4.53,39.31-4.64l1,0c13.13-0.03,26,1.41,38.26,4.29
	c6.29,1.48,12.6,3.39,18.76,5.69c4.95,1.85,11.43,4.41,17.63,7.86c10.54,5.86,18.23,14.37,21.65,23.96
	c2.74,7.67,2.34,14.16-1.16,19.28c-1.66,2.43-3.99,4.63-7.11,6.73c-0.7,0.47-1.39,0.88-2.09,1.27c2.57,1.28,5.08,2.96,7.38,4.93
	C397.13,383.64,400.27,390.31,400.03,396.8z"/>
<path class="st0" d="M454.22,371.14l-0.2-0.16c-0.82-0.72-1.66-1.39-2.52-2.04c-0.29-0.32-0.63-0.61-0.99-0.84
	c-0.29-0.28-0.58-0.55-0.85-0.79c-0.49-0.45-0.95-0.86-1.29-1.27c-0.79-0.93-1.49-1.98-2.09-3.11c-1.21-2.27-1.99-4.82-2.83-7.5
	l-0.08-0.27c-1.97-6.37-4.28-12.5-6.86-18.22c-5.5-12.21-11.98-21.89-19.79-29.58c-7.03-6.92-15.49-13.16-26.62-19.63
	c-8.52-4.95-16.68-8.96-24.77-12.16c0.71-0.49,1.42-0.99,2.12-1.5c2.58-1.9,5.08-3.92,7.44-6c5.42-4.78,9.59-9.45,12.75-14.27
	c1.32-2.01,2.45-4.1,3.54-6.12c0.41-0.76,0.82-1.52,1.25-2.28c1.42-2.54,2.69-5.34,4.01-8.82c0.96-2.53,1.93-5.33,3.07-8.82
	c0.36-1.09,0.66-2.18,0.95-3.23c0.49-1.78,0.96-3.46,1.63-4.99c2.24-5.1,5.12-9.15,8.54-12.06l0.23-0.2
	c1.01-0.85,2.55-2.13,3.13-4.16c0.78-2.73-1.5-4.77-2.87-5.98c-0.1-0.09-0.18-0.16-0.23-0.2c-2.04-2.04-3.74-4.02-5.2-6.07
	c-3.17-4.46-5.34-9.47-7.64-14.78l-0.26-0.61c-1.95-4.51-4.72-10.38-8.83-15.82c-6.21-8.23-14.63-15.65-26.47-23.37
	c-10.98-7.15-22.32-12.67-33.69-16.4c-14.22-4.67-29.81-7.01-46.33-6.97c-10.21,0.03-20.89,0.97-31.76,2.8
	c-6.37,1.07-12.84,2.42-19.24,4.01c-3.03,0.75-6.28,1.6-9.49,2.69c-1.45,0.49-2.95,1.07-4.46,1.7c-0.43,0.18-0.87,0.38-1.31,0.59
	c-0.89,0.42-1.74,0.81-2.52,0.93c-0.38,0-1.41-1.36-1.9-2.02c-0.35-0.46-0.69-0.91-1.04-1.33c-1.82-2.16-3.88-4.37-6.47-6.96
	c-4.86-4.85-9.3-8.89-13.56-12.35c-4.75-3.85-9.74-7.41-14.83-10.56c-3.67-2.27-7.5-4.29-11.19-6.24c-1.72-0.91-3.45-1.82-5.16-2.75
	c-1.03-0.57-3.72-1.88-6.29-1.87c-0.79,0-1.53,0.12-2.2,0.36c-1.07,0.38-3.49,1.72-2.81,6c0.35,2.18,1.31,3.59,2.31,4.8
	c3.81,4.61,7.46,9.48,10.87,14.47c14.19,20.74,23.85,42.47,28.71,64.59c5.12,23.26,4.6,47.53-1.49,70.19
	c-3.09,11.51-7.74,22.71-13.82,33.28c-1.46,2.54-2.97,4.95-4.81,7.83l-0.33,0.53c-0.56,0.89-1.09,1.74-1.67,2.4
	c-0.14,0.16-0.3,0.32-0.46,0.49c-0.82,0.85-2.07,2.12-2.47,4.06c-0.62,2.96,1.32,5.11,2.04,5.92c0.78,0.87,1.55,1.86,2.43,3.11
	c1.92,2.75,3.72,5.5,5.24,7.83c5.7,8.77,10.33,17.79,13.78,26.81c2.86,7.47,5.74,16.14,6.26,25.01c-4.59-0.68-9.31-1.61-13.85-3.22
	c-5.39-1.9-10.35-4.51-14.76-7.76c-8.28-6.1-14.77-14.49-18.26-23.62c-4.25-11.1-4.34-23.32-4.43-35.12
	c-0.11-14.42,0.69-27.04,2.42-38.58c2.13-14.12,5.32-24.12,10.36-32.43c1.67-2.76,3.23-4.83,4.9-6.5c0.96-0.97,1.76-1.63,2.51-2.09
	c0.09-0.05,0.21-0.12,0.35-0.19c1.28-0.66,5.16-2.67,3.95-6.45c-0.65-2.04-2.43-3.16-3.61-3.9c-0.19-0.12-0.36-0.22-0.51-0.33
	c-1.02-0.74-1.98-1.57-2.93-2.55c-1.71-1.76-3.34-3.84-4.98-6.35c-6.58-10.07-9.53-22.24-11.36-31.72
	c-2.18-11.3-3.63-23.47-4.55-38.29c-1.69-27.19,1.37-49.87,9.36-69.34c4.45-10.84,10.28-20.01,17.35-27.26
	c3.73-3.83,8.1-7.19,13.37-10.29c1.7-1,2.67-2.83,2.46-4.66c-0.2-1.74-1.42-3.18-3.2-3.74c-1.22-0.39-2.4-0.43-3.3-0.43
	c-0.4,0-0.81,0.01-1.21,0.03c-0.31,0.01-0.62,0.02-0.91,0.02l-0.15,0c-0.81-0.01-1.63-0.02-2.44-0.01
	c-2.67,0.01-5.12,0.08-7.52,0.24c-13.15,0.84-24.85,4.18-34.75,9.91c-2.32,1.34-4.73,2.96-7.38,4.94c-1.41,1.05-2.5,1.98-3.44,2.91
	c-0.55,0.54-0.99,1.09-1.38,1.58c-0.09,0.12-0.19,0.23-0.28,0.34c-0.27-0.25-0.54-0.52-0.74-0.72c-0.38-0.38-0.77-0.77-1.19-1.12
	c-2.39-2-4.95-3.85-7.61-5.5c-5.45-3.38-11.32-5.94-17.44-7.61c-5.54-1.5-11.54-2.34-19.46-2.69c-3.1-0.14-5.96-0.2-8.73-0.2
	l-1.12,0.01c-1.12,0.01-2.24,0.03-3.36,0.05L55.6,6.62l-0.45,0c-0.21,0-0.42-0.01-0.63-0.01c-0.89,0-2.07,0.07-3.25,0.59
	c-1.47,0.65-2.41,1.94-2.51,3.45c-0.11,1.7,0.86,3.31,2.66,4.4c0.75,0.46,1.51,0.81,2.18,1.13c0.54,0.25,1.04,0.49,1.47,0.74
	c2.32,1.36,4.65,2.96,6.93,4.75C81.4,36.89,89.59,58.97,93.05,74.82c2.16,9.89,3.29,20.99,3.56,34.92
	c0.26,13.4-0.23,26.38-1.46,38.58c-0.66,6.61-1.58,12.98-2.74,18.94c-0.97,5-2.37,11.54-4.65,17.79c-1.89,5.17-4.47,9.33-7.66,12.36
	c-1.03,0.98-2,1.78-2.96,2.47c-0.27,0.19-0.63,0.4-1.02,0.63c-0.91,0.53-2.05,1.19-3,2.2c-1.01,1.07-1.45,2.43-1.24,3.82
	c0.39,2.62,2.91,4.05,4.11,4.73l0.1,0.06c3.06,1.75,5.78,4.77,8.54,9.51c2.61,4.48,4.89,9.64,6.76,15.34
	c4.08,12.43,5.82,25.65,6.88,35.78c1.38,13.21,1.91,26.23,1.56,38.7c-0.38,13.57-2.16,25.42-5.45,36.23
	c-3.75,12.34-9.19,22.1-16.16,29.01c-3.7,3.67-8.23,6.87-13.46,9.51c-1.16,0.59-2.41,1.18-3.62,1.71l-0.22,0.08
	c-1.64,0.59-4.11,1.48-4.75,3.82c-0.34,1.23-0.06,2.5,0.76,3.49c1.29,1.55,3.15,1.61,3.85,1.64l0.13,0
	c0.83,0.05,1.66,0.09,2.49,0.11c1.68,0.03,3.35,0,5.3-0.1c5.84-0.29,12.73-0.76,19.57-2.02c6.42-1.19,12.58-3.26,18.3-6.16
	c5.52-2.8,10.81-6.38,15.73-10.66c0.32-0.27,0.64-0.6,0.97-0.93c0.05-0.05,0.1-0.11,0.16-0.16c0,0,0.01,0.01,0.02,0.01
	c0.29,0.23,0.57,0.45,0.82,0.62c1.94,1.33,3.99,2.36,5.97,3.35c0.81,0.41,1.61,0.81,2.4,1.23c10.15,5.43,22.35,11.47,35.87,15.15
	c6.59,1.79,13.2,3.12,18.8,4.2c1.5,0.29,3,0.57,4.5,0.85l0.7,0.13c0.28,0.05,0.57,0.1,0.85,0.15c0,0.18,0.01,0.36,0.01,0.54
	c0.03,1.5,0.05,3,0.08,4.51l0.01,0.4c0.05,3.27-0.17,6.01-0.68,8.63c-0.54,2.78-1.27,5.76-2.22,9.13
	c-1.79,6.33-3.7,12.05-5.84,17.49c-4.22,10.71-9.68,21.39-16.7,32.65c-2.92,4.69-6.31,9.71-10.68,15.8c-0.3,0.42-0.6,0.83-0.9,1.24
	c-0.47,0.64-0.94,1.28-1.4,1.93c-1.36,1.95-1.37,3.6-1.14,4.64c0.29,1.3,1.11,2.4,2.32,3.1c0.85,0.49,1.79,0.74,2.8,0.74
	c2.02-0.01,3.71-1.03,4.95-1.78c0.26-0.16,0.51-0.31,0.73-0.42c11.59-5.87,22.34-13.06,31.95-21.35c2.54-2.19,4.98-4.41,7.04-6.29
	l4.56-4.18c5.06,2.1,10.5,4.23,16.25,6.01c12.79,3.96,25.59,7.24,38.04,9.73c14.29,2.86,27.23,4.31,39.56,4.44
	c6.91,0.06,13.68-0.29,19.94-1.07c6-0.75,12.4-2.07,19.58-4.04c26.6-7.31,49.09-18.66,66.85-33.71c8.85-7.5,16.28-16.21,22.07-25.88
	c2.85-4.76,5.39-9.84,7.56-15.09c1.06-2.58,2.05-5.24,2.93-7.9c0.38-1.15,0.72-2.32,1.06-3.48c0.45-1.53,0.87-2.98,1.39-4.38
	c1.6-4.34,3.91-7.8,6.86-10.28c0.71-0.6,1.5-1.19,2.35-1.77l0.35-0.23c1.18-0.76,3.15-2.04,3.74-4.23
	C457.57,373.86,455.13,371.88,454.22,371.14z M445.83,377.64c-3.9,3.28-6.91,7.72-8.93,13.22c-0.6,1.63-1.07,3.26-1.54,4.84
	c-0.32,1.08-0.63,2.17-0.99,3.24c-0.83,2.51-1.76,5.01-2.76,7.44c-2.04,4.94-4.42,9.7-7.09,14.16c-5.4,9.02-12.33,17.14-20.59,24.14
	c-16.98,14.39-38.57,25.26-64.18,32.3c-6.85,1.88-12.93,3.14-18.59,3.85c-5.95,0.74-12.41,1.08-19,1.01
	c-11.89-0.12-24.4-1.52-38.26-4.3c-12.22-2.45-24.78-5.66-37.34-9.55c-6.1-1.89-11.9-4.23-17.27-6.47
	c-0.53-0.22-1.09-0.34-1.66-0.33c-1.92,0-3.1,1.27-3.6,1.81l-5.08,4.68c-2.02,1.85-4.42,4.03-6.89,6.16
	c-8.24,7.11-17.36,13.37-27.16,18.64c3.58-5.07,6.49-9.42,9.06-13.54c7.25-11.63,12.9-22.68,17.27-33.79
	c2.23-5.65,4.21-11.59,6.06-18.14c1-3.55,1.77-6.72,2.35-9.69c0.61-3.11,0.87-6.31,0.81-10.08l-0.01-0.4
	c-0.02-1.52-0.04-3.03-0.08-4.55c-0.02-0.74-0.03-1.48-0.05-2.21c0.05-0.52,0.18-2.08-0.99-3.4c-1.11-1.25-2.64-1.4-3.75-1.5
	c-0.09-0.01-0.18-0.02-0.25-0.02c-0.53-0.12-1.06-0.21-1.6-0.31l-0.64-0.12c-1.49-0.28-2.98-0.56-4.47-0.84
	c-5.47-1.05-11.92-2.35-18.28-4.07c-12.85-3.49-24.6-9.32-34.4-14.56c-0.84-0.45-1.7-0.88-2.56-1.32c-1.86-0.93-3.61-1.81-5.17-2.88
	c-0.13-0.09-0.27-0.2-0.42-0.32c-1-0.79-2.51-1.98-4.54-1.98c-0.63,0-1.25,0.12-1.83,0.36c-1.38,0.57-2.35,1.55-3.13,2.34
	c-0.2,0.2-0.39,0.4-0.58,0.57c-4.48,3.9-9.29,7.16-14.29,9.69c-5.12,2.59-10.65,4.45-16.41,5.52c-4.79,0.89-9.68,1.36-14.18,1.66
	c3.87-2.38,7.33-5.08,10.33-8.05c7.8-7.74,13.84-18.49,17.93-31.95c3.47-11.41,5.35-23.86,5.75-38.07
	c0.36-12.77-0.18-26.11-1.59-39.63c-1.1-10.47-2.9-24.17-7.19-37.23c-2.02-6.17-4.5-11.78-7.37-16.69c-2-3.42-5.15-8.2-10-11.38
	c0.17-0.11,0.33-0.22,0.5-0.33c1.24-0.88,2.46-1.89,3.73-3.1c3.99-3.78,7.16-8.84,9.42-15.04c2.45-6.71,3.93-13.6,4.95-18.86
	c1.19-6.17,2.15-12.76,2.83-19.57c1.25-12.48,1.75-25.74,1.49-39.41c-0.28-14.4-1.46-25.93-3.71-36.28
	c-3.7-16.97-12.53-40.66-33.56-57.17c-1.17-0.92-2.36-1.79-3.55-2.62c2.27,0.01,4.62,0.08,7.14,0.19
	c7.38,0.33,12.91,1.09,17.94,2.46c5.47,1.48,10.71,3.77,15.58,6.8c2.38,1.48,4.67,3.13,6.81,4.92c0.23,0.19,0.47,0.44,0.73,0.7
	c1.29,1.29,3.24,3.24,5.93,3.23c1.33,0,2.59-0.49,3.65-1.42c0.77-0.66,1.34-1.38,1.85-2.01c0.3-0.37,0.58-0.73,0.84-0.98
	c0.72-0.71,1.56-1.41,2.72-2.29c2.43-1.82,4.61-3.29,6.69-4.49c8.96-5.19,19.62-8.21,31.69-8.98c1.85-0.12,3.75-0.19,5.77-0.21
	c-3.07,2.23-5.83,4.62-8.34,7.19c-7.69,7.89-14.02,17.82-18.81,29.49c-8.39,20.47-11.62,44.17-9.87,72.43
	c0.94,15.13,2.42,27.58,4.66,39.18c1.95,10.11,5.12,23.13,12.37,34.23c1.89,2.89,3.79,5.3,5.81,7.39c1.1,1.14,2.23,2.13,3.42,3.03
	c-1,0.69-2,1.55-3.11,2.65c-2.08,2.08-3.97,4.57-5.94,7.82c-5.53,9.13-9.01,19.93-11.29,35.01c-1.79,11.9-2.61,24.88-2.5,39.67
	c0.09,11.85,0.19,25.29,4.89,37.57c3.96,10.37,11.3,19.87,20.65,26.76c4.97,3.66,10.54,6.59,16.58,8.72
	c6.52,2.3,13.42,3.37,19.32,4.1l3.83,0.48l0.1-3.86c0.29-11.44-3.27-22.4-6.79-31.61c-3.62-9.48-8.49-18.94-14.45-28.12
	c-1.55-2.38-3.39-5.19-5.37-8.02c-1.04-1.5-1.98-2.7-2.95-3.78c-0.03-0.03-0.06-0.07-0.09-0.1c0.11-0.12,0.22-0.23,0.32-0.33
	c0.25-0.25,0.49-0.5,0.71-0.76c0.95-1.08,1.68-2.25,2.33-3.29l0.32-0.5c1.88-2.96,3.43-5.43,4.96-8.09
	c6.38-11.1,11.27-22.86,14.52-34.95c6.38-23.74,6.92-49.16,1.56-73.51c-5.06-23-15.08-45.56-29.77-67.04
	c-3.01-4.4-6.21-8.72-9.54-12.86c1.25,0.67,2.51,1.34,3.77,2c3.59,1.89,7.3,3.85,10.77,6c4.84,3,9.59,6.38,14.1,10.04
	c4.07,3.31,8.34,7.19,13.03,11.87c2.45,2.44,4.37,4.51,6.06,6.51c0.27,0.32,0.54,0.68,0.81,1.03c1.45,1.91,3.63,4.81,7.51,4.8
	c0.39,0,0.79-0.03,1.19-0.1c1.64-0.26,3.03-0.91,4.26-1.48c0.36-0.17,0.71-0.33,1.07-0.48c1.36-0.57,2.71-1.09,4.01-1.53
	c2.97-1.01,6.04-1.81,8.92-2.52c6.23-1.54,12.52-2.86,18.72-3.9c10.49-1.77,20.79-2.68,30.62-2.7c15.77-0.04,30.62,2.19,44.13,6.62
	c10.79,3.54,21.58,8.8,32.05,15.62c11.15,7.26,19,14.16,24.71,21.72c3.66,4.85,6.2,10.24,8,14.39l0.26,0.61
	c2.34,5.4,4.76,10.99,8.36,16.05c1.69,2.37,3.63,4.65,5.96,6.97c0.06,0.05,0.13,0.12,0.21,0.2l-0.06,0.05
	c-4.25,3.6-7.75,8.5-10.43,14.58c-0.88,1.99-1.43,4-1.97,5.94c-0.28,1.02-0.55,1.99-0.86,2.93c-1.1,3.38-2.04,6.08-2.96,8.5
	c-1.19,3.15-2.33,5.65-3.57,7.88c-0.44,0.78-0.86,1.57-1.29,2.35c-1.07,1.98-2.08,3.85-3.24,5.61c-2.81,4.29-6.59,8.49-11.53,12.86
	c-2.2,1.94-4.54,3.83-6.96,5.61c-1.11,0.81-2.24,1.58-3.44,2.39c-1.36,0.92-2.77,1.87-4.13,2.9l-5.25,3.96l6.22,2.14
	c9.76,3.37,19.54,7.93,29.9,13.95c10.62,6.17,18.63,12.07,25.23,18.57c7.18,7.08,13.18,16.06,18.32,27.47
	c2.46,5.46,4.66,11.32,6.55,17.41l0.08,0.26c0.89,2.88,1.81,5.86,3.33,8.72c0.83,1.57,1.82,3.03,2.92,4.34
	c0.64,0.76,1.32,1.38,1.92,1.93c0.4,0.36,0.77,0.7,1.08,1.03l0.21,0.23l0.25,0.19c0.02,0.01,0.03,0.03,0.05,0.04
	c0.73,0.55,1.41,1.06,2.05,1.58C447.6,376.23,446.68,376.93,445.83,377.64z M448.58,371.12
	C447.77,370.25,450.02,372.2,448.58,371.12L448.58,371.12z M227.33,159.79c-0.71,1.17-0.1,4.01,0.05,4.65
	c1.21,3.17,2.25,6.53,3.24,9.8c0.29,0.96,0.58,1.91,0.88,2.86c1.64,5.27,2.82,9.67,3.72,13.83c5.27,24.37,5.32,50.12,0.14,74.48
	l-0.76,3.56l3.58,0.62c8.55,1.48,17.32,1.82,24.77,1.95c1.6,0.03,3.19,0.04,4.79,0.04c7.16-0.02,13.71-0.38,20.04-1.09
	c13.64-1.55,26.06-4.8,36.91-9.68c5.88-2.64,11.42-5.81,16.46-9.41c4.23-3.02,9.5-6.78,12.89-12.3c3.57-5.8,4.35-12.86,2.11-18.9
	c-1.93-5.2-5.98-9.87-11.69-13.51c-1.79-1.14-3.7-2.16-5.72-3.04c0.58-0.41,1.15-0.84,1.69-1.28c2.55-2.09,4.71-4.48,6.42-7.11
	c3.75-5.76,5.13-12.62,3.79-18.82c-0.75-3.46-2.22-6.64-4.26-9.2c-2.22-2.79-5.09-4.74-7.35-6.13c-9.54-5.88-20.93-9.79-34.82-11.98
	c-13.02-2.05-26.55-2.31-39.75-0.76c-6.69,0.78-13.25,2.04-19.5,3.75c-2.63,0.72-6.07,1.71-9.47,3.08c-0.7,0.28-1.4,0.58-2.1,0.87
	c-0.84,0.36-1.68,0.71-2.54,1.05l-0.18,0.07c-0.54,0.2-1.32,0.52-2.09,1.14C228.2,158.65,227.72,159.15,227.33,159.79z
	 M236.13,162.5c0.66-0.28,1.32-0.56,1.99-0.83c3.06-1.23,6.25-2.16,8.7-2.82c5.92-1.61,12.14-2.81,18.48-3.55
	c12.57-1.47,25.45-1.22,37.84,0.73c12.95,2.04,23.5,5.64,32.23,11.02c1.77,1.09,4,2.59,5.54,4.53c1.37,1.73,2.37,3.91,2.9,6.33
	c0.95,4.39-0.07,9.32-2.81,13.52c-1.32,2.03-3,3.88-4.99,5.51c-0.91,0.74-1.89,1.42-2.91,2.01c-0.31,0.18-0.65,0.34-0.99,0.51
	c-0.98,0.48-2.08,1.02-3.07,1.89c-1.08,0.95-1.54,2.34-1.23,3.71c0.58,2.54,3.21,3.29,5.13,3.83l0.25,0.07
	c2.72,0.96,5.25,2.18,7.51,3.62c3.08,1.96,7.13,5.3,8.9,10.05c1.5,4.03,0.94,8.81-1.51,12.79c-2.46,4-6.27,6.89-11,10.27
	c-4.67,3.33-9.81,6.27-15.27,8.72c-10.19,4.58-21.91,7.64-34.83,9.11c-6.08,0.69-12.38,1.03-19.28,1.05c-1.55,0-3.1-0.01-4.65-0.04
	c-6.43-0.12-13.27-0.37-20.14-1.3c4.64-24.24,4.34-49.67-0.88-73.79l-3.88-14.43c-0.29-0.94-0.58-1.88-0.87-2.82
	c-0.9-2.95-1.83-5.99-2.91-8.97C234.98,162.98,235.56,162.74,236.13,162.5z M230.29,162.23c0.04,0.11,0.05,0.12,0.04,0.11
	C230.31,162.31,230.23,162.11,230.29,162.23z M391.51,378.79c-2.3-1.98-4.81-3.66-7.38-4.93c0.7-0.39,1.39-0.8,2.09-1.27
	c3.12-2.1,5.44-4.3,7.11-6.73c3.5-5.12,3.89-11.6,1.16-19.28c-3.42-9.59-11.1-18.09-21.65-23.96c-6.2-3.44-12.68-6.01-17.63-7.86
	c-6.16-2.3-12.47-4.21-18.76-5.69c-12.25-2.88-25.12-4.32-38.26-4.29l-1,0c-13.09,0.11-26.31,1.67-39.31,4.64
	c-6.43,1.47-12.8,3.35-18.73,5.17c-3.49,1.07-4.63,3.21-4.98,4.82c-0.4,1.82,0.03,3.45,0.33,4.64c0.07,0.26,0.14,0.53,0.19,0.78
	c0.58,2.81,1.26,6.14,1.88,9.55c0.51,2.82,0.98,5.91,1.43,9.44c0.22,1.75,0.54,3.47,0.84,5.12c0.28,1.52,0.54,2.96,0.74,4.41
	c0.2,1.48,0.37,3.05,0.53,4.82c0.06,0.71,0.12,1.41,0.17,2.12c-0.17,2.22,0.85,3.39,1.75,3.99c0.73,0.49,1.58,0.74,2.53,0.73
	c0.61,0,1.14-0.11,1.48-0.18l0.13-0.03c0.49-0.08,0.99-0.15,1.49-0.21l0.31-0.04c1.47-0.19,2.98-0.34,4.53-0.48l2.52-0.23
	c5.61-0.51,11.41-1.04,17.14-2.22c6.6-1.35,12.37-3.15,17.64-5.5c7.31-3.26,16.7-9.04,22.3-18.56c-0.06,3.79-0.31,7.53-0.95,11.23
	c-1.07,6.12-2.91,11.69-5.48,16.55c-0.71,1.35-1.48,2.63-2.29,3.8c-0.2,0.3-0.43,0.59-0.65,0.89c-0.73,0.97-1.56,2.06-2.12,3.45
	c-1.67,4.18,1.43,7.27,3.09,8.93c0.4,0.4,0.78,0.78,1,1.06c3.09,3.9,5.37,8.99,6.79,15.12c1.32,5.72,1.44,11.63,1.51,17.36
	c-0.87-1.4-1.86-2.75-2.98-4.05c-8.53-9.87-21-14.57-29.97-16.77c-7.21-1.77-14.98-2.55-25.19-2.52c-4.11,0.01-8.15,0.15-12.27,0.3
	c-1.27,0.05-4.26,0.62-4.64,4.97c-0.01,0.13-0.02,0.27-0.04,0.4c-0.16,0.87-0.37,1.76-0.59,2.69c-0.11,0.48-0.23,0.96-0.33,1.44
	c-0.55,2.5-1.3,5.78-2.19,9c-1.45,5.31-3.52,10.84-6.49,17.43l-1.61,3.56l3.72,1.21c2.91,0.95,5.88,1.83,8.74,2.69
	c2.28,0.68,4.57,1.36,6.84,2.08c5.86,1.84,11.08,3.28,15.96,4.39c14.25,3.24,27.13,4.83,39.38,4.86h0.7
	c12.42-0.03,25.28-1.78,38.22-5.18c6.55-1.72,12.7-3.83,18.26-6.26c2.22-0.97,4.37-2.06,6.45-3.11c0.77-0.39,1.55-0.78,2.32-1.16
	c2.78-1.38,5.75-2.89,8.61-4.58c6.39-3.79,11.18-7.39,15.09-11.34c2.23-2.25,3.82-4.85,5.35-7.37l0.42-0.69
	c1.66-2.71,2.73-5.92,3.1-9.24c0.13-0.57,0.21-1.25,0.16-1.93C400.28,390.31,397.14,383.64,391.51,378.79z M396.45,397.94
	C396.77,395.25,396.32,399.35,396.45,397.94L396.45,397.94z M393.02,397.15c-0.02,0.14-0.03,0.28-0.04,0.42l0,0.02c0,0,0,0,0,0
	l0,0.03c-0.23,2.47-0.97,4.79-2.14,6.7l-0.43,0.71c-1.38,2.27-2.69,4.41-4.34,6.08c-3.48,3.51-7.83,6.77-13.69,10.25
	c-2.66,1.58-5.48,3.01-8.14,4.33c-0.79,0.39-1.58,0.79-2.37,1.19c-2.09,1.05-4.06,2.05-6.1,2.94c-5.24,2.29-11.04,4.27-17.24,5.91
	c-12.36,3.25-24.63,4.92-36.45,4.95h-0.67c-11.73-0.03-24.11-1.57-37.84-4.69c-4.7-1.07-9.74-2.46-15.41-4.24
	c-2.31-0.73-4.63-1.42-6.94-2.11c-1.61-0.48-3.25-0.97-4.89-1.47c2.3-5.4,4-10.2,5.28-14.86c0.92-3.37,1.7-6.76,2.27-9.33
	c0.1-0.45,0.21-0.9,0.31-1.36c0.21-0.89,0.42-1.8,0.6-2.74c3.4-0.12,6.76-0.21,10.14-0.22c9.62-0.02,16.87,0.69,23.5,2.32
	c7.97,1.96,19.02,6.07,26.34,14.54c1.51,1.75,2.73,3.61,3.61,5.54l0.18,0.39c0.79,1.78,2.44,5.47,6.17,5.77
	c0.15,0.01,0.29,0.02,0.43,0.02c0.83,0,4.97-0.33,5.09-6.51c0.02-1.1-0.04-2.16-0.1-3.17c-0.04-0.68-0.08-1.36-0.09-2.04
	c-0.08-6-0.17-12.8-1.7-19.45c-1.65-7.15-4.38-13.17-8.12-17.89c-0.48-0.6-1.02-1.15-1.55-1.67c-0.45-0.45-1.17-1.17-1.43-1.59
	c0.24-0.47,0.66-1.02,1.1-1.6c0.29-0.38,0.57-0.76,0.83-1.14c0.97-1.4,1.89-2.93,2.72-4.52c2.9-5.51,4.98-11.77,6.18-18.61
	c1.16-6.63,1.14-13.13,1.02-19.75c-0.01-0.3-0.01-0.61,0-0.92c0-1.21,0-2.59-0.31-4.02c-0.51-2.3-2.39-4.62-5-4.61
	c-1.3,0-2.52,0.59-3.45,1.66c-1.28,1.48-1.42,3.27-1.5,4.34c-0.01,0.19-0.03,0.38-0.05,0.55c-0.17,1.11-0.52,2.3-1.04,3.53
	c-3.28,7.71-10.65,14.44-20.76,18.96c-4.8,2.14-10.09,3.79-16.19,5.04c-5.35,1.09-10.71,1.58-16.38,2.1l-2.54,0.23
	c-1.61,0.15-3.18,0.31-4.76,0.51c0-0.02,0-0.04,0-0.05c-0.17-1.88-0.35-3.57-0.56-5.15c-0.22-1.62-0.51-3.2-0.79-4.74
	c-0.3-1.64-0.59-3.18-0.78-4.74c-0.46-3.65-0.95-6.86-1.49-9.8c-0.63-3.48-1.32-6.87-1.91-9.72c-0.08-0.37-0.17-0.74-0.27-1.12
	c-0.08-0.29-0.17-0.67-0.23-0.97c0.05-0.02,0.1-0.03,0.15-0.05c5.8-1.78,12.02-3.61,18.24-5.04c12.51-2.86,25.23-4.36,37.81-4.46
	l0.96,0c12.59-0.03,24.92,1.35,36.64,4.1c6,1.41,12.03,3.24,17.91,5.43c4.72,1.76,10.88,4.2,16.67,7.42
	c9.06,5.04,15.61,12.21,18.46,20.19c1.97,5.52,1.85,9.76-0.34,12.97c-1.15,1.68-2.87,3.28-5.24,4.88c-1.08,0.73-2.27,1.34-3.53,1.99
	c-0.84,0.43-1.68,0.86-2.56,1.36c-0.72,0.41-2.39,1.35-2.91,3.24c-0.28,1.04-0.14,2.13,0.4,3.06c0.96,1.67,2.67,2.1,3.49,2.31
	l0.43,0.11c0.63,0.16,1.17,0.3,1.63,0.49c2.63,1.05,5.28,2.69,7.67,4.75C391.15,387.72,393.42,392.59,393.02,397.15z"/>
</svg>
