<?xml version="1.0" encoding="UTF-8"?>
<svg width="200px" height="200px" viewBox="0 0 200 200" version="1.1" xmlns="http://www.w3.org/2000/svg" xmlns:xlink="http://www.w3.org/1999/xlink">
    <!-- Generator: Sketch 55.2 (78181) - https://sketchapp.com -->
    <title>lindenwood-mo</title>
    <desc>Created with Sketch.</desc>
    <g id="lindenwood-mo" stroke="none" stroke-width="1" fill="none" fill-rule="evenodd">
        <g id="lindenwood-mo_BGD">
            <g id="lindenwood" transform="translate(0.000000, 26.000000)">
                <path d="M176.721311,51.0163934 C176.721311,50.5147541 176.806557,49.8459016 176.806557,49.1803279 C176.806557,48.4295082 176.806557,47.2622951 176.554098,46.1803279 L176.554098,45.8459016 C177.144262,45.4295082 177.645902,44.9278689 177.731148,44.1803279 L177.731148,43.9278689 C177.731148,40.2622951 163.698361,35.3442623 163.613115,35.2590164 C162.688525,34.9278689 161.678689,34.5081967 160.586885,34.1770492 C162.016393,33.0098361 164.032787,31.1737705 165.8,29.0918033 C170.167213,24.0065574 171.681967,19.3377049 170.337705,15.2557377 C166.721311,4.50163934 144.203279,-0.167213115 101.344262,1 C76.6393443,1.58360656 50.7540984,10.5016393 33.442623,17.8393443 C14.7081967,25.757377 1.6,33.6721311 1.43278689,33.7606557 L0.675409836,34.2590164 L1.09508197,36.1770492 L2.01967213,36.2590164 C2.27213115,36.2590164 24.6262295,39.3442623 47.8196721,54.2655738 C61.5147541,63.0196721 72.7770492,74.1016393 81.4327869,87.2754098 C92.2721311,103.695082 98.9081967,123.367213 101.262295,145.790164 L101.347541,146.291803 L101.685246,146.622951 C101.934426,146.87541 102.272131,147.039344 102.691803,147.039344 C102.859016,147.039344 102.944262,147.039344 103.111475,146.957377 C105.718033,146.206557 121.262295,118.032787 125.8,105.445902 L128.993443,113.947541 L131.6,113.029508 L131.262295,111.865574 C130.842623,110.613115 130.508197,109.363934 130.170492,108.114754 L142.609836,120.783607 L143.701639,120.281967 C144.878689,119.783607 147.64918,118.865574 148.911475,118.95082 C149.163934,118.95082 149.331148,119.114754 149.75082,119.534426 C150.422951,120.2 151.6,121.2 153.783607,121.118033 C158.911475,120.865574 162.52459,119.783607 164.62623,117.698361 C169.918033,112.616393 175.380328,100.02623 175.55082,99.5278689 L175.8,99.0262295 L175.127869,97.695082 L176.222951,95.7770492 L175.632787,94.0262295 L172.859016,92.6918033 L174.37377,90.5278689 L172.777049,88.2754098 L166.390164,90.0262295 C165.970492,89.9409836 165.045902,89.7737705 164.121311,89.6098361 L165.55082,87.8590164 L163.783607,85.4393443 L163.193443,85.6918033 L163.619672,85.357377 C163.619672,85.357377 167.229508,82.6032787 168.911475,81.357377 L169.245902,81.6065574 L166.642623,86.357377 L168.406557,88.442623 L174.206557,86.442623 L178.911475,88.7737705 L182.190164,86.7737705 L183.029508,86.9377049 L183.701639,86.4393443 C184.121311,86.1081967 192.947541,79.357377 195.465574,72.5213115 C198.239344,71.1868852 199.665574,69.4360656 199.665574,67.2688525 C199.501639,65.0196721 197.147541,59.0163934 176.72459,51.0131148 L176.721311,51.0163934 Z M154.032787,83.1901639 C156.806557,80.3540984 160.839344,78.104918 162.521311,77.2721311 C162.606557,77.2721311 162.606557,77.3540984 162.688525,77.3540984 L160.590164,84.357377 L162.855738,85.8557377 L157.816393,87.9409836 C156.9834,86.0582524 155.680525,84.4211922 154.032787,83.1868852 L154.032787,83.1901639 Z" id="Shape" fill="#B5A36A" fill-rule="nonzero"></path>
                <path d="M172.655738,70.4983607 L174.560656,69.6131148 L175.24918,71.104918 L173.340984,71.9868852 L172.655738,70.4983607 Z M178.304918,70.7114754 L180.055738,69.547541 L180.963934,70.9114754 L179.213115,72.0754098 L178.304918,70.7114754 Z M166.134426,66.852459 C144.285246,58.0163934 131.681967,77.5213115 131.681967,77.5213115 C131.681967,77.5213115 144.203279,59.9344262 165.042623,67.1868852 L164.622951,67.3508197 L164.957377,68.3508197 L167.645902,67.4327869 L167.311475,66.4360656 L166.134426,66.852459 L166.134426,66.852459 Z M180.504918,65.3508197 C159.07541,44.6786885 139.832787,50.0131148 139.832787,50.0131148 C139.832787,50.0131148 158.908197,46.4295082 179.413115,65.6852459 L178.908197,65.8491803 L179.242623,66.852459 L181.931148,65.9344262 L181.596721,64.9344262 L180.504918,65.3508197 Z" id="Shape" fill="#000000" fill-rule="nonzero"></path>
                <path d="M173.360656,65.2688525 C150.337705,46.9311475 130.419672,62.6 130.419672,62.6 C130.419672,62.6 150.757377,48.5147541 172.354098,65.6 L171.681967,65.852459 L172.016393,66.852459 L175.12459,65.852459 L174.790164,64.852459 L173.360656,65.2688525 Z M150,39.7606557 C151.429508,40.5934426 154.537705,42.4295082 154.87541,42.5967213 C154.957377,43.0131148 156.04918,49.8459016 156.04918,49.8459016 L156.806557,50.2655738 C156.806557,50.2655738 162.606557,47.4295082 163.108197,47.2622951 L166.977049,49.1803279 L167.059016,49.1803279 L167.393443,48.347541 L160.252459,42.6754098 L158.740984,41.5934426 L158.318033,41.8459016 L159.662295,43.5967213 L150.337705,38.7606557 L149.747541,38.4262295 L149.914754,39.6786885 L150,39.7606557 L150,39.7606557 Z M156.891803,42.9278689 L156.472131,43.2622951 L157.059016,47.8459016 L157.813115,48.2622951 L162.016393,45.7639344 L162.016393,45.4295082 C162.436066,45.7639344 162.521311,45.7639344 162.940984,46.1803279 C162.855738,46.1803279 157.983607,48.5967213 156.97377,49.0983607 C156.809836,47.9311475 155.881967,42.4295082 155.881967,42.3442623 C156.04918,42.3442623 156.386885,42.5967213 156.891803,42.9278689 L156.891803,42.9278689 Z M124.87541,42.2622951 C123.531148,41.5114754 121.259016,38.842623 121.763934,37.3442623 C122.016393,36.7606557 122.688525,36.3442623 123.95082,36.2622951 C124.957377,36.0918033 126.554098,35.842623 128.908197,35.5934426 L128.570492,35.2590164 C125.02251,32.7323475 120.987048,30.9725557 116.721311,30.0918033 C111.934426,29.4262295 108.236066,30.1737705 108.15082,30.1737705 L107.816393,30.2590164 L107.731148,30.5934426 C107.731148,30.9245902 106.977049,38.5114754 124.452459,43.1770492 L124.87541,42.2590164 L124.87541,42.2622951 Z" id="Shape" fill="#000000" fill-rule="nonzero"></path>
                <path d="M175.377049,51.8491803 C175.462295,51.347541 175.462295,50.347541 175.462295,49.1803279 C175.462295,48.2622951 175.377049,47.1803279 175.209836,46.347541 L175.209836,45.2655738 C175.963934,44.7639344 176.386885,44.4295082 176.386885,44.0131148 L176.386885,43.9278689 C176.386885,41.9278689 167.140984,37.842623 163.02623,36.4262295 C161.295771,35.7428493 159.527897,35.1583015 157.731148,34.6754098 C158.321311,34.2590164 171.931148,24.3409836 168.990164,15.6721311 C165.629508,5.66885246 142.859016,1.16721311 101.259016,2.24918033 C76.8918033,2.83278689 51.1770492,11.6688525 33.947541,19.0032787 C15.295082,26.9278689 2.27213115,34.7639344 2.10491803,34.8459016 L2.10491803,35.0131148 C2.35737705,35.0131148 24.8786885,38.095082 48.4065574,53.1836066 C62.1868852,62.0196721 73.6196721,73.2721311 82.4393443,86.5278689 C93.3639344,103.118033 100.088525,123.036066 102.439344,145.62623 C102.439344,145.62623 102.52459,145.711475 102.609836,145.62623 C104.118033,145.209836 122.439344,113.868852 125.298361,102.032787 C125.465574,102.032787 125.55082,102.032787 125.718033,101.947541 L129.583607,112.118033 L129.918033,112.032787 C128.82623,108.367213 127.819672,105.032787 126.977049,101.865574 C127.758469,101.754004 128.543687,101.670889 129.331148,101.616393 C129.331148,102.44918 129.498361,105.698361 129.498361,105.698361 L142.691803,119.121311 L143.029508,118.954098 C143.029508,118.954098 146.895082,117.370492 148.82623,117.534426 C149.498361,117.619672 149.918033,117.954098 150.422951,118.452459 C151.095082,119.036066 151.934426,119.786885 153.531148,119.701639 C158.321311,119.537705 161.685246,118.455738 163.531148,116.701639 C168.659016,111.783607 173.954098,99.4491803 174.206557,98.947541 L173.868852,98.1967213 L173.196721,98.0327869 L174.62623,95.4459016 L174.37377,94.695082 C174.37377,94.695082 171.6,93.3639344 170.760656,92.9442623 C171.262295,92.1967213 172.609836,90.2786885 172.609836,90.2786885 L172.019672,89.4459016 C172.019672,89.4459016 166.47541,91.0295082 166.304918,91.1114754 C166.137705,91.1114754 162.862295,90.5278689 161.6,90.2786885 C162.354098,89.4459016 163.783607,87.6098361 163.783607,87.6098361 L163.193443,86.7770492 C163.193443,86.7770492 158.239344,88.8622951 156.895082,89.4459016 C155.970492,86.2786885 153.954098,84.2754098 151.934426,83.1934426 C155.213115,79.2754098 161.095082,76.1901639 162.439344,75.6065574 C163.193443,76.0229508 163.701639,76.442623 164.036066,76.6065574 C163.868852,77.1901639 161.937705,83.6098361 161.937705,83.6098361 L162.777049,84.1934426 C162.777049,84.1934426 168.239344,80.0262295 168.82623,79.6098361 C169.245902,79.9409836 170.340984,80.6918033 170.760656,81.0262295 C170.422951,81.6918033 168.072131,86.0262295 168.072131,86.0262295 L168.744262,86.7803279 C168.744262,86.7803279 173.783607,85.0262295 174.62623,84.7770492 C174.702847,84.9061592 174.758199,85.0467527 174.790164,85.1934426 L178.744262,87.1114754 L181.852459,85.1934426 L182.606557,85.357377 L182.777049,85.1934426 C183.196721,84.8590164 192.186885,77.9409836 194.288525,71.357377 C196.895082,70.2754098 198.239344,68.7737705 198.239344,67.104918 L198.239344,67.0229508 C198.154098,60.852459 178.491803,53.0163934 175.380328,51.852459 L175.377049,51.8491803 Z M11.5967213,31.6721311 C60.3377049,17.0819672 98.3180328,8.91803279 124.537705,7.24590164 C147.563934,5.83278689 156.891803,9.83278689 160.672131,13.4163934 C163.698361,16.252459 163.698361,19.252459 163.527869,20.252459 C163.363934,26.9213115 157.311475,33.6721311 157.311475,33.6721311 L152.606557,32.7540984 C152.606557,32.7540984 171.511475,13.5836066 141.344262,10.4983607 C128.488525,9.41639344 93.6131148,10.2491803 11.5114754,31.7540984 L11.5967213,31.6721311 L11.5967213,31.6721311 Z M31.9311475,39.757377 C163.445902,-10.3409836 150.167213,32.504918 150.167213,32.504918 L140.839344,30.9213115 C140.757377,30.9213115 156.216393,-2.67213115 31.9311475,39.757377 Z M52.2688525,50.5934426 C83.1081967,25.9213115 104.118033,31.0885246 104.118033,31.0885246 L110.672131,38.757377 C110.672131,38.757377 92.8557377,24.1672131 52.2688525,50.5934426 Z M76.8065574,73.7672131 C79.1606557,36.2590164 110.419672,38.757377 110.419672,38.757377 C110.419672,38.757377 113.445902,42.0098361 118.570492,44.0918033 C118.570492,44.3409836 82.6032787,40.4262295 76.8065574,73.7672131 Z M111.596721,50.5934426 L113.695082,58.6786885 C113.695082,58.6786885 79.8360656,69.1016393 106.721311,127.285246 C72.0983607,62.6852459 111.596721,50.5967213 111.596721,50.5967213 L111.596721,50.5934426 Z M113.108197,102.357377 C113.193443,101.190164 114.704918,87.104918 114.704918,87.104918 C114.704918,87.104918 105.209836,69.3508197 104.790164,68.6 C105.462295,68.0983607 115.462295,60.7639344 115.462295,60.7639344 C115.462295,60.7639344 112.855738,50.6786885 112.688525,49.9278689 C113.360656,49.5934426 122.606557,44.7606557 122.606557,44.7606557 L122.436066,43.757377 C122.354098,43.757377 112.354098,41.5934426 104.87541,29.2557377 C105.209836,29.1704918 105.547541,29.0032787 105.881967,28.9213115 C107.059016,28.4196721 109.580328,27.9213115 113.698361,28.4196721 C117.563934,28.8393443 121.429508,30.0885246 124.537705,31.3377049 C124.622951,31.3377049 124.622951,31.3377049 124.704918,31.4229508 C124.790164,31.4229508 124.87541,31.504918 124.957377,31.504918 C126.721311,32.1737705 128.570492,33.0065574 130.586885,34.0065574 C130.586885,34.0885246 130.672131,34.1704918 130.672131,34.1704918 C130.672131,34.2557377 130.757377,34.2557377 130.757377,34.3409836 C130.839344,34.4229508 130.839344,34.504918 130.921311,34.5901639 C130.921311,34.6721311 131.009836,34.7540984 131.009836,34.8393443 C131.009836,34.9245902 131.091803,35.0065574 131.091803,35.0885246 C131.091803,35.1737705 131.177049,35.2557377 131.177049,35.3409836 C131.177049,35.4229508 131.177049,35.504918 131.259016,35.5901639 L131.259016,36.8393443 C131.259016,36.9245902 131.259016,37.0065574 131.177049,37.1737705 L131.177049,37.3377049 C131.159966,37.5154119 131.102793,37.6869285 131.009836,37.8393443 C131.009836,37.9245902 130.92459,37.9245902 130.92459,38.0065574 C130.92459,38.0918033 130.839344,38.1737705 130.839344,38.3409836 C130.839344,38.4229508 130.757377,38.504918 130.757377,38.5901639 C130.757377,38.6754098 130.672131,38.757377 130.586885,38.8393443 C130.586885,38.9245902 130.504918,39.0065574 130.504918,39.0918033 C130.419672,39.1737705 130.419672,39.2557377 130.337705,39.3409836 C130.252459,39.4229508 130.252459,39.504918 130.167213,39.5901639 C130.085246,39.6754098 130.085246,39.757377 130,39.842623 C129.914754,39.9245902 129.914754,40.0065574 129.832787,40.0918033 C129.747541,40.1737705 129.747541,40.2557377 129.662295,40.3409836 C129.580328,40.4262295 129.580328,40.504918 129.498361,40.5901639 C129.413115,40.6754098 129.327869,40.757377 129.327869,40.842623 C129.242623,40.9245902 129.242623,41.0065574 129.160656,41.0918033 C129.07541,41.1737705 128.990164,41.2557377 128.990164,41.3409836 C128.908197,41.4262295 128.82623,41.5081967 128.82623,41.5901639 L128.82623,41.6754098 C128.570492,42.0098361 128.318033,42.3409836 127.983607,42.6754098 C124.790164,46.7606557 120.504918,52.347541 119.327869,62.8459016 C118.236066,72.8491803 120.252459,85.6032787 125.547541,100.944262 C120.757377,101.609836 113.865574,102.27541 113.108197,102.357377 L113.108197,102.357377 Z M156.891803,90.8557377 C156.891803,90.8557377 159.832787,89.6065574 161.763934,88.7704918 C161.091803,89.6065574 160.337705,90.5213115 160.337705,90.5213115 L160.672131,91.3540984 L166.472131,92.3540984 C166.472131,92.3540984 169.413115,91.5213115 171.009836,91.0229508 C170.337705,91.9409836 169.665574,93.0229508 169.665574,93.0229508 L169.829508,93.7737705 C169.829508,93.7737705 172.688525,95.1901639 173.527869,95.5245902 C173.193443,96.1081967 172.688525,96.9409836 172.521311,97.357377 C168.488525,96.4393443 162.606557,95.104918 162.268852,94.9409836 L162.101639,94.9409836 C158.232787,94.6065574 154.370492,95.0229508 150.839344,95.357377 C146.806557,95.7737705 143.278689,96.1901639 142.688525,94.8557377 L142.688525,94.6918033 C142.268852,94.1901639 142.098361,93.2721311 142.098361,92.104918 C142.098361,91.104918 142.268852,89.9409836 142.688525,88.6885246 C142.77377,89.5213115 143.865574,89.8557377 144.203279,90.0229508 C145.629508,90.5213115 147.816393,90.7704918 150.170492,90.8557377 C150.586885,90.8557377 151.009836,90.9377049 151.429508,90.8557377 C153.278689,90.8557377 155.12459,90.8557377 156.721311,90.7704918 L156.891803,90.8557377 L156.891803,90.8557377 Z M155.711475,89.1868852 C148.655738,91.1868852 145.042623,88.2688525 143.780328,86.9377049 C143.865574,86.2721311 144.118033,85.5213115 144.452459,84.7704918 C144.957377,84.852459 148.908197,85.3540984 150.085246,87.5213115 L151.009836,87.0196721 C149.747541,84.7704918 146.301639,84.0196721 144.957377,83.7704918 C145.209836,83.3540984 145.377049,83.0196721 145.462295,82.852459 C146.97377,82.852459 153.363934,83.0196721 155.714754,89.1868852 L155.711475,89.1868852 Z M178.655738,86.104918 C178.236066,85.9377049 175.881967,84.7704918 175.629508,84.6032787 C175.547541,84.4393443 175.209836,83.6032787 175.209836,83.6032787 C175.209836,83.6032787 171.259016,84.9377049 169.662295,85.5213115 C170.419672,84.104918 172.186885,80.852459 172.186885,80.852459 L168.822951,78.4360656 C168.822951,78.4360656 165.12459,81.2688525 163.445902,82.5180328 C164.036066,80.6032787 165.295082,76.4360656 165.295082,76.4360656 L165.042623,76.1836066 C163.308836,74.6896182 161.177006,73.733656 158.908197,73.4327869 L158.822951,73.4327869 C158.655738,73.4327869 158.488525,73.4327869 158.403279,73.3508197 L157.059016,73.3508197 C159.196831,72.7785686 161.431453,72.6646029 163.616393,73.0163934 C168.655738,73.9344262 173.108197,77.2688525 175.547541,82.0196721 C176.04918,83.1016393 176.301639,83.8557377 176.386885,84.0196721 L176.472131,84.2688525 L180.252459,85.104918 C179.580328,85.5213115 178.908197,85.9377049 178.655738,86.104918 L178.655738,86.104918 Z M177.22623,79.7704918 C175.714754,77.6852459 176.386885,76.2688525 175.377049,74.852459 C174.918677,74.1799198 174.382751,73.5636598 173.780328,73.0163934 C164.537705,66.2622951 154.704918,72.5180328 151.596721,74.9344262 C150.842623,75.4327869 150.085246,76.1016393 149.413115,76.7704918 C148.507541,77.5960927 147.663747,78.4870077 146.888525,79.4360656 C146.134426,80.2688525 145.462295,81.1016393 144.87541,82.0196721 L144.790164,82.1016393 C144.790164,82.1868852 144.704918,82.1868852 144.704918,82.2688525 C142.183607,86.0196721 141.091803,89.6065574 141.091803,92.2721311 C141.091803,93.6065574 141.344262,94.6885246 141.931148,95.4393443 C142.855738,97.357377 146.301639,97.0229508 151.091803,96.5213115 C153.95082,96.1901639 157.22623,95.8557377 160.419672,96.0229508 C165.377049,97.2721311 172.436066,99.104918 173.193443,99.2754098 C172.855738,99.9409836 172.268852,101.27541 171.511475,102.940984 C169.577049,107.108197 166.806557,112.613115 163.445902,115.780328 L163.02623,116.196721 C162.683623,116.540149 162.284321,116.821878 161.845902,117.029508 C160.501639,117.947541 159.157377,118.445902 157.64918,118.445902 C156.468852,118.695082 155.12459,118.780328 153.616393,118.862295 L152.940984,118.862295 C152.688525,118.862295 152.606557,118.780328 152.606557,118.780328 C152.521311,118.780328 152.354098,118.695082 152.183607,118.613115 C151.998409,118.531311 151.828709,118.418177 151.681967,118.278689 C150.839344,117.695082 149.832787,116.862295 149.413115,116.780328 C147.563934,116.780328 144.957377,117.445902 143.698361,117.862295 C143.445902,117.947541 143.193443,118.029508 143.02623,118.111475 C142.521311,117.613115 130.839344,105.691803 130.586885,105.442623 C130.586885,105.108197 130.422951,101.190164 130.422951,101.190164 L129.832787,100.691803 C129.832787,100.691803 128.570492,100.855738 126.721311,101.02623 C117.22623,64.9311475 124.118033,56.7639344 131.344262,48.1737705 C133.108197,46.0918033 134.87541,44.0098361 136.386885,41.5081967 C136.386885,41.5081967 136.386885,41.4262295 136.472131,41.4262295 C136.636066,41.0918033 136.806557,40.842623 136.97377,40.5081967 L136.97377,40.4262295 L137.983607,38.4262295 L137.983607,38.3409836 C138.173316,38.0016856 138.314578,37.6374937 138.403279,37.2590164 L138.403279,37.1737705 C138.570492,36.8393443 138.655738,36.4229508 138.822951,36.0918033 L138.822951,36.0065574 C139.07541,35.2557377 139.413115,34.4229508 139.577049,33.504918 C139.662295,33.0885246 139.832787,32.6721311 139.914754,32.1737705 C139.914754,32.0065574 140,31.9213115 140,31.7540984 C149.160656,32.9213115 162.606557,35.6721311 172.354098,41.757377 C173.613115,42.5114754 174.537705,43.1737705 174.957377,43.5934426 L175.12459,43.757377 L175.12459,43.842623 C175.042623,43.9245902 174.87541,44.0065574 174.790164,44.1770492 C173.865574,45.0098361 171.596721,46.7606557 171.596721,46.7606557 L171.511475,48.9245902 C171.511475,48.9245902 171.84918,48.842623 172.436066,48.7606557 C172.606557,49.1770492 173.02623,50.1770492 173.278689,50.7606557 L173.278689,50.842623 L171.429508,50.095082 L171.429508,51.0131148 C171.429508,51.0131148 175.209836,52.5934426 179.914754,54.8459016 C186.134426,57.5967213 194.203279,61.8459016 196.386885,65.4327869 C196.219672,65.347541 196.134426,65.1803279 195.967213,65.0983607 C190,63.5147541 184.370492,63.347541 184.370492,63.4295082 L184.285246,63.5147541 L185.967213,67.8491803 L186.97377,70.2655738 L187.059016,70.1836066 C187.059016,69.8491803 186.554098,65.4295082 186.468852,64.9311475 C186.806557,65.347541 189.914754,69.0983607 190.337705,69.6 L190.501639,69.6 C188.570492,78.3540984 180.167213,82.1016393 177.22623,79.7704918 L177.22623,79.7704918 Z M174.203279,48.842623 C174.203279,49.0098361 174.118033,49.1770492 174.118033,49.3442623 C174.032787,49.1770492 173.865574,48.9278689 173.780328,48.6754098 L174.203279,48.842623 L174.203279,48.842623 Z M173.527869,46.5081967 L173.527869,48.0098361 C173.482192,47.8676728 173.427434,47.7285889 173.363934,47.5934426 L171.931148,47.842623 C172.606557,47.2590164 173.111475,46.9245902 173.527869,46.5081967 L173.527869,46.5081967 Z M193.698361,70.6819672 L193.445902,70.7672131 L193.360656,71.0163934 C192.436066,74.0983607 189.832787,77.3508197 187.311475,79.852459 C189.662295,76.2688525 193.442623,70.4327869 193.442623,70.3508197 C193.613115,70.2655738 195.796721,69.0163934 196.97377,67.9311475 C196.721311,69.0131148 195.629508,69.9311475 193.695082,70.6852459 L193.698361,70.6819672 Z" id="Shape" fill="#000000" fill-rule="nonzero"></path>
                <path d="M156.891803,42.9278689 L156.472131,43.2622951 L157.059016,47.8459016 L157.813115,48.2622951 L162.016393,45.7639344 L162.016393,45.4295082 C162.436066,45.7639344 162.521311,45.7639344 162.940984,46.1803279 C162.855738,46.1803279 157.983607,48.5967213 156.97377,49.0983607 C156.809836,47.9311475 155.881967,42.4295082 155.881967,42.3442623 C156.04918,42.3442623 156.386885,42.5967213 156.891803,42.9278689 L156.891803,42.9278689 Z M156.891803,90.8590164 C156.891803,90.8590164 159.832787,89.6098361 161.763934,88.7737705 C161.091803,89.6098361 160.337705,90.5245902 160.337705,90.5245902 L160.672131,91.357377 L166.472131,92.357377 C166.472131,92.357377 169.413115,91.5245902 171.009836,91.0262295 C170.337705,91.9442623 169.665574,93.0262295 169.665574,93.0262295 L169.829508,93.7770492 C169.829508,93.7770492 172.688525,95.1934426 173.527869,95.5278689 C173.193443,96.1114754 172.688525,96.9442623 172.521311,97.3606557 C168.488525,96.442623 162.606557,95.1081967 162.268852,94.9442623 L162.101639,94.9442623 C158.232787,94.6098361 154.370492,95.0262295 150.839344,95.3606557 C146.806557,95.7770492 143.278689,96.1934426 142.688525,94.8590164 L142.688525,94.695082 C142.268852,94.1934426 142.098361,93.2754098 142.098361,92.1081967 C142.098361,91.1081967 142.268852,89.9442623 142.688525,88.6918033 C142.77377,89.5245902 143.865574,89.8590164 144.203279,90.0262295 C145.629508,90.5245902 147.816393,90.7737705 150.170492,90.8590164 C150.586885,90.8590164 151.009836,90.9409836 151.429508,90.8590164 C153.278689,90.8590164 155.12459,90.8590164 156.721311,90.7737705 L156.891803,90.8590164 L156.891803,90.8590164 Z" id="Shape" fill="#FFFFFF" fill-rule="nonzero"></path>
                <path d="M155.714754,89.1901639 C148.655738,91.1901639 145.042623,88.2721311 143.780328,86.9409836 C143.865574,86.2754098 144.118033,85.5245902 144.452459,84.7737705 C144.957377,84.8557377 148.908197,85.357377 150.085246,87.5245902 L151.009836,87.0229508 C149.747541,84.7737705 146.301639,84.0229508 144.957377,83.7737705 C145.209836,83.357377 145.377049,83.0229508 145.462295,82.8557377 C146.97377,82.8557377 153.363934,83.0229508 155.714754,89.1901639 L155.714754,89.1901639 Z M178.655738,86.1081967 C178.236066,85.9409836 175.881967,84.7737705 175.629508,84.6065574 C175.547541,84.442623 175.209836,83.6065574 175.209836,83.6065574 C175.209836,83.6065574 171.259016,84.9409836 169.662295,85.5245902 C170.419672,84.1081967 172.186885,80.8557377 172.186885,80.8557377 L168.822951,78.4393443 C168.822951,78.4393443 165.12459,81.2721311 163.445902,82.5213115 C164.036066,80.6065574 165.295082,76.4393443 165.295082,76.4393443 L165.042623,76.1868852 C163.308836,74.6928969 161.177006,73.7369347 158.908197,73.4360656 L158.822951,73.4360656 C158.655738,73.4360656 158.488525,73.4360656 158.403279,73.3540984 L157.059016,73.3540984 C159.196831,72.7818473 161.431453,72.6678816 163.616393,73.0196721 C168.655738,73.9377049 173.108197,77.2721311 175.547541,82.0229508 C176.04918,83.104918 176.301639,83.8590164 176.386885,84.0229508 L176.472131,84.2721311 L180.252459,85.1081967 C179.580328,85.5245902 178.908197,85.9409836 178.655738,86.1081967 L178.655738,86.1081967 Z M174.203279,48.8459016 C174.203279,49.0131148 174.118033,49.1803279 174.118033,49.347541 C174.032787,49.1803279 173.865574,48.9311475 173.780328,48.6786885 L174.203279,48.8459016 L174.203279,48.8459016 Z M173.527869,46.5114754 L173.527869,48.0131148 C173.482192,47.8709515 173.427434,47.7318676 173.363934,47.5967213 L171.931148,47.8459016 C172.606557,47.2622951 173.111475,46.9278689 173.527869,46.5114754 L173.527869,46.5114754 Z" id="Shape" fill="#FFFFFF" fill-rule="nonzero"></path>
            </g>
        </g>
    </g>
</svg>