<svg width="200" height="200" xmlns="http://www.w3.org/2000/svg"><g fill-rule="nonzero" fill="none"><path d="M176.721 77.016c0-.501.086-1.17.086-1.836 0-.75 0-1.918-.253-3v-.334c.59-.416 1.092-.918 1.177-1.666v-.252c0-3.666-14.033-8.584-14.118-8.669-.924-.331-1.934-.75-3.026-1.082 1.43-1.167 3.446-3.003 5.213-5.085 4.367-5.085 5.882-9.754 4.538-13.836C166.72 30.502 144.203 25.833 101.344 27c-24.705.584-50.59 9.502-67.901 16.84C14.708 51.756 1.6 59.671 1.433 59.76l-.758.499.42 1.918.925.082c.252 0 22.606 3.085 45.8 18.007 13.695 8.754 24.957 19.836 33.613 33.01 10.84 16.42 17.475 36.091 19.83 58.514l.085.502.337.331c.25.252.587.416 1.007.416.167 0 .252 0 .42-.082 2.606-.75 18.15-28.924 22.688-41.511l3.193 8.502 2.607-.918-.338-1.164c-.42-1.253-.754-2.502-1.092-3.751l12.44 12.669 1.092-.502c1.177-.498 3.947-1.416 5.21-1.331.252 0 .42.164.839.583.672.666 1.849 1.666 4.033 1.584 5.127-.252 8.74-1.334 10.842-3.42 5.292-5.082 10.754-17.672 10.925-18.17l.249-.502-.672-1.33 1.095-1.919-.59-1.75-2.774-1.335 1.515-2.164-1.597-2.253-6.387 1.751c-.42-.085-1.344-.252-2.269-.416l1.43-1.751-1.767-2.42-.59.253.426-.335s3.61-2.754 5.291-4l.335.25-2.603 4.75 1.764 2.086 5.8-2 4.704 2.33 3.28-2 .839.165.672-.499c.42-.33 9.246-7.082 11.764-13.918 2.773-1.334 4.2-3.085 4.2-5.252-.164-2.25-2.518-8.253-22.941-16.256l-.004.003zm-22.688 32.174c2.774-2.836 6.806-5.085 8.488-5.918.086 0 .086.082.168.082l-2.099 7.003 2.266 1.499-5.04 2.085a12.013 12.013 0 00-3.783-4.754v.003z" fill="#B5A36A"/><path d="M172.656 96.498l1.905-.885.688 1.492-1.908.882-.685-1.489zm5.649.213l1.75-1.163.909 1.363-1.75 1.164-.91-1.364zm-12.17-3.859c-21.85-8.836-34.453 10.67-34.453 10.67s12.521-17.588 33.36-10.335l-.419.164.334 1 2.689-.918-.335-.997-1.177.416zm14.37-1.501c-21.43-20.672-40.672-15.338-40.672-15.338s19.075-3.583 39.58 15.672l-.505.164.335 1.003 2.688-.918-.334-1-1.092.417z" fill="#000"/><path d="M173.36 91.269C150.339 72.93 130.42 88.6 130.42 88.6s20.337-14.085 41.934 3l-.672.252.334 1 3.109-1-.335-1-1.43.417zM150 65.76c1.43.832 4.538 2.669 4.875 2.836.082.416 1.174 7.249 1.174 7.249l.758.42s5.8-2.836 6.301-3.004l3.869 1.918h.082l.334-.832-7.14-5.673-1.512-1.082-.423.253 1.344 1.75-9.324-4.835-.59-.335.167 1.253.085.082zm6.892 3.167l-.42.334.587 4.584.754.416 4.203-2.498v-.334c.42.334.505.334.925.75-.085 0-4.957 2.417-5.967 2.918-.164-1.167-1.092-6.668-1.092-6.754.167 0 .505.253 1.01.584zm-32.017-.666c-1.344-.75-3.616-3.42-3.111-4.918.252-.583.925-1 2.187-1.082 1.006-.17 2.603-.42 4.957-.669l-.338-.334a31.357 31.357 0 00-11.849-5.167c-4.787-.666-8.485.082-8.57.082l-.335.085-.085.334c0 .332-.754 7.918 16.721 12.584l.423-.918v.003z" fill="#000"/><path d="M175.377 77.85c.085-.502.085-1.502.085-2.67 0-.918-.085-2-.252-2.832v-1.082c.754-.502 1.177-.836 1.177-1.253v-.085c0-2-9.246-6.085-13.36-7.502a49.138 49.138 0 00-5.296-1.75c.59-.417 14.2-10.335 11.26-19.004-3.361-10.003-26.132-14.505-67.732-13.423-24.367.584-50.082 9.42-67.311 16.754-18.653 7.925-31.676 15.76-31.843 15.843v.167c.252 0 22.774 3.082 46.302 18.17 13.78 8.837 25.213 20.09 34.032 33.345 10.925 16.59 17.65 36.508 20 59.098 0 0 .086.085.17 0 1.509-.416 19.83-31.757 22.69-43.593.167 0 .252 0 .419-.085l3.866 10.17.334-.085c-1.092-3.666-2.098-7-2.941-10.167a32.558 32.558 0 012.354-.25c0 .833.167 4.082.167 4.082l13.194 13.423.338-.167s3.865-1.584 5.796-1.42c.672.086 1.092.42 1.597.918.672.584 1.511 1.335 3.108 1.25 4.79-.164 8.154-1.246 10-3 5.128-4.918 10.423-17.253 10.676-17.754l-.338-.751-.672-.164 1.43-2.587-.253-.75s-2.774-1.332-3.613-1.752c.501-.747 1.849-2.665 1.849-2.665l-.59-.833s-5.545 1.584-5.715 1.665c-.167 0-3.443-.583-4.705-.832.754-.833 2.184-2.67 2.184-2.67l-.59-.832s-4.955 2.085-6.299 2.669c-.925-3.167-2.94-5.17-4.96-6.253 3.278-3.918 9.16-7.003 10.504-7.586.754.416 1.263.836 1.597 1-.167.583-2.098 7.003-2.098 7.003l.839.583s5.462-4.167 6.05-4.583c.419.331 1.514 1.082 1.934 1.416-.338.666-2.689 5-2.689 5l.672.754s5.04-1.754 5.882-2.003c.077.13.132.27.164.416l3.954 1.918 3.108-1.918.755.164.17-.164c.42-.334 9.41-7.252 11.512-13.836 2.606-1.082 3.95-2.583 3.95-4.252v-.082c-.085-6.17-19.747-14.007-22.859-15.17l-.003-.004zM11.597 57.671c48.74-14.59 86.721-22.754 112.94-24.426 23.027-1.413 32.355 2.587 36.135 6.17 3.026 2.836 3.026 5.836 2.856 6.836-.164 6.67-6.217 13.42-6.217 13.42l-4.704-.918s18.904-19.17-11.263-22.256c-12.855-1.082-47.73-.249-129.833 21.256l.086-.082zm20.334 8.085c131.515-50.098 118.236-7.252 118.236-7.252l-9.328-1.584c-.082 0 15.377-33.593-108.908 8.836zM52.27 76.593c30.84-24.672 51.849-19.504 51.849-19.504l6.554 7.668S92.856 50.167 52.27 76.593zm24.538 23.174c2.354-37.508 33.613-35.01 33.613-35.01s3.026 3.253 8.15 5.335c0 .249-35.967-3.666-41.763 29.675zm34.79-23.174l2.098 8.086s-33.859 10.423-6.974 68.606c-34.623-64.6 4.876-76.688 4.876-76.688v-.004zm1.511 51.764c.085-1.167 1.597-15.252 1.597-15.252S105.21 95.35 104.79 94.6c.672-.502 10.672-7.836 10.672-7.836s-2.606-10.085-2.773-10.836c.672-.335 9.918-5.167 9.918-5.167l-.17-1.004c-.083 0-10.083-2.164-17.562-14.501.335-.086.673-.253 1.007-.335 1.177-.501 3.698-1 7.816-.501 3.866.42 7.732 1.669 10.84 2.918.085 0 .085 0 .167.085.085 0 .17.082.252.082 1.764.669 3.613 1.502 5.63 2.502 0 .082.085.163.085.163 0 .086.085.086.085.171.082.082.082.164.164.25 0 .081.089.163.089.248 0 .086.082.168.082.25 0 .085.085.167.085.252 0 .082 0 .164.082.25v1.248c0 .086 0 .168-.082.335v.164a1.18 1.18 0 01-.167.501c0 .086-.085.086-.085.168 0 .085-.086.167-.086.334 0 .082-.082.164-.082.25 0 .084-.085.166-.17.248 0 .086-.082.168-.082.253-.085.082-.085.164-.167.249-.086.082-.086.164-.17.25-.083.084-.083.166-.168.252-.085.082-.085.164-.167.249-.085.082-.085.164-.17.249-.083.085-.083.164-.165.25-.085.084-.17.166-.17.252-.085.082-.085.164-.167.249-.086.082-.17.164-.17.249-.083.085-.165.167-.165.25v.084c-.256.335-.508.666-.842 1-3.194 4.086-7.48 9.673-8.656 20.17-1.092 10.004.924 22.758 6.22 38.1-4.79.665-11.682 1.33-12.44 1.412zm43.784-11.501s2.94-1.25 4.872-2.086c-.672.837-1.426 1.751-1.426 1.751l.334.833 5.8 1s2.941-.833 4.538-1.331c-.672.918-1.344 2-1.344 2l.164.75s2.859 1.417 3.698 1.752c-.335.583-.84 1.416-1.007 1.832-4.032-.918-9.914-2.252-10.252-2.416h-.167c-3.87-.334-7.732.082-11.263.416-4.032.417-7.56.833-8.15-.501v-.164c-.42-.502-.59-1.42-.59-2.587 0-1 .17-2.164.59-3.416.085.832 1.177 1.167 1.514 1.334 1.427.498 3.613.747 5.967.833.417 0 .84.082 1.26 0 1.849 0 3.695 0 5.291-.086l.17.086zm-1.18-1.67c-7.056 2-10.67-.917-11.932-2.248.086-.666.338-1.417.672-2.168.505.082 4.456.584 5.633 2.751l.925-.501c-1.262-2.25-4.708-3-6.053-3.25.253-.416.42-.75.505-.918 1.512 0 7.902.168 10.253 6.335h-.004zm22.944-3.081c-.42-.167-2.774-1.335-3.026-1.502-.082-.164-.42-1-.42-1s-3.951 1.335-5.548 1.918c.758-1.416 2.525-4.669 2.525-4.669l-3.364-2.416s-3.698 2.833-5.377 4.082c.59-1.915 1.85-6.082 1.85-6.082l-.253-.252a11.767 11.767 0 00-6.135-2.751h-.085c-.167 0-.334 0-.42-.082h-1.344a15.705 15.705 0 016.557-.335c5.04.918 9.492 4.253 11.932 9.004.501 1.082.754 1.836.839 2l.085.249 3.78.836c-.672.416-1.344.833-1.596 1zm-1.43-6.335c-1.511-2.085-.84-3.501-1.849-4.918a10.374 10.374 0 00-1.597-1.836c-9.242-6.754-19.075-.498-22.183 1.918-.754.499-1.512 1.168-2.184 1.836a25.059 25.059 0 00-2.524 2.666c-.755.833-1.427 1.666-2.014 2.584l-.085.082c0 .085-.085.085-.085.167-2.521 3.75-3.613 7.338-3.613 10.003 0 1.335.252 2.417.84 3.167.924 1.918 4.37 1.584 9.16 1.082 2.859-.33 6.134-.665 9.328-.498 4.957 1.25 12.016 3.082 12.773 3.252-.337.666-.924 2-1.682 3.666-1.934 4.167-4.704 9.672-8.065 12.84l-.42.416a4.216 4.216 0 01-1.18.833c-1.344.918-2.689 1.416-4.197 1.416-1.18.25-2.524.334-4.033.416h-.675c-.252 0-.334-.082-.334-.082-.086 0-.253-.085-.423-.167a1.76 1.76 0 01-.502-.334c-.843-.584-1.85-1.417-2.269-1.499-1.85 0-4.456.666-5.715 1.082-.252.086-.505.168-.672.25-.505-.499-12.187-12.42-12.44-12.67 0-.334-.163-4.252-.163-4.252l-.59-.498s-1.263.164-3.112.334c-9.495-36.095-2.603-44.262 4.623-52.852 1.764-2.082 3.531-4.164 5.043-6.666 0 0 0-.082.085-.082.164-.334.335-.583.502-.918v-.082l1.01-2v-.085c.19-.34.33-.704.42-1.082v-.085c.166-.335.252-.751.419-1.082v-.085c.252-.751.59-1.584.754-2.502.085-.416.256-.833.338-1.331 0-.167.085-.253.085-.42 9.16 1.167 22.607 3.918 32.354 10.003 1.26.754 2.184 1.417 2.603 1.836l.168.164v.086c-.082.082-.25.164-.335.334-.924.833-3.193 2.584-3.193 2.584l-.086 2.164s.338-.082.925-.164c.17.416.59 1.416.843 2v.082l-1.85-.748v.918s3.78 1.58 8.486 3.833c6.22 2.75 14.288 7 16.472 10.587-.167-.085-.253-.253-.42-.335-5.967-1.583-11.597-1.75-11.597-1.668l-.085.085 1.682 4.334 1.007 2.417.085-.082c0-.335-.505-4.754-.59-5.253.338.417 3.446 4.167 3.869 4.669h.164c-1.932 8.754-10.335 12.502-13.276 10.17zm-3.023-30.927c0 .167-.085.334-.085.501-.085-.167-.252-.416-.338-.669l.423.168zm-.675-2.335v1.502a3.489 3.489 0 00-.164-.417l-1.433.25c.676-.584 1.18-.918 1.597-1.335zm20.17 24.174l-.252.085-.085.25c-.925 3.081-3.528 6.334-6.05 8.835 2.351-3.583 6.132-9.42 6.132-9.501.17-.085 2.354-1.335 3.53-2.42-.252 1.082-1.343 2-3.278 2.754l.003-.003z" fill="#000"/><path d="M156.892 68.928l-.42.334.587 4.584.754.416 4.203-2.498v-.334c.42.334.505.334.925.75-.085 0-4.957 2.417-5.967 2.918-.164-1.167-1.092-6.668-1.092-6.754.167 0 .505.253 1.01.584zm0 47.931s2.94-1.25 4.872-2.085c-.672.836-1.426 1.75-1.426 1.75l.334.833 5.8 1s2.941-.832 4.538-1.33c-.672.917-1.344 2-1.344 2l.164.75s2.859 1.416 3.698 1.75c-.335.584-.84 1.417-1.007 1.834-4.032-.918-9.914-2.253-10.252-2.417h-.167c-3.87-.334-7.732.082-11.263.417-4.032.416-7.56.832-8.15-.502v-.164c-.42-.502-.59-1.42-.59-2.587 0-1 .17-2.164.59-3.416.085.833 1.177 1.167 1.514 1.334 1.427.499 3.613.748 5.967.833.417 0 .84.082 1.26 0 1.849 0 3.695 0 5.291-.085l.17.085z" fill="#FFF"/><path d="M155.715 115.19c-7.06 2-10.672-.918-11.935-2.249.086-.666.338-1.416.672-2.167.505.082 4.456.583 5.633 2.75l.925-.501c-1.262-2.25-4.708-3-6.053-3.25.253-.416.42-.75.505-.917 1.512 0 7.902.167 10.253 6.334zm22.94-3.082c-.419-.167-2.773-1.334-3.025-1.501-.082-.164-.42-1-.42-1s-3.951 1.334-5.548 1.918c.758-1.417 2.525-4.67 2.525-4.67l-3.364-2.416s-3.698 2.833-5.377 4.082c.59-1.914 1.85-6.082 1.85-6.082l-.253-.252a11.767 11.767 0 00-6.135-2.75h-.085c-.167 0-.334 0-.42-.083h-1.344a15.705 15.705 0 016.557-.334c5.04.918 9.492 4.252 11.932 9.003.501 1.082.754 1.836.839 2l.085.25 3.78.835c-.672.417-1.344.833-1.596 1zm-4.452-37.262c0 .167-.085.334-.085.502-.085-.168-.252-.417-.338-.67l.423.168zm-.675-2.335v1.502a3.489 3.489 0 00-.164-.416l-1.433.249c.676-.584 1.18-.918 1.597-1.335z" fill="#FFF"/></g></svg>