<svg id="Layer_1" data-name="Layer 1" xmlns="http://www.w3.org/2000/svg" viewBox="0 0 600 200"><defs><style>.cls-2{fill:#fff}.cls-3{fill:#183159}</style></defs><path d="M108.278 5h383.444C548.761 5 595 47.533 595 100h0c0 52.467-46.24 95-103.278 95H108.278C51.239 195 5 152.467 5 100h0C5 47.533 51.24 5 108.278 5z" stroke="#183159" stroke-miterlimit="10" stroke-width="10" fill="#fff"/><path class="cls-2" d="M163.508 162.32V29.318h12.935v119.7h33.992v13.3zM279.095 160.135a46.567 46.567 0 01-8.874 3.135 45.125 45.125 0 01-11.205 1.33 87.269 87.269 0 01-10.002-.476 24.282 24.282 0 01-7.144-1.9q-3.159-1.425-5.566-2.754a11.726 11.726 0 01-4.286-4.56q-1.882-3.23-3.083-5.51a25.713 25.713 0 01-2.03-7.41q-.83-5.13-1.28-8.645-.45-3.514-.6-10.926-.304-14.436-.302-27.17 0-12.727.15-19.19.149-6.457.678-15.58.525-9.12 1.88-13.015 1.353-3.892 3.61-8.93 2.255-5.032 5.865-6.935a46.854 46.854 0 0120.305-4.56q10.678 0 16.921 2.755a30.27 30.27 0 019.852 6.555q3.61 3.803 5.19 14.06a162.06 162.06 0 011.879 18.62q.3 8.363.3 24.415 0 16.058-.15 22.515-.151 6.461-.676 15.58-.53 9.12-1.88 13.016-1.354 3.896-3.61 8.835-2.257 4.942-5.942 6.745zm-.827-34.486V65.99q0-15.199-2.556-18.43-3.762-5.13-8.198-6.08a44.899 44.899 0 00-9.4-.95 42.262 42.262 0 00-8.574.76 12.613 12.613 0 00-5.79 2.66 23.904 23.904 0 00-3.46 3.61 12.421 12.421 0 00-1.88 5.32 107.306 107.306 0 00-.601 13.11v59.66q0 15.203 2.406 18.43 3.91 5.13 8.423 6.08a45.737 45.737 0 009.476.95 40.94 40.94 0 008.498-.76 12.528 12.528 0 005.715-2.66 23.986 23.986 0 003.46-3.61 11.359 11.359 0 001.73-5.32 86.307 86.307 0 00.751-13.11zM368.06 126.03q0 17.86-6.768 28.214-6.768 10.358-22.186 10.356a57.536 57.536 0 01-28.201-7.03l2.707-11.78a60.404 60.404 0 0024.667 5.32q8.873 0 13.01-5.51 4.135-5.51 4.137-16.91 0-11.401-2.256-17.29-2.258-5.888-9.476-7.22l-14.89-2.66q-10.53-2.09-14.063-10.831-3.536-8.737-3.535-26.41 0-17.67 7.295-27.455 7.293-9.784 20.154-9.785a60.229 60.229 0 0125.795 6.08l-2.707 11.4a61.81 61.81 0 00-20.38-3.99q-9.102 0-13.311 4.655-4.213 4.658-4.211 17.385 0 12.732 2.18 18.24 2.179 5.513 8.8 6.65l14.137 2.66a20.445 20.445 0 0114.364 9.975q4.739 8.078 4.737 25.935zM441.759 126.03q0 17.86-6.769 28.214-6.769 10.358-22.186 10.356a57.536 57.536 0 01-28.2-7.03l2.706-11.78a60.404 60.404 0 0024.667 5.32q8.873 0 13.011-5.51 4.135-5.51 4.136-16.91 0-11.401-2.256-17.29-2.256-5.888-9.476-7.22l-14.89-2.66q-10.53-2.09-14.064-10.831-3.536-8.737-3.534-26.41 0-17.67 7.295-27.455 7.293-9.784 20.154-9.785a60.229 60.229 0 0125.795 6.08l-2.707 11.4a61.81 61.81 0 00-20.38-3.99q-9.102 0-13.311 4.655-4.213 4.658-4.212 17.385 0 12.732 2.182 18.24 2.178 5.513 8.798 6.65l14.138 2.66a20.443 20.443 0 0114.364 9.975q4.738 8.078 4.739 25.935z"/><path class="cls-3" d="M114.181 27.704h16.53v114.192h54.721v13.87h-71.25zM305.892 90.405c0 44.08-26.79 67.45-59.47 67.45-33.82 0-57.57-26.22-57.57-64.98 0-40.66 25.27-67.261 59.47-67.261 34.96 0 57.57 26.79 57.57 64.79zm-99.37 2.09c0 27.36 14.82 51.871 40.85 51.871 26.22 0 41.04-24.13 41.04-53.201 0-25.46-13.3-52.061-40.85-52.061-27.36 0-41.04 25.27-41.04 53.39zM325.08 135.626a58.583 58.583 0 0029.641 8.36c16.91 0 26.79-8.93 26.79-21.85 0-11.97-6.84-18.81-24.13-25.461-20.9-7.41-33.82-18.24-33.82-36.29 0-19.95 16.53-34.771 41.42-34.771 13.11 0 22.61 3.04 28.31 6.27l-4.56 13.49a51.003 51.003 0 00-24.32-6.08c-17.48 0-24.13 10.45-24.13 19.19 0 11.97 7.79 17.86 25.46 24.7 21.66 8.361 32.68 18.811 32.68 37.622 0 19.76-14.63 36.86-44.84 36.86-12.35 0-25.84-3.61-32.68-8.17zM418.75 135.626a58.583 58.583 0 0029.64 8.36c16.91 0 26.79-8.93 26.79-21.85 0-11.97-6.84-18.81-24.13-25.461-20.9-7.41-33.82-18.24-33.82-36.29 0-19.95 16.53-34.771 41.42-34.771 13.11 0 22.61 3.04 28.31 6.27l-4.56 13.49a51.003 51.003 0 00-24.32-6.08c-17.48 0-24.13 10.45-24.13 19.19 0 11.97 7.79 17.86 25.46 24.7 21.661 8.361 32.68 18.811 32.68 37.622 0 19.76-14.63 36.86-44.84 36.86-12.35 0-25.84-3.61-32.68-8.17z"/></svg>