<?xml version="1.0" encoding="UTF-8"?>
<svg width="200px" height="200px" viewBox="0 0 200 200" version="1.1" xmlns="http://www.w3.org/2000/svg" xmlns:xlink="http://www.w3.org/1999/xlink">
    <!-- Generator: Sketch 54.1 (76490) - https://sketchapp.com -->
    <title>mckendree</title>
    <desc>Created with Sketch.</desc>
    <g id="mckendree" stroke="none" stroke-width="1" fill="none" fill-rule="evenodd">
        <g id="mckendree_BGD">
            <g id="mckendree" transform="translate(0.000000, 55.000000)">
                <path d="M101.560284,0.0141304348 C102.638298,0.0989130435 103.730496,0.0282608696 104.822695,0.0706521739 C105.432624,0.141304348 106.056738,0.0847826087 106.666667,0.0989130435 C107.191489,0.169565217 107.702128,0.127173913 108.22695,0.141304348 C123.730496,0.536956522 139.29078,1.76630435 154.609929,4.25326087 C157.64539,4.74782609 160.666667,5.2 163.687943,5.77934783 C175.900709,8.06847826 188,11.0782609 199.843972,14.8652174 L199.929078,14.9358696 C199.957447,24.9402174 199.929078,35.0434783 199.943262,45.0478261 L199.858156,45.1326087 C198.326241,44.5815217 196.851064,44.0586957 195.29078,43.55 C183.985816,39.876087 172.368794,37.0641304 160.70922,34.8032609 C154.35461,33.573913 147.971631,32.5282609 141.560284,31.6380435 C141.29078,31.6380435 141.021277,31.4826087 140.765957,31.5815217 C141.475177,32.4858696 142.113475,33.5597826 142.326241,34.7043478 C143.560284,34.9304348 144.723404,35.4673913 145.588652,36.3858696 C146.170213,36.6402174 146.737589,36.8804348 147.191489,37.3326087 C147.304965,37.4315217 147.41844,37.601087 147.574468,37.6434783 C148.510638,37.8836957 149.390071,38.2369565 150.255319,38.6608696 C152.48227,39.748913 154.468085,41.176087 156.411348,42.7021739 C157.617021,43.7336957 158.666667,45.0336957 159.035461,46.6021739 C159.404255,48.0717391 158.921986,49.5978261 158.113475,50.8413043 C157.021277,52.4945652 155.460993,53.8369565 153.787234,54.8826087 C152.907801,56.9456522 151.51773,58.7826087 149.77305,60.2097826 C148.085106,61.5663043 146.113475,62.6543478 144.014184,63.2336957 C142.822695,65.2402174 141.205674,66.9641304 139.219858,68.2076087 C137.06383,69.55 134.510638,70.3271739 131.971631,70.3695652 C132.723404,72.1782609 133.06383,74.1565217 132.48227,76.0641304 C132.638298,76.1206522 132.723404,76.2054348 132.751773,76.3043478 C132.808511,78.9891304 131.914894,81.9282609 130.014184,83.9065217 C128.425532,85.5880435 126.326241,86.9021739 124.056738,87.4108696 C120.737589,89.6152174 116.808511,90.5336957 112.879433,90.8586957 C112.212766,90.8728261 111.489362,91.0141304 110.836879,90.9152174 C111.134752,90.4206522 111.574468,89.8978261 111.730496,89.3467391 C108.382979,89.9967391 104.893617,89.9684783 101.531915,89.4456522 C99.3191489,89.0641304 97.0921986,88.498913 95.035461,87.6086957 L95.0496454,87.523913 C95.6453901,87.1847826 96.2695035,86.873913 96.8510638,86.5065217 L96.8510638,86.3934783 C92.5390071,85.3902174 88.1843972,83.1152174 84.893617,80.176087 C84.6808511,79.95 84.3404255,79.723913 84.1985816,79.4413043 C86.1702128,79.1869565 88.1843972,78.8902174 90.0425532,78.1413043 L90.0141844,78.0282609 C88.4539007,75.6826087 86.6241135,73.5206522 84.6099291,71.5423913 C81.4184397,68.3771739 77.7021277,65.65 73.8723404,63.2902174 C68.212766,59.8282609 62.070922,57.0163043 55.8439716,54.6847826 C49.5177305,52.325 43.0070922,50.4032609 36.4397163,48.848913 C32.6099291,47.9445652 28.7375887,47.1391304 24.8510638,46.5456522 L24.893617,46.3902174 C25.5035461,46.15 26.0851064,45.8532609 26.6950355,45.5847826 C30.6950355,43.8184783 34.7801418,42.2358696 38.9219858,40.7945652 C39.0496454,40.723913 39.3758865,40.7380435 39.3758865,40.5684783 C37.0780142,40.4130435 34.7375887,40.1728261 32.4255319,40.2434783 C32.4964539,40.1304348 32.5957447,40.0597826 32.7092199,40.0032609 C37.6595745,37.6858696 42.7659574,35.6793478 47.9858156,34.0543478 L48.0283688,33.9554348 C46.9503546,33.9271739 45.8297872,33.5597826 44.7659574,33.6445652 C37.2624113,35.0434783 29.787234,36.725 22.3829787,38.6326087 C14.9361702,40.5826087 7.46099291,42.7728261 0.141843972,45.3586957 C0.141843972,43.2815217 0.127659574,41.2184783 0.156028369,39.1413043 C0.156028369,33.9130435 0.156028369,28.6847826 0.156028369,23.4565217 C0.156028369,23.2163043 0.212765957,22.9902174 0.19858156,22.75 C0.19858156,20.1217391 0.212765957,17.5076087 0.19858156,14.8793478 C0.567375887,14.6673913 1.03546099,14.5967391 1.44680851,14.4413043 C11.7588652,11.2902174 22.2269504,8.53478261 32.7943262,6.40108696 C33.6879433,6.24565217 34.5957447,6.01956522 35.4893617,5.92065217 C35.5177305,6.95217391 35.5035461,7.99782609 35.5035461,9.02934783 C35.6737589,9.07173913 35.858156,8.98695652 36.0425532,8.95869565 C38.5957447,8.43586957 41.1631206,7.95543478 43.7304965,7.48913043 C43.8014184,6.61304348 43.7446809,5.59565217 43.7588652,4.70543478 C43.8156028,4.52173913 44.1134752,4.56413043 44.2695035,4.52173913 C47.5602837,3.9 50.893617,3.43369565 54.1985816,2.98152174 C65.8014184,1.49782609 77.4184397,0.67826087 89.0921986,0.211956522 C93.1205674,0.0565217391 97.5177305,-2.12330153e-15 101.560284,0.0141304348 Z" id="Shape" fill="#C1A42F" fill-rule="nonzero"></path>
                <path d="M97.1631206,1.96413043 C97.9574468,1.95 98.7801418,2.00652174 99.5744681,1.93586957 C105.319149,1.89347826 110.865248,2.07717391 116.595745,2.33152174 C121.730496,2.58586957 126.93617,2.82608696 132.056738,3.39130435 C132.921986,4.02717391 133.787234,4.73369565 134.624113,5.42608696 L134.751773,5.44021739 C134.751773,4.84673913 134.751773,4.23913043 134.751773,3.64565217 C137.163121,3.8576087 139.574468,4.14021739 141.985816,4.39456522 C146,4.875 150.056738,5.35543478 154.042553,6.09021739 C154.950355,6.74021739 155.801418,7.60217391 156.737589,8.22391304 C156.737589,7.67282609 156.695035,7.09347826 156.751773,6.5423913 C159.87234,7.07934783 162.992908,7.63043478 166.113475,8.23804348 C176.836879,10.3434783 187.617021,12.8586957 197.985816,16.3206522 C198.070922,16.5043478 198.014184,16.7586957 198.028369,16.9706522 C198.028369,25.4913043 198.028369,34.026087 198.028369,42.5467391 C196.297872,41.8967391 194.524823,41.3173913 192.751773,40.7380435 C183.503546,37.8130435 174.042553,35.4815217 164.539007,33.5456522 C157.41844,32.1043478 150.340426,30.9032609 143.134752,29.9141304 C140.35461,29.5043478 137.546099,29.2076087 134.765957,28.8402174 C134.70922,28.1619565 134.765957,27.4554348 134.737589,26.7771739 C133.985816,27.2293478 133.234043,27.6815217 132.496454,28.1478261 L132.510638,28.2467391 C134.794326,29.151087 137.163121,30.451087 138.836879,32.2880435 C139.900709,33.475 140.695035,34.9304348 140.624113,36.5695652 C142.141844,36.4706522 143.631206,36.8945652 144.609929,38.123913 C145.191489,38.3217391 145.787234,38.6043478 146.212766,39.0706522 C146.326241,39.1836957 146.397163,39.3956522 146.553191,39.4380435 C147.41844,39.5228261 148.269504,39.8478261 149.06383,40.1869565 C151.41844,41.2891304 153.588652,42.9141304 155.560284,44.5815217 C156.241135,45.2032609 156.893617,46.0369565 157.134752,46.9554348 C157.404255,48.2130435 156.93617,49.3293478 156.198582,50.3326087 C155.177305,51.6326087 153.843972,52.6641304 152.425532,53.5119565 C152.141844,53.8369565 152.042553,54.3456522 151.787234,54.7130435 C150.099291,57.9913043 147.049645,60.5206522 143.432624,61.3543478 C143.177305,61.4391304 142.865248,61.3684783 142.751773,61.6652174 C141.177305,64.4630435 138.851064,66.7663043 135.744681,67.826087 C133.673759,68.5184783 131.404255,68.6315217 129.276596,68.2217391 C128.879433,68.1793478 128.496454,68.0097826 128.113475,67.9815217 C128.198582,68.2076087 128.425532,68.3771739 128.567376,68.5467391 C129.801418,69.973913 130.723404,71.7543478 130.836879,73.6619565 C130.950355,74.8630435 130.70922,76.0358696 130.255319,77.1521739 C130.382979,77.2228261 130.524823,77.2934783 130.652482,77.3641304 C130.609929,79.3565217 129.843972,81.3347826 128.48227,82.8043478 C127.262411,84.1043478 125.617021,85.0793478 123.886525,85.5315217 L123.815603,85.2630435 C122.652482,86.1956522 121.333333,86.9021739 119.943262,87.4532609 C118.156028,88.1456522 116.241135,88.6543478 114.326241,88.7956522 C114.737589,88.0467391 115.148936,87.1847826 115.375887,86.3652174 C111.503546,87.8206522 107.234043,88.2445652 103.148936,87.7076087 C102.099291,87.5663043 101.021277,87.4108696 100.014184,87.0717391 L100.042553,86.9728261 C100.93617,86.5206522 101.787234,85.9695652 102.638298,85.4608696 L102.652482,85.3336957 C101.205674,85.2771739 99.7446809,85.051087 98.3120567,84.7684783 C94.9078014,84.0336957 91.5177305,82.7054348 88.6666667,80.6847826 L88.6382979,80.5858696 C90.0567376,80.275 91.7163121,79.7521739 92.7801418,78.7206522 C92.2553191,77.6608696 91.5460993,76.6434783 90.8794326,75.6543478 C89.177305,73.3086957 87.177305,71.1467391 85.0212766,69.1967391 C81.1205674,65.65 76.6950355,62.6119565 72.1276596,59.9978261 C67.3900709,57.3130435 62.3971631,55.0804348 57.3049645,53.1445652 C51.5602837,50.9684783 45.6595745,49.1597826 39.7163121,47.6336957 C36.9929078,46.9554348 34.2411348,46.2630435 31.4893617,45.7826087 C31.5319149,45.6978261 31.6028369,45.6413043 31.7163121,45.6130435 C36.9361702,43.4228261 42.3262411,41.501087 47.8297872,40.1869565 C48.0567376,40.1021739 48.5106383,40.1304348 48.6524823,39.9184783 C46.4113475,39.4097826 44.141844,39.0141304 41.8439716,38.8445652 C41.5319149,38.7880435 41.106383,38.8586957 40.8510638,38.675 C40.9787234,38.6326087 41.106383,38.6043478 41.2198582,38.5619565 C44.3829787,37.2478261 47.6170213,36.1597826 50.9219858,35.2413043 C53.0638298,34.6619565 55.2198582,34.0967391 57.4184397,33.7434783 C57.3617021,33.6445652 57.2765957,33.5880435 57.1489362,33.5597826 C55.106383,33.0369565 53.0070922,32.5565217 50.9078014,32.3728261 C51.035461,32.1467391 51.4184397,32.0902174 51.6453901,31.9913043 C53.8014184,31.1434783 55.8156028,30.55 58.0283688,29.8858696 C56.751773,29.9423913 55.4609929,30.1826087 54.1843972,30.2956522 C51.3758865,30.6771739 48.5531915,31.0304348 45.7730496,31.5532609 C45.7163121,31.2282609 45.7588652,30.8891304 45.7588652,30.5641304 C45.5319149,30.5217391 45.3900709,30.8326087 45.2198582,30.9597826 C44.9078014,31.2282609 44.7092199,31.5956522 44.3829787,31.8076087 C41.3758865,32.2880435 38.3120567,32.9097826 35.3191489,33.4467391 C34.7092199,33.1641304 34.1560284,32.7826087 33.5319149,32.5423913 C33.5177305,32.9521739 33.5886525,33.4043478 33.5177305,33.8141304 C23.9007092,35.976087 14.3829787,38.6184783 5.0070922,41.6282609 C4.0141844,41.925 2.9929078,42.348913 2,42.5608696 C1.97163121,38.9576087 2,35.2836957 1.9858156,31.6663043 C1.9858156,31.525 1.9858156,31.3978261 2.0141844,31.2706522 C2.5106383,31.101087 3.0212766,30.9597826 3.5035461,30.776087 C3.5035461,29.5326087 3.5035461,28.2891304 3.5035461,27.0456522 C2.9929078,27.1304348 2.4964539,27.4130435 2,27.4695652 C1.97163121,23.7673913 2.0141844,20.0228261 2.0141844,16.3065217 C6.9787234,14.6956522 12,13.3108696 17.0496454,12.0108696 L17.1914894,12.0391304 C17.3191489,12.448913 17.4326241,12.8586957 17.5460993,13.2684783 L17.6737589,13.2543478 C17.787234,12.7597826 17.9432624,12.2793478 18.070922,11.7847826 C18.1560284,11.7282609 18.2411348,11.6858696 18.3404255,11.6717391 C23.2056738,10.4282609 28.1276596,9.28369565 33.0496454,8.29456522 C33.248227,8.25217391 33.4468085,8.19565217 33.6453901,8.20978261 C33.6737589,9.36847826 33.6595745,10.5271739 33.6453901,11.6858696 C33.8723404,11.7565217 33.9574468,11.3326087 34.1985816,11.3184783 C37.2056738,10.6826087 40.2553191,10.0891304 43.2765957,9.52391304 C44.0283688,9.82065217 44.7943262,10.2163043 45.5460993,10.5554348 L45.6737589,10.5413043 C45.6595745,9.21304348 45.6737589,7.87065217 45.6595745,6.5423913 C45.6453901,6.41521739 45.6737589,6.30217391 45.7304965,6.18913043 C55.8865248,4.60652174 66.1985816,3.36304348 76.4539007,2.72717391 C83.3617021,2.35978261 90.2553191,2.06304348 97.1631206,1.96413043 Z" id="Shape" fill="#FFFFFF" fill-rule="nonzero"></path>
                <path d="M131.744681,4.25326087 C132.879433,5.1576087 134.014184,6.04782609 135.148936,6.95217391 C135.319149,7.06521739 135.446809,7.27717391 135.659574,7.29130435 C135.631206,6.38695652 135.64539,5.4826087 135.64539,4.5923913 C141.673759,5.21413043 147.758865,5.92065217 153.730496,6.93804348 C154.865248,7.88478261 156.014184,8.8173913 157.134752,9.77826087 C157.262411,9.87717391 157.390071,10.0467391 157.560284,10.0326087 C157.546099,9.21304348 157.560284,8.39347826 157.546099,7.58804348 C157.787234,7.58804348 158.028369,7.65869565 158.269504,7.68695652 C164.113475,8.69021739 169.943262,9.86304348 175.730496,11.1771739 C182.950355,12.8304348 190.085106,14.6815217 197.148936,16.9706522 C197.163121,20.701087 197.148936,24.4597826 197.163121,28.1902174 C196.297872,28.0347826 195.06383,27.5826087 194.156028,27.3706522 C194.156028,27.7945652 194.113475,28.2467391 194.170213,28.6706522 C195.148936,28.9673913 196.141844,29.2782609 197.120567,29.575 C197.134752,33.4608696 197.120567,37.3608696 197.120567,41.2467391 L197.007092,41.275 C192.042553,39.5228261 186.978723,38.0532609 181.914894,36.6967391 C166.907801,32.7119565 151.602837,29.8858696 136.170213,28.1902174 C136.014184,28.1478261 135.730496,28.2043478 135.602837,28.0913043 C135.602837,27.1021739 135.602837,26.098913 135.602837,25.1097826 C134.170213,25.9434783 132.765957,26.8478261 131.333333,27.6815217 C131.106383,27.7097826 130.865248,27.5826087 130.652482,27.5119565 C128.695035,26.8336957 126.695035,26.3673913 124.666667,25.9858696 C120.453901,25.1804348 116.170213,24.6434783 111.900709,24.2336957 C111.191489,24.1913043 110.496454,24.05 109.77305,24.0782609 C110.48227,23.9793478 111.262411,24.0782609 111.985816,24.0923913 C111.943262,19.3304348 111.985816,14.4978261 111.971631,9.72173913 C111.957447,9.59456522 111.971631,9.4673913 112,9.35434783 C112.496454,9.39673913 113.007092,9.425 113.51773,9.43913043 C113.546099,8.13913043 113.546099,6.7826087 113.51773,5.4826087 C111.021277,5.44021739 108.453901,5.32717391 105.943262,5.29891304 C105.234043,5.21413043 104.48227,5.34130435 103.77305,5.21413043 L103.659574,5.28478261 C103.659574,6.58478261 103.659574,7.88478261 103.659574,9.18478261 C104.12766,9.19891304 104.595745,9.18478261 105.06383,9.18478261 C105.092199,10.725 105.06383,12.2793478 105.078014,13.8336957 L104.978723,13.7771739 C103.475177,10.9652174 101.900709,8.15326087 100.382979,5.34130435 L100.283688,5.27065217 C97.7730496,5.29891304 95.3617021,5.2423913 92.8510638,5.31304348 C92.8368794,6.59891304 92.8652482,7.88478261 92.8368794,9.17065217 L92.893617,9.26956522 C93.2765957,9.31195652 93.929078,9.17065217 94.2411348,9.34021739 C94.2411348,12.7597826 94.2269504,16.1793478 94.2411348,19.5847826 C93.8014184,19.6836957 93.2624113,19.5282609 92.8368794,19.6978261 C92.8510638,20.1782609 92.8510638,20.6586957 92.8368794,21.125 C91.929078,20.9836957 91.0070922,20.8706522 90.0992908,20.8 L90.0141844,20.7434783 C89.9858156,19.6413043 90.0141844,18.4967391 90,17.3945652 C88.9787234,17.4086957 87.9432624,17.4793478 86.9219858,17.5217391 C86.6808511,17.5923913 86.1843972,17.4369565 86.0425532,17.648913 C86.0141844,18.3836957 86.0567376,19.1043478 86.0283688,19.8391304 C84.9361702,19.8532609 83.6879433,19.9804348 82.6241135,19.9663043 C82.6241135,18.8217391 82.6382979,17.6630435 82.6241135,16.5184783 L82.6808511,16.4195652 C84.0992908,16.3771739 85.5319149,16.2641304 86.9503546,16.2358696 C86.9929078,14.95 86.9503546,13.6641304 86.964539,12.3782609 C85.5319149,12.3641304 84.0283688,12.4771739 82.5957447,12.5336957 C82.5957447,11.5728261 82.6099291,10.5978261 82.5815603,9.63695652 C83.7446809,9.52391304 84.964539,9.56630435 86.141844,9.50978261 C86.141844,10.0891304 86.1560284,10.6684783 86.1276596,11.2478261 C87.4184397,11.2619565 88.7375887,11.1630435 90.0283688,11.1206522 L90.0851064,11.0358696 C90.070922,9.1423913 90.0851064,7.26304348 90.070922,5.36956522 C85.5744681,5.44021739 80.9219858,5.75108696 76.4255319,6.00543478 C75.5744681,6.10434783 74.5957447,6.06195652 73.7730496,6.2173913 C73.7730496,7.5173913 73.7730496,8.83152174 73.7730496,10.1315217 C74.2836879,10.1173913 74.8085106,10.0608696 75.3191489,10.0326087 C75.3191489,13.4521739 75.3333333,16.9282609 75.3191489,20.3336957 L75.2340426,20.4184783 C74.7375887,20.4608696 74.2553191,20.475 73.7588652,20.5315217 C73.7588652,21.9728261 73.7588652,23.4141304 73.7588652,24.8554348 C73.8865248,24.8695652 74.0141844,24.8836957 74.1560284,24.8695652 C75.2340426,24.7565217 76.3404255,24.7706522 77.4042553,24.6434783 C77.4326241,24.8130435 77.2624113,24.926087 77.177305,25.0673913 C76.8794326,25.4913043 76.6241135,25.9434783 76.4255319,26.423913 C72.9929078,26.8054348 69.5886525,27.3282609 66.1985816,27.9782609 C65.5886525,28.1195652 64.9787234,28.1478261 64.3546099,28.2184783 C58.3404255,28.826087 52.4255319,29.6032609 46.4539007,30.5641304 C46.4397163,29.9423913 46.4397163,29.3065217 46.4539007,28.6847826 C45.5886525,29.3771739 44.7801418,30.2956522 43.9148936,30.9597826 C41.0780142,31.4826087 38.2411348,31.9913043 35.4042553,32.5141304 L35.2765957,32.5 C34.3546099,32.0336957 33.4751773,31.4967391 32.5531915,31.0445652 C32.5248227,31.7086957 32.5531915,32.3728261 32.5390071,33.0369565 C32.4255319,33.15 32.1560284,33.1358696 32,33.1923913 C27.3475177,34.2945652 22.7092199,35.4673913 18.0992908,36.7108696 C12.9929078,38.1097826 7.88652482,39.5652174 2.89361702,41.3315217 L2.80851064,41.2891304 C2.82269504,38.1663043 2.80851064,35.0576087 2.80851064,31.9347826 C3.19148936,31.6663043 3.92907801,31.6380435 4.29787234,31.3554348 C4.29787234,29.5184783 4.28368794,27.6956522 4.29787234,25.8586957 C3.80141844,25.9293478 3.31914894,26.1836957 2.83687943,26.2543478 C2.85106383,23.1315217 2.83687943,20.0228261 2.83687943,16.9 C7.34751773,15.4728261 11.8439716,14.2576087 16.4113475,13.0565217 L16.5248227,13.098913 C16.8085106,14.1445652 17.1205674,15.176087 17.4184397,16.2076087 C17.4751773,16.3630435 17.4893617,16.5608696 17.6170213,16.673913 C17.9148936,15.2608696 18.3546099,13.8478261 18.6950355,12.448913 C20.3829787,11.9826087 22.0992908,11.601087 23.8014184,11.1913043 C26.7234043,10.5130435 29.7730496,9.80652174 32.7092199,9.26956522 C32.7092199,10.7673913 32.7092199,12.2793478 32.7092199,13.7771739 C33.3049645,13.423913 33.929078,12.4913043 34.5531915,12.123913 C37.3758865,11.5163043 40.2269504,10.9793478 43.0638298,10.4565217 C43.3191489,10.4847826 43.5460993,10.6402174 43.7730496,10.7391304 C44.6808511,11.148913 45.5602837,11.5869565 46.4680851,12.0108696 C46.4822695,10.3293478 46.4539007,8.64782609 46.4822695,6.96630435 C56.2411348,5.35543478 66.070922,4.35217391 75.8865248,3.68804348 C80.4539007,3.37717391 84.9219858,3.16521739 89.5035461,3.02391304 C103.446809,2.6 117.858156,2.93913043 131.744681,4.25326087 Z" id="Shape" fill="#532C7F" fill-rule="nonzero"></path>
                <path d="M116.12766,5.59565217 C116.58156,5.53913043 117.007092,5.62391304 117.446809,5.62391304 C121.914894,5.87826087 126.397163,6.18913043 130.851064,6.58478261 C131.77305,7.34782609 132.695035,8.125 133.617021,8.88804348 C134.113475,9.34021739 134.794326,9.80652174 135.234043,10.2869565 C135.219858,14.2717391 135.248227,18.525 135.219858,22.4673913 C133.744681,23.3717391 132.255319,24.3043478 130.780142,25.2086957 C130.58156,25.2228261 130.397163,25.2086957 130.198582,25.1804348 C125.531915,24.8271739 120.836879,24.5163043 116.170213,24.2478261 L116.12766,24.148913 C116.141844,22.7358696 116.12766,21.3228261 116.141844,19.9097826 C116.624113,19.923913 117.148936,19.923913 117.617021,20.0086957 L117.702128,19.9380435 C117.702128,16.4902174 117.702128,13.0565217 117.702128,9.60869565 C117.248227,9.53804348 116.680851,9.53804348 116.212766,9.53804348 L116.141844,9.4673913 C116.12766,8.18152174 116.156028,6.88152174 116.12766,5.59565217 Z" id="Shape" fill="#FFFFFF" fill-rule="nonzero"></path>
                <path d="M70.4964539,6.42934783 C70.4680851,7.67282609 70.5390071,9.18478261 70.4680851,10.3858696 C69.7588652,10.4282609 69.0638298,10.5271739 68.3546099,10.5836957 C66.9929078,12.0956522 65.5177305,13.876087 64.1560284,15.4304348 L64.1560284,15.501087 C65.9432624,17.2391304 67.8297872,19.0902174 69.6312057,20.8423913 C70.2553191,20.8423913 70.9078014,20.6869565 71.5319149,20.7152174 C71.5177305,22.1565217 71.5460993,23.5978261 71.5177305,25.0391304 C67.858156,25.3217391 63.929078,25.8304348 60.2836879,26.1836957 C60.2836879,24.7706522 60.2836879,23.3434783 60.2836879,21.9304348 C60.6808511,21.7608696 61.3617021,21.775 61.8156028,21.7184783 C61.8156028,21.6195652 61.787234,21.5347826 61.7163121,21.4782609 C60.4964539,20.15 59.3049645,18.7793478 58.0992908,17.451087 C57.9858156,17.323913 57.8723404,17.1684783 57.7304965,17.0836957 C57.7304965,18.7652174 57.7304965,20.4467391 57.7304965,22.1141304 C58.0992908,22.2130435 58.751773,21.9869565 59.1914894,22.001087 C59.1914894,23.4282609 59.1914894,24.8695652 59.1914894,26.2967391 L59.1205674,26.3673913 C55.7730496,26.7771739 52.4255319,27.2576087 49.0921986,27.7521739 L48.9929078,27.6956522 C48.9929078,26.2684783 48.9787234,24.8413043 49.0070922,23.4141304 C49.4893617,23.3434783 50.0283688,23.3152174 50.4964539,23.1880435 C50.4964539,19.7402174 50.4964539,16.3065217 50.4964539,12.8586957 L50.4113475,12.773913 C49.9432624,12.8586957 49.4751773,12.9152174 49.0070922,12.9858696 C49.0070922,11.6576087 48.9787234,10.301087 49.0212766,8.98695652 C52.3971631,8.4923913 55.8156028,8.02608696 59.2056738,7.60217391 C59.2198582,8.93043478 59.2198582,10.2728261 59.2056738,11.5869565 C58.7234043,11.6434783 58.2411348,11.7141304 57.7730496,11.7706522 L57.7163121,11.8695652 C57.7446809,13.098913 57.7021277,14.3423913 57.7304965,15.5717391 L57.858156,15.5152174 C58.9787234,14.1304348 60.1134752,12.7597826 61.248227,11.3891304 C60.9219858,11.3326087 60.5815603,11.4456522 60.2553191,11.4597826 C60.2269504,10.1456522 60.2411348,8.78913043 60.2553191,7.475 C61.8297872,7.26304348 63.4184397,7.12173913 64.9929078,6.93804348 C66.751773,6.75434783 68.7234043,6.51413043 70.4964539,6.42934783 Z" id="Shape" fill="#FFFFFF" fill-rule="nonzero"></path>
                <path d="M138.042553,7.36195652 L138.141844,7.30543478 C142.992908,7.8423913 147.886525,8.45 152.695035,9.24130435 C154.014184,10.3434783 155.361702,11.4315217 156.666667,12.5478261 C156.652482,14.1163043 156.652482,15.698913 156.666667,17.2673913 L156.595745,17.3663043 C155.631206,17.7478261 154.680851,18.1576087 153.702128,18.525 L153.673759,18.6380435 C154.695035,19.3304348 155.687943,20.0793478 156.695035,20.8141304 C156.695035,21.9728261 156.695035,23.1456522 156.695035,24.3043478 C157.163121,24.5445652 157.886525,24.473913 158.368794,24.7 C158.35461,25.1380435 158.340426,25.5619565 158.397163,26 C158.397163,26.9467391 158.382979,27.8934783 158.397163,28.8543478 L158.312057,28.9108696 C155.475177,28.3880435 152.609929,27.95 149.758865,27.526087 L149.687943,27.4413043 C149.716312,24.9119565 149.687943,22.3967391 149.702128,19.8673913 C148.751773,19.6695652 147.716312,19.5847826 146.751773,19.4152174 C146.666667,20.4467391 146.737589,21.6478261 146.70922,22.6934783 C147.06383,22.9195652 147.787234,22.8347826 148.198582,23.0184783 C148.198582,24.4315217 148.198582,25.8586957 148.198582,27.2717391 C144.836879,26.8619565 141.432624,26.3956522 138.085106,26.0141304 C138.042553,24.5869565 138.070922,23.1032609 138.070922,21.6619565 C138.496454,21.6902174 139.148936,21.873913 139.531915,21.7891304 C139.503546,18.3413043 139.51773,14.8934783 139.51773,11.4456522 C139.035461,11.3326087 138.524823,11.3326087 138.028369,11.2478261 C138.042553,9.96195652 138.056738,8.66195652 138.042553,7.36195652 Z" id="Shape" fill="#FFFFFF" fill-rule="nonzero"></path>
                <path d="M124.978723,10.0467391 C125.77305,10.1032609 126.58156,10.173913 127.375887,10.2304348 C127.560284,10.2586957 127.801418,10.2163043 127.971631,10.3152174 C128,13.551087 127.985816,17.3521739 127.985816,20.6445652 C127.007092,20.6304348 126,20.475 125.007092,20.4326087 C124.93617,20.2347826 124.978723,19.9945652 124.978723,19.7826087 C124.964539,16.5467391 124.950355,13.2826087 124.978723,10.0467391 Z" id="Shape" fill="#532C7F" fill-rule="nonzero"></path>
                <path d="M160.028369,10.4706522 C162.751773,10.8945652 165.51773,11.4456522 168.22695,11.9826087 C170.93617,12.5195652 173.631206,13.0847826 176.312057,13.7347826 C176.312057,15.7130435 176.312057,17.6913043 176.312057,19.6695652 C175.007092,19.4152174 173.702128,19.1184783 172.397163,18.8358696 C172.326241,18.2423913 172.48227,17.5641304 172.382979,16.9565217 C171.205674,16.7021739 170.042553,16.4195652 168.865248,16.1793478 C168.865248,17.1967391 168.851064,18.2282609 168.865248,19.2456522 C170.269504,19.5423913 171.744681,19.825 173.163121,20.1076087 L173.219858,20.2065217 C173.205674,21.4358696 173.205674,22.6652174 173.219858,23.8945652 L173.148936,23.9934783 C171.730496,23.6967391 170.297872,23.3717391 168.879433,23.1315217 C168.879433,24.3326087 168.879433,25.5336957 168.879433,26.7206522 C169.900709,27.0315217 171.205674,27.2717391 172.283688,27.526087 C172.297872,26.7347826 172.283688,25.9293478 172.283688,25.123913 C173.574468,25.3782609 174.964539,25.7173913 176.255319,26.0282609 C176.241135,28.2467391 176.255319,30.451087 176.255319,32.6695652 L176.156028,32.6978261 C174.241135,32.175 172.297872,31.7652174 170.35461,31.3271739 C166.907801,30.5923913 163.475177,29.8858696 160.014184,29.2076087 C160,27.8086957 160.014184,26.4097826 160,25.025 C160.48227,24.9826087 161.049645,25.251087 161.531915,25.2086957 C161.531915,21.7043478 161.531915,18.2 161.531915,14.7097826 C161.035461,14.5826087 160.496454,14.5402174 160,14.398913 C160.042553,13.0847826 160.042553,11.7706522 160.028369,10.4706522 Z" id="Shape" fill="#FFFFFF" fill-rule="nonzero"></path>
                <path d="M29.9574468,12.3358696 C30.0851064,12.3076087 30.1985816,12.2934783 30.3120567,12.2934783 C30.3404255,13.65 30.2411348,14.9923913 30.2836879,16.348913 C29.8297872,16.5467391 29.248227,16.575 28.7659574,16.6880435 L28.7092199,16.7869565 C28.751773,19.2456522 28.6666667,21.5630435 28.6808511,24.0076087 C28.6950355,25.0532609 28.6241135,26.098913 28.6524823,27.1445652 C29.106383,27.1021739 29.7730496,26.7771739 30.1843972,26.8336957 C30.1702128,27.4978261 30.1985816,28.1478261 30.1702128,28.8119565 C30.0851064,29.5608696 30.1985816,30.3804348 30.1134752,31.1152174 C27.4042553,31.8076087 24.6524823,32.4576087 21.9432624,33.15 L21.787234,33.1358696 C21.9148936,31.7086957 21.8014184,30.2532609 21.8439716,28.826087 C22.212766,28.7271739 22.5815603,28.6141304 22.9361702,28.501087 C23.0212766,26.9184783 22.964539,25.3217391 22.9787234,23.725 C23.0638298,22.8347826 22.964539,21.9445652 23.035461,21.0543478 C22.9219858,21.2663043 22.893617,21.5206522 22.8368794,21.7467391 C21.9148936,25.675 20.964539,29.6173913 20.0567376,33.5456522 C19.9716312,33.6869565 19.7304965,33.6869565 19.5886525,33.7434783 C18.4113475,34.0543478 17.2056738,34.3934783 16.0283688,34.6902174 C15.0780142,31.1293478 14.1134752,27.5684783 13.1631206,24.0076087 C13.1489362,23.8097826 13.0496454,23.6684783 12.9929078,23.4847826 C12.964539,24.1913043 13.035461,24.926087 12.964539,25.7032609 C12.9787234,27.5684783 12.964539,29.3913043 12.9361702,31.2565217 C13.4042553,31.1576087 13.9007092,30.9032609 14.3546099,30.8467391 C14.2978723,32.3304348 14.3404255,33.7576087 14.2978723,35.2413043 C11.3191489,36.1315217 8.34042553,37.05 5.37588652,37.9967391 C5.46099291,36.5554348 5.39007092,35.0858696 5.41843972,33.6304348 C5.88652482,33.475 6.36879433,33.3336957 6.83687943,33.1923913 C6.85106383,32.401087 6.80851064,31.5815217 6.87943262,30.7902174 C6.87943262,29.5184783 6.87943262,28.2467391 6.87943262,26.975 C6.96453901,25.5336957 6.89361702,24.0782609 6.92198582,22.6228261 C6.53900709,22.5380435 5.95744681,22.9054348 5.53191489,22.9336957 C5.5177305,21.4782609 5.54609929,20.1076087 5.56028369,18.6521739 C8.65248227,17.648913 11.7730496,16.7728261 14.9219858,15.9391304 C15.929078,19.273913 16.9361702,22.7076087 17.929078,26.0423913 L18.0141844,26.1130435 C18.9078014,22.2130435 19.858156,18.3130435 20.7801418,14.4271739 C23.8014184,13.6923913 26.8794326,12.9858696 29.9574468,12.3358696 Z" id="Shape" fill="#FFFFFF" fill-rule="nonzero"></path>
                <path d="M146.723404,12.3217391 C147.631206,12.3923913 148.539007,12.5619565 149.432624,12.6467391 C149.531915,12.6467391 149.631206,12.6891304 149.716312,12.7456522 C149.702128,13.9467391 149.716312,15.1478261 149.716312,16.348913 L149.673759,16.4619565 C148.70922,16.2782609 147.744681,16.1652174 146.780142,15.9815217 L146.723404,15.9108696 C146.737589,14.723913 146.737589,13.5228261 146.723404,12.3217391 Z" id="Shape" fill="#532C7F" fill-rule="nonzero"></path>
                <path d="M42.8368794,12.9576087 C44,13.5369565 45.6312057,14.2293478 46.6950355,14.8369565 C46.6950355,15.9673913 46.6808511,17.0978261 46.6950355,18.2423913 L46.6382979,18.3413043 C44.7375887,18.6945652 42.8085106,19.0619565 40.893617,19.4293478 C40.8510638,18.7369565 40.893617,18.0445652 40.8794326,17.3663043 C40.0141844,17.5076087 39.1489362,17.6913043 38.2978723,17.8326087 C38.2978723,20.2913043 38.2978723,22.75 38.2978723,25.2086957 C39.177305,25.0391304 40.0567376,24.9119565 40.9361702,24.7141304 C40.9219858,23.9086957 40.9503546,23.1032609 40.9219858,22.3119565 L41.0496454,22.2554348 C42.9219858,21.9021739 44.8368794,21.4923913 46.7234043,21.1673913 C46.6950355,22.523913 46.7659574,24.1206522 46.6950355,25.448913 C45.4893617,26.4945652 44.3120567,27.6391304 43.106383,28.6706522 C40.751773,29.1228261 38.3971631,29.5608696 36.0425532,29.998913 C34.8085106,29.4619565 33.6170213,28.8119565 32.3971631,28.2326087 C32.3971631,24.6717391 32.3971631,21.0967391 32.3971631,17.55 L32.4113475,17.451087 C33.5319149,16.4336957 34.6241135,15.4163043 35.7304965,14.3847826 C38.070922,13.8195652 40.4539007,13.3956522 42.8368794,12.9576087 Z" id="Shape" fill="#FFFFFF" fill-rule="nonzero"></path>
                <path d="M178.439716,14.2293478 C183.900709,15.6 189.347518,17.0271739 194.723404,18.7086957 L194.751773,18.8076087 C194.751773,20.8706522 194.765957,22.9336957 194.737589,24.9967391 C193.446809,24.5728261 192.141844,24.2054348 190.836879,23.7956522 C190.780142,23.1880435 190.836879,22.523913 190.808511,21.9021739 L190.723404,21.8315217 C189.588652,21.5206522 188.453901,21.1956522 187.304965,20.8706522 C187.262411,21.873913 187.304965,22.9054348 187.276596,23.9086957 C188.638298,24.4032609 190.22695,24.8271739 191.631206,25.2793478 C191.659574,26.551087 191.64539,27.8652174 191.631206,29.1369565 C190.198582,28.7413043 188.780142,28.2326087 187.361702,27.8086957 L187.262411,27.8652174 C187.276596,29.0663043 187.276596,30.2673913 187.262411,31.4543478 C188.35461,31.8358696 189.475177,32.1608696 190.58156,32.5141304 L190.680851,32.4576087 C190.680851,31.6521739 190.652482,30.8326087 190.695035,30.0413043 C192.014184,30.4793478 193.390071,30.9032609 194.680851,31.3836957 C194.680851,33.5597826 194.666667,35.7358696 194.695035,37.9119565 L194.609929,37.9684783 C189.29078,36.2021739 183.858156,34.7467391 178.439716,33.3054348 C178.439716,31.9065217 178.439716,30.5076087 178.439716,29.1086957 C178.950355,29.151087 179.460993,29.3630435 179.971631,29.4478261 C179.971631,25.901087 179.971631,22.3543478 179.971631,18.7934783 C179.475177,18.6663043 178.978723,18.525 178.468085,18.4119565 L178.411348,18.3413043 C178.439716,16.9847826 178.439716,15.6 178.439716,14.2293478 Z" id="Shape" fill="#FFFFFF" fill-rule="nonzero"></path>
                <path d="M101.106383,14.7663043 C101.304965,14.8369565 101.319149,15.0771739 101.446809,15.2467391 C102.836879,17.8608696 104.22695,20.4891304 105.602837,23.1032609 C105.702128,23.3576087 105.914894,23.5554348 105.929078,23.8097826 C104.836879,23.6684783 103.64539,23.7391304 102.58156,23.5554348 C102.553191,22.2413043 102.595745,20.9271739 102.567376,19.6130435 C102.085106,19.598913 101.602837,19.6130435 101.134752,19.6130435 L101.092199,19.5141304 C101.106383,17.9315217 101.078014,16.348913 101.106383,14.7663043 Z" id="Shape" fill="#532C7F" fill-rule="nonzero"></path>
                <path d="M89.0780142,22.0152174 C92.9219858,22.2413043 96.7801418,23.1173913 100.453901,24.2478261 C101.134752,24.4597826 101.801418,24.7141304 102.48227,24.8978261 C106.780142,25.123913 111.049645,25.4630435 115.319149,25.9434783 C118.539007,26.3108696 121.77305,26.7347826 124.964539,27.3423913 C128.113475,27.9923913 131.304965,28.9532609 134.184397,30.3804348 C135.815603,31.2282609 137.361702,32.2597826 138.411348,33.8 C139.06383,34.775 139.489362,36.075 139.219858,37.2336957 C138.93617,37.3043478 138.595745,37.3326087 138.297872,37.3326087 C136.141844,37.2054348 133.971631,36.0608696 132.170213,34.9304348 C130.170213,33.5032609 127.87234,32.726087 125.460993,32.3304348 C123.716312,32.0619565 121.914894,31.9630435 120.141844,32.1326087 C117.744681,32.2880435 115.304965,32.3728261 112.907801,32.3586957 C112.70922,32.3869565 112.524823,32.5423913 112.340426,32.6413043 L112.35461,32.7543478 C114.198582,33.3195652 116.099291,33.573913 118.014184,33.6586957 C119.588652,33.7717391 121.134752,33.5456522 122.695035,33.6445652 C125.460993,33.7576087 128.397163,34.4358696 130.751773,35.9336957 C131.588652,36.5695652 132.453901,37.148913 133.446809,37.5021739 C135.304965,38.1663043 137.432624,38.2228261 139.375887,37.9402174 C140.099291,37.7847826 140.836879,37.7141304 141.574468,37.798913 C142.48227,37.8978261 143.304965,38.448913 143.77305,39.226087 C144.510638,39.3673913 145.361702,39.6641304 145.475177,40.526087 L145.546099,40.5684783 C146.58156,40.526087 147.659574,40.9217391 148.58156,41.3597826 C150.851064,42.575 153.177305,44.0163043 154.978723,45.8673913 C155.106383,46.0228261 155.319149,46.1782609 155.347518,46.376087 C154.397163,46.0369565 153.361702,45.8532609 152.340426,45.8815217 C151.659574,45.8532609 150.921986,45.9663043 150.35461,46.376087 C149.390071,47.026087 149.134752,48.523913 149.815603,49.4565217 C150.070922,49.7956522 150.425532,49.5836957 150.666667,49.3858696 C151.120567,49.0891304 151.205674,48.6652174 151.77305,48.5663043 C152.085106,48.6086957 152.056738,48.8065217 152.099291,49.0608696 C151.971631,50.276087 151.815603,51.448913 151.333333,52.5793478 C150.524823,54.5576087 149.361702,56.3521739 147.744681,57.7652174 C146.12766,59.1923913 144.028369,60.1673913 141.87234,60.3652174 C140.652482,63.4173913 138.028369,65.8195652 134.893617,66.851087 C132.553191,67.4728261 130.113475,67.4869565 127.815603,66.6673913 C127.843972,66.5684783 127.886525,66.5119565 127.971631,66.4836957 C129.886525,65.4663043 131.687943,63.8836957 132.283688,61.7358696 L132.255319,61.5663043 C131.787234,61.6652174 131.276596,61.5804348 130.822695,61.425 C130.198582,61.1565217 129.829787,60.4923913 129.815603,59.8282609 C129.347518,59.8141304 128.865248,59.9413043 128.368794,59.7717391 C127.843972,59.6445652 127.51773,59.2206522 127.404255,58.7119565 C122.978723,58.9097826 118.468085,60.4358696 114.879433,63.0358696 C113.248227,61.6086957 111.304965,60.5206522 109.06383,60.6054348 C111.659574,58.1891304 114.808511,56.4228261 118.156028,55.2358696 C120.184397,54.5717391 122.397163,54.0630435 124.539007,54.0913043 C125.078014,54.1195652 125.730496,54.2608696 126.113475,54.6847826 C126.496454,55.0945652 126.35461,55.7728261 126.652482,56.2673913 C126.978723,56.5923913 127.687943,56.4369565 128.099291,56.4652174 C128.297872,56.4934783 128.382979,56.7195652 128.439716,56.8891304 C128.453901,57.3554348 128.439716,57.9347826 128.666667,58.3586957 C128.893617,58.6978261 129.446809,58.6413043 129.787234,58.5847826 C130.12766,58.5423913 130.411348,58.3586957 130.723404,58.5706522 C130.950355,58.9945652 130.666667,59.6445652 131.021277,60.1108696 C131.361702,60.5630435 132.014184,60.4923913 132.510638,60.3793478 C132.879433,60.3086957 133.29078,60.026087 133.602837,60.3793478 C133.758865,60.6619565 133.64539,61.0293478 133.617021,61.3402174 C133.375887,63.2336957 132.269504,64.9576087 130.666667,66.0173913 L130.624113,66.1163043 C131.843972,66.1163043 133.049645,66.0032609 134.198582,65.6076087 C136.794326,64.7315217 138.822695,62.8097826 140.170213,60.4641304 L140.198582,60.3369565 C139.801418,60.2380435 139.390071,60.3086957 138.992908,60.223913 C135.560284,59.9130435 132.042553,58.273913 129.957447,55.4902174 C128.624113,53.5119565 126.113475,52.6782609 123.815603,52.9043478 C120.085106,53.201087 116.382979,54.5293478 113.134752,56.3521739 C111.546099,57.2565217 110.070922,58.2173913 108.794326,59.5173913 C106.822695,61.4108696 105.333333,63.8836957 104.836879,66.5826087 C104.723404,67.3032609 104.595745,68.0945652 104.751773,68.8152174 C105.035461,70.5956522 106.241135,72.1358696 107.546099,73.3228261 C109.248227,74.8347826 111.276596,75.9652174 113.475177,76.601087 C116.283688,77.4347826 119.347518,77.6326087 122.269504,77.4771739 C123.943262,77.3641304 125.702128,77.2086957 127.319149,76.8271739 C127.929078,76.0217391 128.283688,75.0608696 128.297872,74.0576087 C128.269504,72.7434783 127.730496,71.5565217 126.921986,70.525 L126.851064,70.6380435 C126.340426,72.2913043 125.432624,73.873913 124.141844,75.075 C123.716312,75.4706522 123.191489,75.7532609 122.595745,75.5554348 C121.914894,75.3434783 121.758865,74.3826087 121.120567,74.0717391 C120.794326,73.9445652 120.48227,74.0717391 120.241135,74.2978261 C119.858156,74.6652174 119.546099,75.1173913 119.191489,75.5130435 C118.950355,75.7391304 118.638298,75.9369565 118.312057,75.7532609 C117.957447,75.5695652 117.815603,75.075 117.617021,74.75 C117.460993,74.3967391 117.049645,74.1282609 116.666667,74.2695652 C116.085106,74.4956522 115.546099,74.976087 115.035461,75.3293478 C114.794326,75.4847826 114.496454,75.5695652 114.22695,75.4282609 C113.687943,75.1456522 113.659574,74.2554348 113.092199,74.0152174 C112.595745,73.8173913 112.269504,74.1847826 111.77305,74.2130435 C110.780142,74.3543478 109.716312,73.775 108.93617,73.1956522 L108.879433,73.0684783 C109.64539,73.1532609 110.453901,73.1391304 111.191489,72.9271739 C111.815603,72.7293478 112.496454,72.3902174 113.191489,72.5032609 C113.801418,72.573913 114.283688,72.9978261 114.553191,73.5347826 C114.638298,73.7467391 114.780142,73.9304348 115.035461,73.8173913 C115.531915,73.5347826 115.943262,73.1815217 116.524823,73.0402174 C117.177305,72.8141304 117.929078,73.0402174 118.340426,73.5771739 C118.453901,73.6902174 118.539007,73.9304348 118.70922,73.9445652 C118.992908,73.8315217 119.148936,73.4923913 119.404255,73.3228261 C120.028369,72.8 120.879433,72.475 121.673759,72.8141304 C122.170213,72.9836957 122.439716,73.3228261 122.751773,73.7043478 C123.134752,74.0576087 123.560284,73.8880435 123.87234,73.5206522 C125.148936,72.0934783 125.957447,70.1717391 126.510638,68.3630435 L126.638298,68.4054348 C128.184397,69.8608696 129.503546,71.7119565 129.546099,73.9021739 C129.617021,75.301087 129.120567,76.5728261 128.35461,77.7173913 C128.638298,77.8728261 129.035461,77.9293478 129.276596,78.1271739 C128.992908,80.2608696 127.77305,82.1967391 125.87234,83.2706522 C125.673759,83.3695652 125.460993,83.5532609 125.234043,83.5673913 C125.404255,82.9880435 125.460993,82.3945652 125.531915,81.801087 C125.205674,82.0130435 124.992908,82.4086957 124.695035,82.6630435 C122.453901,85.0086957 119.432624,86.5771739 116.283688,87.2695652 L116.156028,87.2271739 C116.58156,86.2380435 116.964539,85.1358696 117.049645,84.0619565 C115.77305,84.825 114.425532,85.4326087 112.992908,85.8423913 C109.843972,86.7467391 106.439716,86.9445652 103.191489,86.45 C104.042553,85.8141304 104.879433,85.2065217 105.361702,84.2315217 C101.021277,84.2880435 96.6524823,83.525 92.6950355,81.7304348 C92.2269504,81.5326087 91.787234,81.2641304 91.3191489,81.0663043 L91.248227,80.9532609 C92.0283688,80.6847826 92.7943262,80.3032609 93.4326241,79.7663043 C93.7021277,79.526087 94.0992908,79.1869565 94.212766,78.8478261 C92.6382979,75.7956522 90.5673759,73.0402174 88.1985816,70.5391304 C85.0496454,67.2184783 81.3475177,64.3358696 77.5035461,61.8347826 C71.7304965,58.1043478 65.4184397,55.0663043 59.035461,52.5369565 C51.9858156,49.7532609 44.7092199,47.4923913 37.3191489,45.7684783 C36.751773,45.6554348 36.1843972,45.4858696 35.6170213,45.4293478 C35.7446809,45.2456522 35.9574468,45.2315217 36.1560284,45.1467391 C41.5177305,43.1826087 47.0638298,41.4586957 52.6524823,40.2858696 L52.7801418,40.1869565 C52.2411348,40.0173913 51.7304965,39.7630435 51.1914894,39.5793478 C49.3333333,38.901087 47.3758865,38.3641304 45.4042553,38.123913 L45.4326241,38.0391304 C50.4539007,36.3858696 55.7304965,34.9586957 60.9929078,34.3652174 C61.5035461,34.3369565 62.0425532,34.223913 62.5531915,34.2804348 C62.4964539,34.1956522 62.4255319,34.1391304 62.3546099,34.1108696 C60.2411348,33.1782609 58.0283688,32.5 55.7446809,32.1043478 C55.4184397,32.0478261 55.0921986,31.9913043 54.751773,31.9913043 C54.9361702,31.85 55.2198582,31.8076087 55.4326241,31.7369565 C61.9574468,29.7869565 68.6808511,28.5152174 75.4468085,27.7804348 C75.6595745,27.7663043 75.8865248,27.7097826 76.0992908,27.7380435 C76.1702128,29.1369565 76.4113475,30.5076087 77.0212766,31.7793478 C77.8865248,33.6445652 79.5035461,35.2271739 81.4326241,35.9902174 C81.4609929,35.976087 81.4751773,35.9619565 81.4751773,35.9478261 C81.0921986,35.6934783 80.7234043,35.3967391 80.3829787,35.0858696 C78.822695,33.5880435 77.5886525,31.4402174 77.5035461,29.25 C77.4326241,27.8369565 77.8865248,26.4380435 78.7659574,25.3358696 C79.8439716,23.9934783 81.4042553,23.0326087 83.0496454,22.5663043 C84.9787234,22.001087 87.0921986,21.9021739 89.0780142,22.0152174 Z" id="Shape" fill="#532C7F" fill-rule="nonzero"></path>
                <path d="M85.9574468,24.1771739 C88.2553191,24.0076087 90.6382979,24.4315217 92.8794326,24.9402174 C94.2553191,25.2793478 95.7021277,25.6326087 96.9219858,26.3673913 C97.2624113,26.5793478 97.6312057,26.876087 97.7588652,27.2576087 C97.8014184,27.6532609 97.5035461,27.9641304 97.248227,28.2184783 C96.6808511,28.6847826 95.9432624,28.8967391 95.2340426,29.0380435 C94.1843972,29.2358696 93.1205674,29.3065217 92.0425532,29.2782609 C91.7304965,29.2641304 91.3617021,29.3206522 91.0638298,29.2076087 C91.5460993,28.9815217 92.1702128,28.6706522 92.4822695,28.2467391 C90.7375887,28.4869565 88.964539,28.3597826 87.2765957,27.8086957 L87.1914894,27.7097826 C87.7588652,27.7521739 88.3404255,27.6815217 88.9078014,27.625 C90.5390071,27.4413043 92.3687943,27.0032609 93.6737589,25.9576087 L93.6595745,25.8445652 C91.8014184,25.4206522 89.9574468,25.448913 88.0567376,25.6326087 C86.6382979,25.7597826 85.1489362,26.1413043 84,27.0032609 C83.0921986,27.6956522 82.4822695,28.7695652 82.4964539,29.9282609 C82.4397163,30.8326087 82.9787234,31.6521739 83.6028369,32.2456522 C84.4255319,33.0228261 85.4184397,33.6163043 86.4539007,34.0684783 L86.5106383,34.1532609 C84.9503546,34.3652174 83.3475177,34.1956522 82.070922,33.2206522 C80.9361702,32.3163043 80.1560284,30.8326087 80.2269504,29.3630435 C80.1843972,28.0913043 80.6950355,26.7913043 81.6312057,25.9293478 C82.7943262,24.8130435 84.3829787,24.3043478 85.9574468,24.1771739 Z" id="Shape" fill="#FFFFFF" fill-rule="nonzero"></path>
                <path d="M124.368794,35.0152174 C125.333333,35.0434783 126.496454,35.3684783 127.304965,35.8913043 C126.992908,36.6119565 126.737589,37.5021739 127.148936,38.2369565 C127.957447,38.251087 128.865248,37.8695652 129.375887,37.2195652 C130,37.6576087 130.652482,38.0673913 131.304965,38.4630435 L131.304965,38.5336957 C129.87234,39.3673913 128.099291,39.5228261 126.595745,38.773913 C125.219858,38.0391304 124.382979,36.5695652 124.368794,35.0152174 Z" id="Shape" fill="#FFFFFF" fill-rule="nonzero"></path>
                <path d="M117.602837,42.1652174 C122.808511,41.9391304 128.184397,42.1652174 133.333333,43.0554348 C136.58156,43.6347826 139.801418,44.4684783 142.808511,45.8108696 C143.503546,46.1358696 144.326241,46.4608696 144.907801,46.9695652 C145.021277,47.0967391 145.262411,47.2663043 145.092199,47.45 C144.624113,47.6195652 143.985816,47.3652174 143.51773,47.2380435 C139.602837,45.6978261 135.503546,44.5815217 131.375887,43.7619565 C126.822695,42.8434783 122.241135,42.3630435 117.602837,42.1652174 Z" id="Shape" fill="#FFFFFF" fill-rule="nonzero"></path>
                <path d="M124.822695,45.1184783 C131.432624,45.4152174 138.085106,46.4043478 144.382979,48.4956522 C144.822695,48.6652174 145.333333,48.8913043 145.588652,49.3293478 C145.51773,49.6543478 145.248227,49.6119565 144.978723,49.6684783 C144.141844,49.6119565 143.390071,49.3293478 142.595745,49.1315217 C138.48227,48.0858696 134.297872,47.2380435 130.085106,46.6869565 C125.687943,46.1641304 121.304965,45.8815217 116.893617,45.7826087 C113.985816,45.7967391 111.035461,45.726087 108.12766,46.0228261 C109.049645,45.8108696 109.985816,45.726087 110.93617,45.6130435 C115.531915,45.1043478 120.184397,44.9347826 124.822695,45.1184783 Z" id="Shape" fill="#FFFFFF" fill-rule="nonzero"></path>
                <path d="M153.191489,46.5173913 C153.985816,46.6304348 154.921986,46.8141304 155.617021,47.2097826 C155.914894,47.9586957 155.687943,48.7641304 155.262411,49.4141304 C154.553191,50.5163043 153.41844,51.3782609 152.340426,52.098913 C152.58156,51.0391304 152.836879,50.0076087 152.780142,48.9054348 C152.737589,48.425 152.539007,47.9304348 152.042553,47.7891304 C151.41844,47.6902174 150.865248,48.2130435 150.48227,48.6228261 C150.255319,48.6793478 150.156028,48.523913 150.141844,48.326087 C150,47.6478261 150.411348,47.0119565 151.021277,46.7434783 C151.716312,46.4326087 152.453901,46.4608696 153.191489,46.5173913 Z" id="Shape" fill="#532C7F" fill-rule="nonzero"></path>
                <path d="M129.64539,48.3967391 C134.198582,48.4532609 138.751773,49.075 143.148936,50.276087 C143.574468,50.4173913 144.269504,50.6858696 144.411348,51.1521739 C144.326241,51.5054348 143.617021,51.448913 143.347518,51.3782609 C138.822695,50.148913 134.042553,49.725 129.375887,49.5413043 C124.48227,49.3858696 119.446809,49.5836957 114.58156,50.0923913 C114.893617,49.951087 115.29078,49.8945652 115.631206,49.7956522 C120.184397,48.7782609 124.964539,48.3119565 129.64539,48.3967391 Z" id="Shape" fill="#FFFFFF" fill-rule="nonzero"></path>
                <path d="M126.780142,59.9271739 C127.049645,60.2804348 127.333333,60.6195652 127.758865,60.8032609 C128.198582,61.0434783 128.680851,61.0152174 129.148936,61.0717391 C129.205674,61.9054348 129.801418,62.3293478 130.453901,62.725 C129.446809,64.4771739 127.560284,65.5793478 125.758865,66.3847826 C125.64539,68.5184783 124.652482,70.6380435 123.361702,72.3195652 C123.276596,72.3195652 123.205674,72.2630435 123.148936,72.1782609 C123.602837,71.4152174 124.014184,70.4119565 123.659574,69.5358696 C123.319149,68.7869565 122.468085,68.4619565 121.687943,68.3630435 C120.141844,68.0521739 118.453901,67.373913 117.375887,66.1728261 C116.879433,65.6358696 116.595745,64.8728261 116.212766,64.2228261 C116.141844,64.0673913 115.929078,63.8978261 115.957447,63.7282609 C118.085106,62.2586957 120.48227,61.1847826 122.978723,60.5065217 C124.212766,60.2097826 125.531915,59.9130435 126.780142,59.9271739 Z" id="Shape" fill="#C1A42F" fill-rule="nonzero"></path>
                <path d="M108.397163,61.4956522 C110.198582,61.2271739 112.12766,61.976087 113.475177,63.1630435 C114.624113,64.1380435 115.361702,65.3391304 116.113475,66.6108696 C117.304965,68.2782609 119.248227,69.2391304 121.276596,69.4228261 C121.843972,69.4934783 122.468085,69.7336957 122.553191,70.3695652 C122.539007,70.9206522 122.141844,71.6271739 121.687943,71.923913 C120.624113,71.5847826 119.531915,71.9097826 118.822695,72.7576087 C118.652482,72.7717391 118.510638,72.5032609 118.340426,72.4326087 C117.29078,71.8391304 116.22695,72.0934783 115.177305,72.5032609 C114.723404,71.7826087 113.87234,71.4152174 113.035461,71.4152174 C112.056738,71.401087 111.035461,71.8815217 110.056738,71.9097826 C109.432624,71.9804348 108.737589,71.9097826 108.141844,71.6836957 C107.446809,71.4434783 106.921986,70.751087 106.58156,70.1293478 C105.801418,68.7304348 105.758865,66.95 106.312057,65.4663043 C107.886525,65.0847826 109.617021,65.3956522 110.907801,66.3847826 C111.687943,66.9641304 112.297872,67.8543478 112.978723,68.5467391 C113.858156,69.323913 114.851064,69.9456522 116.028369,70.1576087 L115.957447,70.0586957 C115.234043,69.5923913 114.524823,69.0695652 113.914894,68.4619565 C113.234043,67.7695652 112.93617,66.851087 112.269504,66.1445652 C110.907801,64.5902174 108.879433,63.6858696 106.808511,64.0673913 C107.148936,63.1913043 107.702128,62.2163043 108.397163,61.4956522 Z" id="Shape" fill="#532C7F" fill-rule="nonzero"></path>
            </g>
        </g>
    </g>
</svg>