<svg width="200" height="200" xmlns="http://www.w3.org/2000/svg"><g fill-rule="nonzero" fill="none"><path d="M101.56 55.014c1.078.085 2.17.014 3.263.057.61.07 1.234.014 1.844.028.524.07 1.035.028 1.56.042 15.503.396 31.064 1.625 46.383 4.112 3.035.495 6.057.947 9.078 1.526 12.213 2.29 24.312 5.3 36.156 9.086l.085.07c.028 10.005 0 20.108.014 30.113l-.085.085a157.853 157.853 0 00-4.567-1.583c-11.305-3.674-22.922-6.486-34.582-8.747a365.25 365.25 0 00-19.149-3.165c-.27 0-.539-.155-.794-.056.71.904 1.347 1.978 1.56 3.122 1.234.226 2.397.763 3.263 1.682.581.254 1.149.494 1.602.947.114.099.227.268.383.31.937.24 1.816.594 2.681 1.018 2.227 1.088 4.213 2.515 6.156 4.041 1.206 1.032 2.256 2.332 2.624 3.9.37 1.47-.113 2.996-.922 4.24-1.092 1.653-2.652 2.995-4.326 4.04-.88 2.064-2.27 3.9-4.014 5.328-1.688 1.356-3.66 2.444-5.759 3.024-1.191 2.006-2.808 3.73-4.794 4.974-2.156 1.342-4.71 2.12-7.248 2.162.751 1.808 1.092 3.787.51 5.694.156.057.241.141.27.24.057 2.685-.837 5.624-2.738 7.603-1.588 1.681-3.688 2.995-5.957 3.504-3.32 2.204-7.248 3.123-11.178 3.448-.666.014-1.39.155-2.042.056.298-.494.737-1.017.893-1.568-3.347.65-6.836.621-10.198.099-2.213-.382-4.44-.947-6.497-1.837l.015-.085c.595-.34 1.22-.65 1.801-1.017v-.114c-4.312-1.003-8.667-3.278-11.957-6.217-.213-.226-.554-.452-.695-.735 1.971-.254 3.985-.55 5.844-1.3l-.029-.113c-1.56-2.345-3.39-4.507-5.404-6.486-3.192-3.165-6.908-5.892-10.738-8.252-5.66-3.462-11.801-6.274-18.028-8.605-6.326-2.36-12.837-4.282-19.404-5.836-3.83-.904-7.702-1.71-11.589-2.303l.043-.156c.61-.24 1.191-.537 1.801-.805 4-1.767 8.085-3.35 12.227-4.79.128-.071.454-.057.454-.227-2.298-.155-4.638-.395-6.95-.325a.665.665 0 01.283-.24 120.717 120.717 0 0115.277-5.949l.042-.099c-1.078-.028-2.198-.395-3.262-.31a338.426 338.426 0 00-22.383 4.988c-7.447 1.95-14.922 4.14-22.241 6.726 0-2.077-.014-4.14.014-6.218V78.457c0-.24.057-.467.043-.707 0-2.628.014-5.242 0-7.87.368-.213.836-.283 1.248-.439 10.312-3.15 20.78-5.906 31.347-8.04.894-.155 1.802-.381 2.695-.48.029 1.031.015 2.077.015 3.108.17.043.354-.042.539-.07 2.553-.523 5.12-1.004 7.687-1.47.071-.876.015-1.893.029-2.784.057-.183.354-.14.51-.183 3.291-.622 6.625-1.088 9.93-1.54 11.602-1.484 23.22-2.304 34.893-2.77 4.029-.155 8.426-.212 12.468-.198z" fill="#C1A42F"/><path d="M97.163 56.964c.794-.014 1.617.043 2.411-.028 5.745-.043 11.291.141 17.022.396 5.134.254 10.34.494 15.46 1.06.866.635 1.731 1.342 2.568 2.034l.128.014v-1.794c2.411.212 4.822.494 7.234.749 4.014.48 8.07.96 12.057 1.695.907.65 1.758 1.512 2.695 2.134 0-.551-.043-1.13.014-1.682 3.12.537 6.24 1.088 9.361 1.696 10.724 2.105 21.504 4.62 31.873 8.083.085.183.028.438.042.65v25.576c-1.73-.65-3.503-1.23-5.276-1.809-9.248-2.925-18.71-5.256-28.213-7.192a341.6 341.6 0 00-21.404-3.632c-2.78-.41-5.589-.706-8.369-1.074-.057-.678 0-1.385-.028-2.063-.752.452-1.504.905-2.242 1.37l.015.1c2.283.904 4.652 2.204 6.326 4.041 1.064 1.187 1.858 2.642 1.787 4.282 1.518-.1 3.007.325 3.986 1.554.581.198 1.177.48 1.603.947.113.113.184.325.34.367.865.085 1.717.41 2.51.749 2.355 1.102 4.526 2.727 6.497 4.395.681.621 1.334 1.455 1.575 2.373.27 1.258-.199 2.374-.936 3.378-1.022 1.3-2.355 2.331-3.773 3.179-.284.325-.383.834-.639 1.201-1.688 3.278-4.737 5.808-8.354 6.641-.256.085-.568.014-.681.311-1.575 2.798-3.9 5.101-7.007 6.161-2.071.692-4.34.806-6.468.396-.398-.043-.78-.212-1.164-.24.086.226.313.395.454.565 1.234 1.427 2.156 3.207 2.27 5.115.113 1.201-.128 2.374-.582 3.49.128.07.27.141.397.212-.042 1.993-.808 3.97-2.17 5.44a9.804 9.804 0 01-4.595 2.728l-.071-.269c-1.164.933-2.483 1.64-3.873 2.19-1.787.693-3.702 1.201-5.617 1.343.412-.75.823-1.611 1.05-2.43-3.872 1.455-8.142 1.879-12.227 1.342-1.05-.142-2.128-.297-3.135-.636l.029-.1c.893-.451 1.744-1.002 2.595-1.511l.014-.127c-1.446-.057-2.907-.283-4.34-.566-3.404-.734-6.794-2.063-9.645-4.083l-.029-.1c1.419-.31 3.078-.833 4.142-1.864-.525-1.06-1.234-2.078-1.9-3.067-1.703-2.345-3.703-4.507-5.859-6.457-3.9-3.547-8.326-6.585-12.893-9.2-4.738-2.684-9.73-4.917-14.823-6.852-5.745-2.177-11.645-3.985-17.589-5.511-2.723-.679-5.475-1.371-8.227-1.851a.32.32 0 01.227-.17c5.22-2.19 10.61-4.112 16.114-5.426.227-.085.68-.057.822-.269-2.24-.508-4.51-.904-6.808-1.073-.312-.057-.738.014-.993-.17.128-.042.255-.07.369-.113 3.163-1.314 6.397-2.402 9.702-3.32 2.142-.58 4.298-1.145 6.496-1.499a.378.378 0 00-.27-.183c-2.042-.523-4.14-1.003-6.24-1.187.127-.226.51-.283.737-.382 2.156-.848 4.17-1.441 6.383-2.105-1.276.056-2.567.297-3.844.41-2.808.381-5.63.734-8.411 1.257-.057-.325-.014-.664-.014-.989-.227-.042-.369.269-.54.396-.311.268-.51.636-.836.848-3.007.48-6.07 1.102-9.064 1.639-.61-.283-1.163-.664-1.787-.905-.014.41.057.862-.014 1.272-9.617 2.162-19.135 4.804-28.51 7.814-.994.297-2.015.72-3.008.933-.028-3.603 0-7.277-.014-10.895 0-.141 0-.268.028-.395.497-.17 1.007-.311 1.49-.495v-3.73c-.511.084-1.008.367-1.504.424-.028-3.703.014-7.447.014-11.163C6.98 69.696 12 68.31 17.05 67.01l.141.028c.128.41.242.82.355 1.23l.128-.015c.113-.494.27-.975.397-1.47a.647.647 0 01.27-.112 291.391 291.391 0 0114.709-3.377c.198-.043.397-.1.595-.085.029 1.158.015 2.317 0 3.476.227.07.312-.353.554-.368 3.007-.635 6.056-1.229 9.078-1.794.751.297 1.517.692 2.27 1.031l.127-.014c-.014-1.328 0-2.67-.014-3.999a.612.612 0 01.07-.353c10.157-1.582 20.469-2.826 30.724-3.462 6.908-.367 13.801-.664 20.71-.763z" fill="#FFF"/><path d="M131.745 59.253c1.134.905 2.27 1.795 3.404 2.7.17.112.298.324.51.338-.028-.904-.014-1.808-.014-2.699 6.029.622 12.114 1.329 18.085 2.346 1.135.947 2.284 1.88 3.405 2.84.127.1.255.269.425.255-.014-.82 0-1.64-.014-2.445.241 0 .482.07.724.099a334.561 334.561 0 0117.46 3.49c7.22 1.653 14.355 3.505 21.419 5.794.014 3.73 0 7.489.014 11.22-.865-.156-2.1-.608-3.007-.82 0 .424-.043.876.014 1.3.979.296 1.972.607 2.95.904.015 3.886 0 7.786 0 11.672l-.113.028c-4.964-1.752-10.028-3.222-15.092-4.578-15.007-3.985-30.312-6.811-45.745-8.507-.156-.042-.44.014-.567-.099V80.11c-1.433.833-2.837 1.738-4.27 2.572-.227.028-.468-.1-.68-.17-1.958-.678-3.958-1.145-5.986-1.526-4.213-.806-8.497-1.343-12.766-1.752-.71-.043-1.405-.184-2.128-.156.71-.099 1.49 0 2.213.014-.043-4.762 0-9.594-.014-14.37-.015-.127 0-.255.028-.368.496.043 1.007.071 1.518.085.028-1.3.028-2.656 0-3.956-2.497-.043-5.064-.156-7.575-.184-.709-.085-1.46.042-2.17-.085l-.113.07v3.9c.468.015.936 0 1.404 0 .028 1.541 0 3.095.014 4.65l-.1-.057c-1.503-2.812-3.077-5.624-4.595-8.436l-.1-.07c-2.51.028-4.921-.029-7.432.042-.014 1.286.014 2.572-.014 3.858l.057.099c.383.042 1.035-.1 1.347.07 0 3.42-.014 6.84 0 10.245-.44.099-.979-.057-1.404.113.014.48.014.96 0 1.427a36.121 36.121 0 00-2.738-.325l-.085-.057c-.028-1.102 0-2.246-.014-3.348-1.021.014-2.057.084-3.078.127-.241.07-.738-.085-.88.127-.028.735.015 1.455-.014 2.19-1.092.014-2.34.141-3.404.127 0-1.144.014-2.303 0-3.448l.057-.098c1.418-.043 2.85-.156 4.27-.184.042-1.286 0-2.572.014-3.858-1.433-.014-2.937.1-4.37.156 0-.961.015-1.936-.013-2.897 1.163-.113 2.383-.07 3.56-.127 0 .58.014 1.158-.014 1.738 1.29.014 2.61-.085 3.9-.127l.057-.085c-.014-1.894 0-3.773-.014-5.666-4.497.07-9.149.381-13.645.635-.852.1-1.83.057-2.653.212v3.915c.51-.015 1.036-.071 1.546-.1 0 3.42.014 6.896 0 10.302l-.085.084c-.496.043-.979.057-1.475.114v4.323c.128.015.255.029.397.015 1.078-.113 2.184-.1 3.248-.227.029.17-.142.283-.227.424a7.04 7.04 0 00-.751 1.357c-3.433.381-6.837.904-10.227 1.554-.61.142-1.22.17-1.844.24a305.427 305.427 0 00-17.901 2.346 41.506 41.506 0 010-1.88c-.865.693-1.674 1.612-2.54 2.276-2.836.523-5.673 1.031-8.51 1.554l-.127-.014c-.922-.466-1.802-1.003-2.724-1.455-.028.664 0 1.328-.014 1.992-.113.113-.383.099-.539.155a464.915 464.915 0 00-13.9 3.519c-5.107 1.399-10.213 2.854-15.206 4.62l-.085-.042c.014-3.123 0-6.231 0-9.354.382-.269 1.12-.297 1.489-.58 0-1.837-.014-3.66 0-5.496-.497.07-.979.325-1.461.395.014-3.122 0-6.231 0-9.354 4.51-1.427 9.007-2.642 13.574-3.843l.114.042c.284 1.046.596 2.077.893 3.109.057.155.071.353.199.466.298-1.413.738-2.826 1.078-4.225 1.688-.466 3.404-.848 5.106-1.258 2.922-.678 5.972-1.384 8.908-1.921v4.507c.596-.353 1.22-1.286 1.844-1.653 2.823-.608 5.674-1.145 8.51-1.667.256.028.483.183.71.282.908.41 1.787.848 2.695 1.272.014-1.682-.014-3.363.014-5.045 9.76-1.61 19.589-2.614 29.405-3.278 4.567-.31 9.035-.523 13.617-.664 13.943-.424 28.354-.085 42.24 1.23z" fill="#532C7F"/><path d="M116.128 60.596c.454-.057.88.028 1.319.028 4.468.254 8.95.565 13.404.96.922.764 1.844 1.541 2.766 2.304.496.452 1.177.919 1.617 1.399-.014 3.985.014 8.238-.014 12.18-1.475.905-2.965 1.837-4.44 2.742-.198.014-.383 0-.581-.029a778.875 778.875 0 00-14.029-.932l-.042-.1c.014-1.412 0-2.825.014-4.238.482.014 1.007.014 1.475.099l.085-.071v-10.33c-.454-.07-1.021-.07-1.49-.07l-.07-.07c-.014-1.286.014-2.586-.014-3.872zM70.496 61.43c-.028 1.243.043 2.755-.028 3.956-.71.042-1.404.141-2.113.198-1.362 1.512-2.837 3.292-4.199 4.846v.071c1.787 1.738 3.674 3.59 5.475 5.341.624 0 1.277-.155 1.9-.127-.013 1.442.015 2.883-.013 4.324-3.66.283-7.589.791-11.234 1.145V76.93c.397-.17 1.078-.155 1.532-.212 0-.098-.029-.183-.1-.24-1.22-1.328-2.411-2.699-3.617-4.027-.113-.127-.227-.283-.369-.367v5.03c.37.099 1.022-.127 1.461-.113v4.296l-.07.07c-3.348.41-6.695.89-10.029 1.385l-.1-.056c0-1.428-.013-2.855.015-4.282.482-.07 1.021-.099 1.49-.226v-10.33l-.086-.084c-.468.085-.936.141-1.404.212 0-1.328-.028-2.685.014-3.999 3.376-.495 6.795-.96 10.185-1.385.014 1.328.014 2.67 0 3.985-.483.056-.965.127-1.433.184l-.057.099c.029 1.229-.014 2.472.014 3.702l.128-.057c1.12-1.385 2.255-2.755 3.39-4.126-.326-.056-.666.057-.993.07a124.39 124.39 0 010-3.984c1.575-.212 3.163-.353 4.738-.537 1.759-.184 3.73-.424 5.503-.509zM138.043 62.362l.099-.057c4.85.537 9.745 1.145 14.553 1.936 1.32 1.102 2.667 2.19 3.972 3.307a261.717 261.717 0 000 4.72l-.071.098c-.965.382-1.915.792-2.894 1.159l-.028.113c1.021.692 2.014 1.441 3.021 2.176v3.49c.468.24 1.192.17 1.674.396-.014.438-.029.862.028 1.3 0 .947-.014 1.893 0 2.854l-.085.057c-2.837-.523-5.702-.961-8.553-1.385l-.071-.085c.028-2.529 0-5.044.014-7.574-.95-.197-1.986-.282-2.95-.452-.085 1.032-.014 2.233-.043 3.278.355.227 1.078.142 1.49.325v4.254c-3.362-.41-6.766-.876-10.114-1.258-.042-1.427-.014-2.91-.014-4.352.425.028 1.078.212 1.46.127-.027-3.448-.013-6.896-.013-10.343-.483-.113-.993-.113-1.49-.198.015-1.286.029-2.586.015-3.886z" fill="#FFF"/><path d="M124.979 65.047c.794.056 1.603.127 2.397.183.184.029.425-.014.596.085.028 3.236.014 7.037.014 10.33-.979-.015-1.986-.17-2.979-.212-.07-.198-.028-.438-.028-.65-.014-3.236-.029-6.5 0-9.736z" fill="#532C7F"/><path d="M160.028 65.47c2.724.425 5.49.976 8.199 1.513 2.71.537 5.404 1.102 8.085 1.752v5.935c-1.305-.255-2.61-.552-3.915-.834-.07-.594.085-1.272-.014-1.88-1.177-.254-2.34-.536-3.518-.777 0 1.018-.014 2.05 0 3.067 1.405.296 2.88.579 4.298.862l.057.099a159.83 159.83 0 000 3.688l-.071.098c-1.419-.296-2.851-.621-4.27-.861v3.589c1.022.31 2.327.55 3.405.805.014-.791 0-1.597 0-2.402 1.29.254 2.68.593 3.971.904-.014 2.219 0 4.423 0 6.642l-.099.028c-1.915-.523-3.858-.933-5.801-1.37a637.934 637.934 0 00-10.34-2.12c-.015-1.4 0-2.798-.015-4.183.482-.042 1.05.226 1.532.184v-10.5c-.497-.126-1.036-.169-1.532-.31a90.84 90.84 0 00.028-3.928zM29.957 67.336c.128-.028.242-.043.355-.043.028 1.357-.07 2.7-.028 4.056-.454.198-1.036.226-1.518.339l-.057.099c.043 2.459-.042 4.776-.028 7.22.014 1.046-.057 2.092-.029 3.138.454-.043 1.121-.368 1.532-.311-.014.664.015 1.314-.014 1.978-.085.749.029 1.568-.057 2.303-2.709.693-5.46 1.343-8.17 2.035l-.156-.014c.128-1.427.014-2.883.057-4.31.369-.099.738-.212 1.092-.325.085-1.583.029-3.18.043-4.776.085-.89-.014-1.78.056-2.67-.113.211-.141.466-.198.692-.922 3.928-1.872 7.87-2.78 11.799-.085.141-.327.141-.468.197-1.178.311-2.383.65-3.56.947-.951-3.56-1.916-7.122-2.866-10.682-.014-.198-.113-.34-.17-.523-.028.706.042 1.441-.028 2.218.014 1.865 0 3.688-.029 5.554.468-.1.965-.354 1.419-.41-.057 1.483-.015 2.91-.057 4.394-2.979.89-5.958 1.809-8.922 2.756.085-1.442.014-2.911.042-4.367.469-.155.95-.296 1.419-.438.014-.79-.028-1.61.042-2.402v-3.815c.086-1.441.015-2.897.043-4.352-.383-.085-.965.282-1.39.31-.014-1.455.014-2.825.028-4.28 3.092-1.004 6.213-1.88 9.362-2.714 1.007 3.335 2.014 6.769 3.007 10.103l.085.071c.894-3.9 1.844-7.8 2.766-11.686a310 310 0 019.177-2.091z" fill="#FFF"/><path d="M146.723 67.322c.908.07 1.816.24 2.71.325.099 0 .198.042.283.099-.014 1.2 0 2.402 0 3.603l-.042.113c-.965-.184-1.93-.297-2.894-.48l-.057-.071a151.36 151.36 0 000-3.59z" fill="#532C7F"/><path d="M42.837 67.958c1.163.579 2.794 1.271 3.858 1.879 0 1.13-.014 2.26 0 3.405l-.057.1c-1.9.353-3.83.72-5.744 1.087-.043-.692 0-1.384-.015-2.063-.865.142-1.73.325-2.581.467v7.376c.88-.17 1.759-.297 2.638-.495-.014-.805.014-1.61-.014-2.402l.128-.057c1.872-.353 3.787-.763 5.673-1.088-.028 1.357.043 2.954-.028 4.282-1.206 1.046-2.383 2.19-3.589 3.222-2.354.452-4.709.89-7.063 1.328-1.234-.537-2.426-1.187-3.646-1.766V72.55l.014-.099a340.245 340.245 0 003.32-3.066c2.34-.565 4.723-.99 7.106-1.427zM178.44 69.23c5.46 1.37 10.908 2.797 16.283 4.479l.029.099c0 2.063.014 4.126-.014 6.189-1.291-.424-2.596-.792-3.901-1.201-.057-.608 0-1.272-.028-1.894l-.086-.07c-1.134-.311-2.27-.636-3.418-.961-.043 1.003 0 2.034-.028 3.038 1.361.494 2.95.918 4.354 1.37a116.58 116.58 0 010 3.858c-1.432-.396-2.85-.904-4.27-1.328l-.099.056a151.36 151.36 0 010 3.59c1.093.38 2.213.706 3.32 1.06l.099-.057c0-.806-.029-1.625.014-2.417 1.32.438 2.695.862 3.986 1.343 0 2.176-.014 4.352.014 6.528l-.085.056c-5.32-1.766-10.752-3.221-16.17-4.663V84.11c.51.042 1.021.254 1.532.339V73.793c-.497-.127-.993-.268-1.504-.381l-.057-.07c.029-1.357.029-2.742.029-4.113z" fill="#FFF"/><path d="M101.106 69.766c.199.071.213.311.34.48 1.39 2.615 2.781 5.243 4.157 7.857.1.255.312.452.326.707-1.092-.142-2.284-.07-3.347-.255-.029-1.314.014-2.628-.015-3.942-.482-.014-.964 0-1.432 0l-.043-.099c.014-1.582-.014-3.165.014-4.748zM89.078 77.015c3.844.226 7.702 1.102 11.376 2.233.68.212 1.347.466 2.028.65 4.298.226 8.568.565 12.837 1.045 3.22.368 6.454.792 9.646 1.4 3.148.65 6.34 1.61 9.22 3.037 1.63.848 3.177 1.88 4.226 3.42.653.975 1.078 2.275.809 3.434-.284.07-.624.099-.922.099-2.156-.128-4.326-1.272-6.128-2.403-2-1.427-4.298-2.204-6.709-2.6-1.745-.268-3.546-.367-5.32-.197-2.396.155-4.836.24-7.233.226-.199.028-.383.183-.568.282l.015.113c1.844.566 3.744.82 5.66.905 1.574.113 3.12-.113 4.68-.014 2.766.113 5.702.79 8.057 2.289.837.636 1.702 1.215 2.695 1.568 1.858.664 3.986.72 5.929.438.723-.155 1.46-.226 2.198-.141.908.099 1.731.65 2.199 1.427.738.141 1.589.438 1.702 1.3l.071.042c1.036-.042 2.114.354 3.036.792 2.27 1.215 4.595 2.656 6.397 4.507.127.156.34.311.369.51a8.347 8.347 0 00-3.008-.495c-.68-.029-1.418.084-1.985.494-.965.65-1.22 2.148-.54 3.08.256.34.61.128.852-.07.454-.297.539-.72 1.106-.82.312.043.284.24.326.495-.127 1.215-.283 2.388-.766 3.518-.808 1.979-1.971 3.773-3.588 5.186-1.617 1.427-3.717 2.402-5.873 2.6-1.22 3.052-3.844 5.455-6.978 6.486-2.34.622-4.78.636-7.078-.184.028-.099.07-.155.156-.183 1.915-1.018 3.716-2.6 4.312-4.748l-.029-.17c-.468.1-.978.014-1.432-.141-.624-.268-.993-.933-1.007-1.597-.468-.014-.95.113-1.447-.056-.525-.127-.851-.551-.965-1.06-4.425.198-8.936 1.724-12.525 4.324-1.63-1.427-3.574-2.515-5.815-2.43 2.596-2.417 5.745-4.183 9.092-5.37 2.028-.664 4.241-1.173 6.383-1.145.539.029 1.191.17 1.574.594.383.41.242 1.088.54 1.582.326.325 1.035.17 1.446.198.199.028.284.255.34.424.015.466 0 1.046.228 1.47.227.339.78.282 1.12.226.34-.043.624-.226.936-.014.227.424-.056 1.074.298 1.54.34.452.993.381 1.49.268.368-.07.78-.353 1.092 0 .156.283.042.65.014.961-.241 1.894-1.347 3.618-2.95 4.677l-.043.1c1.22 0 2.426-.114 3.575-.51 2.595-.875 4.624-2.797 5.971-5.143l.029-.127c-.398-.099-.809-.028-1.206-.113-3.433-.311-6.95-1.95-9.036-4.734-1.333-1.978-3.844-2.812-6.141-2.586-3.73.297-7.433 1.625-10.681 3.448-1.589.905-3.064 1.865-4.34 3.165-1.972 1.894-3.462 4.367-3.958 7.066-.114.72-.241 1.512-.085 2.232.283 1.78 1.49 3.32 2.794 4.508a15.384 15.384 0 005.93 3.278c2.808.834 5.872 1.032 8.794.876 1.673-.113 3.432-.268 5.05-.65.61-.805.964-1.766.978-2.77-.028-1.314-.568-2.5-1.376-3.532l-.07.113c-.512 1.653-1.42 3.236-2.71 4.437-.426.396-.95.678-1.546.48-.681-.212-.837-1.172-1.475-1.483-.327-.127-.639 0-.88.226-.383.367-.695.82-1.05 1.215-.24.226-.553.424-.879.24-.355-.183-.496-.678-.695-1.003-.156-.353-.567-.622-.95-.48-.582.226-1.12.706-1.632 1.06-.24.155-.539.24-.808.098-.54-.282-.567-1.173-1.135-1.413-.496-.198-.822.17-1.319.198-.993.141-2.057-.438-2.837-1.017l-.057-.128c.766.085 1.575.071 2.312-.14.625-.199 1.305-.538 2-.425.61.07 1.093.495 1.362 1.032.085.212.227.395.482.282.497-.282.908-.635 1.49-.777.652-.226 1.404 0 1.815.537.114.113.199.353.37.368.283-.113.439-.453.694-.622.624-.523 1.475-.848 2.27-.509.496.17.766.509 1.078.89.383.354.808.184 1.12-.183 1.277-1.428 2.085-3.35 2.639-5.158l.127.042c1.546 1.456 2.866 3.307 2.908 5.497.071 1.4-.425 2.67-1.191 3.815.283.156.68.212.922.41-.284 2.134-1.504 4.07-3.405 5.144-.198.099-.411.282-.638.296.17-.579.227-1.172.298-1.766-.326.212-.54.608-.837.862-2.241 2.346-5.262 3.914-8.411 4.607l-.128-.043c.426-.989.809-2.091.894-3.165a17.013 17.013 0 01-4.057 1.78c-3.149.905-6.553 1.103-9.802.608.852-.636 1.688-1.243 2.17-2.218-4.34.056-8.709-.707-12.666-2.502-.468-.197-.908-.466-1.376-.664l-.07-.113c.78-.268 1.545-.65 2.184-1.187.27-.24.666-.579.78-.918-1.575-3.052-3.646-5.808-6.014-8.309-3.15-3.32-6.851-6.203-10.695-8.704-5.774-3.73-12.086-6.769-18.469-9.298a155.158 155.158 0 00-21.716-6.769c-.567-.113-1.135-.282-1.702-.339.128-.183.34-.197.539-.282 5.362-1.964 10.908-3.688 16.496-4.861l.128-.099c-.539-.17-1.05-.424-1.589-.608-1.858-.678-3.815-1.215-5.787-1.455l.029-.085c5.02-1.653 10.297-3.08 15.56-3.674.51-.028 1.05-.141 1.56-.085a.443.443 0 00-.198-.17 28.345 28.345 0 00-6.61-2.006c-.327-.056-.653-.113-.993-.113.184-.141.468-.183.68-.254 6.525-1.95 13.249-3.222 20.015-3.957.213-.014.44-.07.652-.042.071 1.399.312 2.77.922 4.041.866 1.866 2.483 3.448 4.412 4.211.028-.014.042-.028.042-.042a9.136 9.136 0 01-1.092-.862c-1.56-1.498-2.794-3.646-2.88-5.836a5.826 5.826 0 011.263-3.914c1.078-1.343 2.638-2.303 4.284-2.77 1.929-.565 4.042-.664 6.028-.55z" fill="#532C7F"/><path d="M85.957 79.177c2.298-.17 4.681.255 6.922.763 1.376.34 2.823.693 4.043 1.427.34.212.71.51.837.89.042.396-.255.707-.51.961-.568.467-1.306.679-2.015.82-1.05.198-2.113.269-3.191.24-.313-.014-.681.043-.98-.07.483-.226 1.107-.537 1.42-.961-1.745.24-3.518.113-5.206-.438l-.086-.1c.568.043 1.15-.027 1.717-.084 1.631-.184 3.46-.622 4.766-1.667l-.014-.113c-1.859-.424-3.703-.396-5.603-.212-1.419.127-2.908.508-4.057 1.37-.908.693-1.518 1.767-1.504 2.925-.056.905.483 1.724 1.107 2.318.823.777 1.815 1.37 2.85 1.822l.058.085c-1.56.212-3.163.043-4.44-.932-1.135-.905-1.915-2.388-1.844-3.858-.043-1.272.468-2.572 1.404-3.434 1.163-1.116 2.752-1.625 4.326-1.752zM124.369 90.015c.964.028 2.127.353 2.936.876-.312.721-.567 1.611-.156 2.346.808.014 1.716-.367 2.227-1.017.624.438 1.276.847 1.929 1.243v.07c-1.433.834-3.206.99-4.71.24-1.375-.734-2.212-2.203-2.226-3.758zM117.603 97.165c5.206-.226 10.581 0 15.73.89 3.249.58 6.468 1.413 9.476 2.756.695.325 1.517.65 2.099 1.159.113.127.354.296.184.48-.468.17-1.106-.085-1.574-.212-3.915-1.54-8.014-2.656-12.142-3.476-4.553-.919-9.135-1.399-13.773-1.597zM124.823 100.118c6.61.297 13.262 1.286 19.56 3.378.44.17.95.395 1.206.833-.071.325-.34.283-.61.34-.837-.057-1.589-.34-2.383-.537-4.114-1.046-8.298-1.894-12.51-2.445-4.398-.523-8.781-.805-13.192-.904-2.908.014-5.859-.057-8.766.24.922-.212 1.858-.297 2.808-.41a92.939 92.939 0 0113.887-.495z" fill="#FFF"/><path d="M153.191 101.517c.795.113 1.731.297 2.426.693.298.749.07 1.554-.355 2.204-.709 1.102-1.844 1.964-2.922 2.685.242-1.06.497-2.091.44-3.194-.042-.48-.241-.975-.737-1.116-.625-.099-1.178.424-1.56.834-.228.056-.327-.1-.341-.297-.142-.678.27-1.314.88-1.583.694-.31 1.432-.282 2.17-.226z" fill="#532C7F"/><path d="M129.645 103.397c4.554.056 9.107.678 13.504 1.88.425.14 1.12.409 1.262.875-.085.353-.794.297-1.063.226-4.525-1.23-9.305-1.653-13.972-1.837-4.894-.155-9.93.043-14.794.551.312-.14.709-.197 1.05-.296a59.806 59.806 0 0114.013-1.4z" fill="#FFF"/><path d="M126.78 114.927c.27.353.553.693.979.876.44.24.922.212 1.39.269.057.833.652 1.257 1.305 1.653-1.007 1.752-2.894 2.854-4.695 3.66-.114 2.133-1.107 4.253-2.397 5.935-.085 0-.156-.057-.213-.142.454-.763.865-1.766.51-2.642-.34-.749-1.19-1.074-1.971-1.173-1.546-.31-3.234-.99-4.312-2.19-.497-.537-.78-1.3-1.163-1.95-.071-.156-.284-.325-.256-.495 2.128-1.47 4.525-2.543 7.022-3.221 1.234-.297 2.553-.594 3.801-.58z" fill="#C1A42F"/><path d="M108.397 116.496c1.802-.269 3.73.48 5.078 1.667 1.15.975 1.887 2.176 2.638 3.448 1.192 1.667 3.135 2.628 5.164 2.812.567.07 1.191.31 1.276.947-.014.55-.411 1.257-.865 1.554a2.628 2.628 0 00-2.865.834c-.17.014-.312-.255-.483-.325-1.05-.594-2.113-.34-3.163.07-.454-.72-1.305-1.088-2.142-1.088-.978-.014-2 .467-2.978.495-.624.07-1.32 0-1.915-.226-.695-.24-1.22-.933-1.56-1.555-.78-1.399-.823-3.179-.27-4.663 1.575-.381 3.305-.07 4.596.919.78.58 1.39 1.47 2.07 2.162.88.777 1.873 1.399 3.05 1.61l-.07-.098c-.724-.467-1.433-.99-2.043-1.597-.681-.692-.979-1.61-1.645-2.317-1.362-1.555-3.39-2.46-5.461-2.078.34-.876.893-1.85 1.588-2.571z" fill="#532C7F"/></g></svg>