<svg width="365" height="364.912" xmlns="http://www.w3.org/2000/svg"><defs><style>.cls-1{fill:#18453b}</style></defs><path fill="none" id="canvas_background" d="M-1-1h367v366.912H-1z"/><g><g id="svg_11"><path id="svg_1" d="M320.5 25.112s-18.9 40.7-28.6 60.9c-47.2-21.7-109.1-24.8-161 6-34.7 21.2-62.6 58.8-65.5 99.3-1 26.9 10.7 56.5 6.9 83.4-1 14.4-4.3 28.9-11 41.4-8.7 14.5-19 27-36.4 27.9 3.9-4.8 30.6-18 20.1-78.6-4.2-24-37.2-83.6-5.3-158.3 29.1-68.2 155.2-149 280.8-82z" class="cls-1"/><path id="svg_2" d="M176 144.712c16.3-5.9 34.6-6 52-2.2 32.7 5.8 57.2 25.5 69.2 54.9 12.5 30.7 21.5 55.5 42.9 81.7l-33.4-6c8.3-60.8-49.2-63.3-65-40.6 11.9 13.1 32.4 19.9 48.3 17.3-3.4 60.4 13.5 115.2 12.5 115.1-13.7-1.9-76.5-38.8-94.8-54.9-27 4.8-48.1 14.8-79.3 19.1-1 .1 5.7-23 4.8-34.6 0-31.8-24.3-61.6-7.1-100.6 10.3-23.2 25.9-40.5 49.9-49.2z" class="cls-1"/><path id="svg_3" d="M198.6 126.412c1.8 0 4.6.4 4.6.3.5-2.1 2.2-17.2 15.1-28.1 14.3-12.2 33-11 32.9-11.1-18.7-5.7-38-6.1-51.3-5l-1.3 43.9z" class="cls-1"/><path id="svg_4" d="M79.7 181.212c-2.8 18.1-3 34.9-1.5 43.8 0 .1 2.7-15.3 11.5-24 7.7-7.6 17.4-9.1 20.9-8.9l1.5-5.9-32.4-5z" class="cls-1"/><path id="svg_5" d="M115.9 177.812a78.433 78.433 0 013.5-7.3l-33.2-12.9c-2.1 4.1-3.6 10.3-4.4 13.7l34.1 6.5z" class="cls-1"/><path id="svg_6" d="M123.9 165.212l5.4-6.7-30.4-22.9a56.036 56.036 0 00-7.8 13.1l32.8 16.5z" class="cls-1"/><path id="svg_7" d="M135.2 152.712l6.8-6.2-26.4-30a81.156 81.156 0 00-11.4 11.9l31 24.3z" class="cls-1"/><path id="svg_8" d="M148.9 142.312l7.7-4.5-19.6-35.7a90.424 90.424 0 00-14.5 9l26.4 31.2z" class="cls-1"/><path id="svg_9" d="M163.5 134.412c9.4-3.2 9.3-3.3 9.3-3.1l-11.1-40.1c-6.2 1.8-14.6 5.4-16.5 6.7l18.3 36.5z" class="cls-1"/><path id="svg_10" d="M180 129.012l8.5-1.8 1-43.4c-.3.3-10.1 1.8-18.3 4.1l8.8 41.1z" class="cls-1"/></g></g></svg>