<svg width="365" height="364.91235" xmlns="http://www.w3.org/2000/svg">
 <defs>
  <style>.cls-1{fill:#18453b;}</style>
 </defs>
 <g>
  <title>background</title>
  <rect fill="none" id="canvas_background" height="366.91235" width="367" y="-1" x="-1"/>
 </g>
 <g>
  <title>Layer 1</title>
  <g id="svg_11">
   <path id="svg_1" d="m320.499994,25.112225s-18.9,40.7 -28.6,60.9c-47.2,-21.7 -109.1,-24.8 -161,6c-34.7,21.2 -62.6,58.8 -65.5,99.3c-1,26.9 10.7,56.5 6.9,83.4c-1,14.4 -4.3,28.9 -11,41.4c-8.7,14.5 -19,27 -36.4,27.9c3.9,-4.8 30.6,-18 20.1,-78.6c-4.2,-24 -37.2,-83.6 -5.3,-158.3c29.1,-68.19999 155.2,-149 280.8,-82z" class="cls-1"/>
   <path id="svg_2" d="m175.999994,144.712225c16.3,-5.9 34.6,-6 52,-2.2c32.7,5.8 57.2,25.5 69.2,54.9c12.5,30.7 21.5,55.5 42.9,81.7l-33.4,-6c8.3,-60.8 -49.2,-63.3 -65,-40.6c11.9,13.1 32.4,19.9 48.3,17.3c-3.4,60.4 13.5,115.2 12.5,115.1c-13.7,-1.9 -76.5,-38.8 -94.8,-54.9c-27,4.8 -48.1,14.8 -79.3,19.1c-1,0.1 5.7,-23 4.8,-34.6c0,-31.8 -24.3,-61.6 -7.1,-100.6c10.3,-23.2 25.9,-40.5 49.9,-49.2z" class="cls-1"/>
   <path id="svg_3" d="m198.599994,126.412225c1.8,0 4.6,0.4 4.6,0.3c0.5,-2.1 2.2,-17.2 15.1,-28.1c14.3,-12.2 33,-11 32.9,-11.1c-18.7,-5.7 -38,-6.1 -51.3,-5l-1.3,43.9z" class="cls-1"/>
   <path id="svg_4" d="m79.699994,181.212225c-2.8,18.1 -3,34.9 -1.5,43.8c0,0.1 2.7,-15.3 11.5,-24c7.7,-7.6 17.4,-9.1 20.9,-8.9l1.5,-5.9l-32.4,-5z" class="cls-1"/>
   <path id="svg_5" d="m115.899994,177.812235a78.43271,78.43271 0 0 1 3.5,-7.3l-33.2,-12.9c-2.1,4.1 -3.6,10.3 -4.4,13.7l34.1,6.5z" class="cls-1"/>
   <path id="svg_6" d="m123.899994,165.212225l5.4,-6.7l-30.4,-22.9a56.03611,56.03611 0 0 0 -7.8,13.1l32.8,16.5z" class="cls-1"/>
   <path id="svg_7" d="m135.199994,152.712225l6.8,-6.2l-26.4,-30a81.156,81.156 0 0 0 -11.4,11.9l31,24.3z" class="cls-1"/>
   <path id="svg_8" d="m148.899994,142.312235l7.7,-4.5l-19.6,-35.7a90.42355,90.42355 0 0 0 -14.5,9l26.4,31.2z" class="cls-1"/>
   <path id="svg_9" d="m163.499994,134.412225c9.4,-3.2 9.3,-3.3 9.3,-3.1l-11.1,-40.1c-6.2,1.8 -14.6,5.4 -16.5,6.7l18.3,36.5z" class="cls-1"/>
   <path id="svg_10" d="m179.999994,129.012225l8.5,-1.8l1,-43.4c-0.3,0.3 -10.1,1.8 -18.3,4.1l8.8,41.1z" class="cls-1"/>
  </g>
 </g>
</svg>