<svg width="365" height="364.90002" xmlns="http://www.w3.org/2000/svg">
 <defs>
  <style>.cls-1{fill:#fff;}.cls-2{fill:#59118e;}</style>
 </defs>
 <g>
  <title>background</title>
  <rect fill="none" id="canvas_background" height="366.90002" width="367" y="-1" x="-1"/>
 </g>
 <g>
  <title>Layer 1</title>
  <path id="svg_1" d="m300.449997,0l-94.5,0l0,56.8l1.1,1.9l50.6,85.1l0,70.9l-124.1,-210.7l-2.4,-4l-66.7,0l0,364.9l94.5,0l0,-56.8l-1.1,-1.9l-50.6,-85.1l0,-70.9l124.1,210.7l2.4,4l66.8,0l0,-356.8l-0.1,-8.1zm-8.1,8.1l0,348.7l-54,0l-139.3,-236.4l0,103l51.8,87l0,46.5l-78.3,0l0,-348.8l54,0l139.2,236.4l0,-103l-51.8,-87l0,-46.4l78.4,0z" class="cls-1"/>
  <polygon id="svg_2" points="214.10001373291016,8.100000381469727 214.10001373291016,54.599998474121094 265.9000015258789,141.60000610351562 265.9000015258789,244.60000610351562 126.60000610351562,8.100000381469727 72.60000801086426,8.100000381469727 72.60000801086426,356.8999938964844 150.90000915527344,356.8999938964844 150.90000915527344,310.3999938964844 99.10000610351562,223.39999389648438 99.10000610351562,120.4000015258789 238.4000015258789,356.8999938964844 292.4000015258789,356.8999938964844 292.4000015258789,8.100000381469727 214.10001373291016,8.100000381469727 " class="cls-2"/>
  <polygon id="svg_3" points="214.10001373291016,8.100000381469727 214.10001373291016,54.599998474121094 265.9000015258789,141.60000610351562 265.9000015258789,244.60000610351562 126.60000610351562,8.100000381469727 72.60000801086426,8.100000381469727 72.60000801086426,356.8999938964844 150.90000915527344,356.8999938964844 150.90000915527344,310.3999938964844 99.10000610351562,223.39999389648438 99.10000610351562,120.4000015258789 238.4000015258789,356.8999938964844 292.4000015258789,356.8999938964844 292.4000015258789,8.100000381469727 214.10001373291016,8.100000381469727 " class="cls-2"/>
 </g>
</svg>