<svg width="365" height="364.9" xmlns="http://www.w3.org/2000/svg"><defs><style>.cls-2{fill:#59118e}</style></defs><path fill="none" id="canvas_background" d="M-1-1h367v366.9H-1z"/><g><path id="svg_1" d="M300.45 0h-94.5v56.8l1.1 1.9 50.6 85.1v70.9L133.55 4l-2.4-4h-66.7v364.9h94.5v-56.8l-1.1-1.9-50.6-85.1v-70.9l124.1 210.7 2.4 4h66.8V8.1l-.1-8.1zm-8.1 8.1v348.7h-54L99.05 120.4v103l51.8 87v46.5h-78.3V8.1h54l139.2 236.4v-103l-51.8-87V8.1h78.4z" fill="#fff"/><path id="svg_2" class="cls-2" d="M214.1 8.1v46.5l51.8 87v103L126.6 8.1h-54v348.8h78.3v-46.5l-51.8-87v-103l139.3 236.5h54V8.1h-78.3z"/><path id="svg_3" class="cls-2" d="M214.1 8.1v46.5l51.8 87v103L126.6 8.1h-54v348.8h78.3v-46.5l-51.8-87v-103l139.3 236.5h54V8.1h-78.3z"/></g></svg>