<svg version="1.1" id="Layer_1" xmlns="http://www.w3.org/2000/svg" x="0" y="0" viewBox="0 0 200 200" xml:space="preserve"><style>.st0{fill:#fff}.st1{fill:#dc3821}.st2{fill:#100f0d}</style><g id="oregon-st_1_"><g id="oregon-st_BGD"><g id="oregon-st" transform="translate(0 44)"><g id="g10" transform="matrix(1 0 0 -1 0 112.222)"><g id="g12"><path id="path14" class="st0" d="M107.9 79.2c-1.6-.2-2.8-1.8-2.5-3.4.2-1.6 1.8-2.8 3.4-2.5 1.6.2 2.8 1.8 2.5 3.4-.2 1.6-1.8 2.8-3.4 2.5"/><path id="path16" class="st0" d="M113.6 75.5c-.7-.1-1.1-.7-1-1.4.1-.7.7-1.1 1.4-1 .7.1 1.1.7 1 1.4-.1.6-.7 1.1-1.4 1"/><path id="path18" class="st0" d="M173.7 39.2l-3.6-5-.6 4.3c-6.8.7-11.6-3.4-11.6-3.4l-2.2-6.2s-1.5-4.1-2.5-7.4c-3-10-7-12.5-8.5-13.1h3.4c1.5.6 4.4 1.9 6.1 4.4 0 0-.4-1.5-1-2.7h1.6c.6.3 1.1.6 1.5.9 5.4 3.8 20.8 28.9 20.8 28.9l-3.4-.7"/><path id="path20" class="st1" d="M117.9 13.3c6.7-3.4 19.4-3.5 19.4-3.5 7.7 3.6 8.7 11.7 8.7 11.7-12.7-9.5-28.1-8.2-28.1-8.2"/><path id="path22" class="st1" d="M174.9 55.5c-3.8-.9-6.1.2-6.1.2 3.7 3.4 7.9 3.6 7.9 3.6-2.5-.9-4.9-2.6-1.8-3.8zM164 49.9c-4.8-1.6-7.9-.5-7.9-.5 4.2 4.8 9.6 5.6 9.6 5.6-3.1-1.5-5.9-4-1.7-5.1zm-.7 15.5c-2.6-1-5-2.7-1.8-3.9-3.9-.9-6.3.2-6.3.2 3.9 3.5 8.1 3.7 8.1 3.7zm9.7 6s9.5-3.2 16.6-.3c0 0-28.6 20.8-71.1 31.4 2.2-2.1 3.5-5.7 3.5-5.7s-20.5 7.4-46.7 7.4c1.8-2 2.7-4.8 2.8-5.2-.8.1-17.9 2.2-32.9-.3 0 0-1.8-.3-4.1-.8-.7-.2-1.4-.3-2.1-.5-3-.6-7.6-1.8-11.1-3.6 0 0 8.1-1.4 22-16.5h5.5c-1.6 3.2-4.8 10.5-3.4 17.3.9-.2 1.6-.3 1.9-.3 5.8-1.3 17.6-5.5 22.2-19.2 0 0 1.5 3.3 1.5 8.1 16 6.6 32.2 10.7 38.4 2.6-12.1 4.4-19.2-2.7-16.6-10.1 2.1 8.7 13.2 10.9 21 1.8 6.7-7.8 18.2-6.8 18.2-6.8s-1.4 1.7-1.8 3.6c0 0 5.9-2.8 12.8-2 0 0-.1 6 15.8.4 0 0-4-3.6-18.6-5.1 0 0 1.5-1.4 4.1-2.2 0 0-16-4.4-27.1-.9 0 0 2.7 2.2 3.2 4.1 0 0-9.3-4.7-16.6 0-6.5 4.2-10.4 2.9-10.4 2.9s5.4-2.2 6.2-6.9c0 0-27.5-4.6-43.8 5.1 0 0 4.9-11.3 20-14.3 8.3 1.1 20.4 4 39-1.5-5.7-.1-8.2-3.9-9.6-5.5-8.8-.8-28.4-1.2-52.4.7 0 0 61.9-12.9 85.1 2.8-8.5-10.8-28.9-11.3-36-11.5-.4-1.4-.5-5.4-.2-5.8-4.3-1.4-21.5-2.2-32.3-2.3 0 0 50.9-5 70.7 8.7-2.1-3.7-10.7-13.4-37-12.9 4.6-11.5 17-14.3 31.8.7 28.6 25.5 39.5 15.4 42.3 27.8 1.5 6.9-11.7 7.9-10.8 14.8z"/><path id="path24" class="st2" d="M174.9 55.5c-3.1 1.1-.7 2.8 1.8 3.8 0 0-4.2-.2-7.9-3.6 0 .1 2.3-1 6.1-.2"/><path id="path26" class="st2" d="M161.5 61.5c-3.2 1.2-.8 2.9 1.8 3.9 0 0-4.3-.2-8.1-3.7 0 0 2.4-1.1 6.3-.2"/><path id="path28" class="st2" d="M165.7 55s-5.4-.8-9.6-5.6c0 0 3.1-1.1 7.9.5-4.2 1.1-1.4 3.6 1.7 5.1"/><path id="path30" class="st2" d="M112.6 74.1c-.1.7.4 1.3 1 1.4.7.1 1.3-.4 1.4-1 .1-.7-.4-1.3-1-1.4-.7-.2-1.3.3-1.4 1zm-4.7 5.1c1.6.2 3.2-.9 3.4-2.5.2-1.6-.9-3.2-2.5-3.4-1.6-.2-3.2.9-3.4 2.5-.3 1.7.9 3.2 2.5 3.4zm75.8-22.7c-2.8-12.4-13.7-2.3-42.3-27.8-14.7-14.9-27.1-12.2-31.8-.7 26.3-.5 34.9 9.2 37 12.9-19.8-13.6-70.7-8.7-70.7-8.7 10.8.1 28.1.9 32.3 2.3-.2.4-.2 4.4.2 5.8 7.1.1 27.6.6 36 11.5C121.2 36.1 59.3 49 59.3 49c24-1.9 43.6-1.5 52.4-.7 1.5 1.6 3.9 5.3 9.6 5.5-18.6 5.5-30.8 2.6-39 1.5-15.1 3-20 14.3-20 14.3 16.3-9.7 43.8-5.1 43.8-5.1-.8 4.7-6.2 6.9-6.2 6.9s3.9 1.3 10.4-2.9c7.2-4.7 16.6 0 16.6 0-.6-1.9-3.2-4.1-3.2-4.1 11.1-3.5 27.1.9 27.1.9-2.6.8-4.1 2.2-4.1 2.2 14.6 1.5 18.6 5.1 18.6 5.1-16 5.6-15.8-.4-15.8-.4-6.9-.8-12.8 2-12.8 2 .4-1.9 1.8-3.6 1.8-3.6s-11.4-1-18.2 6.8c-7.8 9.1-18.9 6.9-21-1.8-2.5 7.4 4.5 14.5 16.6 10.1-6.2 8.1-22.4 4-38.4-2.6 0-4.8-1.5-8.1-1.5-8.1-4.5 13.7-16.4 17.9-22.2 19.2-.3 0-1 .2-1.9.3-1.3-6.8 1.8-14.1 3.4-17.3h-5.5c-14 15.1-22 16.5-22 16.5 3.5 1.8 8.1 3 11.1 3.6.7.2 1.4.4 2.1.5 2.4.6 4.1.8 4.1.8 15 2.5 32.1.4 32.9.3-.1.4-1 3.2-2.8 5.2 26.2.1 46.7-7.4 46.7-7.4s-1.3 3.6-3.5 5.7C160.9 91.8 189.5 71 189.5 71c-7.1-2.9-16.6.3-16.6.3-.8-6.8 12.4-7.8 10.8-14.8zm-27.4-45.4l-1.5-.9h-1.6c.6 1.2 1 2.7 1 2.7-1.7-2.5-4.6-3.9-6.1-4.4h-3.4c1.5.6 5.5 3.1 8.5 13.1 1 3.3 2.5 7.4 2.5 7.4l2.2 6.2s4.9 4.2 11.6 3.4l.6-4.3 3.6 5 3.4.8c0-.1-15.4-25.2-20.8-29zm-19.1-1.4s-12.6.2-19.4 3.5c0 0 15.4-1.3 28 8.2.1.1-.8-8.1-8.6-11.7zm34.6 78.5c-5.1 2.8-10.9 5.6-17.3 8.3-17.1 7.2-34.2 11.4-50.4 13.7-7.7 1-15.8 1.6-24.3 1.6-20.9 0-44-3.5-68.8-12.4l-7.2-2.7-3.9-1.5s4.4-1 10.9-3.9C20 87.1 33.4 79 44 64.3h-2.2c-1.2 0-2.5 0-3.8.1-2.4.1-5.7.3-8.5.9-.6.1-1.1.2-1.6.4 0 0 .4-.9 1.2-2.4 2.6-4.7 9.9-15.1 25.5-22.7 0 0-.7-.1-1.9-.3-.7-.1-1.5-.1-2.4-.2H48.6c-1.9 0-4.1.2-6.7.6.3-.3.9-1.1 1.8-2 5-5.5 19-19.5 41.7-23.6h.3s-2.9-.6-7.2-.8c-.9 0-1.9-.1-2.9-.1s-2 0-3 .1c-.3 0-.7 0-1 .1 1.1-.6 2.1-1.1 3.2-1.6.1 0 .2-.1.3-.1C81.8 8.3 99.5 0 131.9 0c5.8 0 12.1.3 18.8.9.3 0 .6.1.9.1.5 0 1 .1 1.4.1.1.1.3.1.4.2 5.1 2.1 12.1 10.6 19 21 11.2 16.8 22.5 38.3 26 45.1l1.1 2.2c-9 7.3-18.3 13.5-27.7 18.6z"/></g></g></g></g></g></svg>