<?xml version="1.0" encoding="utf-8"?>
<!-- Generator: Adobe Illustrator 24.1.2, SVG Export Plug-In . SVG Version: 6.00 Build 0)  -->
<svg version="1.1" id="Layer_1" xmlns="http://www.w3.org/2000/svg" xmlns:xlink="http://www.w3.org/1999/xlink" x="0px" y="0px"
	 viewBox="0 0 200 200" style="enable-background:new 0 0 200 200;" xml:space="preserve">
<style type="text/css">
	.st0{fill:#FFFFFF;}
	.st1{fill:#DC3821;}
	.st2{fill:#100F0D;}
</style>
<desc>Created with Sketch.</desc>
<g id="oregon-st_1_">
	<g id="oregon-st_BGD">
		<g id="oregon-st" transform="translate(0.000000, 44.000000)">
			
				<g id="g10" transform="translate(99.999998, 56.161619) scale(-1, 1) rotate(-180.000000) translate(-99.999998, -56.161619) translate(0.000000, 0.101014)">
				<g id="g12">
					<path id="path14" class="st0" d="M107.9,79.2c-1.6-0.2-2.8-1.8-2.5-3.4c0.2-1.6,1.8-2.8,3.4-2.5c1.6,0.2,2.8,1.8,2.5,3.4
						C111.1,78.3,109.5,79.5,107.9,79.2"/>
					<path id="path16" class="st0" d="M113.6,75.5c-0.7-0.1-1.1-0.7-1-1.4c0.1-0.7,0.7-1.1,1.4-1c0.7,0.1,1.1,0.7,1,1.4
						C114.9,75.1,114.3,75.6,113.6,75.5"/>
					<path id="path18" class="st0" d="M173.7,39.2l-3.6-5l-0.6,4.3c-6.8,0.7-11.6-3.4-11.6-3.4l-2.2-6.2c0,0-1.5-4.1-2.5-7.4
						c-3-10-7-12.5-8.5-13.1h3.4c1.5,0.6,4.4,1.9,6.1,4.4c0,0-0.4-1.5-1-2.7h1.6c0.6,0.3,1.1,0.6,1.5,0.9
						c5.4,3.8,20.8,28.9,20.8,28.9L173.7,39.2"/>
					<path id="path20" class="st1" d="M117.9,13.3c6.7-3.4,19.4-3.5,19.4-3.5c7.7,3.6,8.7,11.7,8.7,11.7
						C133.3,12,117.9,13.3,117.9,13.3"/>
					<path id="path22" class="st1" d="M174.9,55.5c-3.8-0.9-6.1,0.2-6.1,0.2c3.7,3.4,7.9,3.6,7.9,3.6
						C174.2,58.4,171.8,56.7,174.9,55.5z M164,49.9c-4.8-1.6-7.9-0.5-7.9-0.5c4.2,4.8,9.6,5.6,9.6,5.6C162.6,53.5,159.8,51,164,49.9
						L164,49.9z M163.3,65.4c-2.6-1-5-2.7-1.8-3.9c-3.9-0.9-6.3,0.2-6.3,0.2C159.1,65.2,163.3,65.4,163.3,65.4z M173,71.4
						c0,0,9.5-3.2,16.6-0.3c0,0-28.6,20.8-71.1,31.4c2.2-2.1,3.5-5.7,3.5-5.7s-20.5,7.4-46.7,7.4c1.8-2,2.7-4.8,2.8-5.2
						c-0.8,0.1-17.9,2.2-32.9-0.3c0,0-1.8-0.3-4.1-0.8c0,0,0,0,0,0c-0.7-0.2-1.4-0.3-2.1-0.5c-3-0.6-7.6-1.8-11.1-3.6
						c0,0,8.1-1.4,22-16.5h5.4h0.1c-1.6,3.2-4.8,10.5-3.4,17.3c0.9-0.2,1.6-0.3,1.9-0.3c5.8-1.3,17.6-5.5,22.2-19.2
						c0,0,1.5,3.3,1.5,8.1c16,6.6,32.2,10.7,38.4,2.6c-12.1,4.4-19.2-2.7-16.6-10.1c2.1,8.7,13.2,10.9,21,1.8
						c6.7-7.8,18.2-6.8,18.2-6.8s-1.4,1.7-1.8,3.6c0,0,5.9-2.8,12.8-2c0,0-0.1,6,15.8,0.4c0,0-4-3.6-18.6-5.1c0,0,1.5-1.4,4.1-2.2
						c0,0-16-4.4-27.1-0.9c0,0,2.7,2.2,3.2,4.1c0,0-9.3-4.7-16.6,0c-6.5,4.2-10.4,2.9-10.4,2.9s5.4-2.2,6.2-6.9
						c0,0-27.5-4.6-43.8,5.1c0,0,4.9-11.3,20-14.3c8.3,1.1,20.4,4,39-1.5c-5.7-0.1-8.2-3.9-9.6-5.5c-8.8-0.8-28.4-1.2-52.4,0.7
						c0,0,61.9-12.9,85.1,2.8c-8.5-10.8-28.9-11.3-36-11.5c-0.4-1.4-0.5-5.4-0.2-5.8c-4.3-1.4-21.5-2.2-32.3-2.3
						c0,0,50.9-5,70.7,8.7c-2.1-3.7-10.7-13.4-37-12.9c4.6-11.5,17-14.3,31.8,0.7c28.6,25.5,39.5,15.4,42.3,27.8
						C185.3,63.5,172.1,64.5,173,71.4L173,71.4z"/>
					<path id="path24" class="st2" d="M174.9,55.5c-3.1,1.1-0.7,2.8,1.8,3.8c0,0-4.2-0.2-7.9-3.6C168.8,55.8,171.1,54.7,174.9,55.5"
						/>
					<path id="path26" class="st2" d="M161.5,61.5c-3.2,1.2-0.8,2.9,1.8,3.9c0,0-4.3-0.2-8.1-3.7C155.2,61.7,157.6,60.6,161.5,61.5"
						/>
					<path id="path28" class="st2" d="M165.7,55c0,0-5.4-0.8-9.6-5.6c0,0,3.1-1.1,7.9,0.5C159.8,51,162.6,53.5,165.7,55"/>
					<path id="path30" class="st2" d="M112.6,74.1c-0.1,0.7,0.4,1.3,1,1.4c0.7,0.1,1.3-0.4,1.4-1c0.1-0.7-0.4-1.3-1-1.4
						C113.3,72.9,112.7,73.4,112.6,74.1L112.6,74.1z M107.9,79.2c1.6,0.2,3.2-0.9,3.4-2.5c0.2-1.6-0.9-3.2-2.5-3.4
						c-1.6-0.2-3.2,0.9-3.4,2.5C105.1,77.5,106.3,79,107.9,79.2L107.9,79.2z M183.7,56.5c-2.8-12.4-13.7-2.3-42.3-27.8
						c-14.7-14.9-27.1-12.2-31.8-0.7c26.3-0.5,34.9,9.2,37,12.9c-19.8-13.6-70.7-8.7-70.7-8.7c10.8,0.1,28.1,0.9,32.3,2.3
						c-0.2,0.4-0.2,4.4,0.2,5.8c7.1,0.1,27.6,0.6,36,11.5c-23.2-15.7-85.1-2.8-85.1-2.8c24-1.9,43.6-1.5,52.4-0.7
						c1.5,1.6,3.9,5.3,9.6,5.5c-18.6,5.5-30.8,2.6-39,1.5c-15.1,3-20,14.3-20,14.3c16.3-9.7,43.8-5.1,43.8-5.1
						c-0.8,4.7-6.2,6.9-6.2,6.9s3.9,1.3,10.4-2.9c7.2-4.7,16.6,0,16.6,0c-0.6-1.9-3.2-4.1-3.2-4.1c11.1-3.5,27.1,0.9,27.1,0.9
						c-2.6,0.8-4.1,2.2-4.1,2.2c14.6,1.5,18.6,5.1,18.6,5.1c-16,5.6-15.8-0.4-15.8-0.4c-6.9-0.8-12.8,2-12.8,2
						c0.4-1.9,1.8-3.6,1.8-3.6s-11.4-1-18.2,6.8c-7.8,9.1-18.9,6.9-21-1.8c-2.5,7.4,4.5,14.5,16.6,10.1c-6.2,8.1-22.4,4-38.4-2.6
						c0-4.8-1.5-8.1-1.5-8.1c-4.5,13.7-16.4,17.9-22.2,19.2c-0.3,0-1,0.2-1.9,0.3c-1.3-6.8,1.8-14.1,3.4-17.3h-0.1h-5.4
						c-14,15.1-22,16.5-22,16.5c3.5,1.8,8.1,3,11.1,3.6c0.7,0.2,1.4,0.4,2.1,0.5c0,0,0,0,0,0c2.4,0.6,4.1,0.8,4.1,0.8
						c15,2.5,32.1,0.4,32.9,0.3c-0.1,0.4-1,3.2-2.8,5.2c26.2,0.1,46.7-7.4,46.7-7.4s-1.3,3.6-3.5,5.7c42.5-10.6,71.1-31.4,71.1-31.4
						c-7.1-2.9-16.6,0.3-16.6,0.3C172.1,64.5,185.3,63.5,183.7,56.5z M156.3,11.1c-0.5-0.3-1-0.6-1.5-0.9h-1.6c0.6,1.2,1,2.7,1,2.7
						c-1.7-2.5-4.6-3.9-6.1-4.4h-3.4c1.5,0.6,5.5,3.1,8.5,13.1c1,3.3,2.5,7.4,2.5,7.4l2.2,6.2c0,0,4.9,4.2,11.6,3.4l0.6-4.3l3.6,5
						l3.4,0.8C177.1,40,161.7,14.9,156.3,11.1L156.3,11.1z M137.2,9.7c0,0-12.6,0.2-19.4,3.5c0,0,15.4-1.3,28,8.2
						C145.9,21.5,145,13.3,137.2,9.7z M171.8,88.2c-5.1,2.8-10.9,5.6-17.3,8.3c-17.1,7.2-34.2,11.4-50.4,13.7
						c-7.7,1-15.8,1.6-24.3,1.6c-20.9,0-44-3.5-68.8-12.4c-2.4-0.9-4.8-1.8-7.2-2.7c-1.3-0.5-2.6-1-3.9-1.5c0,0,4.4-1,10.9-3.9
						C20,87.1,33.4,79,44,64.3c-0.7,0-1.4,0-2.2,0c-1.2,0-2.5,0-3.8,0.1c-2.4,0.1-5.7,0.3-8.5,0.9c-0.6,0.1-1.1,0.2-1.6,0.4
						c0,0,0.4-0.9,1.2-2.4c2.6-4.7,9.9-15.1,25.5-22.7c0,0-0.7-0.1-1.9-0.3c-0.7-0.1-1.5-0.1-2.4-0.2c-0.4,0-0.9,0-1.3,0
						c-0.1,0-0.3,0-0.4,0c-1.9,0-4.1,0.2-6.7,0.6c0.3-0.3,0.9-1.1,1.8-2c5-5.5,19-19.5,41.7-23.6c0.1,0,0.2,0,0.3,0
						c0,0-2.9-0.6-7.2-0.8c-0.9,0-1.9-0.1-2.9-0.1c-1,0-2,0-3,0.1c-0.3,0-0.7,0-1,0.1c1.1-0.6,2.1-1.1,3.2-1.6
						c0.1,0,0.2-0.1,0.3-0.1C81.8,8.3,99.5,0,131.9,0c5.8,0,12.1,0.3,18.8,0.9c0.3,0,0.6,0.1,0.9,0.1c0.5,0,1,0.1,1.4,0.1h0
						c0.1,0.1,0.3,0.1,0.4,0.2c5.1,2.1,12.1,10.6,19,21c11.2,16.8,22.5,38.3,26,45.1c0.7,1.4,1.1,2.2,1.1,2.2
						C190.5,76.9,181.2,83.1,171.8,88.2L171.8,88.2z"/>
				</g>
			</g>
		</g>
	</g>
</g>
</svg>
