<svg width="364.90002" height="364" xmlns="http://www.w3.org/2000/svg">
 <defs>
  <style>.cls-1{fill:#666;}.cls-2{fill:#b00;}</style>
 </defs>
 <g>
  <title>background</title>
  <rect fill="none" id="canvas_background" height="366" width="366.90002" y="-1" x="-1"/>
 </g>
 <g>
  <title>Layer 1</title>
  <path id="svg_1" d="m92,131.699997l-0.3,113.8c4.6,-1.5 8.7,-3 13.8,-4.5l0,-112.5c-4.5,1.2 -9,2 -13.5,3.2"/>
  <path id="svg_2" d="m288.1,149.999997c1,0.3 11,3.4 11,3.4l0,102.4a136.50274,136.50274 0 0 1 13.6,7.6l0,-105.3s12.1,4.7 13,5.1l0,-15.3c-12.1,-5.1 -25.2,-9 -37.7,-12.8l0.1,14.9z"/>
  <path id="svg_3" d="m244.7,125.499997c-12.2,-2.2 -23.2,-3.3 -35.5,-4.4l0,14.2c4.1,0.4 10.3,1.1 10.3,1.1l0,96.1c5.1,0.7 10.3,1.4 14.9,2.2l-0.5,-96.5s5.6,0.8 10.8,1.7l0,-14.4z"/>
  <path id="svg_4" d="m126.5,221.499997l0.3,-81.8l8.8,-1.3l0.4,81.3l-9.5,1.8zm-5.6,-95.8l-8.1,10.6l0.1,94.3l7.3,6.6c8.3,-2 14.4,-3 22.4,-4.2l6.7,-8.8l0.3,-92.1l-9.4,-9.2c-6.3,0.8 -12.8,1.6 -19.3,2.8"/>
  <path id="svg_5" d="m269.9,177.899997l-8.3,-2.1l0,-32.6l8.4,2.1l-0.1,32.6zm13.6,-32.1l-7.7,-13.9c-6.5,-1.8 -12.3,-2.8 -18.8,-4.2l-9,8.2l0,101.6c4.5,1.2 9,2.1 13.4,3.5l0,-50.7l8.8,2.5l0,51.1c4.5,1.7 9,3.1 13.3,5l0,-103.1z"/>
  <path id="svg_6" d="m70.6,184.099997l-9.1,3.5l-0.2,-47c-4.7,1.7 -9.1,3 -13.8,4.9l0,122.1c5,-3.4 8.8,-5.3 14.7,-8.9l-0.1,-55.8s5.3,-2.3 9.3,-3.7l0.1,54.7c4.5,-2.2 8.3,-3.7 13.1,-5.7l0,-114.5c-4.7,1.4 -9.4,2.4 -14,4.1l0,46.3z"/>
  <polygon id="svg_7" points="160.89999389648438,208.1999969482422 160.89999389648438,253.8000030517578 171.10000610351562,263.8999938964844 196,264 206.10000610351562,253.8000030517578 205.8000030517578,181 194.89999389648438,170.60000610351562 176.10000610351562,170.60000610351562 176.10000610351562,114.69999694824219 191.10000610351562,114.80000305175781 191.10000610351562,150.60000610351562 205.89999389648438,150.60000610351562 205.89999389648438,109.19999694824219 195.89999389648438,99.19999694824219 171.10000610351562,99.19999694824219 160.89999389648438,109.30000305175781 160.89999389648438,177.3000030517578 172,187.89999389648438 190.60000610351562,187.89999389648438 190.6999969482422,249.89999389648438 175.8000030517578,249.89999389648438 175.8000030517578,208.1999969482422 160.89999389648438,208.1999969482422 "/>
  <path id="svg_8" d="m24.8,304.699997l-10.3,7l0.1,-136l10.3,-5.4l-0.1,134.4zm-17.7,-141.3l-7.1,13.6l0,144.9l11.2,7.5c1.9,-1.2 19.5,-11.9 20.7,-12.5l6.6,-14.2l0.1,-142.3l-10.3,-7.5c-7.3,3.4 -14.2,6.6 -21.2,10.5"/>
  <path id="svg_9" d="m330.7,304.999997c10.1,7.7 24.9,19.5 34.2,27.3l0,-18.6c-6.3,-5.1 -19.4,-15.6 -19.4,-15.6l0,-56.6s13.4,7.3 19.4,10.9l0,-17.7c-5.8,-3.6 -20,-11.2 -20,-11.2l0,-51.5s13.2,6.5 20,10.4l0,-16.3c-10.9,-6.5 -23,-11.1 -34.6,-16.3l0.4,155.2z"/>
  <path id="svg_10" d="m140.5,241.599997l0,20.9l22.2,21.8l41.6,0.3l22.1,-22.3l0.1,-20.4c-3.8,-0.6 -6.7,-1.1 -10.5,-1.6l0,17.6l-15.7,15.7l-33.2,0.1l-16,-15.5l0,-17.8c-3.8,0.4 -6.8,0.5 -10.6,1.2" class="cls-1"/>
  <path id="svg_11" d="m163,78.699997l-22.5,22l0,13.1c3.8,-0.5 6.8,-0.6 10.6,-1l0,-7.7l16.1,-15.7l32.7,0l15.8,15.7l0,7.6c3.8,0.4 6.9,0.8 10.7,1.3l0,-13.2l-22,-22l-41.4,-0.1z" class="cls-1"/>
  <path id="svg_12" d="m303,68.399997l-66.6,-66.4l-105.3,0l-67.4,66.2l0.1,52c-21,6.7 -43.1,14.8 -63.5,25.8l0,11c22.4,-12.9 55.9,-24.1 74.1,-29.5l0,-54.3l61.3,-60.5l96.1,0l60.6,59.9l-0.1,54.5c21,5.9 52.4,17.8 72.6,29.1l0,-11c-20.3,-10.9 -40.5,-18.2 -61.9,-25.1l0,-51.7z" class="cls-1"/>
  <path id="svg_13" d="m292.5,289.699997l-60.5,61.1l-96.5,-0.1l-61,-60.7l0,-28.6a169.09653,169.09653 0 0 0 -26.9,16l0,12.6c4.8,-3.8 10.8,-8.8 16.2,-12l0,16l67.6,67.2l104.7,0.1l67,-67l0,-15.7a143.56855,143.56855 0 0 1 20.5,14.4l0,-12.3a171.67039,171.67039 0 0 0 -31,-19.3l-0.1,28.3z" class="cls-1"/>
  <path id="svg_14" d="m139.6,22.499997l-55.6,54.7l0,47.5c15.8,-4.4 31,-7.1 46.6,-9.5l0,-18.7l28.2,-27.5l49.7,0l27.6,27.7l0,18.4a378.316,378.316 0 0 1 46.6,9.6l0,-47.1l-55,-55l-88.1,-0.1z" class="cls-2"/>
  <path id="svg_15" d="m84.2,285.899997l55.2,54.4l88.5,0.7l54.8,-55.4l0,-28.4a231.57363,231.57363 0 0 0 -46.5,-14l0,23.1l-27.4,28l-50.1,-0.4l-28,-27.6l0,-23c-16.5,3.3 -32.7,8 -46.5,13.9l0,28.7z" class="cls-2"/>
 </g>
</svg>