<svg width="364.9" height="364" xmlns="http://www.w3.org/2000/svg"><defs><style>.cls-1{fill:#666}.cls-2{fill:#b00}</style></defs><path fill="none" id="canvas_background" d="M-1-1h366.9v366H-1z"/><g><path id="svg_1" d="M92 131.7l-.3 113.8c4.6-1.5 8.7-3 13.8-4.5V128.5c-4.5 1.2-9 2-13.5 3.2"/><path id="svg_2" d="M288.1 150c1 .3 11 3.4 11 3.4v102.4a136.503 136.503 0 0113.6 7.6V158.1s12.1 4.7 13 5.1v-15.3c-12.1-5.1-25.2-9-37.7-12.8l.1 14.9z"/><path id="svg_3" d="M244.7 125.5c-12.2-2.2-23.2-3.3-35.5-4.4v14.2c4.1.4 10.3 1.1 10.3 1.1v96.1c5.1.7 10.3 1.4 14.9 2.2l-.5-96.5s5.6.8 10.8 1.7v-14.4z"/><path id="svg_4" d="M126.5 221.5l.3-81.8 8.8-1.3.4 81.3-9.5 1.8zm-5.6-95.8l-8.1 10.6.1 94.3 7.3 6.6c8.3-2 14.4-3 22.4-4.2l6.7-8.8.3-92.1-9.4-9.2c-6.3.8-12.8 1.6-19.3 2.8"/><path id="svg_5" d="M269.9 177.9l-8.3-2.1v-32.6l8.4 2.1-.1 32.6zm13.6-32.1l-7.7-13.9c-6.5-1.8-12.3-2.8-18.8-4.2l-9 8.2v101.6c4.5 1.2 9 2.1 13.4 3.5v-50.7l8.8 2.5v51.1c4.5 1.7 9 3.1 13.3 5V145.8z"/><path id="svg_6" d="M70.6 184.1l-9.1 3.5-.2-47c-4.7 1.7-9.1 3-13.8 4.9v122.1c5-3.4 8.8-5.3 14.7-8.9l-.1-55.8s5.3-2.3 9.3-3.7l.1 54.7c4.5-2.2 8.3-3.7 13.1-5.7V133.7c-4.7 1.4-9.4 2.4-14 4.1v46.3z"/><path id="svg_7" d="M160.9 208.2v45.6l10.2 10.1 24.9.1 10.1-10.2-.3-72.8-10.9-10.4h-18.8v-55.9l15 .1v35.8h14.8v-41.4l-10-10h-24.8l-10.2 10.1v68l11.1 10.6h18.6l.1 62h-14.9v-41.7h-14.9z"/><path id="svg_8" d="M24.8 304.7l-10.3 7 .1-136 10.3-5.4-.1 134.4zM7.1 163.4L0 177v144.9l11.2 7.5c1.9-1.2 19.5-11.9 20.7-12.5l6.6-14.2.1-142.3-10.3-7.5c-7.3 3.4-14.2 6.6-21.2 10.5"/><path id="svg_9" d="M330.7 305c10.1 7.7 24.9 19.5 34.2 27.3v-18.6c-6.3-5.1-19.4-15.6-19.4-15.6v-56.6s13.4 7.3 19.4 10.9v-17.7c-5.8-3.6-20-11.2-20-11.2V172s13.2 6.5 20 10.4v-16.3c-10.9-6.5-23-11.1-34.6-16.3l.4 155.2z"/><path id="svg_10" d="M140.5 241.6v20.9l22.2 21.8 41.6.3 22.1-22.3.1-20.4c-3.8-.6-6.7-1.1-10.5-1.6v17.6l-15.7 15.7-33.2.1-16-15.5v-17.8c-3.8.4-6.8.5-10.6 1.2" class="cls-1"/><path id="svg_11" d="M163 78.7l-22.5 22v13.1c3.8-.5 6.8-.6 10.6-1v-7.7l16.1-15.7h32.7l15.8 15.7v7.6c3.8.4 6.9.8 10.7 1.3v-13.2l-22-22-41.4-.1z" class="cls-1"/><path id="svg_12" d="M303 68.4L236.4 2H131.1L63.7 68.2l.1 52C42.8 126.9 20.7 135 .3 146v11c22.4-12.9 55.9-24.1 74.1-29.5V73.2l61.3-60.5h96.1l60.6 59.9-.1 54.5c21 5.9 52.4 17.8 72.6 29.1v-11c-20.3-10.9-40.5-18.2-61.9-25.1V68.4z" class="cls-1"/><path id="svg_13" d="M292.5 289.7L232 350.8l-96.5-.1-61-60.7v-28.6a169.097 169.097 0 00-26.9 16V290c4.8-3.8 10.8-8.8 16.2-12v16l67.6 67.2 104.7.1 67-67v-15.7a143.569 143.569 0 0120.5 14.4v-12.3a171.67 171.67 0 00-31-19.3l-.1 28.3z" class="cls-1"/><path id="svg_14" d="M139.6 22.5L84 77.2v47.5c15.8-4.4 31-7.1 46.6-9.5V96.5L158.8 69h49.7l27.6 27.7v18.4a378.316 378.316 0 0146.6 9.6V77.6l-55-55-88.1-.1z" class="cls-2"/><path id="svg_15" d="M84.2 285.9l55.2 54.4 88.5.7 54.8-55.4v-28.4a231.574 231.574 0 00-46.5-14v23.1l-27.4 28-50.1-.4-28-27.6v-23c-16.5 3.3-32.7 8-46.5 13.9v28.7z" class="cls-2"/></g></svg>