<?xml version="1.0" encoding="utf-8"?>
<!-- Generator: Adobe Illustrator 24.1.2, SVG Export Plug-In . SVG Version: 6.00 Build 0)  -->
<svg version="1.1" id="Layer_1" xmlns="http://www.w3.org/2000/svg" xmlns:xlink="http://www.w3.org/1999/xlink" x="0px" y="0px"
	 viewBox="0 0 200 200" style="enable-background:new 0 0 200 200;" xml:space="preserve">
<style type="text/css">
	.st0{fill:#FFFFFF;}
	.st1{fill:none;stroke:#FFFFFF;stroke-linecap:square;}
	.st2{fill:#0E2B58;}
	.st3{fill:none;stroke:#0E2B58;stroke-linecap:square;}
</style>
<desc>Created with Sketch.</desc>
<g id="penn-st_1_">
	<g id="penn-st_BGD" transform="translate(0.000000, -0.000000)">
		<g id="penn-st" transform="translate(0.000000, 31.000000)">
			
				<g id="g10" transform="translate(99.908673, 68.942467) scale(-1, 1) rotate(-180.000000) translate(-99.908673, -68.942467) translate(0.000000, 0.084021)">
				<g id="g12">
					<path id="path14" class="st0" d="M178.2,111c14.8-13.5,24.6-30.7,20.5-51.2C193.1,29,160.2,9.3,132.4,3.4
						c-23.2-5.7-50.5-3.9-72.8,2.4c-22.4,7.1-47.7,21.9-57,45.8C-4.8,73.9,4.5,96.2,21.9,111c24.1,20.2,53.7,28,86.7,26.3
						C134.4,135,158.3,127.8,178.2,111"/>
					<path id="path16" class="st1" d="M178.2,111c14.8-13.5,24.6-30.7,20.5-51.2C193.1,29,160.2,9.3,132.4,3.4
						c-23.2-5.7-50.5-3.9-72.8,2.4c-22.4,7.1-47.7,21.9-57,45.8C-4.8,73.9,4.5,96.2,21.9,111c24.1,20.2,53.7,28,86.7,26.3
						C134.4,135,158.3,127.8,178.2,111z"/>
					<path id="path18" class="st2" d="M173,111.6c12.4-9.9,21.1-22.6,23.2-37.4c2.6-22.9-11.7-42.2-30.6-53.9
						c-25.3-15.4-57.5-20.5-89-15.1C56.7,8.6,34.6,22,28.4,42.9C22.1,61.2,26.7,82,40.1,95.5c8.4,9.2,18.5,16.1,28.6,21.7h-1.1
						c-17.2-3.9-33.3-11-46-25.6C9.8,78.4,8.7,56.2,15.7,40.5c1.4-3.6,3.7-6.8,5.7-10.2c-14,12.5-22.1,30.2-16.8,49
						c7.4,27.8,36.9,44.6,62.2,51.2C103.6,139.6,143.9,133.1,173,111.6"/>
					<path id="path20" class="st3" d="M173,111.6c12.4-9.9,21.1-22.6,23.2-37.4c2.6-22.9-11.7-42.2-30.6-53.9
						c-25.3-15.4-57.5-20.5-89-15.1C56.7,8.6,34.6,22,28.4,42.9C22.1,61.2,26.7,82,40.1,95.5c8.4,9.2,18.5,16.1,28.6,21.7h-1.1
						c-17.2-3.9-33.3-11-46-25.6C9.8,78.4,8.7,56.2,15.7,40.5c1.4-3.6,3.7-6.8,5.7-10.2c-14,12.5-22.1,30.2-16.8,49
						c7.4,27.8,36.9,44.6,62.2,51.2C103.6,139.6,143.9,133.1,173,111.6z"/>
					<path id="path22" class="st0" d="M101.5,117.3c13.4-2.4,26.2-6.6,38.7-11.4c4-2,5.8-6.7,9.3-9.9c10.4-8.4,23.1-12.5,31.6-23.8
						c3-5.5-0.1-11.2-3.3-15.6c-6.3-5.5-13.7-8.4-20.7-12.2c-6.9-3.2-13.8-6.4-20.9-9.1c-0.5-0.3,0.1-0.5,0.5-0.9l0.4-0.4
						c10,3.4,19.9,6.8,29.7,10.7c-1-3.4-2.9-6.9-4.4-10.4c-2.2-3.5-4-10.9-15.5-9.5l0,0l-28.4,4.4c-13.6-3.4-26.8-8.4-41.9-7.5
						c-5.4,0.5-10.5,3.1-13.6,8c-2,3.6-3.2,7.7-2.9,12.2c0.7-0.5,1.2-1.5,1.9-2.3c13.4-15.3,37.2-12.5,55.2-8.9
						c12.4,4.1,24.4,9,35.8,15.4c4.4,3.1,7.3,7.6,6.8,13c-1,11.2-13.3,17.9-22,22c-7,2.5-14.4,4.6-22.4,4.3l17.7,8
						c1.2,0.3,1.8-0.9,2.3-1.7c0.7-1.8,0.8-4-0.3-5.6c3.3-0.8,5.2-1.2,7.7-1.9c9.9-3.5,20.3-8.4,26.6-18.1c1.7-3.1,2.1-7.2,1-10.7
						l0.2-0.3c5,1.7,6.8,6,8.2,11.2c-0.1,5.9-6.3,9.4-10.3,12.9c-6.5,4.8-13.3,8.6-20,12.9c-4.2,2.5-5.6,7.9-10.1,9.7
						c-8,2.6-17.6,1-26.2,0.7c-14.9-1.6-28.8-5.7-40.9-14.2c1.3,10.8,3.8,21.4,7.5,31.4c1.8,4,3.8,9.1,8.5,10.7
						C94.6,130.1,97.6,122,101.5,117.3"/>
					<path id="path24" class="st1" d="M101.5,117.3c13.4-2.4,26.2-6.6,38.7-11.4c4-2,5.8-6.7,9.3-9.9c10.4-8.4,23.1-12.5,31.6-23.8
						c3-5.5-0.1-11.2-3.3-15.6c-6.3-5.5-13.7-8.4-20.7-12.2c-6.9-3.2-13.8-6.4-20.9-9.1c-0.5-0.3,0.1-0.5,0.5-0.9l0.4-0.4
						c10,3.4,19.9,6.8,29.7,10.7c-1-3.4-2.9-6.9-4.4-10.4c-2.2-3.5-4-10.9-15.5-9.5l0,0l-28.4,4.4c-13.6-3.4-26.8-8.4-41.9-7.5
						c-5.4,0.5-10.5,3.1-13.6,8c-2,3.6-3.2,7.7-2.9,12.2c0.7-0.5,1.2-1.5,1.9-2.3c13.4-15.3,37.2-12.5,55.2-8.9
						c12.4,4.1,24.4,9,35.8,15.4c4.4,3.1,7.3,7.6,6.8,13c-1,11.2-13.3,17.9-22,22c-7,2.5-14.4,4.6-22.4,4.3l17.7,8
						c1.2,0.3,1.8-0.9,2.3-1.7c0.7-1.8,0.8-4-0.3-5.6c3.3-0.8,5.2-1.2,7.7-1.9c9.9-3.5,20.3-8.4,26.6-18.1c1.7-3.1,2.1-7.2,1-10.7
						l0.2-0.3c5,1.7,6.8,6,8.2,11.2c-0.1,5.9-6.3,9.4-10.3,12.9c-6.5,4.8-13.3,8.6-20,12.9c-4.2,2.5-5.6,7.9-10.1,9.7
						c-8,2.6-17.6,1-26.2,0.7c-14.9-1.6-28.8-5.7-40.9-14.2c1.3,10.8,3.8,21.4,7.5,31.4c1.8,4,3.8,9.1,8.5,10.7
						C94.6,130.1,97.6,122,101.5,117.3L101.5,117.3z"/>
					<path id="path26" class="st2" d="M96.1,118.9c0.3-0.7,1-1.1,0.9-1.9c-8.4-3.5-15.3-12.4-19.7-19.9H77
						c1.2,8.9,3.5,17.3,7.3,25.1c1.1,1.5,1.8,3.5,3.7,4.2C92.1,126.1,93.7,121.5,96.1,118.9"/>
					<path id="path28" class="st3" d="M96.1,118.9c0.3-0.7,1-1.1,0.9-1.9c-8.4-3.5-15.3-12.4-19.7-19.9H77
						c1.2,8.9,3.5,17.3,7.3,25.1c1.1,1.5,1.8,3.5,3.7,4.2C92.1,126.1,93.7,121.5,96.1,118.9L96.1,118.9z"/>
				</g>
			</g>
		</g>
	</g>
</g>
</svg>
