<svg version="1.1" id="Layer_1" xmlns="http://www.w3.org/2000/svg" x="0" y="0" viewBox="0 0 200 200" xml:space="preserve"><style>.st0{fill:#fff}.st1{fill:none;stroke:#fff;stroke-linecap:square}.st2{fill:#0e2b58}.st3{fill:none;stroke:#0e2b58;stroke-linecap:square}</style><g id="penn-st_1_"><g id="penn-st_BGD"><g id="penn-st" transform="translate(0 31)"><g id="g10" transform="matrix(1 0 0 -1 0 137.8)"><g id="g12"><path id="path14" class="st0" d="M178.2 111c14.8-13.5 24.6-30.7 20.5-51.2-5.6-30.8-38.5-50.5-66.3-56.4-23.2-5.7-50.5-3.9-72.8 2.4-22.4 7.1-47.7 21.9-57 45.8-7.4 22.3 1.9 44.6 19.3 59.4 24.1 20.2 53.7 28 86.7 26.3 25.8-2.3 49.7-9.5 69.6-26.3"/><path id="path16" class="st1" d="M178.2 111c14.8-13.5 24.6-30.7 20.5-51.2-5.6-30.8-38.5-50.5-66.3-56.4-23.2-5.7-50.5-3.9-72.8 2.4-22.4 7.1-47.7 21.9-57 45.8-7.4 22.3 1.9 44.6 19.3 59.4 24.1 20.2 53.7 28 86.7 26.3 25.8-2.3 49.7-9.5 69.6-26.3z"/><path id="path18" class="st2" d="M173 111.6c12.4-9.9 21.1-22.6 23.2-37.4 2.6-22.9-11.7-42.2-30.6-53.9-25.3-15.4-57.5-20.5-89-15.1-19.9 3.4-42 16.8-48.2 37.7-6.3 18.3-1.7 39.1 11.7 52.6 8.4 9.2 18.5 16.1 28.6 21.7h-1.1c-17.2-3.9-33.3-11-46-25.6C9.8 78.4 8.7 56.2 15.7 40.5c1.4-3.6 3.7-6.8 5.7-10.2-14 12.5-22.1 30.2-16.8 49 7.4 27.8 36.9 44.6 62.2 51.2 36.8 9.1 77.1 2.6 106.2-18.9"/><path id="path20" class="st3" d="M173 111.6c12.4-9.9 21.1-22.6 23.2-37.4 2.6-22.9-11.7-42.2-30.6-53.9-25.3-15.4-57.5-20.5-89-15.1-19.9 3.4-42 16.8-48.2 37.7-6.3 18.3-1.7 39.1 11.7 52.6 8.4 9.2 18.5 16.1 28.6 21.7h-1.1c-17.2-3.9-33.3-11-46-25.6C9.8 78.4 8.7 56.2 15.7 40.5c1.4-3.6 3.7-6.8 5.7-10.2-14 12.5-22.1 30.2-16.8 49 7.4 27.8 36.9 44.6 62.2 51.2 36.8 9.1 77.1 2.6 106.2-18.9z"/><path id="path22" class="st0" d="M101.5 117.3c13.4-2.4 26.2-6.6 38.7-11.4 4-2 5.8-6.7 9.3-9.9 10.4-8.4 23.1-12.5 31.6-23.8 3-5.5-.1-11.2-3.3-15.6-6.3-5.5-13.7-8.4-20.7-12.2-6.9-3.2-13.8-6.4-20.9-9.1-.5-.3.1-.5.5-.9l.4-.4c10 3.4 19.9 6.8 29.7 10.7-1-3.4-2.9-6.9-4.4-10.4-2.2-3.5-4-10.9-15.5-9.5l-28.4 4.4c-13.6-3.4-26.8-8.4-41.9-7.5-5.4.5-10.5 3.1-13.6 8-2 3.6-3.2 7.7-2.9 12.2.7-.5 1.2-1.5 1.9-2.3 13.4-15.3 37.2-12.5 55.2-8.9 12.4 4.1 24.4 9 35.8 15.4 4.4 3.1 7.3 7.6 6.8 13-1 11.2-13.3 17.9-22 22-7 2.5-14.4 4.6-22.4 4.3l17.7 8c1.2.3 1.8-.9 2.3-1.7.7-1.8.8-4-.3-5.6 3.3-.8 5.2-1.2 7.7-1.9 9.9-3.5 20.3-8.4 26.6-18.1 1.7-3.1 2.1-7.2 1-10.7l.2-.3c5 1.7 6.8 6 8.2 11.2-.1 5.9-6.3 9.4-10.3 12.9-6.5 4.8-13.3 8.6-20 12.9-4.2 2.5-5.6 7.9-10.1 9.7-8 2.6-17.6 1-26.2.7-14.9-1.6-28.8-5.7-40.9-14.2 1.3 10.8 3.8 21.4 7.5 31.4 1.8 4 3.8 9.1 8.5 10.7 7.3-.3 10.3-8.4 14.2-13.1"/><path id="path24" class="st1" d="M101.5 117.3c13.4-2.4 26.2-6.6 38.7-11.4 4-2 5.8-6.7 9.3-9.9 10.4-8.4 23.1-12.5 31.6-23.8 3-5.5-.1-11.2-3.3-15.6-6.3-5.5-13.7-8.4-20.7-12.2-6.9-3.2-13.8-6.4-20.9-9.1-.5-.3.1-.5.5-.9l.4-.4c10 3.4 19.9 6.8 29.7 10.7-1-3.4-2.9-6.9-4.4-10.4-2.2-3.5-4-10.9-15.5-9.5l-28.4 4.4c-13.6-3.4-26.8-8.4-41.9-7.5-5.4.5-10.5 3.1-13.6 8-2 3.6-3.2 7.7-2.9 12.2.7-.5 1.2-1.5 1.9-2.3 13.4-15.3 37.2-12.5 55.2-8.9 12.4 4.1 24.4 9 35.8 15.4 4.4 3.1 7.3 7.6 6.8 13-1 11.2-13.3 17.9-22 22-7 2.5-14.4 4.6-22.4 4.3l17.7 8c1.2.3 1.8-.9 2.3-1.7.7-1.8.8-4-.3-5.6 3.3-.8 5.2-1.2 7.7-1.9 9.9-3.5 20.3-8.4 26.6-18.1 1.7-3.1 2.1-7.2 1-10.7l.2-.3c5 1.7 6.8 6 8.2 11.2-.1 5.9-6.3 9.4-10.3 12.9-6.5 4.8-13.3 8.6-20 12.9-4.2 2.5-5.6 7.9-10.1 9.7-8 2.6-17.6 1-26.2.7-14.9-1.6-28.8-5.7-40.9-14.2 1.3 10.8 3.8 21.4 7.5 31.4 1.8 4 3.8 9.1 8.5 10.7 7.3-.3 10.3-8.4 14.2-13.1z"/><path id="path26" class="st2" d="M96.1 118.9c.3-.7 1-1.1.9-1.9-8.4-3.5-15.3-12.4-19.7-19.9H77c1.2 8.9 3.5 17.3 7.3 25.1 1.1 1.5 1.8 3.5 3.7 4.2 4.1-.3 5.7-4.9 8.1-7.5"/><path id="path28" class="st3" d="M96.1 118.9c.3-.7 1-1.1.9-1.9-8.4-3.5-15.3-12.4-19.7-19.9H77c1.2 8.9 3.5 17.3 7.3 25.1 1.1 1.5 1.8 3.5 3.7 4.2 4.1-.3 5.7-4.9 8.1-7.5z"/></g></g></g></g></g></svg>