<svg width="364.984" height="365" xmlns="http://www.w3.org/2000/svg"><path fill="none" d="M-1-1h366.984v367H-1z"/><g><path d="M358.1 106.05c-13.6-20.5-41.2-22.9-60.8-22.9H84.7l-34 79.8h37.8l-16.6 39H34l-34 79.9h198l23.8-55.8h35.9c63.4 0 84.7-29.7 98.4-61.7 5.5-13.2 15.8-37.5 2-58.3"/><path d="M196.3 142.05h65.2c4.7 0 8.1 1.1 9.4 3 1.5 2.2.3 5.9-.5 7.9-3.7 8.6-12.4 14-22.8 14h-61.8l10.5-24.9m144.4-24.5c-6.1-9.2-19.9-13.5-43.4-13.5H98.4l-16.2 38.1h37.9l-34.4 80.7H47.8l-16.3 38.1h152.7l16.2-38.1h-38.5l7.5-17.7h88.1c53.8 0 68.2-23.2 79.2-49 6-13.8 11.1-28 4-38.6z" fill="#a9b7b5"/><path d="M247.6 170.95h-67.8l14-32.8h67.8c12 0 16.8 6.2 12.5 16.4-4.4 10.2-14.5 16.4-26.5 16.4m49.8-63H101.1l-12.9 30.2h37.9l-37.7 88.6H50.5l-13 30.2h144.1l12.9-30.3H156l10.9-25.6h90.8c52 0 65.1-22 75.6-46.6 10.4-24.5 16.1-46.5-35.9-46.5z" fill="#b1946c"/></g></svg>