<svg width="364.98434" height="365" xmlns="http://www.w3.org/2000/svg">
 <defs>
  <style>.cls-1{fill:#a9b7b5;}.cls-2{fill:#b1946c;}</style>
 </defs>
 <g>
  <title>background</title>
  <rect fill="none" id="canvas_background" height="367" width="366.98434" y="-1" x="-1"/>
 </g>
 <g>
  <title>Layer 1</title>
  <g id="svg_4">
   <path id="svg_1" d="m358.099998,106.049998c-13.6,-20.5 -41.2,-22.9 -60.8,-22.9l-212.6,0l-34,79.8l37.8,0l-16.6,39l-37.9,0l-34,79.9l198,0l23.8,-55.8l35.9,0c63.4,0 84.7,-29.7 98.4,-61.7c5.5,-13.2 15.8,-37.5 2,-58.3"/>
   <path id="svg_2" d="m196.299998,142.049998l65.2,0c4.7,0 8.1,1.1 9.4,3c1.5,2.2 0.3,5.9 -0.5,7.9c-3.7,8.6 -12.4,14 -22.8,14l-61.8,0l10.5,-24.9m144.4,-24.5c-6.1,-9.2 -19.9,-13.5 -43.4,-13.5l-198.9,0l-16.2,38.1l37.9,0l-34.4,80.7l-37.9,0l-16.3,38.1l152.7,0l16.2,-38.1l-38.5,0l7.5,-17.7l88.1,0c53.8,0 68.2,-23.2 79.2,-49c6,-13.8 11.1,-28 4,-38.6z" class="cls-1"/>
   <path id="svg_3" d="m247.599998,170.949998l-67.8,0l14,-32.8l67.8,0c12,0 16.8,6.2 12.5,16.4c-4.4,10.2 -14.5,16.4 -26.5,16.4m49.8,-63l-196.3,0l-12.9,30.2l37.9,0l-37.7,88.6l-37.9,0l-13,30.2l144.1,0l12.9,-30.3l-38.5,0l10.9,-25.6l90.8,0c52,0 65.1,-22 75.6,-46.6c10.4,-24.5 16.1,-46.5 -35.9,-46.5z" class="cls-2"/>
  </g>
 </g>
</svg>