<svg id="Layer_1" data-name="Layer 1" xmlns="http://www.w3.org/2000/svg" viewBox="0 0 68.91429 68.91429"><defs><style>.cls-1{fill:#00274c;}.cls-2{fill:#ffcb05;}.cls-3{fill:#fff;}</style></defs><rect class="cls-1" width="68.91429" height="68.91429"/><g id="svg_1" data-name="svg 1"><g id="svg_2" data-name="svg 2"><path id="svg_3" data-name="svg 3" class="cls-2" d="M34.38828,39.01708l-11.63-16.05873V34.63857h4.65225V46.1723H5.89552V34.63857h4.361V16.67981h-4.361V5.14516h16.9l11.64974,16.205L46.12,5.14516H63.01876V16.67981H58.65727V34.63857h4.36149V46.1723H41.505V34.63857h4.65087V22.95835Z"/></g></g><path class="cls-3" d="M5.97422,52.77708H8.45908a2.89766,2.89766,0,0,1,1.89844.49219,2.08544,2.08544,0,0,1,.56885,1.65234,2.17874,2.17874,0,0,1-.57471,1.76953,2.17122,2.17122,0,0,1-.88477.35742h.09375a1.24556,1.24556,0,0,1,1.04541.4541,1.91215,1.91215,0,0,1,.31446,1.29786q-.01758.48047-.01172,1.002.01172.53905.03516.81738a1.92394,1.92394,0,0,0,.07031.419h-1.688a1.9439,1.9439,0,0,1-.05859-.41016q-.01758-.27538-.01758-.82617v-1.002a1.21126,1.21126,0,0,0-.23438-.876,1.16312,1.16312,0,0,0-.85547-.25488H7.66807v3.375H5.97422Zm1.69385,3.627h.46875a1.17659,1.17659,0,0,0,.875-.24316,1.51261,1.51261,0,0,0,.2207-.96973,1.37428,1.37428,0,0,0-.23242-.92578,1.17162,1.17162,0,0,0-.86328-.24609H7.66807Z"/><path class="cls-3" d="M12.25645,61.04466V52.77708H16.3873v1.23047H13.9498v2.18554h2.35547v1.23047H13.9498v2.39063h2.48438v1.23047Z"/><path class="cls-3" d="M22.69785,58.23216v.24609a2.978,2.978,0,0,1-.53906,2.07129,2.4806,2.4806,0,0,1-1.9043.61816,2.54927,2.54927,0,0,1-2.00683-.6709,3.53631,3.53631,0,0,1-.583-2.30566V55.64231a3.55921,3.55921,0,0,1,.583-2.31738,2.54927,2.54927,0,0,1,2.00683-.6709,2.09561,2.09561,0,0,1,2.39063,2.36719v.4043H20.96348v-.2461a1.9568,1.9568,0,0,0-.167-.96387.58256.58256,0,0,0-.542-.31933.73038.73038,0,0,0-.68554.36621,2.50989,2.50989,0,0,0-.21094,1.19238v2.54883a3.95326,3.95326,0,0,0,.19629,1.5.707.707,0,0,0,.70019.42188.62049.62049,0,0,0,.583-.36036,2.3251,2.3251,0,0,0,.17871-1.08691v-.24609Z"/><path class="cls-3" d="M29.85605,55.33762v-.24609a1.73792,1.73792,0,0,0-.16308-.92578.67749.67749,0,0,0-.61426-.26953.81536.81536,0,0,0-.64941.249,1.1163,1.1163,0,0,0-.21582.74707.93449.93449,0,0,0,.25781.66211,2.90011,2.90011,0,0,0,.88965.57422,5.61245,5.61245,0,0,1,1.76172,1.166,2.023,2.023,0,0,1,.50488,1.39453,2.458,2.458,0,0,1-.64746,1.86035,2.72007,2.72007,0,0,1-1.94629.61816,2.8968,2.8968,0,0,1-2.00586-.55371,2.389,2.389,0,0,1-.58887-1.80762v-.32226H28.109v.24609a1.41024,1.41024,0,0,0,.21875.89649.83452.83452,0,0,0,.70411.29883.85392.85392,0,0,0,.69043-.26954,1.24112,1.24112,0,0,0,.22753-.81445.97445.97445,0,0,0-.27929-.69726,3.31175,3.31175,0,0,0-.96582-.6211A5.22037,5.22037,0,0,1,27.01816,56.404a1.96927,1.96927,0,0,1-.48242-1.35351,2.33085,2.33085,0,0,1,.64746-1.79883,2.78169,2.78169,0,0,1,1.94727-.59766,2.598,2.598,0,0,1,1.88574.55664,2.35124,2.35124,0,0,1,.50879,1.69922l.001.18164v.24609Z"/><path class="cls-3" d="M32.99277,52.77708h2.50782a2.69047,2.69047,0,0,1,1.92187.5625,2.56155,2.56155,0,0,1,.57422,1.88086,2.67016,2.67016,0,0,1-.58008,2.01269,3.50664,3.50664,0,0,1-2.25.51856h-.48047v3.293H32.99277Zm1.69336,3.73242h.48047a1.22467,1.22467,0,0,0,.9082-.252,1.58268,1.58268,0,0,0,.22852-1.01368,1.45746,1.45746,0,0,0-.2373-.96679,1.20915,1.20915,0,0,0-.89942-.25781h-.48047Z"/><path class="cls-3" d="M39.77207,60.53489a3.20629,3.20629,0,0,1-.58008-2.17383V54.95677a2.20165,2.20165,0,0,1,.6416-1.72852,2.81883,2.81883,0,0,1,1.93067-.57422,2.83055,2.83055,0,0,1,1.93359.57422,2.19618,2.19618,0,0,1,.64453,1.72852v3.40429a3.20629,3.20629,0,0,1-.58008,2.17383,2.62248,2.62248,0,0,1-1.998.63281A2.61341,2.61341,0,0,1,39.77207,60.53489Zm2.68359-.9375a2.4836,2.4836,0,0,0,.19336-1.166V55.02708a1.34551,1.34551,0,0,0-.22558-.84375.78784.78784,0,0,0-.65918-.28711.77958.77958,0,0,0-.65625.28711,1.35852,1.35852,0,0,0-.22266.84375v3.40429a2.4836,2.4836,0,0,0,.19336,1.166.88633.88633,0,0,0,1.377,0Z"/><path class="cls-3" d="M45.79551,52.77708h2.48437a2.89766,2.89766,0,0,1,1.89844.49219,2.087,2.087,0,0,1,.56836,1.65234,1.68289,1.68289,0,0,1-1.459,2.127h.09375a1.2459,1.2459,0,0,1,1.04589.4541,1.91223,1.91223,0,0,1,.31348,1.29786q-.01758.48047-.01172,1.002.01171.53905.03516.81738a1.92394,1.92394,0,0,0,.07031.419h-1.6875a1.94456,1.94456,0,0,1-.05859-.41016q-.01758-.27538-.01758-.82617v-1.002a1.21126,1.21126,0,0,0-.23438-.876,1.16312,1.16312,0,0,0-.85547-.25488h-.49218v3.375H45.79551Zm1.69336,3.627h.46875a1.17928,1.17928,0,0,0,.876-.24316,1.51357,1.51357,0,0,0,.21973-.96973,1.37492,1.37492,0,0,0-.23144-.92578,1.17433,1.17433,0,0,0-.86426-.24609h-.46875Z"/><path class="cls-3" d="M53.41855,54.00755H51.6373V52.77708h5.25586v1.23047H55.11191v7.03711H53.41855Z"/><path class="cls-3" d="M61.274,55.33762v-.24609a1.73792,1.73792,0,0,0-.16308-.92578.67749.67749,0,0,0-.61426-.26953.81535.81535,0,0,0-.64941.249,1.1163,1.1163,0,0,0-.21582.74707.93449.93449,0,0,0,.25781.66211,2.90011,2.90011,0,0,0,.88965.57422,5.61245,5.61245,0,0,1,1.76172,1.166,2.023,2.023,0,0,1,.50488,1.39453,2.458,2.458,0,0,1-.64746,1.86035,2.72007,2.72007,0,0,1-1.94629.61816A2.8968,2.8968,0,0,1,58.4459,60.614a2.389,2.389,0,0,1-.58887-1.80762v-.32226H59.527v.24609a1.41024,1.41024,0,0,0,.21875.89649.83451.83451,0,0,0,.7041.29883.85389.85389,0,0,0,.69043-.26954,1.24107,1.24107,0,0,0,.22754-.81445.97445.97445,0,0,0-.27929-.69726,3.3119,3.3119,0,0,0-.96582-.6211A5.22037,5.22037,0,0,1,58.43613,56.404a1.96922,1.96922,0,0,1-.48242-1.35351,2.33085,2.33085,0,0,1,.64746-1.79883,2.78169,2.78169,0,0,1,1.94727-.59766,2.598,2.598,0,0,1,1.88574.55664,2.35124,2.35124,0,0,1,.50879,1.69922l.001.18164v.24609Z"/></svg>