<svg id="Layer_1" data-name="Layer 1" xmlns="http://www.w3.org/2000/svg" viewBox="0 0 68.914 68.914"><defs><style>.cls-3{fill:#fff}</style></defs><path fill="#00274c" d="M0 0h68.914v68.914H0z"/><g id="svg_1" data-name="svg 1"><g id="svg_2" data-name="svg 2"><path id="svg_3" data-name="svg 3" d="M34.388 39.017l-11.63-16.059v11.68h4.653v11.534H5.896V34.64h4.36v-17.96h-4.36V5.146h16.9l11.65 16.205L46.12 5.145h16.899V16.68h-4.362v17.959h4.362v11.533H41.505V34.64h4.65v-11.68z" fill="#ffcb05"/></g></g><path class="cls-3" d="M5.974 52.777H8.46a2.898 2.898 0 011.899.492 2.085 2.085 0 01.568 1.653 2.179 2.179 0 01-.574 1.77 2.171 2.171 0 01-.885.357h.094a1.246 1.246 0 011.045.454 1.912 1.912 0 01.315 1.298q-.018.48-.012 1.002.012.539.035.817a1.924 1.924 0 00.07.419H9.326a1.944 1.944 0 01-.058-.41q-.018-.276-.018-.826V58.8a1.211 1.211 0 00-.234-.876 1.163 1.163 0 00-.856-.255h-.492v3.375H5.974zm1.694 3.627h.469a1.177 1.177 0 00.875-.243 1.513 1.513 0 00.22-.97A1.374 1.374 0 009 54.265a1.172 1.172 0 00-.863-.246h-.469zM12.256 61.045v-8.268h4.131v1.23H13.95v2.186h2.355v1.23H13.95v2.391h2.484v1.23zM22.698 58.232v.246a2.978 2.978 0 01-.54 2.072 2.48 2.48 0 01-1.904.618 2.55 2.55 0 01-2.006-.671 3.536 3.536 0 01-.583-2.306v-2.549a3.56 3.56 0 01.583-2.317 2.55 2.55 0 012.006-.671 2.096 2.096 0 012.391 2.367v.405h-1.682v-.247a1.957 1.957 0 00-.167-.963.583.583 0 00-.542-.32.73.73 0 00-.685.366 2.51 2.51 0 00-.211 1.193v2.549a3.953 3.953 0 00.196 1.5.707.707 0 00.7.422.62.62 0 00.583-.36 2.325 2.325 0 00.18-1.088v-.246zM29.856 55.338v-.246a1.738 1.738 0 00-.163-.926.677.677 0 00-.614-.27.815.815 0 00-.65.25 1.116 1.116 0 00-.216.746.934.934 0 00.258.662 2.9 2.9 0 00.89.575 5.612 5.612 0 011.762 1.166 2.023 2.023 0 01.505 1.394 2.458 2.458 0 01-.648 1.86 2.72 2.72 0 01-1.946.619 2.897 2.897 0 01-2.006-.554 2.389 2.389 0 01-.589-1.808v-.322h1.67v.246a1.41 1.41 0 00.219.897.835.835 0 00.704.298.854.854 0 00.69-.27 1.241 1.241 0 00.228-.814.974.974 0 00-.28-.697 3.312 3.312 0 00-.965-.62 5.22 5.22 0 01-1.687-1.12 1.97 1.97 0 01-.482-1.354 2.33 2.33 0 01.647-1.798 2.782 2.782 0 011.947-.598 2.598 2.598 0 011.886.557 2.351 2.351 0 01.509 1.699l.001.182v.246zM32.993 52.777H35.5a2.69 2.69 0 011.921.563 2.562 2.562 0 01.575 1.88 2.67 2.67 0 01-.58 2.013 3.507 3.507 0 01-2.25.519h-.48v3.293h-1.694zm1.693 3.732h.48a1.225 1.225 0 00.909-.252 1.583 1.583 0 00.228-1.013 1.457 1.457 0 00-.237-.967 1.21 1.21 0 00-.9-.258h-.48zM39.772 60.535a3.206 3.206 0 01-.58-2.174v-3.404a2.202 2.202 0 01.642-1.729 2.819 2.819 0 011.93-.574 2.83 2.83 0 011.934.574 2.196 2.196 0 01.644 1.729v3.404a3.206 3.206 0 01-.58 2.174 2.622 2.622 0 01-1.998.633 2.613 2.613 0 01-1.992-.633zm2.684-.938a2.484 2.484 0 00.193-1.166v-3.404a1.346 1.346 0 00-.226-.844.788.788 0 00-.659-.287.78.78 0 00-.656.287 1.359 1.359 0 00-.223.844v3.404a2.484 2.484 0 00.194 1.166.886.886 0 001.377 0zM45.796 52.777h2.484a2.898 2.898 0 011.898.492 2.087 2.087 0 01.569 1.653 1.683 1.683 0 01-1.46 2.127h.094a1.246 1.246 0 011.046.454 1.912 1.912 0 01.314 1.298q-.018.48-.012 1.002.012.539.035.817a1.924 1.924 0 00.07.419h-1.687a1.945 1.945 0 01-.059-.41q-.017-.276-.017-.826V58.8a1.211 1.211 0 00-.235-.876 1.163 1.163 0 00-.855-.255h-.492v3.375h-1.693zm1.693 3.627h.469a1.18 1.18 0 00.876-.243 1.514 1.514 0 00.22-.97 1.375 1.375 0 00-.232-.926 1.174 1.174 0 00-.864-.246h-.47zM53.419 54.008h-1.782v-1.23h5.256v1.23h-1.781v7.037h-1.693zM61.274 55.338v-.246a1.738 1.738 0 00-.163-.926.677.677 0 00-.614-.27.815.815 0 00-.65.25 1.116 1.116 0 00-.216.746.934.934 0 00.258.662 2.9 2.9 0 00.89.575 5.612 5.612 0 011.762 1.166 2.023 2.023 0 01.504 1.394 2.458 2.458 0 01-.647 1.86 2.72 2.72 0 01-1.946.619 2.897 2.897 0 01-2.006-.554 2.389 2.389 0 01-.589-1.808v-.322h1.67v.246a1.41 1.41 0 00.219.897.835.835 0 00.704.299.854.854 0 00.69-.27 1.241 1.241 0 00.228-.814.974.974 0 00-.28-.698 3.312 3.312 0 00-.965-.62 5.22 5.22 0 01-1.687-1.12 1.97 1.97 0 01-.482-1.354 2.33 2.33 0 01.647-1.798 2.782 2.782 0 011.947-.598 2.598 2.598 0 011.886.557 2.351 2.351 0 01.509 1.699l.001.182v.246z"/></svg>