<svg width="200" height="200" xmlns="http://www.w3.org/2000/svg"><g fill-rule="nonzero" fill="none"><path d="M56.82 100.13l-2.33-22.576s37.249-.119 39.47-.119c4.868 0 8.765.24 12.25.758 4.305.636 7.805 1.678 10.72 3.18 3.267 1.678 5.669 3.883 7.363 6.732 1.914 3.232 2.889 7.365 2.889 12.288 0 2.877-.342 5.518-1.016 7.85-.622 2.136-1.54 4.077-2.724 5.767-2.166 3.084-5.242 5.432-9.405 7.172-7.595 3.177-17.158 3.616-26.364 3.616H54.46l2.36-24.153a2.382 2.382 0 000-.515zm137.822-5.08a114.295 114.295 0 00-4.387-2.267 280.701 280.701 0 00-6.276-2.999c-.338-.16-2.001.058-2.001.058l-1.278-1.053-8.42-1.992-1.903.836-1.754-.695-6.928 1.15-3.271 3.624-3.211-.03c-1.345-5.161-3.93-9.877-7.7-14.042-3.826-4.225-8.843-7.86-14.913-10.802-5.5-2.665-11.743-4.714-18.578-6.095a98.791 98.791 0 00-19.56-1.941l-72.065-.038 7.449 31.745c-1.02.12-1.908.375-2.664.772-1.15-.589-2.552-.903-4.074-.903-1.716 0-3.346.393-4.635 1.116a8.51 8.51 0 01-.607-.16c-3.095-.692-9.464-.445-9.742-.443h-.026c-2.323.011-4.95.022-6.655 1.817C-.925 95.2.29 99.813.48 100.472c.555 1.94 1.889 5.995 5.471 6.141H5.94c.097.008.536-.003.562-.007.138-.011 3.365-.275 6.036-.275 1.327 0 3.043.238 3.432.238.641 0 1.466-.117 2.365-.542 1.345.669 2.713.759 3.234.766.01 0 6.673.004 8.805 0l-7.977 35.28 72.066-.064c7.172 0 14.11-.657 20.642-1.953 6.984-1.387 13.298-3.47 18.754-6.194 5.98-2.987 10.87-6.719 14.527-11.088 3.912-4.672 6.4-10.06 7.408-16.026l2.3.015 4.14 3.44 6.614.974 1.937-.89 1.75.684 8.427-2.063 1.44-.977 1.412.065s5.553-2.694 6.928-3.44c1.181-.64 2.862-1.564 4.159-2.353.644-.395 4.685-2.375 4.531-3.74-.079-1.282-4.1-3.027-4.79-3.413z" fill="#FFF"/><path fill="#FFF" d="M125.39 169.616l-.172-2.71-5.46-78.368-32.876.007V51.872h11.114l.011 24.36-8.468 8.664h29.898l5.807-53.028h-69.81l5.61 79.025h37.971v38.822H82.36l-.004-23.197 11.204-8.676H61.133l-5.49 48.933-.31 2.822-.049.4h70.133l-.026-.381"/><path d="M101.915 107.992v16.131c4.324-.517 8.454-1.409 12.122-2.941 1.885-.79 3.552-1.707 5.006-2.758l-1.978-26.963-33.083-.02V77.538l-22.49.01 2.234 30.412v.033h38.19M83.982 58.794V48.97h16.914l.008 28.444-4.474 4.583h20.414l5.167-47.23H58.529l1.555 24.04 23.898-.012M120.47 138.969c-5.998 1.497-12.304 2.402-18.555 2.784v10.859H79.467l-.007-27.518 5.624-4.354H63.726l-5.197 46.358h63.796l-1.854-28.13" fill="#C52437"/><path d="M182.907 92.113l-2.065 2.105-.37-.13-.383-2.807-7.809-1.919-1.708 3.08-.51-.026-1.439-2.913-5.564.9-3.526 3.815-6.377.013c-2.863-14.807-15.963-24.143-31.569-28.936l-1.626 14.853c5.85 3.702 9.79 9.913 9.79 20.245 0 25.784-25.231 26.971-42.074 26.971h-5.32l.003 12.077h12.103c27.158 0 55.212-9.804 58.884-33.608 0 0 .112-.696.228-1.666l5.606.033 3.75 3.54 5.917.869 1.237-2.932.438-.06 2.012 2.788 7.794-1.983.225-2.91.483-.158 2.18 2.145c.585-.14 12.183-6.117 12.144-6.848-.044-.794-12.454-6.538-12.454-6.538zm-128.638 8.28l-2.63-25.404 46.353-.023.004-13.628-72.392.029 7.494 31.756a16.852 16.852 0 00-1.825-.126c-1.813 0-3.537.841-3.945 1.308-.057.06-.259-.03-.54-.221-.828-.724-2.162-1.137-3.68-1.137-1.375 0-2.69.335-3.615.927a2.906 2.906 0 01-1.005.187c-.415 0-1.341-.264-1.341-.264l-.011-.002c-.51-.154-1.094-.327-1.761-.327 0 0-1.342-.022-2.031-.044h-.008s-3.66-.037-4.08.004c-.229.026-4.733-.191-5.954 1.049-.588.603-.824 1.576-.742 2.945.052.922.24 1.834.382 2.337 1 3.452 2.263 4.243 3.155 4.292.45.074 3.74-.21 6.441-.287 1.267-.036 2.215.054 2.822.16.142.037.344.078.61.078.585 0 1.473-.199 2.406-1.124.015 0 .023.003.03.003.99 1.252 2.84 1.342 3.207 1.346h.004a2528.093 2528.093 0 0011.975-.009l-7.988 35.223h33.105l1.36-12.077H51.63l2.638-26.97z" fill="#231F20"/><path fill="#FFF" d="M126.698 167.011h1.93v.308h-.795v2.765h-.34v-2.765h-.795v-.308M130.958 167.011h.6v3.073h-.34v-2.533c0-.131.007-.259 0-.39h-.008c-.038.18-.068.296-.098.415l-.64 2.508h-.41l-.64-2.544a4.838 4.838 0 01-.09-.379h-.01c0 .131.01.266.01.397v2.526h-.34v-3.073h.603l.6 2.397c.033.131.052.259.066.455h.008c.023-.156.041-.307.079-.46l.61-2.392"/></g></svg>