<svg version="1.1" id="Layer_1" xmlns="http://www.w3.org/2000/svg" x="0" y="0" viewBox="0 0 200 200" xml:space="preserve"><style>.st1{fill:#244995}</style><g id="saint-louis_1_"><g id="saint-louis_BGD"><g id="saint-louis" transform="translate(0 3)"><g id="g10" transform="matrix(1 0 0 -1 0 193.649)"><g id="g12"><path id="path14" d="M184.1 100.6s9.3 15.6 4.7 35.5c-5.1 22-7.7 29-3.9 45.8 0 0-31.1-4.6-42.9-37.1l-4.2 3s-2.3 11.9 7.3 23.6c0 0-8.8 2.1-16-.1 0 0-12.1 28-57.2 21.2 0 0 6.6-10 8.8-20.6 0 0-10.7 7-28.6 2.5 0 0 11.5-12.4 11.4-26l-5.4-3 .2-.6-.4.1c-11.9 32.3-42.9 37-42.9 37 3.8-16.7 1.2-23.8-3.9-45.8-4.6-19.9 4.7-35.5 4.7-35.5C5.4 92.7 0 83.1 0 83.1 41 12.4 99.9 0 99.9 0s58.9 12.4 99.9 83.1c.1 0-5.4 9.6-15.7 17.5" fill="#fff"/><path id="path16" class="st1" d="M99.9 9.2S53.8 24.6 20.6 84.5c0 0 8 20.9 35.3 26 0 0-14.7.6-26.9-6.2 0 0-5.7 6.6-5.7 16.7 0 10.4 5.9 33.7 6 39.5 0 0 17-8.4 21.6-27.7 0 0-7.7-8.1-9.5-12.2l1.1 7.3s-3 5.8-9.2 8.9c0 0-4.3-15.3.4-24.1 0 0 5.6 2.5 11.5 2.4 0 0 8.8 15.1 28.6 26.7l.2.1c.8 3.5 2.5 13.1-1 19.6 0 0 12.1-2.4 17.6-11.9.5 1.5 5.2 13.1 2.3 27.6 30.3-4 33.3-35.4 33.3-35.4 19.8-11.6 28.6-26.7 28.6-26.7 5.9 0 11.5-2.4 11.5-2.4 4.7 8.7.4 24.1.4 24.1-6.2-3.1-9.2-8.9-9.2-8.9l1.1-7.3c-1.8 4.1-9.5 12.2-9.5 12.2 4.5 19.3 21.6 27.7 21.6 27.7.1-5.8 6-29.1 6-39.5 0-10.2-5.7-16.7-5.7-16.7-12.2 6.8-26.9 6.2-26.9 6.2 27.3-5.1 35.3-26 35.3-26C146 24.7 99.9 9.2 99.9 9.2zm77.5 90.9s7.3 7.5 7 22.8c-.4 15.3-7.7 35.4-6.4 49.9 0 0-27.7-9.4-33.3-36.3 0 0-5.4 4.5-11.8 7.7 0 0-2.9 13.2 3.4 22.9 0 0-5.8-.1-9.5-2.6 0 0-8.9 23.7-45.4 21.9 0 0 4.9-6.5 4.4-23.2 0 0-6.8 6-22.8 5.8 0 0 7.1-10.6 5.9-23.8 0 0-8.9-4.3-13.8-8.7-5.6 26.8-33.3 36.3-33.3 36.3 1.4-14.5-6-34.6-6.4-49.9-.4-15.3 7-22.8 7-22.8C11.9 92.5 8.6 83.6 8.6 83.6 47.6 18.2 100 4.2 100 4.2s52.3 14 91.4 79.4c-.1 0-3.4 8.9-14 16.5z"/><path id="path18" class="st1" d="M99.9 50c-7.1 1.2-17.6 7.4-17.6 7.4 7.7-9.3 17.6-12.8 17.6-12.8s9.9 3.5 17.6 12.8c0 0-10.4-6.2-17.6-7.4"/><path id="path20" class="st1" d="M63.4 115.5s5.6 1.6 13.1-1.6c8.5-3.5 14.7.6 15.7 5.9 0 0-4.7-2.2-8.9 1.3-5 4.2-10.5 6.6-17.4 4.9-7-1.7-10.3-8.8-10.3-8.8s6.2 4.6 12.5 4.3c4.9-.3 11.9-4.4 11.9-4.4s-10.1 4.4-16.6-1.6"/><path id="path22" class="st1" d="M99.9 109.1c-7.6-3-11.9-8.1-11.9-8.1-7.2-.3-15.1.3-15.1.3 4.1 1.8 12.8 3.9 12.8 3.9 5.7 7.4 14.2 10 14.2 10s8.5-2.7 14.2-10c0 0 8.8-2.1 12.8-3.9 0 0-7.9-.6-15.1-.3 0 0-4.3 5.1-11.9 8.1"/><path id="path24" class="st1" d="M156.2 98.8c-8.7 3.6-19.6 2.5-19.6 2.5s10-2.2 15-5c0 0-14.7-18-51.7-28.4-37 10.4-51.7 28.4-51.7 28.4 5 2.7 15 5 15 5s-10.9 1.1-19.6-2.5C39.1 90.6 39 79.6 39 79.6s3.3 9.7 6.6 14.4c0 0 16.9-23.4 54.3-35.1C137.4 70.5 154.3 94 154.3 94c3.3-4.7 6.6-14.4 6.6-14.4s-.1 11-4.7 19.2"/><path id="path26" class="st1" d="M99.9 50c-7.1 1.2-17.6 7.4-17.6 7.4 7.7-9.3 17.6-12.8 17.6-12.8s9.9 3.5 17.6 12.8c0 0-10.4-6.2-17.6-7.4"/><path id="path28" class="st1" d="M125.7 118.2c-.2-1.5-1.6-2.3-2.9-2.1-1.4.2-1.8 1.5-1.8 1.5s2.6 1.3 4.3 2.1c0 0 .5-.6.4-1.5zm6.1 3.2c6.1.6 12.5-4.3 12.5-4.3s-3.3 7.1-10.3 8.8c-6.9 1.7-12.4-.6-17.4-4.9-4.2-3.5-8.9-1.3-8.9-1.3 3.8-7.6 10.7-3.4 11.1-3.3 1.4-3.2 4-3.8 4-3.8-1.8-1.2-2.3-2.3-2.3-2.3 8.5 2.1 18.2.9 18.2.9-3.6 2.6-8.4 2.9-8.4 2.9 3.2 3.8 1.5 7.3 1.5 7.3z"/><path id="path30" d="M130.2 114.1s4.8-.3 8.4-2.9c0 0-9.7 1.2-18.2-.9 0 0 .6 1.2 2.3 2.3 0 0-2.6.6-4 3.8-.3-.2-7.3-4.3-11.1 3.3 0 0 4.7-2.2 8.9 1.3 5 4.2 10.5 6.6 17.4 4.9 7-1.7 10.3-8.8 10.3-8.8s-6.4 4.8-12.5 4.3c.1 0 1.8-3.5-1.5-7.3zm13.7-3.6s14.7.6 26.9-6.2c0 0 5.7 6.6 5.7 16.7 0 10.4-5.9 33.7-6 39.5 0 0-17-8.4-21.6-27.7 0 0 7.7-8.1 9.5-12.2l-1.1 7.3s3 5.8 9.2 8.9c0 0 4.3-15.3-.4-24.1 0 0-5.6 2.5-11.5 2.4 0 0-8.8 15.1-28.6 26.7 0 0-3 31.5-33.3 35.4 0 0 7.1-5.9 7.1-27.4v-34.7s8.5-2.7 14.2-10c0 0 8.8-2.1 12.8-3.9 0 0-2-.2-5-.3l-22-7.1V73s18.9 2.5 50.6 23.9c-5.2 2.5-13.9 4.4-13.9 4.4s10.9 1.1 19.6-2.5c4.5-8.2 4.6-19.2 4.6-19.2s-3.3 9.7-6.6 14.4c0 0-16.9-23.4-54.3-35.1V50c7.1 1.2 17.6 7.4 17.6 7.4-7.7-9.3-17.6-12.8-17.6-12.8s-9.9 3.5-17.6 12.8c0 0 5.9-10.2 17.6-17.4V9.3s46.1 15.4 79.3 75.3c.1-.1-7.9 20.8-35.2 25.9z" fill="#c8c7c5"/></g></g></g></g></g></svg>