<?xml version="1.0" encoding="utf-8"?>
<!-- Generator: Adobe Illustrator 24.1.2, SVG Export Plug-In . SVG Version: 6.00 Build 0)  -->
<svg version="1.1" id="Layer_1" xmlns="http://www.w3.org/2000/svg" xmlns:xlink="http://www.w3.org/1999/xlink" x="0px" y="0px"
	 viewBox="0 0 200 200" style="enable-background:new 0 0 200 200;" xml:space="preserve">
<style type="text/css">
	.st0{fill:#FFFFFF;}
	.st1{fill:#244995;}
	.st2{fill:#C8C7C5;}
</style>
<desc>Created with Sketch.</desc>
<g id="saint-louis_1_">
	<g id="saint-louis_BGD">
		<g id="saint-louis" transform="translate(0.000000, 3.000000)">
			
				<g id="g10" transform="translate(99.933197, 96.921847) scale(-1, 1) rotate(-180.000000) translate(-99.933197, -96.921847) translate(0.000000, 0.195062)">
				<g id="g12">
					<path id="path14" class="st0" d="M184.1,100.6c0,0,9.3,15.6,4.7,35.5c-5.1,22-7.7,29-3.9,45.8c0,0-31.1-4.6-42.9-37.1l-4.2,3
						c0,0-2.3,11.9,7.3,23.6c0,0-8.8,2.1-16-0.1c0,0-12.1,28-57.2,21.2c0,0,6.6-10,8.8-20.6c0,0-10.7,7-28.6,2.5
						c0,0,11.5-12.4,11.4-26l-5.4-3l0,0l0.2-0.6l-0.4,0.1C46,177.2,15,181.9,15,181.9c3.8-16.7,1.2-23.8-3.9-45.8
						c-4.6-19.9,4.7-35.5,4.7-35.5C5.4,92.7,0,83.1,0,83.1C41,12.4,99.9,0,99.9,0s58.9,12.4,99.9,83.1
						C199.9,83.1,194.4,92.7,184.1,100.6"/>
					<path id="path16" class="st1" d="M99.9,9.2c0,0-46.1,15.4-79.3,75.3c0,0,8,20.9,35.3,26c0,0-14.7,0.6-26.9-6.2
						c0,0-5.7,6.6-5.7,16.7c0,10.4,5.9,33.7,6,39.5c0,0,17-8.4,21.6-27.7c0,0-7.7-8.1-9.5-12.2l1.1,7.3c0,0-3,5.8-9.2,8.9
						c0,0-4.3-15.3,0.4-24.1c0,0,5.6,2.5,11.5,2.4c0,0,8.8,15.1,28.6,26.7l0.2,0.1c0.8,3.5,2.5,13.1-1,19.6c0,0,12.1-2.4,17.6-11.9
						c0.5,1.5,5.2,13.1,2.3,27.6c30.3-4,33.3-35.4,33.3-35.4c19.8-11.6,28.6-26.7,28.6-26.7c5.9,0,11.5-2.4,11.5-2.4
						c4.7,8.7,0.4,24.1,0.4,24.1c-6.2-3.1-9.2-8.9-9.2-8.9l1.1-7.3c-1.8,4.1-9.5,12.2-9.5,12.2c4.5,19.3,21.6,27.7,21.6,27.7
						c0.1-5.8,6-29.1,6-39.5c0-10.2-5.7-16.7-5.7-16.7c-12.2,6.8-26.9,6.2-26.9,6.2c27.3-5.1,35.3-26,35.3-26
						C146,24.7,99.9,9.2,99.9,9.2z M177.4,100.1c0,0,7.3,7.5,7,22.8c-0.4,15.3-7.7,35.4-6.4,49.9c0,0-27.7-9.4-33.3-36.3
						c0,0-5.4,4.5-11.8,7.7c0,0-2.9,13.2,3.4,22.9c0,0-5.8-0.1-9.5-2.6c0,0-8.9,23.7-45.4,21.9c0,0,4.9-6.5,4.4-23.2
						c0,0-6.8,6-22.8,5.8c0,0,7.1-10.6,5.9-23.8c0,0-8.9-4.3-13.8-8.7c-5.6,26.8-33.3,36.3-33.3,36.3c1.4-14.5-6-34.6-6.4-49.9
						c-0.4-15.3,7-22.8,7-22.8C11.9,92.5,8.6,83.6,8.6,83.6c39-65.4,91.4-79.4,91.4-79.4s52.3,14,91.4,79.4
						C191.3,83.6,188,92.5,177.4,100.1L177.4,100.1z"/>
					<path id="path18" class="st1" d="M99.9,50c-7.1,1.2-17.6,7.4-17.6,7.4c7.7-9.3,17.6-12.8,17.6-12.8s9.9,3.5,17.6,12.8
						C117.5,57.4,107.1,51.2,99.9,50"/>
					<path id="path20" class="st1" d="M63.4,115.5c0,0,5.6,1.6,13.1-1.6c8.5-3.5,14.7,0.6,15.7,5.9c0,0-4.7-2.2-8.9,1.3
						c-5,4.2-10.5,6.6-17.4,4.9c-7-1.7-10.3-8.8-10.3-8.8s6.2,4.6,12.5,4.3c4.9-0.3,11.9-4.4,11.9-4.4S69.9,121.5,63.4,115.5"/>
					<path id="path22" class="st1" d="M99.9,109.1c-7.6-3-11.9-8.1-11.9-8.1c-7.2-0.3-15.1,0.3-15.1,0.3c4.1,1.8,12.8,3.9,12.8,3.9
						c5.7,7.4,14.2,10,14.2,10s8.5-2.7,14.2-10c0,0,8.8-2.1,12.8-3.9c0,0-7.9-0.6-15.1-0.3C111.8,101,107.5,106.1,99.9,109.1"/>
					<path id="path24" class="st1" d="M156.2,98.8c-8.7,3.6-19.6,2.5-19.6,2.5s10-2.2,15-5c0,0-14.7-18-51.7-28.4
						c-37,10.4-51.7,28.4-51.7,28.4c5,2.7,15,5,15,5s-10.9,1.1-19.6-2.5C39.1,90.6,39,79.6,39,79.6s3.3,9.7,6.6,14.4
						c0,0,16.9-23.4,54.3-35.1C137.4,70.5,154.3,94,154.3,94c3.3-4.7,6.6-14.4,6.6-14.4S160.8,90.6,156.2,98.8"/>
					<path id="path26" class="st1" d="M99.9,50c-7.1,1.2-17.6,7.4-17.6,7.4c7.7-9.3,17.6-12.8,17.6-12.8s9.9,3.5,17.6,12.8
						C117.5,57.4,107.1,51.2,99.9,50"/>
					<path id="path28" class="st1" d="M125.7,118.2c-0.2-1.5-1.6-2.3-2.9-2.1c-1.4,0.2-1.8,1.5-1.8,1.5s2.6,1.3,4.3,2.1
						C125.3,119.7,125.8,119.1,125.7,118.2L125.7,118.2z M131.8,121.4c6.1,0.6,12.5-4.3,12.5-4.3s-3.3,7.1-10.3,8.8
						c-6.9,1.7-12.4-0.6-17.4-4.9c-4.2-3.5-8.9-1.3-8.9-1.3c3.8-7.6,10.7-3.4,11.1-3.3c1.4-3.2,4-3.8,4-3.8
						c-1.8-1.2-2.3-2.3-2.3-2.3c8.5,2.1,18.2,0.9,18.2,0.9c-3.6,2.6-8.4,2.9-8.4,2.9C133.5,117.9,131.8,121.4,131.8,121.4
						L131.8,121.4z"/>
					<path id="path30" class="st2" d="M130.2,114.1c0,0,4.8-0.3,8.4-2.9c0,0-9.7,1.2-18.2-0.9c0,0,0.6,1.2,2.3,2.3
						c0,0-2.6,0.6-4,3.8c-0.3-0.2-7.3-4.3-11.1,3.3c0,0,4.7-2.2,8.9,1.3c5,4.2,10.5,6.6,17.4,4.9c7-1.7,10.3-8.8,10.3-8.8
						s-6.4,4.8-12.5,4.3C131.8,121.4,133.5,117.9,130.2,114.1L130.2,114.1z M143.9,110.5c0,0,14.7,0.6,26.9-6.2
						c0,0,5.7,6.6,5.7,16.7c0,10.4-5.9,33.7-6,39.5c0,0-17-8.4-21.6-27.7c0,0,7.7-8.1,9.5-12.2l-1.1,7.3c0,0,3,5.8,9.2,8.9
						c0,0,4.3-15.3-0.4-24.1c0,0-5.6,2.5-11.5,2.4c0,0-8.8,15.1-28.6,26.7c0,0-3,31.5-33.3,35.4c0,0,7.1-5.9,7.1-27.4
						c0-5.8,0-18.8,0-34.7c0,0,8.5-2.7,14.2-10c0,0,8.8-2.1,12.8-3.9c0,0-2-0.2-5-0.3l-22-7.1c0-6.9,0-13.9,0-20.8
						c0,0,18.9,2.5,50.6,23.9c-5.2,2.5-13.9,4.4-13.9,4.4s10.9,1.1,19.6-2.5c4.5-8.2,4.6-19.2,4.6-19.2s-3.3,9.7-6.6,14.4
						c0,0-16.9-23.4-54.3-35.1c0-3,0-6,0-8.9c7.1,1.2,17.6,7.4,17.6,7.4c-7.7-9.3-17.6-12.8-17.6-12.8s-9.9,3.5-17.6,12.8
						c0,0,5.9-10.2,17.6-17.4c0-17.9,0-30.7,0-30.7s46.1,15.4,79.3,75.3C179.2,84.5,171.2,105.4,143.9,110.5L143.9,110.5z"/>
				</g>
			</g>
		</g>
	</g>
</g>
</svg>
