<svg id="Layer_1" data-name="Layer 1" xmlns="http://www.w3.org/2000/svg" viewBox="0 0 70 70"><defs><style>.cls-3{fill:#fff}</style></defs><path fill="#00274c" d="M0 0h70v70H0z"/><g id="svg_1" data-name="svg 1"><g id="svg_2" data-name="svg 2"><path id="svg_3" data-name="svg 3" d="M34.931 39.017l-11.63-16.059v11.68h4.652v11.534H6.438V34.64H10.8v-17.96H6.44V5.146h16.9l11.65 16.205L46.662 5.145h16.899V16.68H59.2v17.959h4.362v11.533H42.048V34.64h4.65v-11.68z" transform="translate(0 .543)" fill="#ffcb05"/></g></g><path class="cls-3" d="M6.163 55.338v-.246A1.727 1.727 0 006 54.166a.677.677 0 00-.613-.27.816.816 0 00-.65.25 1.122 1.122 0 00-.216.746.934.934 0 00.258.662 2.893 2.893 0 00.889.575 5.6 5.6 0 011.762 1.166 2.02 2.02 0 01.506 1.394 2.458 2.458 0 01-.649 1.86 2.717 2.717 0 01-1.945.619 2.901 2.901 0 01-2.007-.554 2.389 2.389 0 01-.588-1.808v-.322h1.669v.246a1.416 1.416 0 00.219.897.835.835 0 00.705.299.852.852 0 00.69-.27 1.236 1.236 0 00.228-.814.979.979 0 00-.28-.698 3.32 3.32 0 00-.966-.62 5.203 5.203 0 01-1.686-1.12 1.965 1.965 0 01-.483-1.354 2.332 2.332 0 01.647-1.798 2.783 2.783 0 011.948-.598 2.6 2.6 0 011.886.557 2.356 2.356 0 01.508 1.699l.002.182v.246zM10.7 54.008H8.92v-1.23h5.255v1.23h-1.78v7.037H10.7zM20.385 58.724a2.429 2.429 0 01-.636 1.834 2.66 2.66 0 01-1.907.61 2.66 2.66 0 01-1.907-.61 2.429 2.429 0 01-.636-1.834v-5.947h1.676v6.059a1.437 1.437 0 00.19.858.814.814 0 00.677.243.814.814 0 00.677-.243 1.437 1.437 0 00.19-.858v-6.059h1.676zM21.99 52.777h2.227a3.306 3.306 0 012.274.63 2.77 2.77 0 01.68 2.106v2.315a3.918 3.918 0 01-.595 2.54 2.968 2.968 0 01-2.265.677h-2.32zm1.694 7.025h.445a1.374 1.374 0 001.073-.325 2.04 2.04 0 00.275-1.257v-2.73a1.659 1.659 0 00-.308-1.154 1.56 1.56 0 00-1.128-.317h-.357zM28.612 61.045v-8.268h4.13v1.23h-2.437v2.186h2.356v1.23h-2.356v2.391h2.485v1.23zM35.555 61.045h-1.389v-8.268h2.49l1.43 6.979v-6.979h1.39v8.268h-2.48l-1.44-7.037zM42.346 54.008h-1.781v-1.23h5.256v1.23H44.04v7.037h-1.694zM49.665 61.045v-8.268h1.693v7.037h2.15v1.23zM54.645 52.777h1.693v8.268h-1.693zM57.81 61.045v-8.268h3.96v1.23h-2.268v2.25h2.145v1.231h-2.145v3.557H57.81zM63.13 61.045v-8.268h4.13v1.23h-2.437v2.186h2.355v1.23h-2.355v2.391h2.484v1.23z" transform="translate(0 .543)"/></svg>