<svg id="Layer_1" data-name="Layer 1" xmlns="http://www.w3.org/2000/svg" viewBox="0 0 70 70"><defs><style>.cls-1{fill:#00274c;}.cls-2{fill:#ffcb05;}.cls-3{fill:#fff;}</style></defs><rect class="cls-1" width="70" height="70"/><g id="svg_1" data-name="svg 1"><g id="svg_2" data-name="svg 2"><path id="svg_3" data-name="svg 3" class="cls-2" d="M34.93114,39.01708l-11.63-16.05873V34.63857h4.65226V46.1723H6.43838V34.63857h4.361V16.67981h-4.361V5.14516h16.9l11.64975,16.205,11.67474-16.205H63.56162V16.67981h-4.3615V34.63857h4.3615V46.1723H42.04787V34.63857h4.65088V22.95835Z" transform="translate(0 0.54286)"/></g></g><path class="cls-3" d="M6.16307,55.33762v-.24609a1.72686,1.72686,0,0,0-.16406-.92578.67677.67677,0,0,0-.61328-.26953.81617.81617,0,0,0-.65039.249,1.12163,1.12163,0,0,0-.21485.74707.9345.9345,0,0,0,.25782.66211,2.893,2.893,0,0,0,.88867.57422,5.60057,5.60057,0,0,1,1.76172,1.166,2.01915,2.01915,0,0,1,.50586,1.39453,2.45829,2.45829,0,0,1-.64844,1.86035,2.71746,2.71746,0,0,1-1.94531.61816A2.90134,2.90134,0,0,1,3.334,60.614a2.38889,2.38889,0,0,1-.58838-1.80762v-.32226H4.415v.24609a1.4163,1.4163,0,0,0,.21875.89649.8352.8352,0,0,0,.70507.29883.8518.8518,0,0,0,.68946-.26954,1.2355,1.2355,0,0,0,.22851-.81445.97854.97854,0,0,0-.27929-.69726,3.3194,3.3194,0,0,0-.9668-.6211A5.20278,5.20278,0,0,1,3.32518,56.404a1.965,1.965,0,0,1-.48291-1.35351,2.33245,2.33245,0,0,1,.647-1.79883A2.78333,2.78333,0,0,1,5.43651,52.654a2.59917,2.59917,0,0,1,1.88672.55664A2.35562,2.35562,0,0,1,7.831,54.90989l.00195.18164v.24609Z" transform="translate(0 0.54286)"/><path class="cls-3" d="M10.70018,54.00755H8.91893V52.77708H14.1743v1.23047H12.39305v7.03711H10.70018Z" transform="translate(0 0.54286)"/><path class="cls-3" d="M20.38524,58.72434a2.42876,2.42876,0,0,1-.63574,1.834,2.66017,2.66017,0,0,1-1.90723.60937,2.66017,2.66017,0,0,1-1.90723-.60937,2.4288,2.4288,0,0,1-.63574-1.834V52.77708h1.67578v6.05859a1.43749,1.43749,0,0,0,.19043.8584.81412.81412,0,0,0,.67676.24316.81411.81411,0,0,0,.67676-.24316,1.43749,1.43749,0,0,0,.19043-.8584V52.77708h1.67578Z" transform="translate(0 0.54286)"/><path class="cls-3" d="M21.99071,52.77708h2.22656a3.30617,3.30617,0,0,1,2.27344.62988,2.76943,2.76943,0,0,1,.67969,2.10645v2.31445a3.918,3.918,0,0,1-.59473,2.54,2.96829,2.96829,0,0,1-2.26465.67676H21.99071Zm1.69336,7.02539h.44531a1.37447,1.37447,0,0,0,1.07227-.3252,2.04054,2.04054,0,0,0,.27539-1.25683V55.49a1.65854,1.65854,0,0,0-.30762-1.1543,1.56022,1.56022,0,0,0-1.12793-.3164h-.35742Z" transform="translate(0 0.54286)"/><path class="cls-3" d="M28.6118,61.04466V52.77708h4.13086v1.23047h-2.4375v2.18554h2.35547v1.23047H30.30516v2.39063h2.48438v1.23047Z" transform="translate(0 0.54286)"/><path class="cls-3" d="M35.55516,61.04466H34.16649V52.77708h2.49023l1.42969,6.97851V52.77708h1.38867v8.26758H36.99657l-1.44141-7.03711Z" transform="translate(0 0.54286)"/><path class="cls-3" d="M42.34618,54.00755H40.56493V52.77708h5.25586v1.23047H44.03954v7.03711H42.34618Z" transform="translate(0 0.54286)"/><path class="cls-3" d="M49.66454,61.04466V52.77708H51.3579v7.03711h2.15039v1.23047Z" transform="translate(0 0.54286)"/><path class="cls-3" d="M54.645,52.77708h1.69335v8.26758H54.645Z" transform="translate(0 0.54286)"/><path class="cls-3" d="M57.80907,61.04466V52.77708H61.77v1.23047H59.50243v2.25H61.647V57.488H59.50243v3.55664H57.80907Z" transform="translate(0 0.54286)"/><path class="cls-3" d="M63.12938,61.04466V52.77708h4.13086v1.23047h-2.4375v2.18554h2.35547v1.23047H64.82274v2.39063h2.48437v1.23047Z" transform="translate(0 0.54286)"/></svg>