<svg width="2500" height="2500" xmlns="http://www.w3.org/2000/svg">
 <defs>
  <style>.cls-1{fill:none;}.cls-1,.cls-2{fill-rule:evenodd;}.cls-2{fill:#d98f45;}</style>
 </defs>
 <g>
  <title>background</title>
  <rect x="-1" y="-1" width="2502" height="2502" id="canvas_background" fill="none"/>
 </g>
 <g>
  <title>Layer 1</title>
  <path stroke="null" style="vector-effect: non-scaling-stroke;" transform="matrix(1,0,0,1,0,0) matrix(1,0,0,1,0,0) matrix(1,0,0,1,0,0) matrix(1,0,0,1,0,0) matrix(1,0,0,1,0,0) matrix(1,0,0,1,0,0) matrix(1,0,0,1,0,0) matrix(1,0,0,1,0,0) matrix(1,0,0,1,0,0) " class="cls-1" d="m0,0l2500,0l0,2500l-2500,0l0,-2500z" id="svg_1"/>
  <path stroke="null" class="cls-2" d="m1552.005976,1163.650298c-4.022363,38.189548 -5.348986,77.775395 -22.65215,112.53462c-18.827314,42.120789 -36.793855,84.879186 -61.139509,123.782028c-19.815339,39.540439 -44.796207,77.456708 -56.284405,121.156094c-4.996176,33.165307 -13.337256,73.707638 4.572699,104.247023c16.865607,49.49766 28.918483,94.669369 22.002854,148.462564c-3.090934,44.534264 -28.805585,75.286236 -50.751973,100.239923l-19.053133,23.390373c-5.814836,20.688604 -21.494892,40.451035 -42.636712,47.903918c-42.890824,20.415313 -72.740747,-9.319636 -100.755964,-2.459059c-24.388027,5.509979 -47.731575,11.975985 -72.571382,3.506253c-12.349232,-5.585686 -37.584081,-17.166949 -46.362719,-45.110993l-2.653377,-8.302611c-25.700569,-34.319047 -58.627204,-57.238686 -64.060937,-106.20506c-14.240523,-70.580846 10.373454,-136.076712 30.541592,-187.714463a68.523512,73.695338 0 0 0 1.947626,-30.706541c0.804449,-21.21975 -3.189621,-41.604576 -7.296601,-62.232487c-32.997181,-89.61484 -88.688919,-167.025976 -119.413913,-257.93112c-3.429522,-11.065296 -5.250212,-22.297501 -6.859109,-33.98504a511.57252,550.183557 0 0 1 -5.828917,-62.399526c-27.18253,30.068955 -104.143101,48.344072 -140.231271,46.780606c-21.141951,2.534895 -40.350368,-4.20452 -61.125362,-5.20626c-51.641104,-12.749994 -93.247548,-50.408397 -103.253981,-108.83097c8.750345,-28.520633 23.95047,-37.339539 49.509967,-38.948437l10.133423,-0.470465a37.238399,40.048974 0 0 1 8.962018,0c19.815263,-6.025934 37.513545,-17.698399 54.604917,-29.962668c5.377213,-3.855369 2.935575,1.092884 -5.53242,-1.366034c-110.592912,-32.209139 -197.461304,-123.569511 -270.808864,-211.059299c-46.729654,-52.366445 -107.205786,-85.698744 -165.494326,-120.366801c-30.513299,-20.081376 -68.436142,-27.412676 -110.437705,-34.501112c-42.693167,-5.995565 -82.40845,-11.991129 -125.60971,-12.795578c-27.803511,-5.358037 -55.67757,-9.18306 -63.835129,-45.961014c-1.778305,-21.872479 3.119064,-44.29133 24.232787,-53.656538c12.631604,-7.5134 22.877915,-6.542042 36.243355,-8.439327l28.833768,-3.62765l60.038607,-0.060716c74.646032,10.731301 152.425262,16.134922 221.69407,51.106558c89.973321,37.779682 168.909799,98.160443 245.122539,156.947393c71.14593,45.94587 148.078339,80.492484 222.936011,117.74095c25.305385,8.909839 52.58669,23.253658 79.938584,20.840323c21.410079,-1.047312 35.325964,-11.76348 44.189154,-31.799343c44.401045,-31.617137 82.40845,-33.711819 133.484973,-36.929673c18.460423,-2.003573 37.019533,0.531321 54.675507,-6.769655c26.886121,-3.992015 53.75816,-4.189306 80.813634,-4.325951l8.256333,-0.030358l6.478082,-0.030358l20.323421,-0.091003c-13.972243,5.175972 -25.192606,13.357152 -36.130337,2.534895a36.656897,39.423583 0 0 1 15.807046,-2.443845l2.328707,0.379509l15.990622,0.288365c23.075496,0.516014 46.503791,2.018787 68.478353,10.397376c51.598796,2.049216 104.312476,4.690176 152.707558,26.304648c13.591238,5.373193 22.496867,16.301855 29.708862,29.082359l2.752064,4.796463a21.579715,23.208448 0 0 0 1.848819,2.686626c10.232252,6.13221 26.900202,12.188491 40.223377,12.765279c20.676101,-2.185686 40.13864,-8.894696 62.296767,-16.757153c93.120623,-42.409153 188.386398,-82.192525 272.093309,-144.470468c84.299741,-64.949506 178.125853,-118.454336 277.964589,-149.692023c82.620134,-16.39301 181.738962,-33.377882 271.458095,-13.175075c18.107744,5.236688 27.478961,16.984942 35.283525,34.516256a59.106569,63.567649 0 0 0 -1.213844,15.451916a47.22445,50.788724 0 0 1 -7.16961,27.230528c-19.815469,21.462683 -38.529732,22.555497 -64.371645,25.651919c-59.121216,3.308939 -114.869234,7.832181 -171.040991,19.489432c-47.689212,9.75993 -89.168665,41.483343 -131.565618,64.949506c-29.46882,19.428717 -59.17754,38.842219 -85.118271,63.568269c-72.740877,83.740625 -160.131161,175.480517 -265.121215,213.53349c-51.104783,16.833235 -24.783222,6.906301 -16.569121,14.586763c15.990492,10.351804 30.343794,19.200997 48.493911,24.437685c4.191738,-0.15186 8.214101,-0.485679 12.645587,0.303579c25.573589,1.684898 41.818063,7.392015 51.076632,37.734121c-8.044736,48.298489 -40.576187,84.697016 -82.309622,101.42381c-31.261261,10.989389 -64.286626,12.810851 -95.265775,11.641967l-9.314894,-2.868773c-2.145272,0.971452 -5.984201,1.123171 -9.103155,0.683017c-40.180992,-4.022361 -76.156187,-22.601057 -111.750279,-41.392199l0.000196,-0.000761z" id="svg_2"/>
 </g>
</svg>