<svg width="2500" height="2500" xmlns="http://www.w3.org/2000/svg"><path fill="none" d="M-1-1h2502v2502H-1z"/><g><path stroke="null" d="M0 0h2500v2500H0V0z" vector-effect="non-scaling-stroke" fill-rule="evenodd" fill="none"/><path stroke="null" d="M1552.006 1163.65c-4.022 38.19-5.349 77.776-22.652 112.535-18.827 42.12-36.794 84.88-61.14 123.782-19.815 39.54-44.796 77.457-56.284 121.156-4.996 33.165-13.337 73.708 4.573 104.247 16.865 49.498 28.918 94.67 22.002 148.463-3.09 44.534-28.805 75.286-50.752 100.24l-19.053 23.39c-5.814 20.689-21.495 40.451-42.636 47.904-42.891 20.415-72.741-9.32-100.756-2.46-24.388 5.51-47.732 11.977-72.572 3.507-12.349-5.586-37.584-17.167-46.362-45.111l-2.654-8.303c-25.7-34.319-58.627-57.238-64.06-106.205-14.241-70.58 10.373-136.076 30.54-187.714a68.524 73.695 0 001.948-30.707c.805-21.22-3.19-41.604-7.296-62.232-32.997-89.615-88.689-167.026-119.414-257.931-3.43-11.066-5.25-22.298-6.86-33.985a511.573 550.184 0 01-5.828-62.4c-27.183 30.07-104.143 48.344-140.231 46.78-21.142 2.536-40.35-4.204-61.126-5.205-51.64-12.75-93.247-50.409-103.254-108.831 8.75-28.521 23.95-37.34 49.51-38.949l10.134-.47a37.238 40.049 0 018.962 0c19.815-6.026 37.513-17.699 54.605-29.963 5.377-3.855 2.935 1.093-5.533-1.366-110.593-32.21-197.461-123.57-270.809-211.06-46.73-52.366-107.205-85.698-165.494-120.366-30.513-20.082-68.436-27.413-110.438-34.501-42.693-5.996-82.408-11.991-125.61-12.796-27.803-5.358-55.677-9.183-63.834-45.96-1.779-21.873 3.119-44.292 24.232-53.657 12.632-7.514 22.878-6.542 36.244-8.44l28.833-3.627 60.039-.061c74.646 10.731 152.425 16.135 221.694 51.106 89.973 37.78 168.91 98.16 245.123 156.948 71.146 45.946 148.078 80.492 222.936 117.74 25.305 8.91 52.586 23.254 79.938 20.841 21.41-1.047 35.326-11.763 44.19-31.8 44.4-31.616 82.408-33.711 133.484-36.929 18.46-2.003 37.02.531 54.676-6.77 26.886-3.992 53.758-4.189 80.813-4.325l8.257-.03 6.478-.031 20.323-.091c-13.972 5.176-25.192 13.357-36.13 2.535a36.657 39.424 0 0115.807-2.444l2.329.38 15.99.288c23.076.516 46.504 2.019 68.479 10.397 51.599 2.05 104.312 4.69 152.707 26.305 13.592 5.373 22.497 16.302 29.71 29.082l2.751 4.797a21.58 23.208 0 001.849 2.686c10.232 6.132 26.9 12.189 40.223 12.765 20.677-2.185 40.139-8.894 62.297-16.757 93.12-42.409 188.387-82.192 272.093-144.47 84.3-64.95 178.126-118.454 277.965-149.692 82.62-16.393 181.739-33.378 271.458-13.175 18.108 5.236 27.48 16.985 35.284 34.516a59.107 63.568 0 00-1.214 15.452 47.224 50.789 0 01-7.17 27.23c-19.815 21.463-38.53 22.556-64.371 25.652-59.122 3.31-114.87 7.833-171.041 19.49-47.69 9.76-89.17 41.483-131.566 64.95-29.469 19.428-59.178 38.842-85.118 63.568-72.741 83.74-160.131 175.48-265.122 213.533-51.104 16.833-24.783 6.906-16.569 14.587 15.99 10.352 30.344 19.2 48.494 24.438 4.192-.152 8.214-.486 12.646.303 25.573 1.685 41.818 7.392 51.076 37.734-8.044 48.299-40.576 84.697-82.31 101.424-31.26 10.99-64.286 12.81-95.265 11.642l-9.315-2.869c-2.145.972-5.984 1.123-9.103.683-40.18-4.022-76.156-22.6-111.75-41.392h0z" fill="#d98f45" fill-rule="evenodd"/></g></svg>