<svg id="Layer_1" data-name="Layer 1" xmlns="http://www.w3.org/2000/svg" viewBox="0 0 256 208.04554"><defs><style>.cls-1{fill:#a3a3a3;}</style></defs><path class="cls-1" d="M256,25.45a105.01412,105.01412,0,0,1-30.16585,8.2702A52.67912,52.67912,0,0,0,248.92744,4.66308,105.18277,105.18277,0,0,1,215.576,17.4083a52.56975,52.56975,0,0,0-89.49934,47.903A149.10844,149.10844,0,0,1,17.8214,10.43593,52.57715,52.57715,0,0,0,34.07621,80.55572a52.31157,52.31157,0,0,1-23.79-6.56879c-.00375.21912-.00375.43916-.00375.66016a52.55239,52.55239,0,0,0,42.131,51.49964,52.64775,52.64775,0,0,1-23.71879.89987A52.57323,52.57323,0,0,0,77.757,163.52185a105.38315,105.38315,0,0,1-65.22808,22.48276A106.84318,106.84318,0,0,1,0,185.27141a148.6616,148.6616,0,0,0,80.51092,23.59613c96.60561,0,149.43305-80.03056,149.43305-149.43494q0-3.416-.15169-6.79445A106.74855,106.74855,0,0,0,256,25.45" transform="translate(0 -0.822)"/></svg>