<svg data-name="Layer 1" xmlns="http://www.w3.org/2000/svg" viewBox="0 0 256 208.046"><path d="M256 24.628a105.014 105.014 0 01-30.166 8.27 52.68 52.68 0 0023.093-29.057 105.183 105.183 0 01-33.351 12.745 52.57 52.57 0 00-89.5 47.903A149.108 149.108 0 0117.822 9.614a52.577 52.577 0 0016.255 70.12 52.312 52.312 0 01-23.79-6.57c-.004.22-.004.44-.004.661a52.552 52.552 0 0042.131 51.5 52.648 52.648 0 01-23.718.9A52.573 52.573 0 0077.757 162.7a105.383 105.383 0 01-65.228 22.483A106.843 106.843 0 010 184.449a148.662 148.662 0 0080.51 23.597c96.607 0 149.434-80.031 149.434-149.435q0-3.416-.152-6.795A106.749 106.749 0 00256 24.628" fill="#a3a3a3"/></svg>