<?xml version="1.0" encoding="utf-8"?>
<!-- Generator: Adobe Illustrator 24.1.2, SVG Export Plug-In . SVG Version: 6.00 Build 0)  -->
<svg version="1.1" id="Layer_1" xmlns="http://www.w3.org/2000/svg" xmlns:xlink="http://www.w3.org/1999/xlink" x="0px" y="0px"
	 viewBox="0 0 200 200" style="enable-background:new 0 0 200 200;" xml:space="preserve">
<style type="text/css">
	.st0{fill:#FBE122;}
</style>
<desc>Created with Sketch.</desc>
<g id="oregon_1_">
	<g id="oregon_BGD">
		<g id="oregon" transform="translate(0.000000, 17.000000)">
			
				<g id="g10" transform="translate(100.000000, 82.724658) scale(-1, 1) rotate(-180.000000) translate(-100.000000, -82.724658) translate(0.000000, 0.224658)">
				<g id="g12">
					<path id="path14" class="st0" d="M138.5,25.9c-7.7-7.8-20.7-14.4-38.5-14.4c-17.9,0-30.8,6.7-38.5,14.4
						c-9.8,10-12.6,15.5-12.6,56c0,40.5,2.8,46,12.6,56c7.7,7.8,20.7,14.4,38.5,14.4c17.9,0,30.8-6.6,38.5-14.4
						c9.8-10,12.6-15.5,12.6-56C151.1,41.5,148.3,35.9,138.5,25.9 M182.2,139c-12.6,12.2-41.4,25.6-82.3,25.6
						c-40.9,0-69.7-13.4-82.3-25.6C0.2,121.9,0,101.8,0,82c0-19.8,0.4-39.5,17.6-56.4C30.1,13.4,58.9,0,99.9,0
						c41,0,69.8,13.4,82.3,25.6c17.4,17.1,17.6,37.1,17.6,56.9C199.8,102.3,199.4,122,182.2,139"/>
				</g>
			</g>
		</g>
	</g>
</g>
</svg>
