<svg xmlns="http://www.w3.org/2000/svg" viewBox="0 0 200 200"><path d="M138.5 156.325c-7.7 7.8-20.7 14.4-38.5 14.4-17.9 0-30.8-6.7-38.5-14.4-9.8-10-12.6-15.5-12.6-56s2.8-46 12.6-56c7.7-7.8 20.7-14.4 38.5-14.4 17.9 0 30.8 6.6 38.5 14.4 9.8 10 12.6 15.5 12.6 56 0 40.4-2.8 46-12.6 56m43.7-113.1c-12.6-12.2-41.4-25.6-82.3-25.6s-69.7 13.4-82.3 25.6c-17.4 17.1-17.6 37.2-17.6 57 0 19.8.4 39.5 17.6 56.4 12.5 12.2 41.3 25.6 82.3 25.6s69.8-13.4 82.3-25.6c17.4-17.1 17.6-37.1 17.6-56.9 0-19.8-.4-39.5-17.6-56.5" fill="#fbe122"/></svg>