<?xml version="1.0" encoding="utf-8"?>
<!-- Generator: Adobe Illustrator 24.1.2, SVG Export Plug-In . SVG Version: 6.00 Build 0)  -->
<svg version="1.1" id="Layer_1" xmlns="http://www.w3.org/2000/svg" xmlns:xlink="http://www.w3.org/1999/xlink" x="0px" y="0px"
	 viewBox="0 0 200 200" style="enable-background:new 0 0 200 200;" xml:space="preserve">
<style type="text/css">
	.st0{fill:#FFFFFF;}
	.st1{fill:#51BBED;}
	.st2{fill:#173A79;}
</style>
<desc>Created with Sketch.</desc>
<g id="villanova_1_">
	<g id="villanova_BGD">
		<g id="villanova" transform="translate(0.000000, 11.000000)">
			
				<g id="g10" transform="translate(99.999998, 88.636366) scale(-1, 1) rotate(-180.000000) translate(-99.999998, -88.636366) translate(0.000000, 0.000004)">
				<g id="g12">
					<path id="path14" class="st0" d="M187.7,164.7c0,0-5.7-4.2-10-15.4L133.3,30.8c-3-8-3.6-12.3,1.8-17.5v-1.8h-30.7H95H64.3v1.8
						c5.4,5.2,4.8,9.5,1.8,17.5L21.6,149.3c-4.2,11.2-10,15.4-10,15.4v1.3h23.6h8h32.7v-1.3c0,0-9.1-5.8-4.5-18.2l28.3-76.1
						l28.3,76.1c4.6,12.4-4.5,18.2-4.5,18.2v1.3h32.7h8h23.6V164.7z M116.6,173.1v-12.1c0,0,8.5-2.5,4.9-12L99.7,90.1l-21.8,58.8
						c-3.6,9.5,4.9,12,4.9,12v12.1H4.2v-12.1c0,0,6.3-2.9,10.3-14.1L58.6,29.4c4.1-10.8,0.4-12.3-1.8-13.5V4.2h85.8v11.7
						c-2.2,1.2-5.9,2.6-1.8,13.5l44.1,117.4c4.1,11.2,10.3,14.1,10.3,14.1v12.1H116.6L116.6,173.1z"/>
					<polyline id="path16" class="st1" points="156.2,166 99.7,20.1 43.2,166 35.3,166 95,11.6 104.4,11.6 164.2,166 156.2,166 
											"/>
					<path id="path18" class="st2" d="M195.2,160.9c0,0-6.3-2.9-10.3-14.1L140.8,29.4c-4.1-10.8-0.4-12.3,1.8-13.5V4.2H56.8v11.7
						c2.2,1.2,5.9,2.6,1.8,13.5L14.5,146.9c-4.1,11.2-10.3,14.1-10.3,14.1v12.1h78.6v-12.1c0,0-8.5-2.5-4.9-12l21.8-58.8l21.8,58.8
						c3.6,9.5-4.9,12-4.9,12v12.1h78.6V160.9z M112.4,177.3v-18.9c0,0,7.7-1.2,5.2-7.9l-17.9-48.2l-17.9,48.2
						c-2.5,6.7,5.2,7.9,5.2,7.9v18.9H0v-18.9c0,0,6.4-1.7,10.6-12.8L54.7,28c3-8,1.9-7.5-2.1-9.4V0h94.2v18.6
						c-4,1.8-5.1,1.4-2.1,9.4l44.1,117.6c4.2,11.1,10.6,12.8,10.6,12.8v18.9H112.4L112.4,177.3z"/>
					<path id="path20" class="st2" d="M11.7,166v-1.3c0,0,5.7-4.2,10-15.4L66.1,30.8c3-8,3.6-12.3-1.8-17.5v-1.8H95L35.3,166H11.7"
						/>
					<path id="path22" class="st2" d="M128,146.5L99.7,70.3l-28.3,76.1c-4.6,12.4,4.5,18.2,4.5,18.2v1.3H43.2L99.7,20.1L156.2,166
						h-32.7v-1.3C123.5,164.7,132.6,158.9,128,146.5"/>
					<path id="path24" class="st2" d="M135.1,11.6v1.8c-5.4,5.2-4.8,9.5-1.8,17.5l44.5,118.5c4.2,11.2,10,15.4,10,15.4v1.3h-23.6
						L104.4,11.6H135.1"/>
				</g>
			</g>
		</g>
	</g>
</g>
</svg>
