<svg version="1.1" id="Layer_1" xmlns="http://www.w3.org/2000/svg" x="0" y="0" viewBox="0 0 200 200" xml:space="preserve"><style>.st2{fill:#173a79}</style><g id="villanova_1_"><g id="villanova_BGD"><g id="villanova" transform="translate(0 11)"><g id="g10" transform="matrix(1 0 0 -1 0 177.273)"><g id="g12"><path id="path14" d="M187.7 164.7s-5.7-4.2-10-15.4L133.3 30.8c-3-8-3.6-12.3 1.8-17.5v-1.8H64.3v1.8c5.4 5.2 4.8 9.5 1.8 17.5L21.6 149.3c-4.2 11.2-10 15.4-10 15.4v1.3H75.9v-1.3s-9.1-5.8-4.5-18.2l28.3-76.1 28.3 76.1c4.6 12.4-4.5 18.2-4.5 18.2v1.3H187.8v-1.3zm-71.1 8.4V161s8.5-2.5 4.9-12L99.7 90.1l-21.8 58.8c-3.6 9.5 4.9 12 4.9 12V173H4.2v-12.1s6.3-2.9 10.3-14.1L58.6 29.4c4.1-10.8.4-12.3-1.8-13.5V4.2h85.8v11.7c-2.2 1.2-5.9 2.6-1.8 13.5l44.1 117.4c4.1 11.2 10.3 14.1 10.3 14.1V173h-78.6v.1z" fill="#fff"/><path id="path16" fill="#51bbed" d="M156.2 166L99.7 20.1 43.2 166h-7.9L95 11.6h9.4L164.2 166h-8"/><path id="path18" class="st2" d="M195.2 160.9s-6.3-2.9-10.3-14.1L140.8 29.4c-4.1-10.8-.4-12.3 1.8-13.5V4.2H56.8v11.7c2.2 1.2 5.9 2.6 1.8 13.5L14.5 146.9C10.4 158.1 4.2 161 4.2 161v12.1h78.6V161s-8.5-2.5-4.9-12l21.8-58.8 21.8 58.8c3.6 9.5-4.9 12-4.9 12v12.1h78.6v-12.2zm-82.8 16.4v-18.9s7.7-1.2 5.2-7.9l-17.9-48.2-17.9 48.2c-2.5 6.7 5.2 7.9 5.2 7.9v18.9H0v-18.9s6.4-1.7 10.6-12.8L54.7 28c3-8 1.9-7.5-2.1-9.4V0h94.2v18.6c-4 1.8-5.1 1.4-2.1 9.4l44.1 117.6c4.2 11.1 10.6 12.8 10.6 12.8v18.9h-87z"/><path id="path20" class="st2" d="M11.7 166v-1.3s5.7-4.2 10-15.4L66.1 30.8c3-8 3.6-12.3-1.8-17.5v-1.8H95L35.3 166H11.7"/><path id="path22" class="st2" d="M128 146.5L99.7 70.3l-28.3 76.1c-4.6 12.4 4.5 18.2 4.5 18.2v1.3H43.2L99.7 20.1 156.2 166h-32.7v-1.3s9.1-5.8 4.5-18.2"/><path id="path24" class="st2" d="M135.1 11.6v1.8c-5.4 5.2-4.8 9.5-1.8 17.5l44.5 118.5c4.2 11.2 10 15.4 10 15.4v1.3h-23.6L104.4 11.6h30.7"/></g></g></g></g></g></svg>