<?xml version="1.0" encoding="utf-8"?>
<!-- Generator: Adobe Illustrator 24.1.2, SVG Export Plug-In . SVG Version: 6.00 Build 0)  -->
<svg version="1.1" id="Layer_1" xmlns="http://www.w3.org/2000/svg" xmlns:xlink="http://www.w3.org/1999/xlink" x="0px" y="0px"
	 viewBox="0 0 600 200" style="enable-background:new 0 0 600 200;" xml:space="preserve">
<style type="text/css">
	.st0{fill:#183159;stroke:#231F20;stroke-miterlimit:10;}
	.st1{fill:#FFFFFF;}
</style>
<path class="st0" d="M105,0H495c58,0,105,44.8,105,100v0c0,55.2-47,100-105,100H105C47,200,0,155.2,0,100v0C0,44.8,47,0,105,0z"/>
<path class="st1" d="M278,159.7h-20.3L240.9,51H240l-16.7,108.7H203l-17.7-133H198l15.2,122.2h0.9l19.3-122.2h14.3l19.3,122.2h0.9
	L283,26.7h12.8L278,159.7z"/>
<path class="st1" d="M317.6,26.7h12.9v133h-12.9V26.7z"/>
<path class="st1" d="M357.6,26.7h19l30.2,111h0.9v-111h12.6v133h-19l-30.2-111h-0.9v111h-12.6V26.7z"/>
</svg>
