<svg version="1.1" id="Layer_1" xmlns="http://www.w3.org/2000/svg" x="0" y="0" viewBox="0 0 600 200" xml:space="preserve"><style>.st1{fill:#fff}</style><path d="M105 0h390c58 0 105 44.8 105 100v0c0 55.2-47 100-105 100H105C47 200 0 155.2 0 100v0C0 44.8 47 0 105 0z" fill="#183159" stroke="#231f20" stroke-miterlimit="10"/><path class="st1" d="M278 159.7h-20.3L240.9 51h-.9l-16.7 108.7H203l-17.7-133H198l15.2 122.2h.9l19.3-122.2h14.3L267 148.9h.9L283 26.7h12.8l-17.8 133zM317.6 26.7h12.9v133h-12.9v-133zM357.6 26.7h19l30.2 111h.9v-111h12.6v133h-19l-30.2-111h-.9v111h-12.6v-133z"/></svg>