<svg width="365" height="365" xmlns="http://www.w3.org/2000/svg"><path fill="none" d="M-1-1h367v367H-1z"/><g><path d="M229.2 288.178c-27.2-1-41.5 2.3-41.5 2.3l-18.3-78-17.6 83.5c-32.9 9.9-60.1 25-81.5 59.9l-47.4-140c-1.7-5.3-3.2-8.1-7.9-9.7-6.5-2.1-15 3.2-15 3.2l10.3-95.2a270.698 270.698 0 0142-32.4c27.6-17 60.5-27.7 60.5-27.7l-9.9 98.5s-4.8 1.1-8.5 9.2c-2 4.5-2.1 13.5-.9 19.1l13.8 62.6 20.8-86.6c1.7-7.3 3.2-11.8 0-16.3s-6.9-3.8-6.9-3.8l10.3-90.2s19.8-7.1 43.1-12.6c26.2-6.2 50.3-9.2 50.3-9.2l-10.3 97.5s-4.8.4-7.5 6.4c-2.3 5-2.4 13.3-1.1 18.6l13.6 62.6 21.4-76.1c1.8-5.9 2.3-11 .2-15s-7.7-3.9-7.7-3.9l9.4-90.7s25.3-3.3 54.3-4.5c36.2-1.5 56.2 0 56.2 0l-9.7 84.5s-5.4 7.7-9.6 10.8c-6 4.4-8.4 16.5-8.4 16.5l-50.2 163.7c.3.1-22.4-6.1-46.3-7z"/><path d="M229.1 279.278c-21.6-1.1-35.3.8-35.3.8l-15-70.3-15 76.3c-36.7 7.9-70 22-91.2 53.1l-42.4-130.5c-1.7-5.3-3.2-9.9-9-11.7a13.553 13.553 0 00-10.5 1.1l11-103.7a284.306 284.306 0 0141.3-29.5c27.6-16.2 61.3-27.7 61.3-27.7l-10.3 101s-4.8 1-8.5 8.9c-2 4.4-2.1 13.5-.9 19.1l14.3 65.5 19.6-79.3c1.7-7.3 2.9-10 0-15.7a8.856 8.856 0 00-7.1-5l11.3-99.3s19.8-5.8 43.1-10.6c26.2-5.4 50.3-7.7 50.3-7.7l-10.3 97.1s-4.8.2-7.5 6.2c-2.3 4.9-2.4 13.3-1.1 18.6l14.2 66.4 20.6-76.2c1.8-5.8 1.4-9-.8-13.1-2.1-4.1-8-4.2-8-4.2l10.9-96.4s26.8-3 55.8-3.3c36.2-.4 55.1 1.5 55.1 1.5l-9.6 94.1s-5.6-.4-9.9 2.6c-6 4.2-8.4 16.3-8.4 16.3l-51 165.2c0 .1-21.8-7.8-57-9.6z" fill="#b70101"/></g></svg>