<svg id="Layer_1" data-name="Layer 1" xmlns="http://www.w3.org/2000/svg" viewBox="0 0 157.5071 109.00957"><defs><style>.cls-1{fill:none;}.cls-2{fill:#a3a3a3;}</style></defs><polygon class="cls-1" points="63.607 30.302 63.607 79.217 102.907 54.502 63.607 30.302"/><path class="cls-2" d="M154.10712,17.00249a19.58118,19.58118,0,0,0-13.9-13.8c-12.3-3.2-61.5-3.2-61.5-3.2s-48.3-.2-60.6,3c-6.8,1.8-13.3,7.3-15.1,14-3.3,12.2-3,37.5-3,37.5s-.3,25.3,3,37.5c1.8,6.7,8.4,12.2,15.1,14,12.3,3.3,60.6,3,60.6,3s48.3.2,60.6-3c6.8-1.8,13.1-7.3,14.9-14,3.3-12.1,3.3-37.5,3.3-37.5S157.4071,29.2025,154.10712,17.00249ZM63.607,79.217V30.302l39.3,24.2Z" transform="translate(0.00002 -0.00002)"/></svg>