<svg id="Layer_1" data-name="Layer 1" xmlns="http://www.w3.org/2000/svg" viewBox="0 0 601 201"><defs><style>.cls-1{fill:#183159;stroke:#231f20;stroke-miterlimit:10;}.cls-2{fill:#fff;}</style></defs><path class="cls-1" d="M105.02836,0H494.97164C552.97719,0,600,44.77148,600,99.9999v.0002C600,155.22852,552.97719,200,494.97164,200H105.02836C47.02279,200,0,155.22852,0,100.0001v-.0002C0,44.77148,47.02279,0,105.02836,0Z" transform="translate(0.5 0.5)"/><path class="cls-2" d="M84.04663,34.57278A49.43235,49.43235,0,0,1,92.47437,31.479a52.33931,52.33931,0,0,1,13.4707-1.36523,46.05047,46.05047,0,0,1,16.92773,3.27588l-2.16113,11.82959a48.74563,48.74563,0,0,0-14.19043-2.18408,55.13984,55.13984,0,0,0-10.44482.728,12.08344,12.08344,0,0,0-5.54688,2.54786,22.89025,22.89025,0,0,0-3.31348,3.458,11.8929,11.8929,0,0,0-1.80078,5.09571,102.70034,102.70034,0,0,0-.57666,12.55761v57.145q0,14.56349,2.30518,17.65332,3.74487,4.91455,8.06787,5.82422a55.316,55.316,0,0,0,11.09326.91016,51.5894,51.5894,0,0,0,15.70361-2.91211l2.73731,10.7373A43.51362,43.51362,0,0,1,104.1438,161.876q-10.37256,0-14.40674-1.81934-4.03491-1.81786-6.33887-3.09375a11.22738,11.22738,0,0,1-4.10595-4.36816q-1.80323-3.0923-2.95362-5.27832a24.62786,24.62786,0,0,1-1.94482-7.09766q-.79321-4.91309-1.22461-8.28027-.43214-3.36621-.57617-10.46485-.29-13.82812-.28809-26.02441,0-12.19043.144-18.38135.14209-6.18457.64844-14.92334.50318-8.73559,1.80078-12.46631,1.29639-3.728,3.45752-8.55371Q80.51709,36.30447,84.04663,34.57278Z" transform="translate(0.5 0.5)"/><path class="cls-2" d="M148.22729,159.69241H135.54956l23.915-127.39453h21.03418l23.91553,127.39453H191.73608l-5.90673-32.21289H154.13452Zm35.15284-44.95215L170.41382,43.94534h-.86426l-13.11035,70.79492Z" transform="translate(0.5 0.5)"/><path class="cls-2" d="M222.42114,32.29788h21.7544q17.28808,0,24.63525,9.28174,7.34766,9.28125,7.34766,31.84863,0,22.56885-7.34766,31.84815-7.34692,9.28125-24.63525,9.28222h-9.36475v45.13379H222.42114Zm41.20362,45.49805V69.06058q0-5.46021-.144-8.09912a33.22456,33.22456,0,0,0-1.08056-6.27832,9.68943,9.68943,0,0,0-2.95362-5.27784q-5.18628-4.18433-15.12695-4.186h-9.50879v56.41748h9.50879q9.94042,0,15.12695-4.18555,3.59986-2.90917,4.03418-11.64746Q263.62207,83.25712,263.62476,77.79593Z" transform="translate(0.5 0.5)"/><path class="cls-2" d="M284.80054,45.03714V32.29788h54.74511V45.03714H318.36792V159.69241H305.97925V45.03714Z" transform="translate(0.5 0.5)"/><path class="cls-2" d="M352.946,159.69241H340.26636l23.916-127.39453h21.03516l23.91406,127.39453H396.45386l-5.90625-32.21289H358.85229Zm35.15235-44.95215-12.9668-70.79492h-.86328L361.157,114.74026Z" transform="translate(0.5 0.5)"/><path class="cls-2" d="M427.13745,32.29788h12.39063V159.69241H427.13745Z" transform="translate(0.5 0.5)"/><path class="cls-2" d="M465.45972,32.29788h18.15234l28.957,106.28321h.86524V32.29788h12.10156V159.69241H507.38354l-28.957-106.2832h-.86523v106.2832H465.45972Z" transform="translate(0.5 0.5)"/></svg>