<svg id="Layer_1" data-name="Layer 1" xmlns="http://www.w3.org/2000/svg" viewBox="0 0 600 200"><defs><style>.cls-1,.cls-2{fill:#fff;}.cls-1{stroke:#183159;stroke-miterlimit:10;stroke-width:10px;}.cls-3{fill:#183159;}</style></defs><path class="cls-1" d="M108.27789,5H491.72211C548.7609,5,595,47.5329,595,99.99991v.00018C595,152.4671,548.7609,195,491.72211,195H108.27789C51.23908,195,5,152.4671,5,100.00009v-.00018C5,47.5329,51.23908,5,108.27789,5Z" transform="translate(0 0)"/><path class="cls-2" d="M163.50757,162.31937V29.31888h12.93506V149.01956h33.99218v13.29981Z" transform="translate(0 0)"/><path class="cls-2" d="M279.09546,160.1348a46.56731,46.56731,0,0,1-8.874,3.13476,45.12527,45.12527,0,0,1-11.20508,1.33008,87.26863,87.26863,0,0,1-10.00244-.47559,24.28224,24.28224,0,0,1-7.14405-1.89941q-3.15892-1.4253-5.56543-2.75488a11.7259,11.7259,0,0,1-4.28662-4.56055q-1.88232-3.22851-3.083-5.50977a25.71315,25.71315,0,0,1-2.03076-7.41015q-.82836-5.12988-1.27832-8.64453-.45117-3.51417-.60156-10.92578-.30322-14.436-.30078-27.16993,0-12.72729.15039-19.18994.14794-6.457.67676-15.58008.52513-9.12011,1.87988-13.01513,1.35351-3.8921,3.60986-8.93018,2.25586-5.03174,5.86573-6.93506a46.85418,46.85418,0,0,1,20.30517-4.55957q10.678,0,16.9209,2.75489a30.26926,30.26926,0,0,1,9.85156,6.55468q3.61011,3.80347,5.18946,14.06006A162.05927,162.05927,0,0,1,291.053,69.02884q.29956,8.36278.30078,24.415,0,16.05834-.15039,22.51513-.15162,6.46143-.67676,15.58008-.52881,9.12012-1.87988,13.01563-1.35424,3.89647-3.60986,8.835Q282.78027,158.33206,279.09546,160.1348Zm-.82715-34.48536V65.9888q0-15.19848-2.55664-18.42969Q271.95,42.4285,267.5144,41.479a44.899,44.899,0,0,0-9.40087-.95019,42.26208,42.26208,0,0,0-8.57325.76025,12.61326,12.61326,0,0,0-5.79052,2.65967,23.904,23.904,0,0,0-3.45948,3.61035,12.42147,12.42147,0,0,0-1.87988,5.31983,107.30573,107.30573,0,0,0-.60156,13.10986v59.66064q0,15.20216,2.40625,18.42969,3.90966,5.12988,8.42285,6.08008a45.73654,45.73654,0,0,0,9.47559.9502,40.93919,40.93919,0,0,0,8.498-.75977,12.528,12.528,0,0,0,5.71582-2.66016,23.98562,23.98562,0,0,0,3.45948-3.61035,11.3586,11.3586,0,0,0,1.72949-5.31933A86.30706,86.30706,0,0,0,278.26831,125.64944Z" transform="translate(0 0)"/><path class="cls-2" d="M368.05933,126.02933q0,17.86083-6.76758,28.21484-6.76758,10.35791-22.18555,10.35547a57.53609,57.53609,0,0,1-28.20117-7.03027l2.707-11.78028a60.404,60.404,0,0,0,24.667,5.32032q8.87256,0,13.01074-5.50977,4.13379-5.50927,4.13575-16.91016,0-11.40087-2.25586-17.29-2.25734-5.8872-9.47559-7.21972l-14.89062-2.66016Q318.27417,99.43,314.741,90.689q-3.53615-8.73707-3.53516-26.41016,0-17.66969,7.29492-27.45508,7.29347-9.78369,20.1543-9.78467A60.22858,60.22858,0,0,1,364.45,33.11868l-2.707,11.40039a61.81,61.81,0,0,0-20.38086-3.99023q-9.10107,0-13.31055,4.65527-4.21288,4.65747-4.21093,17.38477,0,12.73168,2.17968,18.24023,2.17969,5.51295,8.79981,6.6499l14.13769,2.65967a20.44469,20.44469,0,0,1,14.36426,9.9751Q368.06079,108.17239,368.05933,126.02933Z" transform="translate(0 0)"/><path class="cls-2" d="M441.75854,126.02933q0,17.86083-6.76855,28.21484-6.769,10.35791-22.18555,10.35547a57.53615,57.53615,0,0,1-28.20117-7.03027l2.707-11.78028a60.40408,60.40408,0,0,0,24.667,5.32032q8.87256,0,13.01075-5.50977,4.13524-5.50927,4.13574-16.91016,0-11.40087-2.25586-17.29-2.25587-5.8872-9.47559-7.21972l-14.89062-2.66016Q391.97242,99.43,388.43823,90.689q-3.53613-8.73707-3.53418-26.41016,0-17.66969,7.29492-27.45508,7.29347-9.78369,20.1543-9.78467a60.22858,60.22858,0,0,1,25.79492,6.07959l-2.707,11.40039a61.80941,61.80941,0,0,0-20.37988-3.99023q-9.10254,0-13.31152,4.65527-4.2129,4.65747-4.21192,17.38477,0,12.73168,2.18164,18.24023,2.17822,5.51295,8.79883,6.6499l14.1377,2.65967a20.4427,20.4427,0,0,1,14.36425,9.9751Q441.75758,108.17239,441.75854,126.02933Z" transform="translate(0 0)"/><path class="cls-3" d="M114.1814,27.70413h16.53027V141.89554h54.7207v13.87012h-71.251Z" transform="translate(0 0)"/><path class="cls-3" d="M305.89233,90.40482c0,44.08056-26.79,67.45068-59.4707,67.45068-33.82031,0-57.57031-26.21973-57.57031-64.98047,0-40.66064,25.27-67.26123,59.4707-67.26123C283.282,25.6138,305.89233,52.40433,305.89233,90.40482Zm-99.37109,2.08984c0,27.36084,14.82031,51.87158,40.85059,51.87158,26.2207,0,41.041-24.13086,41.041-53.20166,0-25.46-13.30078-52.06055-40.85107-52.06055C220.20142,39.104,206.52124,64.37454,206.52124,92.49466Z" transform="translate(0 0)"/><path class="cls-3" d="M325.08081,135.626a58.58305,58.58305,0,0,0,29.64063,8.35937c16.91015,0,26.79-8.92969,26.79-21.84961,0-11.9707-6.83984-18.81054-24.12988-25.46093-20.90039-7.41016-33.82031-18.24024-33.82031-36.29053,0-19.9502,16.5293-34.77051,41.41992-34.77051,13.11035,0,22.61035,3.04,28.31055,6.27051L388.7312,45.374A51.003,51.003,0,0,0,364.41089,39.294c-17.47949,0-24.12988,10.45019-24.12988,19.19043,0,11.97021,7.79,17.86035,25.46,24.70019,21.66015,8.36035,32.68066,18.81055,32.68066,37.62109,0,19.75977-14.62988,36.86036-44.84082,36.86036-12.34961,0-25.83984-3.61036-32.67969-8.16993Z" transform="translate(0 0)"/><path class="cls-3" d="M418.74976,135.626a58.583,58.583,0,0,0,29.64062,8.35937c16.91016,0,26.79-8.92969,26.79-21.84961,0-11.9707-6.83984-18.81054-24.12988-25.46093-20.90039-7.41016-33.82129-18.24024-33.82129-36.29053,0-19.9502,16.53027-34.77051,41.4209-34.77051,13.11035,0,22.61035,3.04,28.31054,6.27051L482.40015,45.374A51.003,51.003,0,0,0,458.07983,39.294c-17.47949,0-24.12988,10.45019-24.12988,19.19043,0,11.97021,7.79,17.86035,25.46,24.70019,21.66113,8.36035,32.68067,18.81055,32.68067,37.62109,0,19.75977-14.62989,36.86036-44.84082,36.86036-12.34961,0-25.83985-3.61036-32.67969-8.16993Z" transform="translate(0 0)"/></svg>