<svg id="Layer_1" data-name="Layer 1" xmlns="http://www.w3.org/2000/svg" viewBox="0 0 600 200"><defs><style>.cls-1{fill:#f1c400;stroke:#183159;stroke-miterlimit:10;stroke-width:10px;}.cls-2{fill:#183159;}</style></defs><path class="cls-1" d="M108.27789,5H491.72211C548.7609,5,595,47.5329,595,99.99991v.00018C595,152.4671,548.7609,195,491.72211,195H108.27789C51.23908,195,5,152.4671,5,100.00009v-.00018C5,47.5329,51.23908,5,108.27789,5Z" transform="translate(0 0)"/><path class="cls-2" d="M222.196,41.76419H183.24585V27.70413h94.811V41.76419H238.91675V155.76566H222.196Z" transform="translate(0 0)"/><path class="cls-2" d="M308.83472,27.70413V155.76566H292.30444V27.70413Z" transform="translate(0 0)"/><path class="cls-2" d="M404.02515,95.72513H354.24487v46.17041h55.48047v13.87012H337.7146V27.70413h69.16016V41.57425H354.24487V82.04446h49.78028Z" transform="translate(0 0)"/></svg>