<svg id="Layer_1" data-name="Layer 1" xmlns="http://www.w3.org/2000/svg" viewBox="0 0 601 201"><defs><style>.cls-1{fill:#183159;stroke:#231f20;stroke-miterlimit:10;}.cls-2{fill:#fff;}</style></defs><path class="cls-1" d="M105.02836,0H494.97164C552.97719,0,600,44.77148,600,99.9999v.0002C600,155.22852,552.97719,200,494.97164,200H105.02836C47.02279,200,0,155.22852,0,100.0001v-.0002C0,44.77148,47.02279,0,105.02836,0Z" transform="translate(0.5 0.5)"/><path class="cls-2" d="M278.04175,159.69241H257.73608L240.89038,51.01273H239.988L223.29272,159.69241H202.988L185.24,26.6929h12.78418l15.19141,122.16944h.90234L233.36987,26.6929h14.28907l19.25195,122.16944h.90234L283.00464,26.6929h12.78515Z" transform="translate(0.5 0.5)"/><path class="cls-2" d="M317.59644,26.6929H330.531V159.69241H317.59644Z" transform="translate(0.5 0.5)"/><path class="cls-2" d="M357.60327,26.6929h18.95215l30.23145,110.95947h.90234V26.6929H420.323V159.69241H401.37183L371.14038,48.73294H370.238V159.69241H357.60327Z" transform="translate(0.5 0.5)"/></svg>